<svg width="399" height="170" viewBox="0 0 399 170" fill="none" xmlns="http://www.w3.org/2000/svg">
<mask id="mask0_1425_4654" style="mask-type:luminance" maskUnits="userSpaceOnUse" x="20" y="60" width="137" height="65">
<path d="M71.2089 83.622C94.2282 68.2532 94.0929 68.0501 92.9961 66.1612C92.7411 65.731 92.3281 65.4176 91.8451 65.2878C90.5317 64.956 88.8593 65.5383 65.0614 79.8915C84.2487 67.2512 84.0186 66.8653 82.9692 65.0373C82.7188 64.6156 82.3127 64.3092 81.8385 64.1842C80.762 63.9066 80.4031 63.8118 62.0148 74.8543C74.9191 65.9513 74.6619 65.4977 73.7411 63.9134C73.4843 63.4891 73.0749 63.179 72.5969 63.0468C71.2428 62.7083 70.0512 63.189 46.1924 77.7385C60.918 67.0346 60.8638 66.9465 59.9024 65.281C59.6548 64.8597 59.2509 64.5532 58.7785 64.428C57.6817 64.1504 57.4854 64.0962 39.8215 74.8069C48.2574 67.7522 48.149 67.5626 47.3298 66.1409C47.2108 65.9367 47.0527 65.758 46.8645 65.6151C46.6763 65.4722 46.4617 65.3678 46.233 65.3081C45.3529 65.0779 45.3529 65.0779 37.9664 69.5125C35.1296 71.2119 31.2908 73.5206 30.37 73.9606C30.1105 74.0386 29.8715 74.1729 29.6699 74.354C29.4683 74.535 29.3091 74.7583 29.2037 75.0079C29.0983 75.2575 29.0493 75.5272 29.0601 75.798C29.0709 76.0687 29.1414 76.3337 29.2664 76.574C29.3854 76.7782 29.5435 76.9569 29.7318 77.0998C29.92 77.2427 30.1346 77.3471 30.3632 77.4068C30.5953 77.4911 30.8466 77.5075 31.0877 77.4542C21.6768 85.3011 21.731 85.3891 22.5638 86.8447C22.6853 87.0535 22.8474 87.2359 23.0403 87.3812C23.2333 87.5265 23.4534 87.6319 23.6876 87.691C24.5272 87.9077 24.7776 87.9686 32.2995 83.4866C20.5191 92.1391 20.7087 92.4641 21.6023 94.0213C21.8583 94.4422 22.2651 94.7496 22.7398 94.8811C23.7621 95.1452 24.148 95.2332 37.9528 86.9124C22.5028 97.3997 22.6247 97.6028 23.6132 99.3157C23.8635 99.7374 24.2696 100.044 24.7438 100.169C25.651 100.399 26.0573 100.501 37.6482 93.6489C20.0113 105.341 20.2889 105.836 21.2909 107.562C21.548 107.985 21.9576 108.293 22.4351 108.422C23.7892 108.774 25.2855 108.144 55.5423 89.8101C29.9232 106.905 30.0382 107.108 31.1689 109.052C31.4275 109.473 31.8365 109.78 32.3131 109.911C33.6672 110.257 35.1905 109.654 63.9511 92.2001C29.957 113.635 30.1466 113.953 31.372 116.12C31.6504 116.556 32.0793 116.874 32.5772 117.014C33.7484 117.311 36.1451 116.404 45.6372 110.852C31.9949 119.837 32.4147 120.568 33.2948 122.085C33.557 122.515 33.9734 122.83 34.4593 122.965C35.5696 123.242 37.9258 122.322 49.2662 115.768C39.984 121.787 40.3225 122.362 41.1417 123.737C41.4098 124.173 41.833 124.492 42.3265 124.63C43.64 124.962 47.1131 123.459 61.92 114.779C54.0054 120.081 54.3845 120.737 55.1496 122.03C55.4228 122.461 55.8443 122.776 56.3344 122.917C58.1218 123.371 63.3282 120.697 95.7922 101.022C69.6044 117.894 69.8278 118.28 70.9043 120.162C71.1626 120.585 71.5714 120.894 72.0485 121.028C73.2943 121.34 74.7025 120.852 97.2479 107.23C80.7078 117.995 81.0396 118.584 82.001 120.243C82.2505 120.667 82.6566 120.976 83.1316 121.103C84.4112 121.435 85.8398 120.873 112.657 104.712C94.7902 116.445 94.9053 116.648 95.9276 118.415C96.1966 118.845 96.6168 119.159 97.1056 119.295C98.0129 119.519 99.3602 119.133 105.156 115.788L105.203 115.754C97.1666 121.408 97.4781 121.949 98.2567 123.29C98.3782 123.498 98.5402 123.681 98.7332 123.826C98.9262 123.972 99.1463 124.077 99.3806 124.136C100.572 124.441 100.823 124.508 125.203 109.708C127.43 108.354 129.82 106.899 132.244 105.443C116.428 116.953 116.53 117.115 117.545 118.882C117.8 119.301 118.204 119.606 118.676 119.735C119.827 120.026 120.098 120.094 139.035 108.557L140.964 107.386C140.943 107.406 140.92 107.424 140.897 107.44C128.886 117.731 128.886 117.731 129.773 119.268C129.893 119.473 130.052 119.652 130.242 119.795C130.431 119.937 130.647 120.042 130.876 120.101C131.513 120.27 131.723 120.324 134.62 118.652C136.096 117.806 138.256 116.506 141.533 114.542C144.478 112.782 148.114 110.616 148.98 110.189C149.234 110.106 149.466 109.968 149.661 109.786C149.856 109.603 150.009 109.38 150.109 109.133C150.209 108.885 150.253 108.619 150.24 108.352C150.226 108.086 150.154 107.825 150.03 107.589C149.911 107.386 149.753 107.208 149.564 107.066C149.376 106.924 149.161 106.821 148.933 106.763C148.364 106.607 148.161 106.56 145.934 107.833C157.159 98.1986 157.091 98.0971 156.218 96.5737C156.097 96.3642 155.936 96.1813 155.742 96.0358C155.549 95.8904 155.329 95.7855 155.094 95.7274C154.133 95.4702 153.889 95.4093 143.158 101.922C156.387 92.261 156.259 92.0173 155.304 90.372C155.051 89.9454 154.64 89.6363 154.16 89.5122C153.131 89.2482 152.041 89.5122 140.226 96.5331C152.806 88.0837 152.63 87.7926 151.736 86.2151C151.476 85.788 151.061 85.4776 150.578 85.3484C149.901 85.1724 149.183 85.2198 145.467 87.2848C154.613 80.9815 154.268 80.4128 153.476 79.0114C153.224 78.5867 152.816 78.2779 152.338 78.1515C151.391 77.9078 150.307 78.1922 139.319 84.6105C156.922 73.3175 156.739 72.9519 155.73 71.2119C155.466 70.7802 155.047 70.4655 154.559 70.3317C153.11 69.9594 149.427 71.6858 130.132 83.1955C152.135 68.9777 151.892 68.5579 150.856 66.7705C150.595 66.3416 150.181 66.0272 149.698 65.8904C148.696 65.6399 146.794 66.3304 137.511 71.6994C147.43 65.1524 147.03 64.4618 146.225 63.0603C145.965 62.6317 145.551 62.3191 145.067 62.187C143.882 61.8891 141.425 62.9317 125.623 72.3426C133.49 66.9804 133.07 66.2492 132.312 64.9493C132.057 64.5231 131.647 64.2124 131.167 64.0827C129.631 63.69 127.302 64.7123 85.0003 90.2908C82.2921 91.936 79.4959 93.6286 76.6727 95.328L81.3443 92.4032C120.782 67.6777 120.707 67.5423 119.421 65.3216C119.151 64.8797 118.722 64.5576 118.223 64.4212C116.801 64.0624 113.558 65.5044 97.5661 75.1387C114.688 64.0353 114.302 63.365 113.328 61.6792C113.061 61.2478 112.644 60.9314 112.156 60.7923C112.032 60.7635 111.905 60.7498 111.777 60.7516C109.631 60.7516 103.111 64.3332 71.2699 83.6694" fill="white"/>
</mask>
<g mask="url(#mask0_1425_4654)">
<path d="M157.08 60.7178H20V124.928H157.08V60.7178Z" fill="url(#paint0_linear_1425_4654)"/>
</g>
<path d="M71.7025 14.1211L70.302 19.2074H71.6288C77.8208 19.2074 82.5631 20.436 85.8556 22.8931C89.1973 25.3502 90.8682 28.9622 90.8682 33.7291C90.8682 37.8079 89.7379 41.3708 87.4774 44.4176C85.2168 47.4645 82.0962 49.7988 78.1157 51.4205C74.1842 52.993 69.7122 53.7793 64.6997 53.7793C60.9157 53.7793 57.3037 53.337 53.8637 52.4525C50.4729 51.5679 47.4506 50.2165 44.7969 48.3982L52.6843 36.3091C54.65 37.5376 56.7877 38.4714 59.0974 39.1102C61.4071 39.7491 63.6677 40.0685 65.8791 40.0685C68.2871 40.0685 70.13 39.6999 71.4077 38.9628C72.6854 38.1765 73.3242 37.0954 73.3242 35.7194C73.3242 34.5891 72.8328 33.7536 71.85 33.2131C70.8671 32.6234 69.2208 32.3285 66.9111 32.3285H51.21L60.0557 1H94.3328L91.6791 14.1211H71.7025Z" fill="#131313"/>
<path d="M137.991 11.6886L126.197 21.8611C129.293 22.844 131.701 24.4411 133.421 26.6525C135.141 28.8639 136.001 31.4685 136.001 34.4662C136.001 38.1028 134.846 41.3953 132.536 44.3439C130.276 47.2925 127.155 49.6022 123.175 51.273C119.194 52.9439 114.747 53.7793 109.833 53.7793C106.049 53.7793 102.437 53.337 98.9965 52.4525C95.6057 51.5679 92.5834 50.2165 89.9297 48.3982L97.8171 36.3091C99.7828 37.5376 101.921 38.4714 104.23 39.1102C106.54 39.7491 108.801 40.0685 111.012 40.0685C113.42 40.0685 115.263 39.6999 116.54 38.9628C117.818 38.1765 118.457 37.0708 118.457 35.6456C118.457 33.5816 116.737 32.5496 113.297 32.5496H106.147L108.285 21.8611L117.278 14.1211H98.9965L101.65 1H140.129L137.991 11.6886Z" fill="#131313"/>
<path d="M41.6261 110.432C39.2206 109.901 36.9118 109.002 34.7812 107.765L39.5205 98.7468C43.2216 100.945 47.4431 102.114 51.7478 102.132C52.9658 102.19 54.1827 101.996 55.3226 101.563C56.1486 101.184 56.5616 100.663 56.5616 100.006C56.5616 99.3494 56.1418 98.8822 55.2955 98.5031C53.9925 97.9833 52.65 97.569 51.2807 97.2641C49.2381 96.7617 47.2299 96.1284 45.2686 95.3684C43.6673 94.7229 42.2391 93.712 41.098 92.4165C39.8575 90.9526 39.2188 89.0725 39.3106 87.1559C39.2595 84.5923 40.0306 82.0797 41.511 79.9861C43.1276 77.828 45.3327 76.1824 47.8616 75.2468C50.9856 74.0583 54.3101 73.4859 57.6516 73.561C60.188 73.5451 62.7181 73.8153 65.1938 74.3667C67.3121 74.8157 69.3473 75.5923 71.2262 76.6686L66.8254 85.5852C65.3768 84.668 63.7938 83.9827 62.1336 83.5541C60.417 83.1006 58.6485 82.873 56.873 82.877C55.5227 82.8099 54.1754 83.0603 52.9394 83.6082C52.0051 84.0912 51.538 84.6599 51.538 85.3144C51.538 85.9914 51.9645 86.4924 52.8108 86.8715C54.1621 87.4055 55.5577 87.8201 56.9814 88.1105C58.9955 88.564 60.9768 89.152 62.9121 89.8708C64.5141 90.4925 65.9441 91.4884 67.0827 92.7753C68.3053 94.216 68.9345 96.0674 68.843 97.9547C68.89 100.499 68.1083 102.989 66.6156 105.05C64.9817 107.199 62.773 108.842 60.2447 109.789C57.1359 110.973 53.8275 111.543 50.5021 111.468C47.5204 111.489 44.5471 111.15 41.6464 110.46" fill="white"/>
<path d="M82.8034 83.8318H72.1875L74.0967 74.3464H107.57L105.653 83.8318H95.0308L89.6957 110.615H77.4684L82.8034 83.8318Z" fill="white"/>
<path d="M113.822 109.397C111.138 108.157 108.869 106.168 107.289 103.669C105.728 101.133 104.926 98.2033 104.98 95.2263C104.911 91.2824 105.925 87.3952 107.911 83.9874C109.849 80.7144 112.663 78.0481 116.036 76.2895C119.69 74.3977 123.757 73.4461 127.871 73.5204C131.064 73.4587 134.231 74.1037 137.146 75.4093C139.666 76.5138 141.77 78.3918 143.151 80.7715L134.35 87.6637C133.667 86.3419 132.623 85.2408 131.34 84.4882C130.056 83.7357 128.586 83.3625 127.099 83.4119C125.306 83.3802 123.542 83.8694 122.021 84.8202C120.52 85.7711 119.316 87.1247 118.548 88.7267C117.697 90.5118 117.273 92.4704 117.309 94.4476C117.264 95.4022 117.422 96.3554 117.772 97.2446C118.122 98.1338 118.656 98.9388 119.34 99.6067C120.818 100.943 122.765 101.642 124.756 101.55C127.83 101.55 130.525 100.151 132.84 97.3522L140.037 104.244C138.149 106.664 135.684 108.57 132.867 109.789C129.905 110.946 126.744 111.509 123.565 111.448C120.198 111.525 116.858 110.83 113.802 109.417" fill="white"/>
<path d="M66.631 132.585L62.6839 143.486H59.644L57.1931 136.722L54.661 143.486H51.6143L47.6875 132.585H50.6664L53.2392 139.965L55.9135 132.585H58.5878L61.1809 139.965L63.8349 132.585H66.631Z" fill="#131313"/>
<path d="M68.2742 130.554C68.1015 130.395 67.9637 130.201 67.8695 129.985C67.7752 129.77 67.7266 129.537 67.7266 129.302C67.7266 129.066 67.7752 128.834 67.8695 128.618C67.9637 128.403 68.1015 128.209 68.2742 128.049C68.6653 127.704 69.1744 127.522 69.6959 127.541C70.2125 127.518 70.7186 127.692 71.111 128.029C71.2862 128.178 71.4263 128.364 71.5211 128.573C71.6159 128.783 71.6631 129.011 71.6594 129.241C71.6661 129.486 71.6208 129.73 71.5262 129.956C71.4317 130.183 71.2902 130.387 71.111 130.554C70.713 130.886 70.211 131.068 69.6926 131.068C69.1742 131.068 68.6722 130.886 68.2742 130.554ZM68.1117 132.585H71.2735V143.486H68.1117V132.585Z" fill="#131313"/>
<path d="M81.2516 142.964C80.9049 143.209 80.5139 143.384 80.1005 143.479C79.6333 143.595 79.1534 143.651 78.672 143.648C77.5798 143.72 76.5021 143.366 75.666 142.66C75.2929 142.276 75.0052 141.817 74.822 141.314C74.6388 140.812 74.5641 140.275 74.603 139.742V135.26H72.9375V132.836H74.6233V130.175H77.7851V132.836H80.4933V135.26H77.7851V139.701C77.759 140.088 77.8854 140.469 78.1372 140.764C78.2685 140.893 78.4257 140.993 78.5984 141.057C78.771 141.121 78.9554 141.148 79.1392 141.136C79.5994 141.15 80.0506 141.007 80.4188 140.73L81.2516 142.964Z" fill="#131313"/>
<path d="M92.9338 133.641C93.3759 134.127 93.7143 134.697 93.9285 135.317C94.1427 135.938 94.2281 136.595 94.1795 137.25V143.485H91.0109V137.737C91.0677 137.045 90.8677 136.356 90.449 135.801C90.2449 135.572 89.9914 135.392 89.7076 135.274C89.4238 135.157 89.1171 135.106 88.8106 135.124C88.4579 135.108 88.1059 135.166 87.7771 135.294C87.4482 135.422 87.1499 135.618 86.9013 135.869C86.4008 136.485 86.1582 137.271 86.2243 138.062V143.479H83.0625V128.448H86.2243V133.723C86.6556 133.296 87.1725 132.966 87.7409 132.754C88.3645 132.533 89.0222 132.423 89.684 132.429C90.2835 132.402 90.8824 132.495 91.4453 132.703C92.0082 132.911 92.5236 133.23 92.9608 133.641" fill="#131313"/>
<path d="M102.474 143.824C101.35 143.844 100.239 143.578 99.2449 143.052C98.5566 142.667 97.9522 142.147 97.4669 141.525C96.9816 140.903 96.6251 140.19 96.4184 139.429C96.2116 138.668 96.1587 137.873 96.2628 137.09C96.3668 136.308 96.6256 135.555 97.0242 134.874C97.5607 133.989 98.3286 133.268 99.2449 132.788C100.252 132.29 101.361 132.03 102.485 132.03C103.608 132.03 104.717 132.29 105.724 132.788C106.414 133.174 107.019 133.693 107.506 134.315C107.993 134.937 108.352 135.65 108.56 136.411C108.769 137.173 108.824 137.969 108.721 138.752C108.619 139.536 108.362 140.291 107.965 140.974C107.417 141.854 106.643 142.572 105.724 143.052C104.723 143.579 103.605 143.844 102.474 143.824ZM102.474 141.116C102.997 141.127 103.512 141.001 103.971 140.75C104.413 140.489 104.775 140.109 105.013 139.654C105.287 139.127 105.422 138.54 105.406 137.947C105.427 137.354 105.292 136.766 105.013 136.241C104.773 135.794 104.412 135.423 103.971 135.172C103.521 134.918 103.011 134.79 102.495 134.799C101.974 134.79 101.46 134.918 101.005 135.172C100.557 135.418 100.19 135.79 99.949 136.241C99.6708 136.766 99.5353 137.354 99.5563 137.947C99.5403 138.54 99.6755 139.127 99.949 139.654C100.187 140.114 100.554 140.496 101.005 140.75C101.455 140.997 101.961 141.123 102.474 141.116Z" fill="#131313"/>
<path d="M115.82 143.824C114.935 143.84 114.059 143.65 113.261 143.269C112.523 142.895 111.919 142.302 111.534 141.57C111.094 140.669 110.882 139.674 110.918 138.672V132.206H114.236V138.164C114.174 138.919 114.391 139.67 114.845 140.276C115.064 140.508 115.332 140.689 115.629 140.806C115.927 140.923 116.246 140.973 116.565 140.953C117.037 140.956 117.503 140.84 117.919 140.615C118.328 140.371 118.657 140.013 118.866 139.586C119.113 139.054 119.231 138.472 119.212 137.886V132.206H122.509V143.655H119.361V140.493L119.936 141.434C119.57 142.197 118.973 142.824 118.23 143.228C117.49 143.636 116.658 143.846 115.813 143.838" fill="#131313"/>
<path d="M124.25 132.457H132.178V135.009H124.25V132.457ZM130.289 143.824C129.144 143.893 128.016 143.522 127.134 142.788C126.74 142.384 126.436 141.902 126.242 141.372C126.049 140.842 125.97 140.277 126.01 139.714V129.66H129.348V139.647C129.325 140.056 129.461 140.459 129.727 140.771C129.856 140.907 130.013 141.015 130.187 141.085C130.361 141.155 130.548 141.186 130.736 141.177C131.222 141.188 131.698 141.038 132.09 140.75L132.963 143.093C132.602 143.348 132.195 143.532 131.765 143.634C131.28 143.757 130.782 143.819 130.282 143.817" fill="#131313"/>
<path d="M2.99514 162.835C2.09352 162.374 1.33671 161.673 0.808198 160.81C0.279691 159.946 0 158.953 0 157.94C0 156.928 0.279691 155.935 0.808198 155.071C1.33671 154.207 2.09352 153.506 2.99514 153.045C3.96582 152.553 5.04165 152.305 6.12983 152.321C7.17774 152.297 8.21371 152.547 9.13589 153.045C9.96853 153.496 10.6281 154.211 11.0113 155.076L8.56038 156.43C8.33509 155.974 7.98568 155.59 7.55218 155.323C7.11867 155.056 6.61864 154.917 6.1095 154.921C5.73382 154.913 5.3605 154.982 5.01163 155.121C4.66276 155.261 4.34542 155.469 4.07839 155.733C3.5575 156.352 3.27188 157.135 3.27188 157.944C3.27188 158.753 3.5575 159.535 4.07839 160.154C4.34449 160.42 4.66167 160.629 5.01076 160.768C5.35985 160.908 5.73362 160.975 6.1095 160.967C6.61924 160.978 7.12146 160.842 7.5561 160.576C7.99074 160.309 8.33939 159.923 8.56038 159.464L11.0113 160.818C10.6242 161.681 9.96571 162.394 9.13589 162.849C8.2155 163.352 7.17869 163.605 6.12983 163.58C5.04023 163.588 3.96489 163.332 2.99514 162.835Z" fill="#131313"/>
<path d="M23.312 158.814H15.0657C15.192 159.467 15.5717 160.044 16.1219 160.418C16.7217 160.819 17.4318 161.023 18.153 161.001C18.6674 161.01 19.1791 160.925 19.6628 160.75C20.121 160.566 20.5377 160.292 20.8882 159.944L22.5673 161.772C21.9945 162.373 21.2967 162.84 20.5233 163.14C19.75 163.441 18.92 163.568 18.0921 163.512C16.9708 163.544 15.8577 163.312 14.8423 162.835C13.9317 162.385 13.1718 161.679 12.6554 160.804C12.1333 159.929 11.866 158.925 11.8836 157.907C11.8693 156.894 12.1315 155.897 12.6419 155.022C13.1339 154.164 13.8562 153.46 14.7272 152.991C15.6349 152.524 16.6411 152.28 17.6621 152.28C18.6831 152.28 19.6894 152.524 20.5971 152.991C21.451 153.437 22.1567 154.121 22.6282 154.961C23.1316 155.875 23.3861 156.904 23.3662 157.947C23.3662 157.995 23.3662 158.272 23.3053 158.8M15.9052 155.293C15.413 155.719 15.0969 156.313 15.0183 156.959H20.3872C20.3043 156.316 19.9859 155.728 19.4935 155.307C18.9929 154.895 18.3611 154.676 17.7129 154.691C17.058 154.671 16.4173 154.884 15.9052 155.293Z" fill="#131313"/>
<path d="M25.6497 150.445C25.4768 150.285 25.3389 150.091 25.2445 149.875C25.1502 149.658 25.1016 149.425 25.1016 149.189C25.1016 148.954 25.1502 148.72 25.2445 148.504C25.3389 148.288 25.4768 148.094 25.6497 147.934C26.039 147.59 26.5454 147.408 27.0647 147.426C27.5835 147.4 28.0923 147.575 28.4865 147.913C28.6622 148.063 28.8026 148.25 28.8974 148.461C28.9922 148.672 29.0392 148.901 29.0349 149.132C29.0415 149.376 28.9961 149.619 28.9015 149.844C28.807 150.07 28.6655 150.272 28.4865 150.439C28.0879 150.769 27.5861 150.951 27.068 150.951C26.55 150.951 26.0483 150.769 25.6497 150.439M25.4871 152.47H28.6489V163.37H25.4871V152.47Z" fill="#131313"/>
<path d="M34.7477 148.34H31.5859V163.377H34.7477V148.34Z" fill="#131313"/>
<path d="M37.845 150.446C37.6721 150.285 37.5342 150.091 37.4399 149.875C37.3456 149.659 37.2969 149.425 37.2969 149.19C37.2969 148.954 37.3456 148.721 37.4399 148.504C37.5342 148.288 37.6721 148.094 37.845 147.934C38.2361 147.588 38.7452 147.406 39.2668 147.426C39.7833 147.402 40.2893 147.577 40.6818 147.913C40.8575 148.063 40.9979 148.25 41.0927 148.461C41.1875 148.672 41.2345 148.901 41.2302 149.132C41.2369 149.376 41.1914 149.619 41.0968 149.845C41.0023 150.07 40.8608 150.272 40.6818 150.439C40.2832 150.77 39.7814 150.951 39.2634 150.951C38.7454 150.951 38.2436 150.77 37.845 150.439M37.6825 152.47H40.8443V163.37H37.6825V152.47Z" fill="#131313"/>
<path d="M53.676 153.526C54.118 154.011 54.4565 154.581 54.6707 155.202C54.8849 155.822 54.9703 156.48 54.9217 157.135V163.377H51.7599V157.622C51.8141 156.929 51.6117 156.24 51.1912 155.686C50.987 155.456 50.7335 155.276 50.4497 155.159C50.1659 155.042 49.8593 154.99 49.5527 155.009C49.2001 154.993 48.848 155.05 48.5192 155.179C48.1903 155.307 47.892 155.503 47.6435 155.753C47.1426 156.372 46.9 157.16 46.9665 157.954V163.37H43.8047V152.47H46.8243V153.749C47.2567 153.279 47.792 152.915 48.3883 152.686C49.0347 152.431 49.7243 152.302 50.4194 152.307C51.0193 152.281 51.6184 152.375 52.1813 152.585C52.7442 152.794 53.2593 153.114 53.6962 153.526" fill="#131313"/>
<path d="M69.1517 152.47V161.549C69.1517 163.58 68.6303 165.036 67.5877 166.011C66.545 166.986 65.0285 167.466 63.0312 167.466C62.0213 167.474 61.0147 167.347 60.0387 167.087C59.1861 166.877 58.3847 166.497 57.6826 165.97L58.9419 163.695C59.4575 164.108 60.0485 164.416 60.6819 164.602C61.3646 164.822 62.0772 164.934 62.7943 164.934C63.665 165.009 64.5311 164.745 65.2113 164.196C65.4893 163.897 65.7022 163.543 65.8362 163.158C65.9703 162.772 66.0226 162.362 65.9899 161.955V161.481C65.5481 161.943 65.011 162.304 64.4159 162.538C63.8208 162.772 63.182 162.873 62.5438 162.835C61.5876 162.842 60.645 162.609 59.8017 162.158C58.9864 161.731 58.303 161.09 57.8248 160.303C57.3457 159.464 57.0938 158.514 57.0938 157.548C57.0938 156.581 57.3457 155.631 57.8248 154.792C58.3008 154.004 58.9848 153.362 59.8017 152.937C60.6451 152.487 61.5877 152.254 62.5438 152.26C63.2261 152.217 63.9088 152.336 64.536 152.608C65.1633 152.88 65.7172 153.297 66.1524 153.824V152.423L69.1517 152.47ZM65.2316 159.518C65.7426 159.003 66.0294 158.307 66.0294 157.582C66.0294 156.856 65.7426 156.16 65.2316 155.645C64.6754 155.145 63.9481 154.879 63.2005 154.9C62.4536 154.883 61.7278 155.149 61.1694 155.645C60.9114 155.897 60.7065 156.199 60.5665 156.531C60.4266 156.864 60.3546 157.221 60.3546 157.582C60.3546 157.942 60.4266 158.299 60.5665 158.632C60.7065 158.964 60.9114 159.266 61.1694 159.518C61.7302 160.009 62.4549 160.273 63.2005 160.256C63.9467 160.277 64.6729 160.013 65.2316 159.518Z" fill="#131313"/>
<path d="M86.1175 153.512C86.5928 153.986 86.96 154.556 87.1938 155.185C87.4275 155.814 87.5223 156.486 87.4715 157.155V163.377H84.5129V162.023C83.9171 163.038 82.809 163.546 81.1886 163.546C80.4417 163.564 79.7 163.418 79.0153 163.12C78.4393 162.873 77.9477 162.463 77.6003 161.942C77.2755 161.435 77.1082 160.844 77.1197 160.242C77.1003 159.781 77.1945 159.321 77.394 158.905C77.5935 158.488 77.8921 158.127 78.2638 157.852C79.0221 157.263 80.2001 156.979 81.7979 156.979H84.3098C84.3269 156.684 84.2794 156.389 84.1706 156.114C84.0619 155.839 83.8945 155.591 83.6801 155.388C83.1421 154.978 82.4722 154.78 81.7979 154.833C81.2162 154.832 80.6381 154.923 80.0851 155.103C79.5686 155.262 79.0847 155.512 78.6565 155.841L77.5191 153.634C78.1713 153.19 78.895 152.86 79.6586 152.659C80.4943 152.429 81.3575 152.312 82.2245 152.314C83.6262 152.224 85.012 152.653 86.1175 153.519M83.4093 161.041C83.8303 160.793 84.1476 160.401 84.303 159.938V158.82H82.1297C80.8365 158.82 80.1866 159.247 80.1866 160.1C80.1813 160.288 80.2224 160.473 80.3063 160.641C80.3901 160.809 80.5142 160.953 80.6673 161.061C81.0533 161.317 81.5118 161.441 81.974 161.413C82.4778 161.425 82.9748 161.296 83.4093 161.041Z" fill="#131313"/>
<path d="M91.3358 163.201C90.6168 163.036 89.9303 162.752 89.3047 162.361L90.3608 160.093C90.9075 160.43 91.5005 160.686 92.1211 160.852C92.7809 161.045 93.4646 161.145 94.1522 161.149C95.5063 161.149 96.1833 160.811 96.1833 160.147C96.1862 159.988 96.1328 159.833 96.0325 159.709C95.9322 159.585 95.7915 159.501 95.635 159.47C95.0852 159.303 94.5207 159.187 93.9492 159.125C93.2044 159.019 92.4671 158.865 91.742 158.665C91.1673 158.487 90.6476 158.166 90.2322 157.73C89.7777 157.202 89.549 156.516 89.5958 155.821C89.5846 155.161 89.797 154.517 90.1983 153.993C90.6463 153.418 91.2502 152.983 91.9383 152.741C92.8063 152.428 93.7241 152.277 94.6464 152.294C95.4208 152.295 96.1928 152.382 96.9484 152.551C97.6125 152.674 98.2526 152.902 98.8441 153.228L97.7947 155.469C96.8141 154.941 95.7123 154.68 94.5991 154.711C94.0779 154.68 93.5572 154.778 93.0825 154.995C92.9379 155.055 92.8133 155.155 92.7234 155.284C92.6335 155.412 92.582 155.563 92.5748 155.72C92.5803 155.877 92.6368 156.028 92.7357 156.15C92.8347 156.272 92.9706 156.359 93.1231 156.397C93.6901 156.578 94.2726 156.707 94.8631 156.783C95.6032 156.899 96.3357 157.06 97.0567 157.263C97.6246 157.427 98.1356 157.746 98.5327 158.184C98.9775 158.699 99.2034 159.367 99.1623 160.046C99.1713 160.698 98.9562 161.334 98.553 161.847C98.0927 162.418 97.4765 162.844 96.7791 163.072C95.892 163.382 94.9565 163.532 94.0168 163.512C93.1192 163.512 92.2251 163.399 91.3561 163.174" fill="#131313"/>
<path d="M102.101 163.201C101.382 163.039 100.695 162.755 100.07 162.362L101.12 160.093C101.667 160.429 102.26 160.685 102.88 160.852C103.54 161.044 104.224 161.145 104.911 161.15C106.265 161.15 106.942 160.811 106.942 160.148C106.945 159.988 106.892 159.833 106.791 159.709C106.691 159.585 106.55 159.501 106.394 159.471C105.846 159.303 105.284 159.187 104.715 159.125C103.97 159.02 103.233 158.866 102.508 158.665C101.932 158.489 101.412 158.167 100.998 157.731C100.543 157.202 100.315 156.517 100.361 155.821C100.351 155.163 100.561 154.519 100.957 153.993C101.407 153.419 102.01 152.985 102.697 152.741C103.565 152.429 104.483 152.277 105.405 152.294C106.18 152.296 106.952 152.382 107.707 152.551C108.37 152.673 109.008 152.901 109.596 153.228L108.547 155.469C107.587 154.934 106.505 154.656 105.405 154.664C104.884 154.631 104.363 154.729 103.889 154.948C103.743 155.008 103.618 155.108 103.527 155.236C103.436 155.364 103.383 155.515 103.374 155.672C103.381 155.829 103.438 155.98 103.537 156.102C103.635 156.223 103.771 156.31 103.923 156.349C104.492 156.532 105.077 156.661 105.669 156.735C106.407 156.851 107.138 157.012 107.856 157.216C108.425 157.379 108.936 157.698 109.332 158.137C109.777 158.652 110.003 159.32 109.962 159.999C109.97 160.65 109.758 161.285 109.359 161.8C108.895 162.37 108.277 162.795 107.579 163.025C106.692 163.336 105.756 163.486 104.816 163.465C103.921 163.465 103.029 163.351 102.162 163.127" fill="#131313"/>
<path d="M122.466 158.814H114.233C114.36 159.465 114.736 160.041 115.282 160.418C115.895 160.825 116.62 161.028 117.354 161.001C117.869 161.01 118.38 160.925 118.864 160.75C119.323 160.568 119.74 160.294 120.089 159.944L121.768 161.772C121.196 162.38 120.496 162.854 119.719 163.16C118.941 163.465 118.106 163.595 117.273 163.54C116.144 163.56 115.026 163.314 114.01 162.822C113.098 162.37 112.337 161.665 111.816 160.791C111.317 159.909 111.055 158.913 111.055 157.9C111.055 156.887 111.317 155.891 111.816 155.009C112.309 154.149 113.034 153.445 113.908 152.978C114.815 152.51 115.82 152.267 116.84 152.267C117.86 152.267 118.865 152.51 119.771 152.978C120.624 153.425 121.329 154.109 121.802 154.948C122.309 155.86 122.563 156.891 122.54 157.934C122.54 157.981 122.54 158.259 122.479 158.787M115.079 155.28C114.587 155.705 114.271 156.299 114.192 156.945H119.561C119.478 156.303 119.16 155.714 118.668 155.293C118.167 154.881 117.535 154.663 116.887 154.677C116.232 154.657 115.591 154.871 115.079 155.28Z" fill="#131313"/>
<path d="M141.856 153.513C142.288 154.006 142.617 154.58 142.824 155.202C143.031 155.824 143.112 156.481 143.061 157.135V163.377H139.9V157.622C139.955 156.933 139.763 156.247 139.358 155.686C139.173 155.463 138.94 155.286 138.676 155.169C138.411 155.051 138.123 154.997 137.835 155.009C137.505 154.993 137.176 155.05 136.871 155.175C136.566 155.301 136.291 155.491 136.067 155.733C135.581 156.336 135.34 157.1 135.39 157.873V163.343H132.229V157.588C132.229 155.869 131.552 155.009 130.157 155.009C129.832 154.996 129.507 155.053 129.207 155.179C128.906 155.304 128.637 155.493 128.417 155.733C127.931 156.336 127.689 157.1 127.74 157.873V163.343H124.578V152.47H127.604V153.729C128.023 153.262 128.548 152.902 129.135 152.68C129.75 152.433 130.408 152.311 131.071 152.321C131.792 152.308 132.506 152.464 133.156 152.775C133.775 153.075 134.296 153.545 134.659 154.129C135.106 153.547 135.687 153.083 136.352 152.775C137.054 152.461 137.817 152.304 138.586 152.314C139.182 152.284 139.777 152.375 140.337 152.581C140.896 152.787 141.409 153.104 141.843 153.513" fill="#131313"/>
<path d="M155.104 153.012C155.926 153.471 156.604 154.151 157.06 154.975C157.527 155.888 157.771 156.898 157.771 157.924C157.771 158.949 157.527 159.959 157.06 160.872C156.606 161.7 155.928 162.382 155.104 162.842C154.254 163.303 153.3 163.536 152.334 163.519C151.699 163.555 151.064 163.446 150.478 163.2C149.891 162.953 149.368 162.576 148.949 162.097V163.357H145.93V148.34H149.091V153.628C149.509 153.183 150.018 152.834 150.584 152.606C151.15 152.378 151.759 152.276 152.368 152.308C153.335 152.288 154.289 152.521 155.137 152.985M153.824 160.093C154.328 159.472 154.603 158.697 154.603 157.896C154.603 157.096 154.328 156.321 153.824 155.699C153.293 155.171 152.575 154.874 151.827 154.874C151.078 154.874 150.36 155.171 149.829 155.699C149.325 156.321 149.05 157.096 149.05 157.896C149.05 158.697 149.325 159.472 149.829 160.093C150.36 160.622 151.078 160.918 151.827 160.918C152.575 160.918 153.293 160.622 153.824 160.093Z" fill="#131313"/>
<path d="M163.029 148.34H159.867V163.377H163.029V148.34Z" fill="#131313"/>
<path d="M176.797 152.477L171.868 164.047C171.521 165.091 170.876 166.011 170.013 166.694C169.227 167.225 168.294 167.495 167.346 167.466C166.776 167.464 166.21 167.377 165.667 167.209C165.169 167.06 164.708 166.808 164.312 166.471L165.464 164.223C165.96 164.654 166.594 164.894 167.251 164.9C167.626 164.919 167.996 164.809 168.3 164.589C168.627 164.308 168.878 163.949 169.031 163.546L169.072 163.438L164.333 152.463H167.589L170.656 159.863L173.73 152.463L176.797 152.477Z" fill="#131313"/>
<mask id="mask1_1425_4654" style="mask-type:luminance" maskUnits="userSpaceOnUse" x="240" y="62" width="139" height="65">
<path d="M334.079 75.3912C342.271 69.8936 341.892 69.2504 341.147 67.9437C340.891 67.5156 340.478 67.2046 339.996 67.0771C338.378 66.6641 334.708 68.5937 299.523 89.9949L297.959 90.9427C333.774 68.0182 333.659 67.8219 332.413 65.6689C332.158 65.2443 331.748 64.9358 331.269 64.8091C329.915 64.4502 328.155 65.1273 299.651 82.3376C324.878 66.4272 324.702 66.136 323.598 64.2133C323.341 63.7906 322.931 63.4827 322.454 63.3534C321.215 63.0352 319.813 63.5227 296.605 77.5238C313.781 66.2647 313.531 65.8314 312.562 64.1388C312.307 63.7107 311.894 63.3996 311.411 63.2722C310.057 62.9201 308.229 63.5972 280.268 80.5096C301.059 66.3933 300.85 66.021 299.814 64.2268C299.557 63.7981 299.145 63.4851 298.663 63.3534C297.444 63.0487 296.205 63.455 277.438 74.8631C287.661 67.4833 287.451 67.1177 286.571 65.6012C286.448 65.3916 286.284 65.2084 286.09 65.062C285.896 64.9156 285.675 64.809 285.44 64.7481C284.323 64.4637 284.086 64.4028 265.894 75.486L260.051 79.0404C270.437 69.5213 270.423 69.4942 269.53 67.9437C269.285 67.5364 268.892 67.2401 268.433 67.1177C267.533 66.8808 267.533 66.8808 257.404 72.92C253.477 75.249 248.142 78.4243 247.059 78.9456C246.798 79.0212 246.557 79.1542 246.354 79.335C246.151 79.5157 245.991 79.7396 245.886 79.9902C245.781 80.2408 245.733 80.5118 245.746 80.7832C245.759 81.0547 245.833 81.3197 245.962 81.559C246.081 81.7634 246.239 81.9423 246.427 82.0852C246.615 82.2282 246.83 82.3323 247.059 82.3917C247.912 82.6151 247.993 82.6355 256.172 77.7811C246.477 86.6706 246.497 86.718 247.37 88.2346C247.624 88.6529 248.029 88.9581 248.501 89.0876C249.354 89.2975 249.672 89.372 257.492 84.714C246.409 92.6421 246.551 92.8859 247.458 94.4634C247.715 94.8826 248.122 95.1878 248.596 95.3164C249.632 95.5872 249.99 95.6752 264.574 86.8466C240.052 103.393 240.092 103.393 241.203 105.357C241.457 105.775 241.861 106.08 242.333 106.21C243.437 106.494 243.836 106.596 263.68 94.6664C245.014 106.853 245.197 107.144 246.213 108.884C246.471 109.311 246.883 109.623 247.364 109.758C248.162 109.954 249.517 109.568 254.811 106.616C242.97 114.45 243.349 115.12 244.202 116.589C244.468 117.02 244.886 117.337 245.373 117.476C246.896 117.862 250.647 116.068 276.828 100.293C254.1 115.032 254.412 115.58 255.461 117.408C255.728 117.837 256.146 118.151 256.632 118.288C257.431 118.491 258.792 118.126 263.491 115.58C254.459 121.558 254.825 122.188 255.61 123.535C255.872 123.967 256.288 124.281 256.774 124.416C257.885 124.7 260.16 123.793 271.31 117.334C262.299 123.427 262.732 124.158 263.511 125.512C263.773 125.941 264.19 126.254 264.675 126.386C265.894 126.697 268.501 125.627 283.551 116.724C272.36 123.928 272.719 124.537 273.558 126.007C273.82 126.434 274.233 126.746 274.716 126.88C276.456 127.327 281.08 124.889 321.858 100.198C287.011 122.296 287.248 122.709 288.473 124.829C288.741 125.261 289.161 125.578 289.651 125.715C291.418 126.162 296.537 123.488 329.84 103.258C302.041 121.389 302.217 121.701 303.348 123.65C303.605 124.075 304.014 124.385 304.492 124.517C305.894 124.876 307.755 124.158 337.2 106.379C313.74 122.134 313.95 122.486 315.027 124.368C315.287 124.788 315.696 125.094 316.171 125.228C317.369 125.533 318.541 125.147 337.159 113.847C325.494 121.89 325.744 122.33 326.638 123.874C326.892 124.294 327.296 124.601 327.769 124.734C328.967 125.032 329.218 125.099 350.788 111.924L355.825 108.857L355.724 108.938C338.202 122.283 338.202 122.283 339.217 124.043C339.465 124.46 339.866 124.764 340.335 124.889C341.012 125.059 341.309 125.14 345.9 122.486C348.649 120.902 352.927 118.342 359.725 114.253C366.698 110.062 375.297 104.876 376.989 104.138C377.269 104.084 377.532 103.965 377.757 103.791C377.983 103.617 378.165 103.394 378.289 103.138C378.413 102.881 378.476 102.6 378.472 102.315C378.469 102.031 378.399 101.751 378.269 101.498C378.151 101.29 377.992 101.109 377.802 100.963C377.613 100.818 377.396 100.712 377.165 100.651C376.15 100.387 375.987 100.347 361.187 109.23C376.759 97.3543 376.705 97.246 375.71 95.5263C375.455 95.1005 375.045 94.79 374.566 94.6597C373.699 94.443 372.873 94.5649 365.629 98.8302C376.847 91.1594 376.658 90.8276 375.784 89.2772C375.522 88.8525 375.108 88.5429 374.626 88.4106C373.415 88.0992 372 88.5528 353.3 99.8797C379.027 82.6694 379.027 82.5881 377.876 80.6247C377.752 80.4136 377.588 80.2291 377.393 80.0815C377.198 79.934 376.976 79.8264 376.739 79.7648C375.452 79.4331 374.031 79.9883 347.024 96.2913C376.969 76.7723 376.813 76.488 375.649 74.4907C375.389 74.062 374.975 73.7494 374.491 73.6173C372.954 73.2246 369.603 74.924 339.861 92.9942C374.951 70.7467 374.742 70.3743 373.53 68.2823C373.267 67.8515 372.851 67.5368 372.365 67.4021C371.268 67.1178 368.926 68.0114 357.531 74.66C364.153 70.0358 363.733 69.2978 363.015 68.0588C362.756 67.6297 362.341 67.3169 361.858 67.1855C360.693 66.8808 358.235 67.8625 344.539 75.9463C360.74 65.7908 360.422 65.2085 359.474 63.5701C359.207 63.1373 358.786 62.8208 358.296 62.6831C358.172 62.6524 358.045 62.6364 357.917 62.6357C356.198 62.6357 351.634 64.9242 334.072 75.3912" fill="white"/>
</mask>
<g mask="url(#mask1_1425_4654)">
<path d="M379.071 62.6357H240.055V127.32H379.071V62.6357Z" fill="url(#paint1_linear_1425_4654)"/>
</g>
<path d="M289.726 13.1211L288.325 18.2074H289.652C295.844 18.2074 300.587 19.436 303.879 21.8931C307.221 24.3502 308.892 27.9622 308.892 32.7291C308.892 36.8079 307.761 40.3708 305.501 43.4176C303.24 46.4645 300.12 48.7988 296.139 50.4205C292.208 51.993 287.736 52.7793 282.723 52.7793C278.939 52.7793 275.327 52.337 271.887 51.4525C268.496 50.5679 265.474 49.2165 262.82 47.3982L270.708 35.3091C272.673 36.5376 274.811 37.4714 277.121 38.1102C279.431 38.7491 281.691 39.0685 283.903 39.0685C286.311 39.0685 288.153 38.6999 289.431 37.9628C290.709 37.1765 291.348 36.0954 291.348 34.7194C291.348 33.5891 290.856 32.7536 289.873 32.2131C288.891 31.6234 287.244 31.3285 284.935 31.3285H269.233L278.079 0H312.356L309.702 13.1211H289.726Z" fill="#131313"/>
<path d="M335.749 13.1211L334.349 18.2074H335.676C341.868 18.2074 346.61 19.436 349.903 21.8931C353.244 24.3502 354.915 27.9622 354.915 32.7291C354.915 36.8079 353.785 40.3708 351.524 43.4176C349.264 46.4645 346.143 48.7988 342.163 50.4205C338.231 51.993 333.759 52.7793 328.747 52.7793C324.963 52.7793 321.351 52.337 317.911 51.4525C314.52 50.5679 311.497 49.2165 308.844 47.3982L316.731 35.3091C318.697 36.5376 320.835 37.4714 323.144 38.1102C325.454 38.7491 327.715 39.0685 329.926 39.0685C332.334 39.0685 334.177 38.6999 335.455 37.9628C336.732 37.1765 337.371 36.0954 337.371 34.7194C337.371 33.5891 336.88 32.7536 335.897 32.2131C334.914 31.6234 333.268 31.3285 330.958 31.3285H315.257L324.103 0H358.38L355.726 13.1211H335.749Z" fill="#131313"/>
<path d="M279.126 76.8196H291.699L284.238 114.097H271.672L279.126 76.8196Z" fill="white"/>
<path d="M297.767 76.8196H310.339L302.878 114.097H290.312L297.767 76.8196Z" fill="white"/>
<path d="M320.108 112.872C317.334 111.601 314.995 109.543 313.381 106.954C311.767 104.365 310.949 101.359 311.029 98.3089C310.956 94.2543 311.996 90.2573 314.035 86.7518C316.033 83.3905 318.929 80.6523 322.396 78.844C326.158 76.8943 330.347 75.9146 334.583 75.9937C337.867 75.9323 341.124 76.5958 344.122 77.9368C346.712 79.0742 348.874 81.0038 350.297 83.4479L341.225 90.5297C340.519 89.1755 339.446 88.0475 338.129 87.2752C336.812 86.5028 335.304 86.1173 333.777 86.1628C331.938 86.1212 330.127 86.6157 328.564 87.5859C327.001 88.556 325.754 89.96 324.976 91.6265C324.097 93.4614 323.659 95.476 323.696 97.51C323.652 98.4913 323.817 99.4707 324.18 100.383C324.543 101.296 325.096 102.121 325.802 102.804C326.55 103.492 327.427 104.025 328.382 104.374C329.337 104.722 330.351 104.879 331.367 104.836C334.527 104.836 337.296 103.398 339.674 100.523L347.074 107.605C345.136 110.095 342.6 112.056 339.701 113.305C336.657 114.495 333.409 115.075 330.142 115.011C326.678 115.083 323.244 114.362 320.101 112.906" fill="white"/>
<path d="M288.638 134.496L284.684 145.397H281.644L279.193 138.626L276.661 145.397H273.621L269.688 134.496H272.666L275.239 141.869L277.913 134.496H280.595L283.181 141.869L285.835 134.496H288.638Z" fill="#131313"/>
<path d="M290.275 132.465C290.102 132.305 289.964 132.111 289.87 131.895C289.775 131.678 289.727 131.445 289.727 131.209C289.727 130.974 289.775 130.74 289.87 130.524C289.964 130.308 290.102 130.114 290.275 129.954C290.677 129.631 291.177 129.455 291.693 129.455C292.209 129.455 292.709 129.631 293.112 129.954C293.287 130.104 293.428 130.291 293.522 130.501C293.617 130.712 293.664 130.941 293.66 131.172C293.666 131.416 293.62 131.659 293.526 131.884C293.431 132.11 293.29 132.312 293.112 132.479C292.723 132.825 292.217 133.01 291.696 132.993C291.175 133.013 290.666 132.831 290.275 132.486M290.112 134.517H293.274V145.37H290.112V134.517Z" fill="#131313"/>
<path d="M303.252 144.869C302.907 145.112 302.518 145.287 302.107 145.383C301.638 145.501 301.156 145.56 300.672 145.559C299.579 145.628 298.502 145.272 297.666 144.564C297.294 144.18 297.006 143.721 296.823 143.218C296.64 142.716 296.565 142.18 296.603 141.646V137.164H294.938V134.74H296.617V132.086H299.778V134.74H302.486V137.164H299.778V141.605C299.751 141.992 299.877 142.374 300.13 142.668C300.261 142.798 300.418 142.899 300.591 142.965C300.764 143.03 300.948 143.058 301.132 143.047C301.593 143.061 302.044 142.918 302.412 142.641L303.252 144.869Z" fill="#131313"/>
<path d="M314.934 135.546C315.376 136.031 315.714 136.601 315.929 137.222C316.143 137.842 316.228 138.5 316.18 139.154V145.37H313.018V139.615C313.072 138.922 312.87 138.232 312.449 137.679C312.245 137.449 311.991 137.269 311.708 137.152C311.424 137.035 311.117 136.983 310.811 137.002C310.458 136.985 310.106 137.043 309.777 137.172C309.448 137.3 309.15 137.496 308.901 137.746C308.4 138.365 308.158 139.153 308.224 139.947V145.363H305.062V130.326H308.224V135.593C308.654 135.167 309.172 134.839 309.741 134.632C310.363 134.405 311.022 134.293 311.684 134.3C312.283 134.274 312.882 134.368 313.445 134.576C314.007 134.784 314.523 135.102 314.961 135.512" fill="#131313"/>
<path d="M324.473 145.729C323.352 145.749 322.243 145.486 321.25 144.963C320.561 144.578 319.956 144.058 319.47 143.436C318.984 142.813 318.627 142.1 318.42 141.338C318.212 140.576 318.159 139.78 318.262 138.997C318.366 138.214 318.624 137.46 319.023 136.778C319.56 135.892 320.331 135.171 321.25 134.693C322.244 134.172 323.352 133.911 324.473 133.935C325.603 133.912 326.72 134.173 327.723 134.693C328.648 135.168 329.423 135.89 329.964 136.778C330.383 137.455 330.658 138.211 330.772 138.999C330.886 139.788 330.836 140.591 330.626 141.359C330.416 142.127 330.049 142.843 329.55 143.464C329.05 144.084 328.428 144.594 327.723 144.963C326.721 145.486 325.603 145.749 324.473 145.729ZM324.473 143.02C324.996 143.029 325.512 142.901 325.969 142.648C326.414 142.389 326.776 142.008 327.012 141.551C327.288 141.026 327.425 140.438 327.411 139.845C327.429 139.253 327.291 138.667 327.012 138.146C326.774 137.695 326.413 137.321 325.969 137.069C325.519 136.816 325.01 136.687 324.493 136.697C323.973 136.686 323.459 136.815 323.004 137.069C322.555 137.318 322.188 137.692 321.948 138.146C321.671 138.668 321.535 139.254 321.555 139.845C321.539 140.438 321.674 141.025 321.948 141.551C322.188 142.01 322.554 142.391 323.004 142.648C323.453 142.898 323.959 143.026 324.473 143.02Z" fill="#131313"/>
<path d="M337.82 145.729C336.935 145.745 336.059 145.555 335.261 145.173C334.52 144.804 333.915 144.209 333.534 143.474C333.094 142.573 332.882 141.578 332.918 140.576V134.111H336.236V140.069C336.176 140.825 336.392 141.578 336.845 142.188C337.065 142.419 337.333 142.6 337.63 142.717C337.927 142.834 338.246 142.884 338.565 142.865C339.037 142.87 339.504 142.753 339.919 142.526C340.328 142.282 340.657 141.925 340.866 141.497C341.113 140.965 341.231 140.383 341.212 139.798V134.117H344.516V145.566H341.361V142.398L341.936 143.332C341.571 144.094 340.977 144.724 340.237 145.133C339.493 145.535 338.659 145.743 337.813 145.735" fill="#131313"/>
<path d="M346.25 134.361H354.185V136.914H346.25V134.361ZM352.289 145.729C351.146 145.8 350.019 145.429 349.141 144.693C348.743 144.291 348.437 143.809 348.242 143.279C348.047 142.748 347.968 142.182 348.01 141.619V131.572H351.348V141.558C351.324 141.966 351.458 142.369 351.72 142.682C351.85 142.819 352.008 142.927 352.183 142.997C352.359 143.067 352.547 143.098 352.736 143.088C353.223 143.104 353.7 142.953 354.09 142.662L354.963 145.004C354.603 145.261 354.196 145.445 353.765 145.546C353.28 145.669 352.782 145.73 352.282 145.729" fill="#131313"/>
<path d="M224.995 164.726C224.094 164.265 223.337 163.564 222.808 162.701C222.28 161.837 222 160.844 222 159.831C222 158.819 222.28 157.826 222.808 156.962C223.337 156.098 224.094 155.397 224.995 154.936C225.966 154.444 227.042 154.196 228.13 154.212C229.178 154.188 230.214 154.438 231.136 154.936C231.969 155.386 232.629 156.101 233.011 156.967L230.56 158.288C230.335 157.831 229.986 157.447 229.552 157.18C229.119 156.913 228.619 156.774 228.11 156.778C227.734 156.771 227.361 156.839 227.012 156.979C226.663 157.118 226.346 157.326 226.078 157.59C225.557 158.209 225.272 158.992 225.272 159.801C225.272 160.61 225.557 161.393 226.078 162.011C226.345 162.277 226.662 162.485 227.011 162.625C227.36 162.765 227.734 162.832 228.11 162.824C228.619 162.835 229.121 162.7 229.556 162.433C229.991 162.166 230.339 161.78 230.56 161.321L233.011 162.675C232.624 163.538 231.966 164.252 231.136 164.706C230.216 165.21 229.179 165.462 228.13 165.437C227.042 165.456 225.966 165.21 224.995 164.72" fill="#131313"/>
<path d="M245.315 160.718H237.069C237.193 161.371 237.571 161.947 238.118 162.323C238.73 162.732 239.455 162.938 240.19 162.912C240.705 162.919 241.217 162.832 241.7 162.655C242.159 162.475 242.576 162.203 242.925 161.856L244.604 163.684C243.584 164.857 242.083 165.444 240.102 165.444C238.975 165.464 237.859 165.218 236.845 164.726C235.94 164.282 235.179 163.589 234.652 162.729C234.153 161.846 233.891 160.849 233.891 159.835C233.891 158.82 234.153 157.823 234.652 156.94C235.146 156.084 235.868 155.38 236.737 154.909C237.646 154.447 238.652 154.206 239.672 154.206C240.692 154.206 241.698 154.447 242.607 154.909C243.455 155.363 244.159 156.046 244.638 156.879C245.142 157.795 245.397 158.827 245.376 159.872C245.376 159.913 245.376 160.19 245.315 160.718ZM237.915 157.218C237.423 157.641 237.106 158.232 237.028 158.877H242.397C242.316 158.236 241.997 157.649 241.503 157.231C241.006 156.814 240.372 156.592 239.723 156.609C239.066 156.586 238.424 156.802 237.915 157.218Z" fill="#131313"/>
<path d="M247.643 152.35C247.466 152.194 247.325 152.001 247.23 151.784C247.135 151.568 247.089 151.334 247.094 151.098C247.089 150.861 247.136 150.625 247.231 150.408C247.325 150.191 247.466 149.996 247.643 149.838C248.044 149.515 248.545 149.338 249.061 149.338C249.577 149.338 250.077 149.515 250.479 149.838C250.656 149.986 250.796 150.172 250.891 150.382C250.986 150.592 251.033 150.82 251.028 151.05C251.034 151.294 250.989 151.537 250.894 151.763C250.8 151.988 250.658 152.191 250.479 152.357C250.081 152.688 249.579 152.869 249.061 152.869C248.543 152.869 248.041 152.688 247.643 152.357M247.48 154.388H250.642V165.288H247.48V154.388Z" fill="#131313"/>
<path d="M256.748 150.244H253.586V165.281H256.748V150.244Z" fill="#131313"/>
<path d="M259.846 152.35C259.669 152.194 259.528 152.001 259.433 151.784C259.339 151.568 259.292 151.334 259.297 151.098C259.293 150.861 259.339 150.625 259.434 150.408C259.528 150.191 259.669 149.996 259.846 149.838C260.248 149.515 260.748 149.338 261.264 149.338C261.78 149.338 262.281 149.515 262.682 149.838C262.859 149.986 263 150.172 263.095 150.382C263.189 150.592 263.236 150.82 263.231 151.05C263.238 151.294 263.192 151.537 263.097 151.763C263.003 151.988 262.861 152.191 262.682 152.357C262.284 152.688 261.782 152.869 261.264 152.869C260.746 152.869 260.244 152.688 259.846 152.357M259.683 154.388H262.845V165.288H259.683V154.388Z" fill="#131313"/>
<path d="M275.685 155.431C276.127 155.916 276.465 156.486 276.68 157.107C276.894 157.727 276.979 158.385 276.931 159.039V165.282H273.769V159.527C273.823 158.833 273.621 158.144 273.2 157.59C272.996 157.361 272.742 157.181 272.459 157.064C272.175 156.946 271.868 156.895 271.562 156.913C271.21 156.898 270.859 156.956 270.532 157.085C270.204 157.213 269.907 157.408 269.659 157.658C269.156 158.275 268.913 159.065 268.982 159.858V165.275H265.82V154.374H268.84V155.647C269.272 155.179 269.808 154.817 270.404 154.591C271.049 154.332 271.74 154.203 272.435 154.212C273.033 154.187 273.631 154.281 274.192 154.489C274.753 154.697 275.268 155.015 275.705 155.424" fill="#131313"/>
<path d="M291.152 154.381V163.453C291.152 165.484 290.63 166.94 289.594 167.915C288.559 168.89 287.028 169.377 285.031 169.377C284.021 169.383 283.015 169.253 282.039 168.991C281.186 168.783 280.384 168.403 279.683 167.874L280.942 165.606C281.458 166.017 282.049 166.322 282.682 166.507C283.362 166.728 284.072 166.842 284.788 166.845C285.661 166.92 286.53 166.653 287.211 166.1C287.489 165.801 287.702 165.448 287.836 165.062C287.97 164.676 288.023 164.267 287.99 163.86V163.392C287.549 163.853 287.013 164.213 286.419 164.447C285.825 164.681 285.188 164.783 284.551 164.746C283.592 164.753 282.647 164.52 281.802 164.069C280.985 163.644 280.301 163.003 279.825 162.214C279.346 161.375 279.094 160.425 279.094 159.459C279.094 158.492 279.346 157.543 279.825 156.703C280.301 155.915 280.985 155.273 281.802 154.848C282.647 154.397 283.592 154.165 284.551 154.171C285.231 154.128 285.912 154.247 286.538 154.518C287.164 154.788 287.717 155.203 288.152 155.728V154.334L291.152 154.381ZM287.232 161.422C287.743 160.907 288.029 160.211 288.029 159.486C288.029 158.76 287.743 158.064 287.232 157.55C286.653 157.068 285.923 156.804 285.17 156.804C284.417 156.804 283.687 157.068 283.108 157.55C282.851 157.802 282.646 158.103 282.506 158.435C282.366 158.768 282.294 159.125 282.294 159.486C282.294 159.847 282.366 160.204 282.506 160.536C282.646 160.869 282.851 161.17 283.108 161.422C283.69 161.899 284.418 162.16 285.17 162.16C285.922 162.16 286.65 161.899 287.232 161.422Z" fill="#131313"/>
<path d="M308.11 155.424C308.586 155.895 308.954 156.464 309.188 157.092C309.422 157.72 309.516 158.392 309.464 159.06V165.282H306.505V163.928C305.909 164.934 304.801 165.44 303.181 165.444C302.434 165.462 301.692 165.316 301.008 165.018C300.43 164.773 299.938 164.363 299.593 163.839C299.271 163.334 299.104 162.746 299.112 162.147C299.093 161.684 299.187 161.224 299.386 160.806C299.586 160.389 299.884 160.026 300.256 159.75C301.31 159.087 302.549 158.781 303.79 158.877H306.302C306.319 158.582 306.272 158.286 306.163 158.012C306.054 157.737 305.887 157.489 305.672 157.286C305.135 156.875 304.465 156.677 303.79 156.731C303.208 156.73 302.63 156.821 302.077 157.001C301.562 157.163 301.078 157.412 300.649 157.739L299.511 155.539C300.16 155.089 300.885 154.759 301.651 154.564C302.486 154.328 303.349 154.209 304.217 154.212C305.618 154.119 307.003 154.551 308.103 155.424M305.395 162.939C305.814 162.692 306.132 162.303 306.288 161.842V160.725H304.115C302.822 160.725 302.172 161.145 302.172 161.998C302.167 162.185 302.208 162.371 302.292 162.539C302.376 162.707 302.5 162.851 302.653 162.959C303.038 163.217 303.496 163.343 303.959 163.318C304.464 163.328 304.961 163.197 305.395 162.939Z" fill="#131313"/>
<path d="M313.345 165.112C312.614 164.946 311.914 164.662 311.273 164.273L312.323 161.998C312.871 162.336 313.467 162.592 314.09 162.756C314.749 162.952 315.433 163.053 316.121 163.054C317.475 163.054 318.152 162.722 318.152 162.059C318.155 161.899 318.102 161.744 318.001 161.62C317.901 161.496 317.76 161.412 317.604 161.382C317.057 161.214 316.494 161.101 315.925 161.043C315.18 160.933 314.443 160.777 313.718 160.576C313.14 160.401 312.617 160.079 312.201 159.642C311.751 159.111 311.524 158.427 311.565 157.732C311.557 157.073 311.769 156.43 312.167 155.904C312.616 155.33 313.22 154.896 313.907 154.652C314.775 154.341 315.693 154.192 316.615 154.212C317.387 154.211 318.157 154.295 318.91 154.462C319.574 154.587 320.214 154.815 320.806 155.139L319.75 157.387C318.794 156.847 317.713 156.567 316.615 156.575C316.092 156.543 315.569 156.641 315.092 156.859C314.948 156.92 314.824 157.02 314.734 157.148C314.644 157.276 314.592 157.427 314.584 157.584C314.581 157.747 314.634 157.906 314.733 158.035C314.833 158.165 314.974 158.256 315.133 158.294C315.699 158.479 316.281 158.608 316.873 158.68C317.613 158.796 318.345 158.957 319.066 159.161C319.632 159.331 320.141 159.649 320.542 160.082C320.986 160.597 321.212 161.265 321.172 161.944C321.18 162.598 320.965 163.235 320.562 163.751C320.097 164.317 319.483 164.742 318.789 164.977C317.9 165.282 316.965 165.428 316.026 165.41C315.131 165.413 314.239 165.301 313.372 165.078" fill="#131313"/>
<path d="M324.101 165.112C323.384 164.944 322.698 164.66 322.07 164.273L323.12 161.998C323.667 162.338 324.263 162.593 324.887 162.756C325.546 162.953 326.23 163.054 326.918 163.054C328.272 163.054 328.949 162.722 328.949 162.059C328.952 161.898 328.897 161.742 328.796 161.618C328.694 161.494 328.552 161.41 328.394 161.382C327.847 161.213 327.284 161.099 326.715 161.043C325.97 160.932 325.233 160.776 324.508 160.576C323.931 160.403 323.41 160.08 322.998 159.642C322.543 159.114 322.314 158.428 322.361 157.732C322.351 157.074 322.561 156.43 322.957 155.904C323.408 155.332 324.011 154.898 324.697 154.652C325.566 154.342 326.483 154.193 327.405 154.212C328.18 154.211 328.951 154.295 329.707 154.462C330.369 154.587 331.006 154.815 331.596 155.139L330.547 157.387C329.589 156.846 328.506 156.566 327.405 156.575C326.882 156.543 326.359 156.641 325.882 156.859C325.739 156.92 325.616 157.021 325.527 157.149C325.438 157.277 325.388 157.428 325.381 157.583C325.37 157.748 325.418 157.91 325.518 158.041C325.618 158.172 325.761 158.262 325.923 158.294C326.491 158.48 327.076 158.609 327.669 158.68C328.407 158.797 329.138 158.957 329.856 159.161C330.424 159.329 330.937 159.647 331.339 160.082C331.78 160.598 332.005 161.265 331.969 161.944C331.974 162.598 331.757 163.236 331.353 163.751C330.89 164.32 330.275 164.745 329.579 164.977C328.691 165.282 327.755 165.429 326.816 165.41C325.921 165.412 325.029 165.301 324.162 165.078" fill="#131313"/>
<path d="M344.465 160.718H336.232C336.363 161.37 336.741 161.945 337.288 162.323C337.887 162.726 338.598 162.932 339.32 162.912C339.834 162.92 340.346 162.833 340.829 162.655C341.288 162.475 341.705 162.203 342.055 161.856L343.734 163.684C342.711 164.855 341.208 165.444 339.238 165.444C338.109 165.464 336.991 165.218 335.975 164.726C335.07 164.284 334.311 163.59 333.788 162.729C333.268 161.853 333 160.85 333.016 159.831C333.001 158.817 333.263 157.817 333.775 156.94C334.271 156.083 334.995 155.38 335.867 154.909C336.774 154.446 337.779 154.205 338.798 154.205C339.817 154.205 340.822 154.446 341.73 154.909C342.581 155.359 343.285 156.043 343.761 156.879C344.268 157.794 344.523 158.827 344.499 159.872C344.499 159.913 344.499 160.19 344.438 160.718M337.045 157.218C336.548 157.638 336.229 158.231 336.151 158.877H341.52C341.439 158.236 341.12 157.649 340.626 157.232C340.129 156.813 339.495 156.591 338.846 156.609C338.191 156.587 337.552 156.804 337.045 157.218Z" fill="#131313"/>
<path d="M363.85 155.424C364.282 155.915 364.611 156.489 364.818 157.11C365.025 157.73 365.106 158.386 365.055 159.039V165.281H361.894V159.526C361.944 158.839 361.755 158.155 361.359 157.59C361.169 157.375 360.932 157.206 360.667 157.096C360.402 156.986 360.115 156.937 359.829 156.954C359.501 156.937 359.173 156.992 358.868 157.116C358.564 157.24 358.291 157.43 358.068 157.671C357.581 158.273 357.339 159.038 357.391 159.811V165.281H354.236V159.526C354.236 157.816 353.546 156.958 352.165 156.954C351.84 156.939 351.516 156.995 351.215 157.119C350.914 157.243 350.644 157.432 350.425 157.671C349.94 158.275 349.698 159.038 349.748 159.811V165.281H346.586V154.381H349.606V155.633C350.014 155.173 350.524 154.814 351.095 154.584C351.709 154.332 352.368 154.208 353.031 154.218C353.754 154.207 354.47 154.362 355.123 154.672C355.737 154.977 356.255 155.446 356.62 156.026C357.069 155.457 357.65 155.006 358.312 154.713C359.014 154.397 359.777 154.238 360.546 154.246C361.143 154.215 361.739 154.306 362.299 154.513C362.859 154.72 363.371 155.039 363.803 155.451" fill="#131313"/>
<path d="M377.098 154.916C377.924 155.374 378.603 156.057 379.055 156.886C379.522 157.798 379.765 158.807 379.765 159.831C379.765 160.855 379.522 161.865 379.055 162.776C378.603 163.605 377.924 164.289 377.098 164.747C376.252 165.207 375.3 165.44 374.336 165.424C373.694 165.467 373.051 165.361 372.456 165.115C371.862 164.868 371.333 164.487 370.91 164.002V165.261H367.891V150.244H371.052V155.525C371.468 155.074 371.978 154.72 372.545 154.486C373.112 154.252 373.723 154.145 374.336 154.171C375.3 154.152 376.253 154.385 377.098 154.848M375.785 161.957C376.289 161.336 376.564 160.56 376.564 159.76C376.564 158.96 376.289 158.184 375.785 157.563C375.255 157.035 374.536 156.738 373.788 156.738C373.039 156.738 372.321 157.035 371.79 157.563C371.286 158.184 371.011 158.96 371.011 159.76C371.011 160.56 371.286 161.336 371.79 161.957C372.321 162.486 373.039 162.782 373.788 162.782C374.536 162.782 375.255 162.486 375.785 161.957Z" fill="#131313"/>
<path d="M385.029 150.244H381.867V165.281H385.029V150.244Z" fill="#131313"/>
<path d="M398.79 154.381L393.868 165.952C393.519 166.997 392.875 167.918 392.013 168.606C391.225 169.132 390.293 169.402 389.346 169.377C388.776 169.376 388.209 169.287 387.667 169.113C387.169 168.968 386.707 168.718 386.312 168.382L387.47 166.128C387.711 166.352 387.994 166.527 388.303 166.642C388.606 166.758 388.927 166.819 389.251 166.825C389.627 166.842 389.997 166.73 390.3 166.507C390.629 166.227 390.881 165.869 391.031 165.464L391.072 165.356L386.333 154.381H389.596L392.656 161.781L395.737 154.381H398.79Z" fill="#131313"/>
<defs>
<linearGradient id="paint0_linear_1425_4654" x1="25.6614" y1="92.3301" x2="151.569" y2="92.3301" gradientUnits="userSpaceOnUse">
<stop stop-color="#009EE2"/>
<stop offset="0.03" stop-color="#0D8ED4"/>
<stop offset="0.1" stop-color="#2373BE"/>
<stop offset="0.18" stop-color="#355DAC"/>
<stop offset="0.28" stop-color="#434C9D"/>
<stop offset="0.39" stop-color="#4D4193"/>
<stop offset="0.55" stop-color="#523A8E"/>
<stop offset="1" stop-color="#54388C"/>
</linearGradient>
<linearGradient id="paint1_linear_1425_4654" x1="247.495" y1="94.3821" x2="373.722" y2="94.3821" gradientUnits="userSpaceOnUse">
<stop stop-color="#009EE2"/>
<stop offset="0.03" stop-color="#0D8ED4"/>
<stop offset="0.1" stop-color="#2373BE"/>
<stop offset="0.18" stop-color="#355DAC"/>
<stop offset="0.28" stop-color="#434C9D"/>
<stop offset="0.39" stop-color="#4D4193"/>
<stop offset="0.55" stop-color="#523A8E"/>
<stop offset="1" stop-color="#54388C"/>
</linearGradient>
</defs>
</svg>
