<svg width="342" height="103" viewBox="0 0 342 103" fill="none" xmlns="http://www.w3.org/2000/svg">
<path d="M47.7194 26.7451C33.3816 26.7451 21.75 38.362 21.75 52.7044C21.75 67.0469 33.3714 78.6637 47.7194 78.6637C62.0573 78.6637 73.6889 67.0469 73.6889 52.7044C73.6889 38.362 62.0573 26.7451 47.7194 26.7451ZM47.7194 69.4968C38.4366 69.4968 30.9103 61.9734 30.9103 52.6942C30.9103 43.415 38.4366 35.8916 47.7194 35.8916C57.0023 35.8916 64.5286 43.415 64.5286 52.6942C64.5286 61.9734 57.0023 69.4968 47.7194 69.4968Z" fill="#35A2DC"/>
<path d="M121.289 52.6943C121.289 54.2561 121.432 55.7873 121.687 57.2777C123.709 68.6292 133.115 77.4286 144.757 78.5311C145.379 78.5924 146.013 78.6332 146.656 78.6434C146.86 78.6434 147.054 78.6536 147.259 78.6536C147.493 78.6536 147.738 78.6536 147.973 78.6434H161.852V69.3131H147.289C141.315 69.3131 135.678 66.2507 132.686 61.0854C132.002 59.9012 131.46 58.6252 131.072 57.2777H172.809C173.075 55.7975 173.208 54.2663 173.208 52.6943C173.208 51.1324 173.065 49.6012 172.809 48.121C171.992 43.5478 169.981 39.3931 167.111 35.9835C164.629 33.0436 161.504 30.6549 157.951 29.0522C154.683 27.572 151.057 26.7554 147.248 26.7554C134.473 26.7554 123.842 35.9835 121.687 48.1312C121.432 49.6012 121.289 51.1324 121.289 52.6943ZM147.259 35.8917C151.323 35.8917 155.05 37.3412 157.961 39.7401C160.555 41.8838 162.495 44.7932 163.435 48.1108H131.082C133.074 41.057 139.559 35.8917 147.259 35.8917Z" fill="#35A2DC"/>
<path d="M117.145 46.4162C117.053 35.5037 108.076 26.7451 97.1595 26.7451C86.2632 26.7451 77.4297 35.5752 77.4297 46.4673V78.6331H86.6308V63.2903C89.3779 65.0461 92.5743 66.1485 96.0158 66.3629L108.291 78.6331H121.301L106.708 64.0457C112.968 60.6872 117.206 54.0417 117.145 46.4162ZM99.6819 57.0327C98.9773 57.1858 98.242 57.2573 97.4863 57.2573C91.6858 57.2573 86.978 52.5513 86.978 46.7531C86.978 45.9977 87.0597 45.2729 87.2027 44.5583C88.2137 39.8115 92.4313 36.2489 97.4761 36.2489C103.277 36.2489 107.984 40.9549 107.984 46.7531C107.995 51.8061 104.431 56.0221 99.6819 57.0327Z" fill="#35A2DC"/>
<path d="M330.792 91.5264H77.1328C77.1328 97.6717 82.1163 102.653 88.264 102.653H341.923C341.923 96.4977 336.94 91.5264 330.792 91.5264Z" fill="#010202"/>
<path d="M54.8713 91.5263H50.4597C29.055 91.5263 11.3064 74.4175 11.1327 53.0212C10.9591 31.4616 28.3708 13.924 49.8878 13.873H54.7896C60.9373 13.873 65.9208 8.8914 65.9208 2.74609H49.8878C22.1925 2.79713 -0.212928 25.3571 0.00152675 53.1029C0.215981 80.6343 23.0503 102.653 50.5924 102.653H66.0025C66.0025 96.4977 61.019 91.5263 54.8713 91.5263Z" fill="#35A2DC"/>
<path d="M195.429 62.2393H209.369C213.77 62.2393 217.549 61.5247 220.714 60.0854C223.88 58.6562 226.311 56.6146 228.016 53.9707C229.722 51.3268 230.579 48.1827 230.579 44.518C230.579 40.7614 229.722 37.5662 228.016 34.9223C226.311 32.2784 223.88 30.2572 220.714 28.8484C217.549 27.4397 213.77 26.7354 209.369 26.7354H189.945V78.6131H195.429V62.2393ZM221.041 34.8917C223.737 37.1681 225.085 40.3734 225.085 44.5282C225.085 48.6318 223.737 51.8066 221.041 54.0524C218.345 56.2982 214.403 57.421 209.216 57.421H195.429V31.4821H209.216C214.403 31.4821 218.345 32.6152 221.041 34.8917Z" fill="#010202"/>
<path d="M243.446 64.7602H272.408L278.617 78.6229H284.397L260.674 26.7451H255.262L231.539 78.6229H237.248L243.446 64.7602ZM257.927 32.4106L270.417 60.3095H245.438L257.927 32.4106Z" fill="#010202"/>
<path d="M328.686 75.3159C332.863 73.1212 336.11 70.0689 338.439 66.1592C340.757 62.2597 341.921 57.7579 341.921 52.6743C341.921 47.5906 340.757 43.0888 338.439 39.1893C336.11 35.2898 332.863 32.2375 328.686 30.0326C324.509 27.8378 319.648 26.7354 314.113 26.7354H292.984V78.6131H314.123C319.658 78.6131 324.509 77.5107 328.686 75.3159ZM298.479 73.8664V31.4719H313.827C318.423 31.4719 322.416 32.3703 325.796 34.1771C329.176 35.9839 331.811 38.4645 333.69 41.629C335.569 44.7936 336.508 48.4685 336.508 52.6743C336.508 56.829 335.569 60.4937 333.69 63.6786C331.811 66.8636 329.176 69.3646 325.796 71.1612C322.406 72.968 318.423 73.8664 313.827 73.8664H298.479Z" fill="#010202"/>
<path d="M82.6291 9.80001C83.2725 9.34064 83.5891 8.68732 83.5891 7.84004C83.5891 7.20713 83.4257 6.67631 83.0989 6.26798C82.7721 5.84945 82.3228 5.56363 81.7509 5.41051C82.1492 5.21655 82.4759 4.93072 82.7108 4.55302C82.9457 4.17532 83.0683 3.73637 83.0683 3.22596C83.0683 2.42973 82.7619 1.80702 82.1492 1.36807C81.5364 0.918913 80.6684 0.694336 79.5451 0.694336H75.1641V10.4942H79.8412C81.0667 10.4839 81.996 10.2492 82.6291 9.80001ZM76.5631 1.81723H79.4327C80.1476 1.81723 80.7092 1.94994 81.0973 2.21535C81.4854 2.48076 81.6794 2.86867 81.6794 3.38929C81.6794 3.8997 81.4854 4.28761 81.0973 4.56323C80.7092 4.82864 80.1578 4.96135 79.4327 4.96135H76.5631V1.81723ZM76.5631 9.35085V6.08424H79.7902C81.3832 6.08424 82.19 6.63548 82.19 7.72775C82.19 8.2892 81.9858 8.69752 81.5875 8.96294C81.1892 9.22835 80.5867 9.35085 79.7902 9.35085H76.5631Z" fill="#35A2DC"/>
<path d="M86.7164 11.8721C86.502 12.0456 86.2262 12.1273 85.8995 12.1273C85.3991 12.1273 84.9497 11.9435 84.5719 11.576L84 12.5867C84.2247 12.8112 84.5106 12.9848 84.8476 13.0971C85.1846 13.2094 85.542 13.2706 85.9097 13.2706C86.5122 13.2706 87.0228 13.1175 87.4415 12.8112C87.8704 12.505 88.238 11.9742 88.5546 11.2188L92.1595 3.05225H90.8421L88.2789 8.9934L85.685 3.05225H84.2859L87.564 10.4634L87.3292 10.984C87.1351 11.4025 86.9309 11.6985 86.7164 11.8721Z" fill="#35A2DC"/>
<path d="M99.1029 9.94285C99.8893 10.3818 100.778 10.5962 101.758 10.5962C102.524 10.5962 103.229 10.4635 103.862 10.2083C104.495 9.95307 105.046 9.56515 105.496 9.05475L104.587 8.17685C103.841 8.96287 102.922 9.35078 101.83 9.35078C101.104 9.35078 100.441 9.18745 99.8586 8.86079C99.2663 8.53413 98.8068 8.08497 98.48 7.51332C98.1532 6.94166 97.9796 6.29855 97.9796 5.58398C97.9796 4.86941 98.143 4.2365 98.48 3.65463C98.8068 3.08298 99.2765 2.63382 99.8586 2.30716C100.451 1.9805 101.104 1.81717 101.83 1.81717C102.932 1.81717 103.852 2.20508 104.587 2.9809L105.496 2.103C105.046 1.6028 104.505 1.21488 103.872 0.959679C103.239 0.704476 102.534 0.571777 101.768 0.571777C100.788 0.571777 99.8995 0.786151 99.1029 1.2251C98.3064 1.66405 97.6834 2.25612 97.2443 3.02173C96.795 3.78734 96.5703 4.63462 96.5703 5.59418C96.5703 6.54354 96.795 7.40103 97.2443 8.16664C97.6937 8.91184 98.3064 9.51411 99.1029 9.94285Z" fill="#35A2DC"/>
<path d="M108.176 10.0752C108.768 10.4019 109.432 10.5652 110.167 10.5652C110.903 10.5652 111.566 10.4019 112.148 10.0752C112.731 9.74857 113.19 9.29941 113.517 8.72776C113.844 8.1561 114.017 7.50277 114.017 6.77799C114.017 6.05321 113.854 5.39989 113.517 4.82824C113.19 4.25658 112.731 3.80743 112.148 3.48077C111.566 3.15411 110.903 3.00098 110.167 3.00098C109.432 3.00098 108.768 3.16431 108.176 3.48077C107.584 3.80743 107.124 4.24637 106.797 4.82824C106.47 5.39989 106.297 6.05321 106.297 6.77799C106.297 7.50277 106.46 8.1561 106.797 8.72776C107.134 9.29941 107.594 9.74857 108.176 10.0752ZM107.992 5.41011C108.207 5.01199 108.513 4.70575 108.891 4.49138C109.269 4.277 109.698 4.16471 110.177 4.16471C110.657 4.16471 111.076 4.277 111.464 4.49138C111.852 4.70575 112.138 5.01199 112.353 5.41011C112.567 5.80823 112.679 6.25738 112.679 6.77799C112.679 7.2884 112.567 7.74777 112.353 8.14588C112.138 8.544 111.842 8.85024 111.464 9.07482C111.086 9.2994 110.657 9.40149 110.177 9.40149C109.698 9.40149 109.279 9.2892 108.891 9.07482C108.513 8.86045 108.217 8.544 107.992 8.14588C107.767 7.74777 107.665 7.29861 107.665 6.77799C107.665 6.25738 107.767 5.79802 107.992 5.41011Z" fill="#35A2DC"/>
<path d="M117.239 6.7886C117.239 5.98216 117.443 5.36966 117.862 4.93071C118.28 4.49176 118.852 4.27739 119.577 4.27739C119.71 4.27739 119.812 4.2774 119.884 4.2876V2.98096C119.23 2.98096 118.679 3.09325 118.219 3.31783C117.759 3.54241 117.412 3.86907 117.177 4.29781V3.05241H115.891V10.4737H117.239V6.7886Z" fill="#35A2DC"/>
<path d="M122.681 10.0854C123.283 10.4121 123.988 10.5652 124.764 10.5652C125.377 10.5652 125.938 10.4631 126.439 10.259C126.939 10.0548 127.358 9.75877 127.695 9.36066L126.949 8.49296C126.408 9.09525 125.693 9.39129 124.805 9.39129C124.08 9.39129 123.467 9.19733 122.977 8.79921C122.487 8.40109 122.201 7.88047 122.119 7.22715H128.144C128.165 7.06382 128.175 6.92091 128.175 6.81883C128.175 6.07363 128.022 5.4101 127.705 4.82824C127.389 4.24637 126.96 3.79722 126.398 3.48077C125.846 3.15411 125.213 3.00098 124.498 3.00098C123.784 3.00098 123.15 3.16431 122.589 3.48077C122.027 3.80743 121.578 4.25658 121.261 4.82824C120.934 5.4101 120.781 6.05321 120.781 6.77799C120.781 7.50277 120.945 8.1561 121.282 8.73796C121.608 9.30962 122.078 9.75877 122.681 10.0854ZM122.885 4.71595C123.324 4.32804 123.855 4.12387 124.498 4.12387C125.142 4.12387 125.683 4.31783 126.112 4.71595C126.551 5.11407 126.796 5.62448 126.878 6.24717H122.119C122.201 5.61427 122.456 5.10386 122.885 4.71595Z" fill="#35A2DC"/>
<path d="M131.379 9.3611C131.686 9.74901 132.063 10.0553 132.503 10.2594C132.942 10.4636 133.432 10.5657 133.963 10.5657C134.678 10.5657 135.331 10.4023 135.893 10.0859C136.465 9.76942 136.904 9.32026 137.231 8.74861C137.558 8.17695 137.711 7.51342 137.711 6.76823C137.711 6.02303 137.547 5.35951 137.231 4.79806C136.904 4.2264 136.465 3.78745 135.893 3.471C135.321 3.15455 134.678 2.99121 133.963 2.99121C133.411 2.99121 132.911 3.09329 132.452 3.30766C131.992 3.52203 131.614 3.82829 131.318 4.23661V3.06268H130.031V13.1994H131.379V9.3611ZM131.696 5.41055C131.92 5.02264 132.217 4.7164 132.594 4.49182C132.972 4.27744 133.391 4.16515 133.861 4.16515C134.341 4.16515 134.759 4.27744 135.148 4.49182C135.525 4.70619 135.822 5.01243 136.046 5.41055C136.271 5.80867 136.373 6.25782 136.373 6.77843C136.373 7.28884 136.261 7.74821 136.046 8.14633C135.822 8.54444 135.525 8.85068 135.148 9.07526C134.77 9.29984 134.341 9.40193 133.861 9.40193C133.391 9.40193 132.972 9.28964 132.584 9.07526C132.196 8.86089 131.9 8.54444 131.686 8.14633C131.471 7.74821 131.359 7.29905 131.359 6.77843C131.369 6.25782 131.481 5.80867 131.696 5.41055Z" fill="#35A2DC"/>
<path d="M140.942 6.7886C140.942 5.98216 141.146 5.36966 141.565 4.93071C141.983 4.49176 142.555 4.27739 143.28 4.27739C143.413 4.27739 143.515 4.2774 143.587 4.2876V2.98096C142.933 2.98096 142.382 3.09325 141.922 3.31783C141.463 3.54241 141.115 3.86907 140.88 4.29781V3.05241H139.594V10.4737H140.942V6.7886Z" fill="#35A2DC"/>
<path d="M146.363 10.0752C146.956 10.4019 147.619 10.5652 148.355 10.5652C149.09 10.5652 149.754 10.4019 150.336 10.0752C150.918 9.74857 151.378 9.29941 151.704 8.72776C152.031 8.1561 152.205 7.50277 152.205 6.77799C152.205 6.05321 152.041 5.39989 151.704 4.82824C151.378 4.25658 150.918 3.80743 150.336 3.48077C149.754 3.15411 149.09 3.00098 148.355 3.00098C147.619 3.00098 146.956 3.16431 146.363 3.48077C145.771 3.79722 145.312 4.24637 144.985 4.82824C144.658 5.39989 144.484 6.05321 144.484 6.77799C144.484 7.50277 144.648 8.1561 144.985 8.72776C145.312 9.29941 145.771 9.74857 146.363 10.0752ZM146.169 5.41011C146.384 5.01199 146.69 4.70575 147.068 4.49138C147.446 4.277 147.875 4.16471 148.355 4.16471C148.835 4.16471 149.253 4.277 149.641 4.49138C150.019 4.70575 150.315 5.01199 150.53 5.41011C150.744 5.80823 150.857 6.25738 150.857 6.77799C150.857 7.2884 150.744 7.74777 150.53 8.14588C150.315 8.544 150.019 8.85024 149.641 9.07482C149.264 9.2994 148.835 9.40149 148.355 9.40149C147.875 9.40149 147.456 9.2892 147.068 9.07482C146.69 8.86045 146.394 8.544 146.169 8.14588C145.955 7.74777 145.843 7.29861 145.843 6.77799C145.843 6.25738 145.955 5.79802 146.169 5.41011Z" fill="#35A2DC"/>
<path d="M155.254 10.0752C155.846 10.4019 156.51 10.5652 157.245 10.5652C157.981 10.5652 158.644 10.4019 159.227 10.0752C159.809 9.74857 160.268 9.29941 160.595 8.72776C160.922 8.1561 161.095 7.50277 161.095 6.77799C161.095 6.05321 160.932 5.39989 160.595 4.82824C160.268 4.25658 159.809 3.80743 159.227 3.48077C158.644 3.15411 157.981 3.00098 157.245 3.00098C156.51 3.00098 155.846 3.16431 155.254 3.48077C154.662 3.80743 154.202 4.24637 153.875 4.82824C153.549 5.39989 153.375 6.05321 153.375 6.77799C153.375 7.50277 153.538 8.1561 153.875 8.72776C154.202 9.29941 154.672 9.74857 155.254 10.0752ZM155.07 5.41011C155.285 5.01199 155.591 4.70575 155.969 4.49138C156.347 4.277 156.776 4.16471 157.256 4.16471C157.736 4.16471 158.154 4.277 158.542 4.49138C158.92 4.70575 159.216 5.01199 159.431 5.41011C159.645 5.80823 159.758 6.25738 159.758 6.77799C159.758 7.2884 159.645 7.74777 159.431 8.14588C159.216 8.544 158.92 8.85024 158.542 9.07482C158.164 9.2994 157.736 9.40149 157.256 9.40149C156.776 9.40149 156.347 9.2892 155.969 9.07482C155.591 8.86045 155.295 8.544 155.07 8.14588C154.846 7.74777 154.743 7.29861 154.743 6.77799C154.733 6.25738 154.846 5.79802 155.07 5.41011Z" fill="#35A2DC"/>
<path d="M163.158 10.4838H164.506V4.16492H166.64V3.06244H164.485V2.41933C164.485 1.55163 164.883 1.11268 165.69 1.11268C166.078 1.11268 166.415 1.22497 166.732 1.45976L167.14 0.438943C166.956 0.296029 166.732 0.193952 166.466 0.112287C166.201 0.0408301 165.925 0 165.629 0C164.853 0 164.25 0.214364 163.821 0.643106C163.392 1.07185 163.178 1.65371 163.178 2.3887V3.04202H161.922V4.14451H163.178V10.4838H163.158Z" fill="#35A2DC"/>
</svg>
