<svg width="271" height="147" viewBox="0 0 271 147" fill="none" xmlns="http://www.w3.org/2000/svg">
<path d="M0 62V2H11.392L36.7324 44.3436H30.6937L55.5154 2H67V62H54.1631L53.9871 21.972H56.5434L36.473 55.5854H30.351L10.0306 21.972H12.8091V62H0Z" fill="white"/>
<path d="M177.091 62V13.3072H158V2H210V13.3072H190.899V62H177.091Z" fill="white"/>
<path d="M238.658 50.8515H271V62H225V2H269.873V13.1391H238.658V50.8515ZM237.613 26.0803H266.26V36.9673H237.613V26.0803Z" fill="white"/>
<path d="M1 146.972V74.0127H28.2452C33.697 73.8735 39.1173 74.8837 44.155 76.9778C48.3366 78.7489 51.9007 81.7227 54.3972 85.5234C56.8838 89.5752 58.1324 94.2682 57.9889 99.0232C58.1242 103.725 56.875 108.363 54.3972 112.357C51.8994 116.166 48.3414 119.157 44.1642 120.958C39.1361 123.089 33.7117 124.119 28.2544 123.979H5.28978L8.72528 120.295V147L1 146.972ZM8.69772 120.912L5.26222 117.164H28.0339C35.3091 117.164 40.8206 115.583 44.5684 112.422C48.3162 109.26 50.2054 104.794 50.236 99.0232C50.236 93.185 48.3468 88.6697 44.5684 85.4774C40.7899 82.285 35.2785 80.6858 28.0339 80.6797H5.26222L8.69772 76.9962V120.912Z" fill="#F8B133"/>
<path d="M69 147L102.229 74H109.771L143 147H134.899L104.367 78.4779H107.486L76.9541 147H69ZM82.0826 127.495L84.367 121.239H126.624L128.908 127.495H82.0826Z" fill="#F8B133"/>
<path d="M165 147V74.0115H195.23C202.456 73.8481 209.612 75.4296 216.071 78.6176C221.86 81.5412 226.693 86.0115 230.014 91.5147C233.284 97.3232 235 103.853 235 110.492C235 117.131 233.284 123.661 230.014 129.469C226.693 134.972 221.86 139.443 216.071 142.366C209.613 145.56 202.456 147.141 195.23 146.972L165 147ZM172.853 140.321H194.808C200.751 140.469 206.637 139.161 211.938 136.516C216.614 134.11 220.51 130.462 223.183 125.987C225.826 121.231 227.212 115.898 227.212 110.478C227.212 105.058 225.826 99.7254 223.183 94.9693C220.495 90.5183 216.602 86.8888 211.938 84.4858C206.636 81.8455 200.75 80.5384 194.808 80.6812H172.9L172.853 140.321Z" fill="#F8B133"/>
<path d="M240 81.3801V139.62C240 143.696 243.274 147 247.312 147H263.688C267.726 147 271 143.696 271 139.62V81.3801C271 77.3042 267.726 74 263.688 74H247.312C243.274 74 240 77.3042 240 81.3801Z" fill="white"/>
<path d="M250 122L261 125.684V128.482L253.57 130.956L261 133.518V136.298L250.034 140V137.298L257.721 134.754L250.034 132.123V129.702L257.797 127.132L250.034 124.5L250 122Z" fill="black"/>
<path d="M250 109H261V111.79H256.499V117.21H261V120H250V117.21H254.321V111.79H250V109Z" fill="black"/>
<path d="M250 106V103H261V106H250Z" fill="black"/>
<path d="M252.067 97.9474V102H250V91H252.067V95.033H261V97.9768L252.067 97.9474Z" fill="black"/>
<path d="M258.925 81H261V90H250V81.2083H252.033V87.3199H254.415V81.8873H256.388V87.3199H258.95L258.925 81Z" fill="black"/>
<path d="M128.686 24.6276V35.6069C128.686 41.1671 127.543 45.1946 125.257 47.6897C122.971 50.1847 119.761 51.4352 115.628 51.4414C111.55 51.4414 108.368 50.1908 106.082 47.6897C105.284 46.8052 104.641 45.7917 104.18 44.692L93.7185 53.2529C94.4104 54.2368 95.1844 55.1597 96.032 56.0115C100.72 60.6705 107.225 63 115.546 63C123.867 63 130.341 60.6705 134.968 56.0115C139.662 51.3586 142.006 44.6797 142 35.9747V13.731L128.686 24.6276ZM89.0001 3.01839V35.9471C88.9966 37.5168 89.0791 39.0854 89.247 40.646L102.652 29.6667V3L89.0001 3.01839ZM128.686 3.01839V8.35172L135.206 3.01839H128.686Z" fill="white"/>
<path d="M148 5.55364L143.282 9.36424L129.678 20.3603L103.713 41.3325L92.4548 50.4371L85.5595 56L81 50.4556L89.8947 43.2702L103.078 32.6172L129.678 11.1258L140.778 2.16026L143.45 0L148 5.55364Z" fill="#F8B133"/>
</svg>
