<svg width="402" height="135" viewBox="0 0 402 135" fill="none" xmlns="http://www.w3.org/2000/svg">
<path d="M0 58V5H10.2018L32.8947 42.4035H27.4869L49.7152 5H60V58H48.5043L48.3467 22.6419H50.6359L32.6624 52.3338H27.18L8.98258 22.6419H11.4708V58H0Z" fill="#373737"/>
<path d="M158.889 58V14.988H142V5H188V14.988H171.103V58H158.889Z" fill="#373737"/>
<path d="M214.173 48.1522H243V58H202V5H241.995V14.8396H214.173V48.1522ZM213.242 26.2709H238.775V35.8878H213.242V26.2709Z" fill="#373737"/>
<path d="M1 134.975V69.0114H25.3772C30.2552 68.8856 35.105 69.799 39.6124 71.6923C43.3538 73.2936 46.5427 75.9821 48.7765 79.4184C51.0013 83.0817 52.1185 87.3247 51.99 91.6237C52.1112 95.8747 50.9935 100.068 48.7765 103.679C46.5416 107.123 43.3581 109.827 39.6206 111.455C35.1217 113.382 30.2684 114.313 25.3855 114.186H4.83822L7.91209 110.856V135L1 134.975ZM7.88743 111.414L4.81357 108.025H25.1882C31.6976 108.025 36.6289 106.596 39.9822 103.737C43.3355 100.879 45.0259 96.8411 45.0533 91.6237C45.0533 86.3453 43.3629 82.263 39.9822 79.3768C36.6015 76.4906 31.6702 75.0447 25.1882 75.0392H4.81357L7.88743 71.7089V111.414Z" fill="#BFBFBF"/>
<path d="M62 135L92.086 69H98.914L129 135H121.665L94.0215 73.0485H96.8456L69.2017 135H62ZM73.845 117.365L75.9133 111.709H114.173L116.241 117.365H73.845Z" fill="#BFBFBF"/>
<path d="M148 135V69.0104H174.775C181.175 68.8626 187.513 70.2926 193.234 73.1748C198.362 75.8181 202.643 79.8597 205.584 84.8352C208.481 90.0867 210 95.9905 210 101.993C210 107.995 208.481 113.899 205.584 119.15C202.643 124.126 198.362 128.167 193.234 130.811C187.515 133.698 181.175 135.128 174.775 134.975L148 135ZM154.955 128.962H174.402C179.665 129.095 184.879 127.913 189.574 125.522C193.716 123.346 197.166 120.048 199.534 116.002C201.875 111.702 203.102 106.88 203.102 101.98C203.102 97.0801 201.875 92.2586 199.534 87.9586C197.153 83.9343 193.705 80.6529 189.574 78.4803C184.877 76.0932 179.665 74.9114 174.402 75.0405H154.997L154.955 128.962Z" fill="#BFBFBF"/>
<path d="M215 75.6725V128.328C215 132.013 217.957 135 221.604 135H236.396C240.043 135 243 132.013 243 128.328V75.6725C243 71.9874 240.043 69 236.396 69H221.604C217.957 69 215 71.9874 215 75.6725Z" fill="#BFBFBF"/>
<path d="M234.38 87.8499H229.906L231.439 87.2711L223.43 92.0891V89.3985L229.577 85.7068V87.2554L223.43 83.548V81.0608L231.439 85.8788L229.906 85.3157H234.38V87.8499Z" fill="#1D1E1E"/>
<path d="M227.841 98.6288V93.3571H229.812V98.6288H227.841ZM232.346 98.4411V92.4811H234.38V100.96H223.43V92.6844H225.463V98.4411H232.346Z" fill="#1D1E1E"/>
<path d="M234.38 112.463H223.43V107.723C223.43 106.743 223.591 105.898 223.915 105.189C224.227 104.48 224.681 103.932 225.276 103.546C225.87 103.16 226.579 102.967 227.403 102.967C228.216 102.967 228.92 103.16 229.515 103.546C230.099 103.932 230.547 104.48 230.86 105.189C231.173 105.898 231.329 106.743 231.329 107.723V111.055L230.219 109.929H234.38V112.463ZM234.38 105.502L230.406 108.239V105.533L234.38 102.764V105.502ZM230.5 109.929L229.311 111.055V107.864C229.311 107.082 229.145 106.498 228.811 106.112C228.467 105.726 227.997 105.533 227.403 105.533C226.798 105.533 226.329 105.726 225.995 106.112C225.661 106.498 225.495 107.082 225.495 107.864V111.055L224.29 109.929H230.5Z" fill="#1D1E1E"/>
<path d="M234.568 119.244C234.568 120.109 234.432 120.907 234.161 121.637C233.879 122.357 233.483 122.988 232.972 123.53C232.461 124.062 231.861 124.479 231.173 124.781C230.485 125.073 229.729 125.219 228.905 125.219C228.081 125.219 227.325 125.073 226.637 124.781C225.948 124.479 225.349 124.057 224.838 123.514C224.327 122.972 223.936 122.336 223.665 121.606C223.383 120.876 223.242 120.073 223.242 119.197C223.242 118.227 223.404 117.356 223.727 116.584C224.05 115.802 224.52 115.145 225.135 114.613L226.637 116.24C226.22 116.637 225.912 117.069 225.714 117.539C225.505 118.008 225.401 118.519 225.401 119.072C225.401 119.604 225.484 120.088 225.651 120.526C225.818 120.964 226.058 121.345 226.371 121.668C226.684 121.981 227.054 122.226 227.481 122.404C227.909 122.57 228.384 122.654 228.905 122.654C229.416 122.654 229.885 122.57 230.313 122.404C230.74 122.226 231.116 121.981 231.439 121.668C231.752 121.345 231.992 120.97 232.159 120.542C232.326 120.104 232.409 119.624 232.409 119.103C232.409 118.602 232.331 118.117 232.174 117.648C232.007 117.168 231.731 116.704 231.345 116.256L233.175 114.817C233.624 115.411 233.968 116.105 234.208 116.897C234.448 117.679 234.568 118.462 234.568 119.244ZM232.847 117.132H228.733V114.817H233.175L232.847 117.132Z" fill="#1D1E1E"/>
<path d="M115.942 24.4648V34.3462C115.942 39.3503 114.907 42.9752 112.836 45.2207C110.766 47.4662 107.859 48.5917 104.116 48.5972C100.422 48.5972 97.5404 47.4717 95.47 45.2207C94.748 44.4247 94.1656 43.5126 93.7475 42.5228L84.2734 50.2276C84.9 51.1131 85.6009 51.9437 86.3686 52.7103C90.6143 56.9034 96.5052 59 104.041 59C111.578 59 117.441 56.9034 121.631 52.7103C125.883 48.5228 128.006 42.5117 128 34.6772V14.6579L115.942 24.4648ZM80.0001 5.01655V34.6524C79.9969 36.0651 80.0716 37.4769 80.2237 38.8814L92.3645 29V5L80.0001 5.01655ZM115.942 5.01655V9.81655L121.847 5.01655H115.942Z" fill="#373737"/>
<path d="M132 7.95861L127.845 11.3609L115.866 21.1788L93.0013 39.904L83.087 48.0331L77.0151 53L73 48.0497L80.8327 41.6341L92.4418 32.1225L115.866 12.9338L125.64 4.9288L127.993 3L132 7.95861Z" fill="#BFBFBF"/>
<path d="M383.506 0H300.494C290.28 0 282 8.32896 282 18.6032V116.397C282 126.671 290.28 135 300.494 135H383.506C393.72 135 402 126.671 402 116.397V18.6032C402 8.32896 393.72 0 383.506 0Z" fill="white"/>
<path d="M295.198 105L295 84.2297L300.571 84.1702L310.913 96.7123H308.333L308.21 84.0681L314.802 84L315 104.77L309.429 104.83L299.071 92.2877H301.658L301.782 104.932L295.198 105Z" fill="#1D1E1E"/>
<path d="M328.638 104.997C327.065 105.03 325.498 104.785 324.013 104.272C322.654 103.8 321.405 103.063 320.34 102.106C319.307 101.184 318.477 100.063 317.902 98.811C317.321 97.4868 317.015 96.0613 317.001 94.6185C316.986 93.1756 317.264 91.7445 317.819 90.4093C318.367 89.1404 319.174 87.9964 320.19 87.0486C321.239 86.0754 322.473 85.3167 323.821 84.8164C326.783 83.7599 330.021 83.7279 333.004 84.7258C334.355 85.2033 335.598 85.9395 336.66 86.8921C337.692 87.8149 338.521 88.9361 339.098 90.1869C339.679 91.5111 339.985 92.9366 339.999 94.3795C340.014 95.8223 339.736 97.2534 339.181 98.5886C338.636 99.8714 337.829 101.029 336.81 101.991C335.766 102.962 334.538 103.72 333.196 104.223C331.737 104.751 330.192 105.014 328.638 104.997ZM328.546 99.5194C329.163 99.5235 329.775 99.4 330.341 99.157C330.888 98.9256 331.38 98.5832 331.785 98.1521C332.213 97.6937 332.54 97.1523 332.745 96.5623C332.979 95.8841 333.09 95.1701 333.071 94.4537C333.073 93.735 332.949 93.0214 332.703 92.345C332.482 91.7604 332.144 91.2255 331.71 90.7717C331.294 90.3498 330.794 90.0187 330.241 89.7998C329.672 89.5676 329.061 89.4553 328.446 89.4703C327.832 89.4711 327.224 89.5944 326.659 89.8327C326.112 90.0641 325.62 90.4065 325.215 90.8376C324.788 91.2973 324.462 91.8383 324.255 92.4274C324.021 93.1057 323.911 93.8197 323.929 94.536C323.927 95.2547 324.051 95.9682 324.297 96.6447C324.516 97.2302 324.854 97.7656 325.29 98.218C325.707 98.6397 326.207 98.9732 326.759 99.1982C327.327 99.423 327.935 99.5323 328.546 99.5194Z" fill="#1D1E1E"/>
<path d="M342.198 104L342 84.0653L348.802 84L349 103.935L342.198 104Z" fill="#1D1E1E"/>
<path d="M359.741 104.993C358.105 105.016 356.472 104.83 354.878 104.44C353.52 104.139 352.212 103.624 351 102.911L353.124 97.7287C354.134 98.3227 355.211 98.7811 356.33 99.0934C357.442 99.4259 358.593 99.5917 359.749 99.5857C360.261 99.5897 360.772 99.5405 361.274 99.4389C361.577 99.3839 361.861 99.2436 362.094 99.0329C362.173 98.9537 362.236 98.8586 362.28 98.7533C362.324 98.648 362.347 98.5346 362.348 98.4197C362.337 98.2296 362.273 98.0471 362.165 97.894C362.058 97.7408 361.911 97.6235 361.742 97.556C361.236 97.3039 360.701 97.121 360.151 97.0118L357.986 96.5541C357.184 96.3869 356.393 96.1677 355.616 95.8977C354.846 95.6409 354.112 95.2748 353.435 94.8094C352.76 94.3538 352.198 93.7349 351.795 93.0042C351.363 92.1369 351.149 91.1677 351.172 90.1885C351.147 88.9152 351.5 87.6652 352.181 86.6128C352.96 85.4604 354.031 84.5624 355.272 84.0217C356.907 83.3137 358.662 82.9668 360.43 83.0025C361.774 82.9842 363.116 83.1232 364.431 83.4171C365.676 83.6727 366.876 84.127 367.99 84.7645L366.014 89.9467C365.092 89.4603 364.124 89.0754 363.127 88.798C362.244 88.5533 361.335 88.4313 360.421 88.4352C359.901 88.4231 359.382 88.49 358.88 88.6339C358.568 88.7074 358.283 88.8755 358.06 89.1175C357.907 89.302 357.823 89.538 357.822 89.7826C357.829 89.9743 357.89 90.1593 357.998 90.3135C358.107 90.4676 358.257 90.5837 358.429 90.6463C358.936 90.889 359.47 91.0603 360.02 91.1559L362.201 91.5878C363.001 91.7418 363.79 91.9553 364.562 92.2269C365.328 92.489 366.059 92.8548 366.735 93.3152C367.41 93.7675 367.973 94.3835 368.375 95.1117C368.806 95.9606 369.021 96.913 368.998 97.8756C369.013 99.1394 368.661 100.378 367.99 101.425C367.209 102.573 366.142 103.47 364.907 104.017C363.27 104.723 361.509 105.055 359.741 104.993Z" fill="#1D1E1E"/>
<path d="M377.848 98.8883L387.95 98.7907L388 103.837L371.199 104L371 84.1544L387.429 84L387.478 89.0467L377.749 89.1361L377.848 98.8883ZM377.31 91.4685L386.319 91.3791L386.385 96.2064L377.376 96.2958L377.31 91.4685Z" fill="#1D1E1E"/>
<path d="M300.134 121.999C299.306 122.015 298.482 121.888 297.701 121.624C296.984 121.378 296.324 120.999 295.758 120.509C295.21 120.024 294.772 119.433 294.474 118.775C294.158 118.077 293.997 117.323 294.001 116.562C293.985 115.798 294.129 115.04 294.424 114.331C294.712 113.668 295.141 113.069 295.682 112.573C296.237 112.073 296.889 111.683 297.6 111.426C298.375 111.144 299.196 111.001 300.024 111.002C301 110.977 301.971 111.152 302.871 111.515C303.683 111.859 304.394 112.39 304.941 113.062L302.635 115.08C302.339 114.719 301.975 114.415 301.562 114.185C301.155 113.971 300.699 113.861 300.236 113.867C299.88 113.871 299.528 113.937 299.196 114.063C298.878 114.177 298.589 114.358 298.352 114.592C298.129 114.829 297.957 115.105 297.845 115.406C297.714 115.755 297.654 116.125 297.667 116.496C297.663 116.868 297.729 117.238 297.862 117.587C297.98 117.89 298.161 118.167 298.394 118.401C298.631 118.632 298.92 118.808 299.239 118.914C299.572 119.04 299.929 119.098 300.286 119.085C300.746 119.09 301.199 118.975 301.596 118.751C302.007 118.515 302.366 118.202 302.652 117.831L305 119.809C304.464 120.484 303.765 121.024 302.964 121.38C302.079 121.783 301.113 121.995 300.134 121.999Z" fill="#1D1E1E"/>
<path d="M305 122L309.254 111H312.553L317 121.882H313.532L310.233 112.735H311.543L308.414 121.949L305 122ZM307.566 120.071L308.399 117.405L312.977 117.355L313.856 120.003L307.566 120.071Z" fill="#1D1E1E"/>
<path d="M318.111 121L318 111.054H321.062L326.742 117.051H325.322L325.262 111H328.889L329 120.938H325.938L320.25 114.934H321.67L321.738 120.985L318.111 121Z" fill="#1D1E1E"/>
<path d="M336.106 120.999C335.285 121.015 334.467 120.888 333.693 120.624C332.976 120.384 332.318 120.005 331.759 119.508C331.211 119.025 330.773 118.437 330.472 117.782C330.161 117.079 330.001 116.323 330.001 115.558C329.984 114.794 330.13 114.034 330.43 113.327C330.717 112.667 331.14 112.071 331.675 111.576C332.228 111.071 332.88 110.678 333.592 110.419C334.362 110.144 335.176 110.004 335.997 110.004C336.972 109.971 337.942 110.146 338.839 110.517C339.646 110.855 340.351 111.384 340.891 112.056L338.604 114.076C338.304 113.717 337.939 113.413 337.527 113.18C337.127 112.963 336.674 112.856 336.215 112.871C335.859 112.867 335.504 112.93 335.173 113.058C334.871 113.178 334.601 113.361 334.382 113.595C334.157 113.831 333.982 114.108 333.869 114.41C333.748 114.761 333.688 115.13 333.693 115.501C333.696 115.871 333.764 116.237 333.895 116.584C334.012 116.888 334.193 117.165 334.424 117.399C334.66 117.633 334.948 117.811 335.265 117.92C335.599 118.037 335.953 118.095 336.308 118.091C336.769 118.09 337.221 117.972 337.62 117.749C338.026 117.512 338.383 117.202 338.671 116.837L341 118.808C340.463 119.52 339.748 120.088 338.923 120.461C338.035 120.834 337.074 121.018 336.106 120.999Z" fill="#1D1E1E"/>
<path d="M345.651 118.187L351 118.136V120.907L342.108 121L342 110.084L350.694 110V112.771L345.544 112.822L345.651 118.187ZM345.37 114.106L350.131 114.055V116.708L345.37 116.759V114.106Z" fill="#1D1E1E"/>
<path d="M352.093 121L352 110H355.393L355.463 118.122L360 118.071V120.949L352.093 121Z" fill="#1D1E1E"/>
<path d="M361.107 121L361 110.042L364.884 110L365 120.966L361.107 121Z" fill="#1D1E1E"/>
<path d="M367.093 121L367 110.059H369.784L374.947 116.656H373.656L373.594 110H376.899L377 120.941H374.216L369.045 114.336H370.336L370.398 120.992L367.093 121Z" fill="#1D1E1E"/>
<path d="M384.528 120.998C383.782 121.016 383.039 120.889 382.334 120.624C381.687 120.384 381.093 120.004 380.588 119.508C380.091 119.027 379.696 118.439 379.427 117.781C379.145 117.079 379.001 116.322 379.001 115.558C378.985 114.793 379.117 114.033 379.389 113.326C379.647 112.664 380.033 112.067 380.52 111.575C381.025 111.07 381.619 110.677 382.266 110.419C382.982 110.142 383.737 110.002 384.498 110.003C385.389 109.974 386.275 110.143 387.102 110.5C387.839 110.818 388.492 111.327 389 111.982L386.905 114.002C386.62 113.652 386.278 113.362 385.895 113.147C385.521 112.955 385.11 112.86 384.695 112.87C384.358 112.866 384.023 112.929 383.708 113.057C383.418 113.168 383.158 113.352 382.949 113.595C382.74 113.827 382.579 114.105 382.478 114.409C382.367 114.763 382.313 115.135 382.319 115.509C382.318 115.874 382.38 116.235 382.501 116.576C382.607 116.879 382.77 117.157 382.98 117.39C383.195 117.622 383.454 117.803 383.739 117.92C384.044 118.044 384.369 118.105 384.695 118.099C385.069 118.092 385.438 118.018 385.789 117.879C386.197 117.707 386.579 117.468 386.92 117.17L388.787 119.614C388.164 120.065 387.477 120.406 386.753 120.624C386.031 120.856 385.282 120.983 384.528 120.998ZM385.91 119.198V115.199H388.78L388.818 119.655L385.91 119.198Z" fill="#1D1E1E"/>
<path d="M327.434 51.0579L326.07 41.1462L325.412 40.9823C324.497 43.1777 323.573 45.3648 322.675 47.5356C322.231 48.9674 321.646 50.353 320.927 51.6723C320.237 52.6962 318.972 54.0478 318.032 53.9987C317.091 53.9496 315.876 52.5242 315.302 51.4429C314.469 49.58 313.763 47.6643 313.189 45.7089C309.411 50.5091 304.502 47.4127 300 48.4694L300.058 43.2514C301.814 43.2514 303.661 43.2514 305.492 43.3333C307.156 43.4234 308.171 42.8991 308.646 41.2117C309.045 39.5751 309.66 37.9971 310.476 36.5179C310.747 36.0654 311.117 35.6778 311.559 35.3832C312.001 35.0885 312.503 34.8941 313.031 34.8141C313.56 34.9082 314.06 35.1203 314.492 35.4341C314.925 35.7479 315.279 36.1551 315.527 36.6244C316.559 38.8034 317.191 41.1462 318.706 43.5053C320.126 39.9666 321.551 36.4333 322.983 32.9055C323.573 31.4228 323.965 29.8009 324.863 28.523C325.512 27.6055 326.977 26.4915 327.834 26.6635C328.691 26.8355 329.773 28.3837 329.964 29.4568C330.68 33.6017 331.079 37.804 331.628 41.9817C331.663 42.2078 331.753 42.4221 331.891 42.6062C332.028 42.7903 332.21 42.9386 332.419 43.0384C333.45 37.9433 334.499 32.8481 335.531 27.753C336.363 23.7145 337.004 19.6433 338.027 15.6704C338.302 14.6301 339.741 13.8847 340.648 13C341.53 13.9502 343.011 14.8021 343.194 15.867C344.026 20.9376 344.95 26.0573 345 31.1689C345 33.012 342.72 34.8796 341.48 36.7391L340.781 36.4852L340.34 34.2571C338.901 41.8261 331.844 44.9307 327.434 51.0579Z" fill="#1D1E1E"/>
<path d="M347.337 44.4522C347.855 48.4966 348.315 52.0574 348.776 55.6264L349.415 55.7349C349.956 53.0497 350.514 50.3729 351.032 47.6794C351.468 45.3445 351.727 42.9678 352.301 40.6663C352.603 39.3182 353.198 38.0581 354.039 36.9804C356.278 34.3453 358.728 31.8936 361.444 29C363.7 35.9714 365.842 42.5676 368.065 49.4556C368.664 48.9136 369.019 48.7384 369.149 48.4466C370.725 45.0026 373.401 44.2771 376.886 44.5272C381.332 44.8691 381.348 44.6523 380.685 49.3805C380.467 49.4806 380.192 49.7308 379.982 49.6807C375.495 48.6801 372.924 51.1234 371.041 54.8843C370.679 55.5517 370.254 56.1803 369.771 56.7606C367.904 59.1288 365.794 58.8536 364.816 55.9267C363.142 50.99 361.63 45.9949 360.03 41.0249C359.633 39.7823 359.165 38.5648 358.558 36.8553C358.198 37.3861 357.902 37.9602 357.677 38.5648C355.64 50.1839 353.621 61.7973 351.622 73.4052C351.598 73.9857 351.455 74.5542 351.201 75.073C350.458 76.1071 349.585 77.0327 348.776 78C347.887 76.9826 346.416 76.0737 346.205 74.9146C345.397 70.3365 344.944 65.6833 344.37 61.0635C344.031 58.3283 343.974 55.5097 343.279 52.8662C342.187 48.8385 344.459 46.7954 347.337 44.4522Z" fill="#1D1E1E"/>
<path d="M316.732 71L315 69.3491L365.393 17C366.852 17.7346 367.713 18.3785 366.222 19.9055C349.849 36.86 333.485 53.8254 317.129 70.8019C317.002 70.8769 316.869 70.9431 316.732 71Z" fill="#1D1E1E"/>
<path d="M335 57.2429C334.651 59.2529 334.187 61.2435 333.609 63.2057C333.437 63.6361 333.161 64.0224 332.803 64.334C332.446 64.6455 332.016 64.8736 331.548 65C331.051 64.9701 330.568 64.8313 330.138 64.5948C329.707 64.3582 329.34 64.0302 329.065 63.6366C328.792 63.2135 329.43 62.0225 329.968 61.4192C331.366 59.8521 332.931 58.4652 334.437 57L335 57.2429Z" fill="#1D1E1E"/>
</svg>
