<svg width="383" height="127" viewBox="0 0 383 127" fill="none" xmlns="http://www.w3.org/2000/svg">
<path d="M0 55V4H9.69174L31.2499 39.9921H26.1125L47.2295 4H57V55H46.0791L45.9294 20.9762H48.1041L31.0293 49.5476H25.821L8.53345 20.9762H10.8973V55H0Z" fill="white"/>
<path d="M151.154 55V13.6111H135V4H179V13.6111H162.838V55H151.154Z" fill="white"/>
<path d="M203.579 45.5238H231V55H192V4H230.044V13.4683H203.579V45.5238ZM202.694 24.4683H226.981V33.7222H202.694V24.4683Z" fill="white"/>
<path d="M1 126.977V65.0107H24.4213C29.108 64.8926 33.7675 65.7505 38.0982 67.5291C41.6928 69.0333 44.7568 71.559 46.9029 74.787C49.0405 78.2282 50.1138 82.2141 49.9904 86.2526C50.1068 90.246 49.0329 94.1848 46.9029 97.5774C44.7556 100.813 41.697 103.352 38.1061 104.882C33.7836 106.692 29.1206 107.567 24.4292 107.447H4.68771L7.64103 104.319V127L1 126.977ZM7.61734 104.843L4.66402 101.66H24.2397C30.4938 101.66 35.2317 100.317 38.4535 97.6321C41.6753 94.9469 43.2994 91.1537 43.3257 86.2526C43.3257 81.2941 41.7017 77.4592 38.4535 74.7479C35.2054 72.0366 30.4674 70.6784 24.2397 70.6732H4.66402L7.61734 67.5448V104.843Z" fill="#F0254C"/>
<path d="M59 127L87.7389 65H94.2611L123 127H115.994L89.5877 68.8031H92.2854L65.8792 127H59ZM70.3147 110.434L72.2904 105.12H108.837L110.813 110.434H70.3147Z" fill="#F0254C"/>
<path d="M141 127V65.0098H166.48C172.57 64.871 178.601 66.2142 184.045 68.9218C188.925 71.4049 192.999 75.2016 195.798 79.8755C198.554 84.8087 200 90.3547 200 95.9932C200 101.632 198.554 107.178 195.798 112.111C192.999 116.785 188.925 120.581 184.045 123.064C178.603 125.777 172.57 127.12 166.48 126.977L141 127ZM147.619 121.328H166.124C171.133 121.453 176.094 120.342 180.562 118.096C184.504 116.052 187.787 112.954 190.04 109.153C192.268 105.114 193.436 100.585 193.436 95.9814C193.436 91.3783 192.268 86.849 190.04 82.8096C187.774 79.0292 184.493 75.9467 180.562 73.9057C176.093 71.6633 171.132 70.5531 166.124 70.6744H147.658L147.619 121.328Z" fill="#F0254C"/>
<path d="M204 71.2681V120.732C204 124.194 206.851 127 210.368 127H224.632C228.149 127 231 124.194 231 120.732V71.2681C231 67.8063 228.149 65 224.632 65H210.368C206.851 65 204 67.8063 204 71.2681Z" fill="#F0254C"/>
<path d="M224 107.371L220.379 109.979V112.859H224V116H211.002V110.135C210.977 109.063 211.173 107.997 211.577 107.01C211.858 106.396 212.259 105.851 212.756 105.41C213.253 104.968 213.833 104.641 214.459 104.449C215.085 104.257 215.743 104.205 216.39 104.296C217.037 104.387 217.658 104.618 218.214 104.976C218.922 105.489 219.469 106.208 219.788 107.043L223.969 104L224 107.371ZM214.033 108.191C213.607 108.816 213.401 109.575 213.451 110.34V112.891H217.985V110.34C218.034 109.573 217.822 108.813 217.387 108.191C217.167 107.961 216.906 107.778 216.618 107.653C216.331 107.528 216.022 107.464 215.71 107.464C215.398 107.464 215.09 107.528 214.802 107.653C214.514 107.778 214.253 107.961 214.033 108.191Z" fill="white"/>
<path d="M221.583 92H224V102H211V92.2347H213.409V99.0266H216.236V93.0329H218.598V99.0266H221.606L221.583 92Z" fill="white"/>
<path d="M211.002 89V83.5818C210.971 82.3974 211.241 81.2226 211.792 80.1503C212.295 79.1939 213.087 78.3892 214.073 77.8313C215.117 77.2865 216.298 77 217.5 77C218.701 77 219.882 77.2865 220.926 77.8313C221.914 78.3874 222.707 79.1925 223.208 80.1503C223.762 81.2215 224.032 82.3971 223.997 83.5818V89H211.002ZM221.558 83.7191C221.616 82.6741 221.225 81.6498 220.468 80.8655C219.67 80.1782 218.615 79.7955 217.519 79.7955C216.424 79.7955 215.369 80.1782 214.571 80.8655C213.814 81.6498 213.423 82.6741 213.481 83.7191V86.2403H221.558V83.7191Z" fill="white"/>
<path d="M110.444 22.7439V32.2593C110.444 37.0781 109.452 40.5687 107.468 42.731C105.484 44.8934 102.698 45.9772 99.1112 45.9825C95.5715 45.9825 92.8096 44.8987 90.8255 42.731C90.1335 41.9645 89.5753 41.0862 89.1747 40.133L80.0953 47.5525C80.6958 48.4052 81.3676 49.205 82.1033 49.9433C86.172 53.9811 91.8175 56 99.0397 56C106.262 56 111.881 53.9811 115.897 49.9433C119.971 45.9108 122.005 40.1224 122 32.5781V13.3002L110.444 22.7439ZM76.0001 4.01594V32.5542C75.9971 33.9145 76.0686 35.274 76.2144 36.6265L87.8493 27.1111V4L76.0001 4.01594ZM110.444 4.01594V8.63816L116.103 4.01594H110.444Z" fill="white"/>
<path d="M126 6.76026L121.986 10.0265L110.413 19.4517L88.3232 37.4278L78.7451 45.2318L72.879 50L69 45.2477L76.5671 39.0887L87.7827 29.9576L110.413 11.5364L119.856 3.85165L122.129 2L126 6.76026Z" fill="#F0254C"/>
<path d="M365.431 0H286.569C276.866 0 269 7.83539 269 17.5008V109.499C269 119.165 276.866 127 286.569 127H365.431C375.134 127 383 119.165 383 109.499V17.5008C383 7.83539 375.134 0 365.431 0Z" fill="white"/>
<path d="M280.198 99L280 79.2188L285.571 79.1621L295.913 91.107H293.333L293.21 79.0648L299.802 79L300 98.7812L294.429 98.8379L284.071 86.893H286.658L286.782 98.9352L280.198 99Z" fill="#1D1E1E"/>
<path d="M313.132 98.9971C311.627 99.0289 310.129 98.7951 308.708 98.3068C307.408 97.8569 306.213 97.1553 305.195 96.2436C304.207 95.3659 303.413 94.2978 302.863 93.1057C302.307 91.8446 302.014 90.487 302.001 89.1128C301.987 87.7387 302.253 86.3757 302.783 85.1041C303.307 83.8956 304.079 82.8061 305.051 81.9034C306.055 80.9765 307.235 80.254 308.524 79.7775C311.358 78.7713 314.455 78.7409 317.308 79.6912C318.601 80.146 319.789 80.8472 320.805 81.7544C321.792 82.6332 322.586 83.7011 323.137 84.8923C323.693 86.1535 323.986 87.511 323.999 88.8852C324.013 90.2593 323.747 91.6223 323.217 92.8939C322.696 94.1156 321.924 95.2185 320.949 96.1338C319.95 97.0588 318.775 97.7812 317.492 98.2597C316.096 98.7631 314.619 99.013 313.132 98.9971ZM313.044 93.7804C313.634 93.7843 314.219 93.6667 314.761 93.4352C315.284 93.2148 315.755 92.8888 316.142 92.4782C316.552 92.0416 316.865 91.526 317.06 90.9641C317.285 90.3182 317.39 89.6381 317.372 88.9559C317.374 88.2715 317.256 87.5919 317.02 86.9476C316.809 86.3909 316.486 85.8815 316.07 85.4493C315.673 85.0475 315.194 84.7321 314.665 84.5236C314.121 84.3024 313.536 84.1955 312.948 84.2098C312.361 84.2106 311.779 84.328 311.239 84.555C310.716 84.7754 310.245 85.1014 309.858 85.512C309.45 85.9498 309.137 86.4651 308.94 87.0261C308.716 87.6721 308.61 88.3521 308.628 89.0343C308.626 89.7187 308.744 90.3983 308.98 91.0426C309.189 91.6002 309.513 92.11 309.93 92.5409C310.329 92.9426 310.807 93.2602 311.335 93.4744C311.878 93.6886 312.459 93.7927 313.044 93.7804Z" fill="#1D1E1E"/>
<path d="M326.198 98L326 79.0621L332.802 79L333 97.9379L326.198 98Z" fill="#1D1E1E"/>
<path d="M343.255 98.9929C341.71 99.0149 340.168 98.8377 338.663 98.4652C337.38 98.1783 336.145 97.6863 335 97.0059L337.006 92.0592C337.96 92.6262 338.977 93.0638 340.034 93.3619C341.084 93.6793 342.171 93.8375 343.263 93.8318C343.746 93.8356 344.229 93.7886 344.703 93.6917C344.99 93.6392 345.257 93.5053 345.478 93.3042C345.552 93.2285 345.612 93.1378 345.653 93.0372C345.694 92.9367 345.717 92.8285 345.718 92.7188C345.707 92.5373 345.647 92.3631 345.545 92.217C345.444 92.0708 345.305 91.9588 345.145 91.8944C344.667 91.6537 344.162 91.4791 343.642 91.3749L341.598 90.938C340.841 90.7784 340.093 90.5692 339.36 90.3114C338.632 90.0664 337.939 89.7169 337.3 89.2726C336.662 88.8378 336.131 88.247 335.751 87.5495C335.343 86.7215 335.141 85.7964 335.163 84.8618C335.139 83.6463 335.472 82.4532 336.115 81.4486C336.851 80.3486 337.863 79.4914 339.035 78.9752C340.579 78.2995 342.237 77.9684 343.906 78.0024C345.175 77.9849 346.443 78.1176 347.685 78.3981C348.86 78.6421 349.994 79.0758 351.046 79.6843L349.18 84.631C348.309 84.1667 347.395 83.7992 346.454 83.5344C345.62 83.3009 344.76 83.1845 343.898 83.1882C343.407 83.1766 342.916 83.2405 342.442 83.3778C342.147 83.448 341.878 83.6084 341.668 83.8395C341.524 84.0155 341.444 84.2409 341.443 84.4743C341.449 84.6572 341.507 84.8339 341.61 84.9811C341.712 85.1282 341.854 85.239 342.016 85.2988C342.495 85.5304 343 85.694 343.519 85.7852L345.578 86.1974C346.335 86.3444 347.08 86.5483 347.809 86.8075C348.532 87.0577 349.222 87.4069 349.861 87.8463C350.499 88.2781 351.03 88.8661 351.41 89.5612C351.817 90.3715 352.02 91.2806 351.998 92.1994C352.012 93.4058 351.68 94.5879 351.046 95.5879C350.309 96.6833 349.301 97.5395 348.134 98.0612C346.588 98.7352 344.925 99.0527 343.255 98.9929Z" fill="#1D1E1E"/>
<path d="M360.445 93.1438L369.953 93.0512L370 97.8456L354.187 98L354 79.1467L369.462 79L369.509 83.7944L360.352 83.8793L360.445 93.1438ZM359.939 86.0951L368.418 86.0102L368.48 90.5961L360.001 90.681L359.939 86.0951Z" fill="#1D1E1E"/>
<path d="M285.576 115.999C284.824 116.015 284.075 115.888 283.365 115.624C282.713 115.378 282.113 114.999 281.598 114.509C281.1 114.024 280.702 113.433 280.431 112.775C280.144 112.077 279.997 111.323 280.001 110.562C279.987 109.798 280.117 109.04 280.385 108.331C280.647 107.668 281.037 107.069 281.529 106.573C282.034 106.073 282.626 105.683 283.273 105.426C283.977 105.144 284.724 105.001 285.477 105.002C286.364 104.977 287.246 105.152 288.065 105.515C288.803 105.859 289.449 106.39 289.946 107.062L287.85 109.08C287.581 108.719 287.25 108.415 286.874 108.185C286.505 107.971 286.09 107.861 285.669 107.867C285.345 107.871 285.025 107.937 284.724 108.063C284.434 108.177 284.172 108.358 283.956 108.592C283.754 108.829 283.597 109.105 283.495 109.406C283.377 109.755 283.322 110.125 283.334 110.496C283.33 110.868 283.39 111.238 283.511 111.587C283.618 111.89 283.783 112.167 283.994 112.401C284.21 112.632 284.473 112.808 284.762 112.914C285.065 113.04 285.39 113.098 285.715 113.085C286.133 113.09 286.544 112.975 286.905 112.751C287.28 112.515 287.606 112.202 287.865 111.831L290 113.809C289.513 114.484 288.877 115.024 288.149 115.38C287.345 115.783 286.466 115.995 285.576 115.999Z" fill="#1D1E1E"/>
<path d="M290 115L294.254 105H297.553L302 114.892H298.532L295.233 106.577H296.543L293.414 114.954L290 115ZM292.566 113.246L293.399 110.823L297.977 110.777L298.856 113.185L292.566 113.246Z" fill="#1D1E1E"/>
<path d="M303.101 115L303 105.054H305.784L310.947 111.051H309.656L309.602 105H312.899L313 114.938H310.216L305.045 108.934H306.336L306.398 114.985L303.101 115Z" fill="#1D1E1E"/>
<path d="M320.106 114.999C319.285 115.015 318.467 114.888 317.693 114.624C316.976 114.384 316.318 114.005 315.759 113.508C315.211 113.025 314.773 112.437 314.472 111.782C314.161 111.079 314.001 110.323 314.001 109.558C313.984 108.794 314.13 108.034 314.43 107.327C314.717 106.667 315.14 106.071 315.675 105.576C316.228 105.071 316.88 104.678 317.592 104.419C318.362 104.144 319.176 104.004 319.997 104.004C320.972 103.971 321.942 104.146 322.839 104.517C323.646 104.855 324.351 105.384 324.891 106.056L322.604 108.076C322.304 107.717 321.939 107.413 321.527 107.18C321.127 106.963 320.674 106.856 320.215 106.871C319.859 106.867 319.504 106.93 319.173 107.058C318.871 107.178 318.601 107.361 318.382 107.595C318.157 107.831 317.982 108.108 317.869 108.41C317.748 108.761 317.688 109.13 317.693 109.501C317.696 109.871 317.764 110.237 317.895 110.584C318.012 110.888 318.193 111.165 318.424 111.399C318.66 111.633 318.948 111.811 319.265 111.92C319.599 112.037 319.953 112.095 320.308 112.091C320.769 112.09 321.221 111.972 321.62 111.749C322.026 111.512 322.383 111.202 322.671 110.837L325 112.808C324.463 113.52 323.748 114.088 322.923 114.461C322.035 114.834 321.074 115.018 320.106 114.999Z" fill="#1D1E1E"/>
<path d="M329.246 112.442L334 112.396V114.916L326.096 115L326 105.077L333.728 105V107.519L329.15 107.565L329.246 112.442ZM328.995 108.733L333.227 108.687V111.098L328.995 111.144V108.733Z" fill="#1D1E1E"/>
<path d="M335.093 115L335 105H338.393L338.463 112.384L343 112.337V114.954L335.093 115Z" fill="#1D1E1E"/>
<path d="M344.107 115L344 104.042L347.884 104L348 114.966L344.107 115Z" fill="#1D1E1E"/>
<path d="M349.093 115L349 104.059H351.784L356.947 110.656H355.656L355.594 104H358.899L359 114.941H356.216L351.045 108.336H352.336L352.398 114.992L349.093 115Z" fill="#1D1E1E"/>
<path d="M366.081 114.998C365.26 115.016 364.443 114.889 363.668 114.624C362.956 114.384 362.302 114.004 361.747 113.508C361.201 113.027 360.765 112.439 360.469 111.781C360.16 111.079 360.001 110.322 360.001 109.558C359.984 108.793 360.129 108.033 360.427 107.326C360.712 106.664 361.136 106.067 361.672 105.575C362.228 105.07 362.88 104.677 363.593 104.419C364.38 104.142 365.211 104.002 366.048 104.003C367.028 103.974 368.003 104.143 368.912 104.5C369.723 104.818 370.441 105.327 371 105.982L368.695 108.002C368.382 107.652 368.006 107.362 367.584 107.147C367.173 106.955 366.721 106.86 366.265 106.87C365.894 106.866 365.526 106.929 365.179 107.057C364.86 107.168 364.574 107.352 364.344 107.595C364.114 107.827 363.937 108.105 363.826 108.409C363.704 108.763 363.644 109.135 363.651 109.509C363.65 109.874 363.718 110.235 363.851 110.576C363.968 110.879 364.147 111.157 364.378 111.39C364.614 111.622 364.899 111.803 365.213 111.92C365.549 112.044 365.906 112.105 366.265 112.099C366.676 112.092 367.082 112.018 367.467 111.879C367.917 111.707 368.337 111.468 368.712 111.17L370.766 113.614C370.08 114.065 369.324 114.406 368.528 114.624C367.734 114.856 366.91 114.983 366.081 114.998ZM367.601 113.198V109.199H370.758L370.8 113.655L367.601 113.198Z" fill="#1D1E1E"/>
<path d="M312.215 48.1297L310.911 38.4597L310.283 38.2998C309.408 40.4416 308.526 42.5754 307.667 44.6932C307.243 46.0902 306.684 47.4419 305.997 48.7291C305.337 49.728 304.129 51.0467 303.23 50.9987C302.332 50.9508 301.171 49.5602 300.622 48.5053C299.826 46.6878 299.151 44.8189 298.603 42.9111C294.993 47.5942 290.302 44.5734 286 45.6043L286.056 40.5136C287.733 40.5136 289.499 40.5136 291.248 40.5935C292.838 40.6814 293.808 40.1699 294.261 38.5236C294.643 36.9269 295.231 35.3874 296.011 33.9443C296.27 33.5029 296.623 33.1247 297.045 32.8373C297.467 32.5498 297.948 32.3601 298.452 32.282C298.957 32.3739 299.435 32.5808 299.848 32.8869C300.262 33.1931 300.6 33.5903 300.837 34.0482C301.823 36.174 302.427 38.4597 303.874 40.7613C305.231 37.3089 306.594 33.8617 307.961 30.42C308.526 28.9735 308.899 27.3911 309.758 26.1444C310.378 25.2493 311.778 24.1624 312.597 24.3302C313.416 24.4981 314.449 26.0085 314.632 27.0554C315.316 31.0993 315.698 35.199 316.222 39.2748C316.256 39.4954 316.342 39.7045 316.473 39.8841C316.605 40.0637 316.778 40.2084 316.978 40.3058C317.964 35.3349 318.966 30.364 319.952 25.3932C320.747 21.4532 321.359 17.4813 322.337 13.6053C322.599 12.5904 323.975 11.8631 324.842 11C325.684 11.927 327.1 12.7582 327.275 13.7971C328.07 18.744 328.952 23.7389 329 28.7257C329 30.5239 326.821 32.346 325.637 34.1601L324.969 33.9124L324.547 31.7386C323.172 39.123 316.429 42.1519 312.215 48.1297Z" fill="#1D1E1E"/>
<path d="M331.109 41.5061C331.599 45.3029 332.036 48.6457 332.472 51.9963L333.077 52.098C333.59 49.5773 334.119 47.0643 334.609 44.5357C335.023 42.3438 335.268 40.1127 335.811 37.952C336.098 36.6864 336.661 35.5035 337.458 34.4918C339.58 32.018 341.9 29.7165 344.474 27C346.61 33.5446 348.64 39.7369 350.746 46.2032C351.313 45.6944 351.65 45.53 351.773 45.256C353.266 42.0228 355.801 41.3417 359.102 41.5766C363.314 41.8976 363.33 41.694 362.702 46.1327C362.495 46.2267 362.235 46.4615 362.035 46.4146C357.785 45.4752 355.349 47.7689 353.565 51.2995C353.222 51.9261 352.819 52.5162 352.362 53.0609C350.593 55.2842 348.594 55.0259 347.667 52.2781C346.082 47.6436 344.65 42.9544 343.133 38.2886C342.758 37.1222 342.314 35.9792 341.739 34.3744C341.398 34.8727 341.118 35.4116 340.905 35.9792C338.975 46.8869 337.062 57.7893 335.168 68.6865C335.146 69.2314 335.01 69.7652 334.77 70.2522C334.065 71.2229 333.238 72.0919 332.472 73C331.63 72.0449 330.236 71.1916 330.037 70.1035C329.271 65.8057 328.842 61.4374 328.298 57.1004C327.976 54.5327 327.923 51.8867 327.264 49.405C326.23 45.6239 328.382 43.7059 331.109 41.5061Z" fill="#1D1E1E"/>
<path d="M301.632 67L300 65.4103L347.486 15C348.86 15.7074 349.672 16.3274 348.267 17.7979C332.839 34.1244 317.419 50.4615 302.007 66.8092C301.886 66.8815 301.761 66.9452 301.632 67Z" fill="#1D1E1E"/>
<path d="M319 53.2429C318.709 55.2529 318.322 57.2435 317.841 59.2057C317.698 59.6361 317.468 60.0224 317.17 60.334C316.871 60.6455 316.513 60.8736 316.124 61C315.709 60.9701 315.307 60.8313 314.948 60.5948C314.589 60.3582 314.283 60.0302 314.054 59.6366C313.827 59.2135 314.358 58.0225 314.806 57.4192C315.972 55.8521 317.276 54.4652 318.531 53L319 53.2429Z" fill="#1D1E1E"/>
</svg>
