<svg width="387" height="325" viewBox="0 0 387 325" fill="none" xmlns="http://www.w3.org/2000/svg">
<path d="M129.665 146.996C135.565 148.453 140.081 151.112 143.214 154.973C146.419 158.761 148.021 163.35 148.021 168.74C148.021 173.329 146.747 177.627 144.197 181.634C141.72 185.567 137.86 188.773 132.615 191.249C127.37 193.726 120.85 194.964 113.056 194.964C107.666 194.964 102.275 194.382 96.8846 193.216C91.5669 192.051 86.9049 190.339 82.8984 188.081L91.6398 169.068C94.7721 170.889 98.123 172.273 101.692 173.22C105.335 174.167 108.831 174.641 112.182 174.641C115.169 174.641 117.572 174.131 119.394 173.111C121.215 172.091 122.125 170.634 122.125 168.74C122.125 165.244 119.102 163.495 113.056 163.495H102.894V147.652L114.149 136.179H86.832V116.729H143.869V132.573L129.665 146.996Z" fill="#1D1E1E"/>
<path d="M70.5751 152.897C73.8531 154.936 76.3662 157.449 78.1145 160.436C79.9356 163.35 80.8462 166.701 80.8462 170.489C80.8462 175.369 79.3893 179.667 76.4755 183.382C73.6345 187.097 69.5917 189.974 64.3469 192.014C59.1749 193.981 53.2381 194.964 46.5364 194.964C39.8347 194.964 33.8614 193.981 28.6166 192.014C23.4446 189.974 19.4018 187.097 16.488 183.382C13.647 179.667 12.2266 175.369 12.2266 170.489C12.2266 166.701 13.1007 163.35 14.849 160.436C16.6701 157.449 19.2196 154.936 22.4976 152.897C17.4714 148.89 14.9582 143.864 14.9582 137.818C14.9582 133.229 16.2694 129.222 18.8918 125.798C21.5871 122.375 25.3022 119.716 30.0371 117.822C34.8448 115.928 40.3446 114.981 46.5364 114.981C52.7281 114.981 58.1915 115.928 62.9264 117.822C67.7341 119.716 71.4492 122.375 74.0716 125.798C76.7669 129.222 78.1145 133.229 78.1145 137.818C78.1145 143.864 75.6013 148.89 70.5751 152.897ZM46.5364 132.354C44.7152 132.354 43.2219 132.937 42.0564 134.103C40.9637 135.268 40.4174 136.871 40.4174 138.91C40.4174 140.95 40.9637 142.553 42.0564 143.718C43.2219 144.884 44.7152 145.466 46.5364 145.466C48.3575 145.466 49.8144 144.884 50.907 143.718C52.0725 142.553 52.6553 140.95 52.6553 138.91C52.6553 136.871 52.0725 135.268 50.907 134.103C49.8144 132.937 48.3575 132.354 46.5364 132.354ZM46.5364 177.591C49.0131 177.591 51.0163 176.862 52.546 175.406C54.1486 173.949 54.9499 172.018 54.9499 169.614C54.9499 167.211 54.1486 165.28 52.546 163.823C51.0163 162.366 49.0131 161.638 46.5364 161.638C44.0596 161.638 42.02 162.366 40.4174 163.823C38.8877 165.28 38.1228 167.211 38.1228 169.614C38.1228 172.018 38.8877 173.949 40.4174 175.406C42.02 176.862 44.0596 177.591 46.5364 177.591Z" fill="#1D1E1E"/>
<path d="M371.74 116.729V132.573L346.281 193.216H318.09L342.347 136.725H327.596V147.87H306.289V116.729H371.74Z" fill="#1D1E1E"/>
<path d="M291.02 152.897C294.298 154.936 296.812 157.449 298.56 160.436C300.381 163.35 301.291 166.701 301.291 170.489C301.291 175.369 299.835 179.667 296.921 183.382C294.08 187.097 290.037 189.974 284.792 192.014C279.62 193.981 273.683 194.964 266.982 194.964C260.28 194.964 254.307 193.981 249.062 192.014C243.89 189.974 239.847 187.097 236.933 183.382C234.092 179.667 232.672 175.369 232.672 170.489C232.672 166.701 233.546 163.35 235.294 160.436C237.115 157.449 239.665 154.936 242.943 152.897C237.917 148.89 235.404 143.864 235.404 137.818C235.404 133.229 236.715 129.222 239.337 125.798C242.032 122.375 245.747 119.716 250.482 117.822C255.29 115.928 260.79 114.981 266.982 114.981C273.173 114.981 278.637 115.928 283.372 117.822C288.179 119.716 291.895 122.375 294.517 125.798C297.212 129.222 298.56 133.229 298.56 137.818C298.56 143.864 296.047 148.89 291.02 152.897ZM266.982 132.354C265.161 132.354 263.667 132.937 262.502 134.103C261.409 135.268 260.863 136.871 260.863 138.91C260.863 140.95 261.409 142.553 262.502 143.718C263.667 144.884 265.161 145.466 266.982 145.466C268.803 145.466 270.26 144.884 271.352 143.718C272.518 142.553 273.101 140.95 273.101 138.91C273.101 136.871 272.518 135.268 271.352 134.103C270.26 132.937 268.803 132.354 266.982 132.354ZM266.982 177.591C269.458 177.591 271.462 176.862 272.991 175.406C274.594 173.949 275.395 172.018 275.395 169.614C275.395 167.211 274.594 165.28 272.991 163.823C271.462 162.366 269.458 161.638 266.982 161.638C264.505 161.638 262.465 162.366 260.863 163.823C259.333 165.28 258.568 167.211 258.568 169.614C258.568 172.018 259.333 173.949 260.863 175.406C262.465 176.862 264.505 177.591 266.982 177.591Z" fill="#1D1E1E"/>
<path d="M194 102.336H190V324.336H194V102.336Z" fill="#1D1E1E"/>
<path d="M375.878 205.336H232.122C225.98 205.336 221 210.308 221 216.441V263.231C221 269.364 225.98 274.336 232.122 274.336H375.878C382.02 274.336 387 269.364 387 263.231V216.441C387 210.308 382.02 205.336 375.878 205.336Z" fill="#F0254C"/>
<path d="M265.304 217.336H281L271.696 262.336H256L265.304 217.336Z" fill="#F2F2F2"/>
<path d="M287.94 217.336H303L294.06 262.336H279L287.94 217.336Z" fill="#F2F2F2"/>
<path d="M315.117 260.73C311.749 259.193 308.899 256.737 306.908 253.653C304.944 250.514 303.936 246.886 304.004 243.199C303.916 238.32 305.19 233.51 307.688 229.294C310.124 225.242 313.664 221.942 317.908 219.768C322.503 217.427 327.618 216.249 332.792 216.341C336.808 216.266 340.791 217.064 344.457 218.679C347.618 220.053 350.258 222.374 352 225.31L340.925 233.834C340.064 232.199 338.75 230.837 337.134 229.906C335.519 228.976 333.669 228.515 331.799 228.576C329.554 228.532 327.344 229.131 325.438 230.299C323.532 231.467 322.012 233.155 321.063 235.158C319.986 237.364 319.448 239.787 319.492 242.234C319.438 243.415 319.64 244.594 320.084 245.693C320.528 246.791 321.205 247.784 322.069 248.606C322.981 249.439 324.051 250.086 325.218 250.511C326.385 250.936 327.626 251.129 328.87 251.08C332.741 251.08 336.131 249.348 339.039 245.884L348.09 254.408C345.721 257.409 342.615 259.767 339.065 261.262C335.344 262.701 331.371 263.403 327.374 263.328C323.146 263.43 318.95 262.584 315.104 260.853" fill="#F2F2F2"/>
<path d="M154.878 205.336H11.1225C4.9797 205.336 0 210.308 0 216.441V263.231C0 269.364 4.9797 274.336 11.1225 274.336H154.878C161.02 274.336 166 269.364 166 263.231V216.441C166 210.308 161.02 205.336 154.878 205.336Z" fill="#F0254C"/>
<path d="M23.659 262.089C20.6168 261.434 17.6961 260.322 15 258.792L20.9665 247.638C25.6483 250.355 30.9855 251.797 36.4262 251.814C37.9641 251.887 39.5007 251.647 40.939 251.108C41.9882 250.637 42.5191 249.992 42.5191 249.187C42.5191 248.381 41.9882 247.786 40.9137 247.315C39.2714 246.675 37.5809 246.162 35.8574 245.778C33.2812 245.156 30.7479 244.373 28.2729 243.436C26.2498 242.635 24.4449 241.383 23.0016 239.78C21.4379 237.959 20.6341 235.625 20.7516 233.248C20.6864 230.07 21.661 226.956 23.5326 224.361C25.5667 221.674 28.3499 219.621 31.5468 218.449C35.4836 216.978 39.6721 216.262 43.8843 216.342C47.0892 216.322 50.2862 216.655 53.4155 217.333C56.0778 217.903 58.6356 218.868 61 220.197L55.438 231.24C53.6042 230.118 51.6043 229.282 49.5095 228.761C47.3394 228.201 45.1045 227.917 42.8604 227.918C41.1512 227.838 39.4463 228.148 37.8799 228.823C36.7043 229.418 36.1102 230.062 36.1102 230.942C36.1102 231.822 36.6411 232.405 37.7156 232.864C39.4209 233.515 41.1802 234.021 42.9742 234.376C45.5243 234.936 48.0329 235.665 50.4828 236.557C52.5039 237.325 54.3073 238.558 55.7414 240.151C57.2911 241.935 58.091 244.231 57.9788 246.572C58.0328 249.726 57.0439 252.814 55.1599 255.372C53.0982 258.039 50.3056 260.076 47.1077 261.246C43.1781 262.709 38.9979 263.416 34.7955 263.329C31.0249 263.36 27.2643 262.944 23.5958 262.089" fill="#F2F2F2"/>
<path d="M75.2162 229.101H62L64.3871 217.336H106L103.613 229.101H90.4092L83.7824 262.336H68.577L75.2162 229.101Z" fill="#F2F2F2"/>
<path d="M113.878 260.73C110.556 259.196 107.755 256.716 105.823 253.597C103.89 250.479 102.911 246.859 103.006 243.187C102.922 238.312 104.17 233.506 106.614 229.294C109 225.242 112.467 221.942 116.623 219.768C121.123 217.427 126.133 216.249 131.2 216.341C135.13 216.264 139.027 217.063 142.613 218.679C145.711 220.049 148.297 222.371 150 225.31L139.153 233.834C138.313 232.199 137.029 230.837 135.448 229.906C133.868 228.975 132.058 228.514 130.227 228.576C128.019 228.54 125.847 229.146 123.973 230.321C122.124 231.497 120.643 233.174 119.701 235.158C118.65 237.365 118.128 239.788 118.174 242.234C118.121 243.416 118.319 244.594 118.754 245.693C119.189 246.791 119.852 247.784 120.698 248.606C121.591 249.439 122.64 250.086 123.783 250.511C124.926 250.936 126.141 251.129 127.359 251.08C131.151 251.08 134.471 249.348 137.319 245.884L146.171 254.408C143.851 257.407 140.815 259.769 137.344 261.274C133.697 262.703 129.807 263.401 125.894 263.328C121.749 263.429 117.636 262.583 113.865 260.853" fill="#F2F2F2"/>
<path d="M80 284.336L75.7037 297.336H72.4339L69.5444 288.552L66.5661 297.336H63.3217L59 284.336H62.1811L65.1213 293.509L68.2136 284.374H71.0525L74.0561 293.584L77.1104 284.374L80 284.336Z" fill="#090A0A"/>
<path d="M81.5709 285.172C81.3889 285.022 81.2439 284.84 81.1456 284.637C81.0472 284.433 80.9976 284.213 81.0001 283.992C80.9985 283.77 81.0485 283.551 81.1468 283.347C81.2451 283.144 81.3896 282.961 81.5709 282.811C81.9659 282.501 82.4737 282.332 82.998 282.336C83.5211 282.325 84.03 282.49 84.425 282.798C84.609 282.938 84.7558 283.113 84.8546 283.311C84.9533 283.509 85.0016 283.724 84.9958 283.94C85.0141 284.179 84.9723 284.418 84.8734 284.641C84.7746 284.863 84.6213 285.062 84.425 285.223C84.0366 285.545 83.5256 285.719 82.998 285.711C82.463 285.703 81.952 285.51 81.5709 285.172ZM81.3997 287.071H84.6961V297.336H81.3997V287.071Z" fill="#090A0A"/>
<path d="M94 296.67C93.6641 296.904 93.2875 297.073 92.8893 297.17C92.456 297.272 92.0123 297.325 91.5669 297.328C90.511 297.395 89.4696 297.056 88.6579 296.381C88.2983 296.012 88.0207 295.572 87.843 295.089C87.6653 294.607 87.5915 294.093 87.6264 293.58V289.214H86V286.887H87.6264V284.336H90.681V286.887H93.3256V289.214H90.681V293.488C90.66 293.857 90.7832 294.22 91.0248 294.501C91.1497 294.627 91.3006 294.726 91.4671 294.789C91.6337 294.853 91.812 294.88 91.9901 294.869C92.4337 294.884 92.8687 294.744 93.2198 294.474L94 296.67Z" fill="#090A0A"/>
<path d="M103.871 288.185C104.269 288.636 104.573 289.167 104.765 289.745C104.957 290.323 105.033 290.936 104.987 291.545V297.336H102.153V291.99C102.199 291.349 102.02 290.712 101.65 290.196C101.461 289.992 101.231 289.833 100.977 289.729C100.723 289.626 100.45 289.581 100.178 289.598C99.8627 289.581 99.5479 289.633 99.2539 289.752C98.96 289.87 98.6936 290.052 98.4722 290.285C98.0083 290.855 97.7791 291.591 97.8342 292.334V297.336H95V283.336H97.8342V288.236C98.216 287.834 98.6821 287.529 99.1961 287.345C99.7523 287.126 100.343 287.018 100.938 287.027C101.477 287.007 102.014 287.099 102.517 287.298C103.021 287.497 103.481 287.799 103.871 288.185Z" fill="#090A0A"/>
<path d="M5.69647 318.571C4.88604 318.19 4.19937 317.599 3.71141 316.865C3.24544 316.088 3 315.204 3 314.305C3 313.406 3.24544 312.523 3.71141 311.746C4.19051 310.989 4.878 310.377 5.69647 309.979C6.57757 309.544 7.55451 309.324 8.54297 309.337C9.50042 309.316 10.447 309.537 11.2896 309.979C12.0557 310.378 12.6589 311.018 13 311.794L10.7652 313.004C10.5551 312.606 10.2349 312.271 9.84038 312.038C9.44585 311.805 8.99241 311.683 8.53049 311.685C8.18495 311.677 7.84116 311.736 7.5195 311.858C7.19783 311.981 6.90482 312.165 6.65779 312.399C6.18318 312.947 5.92297 313.639 5.92297 314.354C5.92297 315.069 6.18318 315.761 6.65779 316.308C6.90482 316.543 7.19783 316.727 7.5195 316.849C7.84116 316.972 8.18495 317.031 8.53049 317.022C8.99553 317.032 9.45357 316.911 9.84986 316.675C10.2462 316.439 10.5639 316.098 10.7652 315.691L13 316.901C12.6501 317.665 12.0486 318.295 11.2896 318.692C10.4491 319.139 9.50105 319.36 8.54297 319.334C7.54399 319.31 6.56644 319.048 5.69647 318.571Z" fill="#090A0A"/>
<path d="M23.894 315.134H16.0328C16.1641 315.71 16.5244 316.219 17.0417 316.559C17.6292 316.914 18.3198 317.092 19.0201 317.07C19.5108 317.079 19.9992 317.005 20.4613 316.851C20.9049 316.692 21.3069 316.447 21.6405 316.132L23.252 317.765C22.7021 318.304 22.0303 318.724 21.285 318.994C20.5396 319.263 19.7392 319.376 18.9415 319.323C17.8627 319.346 16.7937 319.129 15.8232 318.69C14.9578 318.293 14.231 317.677 13.7269 316.912C13.2504 316.128 13 315.243 13 314.342C13 313.442 13.2504 312.556 13.7269 311.772C14.202 311.013 14.8965 310.393 15.7315 309.982C16.6051 309.547 17.5834 309.325 18.5746 309.336C19.5377 309.324 20.4887 309.537 21.3391 309.958C22.1598 310.353 22.8383 310.963 23.2913 311.711C23.7749 312.523 24.019 313.439 23.9989 314.366C23.9989 314.366 23.9857 314.659 23.894 315.134ZM16.8058 312.004C16.341 312.389 16.0391 312.916 15.9542 313.49H21.1033C21.0212 312.916 20.7131 312.391 20.2386 312.016C19.7619 311.646 19.156 311.451 18.5353 311.468C17.9263 311.46 17.3333 311.649 16.8582 312.004H16.8058Z" fill="#090A0A"/>
<path d="M26.4267 307.162C26.2921 307.011 26.1847 306.83 26.1113 306.627C26.0379 306.425 26 306.207 26 305.987C26 305.766 26.0379 305.548 26.1113 305.346C26.1847 305.144 26.2921 304.962 26.4267 304.812C26.7205 304.496 27.1034 304.326 27.4979 304.336C27.888 304.33 28.2675 304.489 28.569 304.786C28.7065 304.927 28.8163 305.102 28.8904 305.3C28.9645 305.497 29.0011 305.712 28.9975 305.929C29.0097 306.168 28.9776 306.407 28.9035 306.629C28.8294 306.851 28.7152 307.05 28.569 307.213C28.2566 307.521 27.8648 307.689 27.4604 307.689C27.056 307.689 26.6641 307.521 26.3517 307.213L26.4267 307.162ZM26.2982 309.062H28.7725V319.336H26.2982V309.062Z" fill="#090A0A"/>
<path d="M31 305.336H34V319.336H31V305.336Z" fill="#090A0A"/>
<path d="M37.4267 307.162C37.2921 307.011 37.1847 306.83 37.1113 306.627C37.0379 306.425 37 306.207 37 305.987C37 305.766 37.0379 305.548 37.1113 305.346C37.1847 305.144 37.2921 304.962 37.4267 304.812C37.721 304.497 38.1036 304.327 38.4979 304.336C38.8885 304.326 39.269 304.486 39.569 304.786C39.7065 304.927 39.8163 305.102 39.8904 305.3C39.9645 305.497 40.0011 305.712 39.9975 305.929C40.0097 306.168 39.9776 306.407 39.9035 306.629C39.8294 306.851 39.7152 307.05 39.569 307.213C39.2764 307.531 38.8927 307.701 38.4979 307.688C38.0978 307.683 37.7144 307.495 37.4267 307.162ZM37.2982 309.062H39.7725V319.336H37.2982V309.062Z" fill="#090A0A"/>
<path d="M51.8706 310.47C52.2665 310.908 52.5697 311.422 52.7619 311.981C52.9541 312.54 53.0312 313.132 52.9886 313.721V319.336H50.1505V314.152C50.2049 313.529 50.0204 312.908 49.6345 312.416C49.4485 312.217 49.2209 312.063 48.9681 311.962C48.7154 311.862 48.4437 311.82 48.1725 311.837C47.8553 311.821 47.5384 311.872 47.2421 311.987C46.9459 312.101 46.6769 312.277 46.4524 312.502C45.9969 313.058 45.7725 313.768 45.8258 314.484V319.336H43V309.485H45.7029V310.643C46.0904 310.219 46.5695 309.891 47.1036 309.682C47.6901 309.45 48.3158 309.333 48.9465 309.338C49.4845 309.322 50.0202 309.415 50.5222 309.609C51.0242 309.804 51.4826 310.096 51.8706 310.47Z" fill="#090A0A"/>
<path d="M65.9826 309.446V317.839C66.0426 318.59 65.9471 319.345 65.7024 320.056C65.4576 320.767 65.069 321.418 64.5615 321.967C63.4004 322.943 61.9141 323.428 60.4106 323.322C59.4894 323.322 58.5719 323.203 57.6806 322.967C56.9042 322.772 56.1749 322.418 55.5366 321.929L56.6834 319.827C57.1513 320.21 57.6894 320.494 58.2665 320.663C58.8869 320.866 59.5342 320.973 60.1862 320.979C60.9807 321.046 61.7703 320.802 62.3926 320.296C62.646 320.018 62.84 319.691 62.9623 319.333C63.0846 318.976 63.1325 318.597 63.1031 318.219V317.789C62.7011 318.219 62.212 318.554 61.6696 318.773C61.1272 318.991 60.5445 319.088 59.9618 319.055C59.094 319.066 58.2371 318.857 57.4687 318.447C56.7244 318.055 56.0995 317.464 55.6612 316.738C55.2194 315.97 54.9911 315.095 55.0005 314.206C54.9872 313.316 55.2158 312.44 55.6612 311.674C56.0995 310.948 56.7244 310.357 57.4687 309.965C58.2341 309.545 59.0923 309.332 59.9618 309.344C60.5836 309.303 61.2062 309.413 61.7782 309.664C62.3503 309.915 62.8556 310.3 63.2527 310.788V309.522L65.9826 309.446ZM62.405 315.966C62.6467 315.737 62.8374 315.458 62.9642 315.148C63.0911 314.838 63.1512 314.504 63.1405 314.168C63.1518 313.834 63.092 313.502 62.965 313.194C62.8381 312.886 62.6471 312.609 62.405 312.383C61.8931 311.917 61.2223 311.671 60.5352 311.699C59.8448 311.675 59.1714 311.919 58.6529 312.383C58.4109 312.609 58.2199 312.886 58.0929 313.194C57.966 313.502 57.9061 313.834 57.9175 314.168C57.9068 314.504 57.9669 314.838 58.0937 315.148C58.2206 315.458 58.4112 315.737 58.6529 315.966C59.1714 316.429 59.8448 316.674 60.5352 316.649C61.2223 316.677 61.8931 316.432 62.405 315.966Z" fill="#090A0A"/>
<path d="M80.7954 310.424C81.2131 310.84 81.5364 311.344 81.7426 311.901C81.9487 312.458 82.0327 313.054 81.9886 313.647V319.182H79.4113V317.966C79.094 318.438 78.6564 318.813 78.1455 319.051C77.6347 319.289 77.0699 319.38 76.5119 319.316C75.8601 319.333 75.2124 319.204 74.6148 318.939C74.1292 318.716 73.7154 318.357 73.4216 317.905C73.1369 317.452 72.9915 316.922 73.004 316.384C72.9808 315.975 73.0594 315.566 73.2325 315.196C73.4056 314.826 73.6677 314.507 73.9943 314.268C74.9117 313.678 75.9912 313.405 77.0727 313.489H79.2681C79.2846 313.227 79.2439 312.965 79.149 312.721C79.0541 312.477 78.9074 312.258 78.7193 312.078C78.2502 311.709 77.6633 311.532 77.0727 311.58C76.5662 311.582 76.0632 311.664 75.5812 311.823C75.1483 311.968 74.7442 312.19 74.3881 312.48L73.3977 310.521C73.9631 310.123 74.5933 309.831 75.2591 309.658C75.9891 309.448 76.7438 309.342 77.5022 309.341C78.6922 309.285 79.8621 309.669 80.7954 310.424ZM78.4091 317.102C78.771 316.874 79.0449 316.526 79.1846 316.117V315.131H77.3233C76.1301 315.131 75.617 315.508 75.617 316.263C75.6136 316.428 75.6499 316.593 75.7226 316.741C75.7954 316.889 75.9025 317.017 76.0346 317.114C76.3867 317.352 76.8066 317.463 77.2278 317.43C77.6546 317.431 78.0742 317.318 78.4449 317.102H78.4091Z" fill="#090A0A"/>
<path d="M85.8764 319.087C85.2137 318.941 84.5798 318.689 84 318.34L84.9568 316.307C85.449 316.61 85.9854 316.838 86.5474 316.981C87.1441 317.157 87.7635 317.248 88.3865 317.25C89.6291 317.25 90.2131 316.956 90.2131 316.356C90.2088 316.216 90.1577 316.081 90.0678 315.973C89.978 315.864 89.8544 315.788 89.7161 315.756C89.2173 315.608 88.7056 315.505 88.1877 315.45C87.5116 315.358 86.8431 315.218 86.187 315.033C85.6612 314.88 85.1855 314.592 84.8077 314.201C84.3977 313.729 84.1924 313.118 84.2361 312.498C84.225 311.906 84.4177 311.327 84.7829 310.857C85.191 310.345 85.7383 309.959 86.361 309.743C87.1557 309.453 87.9993 309.316 88.8463 309.338C89.5486 309.342 90.2485 309.42 90.9339 309.571C91.5401 309.686 92.1235 309.897 92.6611 310.196L91.7043 312.204C90.8309 311.724 89.8463 311.475 88.8463 311.482C88.372 311.455 87.8983 311.543 87.4669 311.739C87.3371 311.795 87.2255 311.885 87.1444 312C87.0633 312.114 87.0158 312.248 87.0072 312.388C87.0076 312.533 87.0565 312.674 87.1463 312.789C87.2361 312.904 87.3619 312.987 87.5042 313.025C88.0226 313.187 88.555 313.302 89.0948 313.368C89.7649 313.475 90.4287 313.618 91.083 313.796C91.5903 313.935 92.0526 314.201 92.425 314.568C92.8247 315.031 93.0292 315.627 92.9966 316.234C93.0056 316.82 92.808 317.391 92.4374 317.85C92.0186 318.359 91.4631 318.741 90.8345 318.952C90.0346 319.22 89.1937 319.348 88.3492 319.332C87.5177 319.355 86.6866 319.273 85.8764 319.087Z" fill="#090A0A"/>
<path d="M95.8764 319.042C95.2137 318.896 94.5798 318.645 94 318.298L94.9568 316.275C95.449 316.577 95.9854 316.803 96.5474 316.945C97.1441 317.121 97.7635 317.211 98.3865 317.213C99.6291 317.213 100.213 316.921 100.213 316.324C100.209 316.184 100.158 316.05 100.068 315.942C99.978 315.834 99.8544 315.758 99.7161 315.726C99.2173 315.579 98.7056 315.477 98.1877 315.421C97.5116 315.33 96.8431 315.191 96.187 315.007C95.6612 314.854 95.1855 314.568 94.8077 314.178C94.3977 313.709 94.1924 313.1 94.2361 312.484C94.225 311.894 94.4177 311.318 94.7829 310.85C95.191 310.341 95.7383 309.956 96.361 309.741C97.1557 309.452 97.9993 309.316 98.8463 309.338C99.5486 309.342 100.248 309.419 100.934 309.57C101.54 309.684 102.123 309.894 102.661 310.192L101.704 312.191C100.831 311.713 99.8463 311.465 98.8463 311.472C98.372 311.445 97.8983 311.533 97.4669 311.728C97.3371 311.783 97.2255 311.873 97.1444 311.987C97.0633 312.101 97.0158 312.235 97.0072 312.374C97.0076 312.518 97.0565 312.659 97.1463 312.773C97.2361 312.888 97.3619 312.97 97.5042 313.008C98.0226 313.169 98.555 313.284 99.0948 313.349C99.7649 313.456 100.429 313.598 101.083 313.776C101.596 313.928 102.058 314.21 102.425 314.592C102.825 315.053 103.029 315.646 102.997 316.25C103.006 316.834 102.808 317.403 102.437 317.859C102.016 318.363 101.461 318.742 100.834 318.957C100.035 319.223 99.1937 319.351 98.3492 319.335C97.5155 319.342 96.6844 319.243 95.8764 319.042Z" fill="#090A0A"/>
<path d="M113.916 315.134H106.774C106.889 315.712 107.217 316.222 107.69 316.559C108.224 316.915 108.851 317.094 109.488 317.07C109.934 317.078 110.377 317.004 110.797 316.851C111.199 316.689 111.563 316.445 111.868 316.133L113.321 317.765C112.823 318.304 112.215 318.724 111.54 318.993C110.865 319.263 110.139 319.376 109.416 319.323C108.433 319.344 107.458 319.127 106.572 318.69C105.787 318.296 105.13 317.679 104.679 316.912C104.222 316.133 103.987 315.239 104.001 314.33C103.988 313.431 104.218 312.546 104.667 311.772C105.098 311.016 105.724 310.397 106.476 309.982C107.271 309.548 108.159 309.326 109.059 309.336C109.938 309.324 110.806 309.537 111.583 309.958C112.328 310.353 112.945 310.963 113.356 311.711C113.795 312.523 114.017 313.439 113.999 314.367C113.999 314.367 113.951 314.659 113.916 315.134ZM107.488 312.004C107.058 312.383 106.782 312.913 106.714 313.49H111.38C111.312 312.905 111.026 312.37 110.584 311.994C110.141 311.617 109.574 311.429 109 311.468C108.451 311.463 107.916 311.652 107.488 312.004Z" fill="#090A0A"/>
<path d="M131.874 310.482C132.274 310.923 132.579 311.437 132.77 311.995C132.961 312.553 133.034 313.142 132.985 313.729V319.336H130.068V314.159C130.116 313.543 129.942 312.93 129.576 312.425C129.401 312.23 129.182 312.077 128.937 311.976C128.692 311.876 128.427 311.832 128.161 311.847C127.857 311.835 127.555 311.887 127.273 312C126.992 312.112 126.739 312.282 126.532 312.499C126.099 313.046 125.888 313.729 125.939 314.417V319.336H123.021V314.159C123.021 312.622 122.39 311.847 121.115 311.847C120.814 311.834 120.515 311.886 120.238 311.999C119.961 312.112 119.713 312.282 119.511 312.499C119.068 313.041 118.852 313.726 118.905 314.417V319.336H116V309.498H118.778V310.63C119.158 310.218 119.629 309.894 120.155 309.683C120.72 309.458 121.325 309.345 121.935 309.351C122.604 309.345 123.265 309.488 123.868 309.769C124.438 310.042 124.916 310.469 125.244 310.999C125.65 310.466 126.189 310.043 126.81 309.769C127.456 309.481 128.158 309.334 128.868 309.339C129.423 309.319 129.976 309.41 130.493 309.607C131.01 309.803 131.48 310.101 131.874 310.482Z" fill="#090A0A"/>
<path d="M143.749 309.628C144.444 310.047 145.017 310.673 145.4 311.433C145.794 312.275 146 313.207 146 314.153C146 315.099 145.794 316.031 145.4 316.873C145.017 317.634 144.444 318.259 143.749 318.679C143.042 319.106 142.247 319.328 141.439 319.322C140.901 319.372 140.36 319.284 139.859 319.065C139.358 318.846 138.91 318.502 138.552 318.06V319.221H136V305.336H138.668V310.221C139.017 309.802 139.447 309.473 139.926 309.255C140.404 309.037 140.921 308.936 141.439 308.959C142.249 308.956 143.046 309.187 143.749 309.628ZM142.594 316.179C143.021 315.607 143.254 314.891 143.254 314.153C143.254 313.415 143.021 312.699 142.594 312.127C142.145 311.643 141.539 311.372 140.908 311.372C140.277 311.372 139.671 311.643 139.222 312.127C138.795 312.699 138.562 313.415 138.562 314.153C138.562 314.891 138.795 315.607 139.222 316.179C139.671 316.663 140.277 316.935 140.908 316.935C141.539 316.935 142.145 316.663 142.594 316.179Z" fill="#090A0A"/>
<path d="M148 305.336H151V319.336H148V305.336Z" fill="#090A0A"/>
<path d="M164 309.336L159.268 320.128C158.933 321.105 158.312 321.966 157.481 322.606C156.732 323.106 155.839 323.361 154.931 323.334C154.382 323.331 153.836 323.245 153.314 323.079C152.828 322.955 152.378 322.724 152 322.402L153.104 320.307C153.343 320.513 153.619 320.673 153.919 320.78C154.204 320.889 154.507 320.945 154.813 320.946C155.175 320.968 155.534 320.864 155.825 320.652C156.137 320.387 156.38 320.055 156.535 319.681V319.592L152 309.374H155.128L158.072 316.284L161.03 309.374L164 309.336Z" fill="#090A0A"/>
<path d="M301 284.336L296.918 297.336H293.802L291.048 288.552L288.21 297.336H285.118L281 284.336H284.007L286.833 293.471L289.78 284.336H292.461L295.324 293.546L298.234 284.336H301Z" fill="#090A0A"/>
<path d="M303.428 285.172C303.292 285.022 303.183 284.84 303.109 284.637C303.035 284.433 302.998 284.213 303 283.992C302.999 283.77 303.036 283.551 303.11 283.347C303.184 283.144 303.292 282.961 303.428 282.811C303.724 282.501 304.105 282.332 304.498 282.336C304.891 282.325 305.273 282.49 305.569 282.798C305.707 282.938 305.817 283.113 305.891 283.311C305.965 283.509 306.001 283.724 305.997 283.94C306.011 284.179 305.979 284.418 305.905 284.641C305.831 284.863 305.716 285.062 305.569 285.223C305.277 285.545 304.894 285.719 304.498 285.711C304.097 285.703 303.714 285.51 303.428 285.172ZM303.3 287.071H305.772V297.336H303.3V287.071Z" fill="#090A0A"/>
<path d="M315 296.67C314.666 296.904 314.292 297.073 313.897 297.17C313.466 297.272 313.025 297.325 312.583 297.328C311.534 297.395 310.499 297.056 309.693 296.381C309.336 296.012 309.06 295.572 308.883 295.089C308.707 294.607 308.634 294.093 308.668 293.58V289.214H307V286.887H308.616V284.336H311.65V286.887H314.277V289.214H311.65V293.488C311.629 293.857 311.752 294.22 311.992 294.501C312.116 294.627 312.266 294.726 312.431 294.789C312.597 294.853 312.774 294.88 312.951 294.869C313.391 294.884 313.824 294.744 314.172 294.474L315 296.67Z" fill="#090A0A"/>
<path d="M325.871 288.185C326.269 288.636 326.573 289.167 326.765 289.745C326.957 290.323 327.033 290.936 326.987 291.545V297.336H324.153V291.99C324.199 291.349 324.02 290.712 323.65 290.196C323.461 289.992 323.231 289.833 322.977 289.729C322.723 289.626 322.45 289.581 322.178 289.598C321.863 289.581 321.548 289.633 321.254 289.752C320.96 289.87 320.694 290.052 320.472 290.285C320.008 290.855 319.779 291.591 319.834 292.334V297.336H317V283.336H319.834V288.236C320.216 287.834 320.682 287.529 321.196 287.345C321.752 287.126 322.343 287.018 322.938 287.027C323.477 287.007 324.014 287.099 324.517 287.298C325.021 287.497 325.481 287.799 325.871 288.185Z" fill="#090A0A"/>
<path d="M226.696 318.7C225.878 318.299 225.191 317.682 224.711 316.92C224.245 316.137 224 315.247 224 314.342C224 313.436 224.245 312.546 224.711 311.763C225.191 311.001 225.878 310.385 226.696 309.983C227.578 309.546 228.555 309.324 229.543 309.337C230.5 309.316 231.447 309.539 232.29 309.983C233.056 310.386 233.659 311.031 234 311.812L231.765 313.031C231.555 312.629 231.235 312.293 230.84 312.058C230.446 311.823 229.992 311.7 229.53 311.702C229.185 311.694 228.841 311.753 228.519 311.877C228.198 312 227.905 312.186 227.658 312.422C227.183 312.973 226.923 313.67 226.923 314.39C226.923 315.111 227.183 315.808 227.658 316.359C227.905 316.595 228.198 316.781 228.519 316.904C228.841 317.028 229.185 317.087 229.53 317.079C229.996 317.088 230.454 316.967 230.85 316.729C231.246 316.491 231.564 316.147 231.765 315.737L234 316.957C233.637 317.699 233.037 318.307 232.29 318.688C231.449 319.138 230.501 319.361 229.543 319.334C228.556 319.351 227.579 319.133 226.696 318.7Z" fill="#090A0A"/>
<path d="M244.904 315.134H237.757C237.876 315.71 238.204 316.219 238.674 316.559C239.208 316.914 239.836 317.092 240.473 317.07C240.919 317.079 241.363 317.005 241.783 316.851C242.186 316.692 242.552 316.447 242.855 316.132L244.32 317.765C243.82 318.304 243.209 318.724 242.532 318.994C241.854 319.263 241.127 319.376 240.401 319.323C239.421 319.346 238.449 319.129 237.567 318.69C236.78 318.293 236.119 317.677 235.661 316.912C235.228 316.128 235 315.243 235 314.342C235 313.442 235.228 312.556 235.661 311.772C236.093 311.013 236.724 310.393 237.483 309.982C238.277 309.547 239.167 309.325 240.068 309.336C240.943 309.324 241.808 309.537 242.581 309.958C243.327 310.353 243.944 310.963 244.356 311.711C244.795 312.523 245.017 313.439 244.999 314.366C244.999 314.366 244.939 314.659 244.904 315.134ZM238.519 312.004C238.097 312.389 237.822 312.916 237.745 313.49H242.426C242.352 312.916 242.071 312.391 241.64 312.016C241.207 311.646 240.656 311.451 240.092 311.468C239.522 311.448 238.964 311.638 238.519 312.004Z" fill="#090A0A"/>
<path d="M247.427 307.162C247.292 307.011 247.185 306.83 247.111 306.627C247.038 306.425 247 306.207 247 305.987C247 305.766 247.038 305.548 247.111 305.346C247.185 305.144 247.292 304.962 247.427 304.812C247.72 304.496 248.103 304.326 248.498 304.336C248.888 304.33 249.268 304.489 249.569 304.786C249.707 304.927 249.816 305.102 249.89 305.3C249.964 305.497 250.001 305.712 249.997 305.929C250.01 306.168 249.978 306.407 249.903 306.629C249.829 306.851 249.715 307.05 249.569 307.213C249.257 307.521 248.865 307.689 248.46 307.689C248.056 307.689 247.664 307.521 247.352 307.213L247.427 307.162ZM247.298 309.062H249.773V319.336H247.298V309.062Z" fill="#090A0A"/>
<path d="M253 305.336H256V319.336H253V305.336Z" fill="#090A0A"/>
<path d="M258.427 307.162C258.292 307.011 258.185 306.83 258.111 306.627C258.038 306.425 258 306.207 258 305.987C258 305.766 258.038 305.548 258.111 305.346C258.185 305.144 258.292 304.962 258.427 304.812C258.721 304.497 259.104 304.327 259.498 304.336C259.888 304.326 260.269 304.486 260.569 304.786C260.707 304.927 260.816 305.102 260.89 305.3C260.965 305.497 261.001 305.712 260.997 305.929C261.01 306.168 260.978 306.407 260.903 306.629C260.829 306.851 260.715 307.05 260.569 307.213C260.276 307.531 259.893 307.701 259.498 307.688C259.098 307.683 258.714 307.495 258.427 307.162ZM258.298 309.062H260.773V319.336H258.298V309.062Z" fill="#090A0A"/>
<path d="M272.872 310.471C273.267 310.909 273.57 311.422 273.762 311.981C273.954 312.54 274.031 313.132 273.989 313.721V319.336H271.154V314.152C271.208 313.529 271.024 312.908 270.639 312.416C270.451 312.217 270.222 312.061 269.967 311.961C269.712 311.861 269.439 311.819 269.166 311.837C268.851 311.823 268.537 311.875 268.244 311.99C267.95 312.104 267.683 312.279 267.46 312.502C267.006 313.058 266.781 313.768 266.835 314.485V319.336H264V309.486H266.7V310.643C267.087 310.22 267.565 309.891 268.099 309.683C268.684 309.45 269.309 309.333 269.939 309.338C270.479 309.321 271.016 309.413 271.52 309.607C272.023 309.802 272.483 310.095 272.872 310.471Z" fill="#090A0A"/>
<path d="M286.983 309.446V317.839C287.043 318.59 286.947 319.345 286.702 320.056C286.458 320.767 286.069 321.418 285.562 321.967C284.4 322.943 282.914 323.428 281.411 323.322C280.489 323.322 279.572 323.203 278.681 322.967C277.904 322.772 277.175 322.418 276.537 321.929L277.683 319.827C278.151 320.21 278.689 320.494 279.266 320.663C279.887 320.866 280.534 320.973 281.186 320.979C281.981 321.046 282.77 320.802 283.393 320.296C283.646 320.018 283.84 319.691 283.962 319.333C284.085 318.976 284.133 318.597 284.103 318.219V317.789C283.701 318.219 283.212 318.554 282.67 318.773C282.127 318.991 281.544 319.088 280.962 319.055C280.094 319.066 279.237 318.857 278.469 318.447C277.724 318.055 277.1 317.464 276.661 316.738C276.219 315.97 275.991 315.095 276.001 314.206C275.987 313.316 276.216 312.44 276.661 311.674C277.1 310.948 277.724 310.357 278.469 309.965C279.234 309.545 280.092 309.332 280.962 309.344C281.584 309.303 282.206 309.413 282.778 309.664C283.35 309.915 283.856 310.3 284.253 310.788V309.522L286.983 309.446ZM283.442 315.966C283.684 315.737 283.875 315.458 284.002 315.148C284.128 314.838 284.189 314.504 284.178 314.168C284.189 313.834 284.129 313.502 284.002 313.194C283.875 312.886 283.684 312.609 283.442 312.383C282.93 311.917 282.26 311.671 281.573 311.699C280.882 311.675 280.209 311.919 279.69 312.383C279.448 312.609 279.257 312.886 279.13 313.194C279.003 313.502 278.944 313.834 278.955 314.168C278.946 314.505 279.008 314.839 279.137 315.149C279.266 315.459 279.459 315.738 279.703 315.966C280.221 316.429 280.895 316.674 281.585 316.649C282.268 316.674 282.934 316.429 283.442 315.966Z" fill="#090A0A"/>
<path d="M302.662 310.426C303.126 310.841 303.485 311.345 303.714 311.902C303.943 312.459 304.036 313.055 303.987 313.648V319.182H301.124V317.966C300.771 318.438 300.285 318.813 299.717 319.051C299.15 319.289 298.522 319.38 297.902 319.316C297.178 319.333 296.458 319.205 295.794 318.939C295.255 318.716 294.795 318.358 294.468 317.905C294.152 317.452 293.991 316.923 294.004 316.385C293.979 315.976 294.066 315.567 294.258 315.197C294.451 314.827 294.742 314.508 295.105 314.269C296.124 313.679 297.323 313.406 298.525 313.49H300.965C300.983 313.228 300.938 312.966 300.832 312.722C300.727 312.478 300.564 312.259 300.355 312.08C299.833 311.711 299.181 311.533 298.525 311.581C297.962 311.583 297.403 311.665 296.868 311.824C296.387 311.969 295.938 312.191 295.542 312.481L294.402 310.523C295.03 310.125 295.731 309.833 296.47 309.659C297.281 309.45 298.12 309.343 298.963 309.343C300.298 309.277 301.614 309.662 302.662 310.426ZM300.01 317.102C300.412 316.875 300.717 316.527 300.872 316.117V315.132H298.777C297.518 315.132 296.881 315.509 296.881 316.263C296.877 316.429 296.918 316.593 296.999 316.741C297.079 316.89 297.198 317.018 297.345 317.114C297.737 317.352 298.203 317.464 298.671 317.431C299.154 317.436 299.63 317.322 300.05 317.102H300.01Z" fill="#090A0A"/>
<path d="M306.876 319.042C306.214 318.896 305.58 318.645 305 318.298L305.957 316.275C306.449 316.577 306.985 316.803 307.547 316.945C308.144 317.121 308.763 317.211 309.386 317.213C310.629 317.213 311.213 316.921 311.213 316.324C311.209 316.184 311.158 316.05 311.068 315.942C310.978 315.834 310.854 315.758 310.716 315.726C310.217 315.579 309.706 315.477 309.188 315.421C308.512 315.33 307.843 315.191 307.187 315.007C306.661 314.854 306.186 314.568 305.808 314.178C305.398 313.709 305.192 313.1 305.236 312.484C305.225 311.894 305.418 311.318 305.783 310.85C306.191 310.341 306.738 309.956 307.361 309.741C308.156 309.452 308.999 309.316 309.846 309.338C310.549 309.342 311.248 309.419 311.934 309.57C312.54 309.684 313.123 309.894 313.661 310.192L312.704 312.191C311.831 311.713 310.846 311.465 309.846 311.472C309.372 311.445 308.898 311.533 308.467 311.728C308.337 311.783 308.226 311.873 308.144 311.987C308.063 312.101 308.016 312.235 308.007 312.374C308.008 312.518 308.056 312.659 308.146 312.773C308.236 312.888 308.362 312.97 308.504 313.008C309.023 313.169 309.555 313.284 310.095 313.349C310.765 313.456 311.429 313.598 312.083 313.776C312.596 313.928 313.058 314.21 313.425 314.592C313.825 315.053 314.029 315.646 313.997 316.25C314.006 316.834 313.808 317.403 313.437 317.859C313.016 318.363 312.461 318.742 311.834 318.957C311.035 319.223 310.194 319.351 309.349 319.335C308.516 319.342 307.684 319.243 306.876 319.042Z" fill="#090A0A"/>
<path d="M316.887 319.005C316.22 318.86 315.583 318.609 315 318.262L315.962 316.238C316.457 316.54 316.996 316.766 317.561 316.909C318.161 317.084 318.784 317.175 319.41 317.177C320.66 317.177 321.247 316.884 321.247 316.287C321.243 316.148 321.191 316.014 321.101 315.906C321.011 315.798 320.886 315.722 320.747 315.69C320.246 315.542 319.731 315.44 319.211 315.385C318.531 315.293 317.859 315.155 317.199 314.97C316.67 314.817 316.192 314.531 315.812 314.141C315.4 313.672 315.193 313.063 315.237 312.447C315.224 311.874 315.404 311.313 315.75 310.85C316.16 310.341 316.71 309.956 317.336 309.741C318.135 309.452 318.984 309.316 319.835 309.338C320.541 309.342 321.245 309.419 321.934 309.57C322.544 309.684 323.13 309.894 323.671 310.192L322.709 312.191C321.831 311.713 320.841 311.465 319.835 311.472C319.358 311.445 318.882 311.533 318.448 311.728C318.318 311.783 318.206 311.873 318.124 311.987C318.043 312.101 317.995 312.235 317.986 312.374C317.987 312.518 318.036 312.659 318.126 312.773C318.216 312.888 318.343 312.97 318.486 313.008C319.007 313.169 319.542 313.283 320.085 313.349C320.759 313.456 321.426 313.598 322.084 313.776C322.6 313.928 323.065 314.21 323.434 314.592C323.831 315.055 324.032 315.648 323.996 316.25C324.009 316.833 323.815 317.402 323.446 317.859C323.022 318.363 322.465 318.742 321.834 318.957C321.03 319.223 320.185 319.351 319.335 319.335C318.508 319.327 317.685 319.216 316.887 319.005Z" fill="#090A0A"/>
<path d="M335.933 315.108H328.078C328.204 315.69 328.565 316.203 329.086 316.542C329.672 316.9 330.363 317.08 331.063 317.056C331.553 317.064 332.041 316.989 332.503 316.836C332.945 316.673 333.346 316.427 333.681 316.113L335.279 317.755C334.732 318.298 334.063 318.72 333.32 318.991C332.577 319.263 331.779 319.376 330.984 319.323C329.902 319.345 328.83 319.126 327.855 318.686C326.991 318.31 326.259 317.711 325.747 316.958C325.244 316.175 324.986 315.275 325.001 314.361C324.987 313.456 325.24 312.565 325.734 311.787C326.207 311.027 326.896 310.403 327.724 309.986C328.598 309.549 329.575 309.326 330.565 309.336C331.532 309.324 332.486 309.538 333.341 309.961C334.161 310.359 334.839 310.972 335.292 311.726C335.775 312.542 336.019 313.464 335.999 314.397C335.999 314.397 335.973 314.63 335.933 315.108ZM328.863 311.959C328.39 312.34 328.086 312.873 328.012 313.454H333.145C333.069 312.877 332.765 312.347 332.292 311.97C331.819 311.593 331.212 311.397 330.591 311.42C329.965 311.4 329.352 311.591 328.863 311.959Z" fill="#090A0A"/>
<path d="M352.94 310.482C353.317 310.923 353.604 311.437 353.783 311.995C353.963 312.553 354.032 313.142 353.986 313.729V319.336H351.241V314.159C351.286 313.543 351.122 312.93 350.777 312.425C350.612 312.231 350.406 312.078 350.176 311.978C349.945 311.878 349.696 311.833 349.446 311.847C349.16 311.835 348.875 311.887 348.61 312C348.346 312.112 348.108 312.282 347.913 312.499C347.505 313.046 347.307 313.729 347.354 314.417V319.336H344.608V314.159C344.608 312.622 344.014 311.847 342.814 311.847C342.531 311.834 342.25 311.886 341.989 311.999C341.728 312.112 341.494 312.282 341.304 312.499C340.888 313.041 340.684 313.726 340.734 314.417V319.336H338V309.498H340.615V310.63C340.973 310.218 341.415 309.894 341.91 309.683C342.442 309.458 343.012 309.345 343.586 309.351C344.215 309.345 344.837 309.488 345.405 309.769C345.942 310.042 346.392 310.469 346.7 310.999C347.083 310.466 347.59 310.043 348.174 309.769C348.782 309.481 349.443 309.334 350.111 309.339C350.634 309.319 351.154 309.41 351.641 309.607C352.127 309.803 352.57 310.101 352.94 310.482Z" fill="#090A0A"/>
<path d="M365.524 309.628C366.289 310.047 366.918 310.673 367.34 311.433C367.774 312.275 368 313.207 368 314.153C368 315.099 367.774 316.031 367.34 316.873C366.918 317.634 366.289 318.259 365.524 318.679C364.747 319.106 363.872 319.328 362.983 319.322C362.391 319.372 361.796 319.284 361.245 319.065C360.693 318.846 360.201 318.502 359.807 318.06V319.221H357V305.336H359.934V310.221C360.319 309.802 360.791 309.473 361.318 309.255C361.845 309.037 362.413 308.936 362.983 308.959C363.874 308.956 364.75 309.187 365.524 309.628ZM364.253 316.179C364.723 315.607 364.979 314.891 364.979 314.153C364.979 313.415 364.723 312.699 364.253 312.127C363.759 311.643 363.093 311.372 362.399 311.372C361.705 311.372 361.038 311.643 360.544 312.127C360.075 312.699 359.818 313.415 359.818 314.153C359.818 314.891 360.075 315.607 360.544 316.179C361.038 316.663 361.705 316.935 362.399 316.935C363.093 316.935 363.759 316.663 364.253 316.179Z" fill="#090A0A"/>
<path d="M370 305.336H373V319.336H370V305.336Z" fill="#090A0A"/>
<path d="M385 309.336L380.663 320.128C380.355 321.105 379.786 321.966 379.024 322.606C378.338 323.106 377.519 323.361 376.687 323.334C376.183 323.331 375.683 323.245 375.205 323.079C374.759 322.955 374.347 322.724 374 322.402L375.012 320.307C375.231 320.513 375.484 320.673 375.759 320.78C376.02 320.889 376.298 320.945 376.578 320.946C376.911 320.968 377.24 320.864 377.506 320.652C377.792 320.387 378.015 320.055 378.157 319.681V319.592L374 309.374H376.867L379.566 316.284L382.277 309.374L385 309.336Z" fill="#090A0A"/>
<path d="M360.36 3.09155H377.07L367.721 35.8486H356.606L360.36 3.09155ZM359.403 55.282C357.097 55.282 355.183 54.595 353.661 53.2209C352.189 51.8468 351.453 50.1538 351.453 48.1417C351.453 45.7861 352.287 43.8477 353.956 42.3264C355.624 40.756 357.71 39.9708 360.213 39.9708C362.568 39.9708 364.482 40.6334 365.955 41.9584C367.427 43.2834 368.163 44.9519 368.163 46.9639C368.163 49.2704 367.304 51.2334 365.587 52.8528C363.918 54.4723 361.857 55.282 359.403 55.282Z" fill="#1D1E1E"/>
<path d="M353.718 0L342.823 54.6196H329.573L330.383 50.7182C327.193 53.7608 323.341 55.2821 318.826 55.2821C315.881 55.2821 313.109 54.5706 310.508 53.1474C307.956 51.6752 305.895 49.565 304.324 46.8168C302.754 44.0687 301.969 40.8298 301.969 37.1001C301.969 32.7816 302.926 28.8802 304.84 25.3959C306.803 21.8626 309.453 19.0899 312.79 17.0778C316.127 15.0658 319.758 14.0598 323.684 14.0598C329.377 14.0598 333.425 15.8264 335.83 19.3598L339.731 0H353.718ZM323.684 44.0196C326.481 44.0196 328.763 42.989 330.53 40.9279C332.297 38.8668 333.18 36.1923 333.18 32.9043C333.18 30.5487 332.517 28.6839 331.192 27.3098C329.867 25.9357 328.027 25.2487 325.672 25.2487C322.874 25.2487 320.592 26.2793 318.826 28.3404C317.059 30.4015 316.176 33.1006 316.176 36.4376C316.176 38.7932 316.838 40.658 318.163 42.0321C319.488 43.3571 321.329 44.0196 323.684 44.0196Z" fill="#1D1E1E"/>
<path d="M298.611 31.5793C298.611 33.4932 298.341 35.677 297.802 38.1307H268.504C268.995 42.4493 272.013 44.6085 277.558 44.6085C279.325 44.6085 281.043 44.3386 282.711 43.7988C284.38 43.259 285.876 42.4493 287.201 41.3696L293.017 50.1294C288.355 53.5646 282.687 55.2822 276.013 55.2822C271.792 55.2822 268.063 54.5461 264.824 53.0738C261.634 51.5525 259.156 49.4423 257.389 46.7433C255.671 43.9951 254.812 40.7807 254.812 37.1002C254.812 32.7326 255.819 28.8066 257.831 25.3224C259.892 21.789 262.738 19.0408 266.369 17.0779C270.05 15.0658 274.246 14.0598 278.957 14.0598C282.932 14.0598 286.392 14.7959 289.336 16.2682C292.33 17.6913 294.612 19.7279 296.182 22.3779C297.802 25.0279 298.611 28.095 298.611 31.5793ZM278.295 23.9973C276.037 23.9973 274.148 24.6108 272.626 25.8376C271.105 27.0154 270.001 28.6594 269.314 30.7696H285.729C285.778 28.6594 285.116 27.0154 283.742 25.8376C282.368 24.6108 280.552 23.9973 278.295 23.9973Z" fill="#1D1E1E"/>
<path d="M240.256 39.75C240.158 40.4371 240.109 40.8787 240.109 41.075C240.109 43.3324 241.336 44.4612 243.79 44.4612C245.115 44.4612 246.513 44.0686 247.986 43.2834L249.752 52.9265C247.004 54.4968 243.544 55.282 239.373 55.282C235.251 55.282 231.963 54.2515 229.509 52.1903C227.104 50.1292 225.902 47.2584 225.902 43.5778C225.902 42.1547 226.025 40.9033 226.27 39.8236L228.92 26.6472H223.031L225.166 16.1944H230.981L233.042 5.81519H247.029L244.967 16.1944H254.022L251.961 26.6472H242.906L240.256 39.75Z" fill="#1D1E1E"/>
<path d="M220.656 14.7223L212.706 54.6197H199.456L200.266 50.8655C197.076 53.8099 193.223 55.2822 188.709 55.2822C185.764 55.2822 182.991 54.5706 180.39 53.1474C177.839 51.6752 175.777 49.565 174.207 46.8169C172.637 44.0687 171.852 40.8298 171.852 37.1002C171.852 32.7816 172.808 28.8802 174.722 25.396C176.685 21.8626 179.311 19.0899 182.599 17.0779C185.936 15.0658 189.567 14.0598 193.493 14.0598C199.284 14.0598 203.357 15.8756 205.713 19.5071L206.67 14.7223H220.656ZM193.567 44.0196C196.364 44.0196 198.646 42.9891 200.413 40.928C202.179 38.8668 203.063 36.1923 203.063 32.9043C203.063 30.5488 202.376 28.6839 201.002 27.3099C199.677 25.9358 197.836 25.2487 195.481 25.2487C192.684 25.2487 190.402 26.2793 188.635 28.3404C186.868 30.4015 185.985 33.1006 185.985 36.4377C185.985 38.7932 186.647 40.658 187.972 42.0321C189.347 43.3571 191.211 44.0196 193.567 44.0196Z" fill="#1D1E1E"/>
<path d="M172.421 0L161.526 54.6196H148.276L149.086 50.7182C145.896 53.7608 142.044 55.2821 137.529 55.2821C134.584 55.2821 131.812 54.5706 129.211 53.1474C126.659 51.6752 124.598 49.565 123.027 46.8168C121.457 44.0687 120.672 40.8298 120.672 37.1001C120.672 32.7816 121.629 28.8802 123.543 25.3959C125.506 21.8626 128.156 19.0899 131.493 17.0778C134.83 15.0658 138.461 14.0598 142.387 14.0598C148.08 14.0598 152.128 15.8264 154.533 19.3598L158.434 0H172.421ZM142.387 44.0196C145.184 44.0196 147.466 42.989 149.233 40.9279C151 38.8668 151.883 36.1923 151.883 32.9043C151.883 30.5487 151.221 28.6839 149.896 27.3098C148.571 25.9357 146.73 25.2487 144.375 25.2487C141.578 25.2487 139.296 26.2793 137.529 28.3404C135.762 30.4015 134.879 33.1006 134.879 36.4376C134.879 38.7932 135.541 40.658 136.866 42.0321C138.191 43.3571 140.032 44.0196 142.387 44.0196Z" fill="#1D1E1E"/>
<path d="M99.8963 14.0598C102.841 14.0598 105.589 14.7959 108.141 16.2682C110.742 17.6913 112.827 19.777 114.398 22.5251C115.968 25.2733 116.753 28.4876 116.753 32.1682C116.753 36.5358 115.772 40.4863 113.809 44.0196C111.895 47.5039 109.269 50.2521 105.932 52.2641C102.644 54.2762 99.0375 55.2822 95.1116 55.2822C89.3208 55.2822 85.2476 53.4664 82.8921 49.8349L79.0643 68.9003H65.0781L75.899 14.7223H89.149L88.3393 18.4765C91.5291 15.532 95.3815 14.0598 99.8963 14.0598ZM93.1241 44.0196C95.9213 44.0196 98.2032 42.9891 99.9699 40.928C101.737 38.8668 102.62 36.1923 102.62 32.9043C102.62 30.5488 101.933 28.6839 100.559 27.3099C99.2338 25.9358 97.3935 25.2487 95.0379 25.2487C92.2407 25.2487 89.9588 26.2793 88.1921 28.3404C86.4254 30.4015 85.5421 33.1006 85.5421 36.4377C85.5421 38.7932 86.2046 40.6581 87.5296 42.0321C88.9037 43.3571 90.7685 44.0196 93.1241 44.0196Z" fill="#1D1E1E"/>
<path d="M35.8416 55.6501C31.3758 55.6501 27.5235 54.914 24.2846 53.4417C21.0457 51.9204 18.5674 49.7612 16.8498 46.9639C15.1322 44.1667 14.2734 40.8787 14.2734 37.1C14.2734 35.5296 14.4697 33.7139 14.8623 31.6528L20.604 3.09155H35.1791L29.511 31.4319C29.2165 32.9042 29.0693 34.2537 29.0693 35.4806C29.0693 40.8787 31.9156 43.5778 37.6082 43.5778C40.6999 43.5778 43.1291 42.6454 44.8958 40.7806C46.7115 38.8667 48.0611 35.7505 48.9444 31.4319L54.6125 3.09155H68.9667L63.1514 32.3153C60.0106 47.8718 50.9074 55.6501 35.8416 55.6501Z" fill="#1D1E1E"/>
</svg>
