<svg width="425" height="355" viewBox="0 0 425 355" fill="none" xmlns="http://www.w3.org/2000/svg">
<path d="M213 110.101H209V354.101H213V110.101Z" fill="#1D1E1E"/>
<path d="M412.738 224.101H254.262C247.49 224.101 242 229.505 242 236.172V287.031C242 293.697 247.49 299.101 254.262 299.101H412.738C419.51 299.101 425 293.697 425 287.031V236.172C425 229.505 419.51 224.101 412.738 224.101Z" fill="#BFBFBF"/>
<path d="M291.421 237.101H309L298.579 286.101H281L291.421 237.101Z" fill="#F2F2F2"/>
<path d="M316.057 237.101H333L322.943 286.101H306L316.057 237.101Z" fill="#F2F2F2"/>
<path d="M346.043 285.162C342.394 283.429 339.308 280.66 337.15 277.182C335.022 273.642 333.93 269.551 334.005 265.394C333.909 259.891 335.289 254.468 337.995 249.713C340.634 245.144 344.469 241.422 349.067 238.971C354.045 236.331 359.586 235.003 365.191 235.107C369.542 235.022 373.857 235.922 377.829 237.743C381.253 239.293 384.112 241.91 386 245.221L374.002 254.833C373.069 252.989 371.645 251.453 369.896 250.404C368.146 249.355 366.142 248.835 364.115 248.904C361.683 248.854 359.289 249.529 357.225 250.847C355.16 252.164 353.513 254.068 352.485 256.326C351.318 258.814 350.736 261.546 350.783 264.306C350.724 265.638 350.943 266.967 351.424 268.206C351.905 269.444 352.638 270.564 353.574 271.49C354.562 272.43 355.722 273.16 356.986 273.639C358.251 274.118 359.595 274.336 360.942 274.281C365.136 274.281 368.809 272.327 371.959 268.421L381.765 278.033C379.198 281.417 375.833 284.077 371.987 285.762C367.956 287.385 363.652 288.177 359.321 288.092C354.742 288.207 350.196 287.253 346.03 285.302" fill="#F2F2F2"/>
<path d="M140.838 117.041V203.055H111.839V138.913H97.0938V117.041H140.838Z" fill="#1D1E1E"/>
<path d="M92.2674 117.041V134.858L63.6371 203.055H31.9348L59.2135 139.528H42.6251V152.061H18.6641V117.041H92.2674Z" fill="#1D1E1E"/>
<path d="M385.138 151.078C391.774 152.716 396.853 155.706 400.375 160.048C403.979 164.308 405.782 169.469 405.782 175.531C405.782 180.691 404.348 185.525 401.481 190.03C398.696 194.454 394.354 198.058 388.456 200.843C382.558 203.628 375.226 205.021 366.461 205.021C360.399 205.021 354.337 204.366 348.275 203.055C342.295 201.744 337.052 199.819 332.547 197.28L342.377 175.899C345.9 177.947 349.668 179.504 353.682 180.568C357.778 181.633 361.71 182.166 365.478 182.166C368.837 182.166 371.54 181.592 373.588 180.446C375.636 179.299 376.66 177.66 376.66 175.531C376.66 171.598 373.26 169.632 366.461 169.632H355.033V151.815L367.69 138.913H336.97V117.041H401.112V134.858L385.138 151.078Z" fill="#1D1E1E"/>
<path d="M330.869 117.041V134.858L302.239 203.055H270.536L297.815 139.528H281.227V152.061H257.266V117.041H330.869Z" fill="#1D1E1E"/>
<path d="M169.805 224.101H12.1945C5.45968 224.101 0 229.505 0 236.172V287.031C0 293.697 5.45968 299.101 12.1945 299.101H169.805C176.54 299.101 182 293.697 182 287.031V236.172C182 229.505 176.54 224.101 169.805 224.101Z" fill="#BFBFBF"/>
<path d="M26.4119 286.695C23.1052 285.956 19.9305 284.702 17 282.978L23.4853 270.399C28.5742 273.463 34.3756 275.089 40.2894 275.109C41.961 275.191 43.6312 274.92 45.1946 274.312C46.335 273.781 46.9121 273.054 46.9121 272.146C46.9121 271.237 46.335 270.566 45.1671 270.035C43.3819 269.314 41.5444 268.734 39.6711 268.302C36.8708 267.6 34.1173 266.718 31.427 265.661C29.228 264.758 27.2662 263.346 25.6974 261.537C23.9977 259.484 23.124 256.853 23.2517 254.172C23.1809 250.589 24.2402 247.077 26.2745 244.151C28.4855 241.12 31.5107 238.805 34.9857 237.484C39.2648 235.825 43.8175 235.018 48.396 235.108C51.8795 235.086 55.3546 235.461 58.756 236.226C61.6498 236.868 64.43 237.957 67 239.454L60.9544 251.908C58.9611 250.643 56.7873 249.7 54.5103 249.112C52.1515 248.48 49.7223 248.161 47.283 248.162C45.4252 248.071 43.5721 248.421 41.8695 249.182C40.5916 249.853 39.9459 250.58 39.9459 251.572C39.9459 252.564 40.5229 253.221 41.6909 253.739C43.5444 254.473 45.4568 255.044 47.4067 255.444C50.1786 256.076 52.9054 256.897 55.5683 257.904C57.7651 258.77 59.7253 260.16 61.2841 261.957C62.9686 263.969 63.838 266.557 63.7161 269.197C63.7748 272.754 62.6999 276.235 60.6521 279.12C58.4111 282.128 55.3756 284.425 51.8997 285.745C47.6284 287.394 43.0847 288.192 38.5169 288.093C34.4184 288.129 30.3308 287.659 26.3432 286.695" fill="#F2F2F2"/>
<path d="M82.4176 249.912H68L70.6041 237.101H116L113.396 249.912H98.9918L91.7626 286.101H75.1749L82.4176 249.912Z" fill="#F2F2F2"/>
<path d="M125.035 285.162C121.36 283.432 118.261 280.636 116.123 277.119C113.985 273.603 112.901 269.521 113.007 265.38C112.913 259.882 114.294 254.463 116.998 249.713C119.638 245.144 123.474 241.423 128.072 238.971C133.051 236.331 138.594 235.003 144.2 235.107C148.548 235.02 152.86 235.921 156.827 237.744C160.255 239.288 163.116 241.906 165 245.221L153 254.833C152.07 252.989 150.649 251.453 148.9 250.403C147.152 249.354 145.149 248.834 143.124 248.904C140.681 248.863 138.278 249.546 136.204 250.871C134.159 252.197 132.52 254.088 131.478 256.326C130.315 258.815 129.737 261.547 129.789 264.306C129.73 265.638 129.949 266.967 130.43 268.206C130.912 269.444 131.645 270.564 132.581 271.49C133.569 272.43 134.729 273.16 135.994 273.639C137.258 274.118 138.603 274.336 139.95 274.281C144.146 274.281 147.819 272.327 150.97 268.421L160.764 278.033C158.197 281.415 154.837 284.079 150.997 285.776C146.963 287.388 142.659 288.174 138.329 288.092C133.744 288.207 129.193 287.252 125.021 285.302" fill="#F2F2F2"/>
<path d="M179.522 314.995H181.85L178.079 323.857C177.271 325.875 176.123 326.481 174.617 326.481C173.764 326.481 172.832 326.201 172.289 325.72L173.174 323.997C173.546 324.323 174.058 324.525 174.54 324.525C175.207 324.525 175.58 324.23 175.906 323.485L175.937 323.407L172.32 314.995H174.819L177.163 320.66L179.522 314.995Z" fill="#090A0A"/>
<path d="M168.891 323.345V311.828H171.312V323.345H168.891Z" fill="#090A0A"/>
<path d="M163.108 314.871C165.451 314.871 167.267 316.547 167.267 319.17C167.267 321.793 165.451 323.469 163.108 323.469C161.99 323.469 161.09 323.112 160.485 322.383V323.345H158.172V311.828H160.593V315.879C161.214 315.196 162.068 314.871 163.108 314.871ZM162.689 321.483C163.899 321.483 164.815 320.613 164.815 319.17C164.815 317.726 163.899 316.857 162.689 316.857C161.478 316.857 160.562 317.726 160.562 319.17C160.562 320.613 161.478 321.483 162.689 321.483Z" fill="#090A0A"/>
<path d="M152.593 314.87C154.579 314.87 156.007 316.019 156.007 318.565V323.345H153.586V318.937C153.586 317.587 152.981 316.966 152.003 316.966C150.916 316.966 150.156 317.664 150.156 319.154V323.345H147.734V318.937C147.734 317.587 147.16 316.966 146.151 316.966C145.08 316.966 144.32 317.664 144.32 319.154V323.345H141.898V314.995H144.211V315.957C144.832 315.243 145.763 314.87 146.834 314.87C147.998 314.87 148.992 315.321 149.581 316.236C150.249 315.383 151.335 314.87 152.593 314.87Z" fill="#090A0A"/>
<path d="M140.277 319.201C140.277 319.387 140.246 319.651 140.231 319.853H133.913C134.146 320.893 135.031 321.529 136.304 321.529C137.188 321.529 137.825 321.265 138.399 320.722L139.687 322.119C138.911 323.004 137.747 323.469 136.242 323.469C133.355 323.469 131.477 321.653 131.477 319.17C131.477 316.671 133.386 314.87 135.931 314.87C138.384 314.87 140.277 316.516 140.277 319.201ZM135.947 316.702C134.845 316.702 134.053 317.369 133.882 318.44H137.996C137.825 317.385 137.033 316.702 135.947 316.702Z" fill="#090A0A"/>
<path d="M126.663 323.469C125.251 323.469 123.823 323.081 123.047 322.569L123.854 320.831C124.599 321.312 125.732 321.638 126.756 321.638C127.874 321.638 128.293 321.343 128.293 320.877C128.293 319.511 123.249 320.908 123.249 317.571C123.249 315.988 124.677 314.87 127.113 314.87C128.262 314.87 129.535 315.134 130.326 315.6L129.519 317.323C128.697 316.857 127.874 316.702 127.113 316.702C126.027 316.702 125.561 317.043 125.561 317.478C125.561 318.906 130.606 317.525 130.606 320.815C130.606 322.367 129.162 323.469 126.663 323.469Z" fill="#090A0A"/>
<path d="M118.421 323.469C117.009 323.469 115.581 323.081 114.805 322.569L115.612 320.831C116.357 321.312 117.49 321.638 118.514 321.638C119.632 321.638 120.051 321.343 120.051 320.877C120.051 319.511 115.006 320.908 115.006 317.571C115.006 315.988 116.434 314.87 118.871 314.87C120.02 314.87 121.293 315.134 122.084 315.6L121.277 317.323C120.454 316.857 119.632 316.702 118.871 316.702C117.785 316.702 117.319 317.043 117.319 317.478C117.319 318.906 122.364 317.525 122.364 320.815C122.364 322.367 120.92 323.469 118.421 323.469Z" fill="#090A0A"/>
<path d="M109.404 314.87C111.949 314.87 113.424 316.05 113.424 318.58V323.345H111.157V322.305C110.707 323.066 109.838 323.469 108.612 323.469C106.656 323.469 105.492 322.383 105.492 320.939C105.492 319.465 106.532 318.44 109.078 318.44H111.002C111.002 317.4 110.381 316.795 109.078 316.795C108.193 316.795 107.277 317.09 106.672 317.571L105.803 315.879C106.718 315.227 108.069 314.87 109.404 314.87ZM109.217 321.84C110.024 321.84 110.723 321.467 111.002 320.706V319.853H109.341C108.208 319.853 107.851 320.272 107.851 320.831C107.851 321.436 108.364 321.84 109.217 321.84Z" fill="#090A0A"/>
<path d="M97.0865 314.995H99.3836V321.948C99.3836 325.052 97.7073 326.48 94.6962 326.48C93.113 326.48 91.5764 326.092 90.5986 325.332L91.5609 323.593C92.2749 324.168 93.4389 324.54 94.5099 324.54C96.2173 324.54 96.9623 323.764 96.9623 322.259V321.902C96.3259 322.6 95.4102 322.942 94.3237 322.942C92.011 322.942 90.1484 321.343 90.1484 318.906C90.1484 316.469 92.011 314.87 94.3237 314.87C95.4878 314.87 96.4501 315.259 97.0865 316.066V314.995ZM94.8048 320.955C96.0776 320.955 96.9933 320.132 96.9933 318.906C96.9933 317.68 96.0776 316.857 94.8048 316.857C93.5321 316.857 92.6008 317.68 92.6008 318.906C92.6008 320.132 93.5321 320.955 94.8048 320.955Z" fill="#090A0A"/>
<path d="M85.0208 314.87C86.992 314.87 88.482 316.019 88.482 318.565V323.345H86.0607V318.937C86.0607 317.587 85.4399 316.966 84.3689 316.966C83.2048 316.966 82.3666 317.68 82.3666 319.216V323.345H79.9453V314.995H82.258V315.972C82.9099 315.259 83.8877 314.87 85.0208 314.87Z" fill="#090A0A"/>
<path d="M76.4899 313.831C75.5897 313.831 74.9844 313.241 74.9844 312.48C74.9844 311.72 75.5897 311.13 76.4899 311.13C77.3902 311.13 77.9955 311.689 77.9955 312.434C77.9955 313.241 77.3902 313.831 76.4899 313.831ZM75.2793 323.345V314.995H77.7006V323.345H75.2793Z" fill="#090A0A"/>
<path d="M70.6094 323.345V311.828H73.0307V323.345H70.6094Z" fill="#090A0A"/>
<path d="M67.154 313.831C66.2538 313.831 65.6484 313.241 65.6484 312.48C65.6484 311.72 66.2538 311.13 67.154 311.13C68.0542 311.13 68.6596 311.689 68.6596 312.434C68.6596 313.241 68.0542 313.831 67.154 313.831ZM65.9433 323.345V314.995H68.3647V323.345H65.9433Z" fill="#090A0A"/>
<path d="M64.3318 319.201C64.3318 319.387 64.3008 319.651 64.2853 319.853H57.9681C58.2009 320.893 59.0856 321.529 60.3584 321.529C61.2431 321.529 61.8795 321.265 62.4538 320.722L63.742 322.119C62.966 323.004 61.8019 323.469 60.2963 323.469C57.4093 323.469 55.5312 321.653 55.5312 319.17C55.5312 316.671 57.4404 314.87 59.9859 314.87C62.4382 314.87 64.3318 316.516 64.3318 319.201ZM60.0014 316.702C58.8994 316.702 58.1078 317.369 57.9371 318.44H62.0502C61.8795 317.385 61.0879 316.702 60.0014 316.702Z" fill="#090A0A"/>
<path d="M51.1173 323.469C48.4011 323.469 46.4609 321.684 46.4609 319.17C46.4609 316.655 48.4011 314.87 51.1173 314.87C52.8712 314.87 54.2526 315.631 54.858 316.997L52.9799 318.006C52.5298 317.214 51.8624 316.857 51.1018 316.857C49.8756 316.857 48.9133 317.711 48.9133 319.17C48.9133 320.629 49.8756 321.483 51.1018 321.483C51.8624 321.483 52.5298 321.141 52.9799 320.334L54.858 321.358C54.2526 322.693 52.8712 323.469 51.1173 323.469Z" fill="#090A0A"/>
<path d="M37.0364 314.871C39.0076 314.871 40.4977 316.019 40.4977 318.565V323.345H38.0763V318.937C38.0763 317.587 37.4555 316.966 36.3845 316.966C35.2204 316.966 34.3823 317.68 34.3823 319.217V323.345H31.9609V311.828H34.3823V315.864C35.0342 315.212 35.9654 314.871 37.0364 314.871Z" fill="#090A0A"/>
<path d="M29.9461 321.234L30.598 322.942C30.1013 323.299 29.3718 323.469 28.6268 323.469C26.6556 323.469 25.507 322.46 25.507 320.474V317.044H24.2188V315.181H25.507V313.148H27.9283V315.181H30.0082V317.044H27.9283V320.443C27.9283 321.157 28.3164 321.545 28.9683 321.545C29.3253 321.545 29.6823 321.436 29.9461 321.234Z" fill="#090A0A"/>
<path d="M21.7478 313.831C20.8475 313.831 20.2422 313.241 20.2422 312.48C20.2422 311.72 20.8475 311.13 21.7478 311.13C22.648 311.13 23.2533 311.689 23.2533 312.434C23.2533 313.241 22.648 313.831 21.7478 313.831ZM20.5371 323.345V314.995H22.9584V323.345H20.5371Z" fill="#090A0A"/>
<path d="M16.7516 312.48H19.1574L15.603 323.345H12.9023L10.512 315.988L8.04415 323.345H5.35897L1.78906 312.48H4.39664L6.84901 320.117L9.41003 312.48H11.7382L14.2216 320.179L16.7516 312.48Z" fill="#090A0A"/>
<path d="M421.397 314.995H423.725L419.954 323.857C419.146 325.875 417.998 326.481 416.492 326.481C415.639 326.481 414.707 326.201 414.164 325.72L415.049 323.997C415.421 324.323 415.933 324.525 416.415 324.525C417.082 324.525 417.455 324.23 417.781 323.485L417.812 323.407L414.195 314.995H416.694L419.038 320.66L421.397 314.995Z" fill="#090A0A"/>
<path d="M410.766 323.345V311.828H413.187V323.345H410.766Z" fill="#090A0A"/>
<path d="M404.983 314.871C407.326 314.871 409.142 316.547 409.142 319.17C409.142 321.793 407.326 323.469 404.983 323.469C403.865 323.469 402.965 323.112 402.36 322.383V323.345H400.047V311.828H402.468V315.879C403.089 315.196 403.943 314.871 404.983 314.871ZM404.564 321.483C405.774 321.483 406.69 320.613 406.69 319.17C406.69 317.726 405.774 316.857 404.564 316.857C403.353 316.857 402.437 317.726 402.437 319.17C402.437 320.613 403.353 321.483 404.564 321.483Z" fill="#090A0A"/>
<path d="M394.468 314.87C396.454 314.87 397.882 316.019 397.882 318.565V323.345H395.461V318.937C395.461 317.587 394.856 316.966 393.878 316.966C392.791 316.966 392.031 317.664 392.031 319.154V323.345H389.609V318.937C389.609 317.587 389.035 316.966 388.026 316.966C386.955 316.966 386.195 317.664 386.195 319.154V323.345H383.773V314.995H386.086V315.957C386.707 315.243 387.638 314.87 388.709 314.87C389.873 314.87 390.867 315.321 391.456 316.236C392.124 315.383 393.21 314.87 394.468 314.87Z" fill="#090A0A"/>
<path d="M382.152 319.201C382.152 319.387 382.121 319.651 382.106 319.853H375.788C376.021 320.893 376.906 321.529 378.179 321.529C379.063 321.529 379.7 321.265 380.274 320.722L381.562 322.119C380.786 323.004 379.622 323.469 378.117 323.469C375.23 323.469 373.352 321.653 373.352 319.17C373.352 316.671 375.261 314.87 377.806 314.87C380.259 314.87 382.152 316.516 382.152 319.201ZM377.822 316.702C376.72 316.702 375.928 317.369 375.757 318.44H379.871C379.7 317.385 378.908 316.702 377.822 316.702Z" fill="#090A0A"/>
<path d="M368.538 323.469C367.126 323.469 365.698 323.081 364.922 322.569L365.729 320.831C366.474 321.312 367.607 321.638 368.631 321.638C369.749 321.638 370.168 321.343 370.168 320.877C370.168 319.511 365.124 320.908 365.124 317.571C365.124 315.988 366.552 314.87 368.988 314.87C370.137 314.87 371.41 315.134 372.201 315.6L371.394 317.323C370.572 316.857 369.749 316.702 368.988 316.702C367.902 316.702 367.436 317.043 367.436 317.478C367.436 318.906 372.481 317.525 372.481 320.815C372.481 322.367 371.037 323.469 368.538 323.469Z" fill="#090A0A"/>
<path d="M360.296 323.469C358.884 323.469 357.456 323.081 356.68 322.569L357.487 320.831C358.232 321.312 359.365 321.638 360.389 321.638C361.507 321.638 361.926 321.343 361.926 320.877C361.926 319.511 356.881 320.908 356.881 317.571C356.881 315.988 358.309 314.87 360.746 314.87C361.895 314.87 363.168 315.134 363.959 315.6L363.152 317.323C362.329 316.857 361.507 316.702 360.746 316.702C359.66 316.702 359.194 317.043 359.194 317.478C359.194 318.906 364.239 317.525 364.239 320.815C364.239 322.367 362.795 323.469 360.296 323.469Z" fill="#090A0A"/>
<path d="M351.279 314.87C353.824 314.87 355.299 316.05 355.299 318.58V323.345H353.032V322.305C352.582 323.066 351.713 323.469 350.487 323.469C348.531 323.469 347.367 322.383 347.367 320.939C347.367 319.465 348.407 318.44 350.953 318.44H352.877C352.877 317.4 352.256 316.795 350.953 316.795C350.068 316.795 349.152 317.09 348.547 317.571L347.678 315.879C348.593 315.227 349.944 314.87 351.279 314.87ZM351.092 321.84C351.899 321.84 352.598 321.467 352.877 320.706V319.853H351.216C350.083 319.853 349.726 320.272 349.726 320.831C349.726 321.436 350.239 321.84 351.092 321.84Z" fill="#090A0A"/>
<path d="M338.961 314.995H341.259V321.948C341.259 325.052 339.582 326.48 336.571 326.48C334.988 326.48 333.451 326.092 332.474 325.332L333.436 323.593C334.15 324.168 335.314 324.54 336.385 324.54C338.092 324.54 338.837 323.764 338.837 322.259V321.902C338.201 322.6 337.285 322.942 336.199 322.942C333.886 322.942 332.023 321.343 332.023 318.906C332.023 316.469 333.886 314.87 336.199 314.87C337.363 314.87 338.325 315.259 338.961 316.066V314.995ZM336.68 320.955C337.953 320.955 338.868 320.132 338.868 318.906C338.868 317.68 337.953 316.857 336.68 316.857C335.407 316.857 334.476 317.68 334.476 318.906C334.476 320.132 335.407 320.955 336.68 320.955Z" fill="#090A0A"/>
<path d="M326.896 314.87C328.867 314.87 330.357 316.019 330.357 318.565V323.345H327.936V318.937C327.936 317.587 327.315 316.966 326.244 316.966C325.08 316.966 324.242 317.68 324.242 319.216V323.345H321.82V314.995H324.133V315.972C324.785 315.259 325.763 314.87 326.896 314.87Z" fill="#090A0A"/>
<path d="M318.365 313.831C317.465 313.831 316.859 313.241 316.859 312.48C316.859 311.72 317.465 311.13 318.365 311.13C319.265 311.13 319.871 311.689 319.871 312.434C319.871 313.241 319.265 313.831 318.365 313.831ZM317.154 323.345V314.995H319.576V323.345H317.154Z" fill="#090A0A"/>
<path d="M312.484 323.345V311.828H314.906V323.345H312.484Z" fill="#090A0A"/>
<path d="M309.029 313.831C308.129 313.831 307.523 313.241 307.523 312.48C307.523 311.72 308.129 311.13 309.029 311.13C309.929 311.13 310.535 311.689 310.535 312.434C310.535 313.241 309.929 313.831 309.029 313.831ZM307.818 323.345V314.995H310.24V323.345H307.818Z" fill="#090A0A"/>
<path d="M306.207 319.201C306.207 319.387 306.176 319.651 306.16 319.853H299.843C300.076 320.893 300.961 321.529 302.233 321.529C303.118 321.529 303.754 321.265 304.329 320.722L305.617 322.119C304.841 323.004 303.677 323.469 302.171 323.469C299.284 323.469 297.406 321.653 297.406 319.17C297.406 316.671 299.315 314.87 301.861 314.87C304.313 314.87 306.207 316.516 306.207 319.201ZM301.876 316.702C300.774 316.702 299.983 317.369 299.812 318.44H303.925C303.754 317.385 302.963 316.702 301.876 316.702Z" fill="#090A0A"/>
<path d="M292.992 323.469C290.276 323.469 288.336 321.684 288.336 319.17C288.336 316.655 290.276 314.87 292.992 314.87C294.746 314.87 296.128 315.631 296.733 316.997L294.855 318.006C294.405 317.214 293.737 316.857 292.977 316.857C291.751 316.857 290.788 317.711 290.788 319.17C290.788 320.629 291.751 321.483 292.977 321.483C293.737 321.483 294.405 321.141 294.855 320.334L296.733 321.358C296.128 322.693 294.746 323.469 292.992 323.469Z" fill="#090A0A"/>
<path d="M278.911 314.871C280.883 314.871 282.373 316.019 282.373 318.565V323.345H279.951V318.937C279.951 317.587 279.33 316.966 278.26 316.966C277.095 316.966 276.257 317.68 276.257 319.217V323.345H273.836V311.828H276.257V315.864C276.909 315.212 277.84 314.871 278.911 314.871Z" fill="#090A0A"/>
<path d="M271.821 321.234L272.473 322.942C271.976 323.299 271.247 323.469 270.502 323.469C268.531 323.469 267.382 322.46 267.382 320.474V317.044H266.094V315.181H267.382V313.148H269.803V315.181H271.883V317.044H269.803V320.443C269.803 321.157 270.191 321.545 270.843 321.545C271.2 321.545 271.557 321.436 271.821 321.234Z" fill="#090A0A"/>
<path d="M263.623 313.831C262.723 313.831 262.117 313.241 262.117 312.48C262.117 311.72 262.723 311.13 263.623 311.13C264.523 311.13 265.128 311.689 265.128 312.434C265.128 313.241 264.523 313.831 263.623 313.831ZM262.412 323.345V314.995H264.833V323.345H262.412Z" fill="#090A0A"/>
<path d="M258.627 312.48H261.032L257.478 323.345H254.777L252.387 315.988L249.919 323.345H247.234L243.664 312.48H246.272L248.724 320.117L251.285 312.48H253.613L256.097 320.179L258.627 312.48Z" fill="#090A0A"/>
<path d="M406.204 3.47668H424.995L414.482 40.314H401.982L406.204 3.47668ZM405.128 62.168C402.534 62.168 400.382 61.3954 398.671 59.8501C397.015 58.3049 396.188 56.4009 396.188 54.1383C396.188 51.4893 397.126 49.3094 399.002 47.5986C400.878 45.8326 403.224 44.9497 406.038 44.9497C408.687 44.9497 410.84 45.6947 412.495 47.1847C414.151 48.6748 414.979 50.5511 414.979 52.8138C414.979 55.4076 414.013 57.6151 412.081 59.4362C410.205 61.2574 407.887 62.168 405.128 62.168Z" fill="#1D1E1E"/>
<path d="M398.734 0L386.482 61.423H371.582L372.492 57.0357C368.905 60.4573 364.573 62.1681 359.496 62.1681C356.185 62.1681 353.066 61.3679 350.142 59.7674C347.272 58.1118 344.954 55.7388 343.188 52.6483C341.422 49.5579 340.539 45.9155 340.539 41.7213C340.539 36.8649 341.615 32.4775 343.767 28.5592C345.975 24.5858 348.955 21.4677 352.708 19.205C356.46 16.9424 360.544 15.8111 364.959 15.8111C371.361 15.8111 375.914 17.7978 378.618 21.7712L383.005 0H398.734ZM364.959 49.5027C368.105 49.5027 370.671 48.3437 372.658 46.0259C374.645 43.708 375.638 40.7004 375.638 37.0028C375.638 34.3539 374.893 32.2568 373.403 30.7115C371.913 29.1663 369.843 28.3937 367.194 28.3937C364.049 28.3937 361.482 29.5526 359.496 31.8704C357.509 34.1883 356.516 37.2236 356.516 40.9763C356.516 43.6253 357.261 45.7224 358.751 47.2676C360.241 48.7576 362.31 49.5027 364.959 49.5027Z" fill="#1D1E1E"/>
<path d="M336.754 35.5128C336.754 37.6651 336.451 40.1209 335.844 42.8802H302.897C303.449 47.7367 306.843 50.1649 313.079 50.1649C315.066 50.1649 316.997 49.8614 318.874 49.2543C320.75 48.6472 322.433 47.7367 323.923 46.5226L330.463 56.3734C325.22 60.2365 318.846 62.168 311.341 62.168C306.595 62.168 302.4 61.3402 298.758 59.6846C295.171 57.9738 292.384 55.6008 290.397 52.5655C288.466 49.4751 287.5 45.8603 287.5 41.7213C287.5 36.8097 288.631 32.3947 290.894 28.4764C293.212 24.503 296.413 21.4125 300.497 19.205C304.636 16.9424 309.354 15.811 314.652 15.811C319.122 15.811 323.013 16.6388 326.324 18.2944C329.69 19.8949 332.257 22.1851 334.023 25.1652C335.844 28.1453 336.754 31.5945 336.754 35.5128ZM313.907 26.9864C311.368 26.9864 309.244 27.6762 307.533 29.0559C305.822 30.3804 304.58 32.2291 303.808 34.6022H322.268C322.323 32.2291 321.578 30.3804 320.033 29.0559C318.487 27.6762 316.446 26.9864 313.907 26.9864Z" fill="#1D1E1E"/>
<path d="M271.144 44.7014C271.034 45.474 270.978 45.9707 270.978 46.1915C270.978 48.7301 272.358 49.9994 275.117 49.9994C276.608 49.9994 278.18 49.5579 279.836 48.6749L281.823 59.5191C278.732 61.2851 274.842 62.1681 270.151 62.1681C265.515 62.1681 261.817 61.0092 259.058 58.6913C256.354 56.3735 255.002 53.145 255.002 49.006C255.002 47.4056 255.14 45.9983 255.416 44.7842L258.396 29.9665H251.773L254.174 18.2117H260.714L263.032 6.53967H278.76L276.442 18.2117H286.624L284.306 29.9665H274.124L271.144 44.7014Z" fill="#1D1E1E"/>
<path d="M249.094 16.5561L240.154 61.423H225.254L226.164 57.2012C222.577 60.5124 218.245 62.168 213.168 62.168C209.856 62.168 206.738 61.3678 203.813 59.7674C200.944 58.1118 198.626 55.7388 196.86 52.6483C195.094 49.5578 194.211 45.9155 194.211 41.7213C194.211 36.8648 195.287 32.4775 197.439 28.5592C199.647 24.5858 202.599 21.4677 206.297 19.205C210.05 16.9424 214.133 15.811 218.548 15.811C225.06 15.811 229.641 17.853 232.29 21.9368L233.366 16.5561H249.094ZM218.631 49.5026C221.777 49.5026 224.343 48.3437 226.33 46.0259C228.316 43.708 229.31 40.7003 229.31 37.0028C229.31 34.3538 228.537 32.2567 226.992 30.7115C225.502 29.1663 223.432 28.3936 220.783 28.3936C217.638 28.3936 215.072 29.5526 213.085 31.8704C211.098 34.1883 210.105 37.2236 210.105 40.9763C210.105 43.6252 210.85 45.7223 212.34 47.2676C213.885 48.7576 215.982 49.5026 218.631 49.5026Z" fill="#1D1E1E"/>
<path d="M194.859 0L182.607 61.423H167.707L168.617 57.0357C165.03 60.4573 160.698 62.1681 155.621 62.1681C152.31 62.1681 149.191 61.3679 146.267 59.7674C143.397 58.1118 141.079 55.7388 139.313 52.6483C137.547 49.5579 136.664 45.9155 136.664 41.7213C136.664 36.8649 137.74 32.4775 139.892 28.5592C142.1 24.5858 145.08 21.4677 148.833 19.205C152.585 16.9424 156.669 15.8111 161.084 15.8111C167.486 15.8111 172.039 17.7978 174.743 21.7712L179.13 0H194.859ZM161.084 49.5027C164.23 49.5027 166.796 48.3437 168.783 46.0259C170.77 43.708 171.763 40.7004 171.763 37.0028C171.763 34.3539 171.018 32.2568 169.528 30.7115C168.038 29.1663 165.968 28.3937 163.319 28.3937C160.174 28.3937 157.607 29.5526 155.621 31.8704C153.634 34.1883 152.641 37.2236 152.641 40.9763C152.641 43.6253 153.386 45.7224 154.876 47.2676C156.366 48.7576 158.435 49.5027 161.084 49.5027Z" fill="#1D1E1E"/>
<path d="M113.288 15.811C116.599 15.811 119.69 16.6388 122.559 18.2944C125.484 19.8949 127.83 22.2403 129.596 25.3308C131.362 28.4212 132.245 32.036 132.245 36.175C132.245 41.0866 131.141 45.5292 128.933 49.5026C126.781 53.4209 123.829 56.5114 120.076 58.774C116.378 61.0367 112.322 62.168 107.907 62.168C101.395 62.168 96.8146 60.1261 94.1657 56.0423L89.8611 77.4824H74.1328L86.3015 16.5561H101.202L100.291 20.7779C103.879 17.4666 108.211 15.811 113.288 15.811ZM105.672 49.5026C108.818 49.5026 111.384 48.3437 113.371 46.0259C115.357 43.708 116.351 40.7003 116.351 37.0028C116.351 34.3538 115.578 32.2567 114.033 30.7115C112.543 29.1663 110.473 28.3936 107.824 28.3936C104.679 28.3936 102.113 29.5526 100.126 31.8704C98.1391 34.1883 97.1458 37.2236 97.1458 40.9763C97.1458 43.6252 97.8908 45.7223 99.3808 47.2676C100.926 48.7576 103.023 49.5026 105.672 49.5026Z" fill="#1D1E1E"/>
<path d="M41.2625 62.5819C36.2405 62.5819 31.9083 61.7541 28.2659 60.0985C24.6236 58.3877 21.8367 55.9594 19.9051 52.8138C17.9736 49.6681 17.0078 45.9706 17.0078 41.7212C17.0078 39.9552 17.2286 37.9133 17.6701 35.5955L24.1269 3.47668H40.5174L34.1434 35.3471C33.8122 37.0027 33.6467 38.5204 33.6467 39.9001C33.6467 45.9706 36.8475 49.0059 43.2492 49.0059C46.726 49.0059 49.4577 47.9573 51.4444 45.8602C53.4864 43.7079 55.004 40.2036 55.9974 35.3471L62.3715 3.47668H78.5136L71.974 36.3405C68.442 53.8348 58.2048 62.5819 41.2625 62.5819Z" fill="#1D1E1E"/>
</svg>
