<svg width="386" height="320" viewBox="0 0 386 320" fill="none" xmlns="http://www.w3.org/2000/svg">
<path d="M194 98.4204H190V319.42H194V98.4204Z" fill="#1D1E1E"/>
<path d="M374.945 201.42H232.055C225.95 201.42 221 206.392 221 212.525V259.315C221 265.449 225.95 270.42 232.055 270.42H374.945C381.05 270.42 386 265.449 386 259.315V212.525C386 206.392 381.05 201.42 374.945 201.42Z" fill="#F8B133"/>
<path d="M264.932 213.42H280L271.068 258.42H256L264.932 213.42Z" fill="#F2F2F2"/>
<path d="M286.94 213.42H302L293.06 258.42H278L286.94 213.42Z" fill="#F2F2F2"/>
<path d="M314.117 256.814C310.749 255.278 307.899 252.821 305.908 249.738C303.944 246.598 302.936 242.97 303.004 239.284C302.916 234.404 304.19 229.595 306.688 225.378C309.124 221.326 312.664 218.026 316.908 215.852C321.503 213.511 326.618 212.333 331.792 212.425C335.808 212.35 339.791 213.148 343.457 214.764C346.618 216.138 349.258 218.458 351 221.395L339.925 229.919C339.064 228.283 337.75 226.921 336.134 225.991C334.519 225.06 332.669 224.599 330.799 224.661C328.554 224.617 326.344 225.215 324.438 226.383C322.532 227.552 321.012 229.24 320.063 231.242C318.986 233.449 318.448 235.872 318.492 238.319C318.438 239.5 318.64 240.679 319.084 241.777C319.528 242.876 320.205 243.869 321.069 244.69C321.981 245.523 323.051 246.171 324.218 246.595C325.385 247.02 326.626 247.213 327.87 247.164C331.741 247.164 335.131 245.432 338.039 241.968L347.09 250.492C344.721 253.493 341.615 255.852 338.065 257.346C334.344 258.786 330.371 259.488 326.374 259.412C322.146 259.514 317.95 258.668 314.104 256.938" fill="#F2F2F2"/>
<path d="M153.945 201.42H11.0555C4.94971 201.42 0 206.392 0 212.525V259.315C0 265.449 4.94971 270.42 11.0555 270.42H153.945C160.05 270.42 165 265.449 165 259.315V212.525C165 206.392 160.05 201.42 153.945 201.42Z" fill="#F8B133"/>
<path d="M23.659 258.174C20.6168 257.518 17.6961 256.406 15 254.877L20.9665 243.722C25.6483 246.44 30.9855 247.882 36.4262 247.899C37.9641 247.972 39.5007 247.731 40.939 247.192C41.9882 246.721 42.5191 246.077 42.5191 245.271C42.5191 244.466 41.9882 243.871 40.9137 243.4C39.2714 242.76 37.5809 242.246 35.8574 241.863C33.2812 241.24 30.7479 240.458 28.2729 239.52C26.2498 238.72 24.4449 237.468 23.0016 235.864C21.4379 234.043 20.6341 231.71 20.7516 229.332C20.6864 226.155 21.661 223.04 23.5326 220.445C25.5667 217.758 28.3499 215.705 31.5469 214.533C35.4836 213.062 39.6721 212.347 43.8843 212.426C47.0892 212.407 50.2862 212.739 53.4155 213.418C56.0778 213.987 58.6356 214.953 61 216.281L55.438 227.324C53.6042 226.203 51.6043 225.367 49.5095 224.845C47.3394 224.285 45.1045 224.002 42.8604 224.003C41.1512 223.922 39.4463 224.232 37.8799 224.907C36.7043 225.502 36.1102 226.147 36.1102 227.027C36.1102 227.907 36.6411 228.489 37.7156 228.948C39.4209 229.599 41.1802 230.105 42.9742 230.46C45.5243 231.02 48.033 231.749 50.4828 232.641C52.5039 233.41 54.3073 234.642 55.7414 236.236C57.2911 238.02 58.091 240.315 57.9788 242.656C58.0328 245.811 57.0439 248.898 55.1599 251.456C53.0982 254.123 50.3056 256.161 47.1077 257.331C43.1781 258.794 38.9979 259.501 34.7955 259.413C31.0249 259.445 27.2643 259.029 23.5958 258.174" fill="#F2F2F2"/>
<path d="M75.2162 225.185H62L64.3871 213.42H106L103.613 225.185H90.4092L83.7824 258.42H68.577L75.2162 225.185Z" fill="#F2F2F2"/>
<path d="M113.109 256.814C109.717 255.28 106.856 252.8 104.883 249.682C102.909 246.563 101.909 242.944 102.007 239.272C101.92 234.396 103.194 229.591 105.691 225.378C108.127 221.326 111.668 218.026 115.913 215.852C120.509 213.511 125.625 212.333 130.8 212.425C134.813 212.349 138.794 213.147 142.456 214.764C145.62 216.134 148.261 218.455 150 221.395L138.923 229.919C138.065 228.283 136.753 226.921 135.139 225.99C133.525 225.06 131.676 224.599 129.807 224.661C127.551 224.625 125.333 225.23 123.419 226.405C121.531 227.581 120.019 229.258 119.056 231.242C117.983 233.449 117.449 235.873 117.497 238.319C117.443 239.5 117.645 240.679 118.09 241.777C118.534 242.876 119.211 243.869 120.075 244.69C120.987 245.523 122.058 246.171 123.225 246.595C124.392 247.02 125.633 247.214 126.877 247.165C130.75 247.165 134.14 245.433 137.049 241.969L146.09 250.492C143.72 253.492 140.619 255.853 137.074 257.359C133.35 258.788 129.378 259.485 125.381 259.412C121.148 259.514 116.948 258.668 113.096 256.938" fill="#F2F2F2"/>
<path d="M80 279.42L75.7037 292.42H72.4339L69.5444 283.637L66.5661 292.42H63.3217L59 279.42H62.1811L65.1213 288.593L68.2136 279.458H71.0525L74.0561 288.668L77.1104 279.458L80 279.42Z" fill="#090A0A"/>
<path d="M81 279.963C81.0066 279.747 81.0647 279.534 81.1708 279.338C81.2769 279.141 81.4287 278.966 81.6169 278.822C81.805 278.679 82.0254 278.57 82.2645 278.502C82.5036 278.435 82.7563 278.41 83.007 278.43C83.2532 278.406 83.5023 278.427 83.7387 278.491C83.9752 278.554 84.1938 278.659 84.3809 278.798C84.5681 278.938 84.7196 279.109 84.8262 279.301C84.9327 279.493 84.9919 279.702 85 279.915C84.9581 280.346 84.7292 280.748 84.3588 281.041C83.9883 281.334 83.5034 281.496 83 281.496C82.4967 281.496 82.0117 281.334 81.6412 281.041C81.2708 280.748 81.0419 280.346 81 279.915V279.963ZM81.3903 282.838H84.6098V292.42H81.3903V282.838Z" fill="#090A0A"/>
<path d="M93 292.76C92.2633 293.221 91.4059 293.45 90.5385 293.417C88.0769 293.417 86.6105 292.102 86.6105 289.668V285.301H85V282.972H86.6105V280.42H89.635V282.972H92.2537V285.301H89.635V289.576C89.6109 289.758 89.6275 289.942 89.6838 290.116C89.7401 290.29 89.8345 290.45 89.9602 290.582C90.0858 290.715 90.2395 290.817 90.4098 290.882C90.5801 290.947 90.7628 290.973 90.9444 290.957C91.3817 290.959 91.8083 290.821 92.162 290.563L93 292.76Z" fill="#090A0A"/>
<path d="M105 286.63V292.42H102.162V287.075C102.162 285.433 101.437 284.682 100.184 284.682C98.9312 284.682 97.8378 285.548 97.8378 287.419V292.42H95V278.42H97.8378V283.32C98.2531 282.916 98.7416 282.601 99.2751 282.394C99.8086 282.186 100.376 282.09 100.946 282.111C103.268 282.175 105 283.537 105 286.63Z" fill="#090A0A"/>
<path d="M3.00065 310.371C3.00181 309.687 3.14866 309.01 3.43199 308.384C3.71531 307.758 4.12898 307.195 4.64697 306.732C5.16497 306.268 5.77609 305.914 6.4419 305.691C7.10772 305.468 7.81382 305.381 8.51582 305.436C9.41835 305.364 10.3226 305.555 11.1127 305.985C11.9028 306.415 12.5427 307.064 12.9503 307.849L10.7269 309.056C10.5178 308.658 10.1992 308.325 9.80667 308.093C9.41413 307.861 8.96298 307.739 8.5034 307.741C7.80886 307.786 7.15804 308.086 6.68264 308.58C6.20725 309.074 5.94279 309.725 5.94279 310.401C5.94279 311.077 6.20725 311.728 6.68264 312.222C7.15804 312.715 7.80886 313.015 8.5034 313.061C8.96748 313.075 9.42645 312.963 9.82824 312.737C10.23 312.511 10.5585 312.18 10.7765 311.782L13 312.989C12.5872 313.77 11.9462 314.415 11.1574 314.845C10.3687 315.274 9.46707 315.467 8.56551 315.401C7.85156 315.462 7.1324 315.377 6.4546 315.151C5.7768 314.924 5.15547 314.562 4.63086 314.088C4.10625 313.614 3.69006 313.038 3.40923 312.398C3.1284 311.757 2.98921 311.067 3.00065 310.371Z" fill="#090A0A"/>
<path d="M23.9114 311.218H16.7648C16.9134 311.821 17.27 312.35 17.769 312.706C18.2679 313.062 18.8757 313.221 19.4805 313.155C19.9182 313.174 20.3549 313.101 20.7644 312.942C21.1738 312.783 21.5475 312.54 21.8627 312.229L23.3278 313.85C22.8254 314.387 22.2142 314.804 21.5373 315.074C20.8603 315.343 20.1339 315.458 19.409 315.41C16.1335 315.41 14.0014 313.302 14.0014 310.414C13.9853 309.738 14.1066 309.066 14.3579 308.441C14.6091 307.816 14.9846 307.251 15.4607 306.783C15.9368 306.314 16.5029 305.952 17.1232 305.719C17.7434 305.486 18.4042 305.388 19.0636 305.43C19.7181 305.395 20.3725 305.501 20.9846 305.741C21.5966 305.98 22.1529 306.349 22.6174 306.822C23.082 307.294 23.4445 307.862 23.6818 308.487C23.919 309.112 24.0256 309.781 23.9948 310.45C24.0067 310.621 23.971 310.974 23.9114 311.218ZM16.7648 309.573H21.4101C21.3008 309.022 21.0086 308.527 20.5831 308.171C20.1577 307.815 19.625 307.621 19.0755 307.621C18.526 307.621 17.9934 307.815 17.568 308.171C17.1425 308.527 16.8503 309.022 16.741 309.573H16.7648Z" fill="#090A0A"/>
<path d="M25 302.086C25.0048 301.854 25.0612 301.626 25.1656 301.415C25.2701 301.205 25.4203 301.016 25.6071 300.861C25.7939 300.705 26.0133 300.587 26.2516 300.513C26.49 300.439 26.7423 300.411 26.993 300.43C27.2399 300.405 27.4898 300.428 27.727 300.496C27.9642 300.563 28.1837 300.675 28.3719 300.825C28.5601 300.974 28.713 301.157 28.821 301.363C28.9291 301.569 28.99 301.793 29 302.022C28.9677 302.485 28.7474 302.92 28.3828 303.24C28.0182 303.561 27.536 303.743 27.0321 303.751C26.5282 303.759 26.0394 303.592 25.6629 303.284C25.2864 302.975 25.0498 302.548 25 302.086ZM25.3903 305.153H28.6098V315.42H25.3903V305.153Z" fill="#090A0A"/>
<path d="M31 300.42H34V315.42H31V300.42Z" fill="#090A0A"/>
<path d="M36 302.086C36.0047 301.853 36.0614 301.624 36.1667 301.412C36.272 301.2 36.4235 301.011 36.6119 300.856C36.8002 300.7 37.0213 300.582 37.2613 300.509C37.5013 300.436 37.7552 300.409 38.007 300.43C38.2532 300.405 38.5023 300.428 38.7387 300.496C38.9752 300.564 39.1938 300.676 39.3809 300.825C39.568 300.975 39.7196 301.158 39.8262 301.364C39.9327 301.57 39.9919 301.794 40 302.022C39.9677 302.485 39.7474 302.92 39.3828 303.24C39.0182 303.561 38.536 303.743 38.0321 303.751C37.5282 303.759 37.0394 303.592 36.6629 303.284C36.2864 302.975 36.0498 302.548 36 302.086ZM36.3902 305.153H39.6097V315.42H36.3902V305.153Z" fill="#090A0A"/>
<path d="M52 309.766V315.42H49.1587V310.2C49.1587 308.613 48.433 307.869 47.1784 307.869C45.9237 307.869 44.829 308.712 44.829 310.535V315.42H42V305.501H44.706V306.666C45.1322 306.244 45.6411 305.915 46.2001 305.702C46.7592 305.488 47.3563 305.395 47.9533 305.427C50.2534 305.402 52 306.753 52 309.766Z" fill="#090A0A"/>
<path d="M65 305.544V313.329C65 316.852 63.0172 318.414 59.4604 318.414C57.7414 318.482 56.0441 318.03 54.6149 317.122L55.755 315.173C56.766 315.871 57.9861 316.246 59.2374 316.241C61.2574 316.241 62.1373 315.372 62.1373 313.681V313.282C61.7356 313.678 61.249 313.988 60.7103 314.19C60.1715 314.393 59.5932 314.484 59.0143 314.456C58.3681 314.488 57.722 314.394 57.1151 314.181C56.5083 313.968 55.9536 313.641 55.4845 313.219C55.0155 312.796 54.642 312.288 54.3868 311.725C54.1316 311.161 54 310.554 54 309.941C54 309.328 54.1316 308.722 54.3868 308.158C54.642 307.595 55.0155 307.087 55.4845 306.664C55.9536 306.242 56.5083 305.914 57.1151 305.702C57.722 305.489 58.3681 305.395 59.0143 305.426C59.6307 305.394 60.2468 305.496 60.8143 305.726C61.3819 305.957 61.8856 306.308 62.286 306.753V305.579L65 305.544ZM62.1744 309.924C62.129 309.301 61.8357 308.717 61.3538 308.291C60.8719 307.865 60.2373 307.628 59.5782 307.628C58.919 307.628 58.2844 307.865 57.8025 308.291C57.3206 308.717 57.0273 309.301 56.9819 309.924C57.0273 310.547 57.3206 311.13 57.8025 311.557C58.2844 311.983 58.919 312.22 59.5782 312.22C60.2373 312.22 60.8719 311.983 61.3538 311.557C61.8357 311.13 62.129 310.547 62.1744 309.924Z" fill="#090A0A"/>
<path d="M82 309.763V315.28H79.4387V314.068C79.1192 314.533 78.6833 314.903 78.1764 315.138C77.6696 315.372 77.1104 315.463 76.5573 315.402C74.3518 315.402 73 314.189 73 312.479C73 310.769 74.1858 309.593 77.0435 309.593H79.2253C79.2253 308.38 78.5257 307.689 77.0435 307.689C76.0674 307.681 75.115 307.996 74.3281 308.586L73.3439 306.634C74.5515 305.825 75.9676 305.402 77.4111 305.421C80.3281 305.482 82 306.84 82 309.763ZM79.2609 312.188V311.206H77.3755C76.0949 311.206 75.6798 311.691 75.6798 312.333C75.6798 312.976 76.2609 313.546 77.2332 313.546C77.6655 313.58 78.0968 313.469 78.4624 313.231C78.828 312.992 79.1082 312.639 79.2609 312.224V312.188Z" fill="#090A0A"/>
<path d="M84 314.382L84.9625 312.355C86.0056 312.964 87.1971 313.289 88.4125 313.295C89.75 313.295 90.25 312.953 90.25 312.404C90.25 310.817 84.2375 312.404 84.2375 308.559C84.2375 306.716 85.9375 305.422 88.8375 305.422C90.1674 305.397 91.4837 305.686 92.675 306.264L91.7125 308.266C90.8346 307.786 89.8436 307.538 88.8375 307.546C87.5875 307.546 86.9875 307.949 86.9875 308.449C86.9875 310.109 93 308.449 93 312.331C93 314.137 91.2875 315.419 88.3125 315.419C86.807 315.446 85.3205 315.088 84 314.382Z" fill="#090A0A"/>
<path d="M94 314.382L94.8556 312.355C95.7827 312.965 96.8418 313.289 97.9222 313.295C99.1111 313.295 99.5556 312.953 99.5556 312.404C99.5556 310.817 94.2111 312.404 94.2111 308.559C94.2111 306.716 95.7222 305.422 98.3 305.422C99.4821 305.397 100.652 305.686 101.711 306.264L100.856 308.266C100.075 307.786 99.1944 307.538 98.3 307.546C97.1889 307.546 96.6556 307.949 96.6556 308.449C96.6556 310.109 102 308.449 102 312.331C102 314.138 100.478 315.419 97.8222 315.419C96.4877 315.444 95.1703 315.087 94 314.382Z" fill="#090A0A"/>
<path d="M113.89 311.218H106.038C106.198 311.823 106.59 312.353 107.138 312.709C107.687 313.066 108.356 313.224 109.021 313.156C109.502 313.176 109.983 313.104 110.433 312.944C110.883 312.785 111.293 312.542 111.639 312.23L113.248 313.85C112.698 314.386 112.029 314.803 111.288 315.073C110.546 315.342 109.75 315.457 108.956 315.41C105.344 315.41 103.002 313.302 103.002 310.414C102.984 309.738 103.117 309.066 103.393 308.441C103.669 307.816 104.082 307.251 104.605 306.783C105.128 306.314 105.75 305.952 106.431 305.719C107.113 305.486 107.839 305.388 108.563 305.43C109.284 305.393 110.004 305.498 110.678 305.737C111.352 305.976 111.965 306.344 112.477 306.817C112.988 307.29 113.388 307.858 113.649 308.484C113.911 309.11 114.028 309.78 113.994 310.451C113.955 310.621 113.916 310.975 113.89 311.218ZM105.972 309.573H111.102C110.982 309.022 110.661 308.527 110.194 308.171C109.726 307.815 109.141 307.621 108.537 307.621C107.933 307.621 107.348 307.815 106.881 308.171C106.413 308.527 106.092 309.022 105.972 309.573Z" fill="#090A0A"/>
<path d="M133 309.78V315.42H130.08V310.213C130.08 308.629 129.347 307.887 128.172 307.887C126.996 307.887 125.947 308.716 125.947 310.472V315.42H123.028V310.213C123.028 308.629 122.332 307.887 121.119 307.887C119.906 307.887 118.907 308.716 118.907 310.472V315.42H116V305.525H118.781V306.663C119.185 306.245 119.677 305.919 120.222 305.705C120.768 305.492 121.354 305.396 121.941 305.426C122.587 305.395 123.23 305.526 123.81 305.808C124.39 306.089 124.886 306.511 125.252 307.034C125.69 306.511 126.245 306.094 126.874 305.816C127.503 305.537 128.189 305.403 128.88 305.426C131.281 305.426 133 306.774 133 309.78Z" fill="#090A0A"/>
<path d="M145.99 309.864C146.031 310.592 145.93 311.321 145.692 312.005C145.455 312.689 145.087 313.312 144.611 313.834C144.136 314.357 143.564 314.767 142.933 315.038C142.301 315.309 141.623 315.436 140.943 315.411C140.356 315.454 139.768 315.355 139.222 315.12C138.676 314.886 138.186 314.523 137.789 314.058V315.302H135V300.42H137.915V305.656C138.298 305.209 138.767 304.856 139.29 304.623C139.813 304.389 140.377 304.28 140.943 304.303C141.624 304.277 142.303 304.405 142.936 304.677C143.568 304.949 144.141 305.36 144.616 305.884C145.092 306.408 145.46 307.032 145.696 307.718C145.933 308.403 146.033 309.134 145.99 309.864ZM143.038 309.864C142.987 309.344 142.796 308.852 142.49 308.446C142.183 308.039 141.774 307.737 141.31 307.575C140.847 307.413 140.35 307.399 139.879 307.533C139.408 307.667 138.984 307.945 138.657 308.332C138.33 308.72 138.115 309.2 138.037 309.716C137.959 310.231 138.022 310.76 138.219 311.238C138.415 311.716 138.736 312.123 139.144 312.41C139.551 312.697 140.027 312.851 140.514 312.854C140.869 312.856 141.22 312.777 141.545 312.624C141.87 312.471 142.161 312.246 142.399 311.963C142.637 311.681 142.817 311.348 142.927 310.987C143.037 310.625 143.075 310.242 143.038 309.864Z" fill="#090A0A"/>
<path d="M148 300.42H151V315.42H148V300.42Z" fill="#090A0A"/>
<path d="M163 305.42L158.658 315.443C157.729 317.732 156.402 318.42 154.678 318.42C153.711 318.439 152.766 318.134 152 317.554L153.013 315.609C153.45 315.978 154.005 316.188 154.581 316.202C155.353 316.202 155.787 315.87 156.161 315.016V314.933L152 305.444H154.871L157.572 311.861L160.286 305.444L163 305.42Z" fill="#090A0A"/>
<path d="M301 279.42L296.714 292.42H293.442L290.551 283.637L287.571 292.42H284.324L280 279.42H283.158L286.125 288.556L289.219 279.42H292.034L295.04 288.631L298.096 279.42H301Z" fill="#090A0A"/>
<path d="M302 279.963C302.007 279.747 302.065 279.534 302.171 279.338C302.277 279.141 302.429 278.966 302.617 278.822C302.805 278.679 303.025 278.57 303.265 278.502C303.504 278.435 303.756 278.41 304.007 278.43C304.253 278.406 304.502 278.427 304.739 278.491C304.975 278.554 305.194 278.659 305.381 278.798C305.568 278.938 305.72 279.109 305.826 279.301C305.933 279.493 305.992 279.702 306 279.915C305.958 280.346 305.729 280.748 305.359 281.041C304.988 281.334 304.503 281.496 304 281.496C303.497 281.496 303.012 281.334 302.641 281.041C302.271 280.748 302.042 280.346 302 279.915V279.963ZM302.39 282.838H305.61V292.42H302.39V282.838Z" fill="#090A0A"/>
<path d="M314 292.76C313.261 293.221 312.401 293.45 311.53 293.417C309.061 293.417 307.589 292.102 307.589 289.668V285.301H306V282.972H307.616V280.42H310.65V282.972H313.277V285.301H310.65V289.576C310.626 289.758 310.643 289.942 310.699 290.116C310.756 290.29 310.85 290.45 310.976 290.582C311.103 290.715 311.257 290.817 311.428 290.882C311.598 290.947 311.782 290.973 311.964 290.957C312.403 290.959 312.831 290.821 313.186 290.563L314 292.76Z" fill="#090A0A"/>
<path d="M326 286.63V292.42H323.162V287.075C323.162 285.433 322.437 284.682 321.184 284.682C319.931 284.682 318.838 285.548 318.838 287.419V292.42H316V278.42H318.838V283.32C319.253 282.916 319.742 282.601 320.275 282.394C320.809 282.186 321.376 282.09 321.946 282.111C324.256 282.175 326 283.537 326 286.63Z" fill="#090A0A"/>
<path d="M223 310.391C223.001 309.704 223.164 309.025 223.477 308.396C223.79 307.767 224.248 307.203 224.82 306.737C225.393 306.272 226.069 305.916 226.805 305.692C227.541 305.468 228.321 305.381 229.097 305.436C230.095 305.364 231.095 305.555 231.968 305.987C232.842 306.419 233.549 307.07 234 307.859L231.542 309.07C231.311 308.671 230.959 308.337 230.525 308.103C230.091 307.87 229.592 307.748 229.084 307.75C228.316 307.796 227.596 308.097 227.071 308.593C226.545 309.089 226.253 309.742 226.253 310.421C226.253 311.1 226.545 311.753 227.071 312.249C227.596 312.745 228.316 313.046 229.084 313.092C229.592 313.094 230.091 312.972 230.525 312.738C230.959 312.505 231.311 312.171 231.542 311.771L234 312.983C233.544 313.767 232.835 314.415 231.963 314.846C231.091 315.277 230.094 315.472 229.097 315.405C228.316 315.459 227.53 315.369 226.791 315.141C226.051 314.913 225.373 314.551 224.799 314.08C224.226 313.608 223.77 313.037 223.46 312.402C223.151 311.767 222.994 311.082 223 310.391Z" fill="#090A0A"/>
<path d="M244.903 311.218H237.041C237.205 311.821 237.597 312.35 238.146 312.706C238.695 313.062 239.363 313.221 240.029 313.155C240.51 313.174 240.99 313.101 241.441 312.942C241.891 312.783 242.302 312.54 242.649 312.229L244.261 313.85C243.708 314.387 243.036 314.804 242.291 315.074C241.546 315.343 240.747 315.458 239.95 315.41C236.347 315.41 234.002 313.302 234.002 310.414C233.984 309.738 234.117 309.066 234.394 308.441C234.67 307.816 235.083 307.251 235.607 306.783C236.13 306.314 236.753 305.952 237.435 305.719C238.118 305.486 238.845 305.388 239.57 305.43C240.29 305.395 241.01 305.501 241.683 305.741C242.356 305.98 242.968 306.349 243.479 306.822C243.99 307.294 244.389 307.862 244.65 308.487C244.911 309.112 245.028 309.781 244.994 310.45C244.955 310.621 244.916 310.974 244.903 311.218ZM236.963 309.573H242.099C241.978 309.022 241.657 308.527 241.189 308.171C240.721 307.815 240.135 307.621 239.531 307.621C238.926 307.621 238.34 307.815 237.872 308.171C237.404 308.527 237.083 309.022 236.963 309.573Z" fill="#090A0A"/>
<path d="M246 302.086C246.005 301.854 246.061 301.626 246.166 301.415C246.27 301.205 246.42 301.016 246.607 300.861C246.794 300.705 247.013 300.587 247.252 300.513C247.49 300.439 247.742 300.411 247.993 300.43C248.24 300.405 248.49 300.428 248.727 300.496C248.964 300.563 249.184 300.675 249.372 300.825C249.56 300.974 249.713 301.157 249.821 301.363C249.929 301.569 249.99 301.793 250 302.022C249.968 302.485 249.747 302.92 249.383 303.24C249.018 303.561 248.536 303.743 248.032 303.751C247.528 303.759 247.039 303.592 246.663 303.284C246.286 302.975 246.05 302.548 246 302.086ZM246.39 305.153H249.61V315.42H246.39V305.153Z" fill="#090A0A"/>
<path d="M252 300.42H255V315.42H252V300.42Z" fill="#090A0A"/>
<path d="M257 302.086C257.005 301.853 257.061 301.624 257.167 301.412C257.272 301.2 257.424 301.011 257.612 300.856C257.8 300.7 258.021 300.582 258.261 300.509C258.501 300.436 258.755 300.409 259.007 300.43C259.253 300.405 259.502 300.428 259.739 300.496C259.975 300.564 260.194 300.676 260.381 300.825C260.568 300.975 260.72 301.158 260.826 301.364C260.933 301.57 260.992 301.794 261 302.022C260.968 302.485 260.747 302.92 260.383 303.24C260.018 303.561 259.536 303.743 259.032 303.751C258.528 303.759 258.039 303.592 257.663 303.284C257.286 302.975 257.05 302.548 257 302.086ZM257.39 305.153H260.61V315.42H257.39V305.153Z" fill="#090A0A"/>
<path d="M273 309.766V315.42H270.162V310.2C270.162 308.613 269.437 307.869 268.172 307.869C266.907 307.869 265.838 308.712 265.838 310.535V315.42H263V305.501H265.703V306.666C266.128 306.244 266.637 305.915 267.195 305.702C267.753 305.488 268.35 305.395 268.946 305.427C271.219 305.402 273 306.753 273 309.766Z" fill="#090A0A"/>
<path d="M286 305.544V313.329C286 316.852 284.017 318.414 280.46 318.414C278.741 318.482 277.044 318.03 275.615 317.122L276.755 315.173C277.766 315.871 278.986 316.246 280.237 316.241C282.257 316.241 283.137 315.372 283.137 313.681V313.282C282.736 313.678 282.249 313.988 281.71 314.19C281.172 314.393 280.593 314.484 280.014 314.456C279.368 314.488 278.722 314.394 278.115 314.181C277.508 313.968 276.954 313.641 276.485 313.219C276.016 312.796 275.642 312.288 275.387 311.725C275.132 311.161 275 310.554 275 309.941C275 309.328 275.132 308.722 275.387 308.158C275.642 307.595 276.016 307.087 276.485 306.664C276.954 306.242 277.508 305.914 278.115 305.702C278.722 305.489 279.368 305.395 280.014 305.426C280.631 305.394 281.247 305.496 281.814 305.726C282.382 305.957 282.886 306.308 283.286 306.753V305.579L286 305.544ZM283.174 309.924C283.129 309.301 282.836 308.717 282.354 308.291C281.872 307.865 281.237 307.628 280.578 307.628C279.919 307.628 279.284 307.865 278.803 308.291C278.321 308.717 278.027 309.301 277.982 309.924C278.027 310.547 278.321 311.13 278.803 311.557C279.284 311.983 279.919 312.22 280.578 312.22C281.237 312.22 281.872 311.983 282.354 311.557C282.836 311.13 283.129 310.547 283.174 309.924Z" fill="#090A0A"/>
<path d="M303 309.756V315.28H300.439V314.066C300.119 314.532 299.683 314.902 299.176 315.137C298.67 315.372 298.11 315.464 297.557 315.402C295.352 315.402 294 314.187 294 312.475C294 310.763 295.186 309.586 298.043 309.586H300.225C300.225 308.371 299.526 307.679 298.043 307.679C297.067 307.671 296.115 307.987 295.328 308.578L294.439 306.635C295.646 305.825 297.062 305.402 298.506 305.421C301.328 305.47 303 306.829 303 309.756ZM300.261 312.184V311.201H298.387C297.107 311.201 296.692 311.686 296.692 312.33C296.692 312.973 297.273 313.544 298.245 313.544C298.675 313.575 299.104 313.463 299.467 313.224C299.83 312.986 300.109 312.634 300.261 312.22V312.184Z" fill="#090A0A"/>
<path d="M305 314.382L305.856 312.355C306.783 312.965 307.842 313.289 308.922 313.295C310.111 313.295 310.556 312.953 310.556 312.404C310.556 310.817 305.211 312.404 305.211 308.559C305.211 306.716 306.722 305.422 309.3 305.422C310.482 305.397 311.652 305.686 312.711 306.264L311.856 308.266C311.075 307.786 310.194 307.538 309.3 307.546C308.189 307.546 307.656 307.949 307.656 308.449C307.656 310.109 313 308.449 313 312.331C313 314.138 311.478 315.419 308.822 315.419C307.488 315.444 306.17 315.087 305 314.382Z" fill="#090A0A"/>
<path d="M314 314.382L314.963 312.355C316.006 312.965 317.197 313.289 318.412 313.295C319.75 313.295 320.25 312.953 320.25 312.404C320.25 310.817 314.238 312.404 314.238 308.559C314.238 306.716 315.937 305.422 318.837 305.422C320.167 305.397 321.484 305.686 322.675 306.264L321.713 308.266C320.835 307.786 319.844 307.538 318.837 307.546C317.587 307.546 316.988 307.949 316.988 308.449C316.988 310.109 323 308.449 323 312.331C323 314.138 321.287 315.419 318.3 315.419C316.799 315.444 315.317 315.087 314 314.382Z" fill="#090A0A"/>
<path d="M333.9 311.218H326.762C326.908 311.823 327.263 312.353 327.762 312.709C328.261 313.066 328.869 313.224 329.474 313.156C329.911 313.176 330.348 313.104 330.757 312.944C331.166 312.785 331.539 312.542 331.853 312.23L333.317 313.85C332.817 314.386 332.208 314.803 331.534 315.073C330.86 315.342 330.137 315.457 329.415 315.41C326.131 315.41 324.001 313.302 324.001 310.414C323.985 309.738 324.107 309.066 324.357 308.441C324.608 307.816 324.983 307.251 325.459 306.783C325.934 306.314 326.5 305.952 327.119 305.719C327.739 305.486 328.399 305.388 329.058 305.43C329.712 305.393 330.367 305.498 330.98 305.737C331.593 305.976 332.15 306.344 332.615 306.817C333.08 307.29 333.444 307.858 333.681 308.484C333.919 309.11 334.026 309.78 333.995 310.451C333.959 310.621 333.923 310.975 333.9 311.218ZM326.762 309.573H331.425C331.316 309.022 331.024 308.527 330.599 308.171C330.174 307.815 329.642 307.621 329.093 307.621C328.544 307.621 328.012 307.815 327.588 308.171C327.163 308.527 326.871 309.022 326.762 309.573Z" fill="#090A0A"/>
<path d="M353 309.78V315.42H350.252V310.213C350.252 308.629 349.562 307.887 348.456 307.887C347.349 307.887 346.362 308.716 346.362 310.472V315.42H343.614V310.213C343.614 308.629 342.96 307.887 341.818 307.887C340.676 307.887 339.736 308.716 339.736 310.472V315.42H337V305.525H339.617V306.663C339.998 306.245 340.46 305.919 340.974 305.705C341.487 305.492 342.039 305.396 342.591 305.426C343.199 305.395 343.805 305.526 344.351 305.808C344.896 306.089 345.363 306.511 345.708 307.034C346.12 306.511 346.642 306.094 347.234 305.816C347.827 305.537 348.472 305.403 349.122 305.426C351.382 305.426 353 306.774 353 309.78Z" fill="#090A0A"/>
<path d="M366.99 309.864C367.031 310.592 366.93 311.321 366.692 312.005C366.455 312.689 366.087 313.312 365.611 313.834C365.136 314.357 364.564 314.767 363.933 315.038C363.301 315.309 362.623 315.436 361.943 315.411C361.356 315.454 360.768 315.355 360.222 315.12C359.676 314.886 359.186 314.523 358.789 314.058V315.302H356V300.42H358.915V305.656C359.298 305.209 359.767 304.856 360.29 304.623C360.813 304.389 361.377 304.28 361.943 304.303C362.624 304.277 363.303 304.405 363.936 304.677C364.568 304.949 365.141 305.36 365.616 305.884C366.092 306.408 366.46 307.032 366.696 307.718C366.933 308.403 367.033 309.134 366.99 309.864ZM364.038 309.864C363.987 309.344 363.796 308.852 363.49 308.446C363.183 308.039 362.774 307.737 362.31 307.575C361.847 307.413 361.35 307.399 360.879 307.533C360.408 307.667 359.984 307.945 359.657 308.332C359.33 308.72 359.115 309.2 359.037 309.716C358.959 310.231 359.022 310.76 359.219 311.238C359.415 311.716 359.736 312.123 360.144 312.41C360.551 312.697 361.027 312.851 361.514 312.854C361.869 312.856 362.22 312.777 362.545 312.624C362.87 312.471 363.161 312.246 363.399 311.963C363.637 311.681 363.817 311.348 363.927 310.987C364.037 310.625 364.075 310.242 364.038 309.864Z" fill="#090A0A"/>
<path d="M369 300.42H372V315.42H369V300.42Z" fill="#090A0A"/>
<path d="M384 305.42L379.271 315.443C378.257 317.732 376.808 318.42 374.924 318.42C373.868 318.439 372.837 318.134 372 317.554L373.106 315.609C373.58 315.985 374.188 316.195 374.819 316.202C375.662 316.202 376.136 315.87 376.544 315.016V314.933L372 305.444H375.135L378.086 311.861L381.036 305.444L384 305.42Z" fill="#090A0A"/>
<path d="M156.325 167.839H146.034V181.118H120.693V167.839H80.5234V151.24L113.389 103.656H140.169L110.955 147.588H121.467V135.747H146.034V147.588H156.325V167.839Z" fill="#1D1E1E"/>
<path d="M50.0817 130.989C54.8032 130.989 59.1927 132.022 63.2502 134.088C67.3077 136.153 70.5537 139.067 72.9882 142.83C75.4227 146.592 76.6399 150.908 76.6399 155.777C76.6399 161.162 75.2383 165.921 72.4349 170.052C69.7053 174.183 65.9429 177.355 61.1476 179.568C56.3524 181.782 51.0408 182.888 45.2127 182.888C37.7617 182.888 31.2328 181.45 25.6261 178.573C20.0931 175.695 15.7774 171.417 12.6789 165.736C9.58048 160.056 8.03125 153.084 8.03125 144.821C8.03125 135.969 9.8018 128.296 13.3429 121.804C16.9578 115.312 21.9743 110.37 28.3925 106.976C34.8845 103.583 42.4094 101.886 50.967 101.886C55.6147 101.886 60.0411 102.439 64.2461 103.546C68.4512 104.578 72.0291 106.054 74.98 107.972L65.574 126.231C61.7378 123.501 57.0533 122.136 51.5203 122.136C47.0202 122.136 43.2946 123.28 40.3437 125.567C37.4666 127.78 35.5854 131.026 34.7001 135.305C38.7576 132.428 43.8848 130.989 50.0817 130.989ZM43.4422 164.851C45.8029 164.851 47.721 164.15 49.1965 162.748C50.6719 161.347 51.4096 159.429 51.4096 156.994C51.4096 154.56 50.6719 152.641 49.1965 151.24C47.721 149.764 45.8029 149.027 43.4422 149.027C41.0815 149.027 39.1634 149.764 37.6879 151.24C36.2124 152.641 35.4747 154.56 35.4747 156.994C35.4747 159.429 36.2124 161.347 37.6879 162.748C39.1634 164.15 41.0815 164.851 43.4422 164.851Z" fill="#1D1E1E"/>
<path d="M350.98 130.989C355.702 130.989 360.091 132.022 364.149 134.088C368.206 136.153 371.452 139.067 373.887 142.83C376.321 146.592 377.538 150.908 377.538 155.777C377.538 161.162 376.137 165.921 373.333 170.052C370.604 174.183 366.841 177.355 362.046 179.568C357.251 181.782 351.939 182.888 346.111 182.888C338.66 182.888 332.131 181.45 326.524 178.573C320.992 175.695 316.676 171.417 313.577 165.736C310.479 160.056 308.93 153.084 308.93 144.821C308.93 135.969 310.7 128.296 314.241 121.804C317.856 115.312 322.873 110.37 329.291 106.976C335.783 103.583 343.308 101.886 351.865 101.886C356.513 101.886 360.94 102.439 365.145 103.546C369.35 104.578 372.928 106.054 375.878 107.972L366.472 126.231C362.636 123.501 357.952 122.136 352.419 122.136C347.919 122.136 344.193 123.28 341.242 125.567C338.365 127.78 336.484 131.026 335.599 135.305C339.656 132.428 344.783 130.989 350.98 130.989ZM344.341 164.851C346.701 164.851 348.619 164.15 350.095 162.748C351.57 161.347 352.308 159.429 352.308 156.994C352.308 154.56 351.57 152.641 350.095 151.24C348.619 149.764 346.701 149.027 344.341 149.027C341.98 149.027 340.062 149.764 338.586 151.24C337.111 152.641 336.373 154.56 336.373 156.994C336.373 159.429 337.111 161.347 338.586 162.748C340.062 164.15 341.98 164.851 344.341 164.851Z" fill="#1D1E1E"/>
<path d="M277.816 130.989C282.538 130.989 286.927 132.022 290.985 134.088C295.042 136.153 298.288 139.067 300.723 142.83C303.157 146.592 304.374 150.908 304.374 155.777C304.374 161.162 302.973 165.921 300.169 170.052C297.44 174.183 293.677 177.355 288.882 179.568C284.087 181.782 278.775 182.888 272.947 182.888C265.496 182.888 258.967 181.45 253.36 178.573C247.827 175.695 243.512 171.417 240.413 165.736C237.315 160.056 235.766 153.084 235.766 144.821C235.766 135.969 237.536 128.296 241.077 121.804C244.692 115.312 249.709 110.37 256.127 106.976C262.619 103.583 270.144 101.886 278.701 101.886C283.349 101.886 287.775 102.439 291.98 103.546C296.186 104.578 299.764 106.054 302.714 107.972L293.308 126.231C289.472 123.501 284.788 122.136 279.255 122.136C274.755 122.136 271.029 123.28 268.078 125.567C265.201 127.78 263.32 131.026 262.434 135.305C266.492 132.428 271.619 130.989 277.816 130.989ZM271.177 164.851C273.537 164.851 275.455 164.15 276.931 162.748C278.406 161.347 279.144 159.429 279.144 156.994C279.144 154.56 278.406 152.641 276.931 151.24C275.455 149.764 273.537 149.027 271.177 149.027C268.816 149.027 266.898 149.764 265.422 151.24C263.947 152.641 263.209 154.56 263.209 156.994C263.209 159.429 263.947 161.347 265.422 162.748C266.898 164.15 268.816 164.851 271.177 164.851Z" fill="#1D1E1E"/>
<path d="M365.81 3.13107H382.732L373.264 36.3055H362.008L365.81 3.13107ZM364.84 55.9866C362.505 55.9866 360.566 55.2908 359.026 53.8992C357.535 52.5076 356.789 50.793 356.789 48.7553C356.789 46.3697 357.634 44.4066 359.324 42.8659C361.014 41.2755 363.126 40.4803 365.66 40.4803C368.046 40.4803 369.984 41.1512 371.475 42.4931C372.966 43.835 373.712 45.5248 373.712 47.5625C373.712 49.8984 372.842 51.8863 371.103 53.5264C369.413 55.1665 367.325 55.9866 364.84 55.9866Z" fill="#1D1E1E"/>
<path d="M359.088 0L348.055 55.3156H334.636L335.456 51.3645C332.225 54.4459 328.324 55.9866 323.751 55.9866C320.77 55.9866 317.961 55.2659 315.327 53.8246C312.743 52.3336 310.656 50.1966 309.065 47.4134C307.475 44.6302 306.68 41.35 306.68 37.5729C306.68 33.1993 307.649 29.2482 309.587 25.7195C311.575 22.1412 314.259 19.3331 317.638 17.2954C321.018 15.2578 324.696 14.2389 328.672 14.2389C334.437 14.2389 338.537 16.0281 340.972 19.6065L344.923 0H359.088ZM328.672 44.5805C331.505 44.5805 333.816 43.5368 335.605 41.4494C337.394 39.362 338.289 36.6534 338.289 33.3236C338.289 30.938 337.618 29.0494 336.276 27.6578C334.934 26.2662 333.07 25.5704 330.685 25.5704C327.852 25.5704 325.541 26.6141 323.751 28.7015C321.962 30.7889 321.068 33.5224 321.068 36.9019C321.068 39.2875 321.739 41.1761 323.081 42.5677C324.422 43.9096 326.286 44.5805 328.672 44.5805Z" fill="#1D1E1E"/>
<path d="M303.271 31.9817C303.271 33.9199 302.998 36.1316 302.451 38.6166H272.78C273.277 42.9901 276.334 45.1769 281.95 45.1769C283.739 45.1769 285.478 44.9035 287.168 44.3569C288.858 43.8102 290.374 42.9901 291.716 41.8967L297.605 50.7681C292.884 54.2471 287.143 55.9866 280.384 55.9866C276.11 55.9866 272.333 55.2411 269.053 53.7501C265.822 52.2094 263.312 50.0723 261.523 47.3388C259.784 44.5557 258.914 41.3003 258.914 37.5729C258.914 33.1496 259.933 29.1736 261.971 25.645C264.058 22.0666 266.941 19.2834 270.618 17.2954C274.346 15.2578 278.595 14.2389 283.366 14.2389C287.392 14.2389 290.896 14.9844 293.878 16.4754C296.909 17.9167 299.22 19.9792 300.811 22.663C302.451 25.3468 303.271 28.453 303.271 31.9817ZM282.695 24.3031C280.409 24.3031 278.496 24.9243 276.955 26.1668C275.414 27.3596 274.296 29.0245 273.6 31.1616H290.225C290.274 29.0245 289.604 27.3596 288.212 26.1668C286.82 24.9243 284.981 24.3031 282.695 24.3031Z" fill="#1D1E1E"/>
<path d="M244.179 40.2566C244.08 40.9524 244.03 41.3997 244.03 41.5985C244.03 43.8847 245.272 45.0278 247.757 45.0278C249.099 45.0278 250.516 44.6302 252.007 43.835L253.796 53.601C251.013 55.1914 247.509 55.9866 243.284 55.9866C239.11 55.9866 235.78 54.9429 233.295 52.8555C230.859 50.7681 229.642 47.8607 229.642 44.1332C229.642 42.6919 229.766 41.4246 230.015 40.3312L232.698 26.9869H226.734L228.896 16.4009H234.786L236.873 5.8894H251.037L248.95 16.4009H258.12L256.032 26.9869H246.863L244.179 40.2566Z" fill="#1D1E1E"/>
<path d="M224.325 14.9099L216.273 55.3156H202.854L203.674 51.5136C200.444 54.4956 196.543 55.9866 191.97 55.9866C188.988 55.9866 186.18 55.2659 183.546 53.8246C180.962 52.3336 178.874 50.1966 177.284 47.4134C175.694 44.6302 174.898 41.35 174.898 37.5729C174.898 33.1993 175.868 29.2482 177.806 25.7195C179.794 22.1412 182.453 19.3331 185.783 17.2954C189.162 15.2578 192.84 14.2389 196.816 14.2389C202.68 14.2389 206.806 16.0778 209.191 19.7556L210.16 14.9099H224.325ZM196.89 44.5805C199.723 44.5805 202.034 43.5368 203.824 41.4494C205.613 39.362 206.507 36.6534 206.507 33.3236C206.507 30.938 205.812 29.0494 204.42 27.6578C203.078 26.2662 201.214 25.5704 198.829 25.5704C195.996 25.5704 193.685 26.6141 191.896 28.7015C190.106 30.7889 189.212 33.5224 189.212 36.9019C189.212 39.2875 189.883 41.1761 191.225 42.5677C192.616 43.9096 194.505 44.5805 196.89 44.5805Z" fill="#1D1E1E"/>
<path d="M175.478 0L164.445 55.3156H151.026L151.846 51.3645C148.616 54.4459 144.714 55.9866 140.142 55.9866C137.16 55.9866 134.352 55.2659 131.718 53.8246C129.134 52.3336 127.046 50.1966 125.456 47.4134C123.866 44.6302 123.07 41.35 123.07 37.5729C123.07 33.1993 124.039 29.2482 125.978 25.7195C127.966 22.1412 130.649 19.3331 134.029 17.2954C137.409 15.2578 141.086 14.2389 145.062 14.2389C150.828 14.2389 154.928 16.0281 157.363 19.6065L161.314 0H175.478ZM145.062 44.5805C147.895 44.5805 150.206 43.5368 151.995 41.4494C153.785 39.362 154.679 36.6534 154.679 33.3236C154.679 30.938 154.008 29.0494 152.666 27.6578C151.325 26.2662 149.461 25.5704 147.075 25.5704C144.242 25.5704 141.931 26.6141 140.142 28.7015C138.353 30.7889 137.458 33.5224 137.458 36.9019C137.458 39.2875 138.129 41.1761 139.471 42.5677C140.813 43.9096 142.677 44.5805 145.062 44.5805Z" fill="#1D1E1E"/>
<path d="M102.027 14.2389C105.009 14.2389 107.793 14.9844 110.377 16.4754C113.011 17.9167 115.123 20.0289 116.714 22.8121C118.304 25.5953 119.099 28.8506 119.099 32.5781C119.099 37.0013 118.105 41.0021 116.117 44.5805C114.179 48.1092 111.52 50.8923 108.141 52.93C104.811 54.9677 101.158 55.9866 97.1818 55.9866C91.3172 55.9866 87.1921 54.1477 84.8066 50.4699L80.93 69.7782H66.7656L77.7244 14.9099H91.1433L90.3232 18.7119C93.5537 15.7299 97.4551 14.2389 102.027 14.2389ZM95.1689 44.5805C98.0018 44.5805 100.313 43.5368 102.102 41.4494C103.891 39.362 104.786 36.6534 104.786 33.3236C104.786 30.938 104.09 29.0494 102.698 27.6578C101.357 26.2662 99.4928 25.5704 97.1072 25.5704C94.2743 25.5704 91.9633 26.6141 90.1741 28.7015C88.3849 30.7889 87.4903 33.5224 87.4903 36.9019C87.4903 39.2875 88.1613 41.1761 89.5032 42.5677C90.8948 43.9096 92.7833 44.5805 95.1689 44.5805Z" fill="#1D1E1E"/>
<path d="M37.1555 56.3593C32.6328 56.3593 28.7314 55.6138 25.4512 54.1228C22.171 52.5821 19.6612 50.3954 17.9217 47.5625C16.1822 44.7296 15.3125 41.3997 15.3125 37.5729C15.3125 35.9825 15.5113 34.1436 15.9089 32.0562L21.7237 3.13107H36.4845L30.7442 31.8326C30.446 33.3236 30.2969 34.6903 30.2969 35.9328C30.2969 41.3997 33.1795 44.1332 38.9446 44.1332C42.0757 44.1332 44.5358 43.1889 46.325 41.3003C48.1639 39.3621 49.5306 36.2061 50.4252 31.8326L56.1655 3.13107H70.7027L64.8133 32.7272C61.6325 48.4819 52.4132 56.3593 37.1555 56.3593Z" fill="#1D1E1E"/>
</svg>
