<svg width="45" height="45" viewBox="0 0 45 45" fill="none" xmlns="http://www.w3.org/2000/svg">
<path d="M7.5 20.625C6.96875 20.625 6.52375 20.445 6.165 20.085C5.80625 19.725 5.62625 19.28 5.625 18.75V7.5C5.625 6.96875 5.805 6.52375 6.165 6.165C6.525 5.80625 6.97 5.62625 7.5 5.625H18.75C19.2812 5.625 19.7269 5.805 20.0869 6.165C20.4469 6.525 20.6263 6.97 20.625 7.5V18.75C20.625 19.2812 20.445 19.7269 20.085 20.0869C19.725 20.4469 19.28 20.6263 18.75 20.625H7.5ZM26.25 20.625C25.7188 20.625 25.2738 20.445 24.915 20.085C24.5562 19.725 24.3762 19.28 24.375 18.75V7.5C24.375 6.96875 24.555 6.52375 24.915 6.165C25.275 5.80625 25.72 5.62625 26.25 5.625H37.5C38.0312 5.625 38.4769 5.805 38.8369 6.165C39.1969 6.525 39.3763 6.97 39.375 7.5V18.75C39.375 19.2812 39.195 19.7269 38.835 20.0869C38.475 20.4469 38.03 20.6263 37.5 20.625H26.25ZM7.5 39.375C6.96875 39.375 6.52375 39.195 6.165 38.835C5.80625 38.475 5.62625 38.03 5.625 37.5V26.25C5.625 25.7188 5.805 25.2738 6.165 24.915C6.525 24.5562 6.97 24.3762 7.5 24.375H18.75C19.2812 24.375 19.7269 24.555 20.0869 24.915C20.4469 25.275 20.6263 25.72 20.625 26.25V37.5C20.625 38.0312 20.445 38.4769 20.085 38.8369C19.725 39.1969 19.28 39.3763 18.75 39.375H7.5ZM31.875 39.375C31.3438 39.375 30.8988 39.195 30.54 38.835C30.1812 38.475 30.0012 38.03 30 37.5V33.75H26.2031C25.6719 33.75 25.2344 33.57 24.8906 33.21C24.5469 32.85 24.375 32.405 24.375 31.875C24.375 31.345 24.555 30.9 24.915 30.54C25.275 30.18 25.72 30 26.25 30H30V26.2031C30 25.6719 30.18 25.2344 30.54 24.8906C30.9 24.5469 31.345 24.375 31.875 24.375C32.405 24.375 32.8506 24.555 33.2119 24.915C33.5731 25.275 33.7525 25.72 33.75 26.25V30H37.5469C38.0781 30 38.5156 30.18 38.8594 30.54C39.2031 30.9 39.375 31.345 39.375 31.875C39.375 32.405 39.195 32.8506 38.835 33.2119C38.475 33.5731 38.03 33.7525 37.5 33.75H33.75V37.5469C33.75 38.0781 33.57 38.5156 33.21 38.8594C32.85 39.2031 32.405 39.375 31.875 39.375ZM28.125 9.375V16.875H35.625V9.375H28.125ZM9.375 9.375V16.875H16.875V9.375H9.375ZM9.375 28.125V35.625H16.875V28.125H9.375Z" fill="#373737"/>
</svg>
