<svg width="45" height="45" viewBox="0 0 45 45" fill="none" xmlns="http://www.w3.org/2000/svg">
<path d="M31.4991 6.1875C31.4991 5.73995 31.6769 5.31072 31.9934 4.99426C32.3098 4.67779 32.7391 4.5 33.1866 4.5H38.8116C39.2592 4.5 39.6884 4.67779 40.0049 4.99426C40.3213 5.31072 40.4991 5.73995 40.4991 6.1875V11.8125C40.4991 12.2601 40.3213 12.6893 40.0049 13.0057C39.6884 13.3222 39.2592 13.5 38.8116 13.5C38.3641 13.5 37.9348 13.3222 37.6184 13.0057C37.3019 12.6893 37.1241 12.2601 37.1241 11.8125V10.26L27.0666 20.3175C26.7502 20.6335 26.3213 20.811 25.8741 20.811C25.4269 20.811 24.998 20.6335 24.6816 20.3175L19.1241 14.76L9.62913 24.255C9.47464 24.4208 9.28833 24.5538 9.08134 24.646C8.87434 24.7382 8.65088 24.7878 8.4243 24.7918C8.19772 24.7958 7.97265 24.7541 7.76253 24.6693C7.55241 24.5844 7.36153 24.4581 7.20129 24.2978C7.04105 24.1376 6.91472 23.9467 6.82985 23.7366C6.74498 23.5265 6.7033 23.3014 6.70729 23.0748C6.71129 22.8482 6.76089 22.6248 6.85312 22.4178C6.94535 22.2108 7.07833 22.0245 7.24413 21.87L17.9316 11.1825C18.248 10.8665 18.6769 10.689 19.1241 10.689C19.5713 10.689 20.0002 10.8665 20.3166 11.1825L25.8741 16.74L34.7391 7.875H33.1866C32.7391 7.875 32.3098 7.69721 31.9934 7.38074C31.6769 7.06428 31.4991 6.63505 31.4991 6.1875ZM8.43662 31.5C8.88418 31.5 9.3134 31.6778 9.62987 31.9943C9.94634 32.3107 10.1241 32.7399 10.1241 33.1875V38.8125C10.1241 39.26 9.94634 39.6893 9.62987 40.0057C9.3134 40.3222 8.88418 40.5 8.43662 40.5C7.98907 40.5 7.55985 40.3222 7.24338 40.0057C6.92691 39.6893 6.74913 39.26 6.74913 38.8125V33.1875C6.74913 32.7399 6.92691 32.3107 7.24338 31.9943C7.55985 31.6778 7.98907 31.5 8.43662 31.5ZM19.1241 26.4375C19.1241 25.9899 18.9463 25.5607 18.6299 25.2443C18.3134 24.9278 17.8842 24.75 17.4366 24.75C16.9891 24.75 16.5598 24.9278 16.2434 25.2443C15.9269 25.5607 15.7491 25.9899 15.7491 26.4375V38.8125C15.7491 39.26 15.9269 39.6893 16.2434 40.0057C16.5598 40.3222 16.9891 40.5 17.4366 40.5C17.8842 40.5 18.3134 40.3222 18.6299 40.0057C18.9463 39.6893 19.1241 39.26 19.1241 38.8125V26.4375ZM26.4366 29.25C26.8842 29.25 27.3134 29.4278 27.6299 29.7443C27.9463 30.0607 28.1241 30.4899 28.1241 30.9375V38.8125C28.1241 39.26 27.9463 39.6893 27.6299 40.0057C27.3134 40.3222 26.8842 40.5 26.4366 40.5C25.9891 40.5 25.5598 40.3222 25.2434 40.0057C24.9269 39.6893 24.7491 39.26 24.7491 38.8125V30.9375C24.7491 30.4899 24.9269 30.0607 25.2434 29.7443C25.5598 29.4278 25.9891 29.25 26.4366 29.25ZM37.1241 21.9375C37.1241 21.4899 36.9463 21.0607 36.6299 20.7443C36.3134 20.4278 35.8842 20.25 35.4366 20.25C34.9891 20.25 34.5598 20.4278 34.2434 20.7443C33.9269 21.0607 33.7491 21.4899 33.7491 21.9375V38.8125C33.7491 39.26 33.9269 39.6893 34.2434 40.0057C34.5598 40.3222 34.9891 40.5 35.4366 40.5C35.8842 40.5 36.3134 40.3222 36.6299 40.0057C36.9463 39.6893 37.1241 39.26 37.1241 38.8125V21.9375Z" fill="#373737"/>
</svg>
