<svg width="42" height="42" viewBox="0 0 42 42" fill="none" xmlns="http://www.w3.org/2000/svg">
<path d="M21.875 12.25C21.875 10.3075 23.4325 8.75 25.375 8.75H31.5C33.425 8.75 35 10.325 35 12.25V16.03C32.97 16.7475 31.5 18.6725 31.5 20.9475V24.5H21.875V12.25ZM10.5 20.93V24.5H20.125V12.25C20.125 10.3075 18.5675 8.75 16.625 8.75H10.5C8.575 8.75 7 10.325 7 12.25V16.0125C9.03 16.73 10.5 18.6725 10.5 20.93ZM36.155 17.5525C34.44 17.8325 33.25 19.46 33.25 21.21V26.25H8.75V21C8.75 20.0717 8.38125 19.1815 7.72487 18.5251C7.0685 17.8687 6.17826 17.5 5.25 17.5C4.32174 17.5 3.4315 17.8687 2.77513 18.5251C2.11875 19.1815 1.75 20.0717 1.75 21V29.75C1.75 31.675 3.325 33.25 5.25 33.25V36.75H8.75V33.25H33.25V36.75H36.75V33.25C38.675 33.25 40.25 31.675 40.25 29.75V21C40.25 18.8825 38.3425 17.185 36.155 17.5525Z" fill="black"/>
</svg>
