<svg width="45" height="45" viewBox="0 0 45 45" fill="none" xmlns="http://www.w3.org/2000/svg">
<g clip-path="url(#clip0_1315_4649)">
<path d="M22.5 1.60718V4.82146M32.1429 4.82146L33.75 3.21432M12.8571 4.82146L11.25 3.21432M43.3929 43.3929H35.8489C32.6402 43.3932 29.5473 42.1937 27.1779 40.03C24.8084 37.8664 23.3336 34.8949 23.0432 31.6993L22.6736 27.63C22.6211 27.0566 22.7329 26.4801 22.9958 25.9679C23.2588 25.4556 23.6621 25.0288 24.1586 24.7372C24.5832 24.4874 25.0624 24.3448 25.5545 24.3217C26.0467 24.2985 26.537 24.3956 26.9833 24.6045C27.4295 24.8133 27.8181 25.1277 28.1156 25.5205C28.4131 25.9132 28.6105 26.3725 28.6907 26.8586L29.5714 32.1429" stroke="#373737" stroke-width="3" stroke-linecap="round" stroke-linejoin="round"/>
<path d="M43.3912 32.1333H38.1712C37.3918 32.1339 36.6387 31.8513 36.0521 31.338C35.4656 30.8248 35.0855 30.1159 34.9826 29.3433L32.964 14.1847C32.8798 13.5551 32.6323 12.9584 32.2461 12.4539C31.8599 11.9495 31.3485 11.5548 30.7626 11.3092C30.1768 11.0635 29.5368 10.9754 28.9063 11.0535C28.2759 11.1317 27.6768 11.3734 27.1687 11.7547C26.2526 12.4426 25.7126 13.5226 25.7126 14.6669V24.0976M1.60547 43.3929H9.1494C12.3581 43.3933 15.451 42.1938 17.8205 40.0301C20.1899 37.8664 21.6647 34.8949 21.9551 31.6994L22.3248 27.6301C22.3772 27.0567 22.2654 26.4802 22.0025 25.9679C21.7395 25.4557 21.3363 25.0288 20.8398 24.7372C20.4151 24.4874 19.936 24.3448 19.4438 24.3217C18.9517 24.2986 18.4613 24.3957 18.0151 24.6045C17.5688 24.8134 17.1802 25.1278 16.8827 25.5205C16.5852 25.9133 16.3878 26.3725 16.3076 26.8587L15.4269 32.1429" stroke="#373737" stroke-width="3" stroke-linecap="round" stroke-linejoin="round"/>
<path d="M1.60547 32.1301H6.82547C7.60487 32.1307 8.35794 31.848 8.9445 31.3348C9.53106 30.8216 9.91116 30.1127 10.014 29.3401L12.0326 14.1847C12.1164 13.5548 12.3635 12.9577 12.7495 12.4528C13.1355 11.948 13.6469 11.5529 14.2328 11.3069C14.8188 11.0609 15.4589 10.9725 16.0896 11.0505C16.7203 11.1285 17.3196 11.3702 17.828 11.7515C18.744 12.4394 19.284 13.5194 19.284 14.6637V24.0944" stroke="#373737" stroke-width="3" stroke-linecap="round" stroke-linejoin="round"/>
</g>
<defs>
<clipPath id="clip0_1315_4649">
<rect width="45" height="45" fill="white"/>
</clipPath>
</defs>
</svg>
