<svg width="60" height="60" viewBox="0 0 60 60" fill="none" xmlns="http://www.w3.org/2000/svg">
<rect width="60" height="60" rx="30" fill="url(#paint0_linear_1828_5606)"/>
<path d="M18.0612 46.2144V42.0384L31.4052 29.3664C32.5252 28.3104 33.3572 27.3824 33.9012 26.5824C34.4452 25.7824 34.7972 25.0464 34.9572 24.3744C35.1492 23.6704 35.2452 23.0144 35.2452 22.4064C35.2452 20.8704 34.7172 19.6864 33.6612 18.8544C32.6052 17.9904 31.0532 17.5584 29.0052 17.5584C27.3732 17.5584 25.8852 17.8464 24.5412 18.4224C23.2292 18.9984 22.0932 19.8784 21.1332 21.0624L16.7652 17.7024C18.0772 15.9424 19.8372 14.5824 22.0452 13.6224C24.2852 12.6304 26.7812 12.1344 29.5332 12.1344C31.9652 12.1344 34.0772 12.5344 35.8692 13.3344C37.6932 14.1024 39.0852 15.2064 40.0452 16.6464C41.0372 18.0864 41.5332 19.7984 41.5332 21.7824C41.5332 22.8704 41.3892 23.9584 41.1012 25.0464C40.8132 26.1024 40.2692 27.2224 39.4692 28.4064C38.6692 29.5904 37.5012 30.9184 35.9652 32.3904L24.4932 43.2864L23.1972 40.9344H42.8292V46.2144H18.0612Z" fill="white"/>
<defs>
<linearGradient id="paint0_linear_1828_5606" x1="30" y1="0" x2="30" y2="60" gradientUnits="userSpaceOnUse">
<stop stop-color="#6362B0"/>
<stop offset="1" stop-color="#464578"/>
</linearGradient>
</defs>
</svg>
