<svg width="60" height="60" viewBox="0 0 60 60" fill="none" xmlns="http://www.w3.org/2000/svg">
<rect width="60" height="60" rx="30" fill="url(#paint0_linear_1828_5610)"/>
<path d="M29.0532 46.6944C26.6852 46.6944 24.3652 46.3584 22.0932 45.6864C19.8532 44.9824 17.9652 44.0224 16.4292 42.8064L19.1172 37.9584C20.3332 38.9504 21.8052 39.7504 23.5332 40.3584C25.2612 40.9664 27.0692 41.2704 28.9572 41.2704C31.1972 41.2704 32.9412 40.8224 34.1892 39.9264C35.4372 38.9984 36.0612 37.7504 36.0612 36.1824C36.0612 34.6464 35.4852 33.4304 34.3332 32.5344C33.1812 31.6384 31.3252 31.1904 28.7652 31.1904H25.6932V26.9184L35.2932 15.4944L36.1092 17.8464H18.0612V12.6144H40.9572V16.7904L31.3572 28.2144L28.0932 26.2944H29.9652C34.0932 26.2944 37.1812 27.2224 39.2292 29.0784C41.3092 30.9024 42.3492 33.2544 42.3492 36.1344C42.3492 38.0224 41.8692 39.7664 40.9092 41.3664C39.9492 42.9664 38.4772 44.2624 36.4932 45.2544C34.5412 46.2144 32.0612 46.6944 29.0532 46.6944Z" fill="white"/>
<defs>
<linearGradient id="paint0_linear_1828_5610" x1="30" y1="0" x2="30" y2="60" gradientUnits="userSpaceOnUse">
<stop stop-color="#6362B0"/>
<stop offset="1" stop-color="#464578"/>
</linearGradient>
</defs>
</svg>
