<svg width="359" height="74" viewBox="0 0 359 74" fill="none" xmlns="http://www.w3.org/2000/svg">
<path d="M186.397 43.4176C183.509 42.3145 181.237 40.8805 179.605 39.1376L181.039 36.7549C182.582 38.3654 184.655 39.6892 187.235 40.7261C189.837 41.7409 192.572 42.2483 195.438 42.2483C199.584 42.2483 202.759 41.4541 204.876 39.8657C206.993 38.2993 208.074 36.2254 208.074 33.6883C208.074 31.7469 207.522 30.1584 206.376 29.0112C205.273 27.8419 203.84 26.9595 202.208 26.3197C200.532 25.6799 198.283 25.0621 195.482 24.4003C192.263 23.606 189.705 22.8339 187.764 22.1058C185.846 21.3557 184.192 20.2085 182.825 18.6421C181.48 17.0757 180.796 15.0019 180.796 12.3545C180.796 10.2365 181.348 8.27304 182.494 6.50809C183.597 4.74314 185.339 3.35324 187.654 2.2722C189.947 1.2353 192.836 0.705811 196.32 0.705811C198.724 0.705811 201.105 1.0588 203.421 1.76478C205.758 2.47076 207.765 3.44148 209.463 4.63283L208.272 7.192C206.53 5.9786 204.611 5.07406 202.495 4.43427C200.4 3.79447 198.327 3.50767 196.298 3.50767C192.241 3.50767 189.22 4.32396 187.103 5.93448C185.03 7.54499 183.994 9.66294 183.994 12.2442C183.994 14.1856 184.545 15.7741 185.692 16.9213C186.794 18.0906 188.205 18.9731 189.859 19.6128C191.535 20.2526 193.784 20.9145 196.673 21.6205C199.893 22.4147 202.45 23.1869 204.347 23.9149C206.265 24.665 207.897 25.7902 209.264 27.3124C210.609 28.8347 211.293 30.8865 211.293 33.4677C211.293 35.5856 210.72 37.5271 209.573 39.27C208.426 41.0129 206.662 42.4028 204.303 43.4397C201.921 44.4766 199.01 45.0061 195.57 45.0061C192.351 45.0723 189.286 44.4986 186.397 43.4176Z" fill="#373737"/>
<path d="M228.295 3.90467H212.551V1.03662H247.193V3.90467H231.471V44.7412H228.295V3.90467Z" fill="#373737"/>
<path d="M281.311 41.8732V44.7412H251.145V1.03662H280.384V3.90467H254.342V21.1571H277.628V23.9589H254.342V41.8952L281.311 41.8732Z" fill="#373737"/>
<path d="M317.604 4.94157C320.713 7.54488 322.279 11.141 322.279 15.774C322.279 20.3628 320.713 23.9589 317.604 26.5622C314.495 29.1655 310.173 30.4672 304.682 30.4672H292.201V44.7633H289.004V1.03662H304.66C310.195 1.03662 314.495 2.31621 317.604 4.94157ZM315.377 24.5105C317.825 22.4587 319.082 19.5465 319.082 15.774C319.082 11.9793 317.847 9.06715 315.377 6.99333C312.929 4.94157 309.357 3.90467 304.704 3.90467H292.223V27.5771H304.704C309.357 27.5771 312.907 26.5622 315.377 24.5105Z" fill="#373737"/>
<path d="M332.866 43.4176C329.977 42.3145 327.706 40.8805 326.074 39.1376L327.508 36.7549C329.051 38.3654 331.124 39.6892 333.704 40.7261C336.306 41.7409 339.04 42.2483 341.907 42.2483C346.053 42.2483 349.228 41.4541 351.345 39.8657C353.462 38.2993 354.542 36.2254 354.542 33.6883C354.542 31.7469 353.991 30.1584 352.844 29.0112C351.742 27.8419 350.308 26.9595 348.677 26.3197C347.001 25.6799 344.752 25.0621 341.951 24.4003C338.732 23.606 336.174 22.8339 334.233 22.1058C332.315 21.3557 330.661 20.2085 329.294 18.6421C327.949 17.0757 327.265 15.0019 327.265 12.3545C327.265 10.2365 327.816 8.27304 328.963 6.50809C330.065 4.74314 331.808 3.35324 334.123 2.2722C336.416 1.2353 339.305 0.705811 342.789 0.705811C345.193 0.705811 347.574 1.0588 349.889 1.76478C352.227 2.47076 354.234 3.44148 355.931 4.63283L354.741 7.192C352.999 5.9786 351.08 5.07406 348.963 4.43427C346.868 3.79447 344.796 3.50767 342.767 3.50767C338.71 3.50767 335.689 4.32396 333.572 5.93448C331.499 7.54499 330.462 9.66294 330.462 12.2442C330.462 14.1856 331.014 15.7741 332.16 16.9213C333.263 18.0906 334.674 18.9731 336.328 19.6128C338.004 20.2526 340.253 20.9145 343.142 21.6205C346.361 22.4147 348.919 23.1869 350.816 23.9149C352.734 24.665 354.366 25.7902 355.733 27.3124C357.078 28.8347 357.762 30.8865 357.762 33.4677C357.762 35.5856 357.188 37.5271 356.042 39.27C354.895 41.0129 353.131 42.4028 350.772 43.4397C348.39 44.4766 345.479 45.0061 342.039 45.0061C338.82 45.0723 335.777 44.4986 332.866 43.4176Z" fill="#373737"/>
<path fill-rule="evenodd" clip-rule="evenodd" d="M91.38 2.13981C91.38 1.7427 91.5123 1.38971 91.7549 1.14703C91.9975 0.904345 92.3723 0.771973 92.8575 0.771973H114.666C117.003 0.771973 119.142 1.14703 121.171 1.91919C123.2 2.6693 124.964 3.7062 126.463 5.02992C127.985 6.35363 129.176 7.89796 130.036 9.64085C130.896 11.3837 131.337 13.2811 131.337 15.2666C131.337 16.6124 131.138 17.892 130.719 19.1495C130.322 20.3629 129.705 21.5101 128.977 22.5691C128.25 23.6281 127.368 24.5988 126.353 25.4592C125.339 26.3196 124.192 27.0697 122.979 27.6875L131.69 42.1159C131.844 42.4027 132.042 42.7337 132.307 43.1087C132.55 43.4838 132.682 43.8147 132.682 44.1015C132.682 44.4324 132.572 44.6531 132.329 44.8296C132.109 45.006 131.778 45.0722 131.359 45.0722H119.738C119.363 45.0722 119.01 44.9619 118.701 44.7634C118.393 44.5648 118.194 44.3001 118.084 43.9471L109.903 30.3349H104.434V43.7706C104.434 44.631 103.927 45.0722 102.891 45.0722H92.8134C92.3503 45.0722 91.9975 44.9619 91.7329 44.7413C91.4462 44.5427 91.3359 44.2118 91.3359 43.7706V2.13981H91.38ZM117.775 15.4211C117.775 14.8033 117.643 14.2297 117.4 13.6341C117.158 13.0163 116.783 12.4868 116.364 11.9794C115.901 11.472 115.372 11.0749 114.754 10.7439C114.137 10.413 113.431 10.1924 112.681 10.0821C112.064 10.038 111.469 10.0159 110.939 9.97178C110.388 9.94972 109.793 9.92766 109.153 9.92766H104.523V20.8703H110.697C111.094 20.8703 111.447 20.8704 111.777 20.8483C112.086 20.8262 112.439 20.8042 112.814 20.738C113.608 20.6718 114.313 20.4512 114.931 20.1202C115.57 19.7893 116.099 19.3922 116.518 18.9068C116.915 18.4215 117.246 17.8699 117.489 17.2522C117.665 16.6565 117.775 16.0388 117.775 15.4211Z" fill="#6362B0"/>
<path d="M131.359 45.1606H119.738C119.341 45.1606 118.966 45.0503 118.657 44.8297C118.326 44.6091 118.128 44.3443 118.018 43.9693L109.881 30.4233H104.566V43.7707C104.566 44.6973 104.015 45.1606 102.935 45.1606H92.8572C92.3721 45.1606 91.9972 45.0503 91.7106 44.8076C91.4239 44.587 91.2695 44.2561 91.2695 43.7707V2.05168H91.2916C91.3136 1.65456 91.4459 1.30157 91.7106 1.08095C91.9752 0.81621 92.3721 0.683838 92.8793 0.683838H114.688C117.025 0.683838 119.164 1.05889 121.215 1.83106C123.266 2.60322 125.052 3.64013 126.529 4.96385C128.051 6.2655 129.242 7.83189 130.124 9.59684C130.984 11.3397 131.425 13.2591 131.425 15.2667C131.425 16.6125 131.226 17.9362 130.807 19.1717C130.432 20.3189 129.837 21.4882 129.043 22.6134C128.315 23.6723 127.433 24.643 126.397 25.5255C125.383 26.3859 124.28 27.114 123.111 27.7096L131.755 42.0499C131.91 42.3367 132.108 42.6676 132.351 43.0427C132.615 43.4398 132.748 43.7928 132.748 44.0796C132.748 44.4546 132.615 44.6973 132.351 44.8959C132.152 45.0724 131.822 45.1606 131.359 45.1606ZM104.368 30.2247H109.991L110.013 30.2688L118.194 43.9031C118.282 44.2119 118.459 44.4546 118.767 44.6532C119.054 44.8517 119.385 44.94 119.76 44.94H131.381C131.778 44.94 132.086 44.8517 132.285 44.6973C132.505 44.5429 132.593 44.3443 132.593 44.0354C132.593 43.7707 132.461 43.4618 132.241 43.1088C131.998 42.7338 131.778 42.4029 131.623 42.1161L122.869 27.5993L122.957 27.5552C124.148 26.9595 125.272 26.2094 126.309 25.349C127.323 24.4886 128.205 23.5179 128.933 22.481C129.705 21.3558 130.3 20.2086 130.675 19.0835C131.072 17.848 131.27 16.5684 131.27 15.2447C131.27 13.2591 130.829 11.3839 129.991 9.66302C129.131 7.92014 127.941 6.37581 126.441 5.07416C124.964 3.7725 123.2 2.73559 121.171 1.98549C119.142 1.21332 117.025 0.860334 114.71 0.860334H92.9013C92.4382 0.860334 92.0854 0.970643 91.8649 1.21332C91.6444 1.41188 91.5121 1.74281 91.5121 2.13992V2.22817H91.49V43.7707C91.49 44.1899 91.6003 44.4767 91.8649 44.6532C92.1295 44.8738 92.4603 44.962 92.9013 44.962H102.979C103.949 44.962 104.434 44.5649 104.434 43.7707V30.2247H104.368ZM110.653 20.9587H104.39V9.83952H109.109C109.793 9.83952 110.41 9.86158 110.917 9.88364H111.116C111.601 9.90571 112.13 9.92777 112.681 9.97189C113.453 10.0822 114.181 10.3028 114.798 10.6337C115.438 10.9647 115.989 11.3839 116.452 11.8913C116.915 12.4428 117.268 12.9944 117.51 13.568C117.775 14.1857 117.907 14.8034 117.907 15.3991C117.907 16.0389 117.797 16.6566 117.599 17.2744C117.378 17.8921 117.047 18.4437 116.628 18.9511C116.187 19.4364 115.636 19.8556 114.997 20.1865C114.357 20.5175 113.629 20.7381 112.836 20.8043C112.505 20.8484 112.218 20.8705 111.931 20.8925L111.799 20.9146C111.424 20.9587 111.071 20.9587 110.653 20.9587ZM104.588 20.7602H110.675C111.071 20.7602 111.424 20.7602 111.755 20.7381L111.887 20.716C112.152 20.694 112.461 20.6719 112.769 20.6278C113.541 20.5616 114.247 20.341 114.864 20.0321C115.482 19.7012 116.011 19.3041 116.43 18.8408C116.827 18.3554 117.158 17.8259 117.378 17.2303C117.577 16.6346 117.665 16.0389 117.665 15.4212C117.665 14.8476 117.532 14.2519 117.29 13.6562C117.069 13.1047 116.717 12.5752 116.276 12.0457C115.835 11.5603 115.305 11.1632 114.688 10.8323C114.092 10.5014 113.387 10.2808 112.637 10.1925C112.108 10.1484 111.579 10.1263 111.094 10.1043H110.895C110.41 10.0822 109.793 10.0601 109.109 10.0601H104.588V20.7602Z" fill="#6362B0"/>
<path fill-rule="evenodd" clip-rule="evenodd" d="M37.5547 22.9665C37.5547 20.8706 37.8634 18.8409 38.4588 16.9215C39.0762 14.9801 39.9362 13.1489 41.0608 11.4502C42.1634 9.7514 43.5305 8.20706 45.1182 6.81716C46.6839 5.42727 48.4259 4.23592 50.3223 3.24314C52.2408 2.25036 54.2915 1.50025 56.4966 0.948704C58.7017 0.397157 60.973 0.110352 63.3766 0.110352C65.7361 0.110352 68.0294 0.397157 70.2345 0.948704C72.4396 1.50025 74.5124 2.27242 76.4309 3.24314C78.3493 4.21386 80.0693 5.42727 81.679 6.81716C83.2447 8.20706 84.6119 9.7514 85.7365 11.4502C86.839 13.1489 87.7211 14.9801 88.3385 16.9215C88.9559 18.863 89.2646 20.8706 89.2646 22.9665C89.2646 25.0844 88.9339 27.092 88.3385 29.0335C87.7211 30.9749 86.839 32.784 85.7365 34.4828C84.6339 36.1595 83.2888 37.7038 81.679 39.0716C80.0914 40.4615 78.3493 41.6529 76.4309 42.6457C74.5124 43.6384 72.4617 44.3885 70.2345 44.9401C68.0073 45.4696 65.7361 45.7564 63.3766 45.7564C60.973 45.7564 58.7017 45.4696 56.4966 44.9401C54.2915 44.4106 52.2408 43.6384 50.3223 42.6457C48.4039 41.6529 46.6618 40.4615 45.1182 39.0716C43.5526 37.7038 42.2075 36.1595 41.0608 34.4828C39.9142 32.8061 39.0542 30.997 38.4588 29.0335C37.8634 27.092 37.5547 25.0623 37.5547 22.9665ZM50.6531 22.9003C50.6531 24.5549 50.9618 26.0993 51.5792 27.5333C52.2187 28.9673 53.1008 30.2248 54.2474 31.2617C55.3941 32.3207 56.7171 33.1591 58.2607 33.7768C59.8043 34.3945 61.5243 34.6813 63.3986 34.6813C65.2509 34.6813 66.9709 34.3725 68.5366 33.7768C70.1022 33.1591 71.4473 32.3428 72.594 31.2617C73.7406 30.2028 74.6227 28.9673 75.2181 27.5333C75.8575 26.1213 76.1442 24.577 76.1442 22.9003C76.1442 21.2898 75.8355 19.7454 75.2181 18.2893C74.5786 16.8553 73.6965 15.5978 72.594 14.5168C71.4473 13.4578 70.1242 12.5974 68.5366 11.9796C66.993 11.3619 65.273 11.053 63.3986 11.053C61.5243 11.053 59.8264 11.3619 58.2607 11.9796C56.7171 12.5974 55.372 13.4578 54.2474 14.5168C53.1008 15.5757 52.2187 16.8553 51.5792 18.2893C50.9618 19.7454 50.6531 21.2898 50.6531 22.9003Z" fill="#6362B0"/>
<path d="M63.4009 45.8446C61.0194 45.8446 58.7702 45.5799 56.4989 45.0283C54.2497 44.4768 52.221 43.7267 50.3025 42.7118C48.362 41.719 46.5979 40.5056 45.0764 39.1378C43.5549 37.8141 42.1877 36.2697 41.019 34.5489C39.8944 32.9163 39.0123 31.0631 38.3949 29.0776C37.7775 27.1361 37.4688 25.0844 37.4688 22.9664C37.4688 20.8485 37.7775 18.8188 38.3949 16.8773C39.0123 14.9138 39.8944 13.0606 41.019 11.3839C42.0995 9.72929 43.4667 8.1629 45.0764 6.72888C46.642 5.33898 48.3841 4.14763 50.3025 3.15485C52.221 2.16207 54.2497 1.41196 56.4989 0.838352C58.7261 0.264743 60.9973 0 63.4009 0C65.7604 0 68.0757 0.286805 70.2809 0.838352C72.5301 1.41196 74.6249 2.18413 76.4993 3.15485C78.3957 4.12557 80.1157 5.29485 81.7475 6.72888C83.3572 8.1629 84.7244 9.72929 85.8049 11.3839C86.9074 13.0606 87.7895 14.8918 88.429 16.8773C89.0684 18.907 89.3772 20.8926 89.3772 22.9664C89.3772 25.0402 89.0684 27.0479 88.429 29.0776C87.8336 30.9749 86.9736 32.7619 85.8049 34.5489C84.6582 36.2697 83.291 37.8141 81.7475 39.1598C80.1598 40.5497 78.3957 41.7631 76.4993 42.7339C74.5588 43.7267 72.5301 44.4768 70.2809 45.0504C68.0096 45.5798 65.6942 45.8446 63.4009 45.8446ZM63.4009 0.198557C60.9973 0.198557 58.7481 0.463301 56.543 1.03691C54.3158 1.61052 52.3092 2.36062 50.3907 3.33134C48.4943 4.32413 46.7302 5.51547 45.1867 6.88331C43.599 8.29527 42.2318 9.86166 41.1513 11.4942C40.0487 13.1489 39.1667 14.98 38.5493 16.9435C37.9539 18.8408 37.6452 20.8705 37.6452 22.9664C37.6452 25.0402 37.9539 27.092 38.5493 29.0114C39.1667 30.9749 40.0267 32.806 41.1513 34.4386C42.32 36.1594 43.6872 37.6817 45.1867 39.0054C46.7082 40.3732 48.4502 41.5646 50.3907 42.5574C52.3092 43.5722 54.3158 44.3223 56.543 44.8518C58.7922 45.4034 61.0414 45.6681 63.4009 45.6681C65.6942 45.6681 67.9875 45.4034 70.2368 44.8518C72.486 44.3003 74.4926 43.5502 76.4111 42.5574C78.2854 41.5867 80.0495 40.3732 81.6372 39.0054C83.1808 37.6817 84.5259 36.1594 85.6726 34.4386C86.8413 32.6737 87.6792 30.8866 88.2746 29.0114C88.892 27.0037 89.2008 25.0182 89.2008 22.9664C89.2008 20.9367 88.892 18.9512 88.2746 16.9435C87.6351 14.98 86.7751 13.1489 85.6726 11.4942C84.5921 9.8396 83.2249 8.29527 81.6372 6.88331C80.0054 5.44929 78.2854 4.28001 76.4111 3.33134C74.5367 2.38268 72.4639 1.61052 70.2368 1.03691C68.0537 0.463301 65.7383 0.198557 63.4009 0.198557ZM63.423 34.7695C61.5486 34.7695 59.8066 34.4607 58.2409 33.8429C56.6974 33.2252 55.3302 32.3868 54.1835 31.3279C53.0369 30.291 52.1328 29.0334 51.4933 27.5774C50.8759 26.1433 50.5451 24.5769 50.5451 22.9002C50.5451 21.2456 50.8538 19.6792 51.4933 18.2452C52.1328 16.7891 53.0369 15.5095 54.1835 14.4505C55.3522 13.3474 56.7194 12.487 58.2409 11.8914C59.8066 11.2516 61.5045 10.9427 63.423 10.9427C65.2752 10.9427 66.9952 11.2516 68.605 11.8914C70.1265 12.487 71.5157 13.3474 72.6844 14.4505C73.8531 15.5978 74.7131 16.8332 75.3306 18.2452C75.948 19.6792 76.2788 21.2456 76.2788 22.9002C76.2788 24.599 75.9701 26.1654 75.3306 27.5774C74.7352 28.9893 73.8311 30.2468 72.6844 31.3279C71.5378 32.4089 70.1706 33.2473 68.605 33.8429C67.0173 34.4607 65.2752 34.7695 63.423 34.7695ZM63.423 11.1633C61.5486 11.1633 59.8727 11.4722 58.3291 12.0899C56.8297 12.6856 55.4845 13.5239 54.3379 14.605C53.2133 15.6419 52.3312 16.8994 51.6917 18.3555C51.0743 19.7675 50.7656 21.2897 50.7656 22.9223C50.7656 24.5769 51.0743 26.1213 51.6917 27.5112C52.3092 28.9452 53.2133 30.1807 54.3158 31.1955C55.4404 32.2545 56.7856 33.0928 58.3071 33.6885C59.8286 34.2842 61.5486 34.593 63.4009 34.593C65.2312 34.593 66.9511 34.2842 68.4947 33.6885C70.0383 33.0928 71.3834 32.2545 72.508 31.1955C73.6547 30.1365 74.5147 28.9011 75.1101 27.5112C75.7275 26.1213 76.0362 24.5769 76.0362 22.9223C76.0362 21.2897 75.7275 19.7675 75.1101 18.3555C74.4926 16.9656 73.6326 15.7301 72.508 14.605C71.3393 13.5239 69.9942 12.6856 68.4947 12.0899C66.9511 11.4722 65.2311 11.1633 63.423 11.1633Z" fill="#6362B0"/>
<path fill-rule="evenodd" clip-rule="evenodd" d="M41.2771 3.99315C41.652 4.19171 41.9387 4.45645 42.1151 4.78738C42.2915 5.09625 42.2694 5.4713 42.0048 5.9346L36.3156 13.1047C36.0731 13.4356 35.8084 13.6342 35.5218 13.6783C35.2351 13.7224 34.8823 13.6563 34.4854 13.4356C33.3828 12.7076 32.1479 12.134 30.8469 11.7369C29.5018 11.3398 28.1126 11.1633 26.6131 11.1633C24.7608 11.1633 23.0629 11.4721 21.5193 12.0899C19.9757 12.7076 18.6306 13.568 17.506 14.627C16.4034 15.686 15.4993 16.9655 14.8819 18.3775C14.2424 19.7895 13.9557 21.3338 13.9557 22.9664C13.9557 24.5769 14.2645 26.0992 14.8819 27.5552C15.5214 28.9672 16.4034 30.2247 17.506 31.2837C18.6526 32.3427 19.9537 33.181 21.5193 33.8208C23.0629 34.4386 24.7608 34.7474 26.6131 34.7474C28.1126 34.7474 29.5239 34.5489 30.869 34.1297C32.2141 33.7326 33.449 33.159 34.5295 32.4089C34.9264 32.1882 35.2572 32.1 35.5438 32.1221C35.8305 32.1662 36.0731 32.3427 36.3597 32.6515L42.1371 39.9981C42.3797 40.4614 42.4238 40.8144 42.2474 41.1012C42.071 41.4101 41.7843 41.6528 41.4094 41.8293C39.2925 43.0868 37.0213 44.0575 34.5736 44.7415C32.1479 45.4254 29.568 45.7784 26.8557 45.7784C24.4741 45.7784 22.2029 45.4916 19.9978 44.9621C17.7926 44.4326 15.7419 43.6604 13.8234 42.6676C11.905 41.6749 10.1629 40.4835 8.57527 39.0936C7.00963 37.7258 5.66451 36.1814 4.51785 34.5047C3.41529 32.828 2.5112 31.019 1.91582 29.0555C1.29838 27.114 1.01172 25.1064 1.01172 22.9884C1.01172 20.8926 1.32043 18.8629 1.91582 16.9435C2.53325 15.002 3.41529 13.1709 4.51785 11.4721C5.62041 9.77337 6.98758 8.22904 8.57527 6.83914C10.1409 5.44924 11.8829 4.2579 13.8234 3.26511C15.7419 2.27233 17.7926 1.52222 19.9978 0.970676C22.2029 0.419129 24.4741 0.132324 26.8557 0.132324C29.568 0.132324 32.1259 0.463252 34.5074 1.12511C36.911 1.7649 39.1602 2.73563 41.2771 3.99315Z" fill="#6362B0"/>
<path d="M26.8345 45.8667C24.4971 45.8667 22.1817 45.6019 19.9545 45.0504C17.7053 44.4988 15.6766 43.7487 13.7582 42.7339C11.8397 41.7411 10.0756 40.5497 8.50999 39.1598C6.98846 37.8361 5.62129 36.2918 4.45258 34.5489C3.30592 32.8281 2.42387 30.9969 1.82849 29.0776C1.21106 27.092 0.902344 25.1064 0.902344 22.9664C0.902344 20.8485 1.21106 18.8188 1.82849 16.8773C2.42387 14.98 3.30592 13.1268 4.45258 11.3839C5.53308 9.72929 6.90026 8.1629 8.50999 6.72888C10.0756 5.33898 11.8397 4.12557 13.7582 3.15485C15.6766 2.16207 17.7053 1.41196 19.9545 0.838352C22.1597 0.286805 24.475 0 26.8345 0C29.5468 0 32.1268 0.330928 34.5083 0.992785C36.9119 1.65464 39.2052 2.62536 41.3221 3.88289C41.719 4.10351 42.0057 4.36825 42.2042 4.69918C42.4026 5.03011 42.3585 5.44929 42.0939 5.93465L36.3826 13.1048C36.096 13.4798 35.8314 13.6784 35.5447 13.7225C35.236 13.7887 34.8611 13.6784 34.4421 13.4578C33.3616 12.7518 32.1488 12.1782 30.8258 11.759C29.5468 11.3619 28.1576 11.1854 26.636 11.1854C24.7837 11.1854 23.0858 11.4942 21.5863 12.112C20.0868 12.7076 18.7417 13.546 17.5951 14.627C16.4925 15.686 15.6105 16.9215 14.993 18.3334C14.3756 19.7233 14.0669 21.2456 14.0669 22.8782C14.0669 24.5108 14.3756 25.9889 14.993 27.4229C15.6105 28.8128 16.4925 30.0483 17.5951 31.1073C18.7417 32.1662 20.0427 33.0046 21.5863 33.6223C23.152 34.24 24.8499 34.5489 26.636 34.5489C28.1135 34.5489 29.5247 34.3504 30.8699 33.9532C32.2591 33.5341 33.4939 32.9605 34.5083 32.2545C34.9052 32.0339 35.258 31.9235 35.5888 31.9677C35.8975 32.0118 36.1621 32.1883 36.4709 32.5192L42.2483 39.8658C42.5129 40.3512 42.557 40.7483 42.3585 41.0792C42.16 41.4102 41.8734 41.6749 41.4765 41.8514C39.3375 43.131 37.0883 44.0796 34.6186 44.7636C32.1268 45.5137 29.5247 45.8667 26.8345 45.8667ZM26.8345 0.220619C24.475 0.220619 22.1817 0.507424 19.9986 1.05897C17.7715 1.63258 15.7648 2.38268 13.8464 3.35341C11.95 4.32413 10.1859 5.53753 8.62025 6.90537C7.03256 8.31733 5.66539 9.88373 4.58489 11.5163C3.46028 13.2371 2.57823 15.0683 1.98285 16.9656C1.38747 18.8629 1.07875 20.8926 1.07875 22.9885C1.07875 25.1064 1.36542 27.0699 1.98285 29.0334C2.57823 30.9308 3.43823 32.7619 4.58489 34.4607C5.7536 36.1815 7.12077 37.7038 8.62025 39.0275C10.1859 40.4174 11.9279 41.6087 13.8464 42.5794C15.7648 43.5943 17.7715 44.3444 19.9986 44.8739C22.2258 45.4034 24.5191 45.6902 26.8345 45.6902C29.5027 45.6902 32.0827 45.3372 34.5303 44.6533C36.978 43.9693 39.2052 43.0207 41.3442 41.7411C41.697 41.5646 41.9836 41.344 42.138 41.0351C42.2924 40.7483 42.2703 40.4394 42.0277 40.0203L36.2724 32.6957C36.0078 32.4089 35.7652 32.2324 35.5227 32.1883C35.258 32.1662 34.9273 32.2545 34.5745 32.453C33.538 33.1811 32.3032 33.7547 30.8919 34.1739C29.5468 34.571 28.1135 34.7916 26.614 34.7916C24.8058 34.7916 23.0858 34.4827 21.4981 33.8429C19.9325 33.2031 18.6094 32.3868 17.4407 31.2837C16.3161 30.2027 15.412 28.9452 14.7946 27.5332C14.1551 26.0771 13.8464 24.5769 13.8464 22.9223C13.8464 21.2677 14.1551 19.7013 14.7946 18.3114C15.4341 16.8773 16.3382 15.5978 17.4407 14.5388C18.6094 13.4357 19.9766 12.5753 21.4981 11.9796C23.0196 11.3619 24.7396 11.0309 26.614 11.0309C28.1796 11.0309 29.5688 11.2295 30.8699 11.6266C32.215 12.0458 33.4498 12.6194 34.5303 13.3254C34.8832 13.5239 35.236 13.6122 35.5006 13.5681C35.7432 13.5239 35.9857 13.3474 36.2283 13.0165L41.9175 5.8464C42.138 5.44929 42.1821 5.09629 42.0057 4.80949C41.8513 4.50062 41.5867 4.25794 41.2119 4.05939C39.117 2.80186 36.8457 1.83114 34.4642 1.19134C32.1047 0.551547 29.5468 0.220619 26.8345 0.220619Z" fill="#6362B0"/>
<path d="M171.246 34.8134H148.577V26.9814L140.529 26.9152C137.75 26.8931 135.457 29.1434 135.457 31.9232V43.7925C135.457 44.2338 135.589 44.5426 135.854 44.7633C136.141 44.9618 136.493 45.0942 136.934 45.0942H171.092C171.93 45.0942 172.393 44.8074 172.481 44.2558C172.657 44.1014 172.768 43.9249 172.768 43.7264V36.2033C172.768 35.2767 172.26 34.8134 171.246 34.8134Z" fill="#6362B0"/>
<path d="M171.116 45.1826H136.959C136.518 45.1826 136.121 45.0723 135.812 44.8296C135.525 44.609 135.371 44.256 135.371 43.7927V31.9234C135.371 30.5555 135.9 29.2539 136.893 28.3052C137.863 27.3345 139.164 26.805 140.531 26.8271L148.668 26.8933V34.7252H171.248C172.307 34.7252 172.858 35.2327 172.88 36.2034V43.7265C172.88 43.9471 172.792 44.1457 172.593 44.3001C172.483 44.8958 171.976 45.1826 171.116 45.1826ZM140.487 27.0036C139.186 27.0036 137.951 27.511 137.025 28.4376C136.077 29.3642 135.57 30.5997 135.57 31.9234V43.7927C135.57 44.2118 135.68 44.4987 135.944 44.6751C136.231 44.8737 136.584 44.984 136.981 44.984H171.138C171.91 44.984 172.351 44.7413 172.439 44.2339V44.1898L172.461 44.1677C172.615 44.0353 172.704 43.8809 172.704 43.7044V36.1813C172.682 35.2988 172.219 34.8797 171.248 34.8797H148.469V27.0477L140.531 27.0036C140.509 27.0036 140.487 27.0036 140.487 27.0036Z" fill="#6362B0"/>
<path d="M148.579 11.0087H170.454C170.961 11.0087 171.358 10.8543 171.644 10.5454C171.931 10.2365 172.041 9.90559 172.041 9.57467V2.18393C172.041 1.7427 171.909 1.38971 171.644 1.14703C171.38 0.904345 170.983 0.771973 170.498 0.771973H136.958C136.473 0.771973 136.12 0.904345 135.877 1.14703C135.635 1.38971 135.48 1.72063 135.48 2.13981V12.1338C135.48 15.4431 138.171 18.1126 141.456 18.1126H148.557V11.0087H148.579Z" fill="#6362B0"/>
<path d="M148.646 18.2229H141.435C138.083 18.2229 135.371 15.5093 135.371 12.1559V2.16189C135.371 1.74272 135.525 1.38973 135.812 1.10292C136.077 0.838181 136.474 0.705811 136.959 0.705811H170.499C171.006 0.705811 171.403 0.838181 171.711 1.10292C171.998 1.36767 172.152 1.74272 172.152 2.20602V9.59675C172.152 9.9718 171.998 10.3027 171.733 10.6337C171.447 10.9646 171.006 11.119 170.477 11.119H148.69V18.2229H148.646ZM136.959 0.882305C136.518 0.882305 136.165 0.992614 135.944 1.23529C135.702 1.47798 135.57 1.78684 135.57 2.16189V12.1559C135.57 15.399 138.216 18.0465 141.457 18.0465H148.469V10.9425H170.454C170.94 10.9425 171.314 10.8102 171.579 10.5233C171.822 10.2586 171.954 9.94974 171.954 9.61881V2.22808C171.954 1.8089 171.822 1.47798 171.579 1.25736C171.314 1.01468 170.962 0.904366 170.499 0.904366H136.959V0.882305Z" fill="#6362B0"/>
<path d="M160.003 18.157H150.477V26.7391H160.003V18.157Z" fill="#6362B0"/>
<path d="M160.093 26.8273H150.391V18.0466H160.093V26.8273ZM150.567 26.6287H159.895V18.2452H150.567V26.6287Z" fill="#6362B0"/>
<path d="M67.543 62.6335V71.4142H66.9035V67.2445H61.0379V71.4142H60.3984V62.6335H61.0379V66.6709H66.9035V62.6335H67.543Z" fill="#373737"/>
<path d="M94.7536 68.9432H89.6598L88.5351 71.4142H87.8516L91.8869 62.6335H92.5264L96.5618 71.4142H95.8782L94.7536 68.9432ZM94.511 68.3917L92.1956 63.3175L89.9023 68.3917H94.511Z" fill="#373737"/>
<path d="M124.016 62.6335V71.4142H123.486L117.511 63.7808V71.4142H116.871V62.6335H117.4L123.376 70.267V62.6335H124.016Z" fill="#373737"/>
<path d="M145.801 62.6335H149.263C150.167 62.6335 150.983 62.8321 151.688 63.2072C152.394 63.5822 152.945 64.1117 153.342 64.7736C153.739 65.4354 153.938 66.1855 153.938 67.0459C153.938 67.8843 153.739 68.6344 153.342 69.3183C152.945 69.9801 152.394 70.5096 151.688 70.8847C150.983 71.2597 150.167 71.4583 149.263 71.4583H145.801V62.6335ZM149.219 70.8406C150.035 70.8406 150.74 70.6861 151.358 70.3552C151.975 70.0243 152.46 69.583 152.791 69.0094C153.122 68.4358 153.298 67.774 153.298 67.0239C153.298 66.2738 153.122 65.6119 152.791 65.0383C152.46 64.4647 151.975 64.0014 151.358 63.6925C150.74 63.3616 150.035 63.2072 149.219 63.2072H146.44V70.8406H149.219Z" fill="#373737"/>
<path d="M205.118 71.4143L205.096 63.9133L201.413 70.2671H201.105L197.422 63.9574V71.4364H196.805V62.6558H197.334L201.259 69.4508L205.184 62.6558H205.713L205.735 71.4364H205.118V71.4143Z" fill="#373737"/>
<path d="M232.972 68.9432H227.878L226.754 71.4142H226.07L230.106 62.6335H230.745L234.781 71.4142H234.097L232.972 68.9432ZM232.73 68.3917L230.414 63.3175L228.121 68.3917H232.73Z" fill="#373737"/>
<path d="M255.109 62.6335H258.571C259.476 62.6335 260.291 62.8321 260.997 63.2072C261.703 63.5822 262.254 64.1117 262.651 64.7736C263.048 65.4354 263.246 66.1855 263.246 67.0459C263.246 67.8843 263.048 68.6344 262.651 69.3183C262.254 69.9801 261.703 70.5096 260.997 70.8847C260.291 71.2597 259.476 71.4583 258.571 71.4583H255.109V62.6335ZM258.527 70.8406C259.343 70.8406 260.049 70.6861 260.666 70.3552C261.284 70.0243 261.769 69.583 262.1 69.0094C262.43 68.4358 262.607 67.774 262.607 67.0239C262.607 66.2738 262.43 65.6119 262.1 65.0383C261.769 64.4647 261.284 64.0014 260.666 63.6925C260.049 63.3616 259.343 63.2072 258.527 63.2072H255.749V70.8406H258.527Z" fill="#373737"/>
<path d="M290.857 70.8406V71.4142H284.793V62.6335H290.659V63.2072H285.432V66.6709H290.107V67.2445H285.432V70.8406H290.857Z" fill="#373737"/>
<path d="M171.598 66.5827C171.598 64.5751 171.598 62.6778 171.598 60.8025C171.598 60.1186 171.951 59.6112 172.568 59.4788C172.877 59.4347 173.208 59.4788 173.583 59.4788C173.737 58.9934 174.046 58.5522 174.729 58.464C175.369 58.3978 175.81 58.6846 176.096 59.2582C177.265 58.8831 178.103 59.2361 178.169 60.8466C178.279 60.8246 178.346 60.8025 178.456 60.7805C179.382 60.5819 180.066 61.1114 180.066 62.1483C180.088 64.4868 180.11 66.8033 180.066 69.1419C180.044 70.3994 179.58 71.5687 178.588 72.4291C178.037 72.9145 177.375 73.1792 176.648 73.3116C175.633 73.4881 174.619 73.4219 173.605 73.1572C172.524 72.8704 171.708 72.1864 171.157 71.2819C170.319 69.9141 169.547 68.5242 168.775 67.1343C168.423 66.4945 168.643 65.7664 169.216 65.4134C169.768 65.0605 170.562 65.2149 171.003 65.7444C171.135 65.9871 171.355 66.2297 171.598 66.5827ZM179.404 65.6782C179.404 65.5017 179.404 65.3473 179.404 65.1708C179.404 64.1559 179.404 63.1411 179.404 62.1262C179.404 61.5526 179.051 61.2437 178.566 61.3982C178.191 61.5306 178.125 61.8615 178.125 62.1924C178.103 63.0969 178.125 63.9794 178.125 64.906C178.125 65.0384 178.147 65.1487 178.125 65.259C178.059 65.3914 177.927 65.4796 177.816 65.612C177.706 65.5017 177.596 65.4134 177.486 65.2811C177.441 65.2149 177.486 65.1046 177.486 64.9943C177.486 63.6044 177.486 62.2145 177.486 60.8246C177.486 60.626 177.464 60.4275 177.419 60.2068C177.375 59.92 177.177 59.7656 176.868 59.7656C176.405 59.7656 176.185 59.9642 176.185 60.4495C176.185 61.8615 176.185 63.2955 176.185 64.7075C176.185 64.8398 176.185 64.9501 176.14 65.0605C176.096 65.1708 175.942 65.2369 175.832 65.259C175.766 65.259 175.633 65.1487 175.589 65.0605C175.545 64.9501 175.545 64.8398 175.545 64.7075C175.545 63.1852 175.545 61.6409 175.545 60.1186C175.545 60.0083 175.545 59.898 175.545 59.7877C175.523 59.3906 175.258 59.1037 174.906 59.1037C174.531 59.1037 174.244 59.3906 174.244 59.8097C174.244 61.4864 174.244 63.119 174.244 64.7957C174.244 65.0163 174.222 65.259 173.913 65.259C173.605 65.259 173.583 65.0384 173.583 64.7957C173.583 64.7295 173.583 64.6192 173.583 64.553C173.583 63.3176 173.583 62.038 173.583 60.8025C173.583 60.273 173.142 59.9642 172.7 60.1407C172.37 60.273 172.304 60.5378 172.304 60.8687C172.304 63.0528 172.304 65.1928 172.304 67.377C172.304 67.5314 172.171 67.7079 172.105 67.8623C171.929 67.7961 171.73 67.7299 171.62 67.5755C171.245 67.1122 170.914 66.6489 170.539 66.1856C170.253 65.8326 169.856 65.7444 169.547 65.9871C169.261 66.1856 169.194 66.5607 169.393 66.9578C170.01 68.0609 170.628 69.2081 171.267 70.3332C171.752 71.1495 172.282 71.9217 173.164 72.3188C174.553 72.9365 176.03 73.0248 177.441 72.4512C178.853 71.8335 179.36 70.598 179.448 69.164C179.448 67.9726 179.404 66.8254 179.404 65.6782Z" fill="#373737"/>
<path d="M358.772 66.8914H314.383V67.2002H358.772V66.8914Z" fill="#373737"/>
<path d="M44.389 67.2002H0V67.5091H44.389V67.2002Z" fill="#373737"/>
</svg>
