<svg width="295" height="270" viewBox="0 0 295 270" fill="none" xmlns="http://www.w3.org/2000/svg">
<rect x="0.859375" y="1.43018" width="293.218" height="267.141" rx="14.5" stroke="#A6A6A6"/>
<g clip-path="url(#clip0_1416_4649)">
<path d="M213.067 79.5386H55V104.589H213.067C219.968 104.589 225.555 98.9858 225.555 92.0639C225.555 85.142 219.968 79.5386 213.067 79.5386Z" fill="#373737"/>
<path d="M108.565 65.0356C109.88 65.0356 110.537 66.0245 110.537 67.0133C110.537 68.3318 109.551 68.991 108.565 68.991H106.922C105.608 68.991 104.293 70.3094 104.293 71.6279C104.293 72.2871 104.622 72.9464 105.279 73.6056H55.9859V65.0356H108.565ZM108.565 63.7172H55V74.5944H110.866C111.194 74.5944 111.523 74.2648 111.523 73.9352C111.523 73.6056 111.194 73.276 110.866 73.276H106.922C106.265 73.276 105.279 72.6168 105.279 71.6279C105.279 70.9687 105.936 69.9798 106.922 69.9798H108.565C110.208 69.9798 111.852 68.6614 111.852 66.6837C111.523 65.3652 110.208 63.7172 108.565 63.7172Z" fill="#373737"/>
<path d="M238.043 151.394C239.358 151.394 240.015 152.383 240.015 153.372V205.781H231.143V156.998C231.47 157.657 232.457 157.986 233.113 157.986C234.429 157.986 235.743 156.668 235.743 155.35V153.702C235.743 152.383 236.729 151.394 238.043 151.394ZM238.043 150.406C236.4 150.406 234.757 151.724 234.757 153.702V155.35C234.757 156.009 234.1 156.998 233.113 156.998C232.457 156.998 231.47 156.339 231.47 155.35V151.394C231.47 151.065 231.143 150.736 230.814 150.736C230.485 150.736 230.156 151.065 230.156 151.394V207.429H241.001V153.372C241.001 151.724 239.686 150.406 238.043 150.406Z" fill="#373737"/>
<path d="M240.015 64.3763V140.517C239.357 139.858 238.371 139.528 237.386 139.528C235.085 139.528 233.113 141.506 233.113 143.813V145.462C233.113 145.791 232.784 145.791 232.784 145.791H232.457V141.836C232.457 140.847 231.799 140.188 230.813 139.858V74.9239V73.6055H229.827H124.668C124.34 72.6166 123.682 71.9574 122.696 71.9574H118.753C118.424 71.9574 118.424 71.6278 118.424 71.6278L118.753 71.2982H120.396C122.696 71.2982 124.668 69.3205 124.668 67.0132C124.668 66.0244 124.34 65.0355 123.682 64.3763H240.015ZM241 63.3875H116.781V63.7171H120.396C122.039 63.7171 123.682 65.0355 123.682 67.0132C123.682 68.6613 122.368 70.3094 120.396 70.3094H118.753C118.096 70.3094 117.11 70.9686 117.11 71.9574C117.11 72.6166 117.767 73.6055 118.753 73.6055H122.696C123.025 73.6055 123.354 73.9351 123.354 74.2647C123.354 74.5944 123.025 74.9239 122.696 74.9239H229.498V141.836C229.498 141.506 229.827 141.176 230.156 141.176C230.485 141.176 230.813 141.506 230.813 141.836V145.791C230.813 146.78 231.47 147.439 232.457 147.439C233.442 147.439 234.1 146.78 234.1 145.791V144.143C234.1 142.495 235.414 140.847 237.386 140.847C239.029 140.847 240.672 142.165 240.672 144.143V147.768H241V63.3875Z" fill="#373737"/>
<path d="M191.706 104.589H189.734V207.1H191.706V104.589Z" fill="#373737"/>
<mask id="mask0_1416_4649" style="mask-type:luminance" maskUnits="userSpaceOnUse" x="197" y="107" width="30" height="101">
<path d="M226.869 107.226H197.621V207.1H226.869V107.226Z" fill="white"/>
</mask>
<g mask="url(#mask0_1416_4649)">
<path d="M180.863 113.489L241.001 53.1694" stroke="black" stroke-width="0.1001" stroke-miterlimit="10"/>
</g>
<mask id="mask1_1416_4649" style="mask-type:luminance" maskUnits="userSpaceOnUse" x="197" y="107" width="30" height="101">
<path d="M226.869 107.226H197.621V207.1H226.869V107.226Z" fill="white"/>
</mask>
<g mask="url(#mask1_1416_4649)">
<path d="M180.863 127.003L241.001 66.6836" stroke="#373737" stroke-width="0.1001" stroke-miterlimit="10"/>
</g>
<mask id="mask2_1416_4649" style="mask-type:luminance" maskUnits="userSpaceOnUse" x="197" y="107" width="30" height="101">
<path d="M226.869 107.226H197.621V207.1H226.869V107.226Z" fill="white"/>
</mask>
<g mask="url(#mask2_1416_4649)">
<path d="M180.863 140.517L241.001 80.1978" stroke="#373737" stroke-width="0.1001" stroke-miterlimit="10"/>
</g>
<mask id="mask3_1416_4649" style="mask-type:luminance" maskUnits="userSpaceOnUse" x="197" y="107" width="30" height="101">
<path d="M226.869 107.226H197.621V207.1H226.869V107.226Z" fill="white"/>
</mask>
<g mask="url(#mask3_1416_4649)">
<path d="M180.863 154.031L241.001 93.712" stroke="#373737" stroke-width="0.1001" stroke-miterlimit="10"/>
</g>
<mask id="mask4_1416_4649" style="mask-type:luminance" maskUnits="userSpaceOnUse" x="197" y="107" width="30" height="101">
<path d="M226.869 107.226H197.621V207.1H226.869V107.226Z" fill="white"/>
</mask>
<g mask="url(#mask4_1416_4649)">
<path d="M180.863 167.546L241.001 107.556" stroke="#373737" stroke-width="0.1001" stroke-miterlimit="10"/>
</g>
<mask id="mask5_1416_4649" style="mask-type:luminance" maskUnits="userSpaceOnUse" x="197" y="107" width="30" height="101">
<path d="M226.869 107.226H197.621V207.1H226.869V107.226Z" fill="white"/>
</mask>
<g mask="url(#mask5_1416_4649)">
<path d="M180.863 181.06L241.001 121.07" stroke="#373737" stroke-width="0.1001" stroke-miterlimit="10"/>
</g>
<mask id="mask6_1416_4649" style="mask-type:luminance" maskUnits="userSpaceOnUse" x="197" y="107" width="30" height="101">
<path d="M226.869 107.226H197.621V207.1H226.869V107.226Z" fill="white"/>
</mask>
<g mask="url(#mask6_1416_4649)">
<path d="M180.863 194.574L241.001 134.584" stroke="#373737" stroke-width="0.1001" stroke-miterlimit="10"/>
</g>
<mask id="mask7_1416_4649" style="mask-type:luminance" maskUnits="userSpaceOnUse" x="197" y="107" width="30" height="101">
<path d="M226.869 107.226H197.621V207.1H226.869V107.226Z" fill="white"/>
</mask>
<g mask="url(#mask7_1416_4649)">
<path d="M180.863 208.088L241.001 148.099" stroke="#373737" stroke-width="0.1001" stroke-miterlimit="10"/>
</g>
<mask id="mask8_1416_4649" style="mask-type:luminance" maskUnits="userSpaceOnUse" x="197" y="107" width="30" height="101">
<path d="M226.869 107.226H197.621V207.1H226.869V107.226Z" fill="white"/>
</mask>
<g mask="url(#mask8_1416_4649)">
<path d="M180.863 221.602L241.001 161.612" stroke="#373737" stroke-width="0.1001" stroke-miterlimit="10"/>
</g>
<mask id="mask9_1416_4649" style="mask-type:luminance" maskUnits="userSpaceOnUse" x="197" y="107" width="30" height="101">
<path d="M226.869 107.226H197.621V207.1H226.869V107.226Z" fill="white"/>
</mask>
<g mask="url(#mask9_1416_4649)">
<path d="M180.863 235.117L241.001 175.127" stroke="#373737" stroke-width="0.1001" stroke-miterlimit="10"/>
</g>
<mask id="mask10_1416_4649" style="mask-type:luminance" maskUnits="userSpaceOnUse" x="197" y="107" width="30" height="101">
<path d="M226.869 107.226H197.621V207.1H226.869V107.226Z" fill="white"/>
</mask>
<g mask="url(#mask10_1416_4649)">
<path d="M180.863 248.631L241.001 188.641" stroke="#373737" stroke-width="0.1001" stroke-miterlimit="10"/>
</g>
</g>
<defs>
<clipPath id="clip0_1416_4649">
<rect width="186" height="145" fill="white" transform="translate(55 63)"/>
</clipPath>
</defs>
</svg>
