<svg width="337" height="69" viewBox="0 0 337 69" fill="none" xmlns="http://www.w3.org/2000/svg">
<path d="M175.087 40.8096C172.373 39.7728 170.24 38.4249 168.707 36.7867L170.053 34.5471C171.503 36.0609 173.45 37.3051 175.874 38.2797C178.318 39.2336 180.886 39.7105 183.579 39.7105C187.473 39.7105 190.456 38.964 192.444 37.471C194.433 35.9987 195.447 34.0495 195.447 31.6648C195.447 29.8399 194.93 28.3469 193.853 27.2686C192.817 26.1696 191.471 25.3401 189.938 24.7387C188.364 24.1374 186.251 23.5568 183.62 22.9347C180.596 22.1881 178.194 21.4624 176.371 20.7781C174.569 20.073 173.015 18.9947 171.731 17.5224C170.468 16.0501 169.826 14.1009 169.826 11.6125C169.826 9.62178 170.343 7.77622 171.42 6.11729C172.456 4.45837 174.092 3.15196 176.267 2.13587C178.421 1.16125 181.135 0.663574 184.407 0.663574C186.665 0.663574 188.902 0.995358 191.077 1.65893C193.273 2.3225 195.157 3.23491 196.752 4.35469L195.634 6.76013C193.998 5.61961 192.196 4.76941 190.207 4.16805C188.239 3.56669 186.292 3.29712 184.387 3.29712C180.576 3.29712 177.738 4.06437 175.749 5.57814C173.802 7.09191 172.829 9.08262 172.829 11.5088C172.829 13.3336 173.347 14.8267 174.424 15.905C175.459 17.004 176.785 17.8335 178.339 18.4348C179.913 19.0362 182.025 19.6583 184.739 20.3218C187.763 21.0684 190.166 21.7941 191.947 22.4785C193.749 23.1835 195.282 24.2411 196.566 25.6719C197.829 27.1027 198.472 29.0312 198.472 31.4574C198.472 33.4481 197.933 35.2729 196.856 36.9111C195.779 38.5493 194.122 39.8557 191.906 40.8303C189.669 41.8049 186.934 42.3026 183.703 42.3026C180.679 42.3648 177.8 41.8257 175.087 40.8096Z" fill="#373737"/>
<path d="M214.441 3.67036H199.652V0.974609H232.192V3.67036H217.424V42.0538H214.441V3.67036Z" fill="#373737"/>
<path d="M264.238 39.358V42.0538H235.902V0.974609H263.368V3.67036H238.906V19.8864H260.779V22.5199H238.906V39.3787L264.238 39.358Z" fill="#373737"/>
<path d="M298.33 4.64498C301.25 7.0919 302.721 10.472 302.721 14.8266C302.721 19.1398 301.25 22.5199 298.33 24.9668C295.409 27.4137 291.349 28.6372 286.192 28.6372H274.468V42.0745H271.465V0.974609H286.171C291.37 0.974609 295.409 2.17733 298.33 4.64498ZM296.238 23.0383C298.537 21.1098 299.717 18.3726 299.717 14.8266C299.717 11.26 298.557 8.52272 296.238 6.57348C293.938 4.64498 290.583 3.67036 286.212 3.67036H274.489V25.9207H286.212C290.583 25.9207 293.918 24.9668 296.238 23.0383Z" fill="#373737"/>
<path d="M312.665 40.8096C309.951 39.7728 307.818 38.4249 306.285 36.7867L307.631 34.5471C309.081 36.0609 311.028 37.3051 313.452 38.2797C315.896 39.2336 318.464 39.7105 321.157 39.7105C325.051 39.7105 328.034 38.964 330.022 37.471C332.011 35.9987 333.026 34.0495 333.026 31.6648C333.026 29.8399 332.508 28.3469 331.431 27.2686C330.395 26.1696 329.049 25.3401 327.516 24.7387C325.942 24.1374 323.829 23.5568 321.198 22.9347C318.174 22.1881 315.772 21.4624 313.949 20.7781C312.147 20.073 310.593 18.9947 309.309 17.5224C308.046 16.0501 307.404 14.1009 307.404 11.6125C307.404 9.62178 307.921 7.77622 308.999 6.11729C310.034 4.45837 311.671 3.15196 313.845 2.13587C316 1.16125 318.713 0.663574 321.986 0.663574C324.243 0.663574 326.48 0.995358 328.655 1.65893C330.851 2.3225 332.736 3.23491 334.33 4.35469L333.212 6.76013C331.576 5.61961 329.774 4.76941 327.785 4.16805C325.817 3.56669 323.87 3.29712 321.965 3.29712C318.154 3.29712 315.316 4.06437 313.328 5.57814C311.381 7.09191 310.407 9.08262 310.407 11.5088C310.407 13.3336 310.925 14.8267 312.002 15.905C313.038 17.004 314.363 17.8335 315.917 18.4348C317.491 19.0362 319.604 19.6583 322.317 20.3218C325.341 21.0684 327.744 21.7941 329.525 22.4785C331.327 23.1835 332.86 24.2411 334.144 25.6719C335.408 27.1027 336.05 29.0312 336.05 31.4574C336.05 33.4481 335.511 35.2729 334.434 36.9111C333.357 38.5493 331.7 39.8557 329.484 40.8303C327.247 41.8049 324.513 42.3026 321.281 42.3026C318.257 42.3648 315.399 41.8257 312.665 40.8096Z" fill="#373737"/>
<path fill-rule="evenodd" clip-rule="evenodd" d="M85.8344 2.01125C85.8344 1.638 85.9587 1.30621 86.1865 1.07811C86.4143 0.850006 86.7665 0.725586 87.2222 0.725586H107.707C109.903 0.725586 111.912 1.07811 113.818 1.80389C115.723 2.50893 117.38 3.48355 118.789 4.72774C120.218 5.97194 121.336 7.4235 122.144 9.06169C122.952 10.6999 123.366 12.4832 123.366 14.3495C123.366 15.6144 123.18 16.8172 122.786 17.9992C122.413 19.1397 121.833 20.218 121.15 21.2133C120.466 22.2087 119.638 23.1211 118.685 23.9298C117.732 24.7385 116.655 25.4436 115.516 26.0242L123.698 39.5859C123.843 39.8555 124.029 40.1665 124.278 40.5191C124.505 40.8716 124.63 41.1826 124.63 41.4522C124.63 41.7633 124.526 41.9706 124.298 42.1365C124.091 42.3024 123.781 42.3646 123.387 42.3646H112.471C112.119 42.3646 111.788 42.2609 111.498 42.0743C111.208 41.8877 111.021 41.6388 110.918 41.3071L103.233 28.5126H98.0965V41.1412C98.0965 41.9499 97.6201 42.3646 96.6465 42.3646H87.1807C86.7458 42.3646 86.4144 42.2609 86.1658 42.0536C85.8965 41.8669 85.793 41.5559 85.793 41.1412V2.01125H85.8344ZM110.628 14.4947C110.628 13.914 110.504 13.3749 110.276 12.815C110.048 12.2344 109.696 11.7367 109.302 11.2598C108.867 10.7828 108.37 10.4096 107.79 10.0985C107.21 9.78747 106.547 9.5801 105.843 9.47642C105.263 9.43495 104.704 9.41421 104.207 9.37274C103.689 9.352 103.13 9.33127 102.529 9.33127H98.1793V19.6166H103.979C104.352 19.6166 104.683 19.6166 104.994 19.5959C105.284 19.5751 105.615 19.5544 105.967 19.4922C106.713 19.43 107.376 19.2226 107.956 18.9116C108.556 18.6005 109.054 18.2273 109.447 17.771C109.82 17.3148 110.131 16.7964 110.359 16.2158C110.524 15.6559 110.628 15.0753 110.628 14.4947Z" fill="#6362B0"/>
<path d="M123.387 42.4475H112.471C112.098 42.4475 111.746 42.3438 111.456 42.1365C111.145 41.9291 110.959 41.6803 110.855 41.3277L103.212 28.5955H98.2204V41.1411C98.2204 42.0121 97.7026 42.4475 96.6876 42.4475H87.2218C86.7661 42.4475 86.414 42.3438 86.1447 42.1157C85.8755 41.9084 85.7305 41.5973 85.7305 41.1411V1.92825H85.7512C85.7719 1.55499 85.8962 1.2232 86.1447 1.01584C86.3933 0.766998 86.7661 0.642578 87.2425 0.642578H107.728C109.923 0.642578 111.932 0.995101 113.859 1.72088C115.785 2.44666 117.463 3.42128 118.85 4.66548C120.28 5.88893 121.398 7.36123 122.227 9.02016C123.034 10.6583 123.449 12.4624 123.449 14.3495C123.449 15.6144 123.262 16.8586 122.869 18.0198C122.517 19.0981 121.957 20.1972 121.212 21.2547C120.528 22.2501 119.7 23.1625 118.726 23.992C117.773 24.8007 116.738 25.485 115.64 26.0449L123.759 39.5237C123.904 39.7932 124.091 40.1043 124.319 40.4568C124.567 40.8301 124.692 41.1618 124.692 41.4314C124.692 41.7839 124.567 42.0121 124.319 42.1987C124.132 42.3646 123.822 42.4475 123.387 42.4475ZM98.034 28.4089H103.316L103.336 28.4503L111.021 41.2655C111.104 41.5558 111.27 41.7839 111.56 41.9706C111.829 42.1572 112.139 42.2402 112.492 42.2402H123.407C123.78 42.2402 124.07 42.1572 124.257 42.0121C124.464 41.8669 124.547 41.6803 124.547 41.39C124.547 41.1411 124.422 40.8508 124.215 40.519C123.987 40.1665 123.78 39.8554 123.635 39.5859L115.412 25.9412L115.495 25.8997C116.613 25.3398 117.67 24.6348 118.643 23.8261C119.596 23.0173 120.425 22.1049 121.108 21.1303C121.833 20.0728 122.392 18.9944 122.745 17.9369C123.117 16.7756 123.304 15.5729 123.304 14.3287C123.304 12.4624 122.89 10.6998 122.102 9.08236C121.295 7.44417 120.176 5.99262 118.768 4.76916C117.38 3.5457 115.723 2.57108 113.817 1.86604C111.912 1.14026 109.923 0.808471 107.748 0.808471H87.2632C86.8283 0.808471 86.4969 0.912154 86.2897 1.14026C86.0826 1.32689 85.9583 1.63794 85.9583 2.01119V2.09414H85.9376V41.1411C85.9376 41.5351 86.0412 41.8047 86.2897 41.9706C86.5383 42.1779 86.849 42.2609 87.2632 42.2609H96.7291C97.6404 42.2609 98.0961 41.8876 98.0961 41.1411V28.4089H98.034ZM103.937 19.6995H98.0547V9.24826H102.487C103.129 9.24826 103.709 9.26899 104.186 9.28973H104.372C104.828 9.31047 105.325 9.33121 105.843 9.37268C106.568 9.47636 107.251 9.68373 107.831 9.99478C108.432 10.3058 108.95 10.6998 109.385 11.1768C109.82 11.6952 110.151 12.2136 110.379 12.7527C110.627 13.3334 110.752 13.914 110.752 14.4739C110.752 15.0752 110.648 15.6559 110.462 16.2365C110.255 16.8171 109.944 17.3355 109.55 17.8125C109.136 18.2687 108.618 18.6627 108.018 18.9737C107.417 19.2848 106.733 19.4921 105.988 19.5543C105.677 19.5958 105.408 19.6165 105.139 19.6373L105.014 19.658C104.662 19.6995 104.331 19.6995 103.937 19.6995ZM98.2411 19.5129H103.958C104.331 19.5129 104.662 19.5129 104.973 19.4921L105.097 19.4714C105.346 19.4507 105.636 19.4299 105.926 19.3884C106.651 19.3262 107.313 19.1189 107.893 18.8286C108.473 18.5175 108.97 18.1442 109.364 17.7088C109.737 17.2526 110.047 16.7549 110.255 16.195C110.441 15.6351 110.524 15.0752 110.524 14.4946C110.524 13.9555 110.4 13.3956 110.172 12.8357C109.965 12.3173 109.633 11.8196 109.219 11.3219C108.805 10.8657 108.308 10.4925 107.728 10.1814C107.168 9.87035 106.506 9.66299 105.801 9.58004C105.304 9.53857 104.807 9.51783 104.351 9.4971H104.165C103.709 9.47636 103.129 9.45562 102.487 9.45562H98.2411V19.5129Z" fill="#6362B0"/>
<path fill-rule="evenodd" clip-rule="evenodd" d="M35.2773 21.5866C35.2773 19.6166 35.5673 17.7089 36.1266 15.9048C36.7065 14.08 37.5143 12.3588 38.5707 10.7621C39.6063 9.1654 40.8905 7.71384 42.3819 6.40743C43.8525 5.10103 45.4888 3.98126 47.2701 3.04811C49.0722 2.11496 50.9985 1.40992 53.0698 0.891506C55.1411 0.373092 57.2745 0.103516 59.5322 0.103516C61.7485 0.103516 63.9026 0.373092 65.9739 0.891506C68.0452 1.40992 69.9922 2.1357 71.7943 3.04811C73.5963 3.96052 75.2119 5.10103 76.7239 6.40743C78.1946 7.71384 79.4788 9.1654 80.5351 10.7621C81.5708 12.3588 82.3993 14.08 82.9793 15.9048C83.5592 17.7296 83.8492 19.6166 83.8492 21.5866C83.8492 23.5773 83.5385 25.4643 82.9793 27.2892C82.3993 29.114 81.5708 30.8144 80.5351 32.4111C79.4995 33.9871 78.236 35.4386 76.7239 36.7243C75.2326 38.0307 73.5963 39.1505 71.7943 40.0836C69.9922 41.0168 68.0659 41.7218 65.9739 42.2402C63.8819 42.7379 61.7485 43.0075 59.5322 43.0075C57.2745 43.0075 55.1411 42.7379 53.0698 42.2402C50.9985 41.7425 49.0722 41.0168 47.2701 40.0836C45.4681 39.1505 43.8318 38.0307 42.3819 36.7243C40.9113 35.4386 39.6478 33.9871 38.5707 32.4111C37.4936 30.8351 36.6858 29.1347 36.1266 27.2892C35.5673 25.4643 35.2773 23.5566 35.2773 21.5866ZM47.5808 21.5244C47.5808 23.0796 47.8708 24.5312 48.4508 25.8791C49.0515 27.227 49.88 28.4089 50.957 29.3836C52.0341 30.3789 53.2769 31.1669 54.7268 31.7475C56.1767 32.3282 57.7923 32.5977 59.5529 32.5977C61.2928 32.5977 62.9084 32.3074 64.379 31.7475C65.8496 31.1669 67.1131 30.3997 68.1902 29.3836C69.2673 28.3882 70.0958 27.227 70.6551 25.8791C71.2557 24.5519 71.525 23.1004 71.525 21.5244C71.525 20.0106 71.235 18.5591 70.6551 17.1905C70.0544 15.8426 69.2259 14.6606 68.1902 13.6445C67.1131 12.6491 65.8704 11.8404 64.379 11.2598C62.9291 10.6792 61.3135 10.3889 59.5529 10.3889C57.7923 10.3889 56.1974 10.6792 54.7268 11.2598C53.2769 11.8404 52.0134 12.6491 50.957 13.6445C49.88 14.6399 49.0515 15.8426 48.4508 17.1905C47.8708 18.5591 47.5808 20.0106 47.5808 21.5244Z" fill="#6362B0"/>
<path d="M59.5537 43.0906C57.3167 43.0906 55.204 42.8418 53.0706 42.3233C50.9579 41.8049 49.0523 41.0999 47.2502 40.146C45.4275 39.2129 43.7705 38.0723 42.3413 36.7867C40.9121 35.5425 39.6279 34.0909 38.5301 32.4735C37.4737 30.939 36.6452 29.1971 36.0653 27.3308C35.4853 25.506 35.1953 23.5775 35.1953 21.5868C35.1953 19.5961 35.4853 17.6883 36.0653 15.8635C36.6452 14.0179 37.4737 12.2761 38.5301 10.7001C39.545 9.14483 40.8292 7.67253 42.3413 6.32466C43.8119 5.01825 45.4482 3.89848 47.2502 2.96533C49.0523 2.03218 50.9579 1.32714 53.0706 0.78799C55.1626 0.24884 57.296 0 59.5537 0C61.77 0 63.9449 0.269576 66.0162 0.78799C68.1289 1.32714 70.0966 2.05292 71.8572 2.96533C73.6385 3.87774 75.2541 4.97678 76.7869 6.32466C78.299 7.67253 79.5832 9.14483 80.5981 10.7001C81.6337 12.2761 82.4623 13.9972 83.0629 15.8635C83.6636 17.7712 83.9536 19.6375 83.9536 21.5868C83.9536 23.536 83.6636 25.423 83.0629 27.3308C82.5037 29.1141 81.6959 30.7938 80.5981 32.4735C79.521 34.0909 78.2368 35.5425 76.7869 36.8074C75.2956 38.1138 73.6385 39.2543 71.8572 40.1667C70.0345 41.0999 68.1289 41.8049 66.0162 42.3441C63.8827 42.8418 61.7079 43.0906 59.5537 43.0906ZM59.5537 0.186629C57.296 0.186629 55.1833 0.435469 53.112 0.97462C51.02 1.51377 49.1351 2.21881 47.3331 3.13122C45.5518 4.06437 43.8947 5.18414 42.4448 6.46981C40.9535 7.79695 39.6693 9.26925 38.6544 10.8038C37.6187 12.359 36.7902 14.0801 36.2102 15.9257C35.651 17.709 35.361 19.6168 35.361 21.5868C35.361 23.536 35.651 25.4645 36.2102 27.2686C36.7902 29.1141 37.598 30.8353 38.6544 32.3698C39.7522 33.9872 41.0364 35.4181 42.4448 36.6623C43.874 37.9479 45.5104 39.0677 47.3331 40.0008C49.1351 40.9547 51.02 41.6598 53.112 42.1574C55.2247 42.6759 57.3375 42.9247 59.5537 42.9247C61.7079 42.9247 63.862 42.6759 65.9748 42.1574C68.0875 41.639 69.9724 40.934 71.7744 40.0008C73.535 39.0884 75.192 37.9479 76.6833 36.6623C78.1332 35.4181 79.3967 33.9872 80.4738 32.3698C81.5716 30.7109 82.3587 29.0312 82.9179 27.2686C83.4979 25.3816 83.7879 23.5153 83.7879 21.5868C83.7879 19.679 83.4979 17.8127 82.9179 15.9257C82.3173 14.0801 81.5095 12.359 80.4738 10.8038C79.4589 9.24851 78.1747 7.79695 76.6833 6.46981C75.1506 5.12193 73.535 4.02289 71.7744 3.13122C70.0138 2.23955 68.0668 1.51377 65.9748 0.97462C63.9242 0.435469 61.7493 0.186629 59.5537 0.186629ZM59.5744 32.6808C57.8138 32.6808 56.1775 32.3905 54.7069 31.8099C53.257 31.2293 51.9728 30.4413 50.8957 29.4459C49.8187 28.4713 48.9694 27.2893 48.3687 25.9207C47.7888 24.5728 47.4781 23.1005 47.4781 21.5246C47.4781 19.9693 47.7681 18.497 48.3687 17.1491C48.9694 15.7805 49.8187 14.5778 50.8957 13.5825C51.9935 12.5456 53.2777 11.7369 54.7069 11.177C56.1775 10.5757 57.7724 10.2853 59.5744 10.2853C61.3143 10.2853 62.9299 10.5757 64.442 11.177C65.8712 11.7369 67.1761 12.5456 68.2739 13.5825C69.3717 14.6608 70.1795 15.822 70.7594 17.1491C71.3394 18.497 71.6501 19.9693 71.6501 21.5246C71.6501 23.1213 71.3601 24.5936 70.7594 25.9207C70.2002 27.2479 69.351 28.4298 68.2739 29.4459C67.1968 30.462 65.9126 31.25 64.442 31.8099C62.9507 32.3905 61.3143 32.6808 59.5744 32.6808ZM59.5744 10.4927C57.8138 10.4927 56.2397 10.783 54.7898 11.3636C53.3813 11.9235 52.1178 12.7115 51.0407 13.7276C49.9844 14.7022 49.1558 15.8842 48.5552 17.2528C47.9752 18.58 47.6852 20.0108 47.6852 21.5453C47.6852 23.1005 47.9752 24.5521 48.5552 25.8585C49.1351 27.2064 49.9844 28.3676 51.02 29.3215C52.0764 30.3169 53.3399 31.1049 54.769 31.6647C56.1982 32.2246 57.8139 32.5149 59.5537 32.5149C61.2729 32.5149 62.8885 32.2246 64.3384 31.6647C65.7883 31.1049 67.0518 30.3169 68.1082 29.3215C69.1853 28.3262 69.9931 27.1649 70.5523 25.8585C71.1323 24.5521 71.4223 23.1005 71.4223 21.5453C71.4223 20.0108 71.1323 18.58 70.5523 17.2528C69.9723 15.9464 69.1645 14.7852 68.1082 13.7276C67.0104 12.7115 65.7469 11.9235 64.3384 11.3636C62.8885 10.783 61.2729 10.4927 59.5744 10.4927Z" fill="#6362B0"/>
<path fill-rule="evenodd" clip-rule="evenodd" d="M38.7711 3.75341C39.1232 3.94004 39.3924 4.18888 39.5582 4.49993C39.7239 4.79024 39.7031 5.14276 39.4546 5.57823L34.1106 12.3176C33.8828 12.6287 33.6342 12.8153 33.365 12.8568C33.0957 12.8982 32.7643 12.836 32.3915 12.6287C31.3558 11.9444 30.1959 11.4052 28.9738 11.032C27.7103 10.6587 26.4054 10.4928 24.9969 10.4928C23.2571 10.4928 21.6622 10.7831 20.2123 11.3637C18.7624 11.9444 17.4989 12.7531 16.4425 13.7484C15.4069 14.7438 14.5576 15.9465 13.9777 17.2737C13.377 18.6008 13.1077 20.0524 13.1077 21.5869C13.1077 23.1006 13.3977 24.5315 13.9777 25.9001C14.5783 27.2272 15.4069 28.4092 16.4425 29.4046C17.5196 30.3999 18.7416 31.1879 20.2123 31.7893C21.6622 32.3699 23.2571 32.6602 24.9969 32.6602C26.4054 32.6602 27.7311 32.4736 28.9945 32.0796C30.258 31.7063 31.418 31.1672 32.4329 30.4621C32.8057 30.2548 33.1164 30.1718 33.3857 30.1925C33.655 30.234 33.8828 30.3999 34.1521 30.6902L39.5789 37.5955C39.8067 38.031 39.8481 38.3628 39.6824 38.6323C39.5167 38.9226 39.2475 39.1507 38.8953 39.3166C36.9069 40.4986 34.7735 41.411 32.4743 42.0539C30.1959 42.6967 27.7725 43.0285 25.2248 43.0285C22.9878 43.0285 20.8544 42.7589 18.7831 42.2612C16.7118 41.7636 14.7855 41.0378 12.9834 40.1046C11.1814 39.1715 9.54509 38.0517 8.05376 36.7453C6.58314 35.4596 5.31965 34.0081 4.24258 32.4321C3.20693 30.8561 2.3577 29.1557 1.79845 27.3102C1.21849 25.4853 0.949219 23.5983 0.949219 21.6076C0.949219 19.6376 1.2392 17.7299 1.79845 15.9258C2.37841 14.101 3.20693 12.3798 4.24258 10.7831C5.27822 9.1864 6.56243 7.73484 8.05376 6.42843C9.52438 5.12203 11.1607 4.00225 12.9834 3.06911C14.7855 2.13596 16.7118 1.43092 18.7831 0.912502C20.8544 0.394088 22.9878 0.124512 25.2248 0.124512C27.7725 0.124512 30.1752 0.43556 32.4122 1.05766C34.6699 1.65902 36.7826 2.57143 38.7711 3.75341Z" fill="#6362B0"/>
<path d="M25.2061 43.1113C23.0105 43.1113 20.8356 42.8625 18.7436 42.3441C16.6309 41.8257 14.7253 41.1206 12.9233 40.1667C11.1213 39.2336 9.46424 38.1138 7.99362 36.8074C6.56443 35.5632 5.28022 34.1117 4.18244 32.4735C3.10537 30.856 2.27685 29.1349 1.7176 27.3308C1.13764 25.4645 0.847656 23.5982 0.847656 21.5868C0.847656 19.5961 1.13764 17.6883 1.7176 15.8635C2.27685 14.0801 3.10537 12.3383 4.18244 10.7001C5.19737 9.14483 6.48158 7.67253 7.99362 6.32466C9.46424 5.01825 11.1213 3.87774 12.9233 2.96533C14.7253 2.03218 16.6309 1.32714 18.7436 0.78799C20.8149 0.269576 22.9898 0 25.2061 0C27.7538 0 30.1772 0.311049 32.4142 0.933146C34.6719 1.55524 36.826 2.46765 38.8145 3.64964C39.1873 3.857 39.4566 4.10584 39.643 4.41689C39.8294 4.72794 39.788 5.12193 39.5394 5.57814L34.1748 12.3175C33.9055 12.67 33.657 12.8567 33.3877 12.8981C33.0977 12.9604 32.7456 12.8567 32.352 12.6493C31.3371 11.9857 30.1979 11.4466 28.9551 11.0526C27.7538 10.6793 26.4489 10.5134 25.0197 10.5134C23.2798 10.5134 21.6849 10.8038 20.2764 11.3844C18.8679 11.9443 17.6044 12.7323 16.5274 13.7483C15.4917 14.7437 14.6632 15.905 14.0832 17.2321C13.5033 18.5385 13.2133 19.9693 13.2133 21.5038C13.2133 23.0383 13.5033 24.4277 14.0832 25.7756C14.6632 27.082 15.4917 28.2432 16.5274 29.2386C17.6044 30.2339 18.8265 31.0219 20.2764 31.6025C21.747 32.1832 23.3419 32.4735 25.0197 32.4735C26.4074 32.4735 27.7331 32.2868 28.9965 31.9136C30.3015 31.5196 31.4614 30.9804 32.4142 30.3169C32.787 30.1095 33.1184 30.0058 33.4291 30.0473C33.7191 30.0888 33.9677 30.2547 34.2576 30.5657L39.6844 37.471C39.933 37.9272 39.9744 38.3004 39.788 38.6115C39.6016 38.9225 39.3323 39.1714 38.9595 39.3373C36.9503 40.54 34.8376 41.4317 32.5178 42.0745C30.1772 42.7795 27.7331 43.1113 25.2061 43.1113ZM25.2061 0.207366C22.9898 0.207366 20.8356 0.476942 18.7851 0.995356C16.6931 1.53451 14.8082 2.23955 13.0062 3.15196C11.2248 4.06437 9.56781 5.20488 8.09719 6.49055C6.60585 7.81769 5.32165 9.28999 4.30672 10.8245C3.25036 12.4419 2.42184 14.1631 1.86259 15.9464C1.30334 17.7298 1.01336 19.6375 1.01336 21.6075C1.01336 23.5982 1.28263 25.4438 1.86259 27.2893C2.42184 29.0727 3.22964 30.7938 4.30672 32.3905C5.4045 34.008 6.68871 35.4388 8.09719 36.683C9.56781 37.9894 11.2041 39.1092 13.0062 40.0216C14.8082 40.9755 16.6931 41.6805 18.7851 42.1782C20.8771 42.6759 23.0312 42.9454 25.2061 42.9454C27.7123 42.9454 30.1358 42.6137 32.4349 41.9708C34.734 41.328 36.826 40.4363 38.8352 39.2336C39.1666 39.0677 39.4359 38.8603 39.5809 38.57C39.7258 38.3005 39.7051 38.0101 39.4773 37.6161L34.0712 30.7316C33.8227 30.462 33.5948 30.2961 33.367 30.2547C33.1184 30.2339 32.8077 30.3169 32.4763 30.5035C31.5028 31.1878 30.3429 31.727 29.0173 32.121C27.7538 32.4942 26.4074 32.7016 24.9989 32.7016C23.3005 32.7016 21.6849 32.4113 20.1935 31.8099C18.7229 31.2085 17.4802 30.4413 16.3824 29.4045C15.326 28.3884 14.4768 27.2064 13.8968 25.8792C13.2961 24.5106 13.0062 23.1005 13.0062 21.5453C13.0062 19.9901 13.2961 18.5178 13.8968 17.2114C14.4975 15.8635 15.3467 14.6608 16.3824 13.6654C17.4802 12.6286 18.7644 11.8198 20.1935 11.26C21.6227 10.6793 23.2383 10.3683 24.9989 10.3683C26.4696 10.3683 27.7745 10.5549 28.9965 10.9282C30.26 11.3222 31.42 11.8613 32.4349 12.5249C32.7663 12.7115 33.0977 12.7945 33.3463 12.753C33.5741 12.7115 33.802 12.5456 34.0298 12.2346L39.3737 5.49519C39.5809 5.12194 39.6223 4.79015 39.4566 4.52057C39.3116 4.23026 39.063 4.00216 38.7109 3.81553C36.7432 2.63355 34.6098 1.72114 32.3728 1.11978C30.1565 0.518415 27.7538 0.207366 25.2061 0.207366Z" fill="#6362B0"/>
<path d="M160.855 32.7222H139.562V25.3607L132.002 25.2985C129.392 25.2778 127.238 27.3929 127.238 30.0057V41.162C127.238 41.5767 127.363 41.867 127.611 42.0744C127.88 42.261 128.212 42.3854 128.626 42.3854H160.71C161.497 42.3854 161.932 42.1159 162.015 41.5974C162.181 41.4523 162.285 41.2864 162.285 41.0998V34.0286C162.285 33.1577 161.808 32.7222 160.855 32.7222Z" fill="#6362B0"/>
<path d="M160.732 42.4683H128.648C128.233 42.4683 127.86 42.3646 127.571 42.1365C127.301 41.9291 127.156 41.5974 127.156 41.1619V30.0056C127.156 28.7199 127.653 27.4965 128.585 26.6048C129.497 25.6924 130.719 25.1947 132.003 25.2155L139.646 25.2777V32.6392H160.856C161.85 32.6392 162.368 33.1161 162.389 34.0285V41.0997C162.389 41.307 162.306 41.4937 162.12 41.6388C162.016 42.1987 161.54 42.4683 160.732 42.4683ZM131.962 25.3814C130.74 25.3814 129.58 25.8583 128.71 26.7292C127.819 27.6002 127.343 28.7614 127.343 30.0056V41.1619C127.343 41.5559 127.446 41.8255 127.695 41.9914C127.964 42.178 128.295 42.2817 128.668 42.2817H160.753C161.478 42.2817 161.892 42.0536 161.975 41.5766V41.5352L161.995 41.5144C162.14 41.39 162.223 41.2448 162.223 41.0789V34.0078C162.203 33.1783 161.768 32.7843 160.856 32.7843H139.46V25.4228L132.003 25.3814C131.982 25.3814 131.962 25.3814 131.962 25.3814Z" fill="#6362B0"/>
<path d="M139.561 10.3478H160.109C160.585 10.3478 160.958 10.2027 161.227 9.91238C161.496 9.62206 161.6 9.31102 161.6 8.99997V2.05322C161.6 1.63848 161.476 1.3067 161.227 1.0786C160.978 0.850495 160.606 0.726074 160.15 0.726074H128.646C128.19 0.726074 127.858 0.850495 127.631 1.0786C127.403 1.3067 127.258 1.61775 127.258 2.01174V11.4054C127.258 14.5159 129.785 17.025 132.871 17.025H139.541V10.3478H139.561Z" fill="#6362B0"/>
<path d="M139.625 17.1284H132.852C129.704 17.1284 127.156 14.5778 127.156 11.4259V2.03219C127.156 1.63819 127.301 1.30641 127.571 1.03683C127.819 0.787993 128.192 0.663574 128.648 0.663574H160.152C160.628 0.663574 161.001 0.787993 161.291 1.03683C161.56 1.28567 161.705 1.63819 161.705 2.07366V9.02041C161.705 9.37294 161.56 9.68398 161.312 9.99503C161.043 10.3061 160.628 10.4512 160.131 10.4512H139.667V17.1284H139.625ZM128.648 0.829466C128.233 0.829466 127.902 0.933148 127.695 1.16125C127.467 1.38935 127.343 1.67967 127.343 2.03219V11.4259C127.343 14.4741 129.828 16.9625 132.873 16.9625H139.46V10.2853H160.111C160.566 10.2853 160.918 10.1609 161.167 9.89135C161.395 9.64251 161.519 9.3522 161.519 9.04115V2.0944C161.519 1.7004 161.395 1.38935 161.167 1.18199C160.918 0.953886 160.587 0.850202 160.152 0.850202H128.648V0.829466Z" fill="#6362B0"/>
<path d="M150.292 17.0659H141.344V25.1324H150.292V17.0659Z" fill="#6362B0"/>
<path d="M150.375 25.2156H141.262V16.9624H150.375V25.2156ZM141.427 25.0289H150.189V17.149H141.427V25.0289Z" fill="#6362B0"/>
<path d="M63.4454 58.8711V67.1242H62.8447V63.205H57.335V67.1242H56.7344V58.8711H57.335V62.6659H62.8447V58.8711H63.4454Z" fill="#373737"/>
<path d="M89.0027 64.8018H84.218L83.1616 67.1242H82.5195L86.31 58.8711H86.9107L90.7011 67.1242H90.059L89.0027 64.8018ZM88.7748 64.2833L86.6 59.5139L84.4458 64.2833H88.7748Z" fill="#373737"/>
<path d="M116.488 58.8711V67.1242H115.991L110.378 59.9494V67.1242H109.777V58.8711H110.274L115.888 66.0459V58.8711H116.488Z" fill="#373737"/>
<path d="M136.957 58.8711H140.209C141.058 58.8711 141.825 59.0577 142.487 59.4102C143.15 59.7628 143.668 60.2604 144.041 60.8825C144.414 61.5046 144.6 62.2097 144.6 63.0184C144.6 63.8064 144.414 64.5114 144.041 65.1543C143.668 65.7764 143.15 66.2741 142.487 66.6266C141.825 66.9791 141.058 67.1657 140.209 67.1657H136.957V58.8711ZM140.168 66.5851C140.934 66.5851 141.597 66.4399 142.177 66.1289C142.757 65.8178 143.212 65.4031 143.523 64.864C143.834 64.3248 143.999 63.7027 143.999 62.9977C143.999 62.2926 143.834 61.6705 143.523 61.1314C143.212 60.5922 142.757 60.1568 142.177 59.8664C141.597 59.5554 140.934 59.4102 140.168 59.4102H137.558V66.5851H140.168Z" fill="#373737"/>
<path d="M192.672 67.1245L192.651 60.0741L189.192 66.0462H188.902L185.443 60.1155V67.1452H184.863V58.8921H185.36L189.047 65.2789L192.734 58.8921H193.231L193.252 67.1452H192.672V67.1245Z" fill="#373737"/>
<path d="M218.835 64.8018H214.05L212.994 67.1242H212.352L216.142 58.8711H216.743L220.533 67.1242H219.891L218.835 64.8018ZM218.607 64.2833L216.432 59.5139L214.278 64.2833H218.607Z" fill="#373737"/>
<path d="M239.629 58.8711H242.881C243.73 58.8711 244.496 59.0577 245.159 59.4102C245.822 59.7628 246.34 60.2604 246.713 60.8825C247.086 61.5046 247.272 62.2097 247.272 63.0184C247.272 63.8064 247.086 64.5114 246.713 65.1543C246.34 65.7764 245.822 66.2741 245.159 66.6266C244.496 66.9791 243.73 67.1657 242.881 67.1657H239.629V58.8711ZM242.839 66.5851C243.606 66.5851 244.269 66.4399 244.849 66.1289C245.429 65.8178 245.884 65.4031 246.195 64.864C246.506 64.3248 246.671 63.7027 246.671 62.9977C246.671 62.2926 246.506 61.6705 246.195 61.1314C245.884 60.5922 245.429 60.1568 244.849 59.8664C244.269 59.5554 243.606 59.4102 242.839 59.4102H240.23V66.5851H242.839Z" fill="#373737"/>
<path d="M273.208 66.5851V67.1242H267.512V58.8711H273.021V59.4102H268.112V62.6659H272.504V63.205H268.112V66.5851H273.208Z" fill="#373737"/>
<path d="M161.186 62.5827C161.186 60.6957 161.186 58.9124 161.186 57.1497C161.186 56.5069 161.517 56.03 162.097 55.9056C162.387 55.8641 162.698 55.9056 163.05 55.9056C163.195 55.4494 163.485 55.0346 164.127 54.9517C164.728 54.8895 165.142 55.159 165.411 55.6982C166.509 55.3457 167.296 55.6774 167.358 57.1912C167.462 57.1705 167.524 57.1497 167.628 57.129C168.498 56.9424 169.14 57.4401 169.14 58.4147C169.16 60.6128 169.181 62.7901 169.14 64.9882C169.119 66.1702 168.684 67.2692 167.752 68.0779C167.234 68.5341 166.613 68.783 165.929 68.9074C164.976 69.0733 164.024 69.0111 163.071 68.7622C162.056 68.4927 161.289 67.8498 160.772 66.9996C159.985 65.714 159.26 64.4075 158.535 63.1011C158.203 62.4998 158.41 61.8155 158.949 61.4837C159.467 61.1519 160.212 61.2971 160.627 61.7947C160.751 62.0228 160.958 62.2509 161.186 62.5827ZM168.518 61.7325C168.518 61.5666 168.518 61.4215 168.518 61.2556C168.518 60.3017 168.518 59.3478 168.518 58.3939C168.518 57.8548 168.187 57.5645 167.731 57.7096C167.379 57.8341 167.317 58.1451 167.317 58.4562C167.296 59.3063 167.317 60.1358 167.317 61.0067C167.317 61.1312 167.338 61.2348 167.317 61.3385C167.255 61.463 167.13 61.5459 167.027 61.6703C166.923 61.5666 166.82 61.4837 166.716 61.3593C166.675 61.2971 166.716 61.1934 166.716 61.0897C166.716 59.7833 166.716 58.4769 166.716 57.1705C166.716 56.9839 166.695 56.7972 166.654 56.5899C166.613 56.3203 166.426 56.1751 166.136 56.1751C165.701 56.1751 165.494 56.3618 165.494 56.818C165.494 58.1451 165.494 59.493 165.494 60.8201C165.494 60.9445 165.494 61.0482 165.453 61.1519C165.411 61.2556 165.266 61.3178 165.163 61.3385C165.101 61.3385 164.976 61.2349 164.935 61.1519C164.893 61.0482 164.893 60.9445 164.893 60.8201C164.893 59.3893 164.893 57.9377 164.893 56.5069C164.893 56.4032 164.893 56.2995 164.893 56.1959C164.873 55.8226 164.624 55.553 164.293 55.553C163.941 55.553 163.671 55.8226 163.671 56.2166C163.671 57.7926 163.671 59.3271 163.671 60.9031C163.671 61.1104 163.651 61.3385 163.361 61.3385C163.071 61.3385 163.05 61.1312 163.05 60.9031C163.05 60.8409 163.05 60.7372 163.05 60.675C163.05 59.5137 163.05 58.311 163.05 57.1497C163.05 56.6521 162.636 56.3618 162.222 56.5277C161.911 56.6521 161.849 56.9009 161.849 57.212C161.849 59.2649 161.849 61.2763 161.849 63.3292C161.849 63.4744 161.724 63.6403 161.662 63.7855C161.497 63.7232 161.31 63.661 161.207 63.5159C160.854 63.0804 160.544 62.6449 160.192 62.2095C159.922 61.8777 159.55 61.7947 159.26 62.0228C158.99 62.2095 158.928 62.562 159.115 62.9353C159.695 63.9721 160.274 65.0504 160.875 66.1079C161.331 66.8752 161.828 67.601 162.656 67.9742C163.961 68.5549 165.349 68.6378 166.675 68.0987C168 67.518 168.477 66.3568 168.56 65.0089C168.56 63.8891 168.518 62.8108 168.518 61.7325Z" fill="#373737"/>
<path d="M337 62.873H295.305V63.1634H337V62.873Z" fill="#373737"/>
<path d="M41.6952 63.1636H0V63.4539H41.6952V63.1636Z" fill="#373737"/>
</svg>
