<svg width="296" height="270" viewBox="0 0 296 270" fill="none" xmlns="http://www.w3.org/2000/svg">
<rect x="1.35156" y="1.43018" width="293.218" height="267.141" rx="14.5" stroke="#A6A6A6"/>
<g clip-path="url(#clip0_700_4145)">
<mask id="mask0_700_4145" style="mask-type:luminance" maskUnits="userSpaceOnUse" x="52" y="63" width="192" height="144">
<path d="M243.687 63.3596H52.5391V206.72H243.687V63.3596Z" fill="white"/>
</mask>
<g mask="url(#mask0_700_4145)">
<path d="M214.981 79.8496H52.5391V105.426H214.981C222.073 105.426 227.814 99.7047 227.814 92.6376C227.814 85.5705 222.073 79.8496 214.981 79.8496Z" fill="#373737"/>
<path d="M107.587 65.3788C108.6 65.3788 109.275 66.0519 109.275 67.0614C109.275 68.071 108.6 68.7441 107.587 68.7441H105.898C104.21 68.7441 102.859 70.0902 102.859 71.7728C102.859 72.4459 102.859 72.7824 103.197 73.4555H54.2276V65.3788H107.587ZM107.587 63.6962H52.5391V74.8016H109.951C110.289 74.8016 110.626 74.4651 110.626 74.1285C110.626 73.792 110.289 73.4555 109.951 73.4555H105.898C105.223 73.4555 104.21 72.7824 104.21 71.7728C104.21 71.0998 104.885 70.0902 105.898 70.0902H107.587C109.275 70.0902 110.964 68.7441 110.964 66.7249C110.626 65.3788 109.275 63.6962 107.587 63.6962Z" fill="#373737"/>
<path d="M242.334 65.0423V75.1381V110.473V120.569H232.202H200.457V111.82H232.202H233.891V110.473V75.1381V73.4554H232.202H124.47C124.132 72.4458 123.119 71.7729 122.106 71.7729H119.742C122.444 71.7729 124.47 69.7536 124.47 67.0614C124.47 66.3884 124.132 65.3788 123.795 64.7057H231.864H242.334M243.684 63.3596H231.864H116.027V63.6961H119.742C121.431 63.6961 123.119 65.0423 123.119 67.0614C123.119 68.7441 121.768 70.4267 119.742 70.4267H118.054C117.378 70.4267 116.365 71.0998 116.365 72.1094C116.365 72.7824 117.04 73.7919 118.054 73.7919H122.106C122.444 73.7919 122.782 74.1285 122.782 74.465C122.782 74.8015 122.444 75.1381 122.106 75.1381H231.864V110.473H198.768V122.252H231.864H243.684V110.473V75.1381V63.3596Z" fill="#373737"/>
<path d="M193.026 105.426H191V206.72H193.026V105.426Z" fill="#373737"/>
</g>
</g>
<defs>
<clipPath id="clip0_700_4145">
<rect width="191.148" height="143.361" fill="white" transform="translate(52.5391 63.3596)"/>
</clipPath>
</defs>
</svg>
