<svg width="283" height="114" viewBox="0 0 283 114" fill="none" xmlns="http://www.w3.org/2000/svg">
<g filter="url(#filter0_d_1740_4803)">
<path d="M4 10.6C4 4.74578 8.74762 0 14.6041 0H268.396C274.252 0 279 4.74578 279 10.6V95.4C279 101.254 274.252 106 268.396 106H14.6041C8.74762 106 4 101.254 4 95.4V10.6Z" fill="url(#paint0_linear_1740_4803)" shape-rendering="crispEdges"/>
</g>
<path d="M191.773 22.8271V56.3864H185.034V53.5822C183.285 55.6929 180.753 56.7482 177.436 56.7482C175.144 56.7482 173.064 56.2356 171.194 55.2104C169.355 54.1853 167.908 52.7229 166.853 50.8233C165.797 48.9237 165.27 46.7226 165.27 44.22C165.27 41.7174 165.797 39.5163 166.853 37.6167C167.908 35.7171 169.355 34.2548 171.194 33.2296C173.064 32.2044 175.144 31.6918 177.436 31.6918C180.542 31.6918 182.969 32.6718 184.718 34.6317V22.8271H191.773ZM178.657 50.959C180.436 50.959 181.913 50.356 183.089 49.1499C184.265 47.9136 184.853 46.2704 184.853 44.22C184.853 42.1697 184.265 40.5415 183.089 39.3354C181.913 38.0992 180.436 37.481 178.657 37.481C176.848 37.481 175.355 38.0992 174.179 39.3354C173.004 40.5415 172.416 42.1697 172.416 44.22C172.416 46.2704 173.004 47.9136 174.179 49.1499C175.355 50.356 176.848 50.959 178.657 50.959Z" fill="white"/>
<path d="M151.598 31.6919C154.613 31.6919 157.041 32.5965 158.88 34.4056C160.749 36.2147 161.684 38.8982 161.684 42.4562V56.3864H154.628V43.5416C154.628 41.6119 154.206 40.1797 153.362 39.245C152.518 38.2801 151.297 37.7977 149.699 37.7977C147.92 37.7977 146.502 38.3555 145.447 39.4711C144.392 40.5566 143.864 42.1848 143.864 44.3557V56.3864H136.809V32.0537H143.548V34.9031C144.482 33.8779 145.643 33.094 147.03 32.5512C148.417 31.9783 149.94 31.6919 151.598 31.6919Z" fill="white"/>
<path d="M124.562 32.0538H131.618V56.3865H124.562V32.0538ZM128.09 28.6617C126.794 28.6617 125.738 28.2848 124.924 27.531C124.11 26.7772 123.703 25.8425 123.703 24.7268C123.703 23.6112 124.11 22.6765 124.924 21.9227C125.738 21.1689 126.794 20.792 128.09 20.792C129.387 20.792 130.442 21.1538 131.256 21.8775C132.07 22.6011 132.477 23.5057 132.477 24.5912C132.477 25.7671 132.07 26.747 131.256 27.531C130.442 28.2848 129.387 28.6617 128.09 28.6617Z" fill="white"/>
<path d="M105.3 30.6062V38.9734H119.953V44.853H105.3V56.3862H97.9727V24.7266H121.898V30.6062H105.3Z" fill="white"/>
<path d="M215.02 72.0213C215.444 71.2411 216.072 70.6475 216.903 70.2405C217.734 69.8334 218.743 69.6299 219.93 69.6299V71.9959C219.795 71.9789 219.608 71.9704 219.371 71.9704C218.048 71.9704 217.005 72.369 216.241 73.1662C215.495 73.9463 215.122 75.0657 215.122 76.5243V83.2407H212.68V69.7571H215.02V72.0213Z" fill="white"/>
<path d="M203.148 69.6299C205.014 69.6299 206.439 70.0878 207.423 71.0037C208.423 71.9196 208.924 73.2849 208.924 75.0996V83.2407H206.608V81.4598C206.201 82.0874 205.616 82.5708 204.853 82.91C204.107 83.2322 203.216 83.3933 202.182 83.3933C200.672 83.3933 199.46 83.0287 198.544 82.2994C197.645 81.5701 197.195 80.6118 197.195 79.4246C197.195 78.2373 197.628 77.2876 198.493 76.5752C199.358 75.8459 200.732 75.4813 202.614 75.4813H206.481V74.9979C206.481 73.9463 206.176 73.1407 205.565 72.581C204.955 72.0213 204.056 71.7415 202.869 71.7415C202.071 71.7415 201.291 71.8772 200.528 72.1485C199.765 72.4029 199.12 72.7506 198.595 73.1916L197.577 71.3599C198.272 70.8002 199.103 70.3761 200.07 70.0878C201.037 69.7825 202.063 69.6299 203.148 69.6299ZM202.589 81.5107C203.522 81.5107 204.327 81.3072 205.006 80.9001C205.684 80.4761 206.176 79.8825 206.481 79.1193V77.2367H202.716C200.647 77.2367 199.612 77.9321 199.612 79.3228C199.612 80.0012 199.875 80.5355 200.401 80.9256C200.927 81.3157 201.656 81.5107 202.589 81.5107Z" fill="white"/>
<path d="M195.982 76.5752C195.982 76.7618 195.965 77.0077 195.931 77.313H184.991C185.144 78.5002 185.661 79.4585 186.543 80.1878C187.442 80.9001 188.553 81.2563 189.876 81.2563C191.487 81.2563 192.785 80.7136 193.768 79.6281L195.117 81.2054C194.506 81.9178 193.743 82.4605 192.827 82.8336C191.928 83.2068 190.919 83.3933 189.799 83.3933C188.375 83.3933 187.111 83.105 186.009 82.5284C184.906 81.9347 184.05 81.1122 183.439 80.0606C182.846 79.009 182.549 77.8218 182.549 76.4989C182.549 75.1929 182.837 74.0142 183.414 72.9626C184.007 71.9111 184.813 71.097 185.831 70.5203C186.865 69.9267 188.027 69.6299 189.316 69.6299C190.605 69.6299 191.75 69.9267 192.751 70.5203C193.768 71.097 194.557 71.9111 195.117 72.9626C195.693 74.0142 195.982 75.2184 195.982 76.5752ZM189.316 71.6906C188.146 71.6906 187.162 72.0468 186.365 72.7591C185.585 73.4714 185.127 74.4043 184.991 75.5576H193.641C193.505 74.4212 193.039 73.4969 192.242 72.7845C191.462 72.0552 190.486 71.6906 189.316 71.6906Z" fill="white"/>
<path d="M174.368 69.6299C176.081 69.6299 177.438 70.1302 178.438 71.1309C179.456 72.1146 179.965 73.5647 179.965 75.4813V83.2407H177.522V75.7611C177.522 74.4551 177.209 73.4714 176.581 72.81C175.954 72.1485 175.055 71.8178 173.884 71.8178C172.561 71.8178 171.518 72.2079 170.755 72.9881C169.992 73.7513 169.61 74.8537 169.61 76.2954V83.2407H167.168V69.7571H169.509V71.7923C170 71.097 170.662 70.5627 171.493 70.1896C172.341 69.8164 173.299 69.6299 174.368 69.6299Z" fill="white"/>
<path d="M152.984 83.3933C151.881 83.3933 150.821 83.2492 149.804 82.9608C148.786 82.6556 147.989 82.2739 147.412 81.816L148.43 79.8825C149.023 80.3065 149.744 80.6457 150.592 80.9001C151.44 81.1546 152.297 81.2818 153.162 81.2818C155.299 81.2818 156.367 80.6712 156.367 79.45C156.367 79.043 156.223 78.7207 155.935 78.4833C155.646 78.2458 155.282 78.0762 154.841 77.9745C154.417 77.8557 153.806 77.7285 153.009 77.5928C151.924 77.4232 151.033 77.2282 150.338 77.0077C149.659 76.7872 149.074 76.4141 148.582 75.8883C148.091 75.3625 147.845 74.6248 147.845 73.675C147.845 72.4538 148.353 71.4786 149.371 70.7493C150.389 70.003 151.754 69.6299 153.467 69.6299C154.366 69.6299 155.265 69.7401 156.164 69.9606C157.063 70.1811 157.8 70.4779 158.377 70.851L157.334 72.7845C156.232 72.0722 154.934 71.716 153.442 71.716C152.407 71.716 151.618 71.8856 151.076 72.2248C150.533 72.5641 150.261 73.0135 150.261 73.5732C150.261 74.0142 150.414 74.3619 150.719 74.6163C151.025 74.8707 151.398 75.0572 151.839 75.176C152.297 75.2947 152.933 75.4304 153.747 75.583C154.832 75.7696 155.706 75.9731 156.367 76.1936C157.046 76.3971 157.622 76.7533 158.097 77.2621C158.572 77.7709 158.81 78.4833 158.81 79.3991C158.81 80.6203 158.284 81.5955 157.232 82.3248C156.198 83.0372 154.781 83.3933 152.984 83.3933Z" fill="white"/>
<path d="M141.86 72.0213C142.284 71.2411 142.912 70.6475 143.743 70.2405C144.574 69.8334 145.583 69.6299 146.77 69.6299V71.9959C146.634 71.9789 146.448 71.9704 146.21 71.9704C144.888 71.9704 143.844 72.369 143.081 73.1662C142.335 73.9463 141.962 75.0657 141.962 76.5243V83.2407H139.52V69.7571H141.86V72.0213Z" fill="white"/>
<path d="M136.892 76.5752C136.892 76.7618 136.875 77.0077 136.841 77.313H125.901C126.054 78.5002 126.571 79.4585 127.453 80.1878C128.352 80.9001 129.463 81.2563 130.786 81.2563C132.397 81.2563 133.695 80.7136 134.678 79.6281L136.027 81.2054C135.416 81.9178 134.653 82.4605 133.737 82.8336C132.838 83.2068 131.829 83.3933 130.71 83.3933C129.285 83.3933 128.021 83.105 126.919 82.5284C125.816 81.9347 124.96 81.1122 124.349 80.0606C123.756 79.009 123.459 77.8218 123.459 76.4989C123.459 75.1929 123.747 74.0142 124.324 72.9626C124.918 71.9111 125.723 71.097 126.741 70.5203C127.775 69.9267 128.937 69.6299 130.226 69.6299C131.515 69.6299 132.66 69.9267 133.661 70.5203C134.678 71.097 135.467 71.9111 136.027 72.9626C136.603 74.0142 136.892 75.2184 136.892 76.5752ZM130.226 71.6906C129.056 71.6906 128.072 72.0468 127.275 72.7591C126.495 73.4714 126.037 74.4043 125.901 75.5576H134.551C134.415 74.4212 133.949 73.4969 133.152 72.7845C132.372 72.0552 131.397 71.6906 130.226 71.6906Z" fill="white"/>
<path d="M118.363 64.3638H120.806V83.2408H118.363V64.3638Z" fill="white"/>
<path d="M108.834 69.6299C110.7 69.6299 112.124 70.0878 113.108 71.0037C114.109 71.9196 114.609 73.2849 114.609 75.0996V83.2407H112.294V81.4598C111.887 82.0874 111.302 82.5708 110.539 82.91C109.792 83.2322 108.902 83.3933 107.867 83.3933C106.358 83.3933 105.145 83.0287 104.229 82.2994C103.33 81.5701 102.881 80.6118 102.881 79.4246C102.881 78.2373 103.313 77.2876 104.178 76.5752C105.043 75.8459 106.417 75.4813 108.3 75.4813H112.167V74.9979C112.167 73.9463 111.861 73.1407 111.251 72.581C110.64 72.0213 109.741 71.7415 108.554 71.7415C107.757 71.7415 106.977 71.8772 106.214 72.1485C105.45 72.4029 104.806 72.7506 104.28 73.1916L103.262 71.3599C103.958 70.8002 104.789 70.3761 105.756 70.0878C106.722 69.7825 107.749 69.6299 108.834 69.6299ZM108.274 81.5107C109.207 81.5107 110.013 81.3072 110.691 80.9001C111.37 80.4761 111.861 79.8825 112.167 79.1193V77.2367H108.402C106.332 77.2367 105.298 77.9321 105.298 79.3228C105.298 80.0012 105.561 80.5355 106.086 80.9256C106.612 81.3157 107.341 81.5107 108.274 81.5107Z" fill="white"/>
<path d="M101.667 76.5752C101.667 76.7618 101.65 77.0077 101.616 77.313H90.6767C90.8293 78.5002 91.3466 79.4585 92.2286 80.1878C93.1275 80.9001 94.2384 81.2563 95.5613 81.2563C97.1726 81.2563 98.47 80.7136 99.4538 79.6281L100.802 81.2054C100.192 81.9178 99.4283 82.4605 98.5124 82.8336C97.6135 83.2068 96.6044 83.3933 95.485 83.3933C94.0603 83.3933 92.7968 83.105 91.6943 82.5284C90.5919 81.9347 89.7354 81.1122 89.1248 80.0606C88.5312 79.009 88.2344 77.8218 88.2344 76.4989C88.2344 75.1929 88.5227 74.0142 89.0994 72.9626C89.693 71.9111 90.4986 71.097 91.5162 70.5203C92.5508 69.9267 93.7126 69.6299 95.0016 69.6299C96.2906 69.6299 97.4355 69.9267 98.4361 70.5203C99.4538 71.097 100.242 71.9111 100.802 72.9626C101.379 74.0142 101.667 75.2184 101.667 76.5752ZM95.0016 71.6906C93.8313 71.6906 92.8476 72.0468 92.0505 72.7591C91.2703 73.4714 90.8124 74.4043 90.6767 75.5576H99.3266C99.1909 74.4212 98.7245 73.4969 97.9273 72.7845C97.1471 72.0552 96.1719 71.6906 95.0016 71.6906Z" fill="white"/>
<path d="M85.6232 64.3638V83.2408H83.2827V81.1038C82.7399 81.8501 82.053 82.4182 81.222 82.8083C80.3909 83.1984 79.475 83.3935 78.4744 83.3935C77.1684 83.3935 75.9981 83.1051 74.9636 82.5285C73.929 81.9518 73.1149 81.1462 72.5212 80.1116C71.9446 79.0601 71.6562 77.8559 71.6562 76.499C71.6562 75.1422 71.9446 73.9465 72.5212 72.9119C73.1149 71.8773 73.929 71.0717 74.9636 70.495C75.9981 69.9183 77.1684 69.63 78.4744 69.63C79.4411 69.63 80.3316 69.8166 81.1457 70.1897C81.9598 70.5459 82.6382 71.0801 83.1809 71.7925V64.3638H85.6232ZM78.6779 81.2564C79.5259 81.2564 80.2976 81.0614 80.993 80.6713C81.6884 80.2643 82.2311 79.7046 82.6212 78.9922C83.0113 78.2629 83.2064 77.4318 83.2064 76.499C83.2064 75.5662 83.0113 74.7436 82.6212 74.0313C82.2311 73.302 81.6884 72.7423 80.993 72.3522C80.2976 71.9621 79.5259 71.767 78.6779 71.767C77.8129 71.767 77.0327 71.9621 76.3374 72.3522C75.6589 72.7423 75.1162 73.302 74.7091 74.0313C74.3191 74.7436 74.124 75.5662 74.124 76.499C74.124 77.4318 74.3191 78.2629 74.7091 78.9922C75.1162 79.7046 75.6589 80.2643 76.3374 80.6713C77.0327 81.0614 77.8129 81.2564 78.6779 81.2564Z" fill="white"/>
<defs>
<filter id="filter0_d_1740_4803" x="0" y="0" width="283" height="114" filterUnits="userSpaceOnUse" color-interpolation-filters="sRGB">
<feFlood flood-opacity="0" result="BackgroundImageFix"/>
<feColorMatrix in="SourceAlpha" type="matrix" values="0 0 0 0 0 0 0 0 0 0 0 0 0 0 0 0 0 0 127 0" result="hardAlpha"/>
<feOffset dy="4"/>
<feGaussianBlur stdDeviation="2"/>
<feComposite in2="hardAlpha" operator="out"/>
<feColorMatrix type="matrix" values="0 0 0 0 0 0 0 0 0 0 0 0 0 0 0 0 0 0 0.25 0"/>
<feBlend mode="normal" in2="BackgroundImageFix" result="effect1_dropShadow_1740_4803"/>
<feBlend mode="normal" in="SourceGraphic" in2="effect1_dropShadow_1740_4803" result="shape"/>
</filter>
<linearGradient id="paint0_linear_1740_4803" x1="141.5" y1="0" x2="141.5" y2="106" gradientUnits="userSpaceOnUse">
<stop stop-color="white" stop-opacity="0"/>
<stop offset="1" stop-color="white" stop-opacity="0.25"/>
</linearGradient>
</defs>
</svg>
