<svg width="283" height="114" viewBox="0 0 283 114" fill="none" xmlns="http://www.w3.org/2000/svg">
<g filter="url(#filter0_d_1740_4804)">
<path d="M4 10.6C4 4.74578 8.74762 0 14.6041 0H268.396C274.252 0 279 4.74578 279 10.6V95.4C279 101.254 274.252 106 268.396 106H14.6041C8.74762 106 4 101.254 4 95.4V10.6Z" fill="url(#paint0_linear_1740_4804)" shape-rendering="crispEdges"/>
</g>
<path d="M175.44 56.9297C172.816 56.9297 170.479 56.2814 168.429 54.9849C166.379 53.6883 164.766 51.8189 163.59 49.3766C162.444 46.9041 161.871 43.9643 161.871 40.5571C161.871 37.1499 162.444 34.2252 163.59 31.7829C164.766 29.3104 166.379 27.4259 168.429 26.1294C170.479 24.8328 172.816 24.1846 175.44 24.1846C178.063 24.1846 180.4 24.8328 182.45 26.1294C184.5 27.4259 186.098 29.3104 187.244 31.7829C188.42 34.2252 189.008 37.1499 189.008 40.5571C189.008 43.9643 188.42 46.9041 187.244 49.3766C186.098 51.8189 184.5 53.6883 182.45 54.9849C180.4 56.2814 178.063 56.9297 175.44 56.9297ZM175.44 50.7334C177.369 50.7334 178.877 49.9043 179.962 48.2459C181.078 46.5875 181.636 44.0246 181.636 40.5571C181.636 37.0896 181.078 34.5267 179.962 32.8684C178.877 31.21 177.369 30.3808 175.44 30.3808C173.54 30.3808 172.032 31.21 170.917 32.8684C169.831 34.5267 169.288 37.0896 169.288 40.5571C169.288 44.0246 169.831 46.5875 170.917 48.2459C172.032 49.9043 173.54 50.7334 175.44 50.7334Z" fill="white"/>
<path d="M146.1 56.9297C143.476 56.9297 141.14 56.2814 139.089 54.9849C137.039 53.6883 135.426 51.8189 134.25 49.3766C133.104 46.9041 132.531 43.9643 132.531 40.5571C132.531 37.1499 133.104 34.2252 134.25 31.7829C135.426 29.3104 137.039 27.4259 139.089 26.1294C141.14 24.8328 143.476 24.1846 146.1 24.1846C148.723 24.1846 151.06 24.8328 153.11 26.1294C155.16 27.4259 156.758 29.3104 157.904 31.7829C159.08 34.2252 159.668 37.1499 159.668 40.5571C159.668 43.9643 159.08 46.9041 157.904 49.3766C156.758 51.8189 155.16 53.6883 153.11 54.9849C151.06 56.2814 148.723 56.9297 146.1 56.9297ZM146.1 50.7334C148.029 50.7334 149.537 49.9043 150.622 48.2459C151.738 46.5875 152.296 44.0246 152.296 40.5571C152.296 37.0896 151.738 34.5267 150.622 32.8684C149.537 31.21 148.029 30.3808 146.1 30.3808C144.2 30.3808 142.692 31.21 141.577 32.8684C140.491 34.5267 139.949 37.0896 139.949 40.5571C139.949 44.0246 140.491 46.5875 141.577 48.2459C142.692 49.9043 144.2 50.7334 146.1 50.7334Z" fill="white"/>
<path d="M125.695 39.743C127.263 40.527 128.454 41.5521 129.268 42.8185C130.112 44.0849 130.534 45.5473 130.534 47.2056C130.534 49.1655 129.976 50.8842 128.861 52.3616C127.745 53.8089 126.177 54.9396 124.157 55.7537C122.137 56.5377 119.8 56.9297 117.147 56.9297C114.493 56.9297 112.156 56.5377 110.136 55.7537C108.146 54.9396 106.593 53.8089 105.478 52.3616C104.392 50.8842 103.85 49.1655 103.85 47.2056C103.85 45.5473 104.257 44.0849 105.071 42.8185C105.915 41.5521 107.106 40.527 108.644 39.743C107.468 39.0194 106.563 38.1148 105.93 37.0293C105.297 35.9137 104.98 34.6473 104.98 33.2302C104.98 31.3909 105.493 29.7928 106.518 28.436C107.543 27.0792 108.975 26.0389 110.815 25.3153C112.654 24.5615 114.765 24.1846 117.147 24.1846C119.559 24.1846 121.685 24.5615 123.524 25.3153C125.393 26.0389 126.841 27.0792 127.866 28.436C128.891 29.7928 129.403 31.3909 129.403 33.2302C129.403 34.6473 129.087 35.9137 128.454 37.0293C127.82 38.1148 126.901 39.0194 125.695 39.743ZM117.147 29.5667C115.669 29.5667 114.478 29.9285 113.574 30.6522C112.699 31.3457 112.262 32.3105 112.262 33.5468C112.262 34.7529 112.699 35.7026 113.574 36.3961C114.448 37.0896 115.639 37.4364 117.147 37.4364C118.654 37.4364 119.86 37.0896 120.765 36.3961C121.669 35.7026 122.122 34.7529 122.122 33.5468C122.122 32.3105 121.669 31.3457 120.765 30.6522C119.86 29.9285 118.654 29.5667 117.147 29.5667ZM117.147 51.5475C118.986 51.5475 120.433 51.1405 121.489 50.3264C122.574 49.4821 123.117 48.3665 123.117 46.9795C123.117 45.5925 122.574 44.492 121.489 43.6779C120.433 42.8638 118.986 42.4567 117.147 42.4567C115.338 42.4567 113.905 42.8638 112.85 43.6779C111.795 44.492 111.267 45.5925 111.267 46.9795C111.267 48.3966 111.795 49.5123 112.85 50.3264C113.905 51.1405 115.338 51.5475 117.147 51.5475Z" fill="white"/>
<path d="M100.882 43.316H93.0124V51.0047H87.178V43.316H79.3535V37.7981H87.178V30.1094H93.0124V37.7981H100.882V43.316Z" fill="white"/>
<path d="M176.688 83.3681C174.475 83.3681 172.338 82.6558 171.244 81.7145L172.058 80.2898C173.127 81.1294 174.933 81.7908 176.816 81.7908C179.36 81.7908 180.403 80.9258 180.403 79.6029C180.403 76.1175 171.728 78.8651 171.728 73.5734C171.728 71.3855 173.61 69.7573 177.019 69.7573C178.749 69.7573 180.632 70.2407 181.751 71.0039L180.963 72.454C179.792 71.6399 178.393 71.3092 177.019 71.3092C174.602 71.3092 173.534 72.2505 173.534 73.5226C173.534 77.1351 182.209 74.413 182.209 79.552C182.209 81.8671 180.174 83.3681 176.688 83.3681Z" fill="white"/>
<path d="M165.482 72.4795C166.321 70.6986 168.026 69.7573 170.494 69.7573V71.5127C170.341 71.5127 170.188 71.4873 170.061 71.4873C167.263 71.4873 165.558 73.2682 165.558 76.4228V83.2409H163.752V69.8591H165.482V72.4795Z" fill="white"/>
<path d="M160.838 76.55C160.838 76.7027 160.813 76.9062 160.813 77.1097H149.619C149.822 79.9082 151.959 81.7654 154.885 81.7654C156.513 81.7654 157.963 81.1802 158.981 80.01L159.999 81.1802C158.803 82.6049 156.946 83.3681 154.834 83.3681C150.662 83.3681 147.812 80.5188 147.812 76.55C147.812 72.5812 150.586 69.7573 154.351 69.7573C158.116 69.7573 160.838 72.5304 160.838 76.55ZM154.351 71.3092C151.756 71.3092 149.848 73.1409 149.619 75.7613H159.108C158.879 73.1409 156.971 71.3092 154.351 71.3092Z" fill="white"/>
<path d="M143.092 83.2408V64.3638H144.898V83.2408H143.092Z" fill="white"/>
<path d="M133.531 69.7573C136.991 69.7573 138.95 71.4873 138.95 74.9472V83.2409H137.22V81.1548C136.406 82.5286 134.828 83.3681 132.615 83.3681C129.588 83.3681 127.73 81.7908 127.73 79.4757C127.73 77.415 129.053 75.685 132.895 75.685H137.144V74.8709C137.144 72.5812 135.846 71.3347 133.353 71.3347C131.623 71.3347 129.995 71.9452 128.901 72.912L128.087 71.5636C129.435 70.4188 131.419 69.7573 133.531 69.7573ZM132.895 81.9435C134.93 81.9435 136.431 80.9767 137.144 79.2213V77.0334H132.946C130.351 77.0334 129.511 78.051 129.511 79.4248C129.511 80.9767 130.758 81.9435 132.895 81.9435Z" fill="white"/>
<path d="M126.309 76.55C126.309 76.7027 126.283 76.9062 126.283 77.1097H115.09C115.293 79.9082 117.43 81.7654 120.356 81.7654C121.984 81.7654 123.434 81.1802 124.452 80.01L125.469 81.1802C124.274 82.6049 122.416 83.3681 120.305 83.3681C116.133 83.3681 113.283 80.5188 113.283 76.55C113.283 72.5812 116.056 69.7573 119.821 69.7573C123.587 69.7573 126.309 72.5304 126.309 76.55ZM119.821 71.3092C117.227 71.3092 115.318 73.1409 115.09 75.7613H124.579C124.35 73.1409 122.442 71.3092 119.821 71.3092Z" fill="white"/>
<path d="M108.558 64.3638H110.365V83.2408H108.635V80.595C107.541 82.4013 105.684 83.368 103.47 83.368C99.6541 83.368 96.8047 80.595 96.8047 76.5499C96.8047 72.5048 99.6541 69.7572 103.47 69.7572C105.607 69.7572 107.439 70.6731 108.558 72.4031V64.3638ZM103.623 81.7653C106.447 81.7653 108.584 79.6791 108.584 76.5499C108.584 73.4207 106.447 71.3345 103.623 71.3345C100.773 71.3345 98.6364 73.4207 98.6364 76.5499C98.6364 79.6791 100.773 81.7653 103.623 81.7653Z" fill="white"/>
<defs>
<filter id="filter0_d_1740_4804" x="0" y="0" width="283" height="114" filterUnits="userSpaceOnUse" color-interpolation-filters="sRGB">
<feFlood flood-opacity="0" result="BackgroundImageFix"/>
<feColorMatrix in="SourceAlpha" type="matrix" values="0 0 0 0 0 0 0 0 0 0 0 0 0 0 0 0 0 0 127 0" result="hardAlpha"/>
<feOffset dy="4"/>
<feGaussianBlur stdDeviation="2"/>
<feComposite in2="hardAlpha" operator="out"/>
<feColorMatrix type="matrix" values="0 0 0 0 0 0 0 0 0 0 0 0 0 0 0 0 0 0 0.25 0"/>
<feBlend mode="normal" in2="BackgroundImageFix" result="effect1_dropShadow_1740_4804"/>
<feBlend mode="normal" in="SourceGraphic" in2="effect1_dropShadow_1740_4804" result="shape"/>
</filter>
<linearGradient id="paint0_linear_1740_4804" x1="141.5" y1="0" x2="141.5" y2="106" gradientUnits="userSpaceOnUse">
<stop stop-color="white" stop-opacity="0"/>
<stop offset="1" stop-color="white" stop-opacity="0.25"/>
</linearGradient>
</defs>
</svg>
