<svg width="376" height="57" viewBox="0 0 376 57" fill="none" xmlns="http://www.w3.org/2000/svg">
<path d="M146.421 13.3226L146.444 18.4346L154.556 18.3976L154.568 21.0376L146.456 21.0746L146.485 27.5065L143.365 27.5207L143.289 10.7209L155.553 10.665L155.565 13.281L146.421 13.3226ZM163.048 27.599C161.752 27.6049 160.582 27.3302 159.54 26.775C158.497 26.2197 157.678 25.4475 157.081 24.4582C156.501 23.4528 156.207 22.3181 156.202 21.0541C156.196 19.7901 156.479 18.6608 157.05 17.6662C157.638 16.6715 158.45 15.8918 159.488 15.3271C160.525 14.7624 161.692 14.477 162.988 14.4711C164.3 14.4651 165.477 14.7398 166.52 15.295C167.562 15.8503 168.374 16.6226 168.954 17.612C169.551 18.6013 169.852 19.7279 169.858 20.9919C169.863 22.2559 169.573 23.3932 168.985 24.4039C168.414 25.3985 167.609 26.1782 166.572 26.7429C165.534 27.3077 164.36 27.593 163.048 27.599ZM163.036 25.031C164.14 25.026 165.05 24.6538 165.767 23.9146C166.484 23.1753 166.839 22.2057 166.834 21.0057C166.828 19.8057 166.464 18.8393 165.74 18.1066C165.017 17.3739 164.103 17.0101 162.999 17.0151C161.895 17.0201 160.985 17.3923 160.268 18.1316C159.568 18.8708 159.22 19.8404 159.226 21.0403C159.231 22.2403 159.588 23.2067 160.295 23.9395C161.018 24.6722 161.932 25.0361 163.036 25.031ZM174.842 16.4331C175.699 15.0852 177.216 14.4063 179.392 14.3963L179.405 17.2523C179.149 17.2055 178.917 17.1825 178.709 17.1835C177.541 17.1888 176.631 17.537 175.978 18.228C175.325 18.9029 175.001 19.8804 175.007 21.1604L175.035 27.3763L172.036 27.39L171.977 14.5742L174.833 14.5611L174.842 16.4331ZM200.182 24.6457L200.194 27.2617L187.594 27.3191L187.518 10.5193L199.782 10.4634L199.794 13.0793L190.65 13.121L190.67 17.489L198.781 17.452L198.793 20.02L190.681 20.0569L190.702 24.6889L200.182 24.6457ZM214.442 14.3806L209.004 27.2215L205.908 27.2356L200.354 14.4448L203.474 14.4306L207.501 23.9163L211.562 14.3937L214.442 14.3806ZM227.323 20.8019C227.323 21.0099 227.309 21.306 227.279 21.6901L217.223 21.736C217.403 22.6792 217.862 23.4291 218.601 23.9857C219.355 24.5263 220.285 24.794 221.389 24.789C222.797 24.7826 223.954 24.3133 224.862 23.3812L226.479 25.2218C225.906 25.9124 225.18 26.4357 224.302 26.7918C223.423 27.1478 222.432 27.3283 221.328 27.3333C219.92 27.3397 218.679 27.0654 217.604 26.5103C216.53 25.9552 215.694 25.183 215.098 24.1937C214.517 23.1883 214.224 22.0536 214.218 20.7897C214.213 19.5417 214.488 18.4204 215.043 17.4259C215.614 16.4152 216.403 15.6276 217.408 15.0631C218.414 14.4985 219.548 14.2133 220.812 14.2075C222.06 14.2018 223.174 14.4768 224.152 15.0323C225.147 15.5718 225.918 16.3443 226.467 17.3498C227.031 18.3392 227.317 19.4899 227.323 20.8019ZM220.823 16.6075C219.863 16.6119 219.049 16.9036 218.379 17.4827C217.726 18.0456 217.329 18.7995 217.19 19.7441L224.462 19.7109C224.329 18.7835 223.934 18.0333 223.275 17.4603C222.617 16.8873 221.799 16.6031 220.823 16.6075ZM232.319 16.1711C233.177 14.8232 234.694 14.1442 236.87 14.1343L236.883 16.9903C236.627 16.9435 236.395 16.9205 236.187 16.9215C235.019 16.9268 234.108 17.2749 233.455 17.9659C232.802 18.6409 232.479 19.6184 232.485 20.8984L232.513 27.1143L229.513 27.128L229.455 14.3121L232.311 14.2991L232.319 16.1711ZM251.164 14.2132L245.227 28.0884C244.674 29.4829 243.998 30.462 243.201 31.0256C242.403 31.6053 241.437 31.8977 240.301 31.9029C239.661 31.9058 239.028 31.8047 238.403 31.5995C237.778 31.3944 237.265 31.1087 236.863 30.7425L238.053 28.5291C238.342 28.7998 238.679 29.0142 239.064 29.1725C239.465 29.3307 239.865 29.4088 240.265 29.407C240.793 29.4046 241.225 29.2666 241.559 28.9931C241.91 28.7195 242.228 28.262 242.513 27.6207L242.727 27.1158L237.076 14.2774L240.196 14.2632L244.271 23.7247L248.284 14.2263L251.164 14.2132ZM263.787 27.2118C262.491 27.2177 261.234 27.0394 260.017 26.6769C258.815 26.3144 257.861 25.8308 257.154 25.226L258.223 22.7971C258.914 23.3379 259.756 23.7821 260.749 24.1296C261.759 24.461 262.767 24.6244 263.775 24.6198C265.023 24.6141 265.951 24.4099 266.557 24.0071C267.179 23.6043 267.488 23.0748 267.485 22.4188C267.483 21.9389 267.306 21.5477 266.952 21.2453C266.615 20.9268 266.182 20.6808 265.653 20.5072C265.124 20.3336 264.403 20.1369 263.49 19.917C262.209 19.6189 261.167 19.3196 260.366 19.0193C259.581 18.7188 258.898 18.2499 258.319 17.6126C257.756 16.9591 257.472 16.0804 257.467 14.9764C257.463 14.0484 257.707 13.2073 258.2 12.4531C258.708 11.6827 259.466 11.0713 260.472 10.6187C261.494 10.166 262.741 9.93635 264.213 9.92964C265.237 9.92497 266.245 10.0484 267.238 10.2998C268.231 10.5513 269.089 10.9154 269.811 11.3921L268.838 13.8206C268.1 13.3919 267.331 13.0675 266.53 12.8471C265.729 12.6268 264.952 12.5183 264.2 12.5217C262.968 12.5273 262.049 12.7395 261.443 13.1583C260.853 13.577 260.56 14.1303 260.563 14.8183C260.565 15.2983 260.735 15.6895 261.072 15.992C261.426 16.2944 261.867 16.5324 262.395 16.706C262.924 16.8796 263.645 17.0763 264.558 17.2961C265.807 17.5784 266.833 17.8778 267.634 18.1941C268.436 18.4945 269.118 18.9634 269.681 19.6008C270.26 20.2382 270.552 21.1009 270.556 22.1888C270.561 23.1168 270.309 23.958 269.8 24.7123C269.307 25.4666 268.55 26.07 267.528 26.5227C266.506 26.9754 265.259 27.205 263.787 27.2118ZM279.709 13.939C280.957 13.9333 282.07 14.2003 283.048 14.7398C284.043 15.2793 284.822 16.0437 285.387 17.0332C285.951 18.0226 286.237 19.1653 286.243 20.4613C286.248 21.7573 285.974 22.9106 285.418 23.9211C284.863 24.9157 284.09 25.6872 283.101 26.2357C282.127 26.7841 281.017 27.0612 279.769 27.0669C278.041 27.0748 276.67 26.505 275.657 25.3576L275.685 31.5736L272.685 31.5872L272.605 14.1154L275.461 14.1024L275.469 15.7824C275.962 15.1721 276.568 14.7134 277.287 14.4061C278.021 14.0987 278.829 13.943 279.709 13.939ZM279.421 24.5005C280.525 24.4954 281.427 24.1233 282.128 23.3841C282.844 22.6448 283.2 21.6752 283.195 20.4752C283.189 19.2752 282.825 18.3089 282.101 17.5762C281.394 16.8434 280.488 16.4795 279.384 16.4845C278.664 16.4878 278.017 16.6588 277.443 16.9974C276.868 17.32 276.414 17.7861 276.081 18.3956C275.748 19.0051 275.583 19.7099 275.587 20.5099C275.59 21.3099 275.761 22.0131 276.1 22.6196C276.439 23.226 276.897 23.696 277.475 24.0293C278.052 24.3467 278.701 24.5037 279.421 24.5005ZM293.07 13.8781C294.958 13.8695 296.4 14.319 297.396 15.2264C298.408 16.1178 298.918 17.4755 298.926 19.2995L298.961 26.8114L296.129 26.8243L296.122 25.2643C295.756 25.826 295.23 26.2604 294.543 26.5675C293.873 26.8586 293.057 27.0063 292.097 27.0107C291.137 27.0151 290.297 26.8589 289.575 26.5422C288.854 26.2095 288.292 25.756 287.889 25.1819C287.502 24.5916 287.307 23.9285 287.304 23.1925C287.299 22.0405 287.719 21.1186 288.563 20.4267C289.424 19.7188 290.775 19.3606 292.615 19.3523L295.927 19.3372L295.926 19.1452C295.922 18.2492 295.646 17.5624 295.1 17.0849C294.57 16.6073 293.777 16.3709 292.721 16.3757C292.001 16.379 291.29 16.4943 290.587 16.7215C289.9 16.9486 289.317 17.2633 288.839 17.6655L287.653 15.4868C288.323 14.9718 289.129 14.5761 290.072 14.2998C291.014 14.0235 292.014 13.8829 293.07 13.8781ZM292.712 24.8239C293.464 24.8204 294.127 24.6494 294.701 24.3108C295.292 23.9561 295.705 23.4582 295.942 22.8171L295.936 21.3291L292.84 21.3433C291.112 21.3511 290.25 21.9231 290.255 23.0591C290.258 23.603 290.476 24.0341 290.909 24.3521C291.343 24.6701 291.944 24.8274 292.712 24.8239ZM308.089 26.9378C306.761 26.9439 305.567 26.6693 304.509 26.1141C303.45 25.5589 302.623 24.7867 302.026 23.7974C301.43 22.7921 301.128 21.6575 301.123 20.3935C301.117 19.1295 301.408 18.0002 301.995 17.0055C302.583 16.0108 303.395 15.2311 304.433 14.6663C305.486 14.1015 306.685 13.8161 308.029 13.8099C309.293 13.8042 310.398 14.0551 311.344 14.5628C312.307 15.0704 313.03 15.8032 313.514 16.761L311.216 18.1154C310.846 17.5251 310.38 17.0873 309.818 16.8018C309.273 16.5003 308.672 16.351 308.016 16.354C306.896 16.3591 305.97 16.7313 305.237 17.4707C304.505 18.194 304.141 19.1637 304.147 20.3797C304.152 21.5957 304.517 22.57 305.24 23.3027C305.979 24.0194 306.917 24.3751 308.053 24.3699C308.709 24.3669 309.308 24.2202 309.851 23.9297C310.41 23.6232 310.871 23.1731 311.237 22.5794L313.547 23.9129C313.055 24.8751 312.331 25.6224 311.373 26.1548C310.431 26.6711 309.337 26.9321 308.089 26.9378ZM327.265 20.3463C327.266 20.5543 327.251 20.8504 327.221 21.2345L317.165 21.2804C317.345 22.2236 317.804 22.9735 318.543 23.5301C319.297 24.0707 320.227 24.3384 321.331 24.3334C322.739 24.327 323.897 23.8577 324.804 22.9256L326.421 24.7662C325.848 25.4568 325.122 25.9801 324.244 26.3361C323.365 26.6922 322.374 26.8727 321.27 26.8777C319.862 26.8841 318.621 26.6098 317.547 26.0547C316.472 25.4996 315.636 24.7274 315.04 23.7381C314.459 22.7327 314.166 21.598 314.16 20.3341C314.155 19.0861 314.43 17.9648 314.985 16.9703C315.556 15.9596 316.345 15.172 317.35 14.6075C318.356 14.0429 319.49 13.7577 320.754 13.7519C322.002 13.7462 323.116 14.0212 324.094 14.5767C325.089 15.1162 325.86 15.8887 326.409 16.8942C326.973 17.8836 327.259 19.0343 327.265 20.3463ZM320.765 16.1519C319.805 16.1563 318.991 16.448 318.321 17.027C317.668 17.59 317.271 18.3438 317.132 19.2885L324.404 19.2553C324.271 18.3279 323.876 17.5777 323.217 17.0047C322.559 16.4317 321.741 16.1474 320.765 16.1519Z" fill="#373737"/>
<path d="M143.516 35.2552L144.916 35.2488L144.961 45.0487L143.561 45.0551L143.516 35.2552ZM151.449 44.5851C151.254 44.754 151.012 44.8858 150.723 44.9805C150.434 45.0658 150.135 45.1091 149.827 45.1105C149.081 45.1139 148.501 44.9159 148.089 44.5165C147.676 44.117 147.468 43.5439 147.465 42.7973L147.446 38.7233L146.186 38.7291L146.181 37.6231L147.441 37.6173L147.434 35.9934L148.778 35.9872L148.785 37.6112L150.913 37.6015L150.918 38.7075L148.79 38.7172L148.809 42.7352C148.81 43.1365 148.91 43.444 149.107 43.6578C149.313 43.8715 149.603 43.9775 149.976 43.9758C150.387 43.974 150.736 43.8557 151.025 43.6211L151.449 44.5851ZM155.962 37.5785L157.306 37.5724L157.34 44.9923L155.996 44.9984L155.962 37.5785ZM156.627 36.1474C156.366 36.1486 156.146 36.0656 155.968 35.8984C155.799 35.7312 155.714 35.5263 155.713 35.2836C155.712 35.0409 155.795 34.8352 155.963 34.6665C156.139 34.4883 156.358 34.3987 156.619 34.3975C156.881 34.3963 157.096 34.4793 157.264 34.6465C157.443 34.8044 157.532 35.0046 157.533 35.2473C157.534 35.4993 157.447 35.7144 157.27 35.8925C157.103 36.0613 156.889 36.1463 156.627 36.1474ZM161.614 45.0568C161.007 45.0596 160.424 44.9829 159.863 44.8268C159.302 44.6613 158.863 44.4533 158.544 44.2028L159.099 43.1363C159.427 43.3681 159.825 43.5529 160.292 43.6908C160.759 43.8287 161.231 43.8965 161.707 43.8944C162.883 43.889 163.469 43.5503 163.466 42.8783C163.465 42.6543 163.385 42.4774 163.226 42.3474C163.067 42.2175 162.865 42.1251 162.623 42.0702C162.389 42.0059 162.053 41.9374 161.614 41.8648C161.016 41.7742 160.525 41.6691 160.142 41.5495C159.768 41.4298 159.445 41.226 159.173 40.9379C158.901 40.6498 158.764 40.2444 158.762 39.7218C158.759 39.0498 159.036 38.5118 159.594 38.1079C160.153 37.6947 160.903 37.486 161.846 37.4817C162.34 37.4794 162.835 37.5378 163.33 37.6569C163.826 37.776 164.232 37.9375 164.551 38.1413L163.981 39.208C163.373 38.8187 162.658 38.626 161.837 38.6297C161.268 38.6323 160.834 38.7276 160.536 38.9157C160.238 39.1037 160.09 39.3517 160.092 39.6597C160.093 39.9024 160.177 40.0933 160.346 40.2325C160.515 40.3718 160.721 40.4735 160.964 40.5377C161.216 40.6019 161.566 40.675 162.015 40.7569C162.612 40.8569 163.094 40.9667 163.458 41.0864C163.832 41.1967 164.15 41.3912 164.413 41.67C164.675 41.9488 164.808 42.3402 164.81 42.8442C164.813 43.5162 164.526 44.0542 163.949 44.4582C163.382 44.8527 162.603 45.0523 161.614 45.0568ZM172.087 37.435C173.114 37.4303 173.899 37.6787 174.442 38.1803C174.995 38.6817 175.274 39.4318 175.279 40.4305L175.299 44.9104L174.025 44.9162L174.021 43.9362C173.798 44.2826 173.477 44.5501 173.058 44.7386C172.648 44.9178 172.159 45.0087 171.589 45.0113C170.759 45.0151 170.091 44.8175 169.585 44.4185C169.088 44.0194 168.839 43.4932 168.836 42.8399C168.833 42.1865 169.068 41.6628 169.542 41.2686C170.017 40.8651 170.772 40.661 171.808 40.6563L173.936 40.6466L173.934 40.3806C173.932 39.8019 173.762 39.3594 173.424 39.0529C173.087 38.7464 172.592 38.5947 171.938 38.5977C171.5 38.5997 171.071 38.6763 170.651 38.8275C170.232 38.9695 169.878 39.1624 169.59 39.4064L169.025 38.401C169.407 38.0912 169.863 37.8558 170.394 37.6947C170.925 37.5243 171.49 37.4377 172.087 37.435ZM171.809 43.9743C172.322 43.972 172.765 43.858 173.137 43.6323C173.509 43.3972 173.779 43.0693 173.945 42.6486L173.94 41.6126L171.868 41.622C170.729 41.6272 170.162 42.0125 170.165 42.7778C170.167 43.1511 170.313 43.4445 170.603 43.6578C170.894 43.8712 171.295 43.9767 171.809 43.9743ZM180.659 34.4979L182.003 34.4918L182.05 44.8796L180.706 44.8858L180.659 34.4979ZM187.374 44.9394C186.637 44.9427 185.974 44.7824 185.384 44.4584C184.795 44.1345 184.331 43.6886 183.992 43.1208C183.663 42.5436 183.496 41.891 183.493 41.163C183.49 40.435 183.65 39.7856 183.974 39.2148C184.308 38.6346 184.768 38.1845 185.354 37.8645C185.941 37.5352 186.603 37.3688 187.34 37.3655C188.077 37.3621 188.736 37.5224 189.316 37.8464C189.906 38.1611 190.365 38.607 190.694 39.1842C191.033 39.752 191.204 40.3999 191.207 41.1279C191.21 41.8559 191.045 42.5099 190.712 43.0901C190.388 43.661 189.933 44.111 189.346 44.4404C188.769 44.7697 188.112 44.936 187.374 44.9394ZM187.369 43.7634C187.845 43.7612 188.269 43.6519 188.642 43.4356C189.023 43.2098 189.32 42.9005 189.533 42.5075C189.746 42.1052 189.851 41.6474 189.849 41.1341C189.847 40.6207 189.737 40.1686 189.521 39.7775C189.304 39.3772 189.004 39.0705 188.621 38.8576C188.246 38.6447 187.821 38.5393 187.345 38.5414C186.869 38.5436 186.44 38.6529 186.059 38.8693C185.686 39.0857 185.389 39.395 185.167 39.7974C184.954 40.1904 184.849 40.6435 184.851 41.1568C184.853 41.6702 184.963 42.127 185.179 42.5274C185.405 42.9183 185.705 43.225 186.08 43.4473C186.463 43.6602 186.893 43.7656 187.369 43.7634ZM196.591 37.3233C197.533 37.319 198.281 37.5909 198.834 38.1391C199.397 38.6778 199.68 39.4746 199.685 40.5292L199.705 44.7992L198.361 44.8053L198.342 40.6893C198.339 39.9707 198.163 39.4301 197.816 39.0677C197.469 38.7053 196.974 38.5255 196.33 38.5285C195.602 38.5318 195.029 38.7491 194.611 39.1803C194.193 39.6022 193.986 40.2099 193.989 41.0032L194.007 44.8251L192.663 44.8313L192.629 37.4113L193.917 37.4055L193.922 38.5255C194.191 38.1416 194.554 37.8459 195.01 37.6385C195.476 37.431 196.003 37.326 196.591 37.3233ZM208.877 37.3373L208.906 43.7492C208.912 45.0465 208.595 46.0047 207.953 46.6236C207.312 47.2518 206.352 47.5689 205.074 47.5747C204.374 47.5779 203.706 47.483 203.07 47.2898C202.435 47.1061 201.92 46.8378 201.527 46.4849L202.166 45.4459C202.513 45.743 202.938 45.9744 203.443 46.1401C203.957 46.3151 204.485 46.4014 205.026 46.3989C205.894 46.395 206.533 46.1867 206.941 45.7742C207.36 45.3616 207.567 44.7353 207.563 43.8953L207.56 43.3073C207.245 43.6914 206.854 43.9826 206.388 44.1807C205.932 44.3694 205.433 44.465 204.891 44.4675C204.182 44.4707 203.537 44.3244 202.957 44.0283C202.387 43.7229 201.937 43.3003 201.608 42.7605C201.278 42.2113 201.112 41.5867 201.109 40.8867C201.106 40.1867 201.266 39.5653 201.591 39.0225C201.915 38.4704 202.361 38.0437 202.929 37.7424C203.506 37.4411 204.149 37.2888 204.859 37.2856C205.419 37.283 205.937 37.3833 206.414 37.5865C206.9 37.7896 207.298 38.0911 207.608 38.4911L207.603 37.3431L208.877 37.3373ZM205.04 43.2908C205.525 43.2886 205.959 43.184 206.341 42.9769C206.732 42.7698 207.034 42.4837 207.247 42.1188C207.469 41.7444 207.579 41.3239 207.577 40.8572C207.574 40.1386 207.333 39.561 206.855 39.1245C206.377 38.6787 205.765 38.4575 205.018 38.4609C204.262 38.4643 203.647 38.6911 203.173 39.1413C202.699 39.5821 202.464 40.1619 202.467 40.8805C202.469 41.3472 202.578 41.7667 202.795 42.139C203.02 42.502 203.325 42.7853 203.709 42.9889C204.102 43.1924 204.545 43.2931 205.04 43.2908ZM221.088 41.0336C221.088 41.1363 221.08 41.2717 221.062 41.4398L215.042 41.4672C215.129 42.1202 215.416 42.6462 215.903 43.0453C216.399 43.435 217.012 43.6283 217.74 43.6249C218.626 43.6209 219.339 43.319 219.877 42.7192L220.623 43.5838C220.289 43.9773 219.871 44.2779 219.367 44.4855C218.874 44.6931 218.319 44.7983 217.703 44.8011C216.919 44.8047 216.223 44.6492 215.615 44.3346C215.007 44.0107 214.533 43.5602 214.195 42.9831C213.865 42.4059 213.699 41.7533 213.696 41.0253C213.692 40.3067 213.848 39.6573 214.163 39.0772C214.487 38.497 214.928 38.047 215.487 37.7271C216.054 37.3979 216.693 37.2316 217.402 37.2284C218.112 37.2252 218.742 37.3856 219.295 37.7098C219.856 38.0246 220.292 38.4706 220.603 39.0478C220.923 39.6251 221.084 40.287 221.088 41.0336ZM217.408 38.3624C216.764 38.3653 216.223 38.5638 215.786 38.9578C215.359 39.3517 215.109 39.8662 215.037 40.5012L219.797 40.4795C219.72 39.8545 219.461 39.347 219.02 38.957C218.589 38.5577 218.052 38.3595 217.408 38.3624ZM224.679 44.7693C224.072 44.7721 223.489 44.6954 222.928 44.5393C222.367 44.3738 221.928 44.1659 221.609 43.9153L222.164 42.8488C222.492 43.0806 222.89 43.2655 223.357 43.4033C223.824 43.5412 224.296 43.609 224.772 43.6069C225.948 43.6015 226.534 43.2628 226.531 42.5908C226.53 42.3669 226.45 42.1899 226.291 42.0599C226.132 41.93 225.93 41.8376 225.688 41.7827C225.454 41.7184 225.118 41.6499 224.679 41.5773C224.081 41.4867 223.59 41.3816 223.207 41.262C222.833 41.1424 222.51 40.9385 222.238 40.6504C221.966 40.3623 221.829 39.9569 221.827 39.4343C221.824 38.7623 222.101 38.2243 222.659 37.8204C223.218 37.4072 223.968 37.1985 224.911 37.1942C225.405 37.1919 225.9 37.2503 226.395 37.3694C226.891 37.4885 227.297 37.65 227.616 37.8539L227.046 38.9205C226.438 38.5312 225.723 38.3385 224.902 38.3422C224.332 38.3448 223.899 38.4401 223.601 38.6282C223.303 38.8162 223.155 39.0642 223.156 39.3722C223.158 39.6149 223.242 39.8058 223.411 39.945C223.58 40.0843 223.786 40.186 224.029 40.2502C224.281 40.3144 224.631 40.3875 225.08 40.4694C225.677 40.5694 226.158 40.6792 226.523 40.7989C226.897 40.9092 227.215 41.1037 227.478 41.3825C227.74 41.6613 227.873 42.0527 227.875 42.5567C227.878 43.2287 227.591 43.7667 227.014 44.1707C226.447 44.5653 225.668 44.7648 224.679 44.7693ZM233.314 44.2119C233.119 44.3808 232.877 44.5126 232.588 44.6073C232.299 44.6926 232.001 44.7359 231.693 44.7373C230.946 44.7407 230.366 44.5427 229.954 44.1433C229.541 43.7438 229.334 43.1707 229.33 42.4241L229.312 38.3501L228.052 38.3559L228.047 37.2499L229.307 37.2441L229.299 35.6202L230.643 35.614L230.651 37.238L232.778 37.2283L232.784 38.3343L230.656 38.344L230.674 42.362C230.676 42.7633 230.775 43.0708 230.972 43.2846C231.178 43.4983 231.468 43.6044 231.842 43.6027C232.252 43.6008 232.602 43.4825 232.89 43.2479L233.314 44.2119ZM237.189 37.1382C238.216 37.1335 239.001 37.3819 239.544 37.8835C240.097 38.385 240.376 39.135 240.381 40.1337L240.401 44.6136L239.127 44.6194L239.123 43.6395C238.9 43.9858 238.579 44.2533 238.16 44.4419C237.75 44.6211 237.261 44.712 236.692 44.7146C235.861 44.7183 235.193 44.5207 234.687 44.1217C234.19 43.7226 233.941 43.1964 233.938 42.5431C233.935 41.8898 234.17 41.366 234.644 40.9718C235.119 40.5683 235.874 40.3642 236.91 40.3595L239.038 40.3498L239.036 40.0838C239.034 39.5052 238.864 39.0626 238.526 38.7561C238.189 38.4497 237.694 38.2979 237.04 38.3009C236.602 38.3029 236.173 38.3795 235.753 38.5308C235.334 38.6727 234.98 38.8656 234.692 39.1096L234.127 38.1042C234.509 37.7944 234.965 37.559 235.496 37.3979C236.027 37.2275 236.592 37.1409 237.189 37.1382ZM236.911 43.6775C237.424 43.6752 237.867 43.5612 238.239 43.3355C238.612 43.1005 238.881 42.7726 239.047 42.3518L239.042 41.3158L236.97 41.3252C235.831 41.3304 235.264 41.7157 235.267 42.481C235.269 42.8544 235.415 43.1477 235.705 43.361C235.996 43.5744 236.397 43.6799 236.911 43.6775ZM246.368 37.0964C247.087 37.0931 247.731 37.2488 248.302 37.5635C248.873 37.8783 249.318 38.3196 249.638 38.8875C249.968 39.4553 250.134 40.1126 250.137 40.8592C250.141 41.6059 249.98 42.2693 249.656 42.8494C249.342 43.4202 248.9 43.8656 248.332 44.1855C247.765 44.5054 247.121 44.667 246.403 44.6703C245.852 44.6728 245.347 44.5678 244.889 44.3552C244.431 44.1426 244.051 43.8317 243.751 43.4224L243.756 44.5983L242.468 44.6042L242.421 34.2163L243.765 34.2102L243.784 38.2982C244.08 37.9048 244.452 37.6091 244.9 37.4111C245.347 37.2037 245.836 37.0988 246.368 37.0964ZM246.285 43.4948C246.761 43.4926 247.185 43.3834 247.558 43.167C247.939 42.9413 248.237 42.6319 248.45 42.2389C248.672 41.8366 248.782 41.3787 248.779 40.8654C248.777 40.3521 248.663 39.8999 248.437 39.509C248.221 39.1086 247.921 38.802 247.537 38.589C247.163 38.3761 246.737 38.2707 246.261 38.2729C245.795 38.275 245.371 38.3843 244.989 38.6007C244.607 38.8171 244.31 39.1264 244.097 39.5287C243.884 39.9217 243.779 40.3749 243.781 40.8882C243.784 41.4015 243.893 41.8584 244.11 42.2587C244.326 42.6497 244.626 42.9564 245.01 43.1786C245.393 43.3915 245.819 43.4969 246.285 43.4948ZM251.544 34.1747L252.888 34.1686L252.935 44.5565L251.591 44.5626L251.544 34.1747ZM255.047 37.1268L256.391 37.1207L256.425 44.5406L255.081 44.5467L255.047 37.1268ZM255.713 35.6957C255.452 35.6969 255.232 35.6139 255.054 35.4467C254.885 35.2795 254.8 35.0746 254.799 34.8319C254.798 34.5892 254.881 34.3835 255.048 34.2148C255.225 34.0366 255.444 33.947 255.705 33.9458C255.966 33.9446 256.181 34.0276 256.35 34.1948C256.528 34.3527 256.618 34.5529 256.619 34.7956C256.62 35.0476 256.532 35.2627 256.356 35.4408C256.189 35.6096 255.974 35.6946 255.713 35.6957ZM260.7 44.6051C260.093 44.6079 259.509 44.5312 258.949 44.3751C258.388 44.2096 257.948 44.0016 257.63 43.7511L258.185 42.6846C258.513 42.9164 258.91 43.1012 259.378 43.2391C259.845 43.377 260.316 43.4448 260.792 43.4427C261.968 43.4373 262.555 43.0986 262.552 42.4266C262.551 42.2026 262.471 42.0257 262.311 41.8957C262.152 41.7658 261.951 41.6734 261.708 41.6185C261.475 41.5542 261.138 41.4857 260.699 41.4131C260.101 41.3225 259.611 41.2174 259.228 41.0978C258.854 40.9782 258.531 40.7743 258.259 40.4862C257.987 40.1981 257.85 39.7927 257.847 39.2701C257.844 38.5981 258.122 38.0601 258.68 37.6562C259.238 37.243 259.989 37.0343 260.931 37.03C261.426 37.0277 261.921 37.0861 262.416 37.2052C262.911 37.3243 263.318 37.4858 263.636 37.6896L263.067 38.7563C262.459 38.367 261.744 38.1743 260.922 38.178C260.353 38.1806 259.92 38.2759 259.622 38.464C259.324 38.652 259.176 38.9 259.177 39.208C259.178 39.4507 259.263 39.6416 259.432 39.7808C259.6 39.9201 259.806 40.0218 260.049 40.086C260.301 40.1502 260.652 40.2233 261.1 40.3052C261.698 40.4052 262.179 40.515 262.544 40.6347C262.918 40.745 263.236 40.9395 263.498 41.2183C263.761 41.4971 263.893 41.8885 263.896 42.3925C263.899 43.0645 263.612 43.6025 263.035 44.0065C262.468 44.401 261.689 44.6006 260.7 44.6051ZM269.093 36.9928C270.035 36.9885 270.783 37.2604 271.337 37.8085C271.899 38.3473 272.183 39.144 272.187 40.1987L272.207 44.4686L270.863 44.4748L270.844 40.3588C270.841 39.6402 270.666 39.0996 270.319 38.7372C269.972 38.3748 269.476 38.195 268.832 38.198C268.104 38.2013 267.531 38.4186 267.113 38.8498C266.695 39.2717 266.488 39.8793 266.492 40.6727L266.509 44.4946L265.165 44.5008L265.118 34.1129L266.462 34.1067L266.48 38.1247C266.758 37.7688 267.121 37.4918 267.568 37.2937C268.025 37.0956 268.533 36.9953 269.093 36.9928ZM281.004 40.7605C281.005 40.8632 280.996 40.9985 280.978 41.1666L274.958 41.1941C275.045 41.847 275.332 42.373 275.82 42.7722C276.316 43.1619 276.928 43.3551 277.656 43.3518C278.543 43.3478 279.255 43.0458 279.794 42.446L280.54 43.3106C280.206 43.7042 279.787 44.0048 279.284 44.2124C278.79 44.42 278.236 44.5252 277.62 44.528C276.836 44.5315 276.14 44.3761 275.531 44.0615C274.923 43.7376 274.45 43.2871 274.111 42.7099C273.782 42.1328 273.616 41.4802 273.612 40.7522C273.609 40.0335 273.765 39.3842 274.079 38.8041C274.403 38.2239 274.845 37.7739 275.403 37.454C275.971 37.1247 276.61 36.9585 277.319 36.9553C278.028 36.952 278.659 37.1125 279.211 37.4366C279.773 37.7514 280.209 38.1974 280.519 38.7747C280.839 39.3519 281.001 40.0138 281.004 40.7605ZM277.324 38.0893C276.68 38.0922 276.14 38.2907 275.703 38.6847C275.275 39.0786 275.026 39.5931 274.954 40.2281L279.714 40.2064C279.636 39.5814 279.377 39.0739 278.937 38.6839C278.506 38.2845 277.968 38.0863 277.324 38.0893ZM289.42 34.0021L289.467 44.39L288.179 44.3958L288.174 43.2198C287.877 43.6319 287.501 43.9463 287.044 44.163C286.588 44.3798 286.084 44.4894 285.534 44.4919C284.815 44.4952 284.17 44.3394 283.6 44.0247C283.029 43.71 282.579 43.2687 282.25 42.7008C281.93 42.1236 281.768 41.4617 281.764 40.715C281.761 39.9684 281.917 39.3097 282.231 38.7389C282.556 38.1681 283.002 37.7227 283.569 37.4028C284.137 37.0829 284.781 36.9213 285.499 36.918C286.031 36.9156 286.522 37.016 286.971 37.2193C287.419 37.4132 287.794 37.7055 288.095 38.0962L288.076 34.0082L289.42 34.0021ZM285.64 43.3154C286.107 43.3133 286.531 43.204 286.913 42.9876C287.295 42.7619 287.592 42.4525 287.805 42.0595C288.018 41.6572 288.123 41.1994 288.12 40.6861C288.118 40.1727 288.009 39.7206 287.792 39.3295C287.576 38.9292 287.276 38.6226 286.892 38.4096C286.508 38.1967 286.083 38.0913 285.617 38.0935C285.141 38.0956 284.712 38.2049 284.33 38.4213C283.958 38.6377 283.66 38.947 283.438 39.3494C283.225 39.7424 283.12 40.1955 283.122 40.7088C283.125 41.2222 283.234 41.679 283.451 42.0794C283.677 42.4703 283.977 42.777 284.351 42.9993C284.735 43.2122 285.164 43.3176 285.64 43.3154ZM297.603 34.9868C296.801 34.9904 296.401 35.4263 296.405 36.2943L296.408 36.9382L298.564 36.9284L298.569 38.0344L296.441 38.0441L296.47 44.358L295.126 44.3642L295.097 38.0502L293.837 38.056L293.832 36.95L295.092 36.9442L295.089 36.2863C295.086 35.5489 295.298 34.9646 295.725 34.5333C296.153 34.102 296.754 33.8846 297.528 33.8811C297.827 33.8797 298.107 33.9158 298.369 33.9893C298.63 34.0628 298.855 34.1691 299.042 34.3082L298.641 35.3321C298.332 35.1001 297.986 34.985 297.603 34.9868ZM301.977 36.8429C303.003 36.8382 303.788 37.0866 304.332 37.5881C304.885 38.0896 305.164 38.8397 305.168 39.8383L305.189 44.3183L303.915 44.3241L303.91 43.3441C303.688 43.6905 303.367 43.9579 302.948 44.1465C302.538 44.3257 302.048 44.4166 301.479 44.4192C300.648 44.423 299.98 44.2254 299.474 43.8263C298.978 43.4273 298.728 42.9011 298.725 42.2477C298.722 41.5944 298.958 41.0707 299.432 40.6765C299.906 40.273 300.661 40.0689 301.697 40.0642L303.825 40.0545L303.824 39.7885C303.821 39.2098 303.651 38.7672 303.314 38.4608C302.977 38.1543 302.481 38.0026 301.828 38.0056C301.389 38.0076 300.96 38.0842 300.541 38.2354C300.122 38.3773 299.768 38.5703 299.48 38.8143L298.915 37.8088C299.296 37.4991 299.753 37.2637 300.284 37.1026C300.815 36.9322 301.379 36.8456 301.977 36.8429ZM301.698 43.3822C302.212 43.3799 302.655 43.2658 303.027 43.0401C303.399 42.8051 303.668 42.4772 303.834 42.0564L303.83 41.0205L301.758 41.0299C300.619 41.0351 300.051 41.4204 300.055 42.1857C300.057 42.559 300.203 42.8523 300.493 43.0657C300.783 43.279 301.185 43.3845 301.698 43.3822ZM310.531 44.3779C309.775 44.3814 309.098 44.2211 308.499 43.8972C307.91 43.5732 307.446 43.1273 307.107 42.5595C306.768 41.9824 306.597 41.3298 306.594 40.6019C306.591 39.8739 306.756 39.2244 307.089 38.6536C307.422 38.0734 307.882 37.6233 308.469 37.3033C309.065 36.9739 309.741 36.8075 310.497 36.804C311.169 36.801 311.767 36.9336 312.291 37.2018C312.824 37.4701 313.236 37.8602 313.528 38.3722L312.509 39.0349C312.274 38.6813 311.983 38.4166 311.637 38.2408C311.291 38.0651 310.908 37.9782 310.488 37.9801C310.003 37.9823 309.565 38.0916 309.174 38.3081C308.792 38.5245 308.49 38.8339 308.268 39.2362C308.055 39.6292 307.95 40.0823 307.952 40.5957C307.954 41.1183 308.064 41.5798 308.28 41.9802C308.506 42.3712 308.811 42.6731 309.194 42.886C309.587 43.0989 310.027 43.2042 310.512 43.202C310.932 43.2001 311.314 43.1097 311.659 42.9308C312.003 42.7519 312.291 42.4846 312.523 42.1288L313.548 42.7682C313.261 43.2828 312.852 43.6814 312.321 43.9638C311.8 44.2368 311.203 44.3749 310.531 44.3779ZM319.141 43.8207C318.945 43.9896 318.703 44.1214 318.414 44.216C318.125 44.3013 317.827 44.3447 317.519 44.3461C316.772 44.3495 316.193 44.1515 315.78 43.752C315.368 43.3525 315.16 42.7795 315.156 42.0328L315.138 37.9589L313.878 37.9646L313.873 36.8586L315.133 36.8529L315.125 35.2289L316.469 35.2228L316.477 36.8468L318.605 36.8371L318.61 37.943L316.482 37.9527L316.5 41.9707C316.502 42.372 316.601 42.6796 316.798 42.8934C317.005 43.1071 317.294 43.2131 317.668 43.2114C318.078 43.2095 318.428 43.0913 318.716 42.8566L319.141 43.8207Z" fill="#A6A6A6"/>
<path d="M127 1V57" stroke="black"/>
<path fill-rule="evenodd" clip-rule="evenodd" d="M55.0088 8.18999C55.0036 8.08625 55.0196 7.98254 55.0557 7.88528C55.0919 7.78802 55.1474 7.69928 55.2189 7.62455C55.3044 7.54779 55.4042 7.48908 55.5125 7.45188C55.6208 7.41468 55.7354 7.39974 55.8495 7.40795H68.1891C69.444 7.40084 70.6898 7.62331 71.8661 8.06459C72.9623 8.47235 73.9779 9.07378 74.8651 9.84071C75.7053 10.572 76.3916 11.4659 76.8833 12.4695C77.3708 13.4671 77.6214 14.5654 77.6155 15.6775C77.6204 16.4278 77.5012 17.1737 77.263 17.8845C77.0316 18.5788 76.7028 19.2361 76.2867 19.8362C75.8613 20.4491 75.3583 21.0033 74.7905 21.4847C74.2078 21.9824 73.5691 22.4094 72.8876 22.7569L77.8144 30.9923C77.9026 31.1519 78.0178 31.3365 78.1579 31.5531C78.2797 31.716 78.3526 31.9106 78.3681 32.114C78.3728 32.194 78.3571 32.2738 78.3227 32.346C78.2883 32.4182 78.2363 32.4804 78.1715 32.5267C78.0089 32.6324 77.8179 32.685 77.6246 32.6772H71.0548C70.8487 32.6794 70.6465 32.6199 70.4739 32.5062C70.3085 32.4027 70.1881 32.2397 70.1372 32.0502L65.5087 24.2777H62.4193V31.9476C62.4193 32.4332 62.1278 32.6795 61.5402 32.6795H55.8495C55.6315 32.6897 55.4165 32.6254 55.2393 32.4971C55.161 32.4302 55.0996 32.3455 55.0603 32.25C55.021 32.1544 55.0049 32.0507 55.0133 31.9476V8.18999H55.0088ZM69.9451 15.7573C69.9429 15.4069 69.8714 15.0604 69.7349 14.7381C69.5932 14.3956 69.3954 14.0796 69.1496 13.8033C68.6026 13.1998 67.8593 12.8139 67.0546 12.7158C66.7043 12.6907 66.3766 12.6679 66.0624 12.6519C65.7483 12.636 65.4115 12.6291 65.0432 12.6291H62.4193V18.8695H65.9155C66.1415 18.8695 66.3494 18.8695 66.528 18.8535C66.7065 18.8376 66.8964 18.8262 67.1133 18.8011C67.5306 18.7632 67.9366 18.644 68.3089 18.45C68.6496 18.2804 68.9561 18.0485 69.2129 17.766C69.4487 17.4884 69.6346 17.1712 69.762 16.8289C69.8867 16.4858 69.9487 16.1227 69.9451 15.7573Z" fill="#373737"/>
<path fill-rule="evenodd" clip-rule="evenodd" d="M24.6212 34.8474C24.6197 34.7822 24.6329 34.7175 24.66 34.6582C24.687 34.599 24.7271 34.5467 24.7771 34.5054C24.89 34.4134 25.0321 34.3656 25.1772 34.3709H30.9176C31.6601 34.3653 32.3978 34.4927 33.0962 34.7471C33.7428 34.9817 34.3439 35.3281 34.8726 35.7708C35.3687 36.1923 35.7767 36.7093 36.0726 37.2916C36.361 37.8699 36.5112 38.5082 36.5112 39.1555C36.5112 39.8028 36.361 40.4411 36.0726 41.0194C35.776 41.5999 35.3681 42.1153 34.8726 42.5356C34.3504 42.9799 33.7533 43.3258 33.1098 43.557C32.4197 43.814 31.6893 43.943 30.9537 43.9378H26.0247V49.2821C26.0247 49.599 25.8348 49.7586 25.4597 49.7586H25.1614C24.802 49.7586 24.6212 49.599 24.6212 49.2821V34.8474ZM35.1325 39.1566C35.1352 38.6633 35.0214 38.1763 34.8003 37.7362C34.578 37.2928 34.2707 36.8984 33.8962 36.5757C33.5038 36.2331 33.0506 35.9685 32.5606 35.7959C32.0348 35.6031 31.4792 35.5066 30.9198 35.5109H26.0247V42.8069H30.9221C31.4816 42.8105 32.0372 42.7132 32.5629 42.5196C33.0549 42.3425 33.5089 42.0725 33.9008 41.7239C34.2758 41.4017 34.5831 41.0072 34.8048 40.5634C35.0257 40.1249 35.1396 39.6394 35.137 39.1475L35.1325 39.1566ZM44.5657 34.3686C45.3166 34.3702 46.0615 34.5037 46.767 34.7631C47.4164 34.9969 48.0189 35.3468 48.5456 35.7959C49.0411 36.2223 49.4475 36.7439 49.7411 37.3304C50.0313 37.9154 50.1793 38.5617 50.1728 39.2159C50.1754 39.6971 50.0935 40.1749 49.931 40.6272C49.7713 41.0749 49.5424 41.4943 49.253 41.8698C48.9489 42.256 48.5938 42.5981 48.1975 42.8867C47.7814 43.1924 47.325 43.4379 46.8415 43.6163L49.8812 49.3163C49.9137 49.3729 49.9338 49.4359 49.94 49.501C49.9429 49.5544 49.9352 49.6079 49.9174 49.6583C49.9016 49.6925 49.8564 49.7176 49.7841 49.7336C49.6722 49.7539 49.5587 49.7646 49.4451 49.7655C49.2914 49.7655 49.0744 49.7655 48.7919 49.7655C48.7254 49.7687 48.6596 49.7515 48.6031 49.7161C48.5465 49.6806 48.5021 49.6287 48.4755 49.5671L45.4968 43.9264C45.3364 43.9583 45.1737 43.9834 45.0087 43.9994C44.821 44.0196 44.6324 44.0294 44.4437 44.029H38.5519V49.3847C38.5519 49.6332 38.405 49.7586 38.0999 49.7586H37.5755C37.2795 49.7586 37.1348 49.6332 37.1348 49.3847V34.7129C37.1669 34.6137 37.221 34.5233 37.293 34.4484C37.3731 34.389 37.4721 34.3614 37.571 34.3709L44.5657 34.3686ZM43.8583 42.8388H44.0527C44.3668 42.8388 44.6787 42.8388 44.9861 42.8183C45.2925 42.804 45.5961 42.7519 45.8901 42.6633C46.2995 42.5448 46.6911 42.3707 47.054 42.1457C47.3928 41.9318 47.6976 41.6674 47.958 41.3614C48.2095 41.0636 48.4097 40.7252 48.5501 40.3605C48.7067 39.9478 48.777 39.507 48.7568 39.0656C48.7366 38.6242 48.6262 38.1918 48.4326 37.7955C48.2138 37.3473 47.9061 36.9492 47.5286 36.6258C47.1264 36.2846 46.6672 36.0182 46.1726 35.8392C45.6376 35.6424 45.0719 35.5443 44.5024 35.5497H38.5519V42.8457L43.8583 42.8388ZM50.0236 42.0887C50.021 42.7996 50.1317 43.5063 50.3513 44.1818C50.5681 44.8511 50.8795 45.4853 51.2757 46.065C51.6834 46.659 52.1675 47.1957 52.7153 47.661C53.2848 48.147 53.9109 48.5612 54.5798 48.8945C55.2817 49.2419 56.0201 49.5088 56.781 49.6902C58.3951 50.0611 60.0711 50.0611 61.6852 49.6902C62.4455 49.5092 63.1832 49.2423 63.8842 48.8945C64.5522 48.5625 65.1782 48.1507 65.7487 47.6679C66.2972 47.2026 66.782 46.6659 67.1906 46.0719C67.5882 45.4925 67.9025 44.8592 68.124 44.1909C68.346 43.5151 68.4574 42.8074 68.4539 42.0956C68.4563 41.3823 68.3449 40.6732 68.124 39.9957C67.9026 39.3223 67.5884 38.6837 67.1906 38.0987C66.7822 37.5046 66.2973 36.9679 65.7487 36.5027C65.1789 36.0177 64.5528 35.6043 63.8842 35.2715C63.1837 34.922 62.4459 34.6543 61.6852 34.4735C59.2981 33.9011 56.788 34.1832 54.5843 35.2715C53.9129 35.6037 53.2851 36.0188 52.7153 36.5073C52.1689 36.9741 51.685 37.5106 51.2757 38.1033C50.8773 38.6833 50.5658 39.3194 50.3513 39.9911C50.1317 40.6682 50.021 41.3764 50.0236 42.0887ZM51.4271 42.0728C51.4265 41.4725 51.5211 40.8759 51.7073 40.3058C51.8902 39.7376 52.1552 39.1998 52.4938 38.7098C52.8405 38.2094 53.2499 37.7565 53.7119 37.3623C54.194 36.9483 54.7254 36.5967 55.2939 36.3158C55.8909 36.0199 56.5195 35.7942 57.1675 35.6432C57.8489 35.4816 58.5467 35.4013 59.2467 35.4038C60.2785 35.3971 61.3033 35.5762 62.2728 35.9327C63.1794 36.258 64.0212 36.7436 64.7588 37.3668C65.4533 37.9525 66.0243 38.6727 66.438 39.485C66.8481 40.2846 67.0606 41.1724 67.0572 42.0728C67.0581 42.6751 66.9642 43.2739 66.7793 43.8466C66.5939 44.4141 66.3282 44.9517 65.9905 45.4426C65.6454 45.9456 65.2341 46.3989 64.7678 46.7901C64.2824 47.1981 63.7514 47.5478 63.1858 47.832C62.5932 48.1314 61.9683 48.361 61.3236 48.516C59.6243 48.914 57.8476 48.8143 56.2024 48.2288C55.2967 47.9049 54.4551 47.4216 53.7164 46.8015C53.025 46.216 52.4571 45.4966 52.0463 44.6856C51.6378 43.8815 51.427 42.99 51.4316 42.0864L51.4271 42.0728ZM68.5082 42.0887C68.5059 41.3766 68.6158 40.6685 68.8336 39.9911C69.0481 39.3194 69.3595 38.6833 69.7579 38.1033C70.1688 37.5112 70.6534 36.9748 71.1998 36.5073C71.7692 36.0183 72.3971 35.6031 73.0688 35.2715C75.2728 34.1868 77.7809 33.9049 80.1675 34.4735C80.929 34.6539 81.6676 34.9217 82.3687 35.2715C83.0373 35.6043 83.6634 36.0177 84.2332 36.5027C84.7813 36.9685 85.2661 37.5051 85.6751 38.0987C86.0723 38.6838 86.3857 39.3224 86.6062 39.9957C86.829 40.6729 86.9412 41.3821 86.9385 42.0956C86.9423 42.8077 86.8301 43.5155 86.6062 44.1909C86.3856 44.8591 86.0721 45.4925 85.6751 46.0719C85.2659 46.6653 84.7811 47.2019 84.2332 47.6679C83.6627 48.1507 83.0367 48.5625 82.3687 48.8945C81.6671 49.2426 80.9286 49.5096 80.1675 49.6902C78.5534 50.0611 76.8774 50.0611 75.2633 49.6902C74.5032 49.5085 73.7656 49.2416 73.0643 48.8945C72.3916 48.5596 71.7623 48.1422 71.1908 47.6519C70.6429 47.186 70.1581 46.6494 69.7489 46.0559C69.3527 45.4762 69.0414 44.842 68.8246 44.1726C68.6067 43.4968 68.4969 42.7903 68.4991 42.0796L68.5082 42.0887ZM69.9116 42.0728C69.9074 42.976 70.1174 43.8672 70.5241 44.672C70.9357 45.4829 71.5044 46.2024 72.1965 46.7878C72.9346 47.4086 73.7764 47.8919 74.6825 48.2151C76.3276 48.8006 78.1043 48.9003 79.8036 48.5024C80.4477 48.3476 81.0719 48.1181 81.6636 47.8184C82.2298 47.5352 82.7608 47.1854 83.2456 46.7764C83.712 46.3847 84.124 45.9315 84.4705 45.4289C84.8084 44.9384 85.0734 44.4008 85.257 43.8329C85.443 43.2604 85.5368 42.6615 85.535 42.0591C85.5391 41.1589 85.3274 40.2711 84.918 39.4713C84.5043 38.659 83.9334 37.9388 83.2388 37.3532C82.5009 36.7304 81.6591 36.2448 80.7528 35.919C79.7833 35.5627 78.7586 35.3836 77.7267 35.3901C77.0267 35.3876 76.3289 35.468 75.6475 35.6295C74.9995 35.7806 74.3709 36.0062 73.774 36.3021C73.2054 36.583 72.674 36.9346 72.192 37.3486C71.7291 37.7427 71.3189 38.1956 70.9716 38.6961C70.6356 39.1877 70.3708 39.7251 70.1851 40.2921C69.9996 40.8624 69.9058 41.4589 69.9071 42.0591L69.9116 42.0728ZM99.8498 34.3686C100.166 34.3686 100.324 34.5009 100.324 34.7631V35.2806C100.326 35.334 100.316 35.3871 100.295 35.436C100.274 35.485 100.242 35.5285 100.202 35.5634C100.103 35.6437 99.9771 35.6835 99.8498 35.6751H89.4109V41.7399C90.8332 41.7399 92.2344 41.7399 93.6145 41.7399C94.9946 41.7399 96.3958 41.7399 97.8181 41.7399C97.9369 41.7347 98.0542 41.7683 98.1526 41.8356C98.1962 41.8722 98.2303 41.9189 98.252 41.9717C98.2737 42.0246 98.2822 42.082 98.2769 42.1389V42.6587C98.2795 42.7116 98.2708 42.7645 98.2513 42.8137C98.2318 42.8629 98.202 42.9073 98.1639 42.9437C98.0647 43.019 97.9419 43.0554 97.8181 43.0463H89.4109V49.371C89.4109 49.615 89.264 49.7358 88.9589 49.7358H88.3238C88.03 49.7358 87.8854 49.615 87.8854 49.371V34.7334C87.8854 34.4758 88.03 34.3481 88.3238 34.3481L99.8498 34.3686Z" fill="#373737"/>
<path fill-rule="evenodd" clip-rule="evenodd" d="M79.1003 8.18966C79.0965 8.08469 79.1146 7.98008 79.1536 7.88265C79.1925 7.78523 79.2513 7.69717 79.3263 7.62422C79.4955 7.47263 79.7173 7.39476 79.9433 7.40762H98.9114C99.149 7.39457 99.382 7.47649 99.56 7.63562C99.6371 7.71317 99.6971 7.80626 99.7361 7.90881C99.775 8.01136 99.792 8.12105 99.786 8.2307V12.4487C99.7817 12.654 99.701 12.8501 99.56 12.9982C99.4739 13.0908 99.3683 13.1628 99.251 13.2089C99.1337 13.2551 99.0076 13.2742 98.882 13.2649H86.504V17.4829H96.0503C96.2618 17.4743 96.4713 17.5273 96.6537 17.6357C96.7327 17.6926 96.7953 17.7697 96.835 17.859C96.8747 17.9484 96.8901 18.0468 96.8797 18.1441V21.8286C96.8762 21.9149 96.8558 21.9995 96.8197 22.0778C96.7837 22.1561 96.7326 22.2264 96.6695 22.2846C96.5891 22.3634 96.4934 22.4244 96.3883 22.4636C96.2832 22.5029 96.1712 22.5196 96.0593 22.5126H86.504V26.8287H99.3386C99.9126 26.8287 100.2 27.0931 100.2 27.6107V31.8971C100.198 31.9566 100.183 32.0151 100.157 32.0683C100.13 32.1215 100.092 32.1681 100.046 32.2049C99.9962 32.5195 99.7341 32.6814 99.2617 32.6814H79.9319C79.714 32.6913 79.4992 32.627 79.3218 32.499C79.2437 32.432 79.1826 32.3472 79.1433 32.2517C79.104 32.1562 79.0877 32.0526 79.0958 31.9495L79.1003 8.18966Z" fill="#373737"/>
<path fill-rule="evenodd" clip-rule="evenodd" d="M24.5586 20.0639C24.5581 18.8913 24.7357 17.7257 25.0852 16.6074C25.4257 15.5018 25.9236 14.4519 26.5632 13.4906C27.2083 12.5124 27.9763 11.6227 28.8481 10.8436C29.7436 10.0438 30.7361 9.3619 31.8019 8.81435C34.0914 7.64121 36.6231 7.02979 39.191 7.02979C41.7589 7.02979 44.2905 7.64121 46.58 8.81435C47.6471 9.36567 48.6429 10.0472 49.5452 10.8436C50.4206 11.6196 51.1898 12.5098 51.8323 13.4906C52.4611 14.4568 52.9554 15.5055 53.3013 16.6074C54.0095 18.8594 54.0095 21.2774 53.3013 23.5295C52.9566 24.6268 52.4622 25.6705 51.8323 26.6303C51.1891 27.6018 50.4199 28.4821 49.5452 29.2477C48.6402 30.0425 47.6449 30.726 46.58 31.2838C45.4686 31.86 44.2925 32.2994 43.077 32.5925C40.5194 33.2035 37.8557 33.2035 35.2981 32.5925C34.0848 32.2995 32.911 31.8601 31.8019 31.2838C30.7383 30.7298 29.7463 30.0459 28.8481 29.2477C27.9739 28.4795 27.2028 27.5996 26.5542 26.6303C25.9166 25.6749 25.4216 24.6301 25.0852 23.5295C24.7351 22.4082 24.5575 21.2394 24.5586 20.0639ZM31.9714 20.0411C31.9647 20.9476 32.1464 21.8454 32.5048 22.6768C32.8539 23.4829 33.364 24.2078 34.0031 24.8063C34.6634 25.4274 35.4371 25.9129 36.2812 26.2358C38.155 26.932 40.2134 26.932 42.0872 26.2358C42.9366 25.9142 43.7157 25.4286 44.3811 24.8063C45.0285 24.1972 45.5436 23.4592 45.8937 22.639C46.2438 21.8188 46.4214 20.9341 46.4151 20.0411C46.4197 19.1449 46.2415 18.2574 45.8916 17.4337C45.5417 16.61 45.0275 15.8677 44.3811 15.2531C43.7159 14.6266 42.937 14.1357 42.0872 13.8076C40.2144 13.1054 38.1539 13.1054 36.2812 13.8076C35.4349 14.1438 34.6612 14.6424 34.0031 15.2759C33.3552 15.8893 32.84 16.6313 32.4899 17.4553C32.1399 18.2793 31.9626 19.1674 31.9691 20.0639L31.9714 20.0411Z" fill="#373737"/>
<path fill-rule="evenodd" clip-rule="evenodd" d="M26.6663 9.24542C26.8656 9.34138 27.0317 9.49547 27.1432 9.68774C27.1926 9.79076 27.2134 9.90536 27.2035 10.0194C27.1935 10.1334 27.1532 10.2425 27.0867 10.3353L23.8526 14.4142C23.8029 14.4967 23.7373 14.5682 23.6597 14.6246C23.582 14.681 23.4939 14.7211 23.4006 14.7425C23.1973 14.7582 22.9946 14.7052 22.8243 14.592C22.1882 14.1686 21.4937 13.8421 20.7632 13.623C19.9865 13.3953 19.1809 13.2839 18.3721 13.2924C17.3864 13.2815 16.4077 13.4602 15.4884 13.8191C14.6438 14.1509 13.8715 14.6458 13.2148 15.276C12.5818 15.8832 12.0754 16.6118 11.7255 17.4192C11.3667 18.2441 11.1841 19.1359 11.1898 20.0367C11.1835 20.9345 11.3661 21.8235 11.7255 22.645C12.0769 23.4462 12.5832 24.1686 13.2148 24.7699C13.8734 25.3932 14.6455 25.8818 15.4884 26.2086C16.4073 26.5693 17.3862 26.7489 18.3721 26.7376C19.1915 26.738 20.0065 26.6158 20.7903 26.3751C21.5286 26.1565 22.2302 25.8275 22.8718 25.3992C23.0432 25.2903 23.2434 25.2362 23.4458 25.2442C23.6276 25.2902 23.7875 25.3991 23.8978 25.552L27.1635 29.7403C27.2299 29.8309 27.2704 29.9382 27.2803 30.0504C27.2903 30.1626 27.2694 30.2754 27.22 30.3765C27.1029 30.5595 26.9378 30.7063 26.7432 30.8005C24.2502 32.291 21.4033 33.0719 18.5055 33.06C17.1978 33.0656 15.8942 32.9125 14.6228 32.604C13.4118 32.3106 12.2402 31.8712 11.1333 31.2953C10.068 30.7419 9.07439 30.0581 8.17501 29.2593C7.30247 28.4871 6.5336 27.6034 5.88789 26.6304C5.24979 25.674 4.75197 24.6296 4.40985 23.5296C3.72276 21.2743 3.72276 18.8628 4.40985 16.6075C4.75322 15.503 5.2509 14.4536 5.88789 13.4908C6.53381 12.5125 7.30258 11.6228 8.17501 10.8437C9.07172 10.0433 10.0658 9.36144 11.1333 8.8145C14.7545 6.97579 18.9191 6.54332 22.8356 7.59926C24.1794 7.97374 25.4676 8.52734 26.6663 9.24542Z" fill="#373737"/>
<path fill-rule="evenodd" clip-rule="evenodd" d="M105.342 24.9979C105.436 25.0905 105.511 25.2013 105.563 25.3237C105.614 25.4461 105.64 25.5776 105.64 25.7104C105.64 25.8432 105.614 25.9747 105.563 26.0971C105.511 26.2195 105.436 26.3303 105.342 26.4229C105.147 26.6091 104.888 26.7128 104.62 26.7128C104.351 26.7128 104.093 26.6091 103.898 26.4229C103.804 26.3299 103.73 26.2191 103.679 26.0967C103.628 25.9744 103.602 25.8431 103.602 25.7104C103.602 25.5777 103.628 25.4464 103.679 25.3241C103.73 25.2017 103.804 25.0909 103.898 24.9979C104.093 24.8117 104.351 24.708 104.62 24.708C104.888 24.708 105.147 24.8117 105.342 24.9979Z" fill="#373737"/>
<path fill-rule="evenodd" clip-rule="evenodd" d="M104.544 18.3359C104.492 18.2839 104.429 18.2439 104.36 18.2187C104.291 18.1935 104.217 18.1837 104.144 18.19C104.074 18.1811 104.002 18.1902 103.936 18.2165C103.87 18.2428 103.812 18.2854 103.766 18.3405C103.683 18.5051 103.647 18.6898 103.663 18.874V19.485H104.668V18.8877C104.687 18.695 104.644 18.5013 104.544 18.3359ZM104.544 18.3359C104.492 18.2839 104.429 18.2439 104.36 18.2187C104.291 18.1935 104.217 18.1837 104.144 18.19C104.074 18.1811 104.002 18.1902 103.936 18.2165C103.87 18.2428 103.812 18.2854 103.766 18.3405C103.683 18.5051 103.647 18.6898 103.663 18.874V19.485H104.668V18.8877C104.687 18.695 104.644 18.5013 104.544 18.3359ZM107.303 7.29613H101.814C101.7 7.2906 101.589 7.32834 101.502 7.40184C101.415 7.47535 101.358 7.57924 101.344 7.69285V49.4921C101.357 49.6074 101.414 49.713 101.502 49.7876C101.59 49.8622 101.703 49.9 101.818 49.8934H107.303C107.417 49.9016 107.53 49.8644 107.617 49.7898C107.704 49.7152 107.759 49.6091 107.769 49.4944V7.68373C107.756 7.57103 107.7 7.46779 107.613 7.39557C107.527 7.32334 107.416 7.28772 107.303 7.29613ZM106.042 46.0561H103.233V44.166H103.674V45.5728H104.447V44.3165H104.885V45.5728H106.042V46.0561ZM106.042 39.9571H103.233V39.4783H105.593V38.1833H106.045L106.042 39.9571ZM105.654 33.8445C105.377 34.1193 105.004 34.2734 104.616 34.2734C104.228 34.2734 103.855 34.1193 103.579 33.8445C103.313 33.5556 103.165 33.1761 103.165 32.782C103.165 32.3879 103.313 32.0083 103.579 31.7195C103.855 31.4435 104.228 31.2887 104.616 31.2887C105.005 31.2887 105.378 31.4435 105.654 31.7195C105.922 32.0068 106.072 32.3869 106.072 32.782C106.072 33.177 105.922 33.5571 105.654 33.8445ZM105.654 26.7765C105.378 27.0524 105.005 27.2072 104.616 27.2072C104.228 27.2072 103.855 27.0524 103.579 26.7765C103.313 26.4876 103.165 26.1081 103.165 25.714C103.165 25.3199 103.313 24.9403 103.579 24.6515C103.855 24.3766 104.228 24.2226 104.616 24.2226C105.004 24.2226 105.377 24.3766 105.654 24.6515C105.922 24.9388 106.072 25.3189 106.072 25.714C106.072 26.109 105.922 26.4891 105.654 26.7765ZM106.042 19.4805V19.957H103.233V18.9082C103.208 18.5824 103.287 18.2571 103.459 17.9802C103.572 17.8651 103.712 17.7803 103.866 17.7336C104.02 17.6868 104.183 17.6797 104.34 17.7128C104.497 17.7459 104.644 17.8182 104.766 17.923C104.889 18.0278 104.983 18.162 105.041 18.3131L106.06 17.5698V18.1763L105.118 18.8603V19.4896L106.042 19.4805ZM105.622 13.5889L105.263 13.2903C105.491 13.0492 105.623 12.7318 105.633 12.3988C105.64 12.2681 105.606 12.1385 105.534 12.0294C105.505 11.9868 105.465 11.9522 105.42 11.9287C105.374 11.9053 105.323 11.8936 105.272 11.8949C105.222 11.8927 105.174 11.9033 105.13 11.9256C105.086 11.948 105.048 11.9814 105.021 12.0226C104.94 12.1582 104.884 12.3072 104.856 12.4626C104.82 12.6244 104.774 12.7836 104.718 12.9391C104.678 13.0426 104.623 13.1394 104.555 13.2264C104.486 13.3123 104.397 13.38 104.297 13.4237C104.196 13.4674 104.086 13.4857 103.977 13.4772C103.861 13.4831 103.745 13.46 103.64 13.4099C103.535 13.3597 103.444 13.2842 103.375 13.1899C103.23 12.9844 103.156 12.7357 103.165 12.4831C103.166 12.2996 103.195 12.1173 103.251 11.9428C103.307 11.7769 103.392 11.6224 103.502 11.4868L103.861 11.7444C103.775 11.8427 103.711 11.9586 103.674 12.0841C103.627 12.2206 103.603 12.3638 103.601 12.5082C103.597 12.6282 103.627 12.747 103.687 12.8502C103.713 12.8939 103.751 12.9295 103.795 12.9532C103.84 12.9769 103.89 12.9878 103.94 12.9847C103.992 12.9878 104.044 12.9769 104.09 12.9533C104.136 12.9296 104.175 12.8941 104.203 12.8502C104.297 12.6715 104.363 12.4792 104.399 12.2802C104.444 12.0416 104.545 11.8172 104.693 11.6259C104.763 11.5482 104.849 11.4873 104.945 11.4478C105.042 11.4084 105.145 11.3913 105.249 11.3979C105.363 11.3947 105.477 11.4184 105.58 11.4671C105.684 11.5158 105.775 11.5881 105.846 11.6783C106.005 11.888 106.086 12.1484 106.072 12.4125C106.075 12.8479 105.914 13.2683 105.622 13.5889ZM104.144 18.19C104.074 18.1811 104.002 18.1902 103.936 18.2165C103.87 18.2428 103.812 18.2854 103.766 18.3405C103.683 18.5051 103.647 18.6898 103.663 18.874V19.485H104.668V18.8877C104.687 18.695 104.644 18.5013 104.544 18.3359C104.492 18.2839 104.429 18.2439 104.36 18.2187C104.291 18.1935 104.217 18.1837 104.144 18.19ZM104.544 18.3359C104.492 18.2839 104.429 18.2439 104.36 18.2187C104.291 18.1935 104.217 18.1837 104.144 18.19C104.074 18.1811 104.002 18.1902 103.936 18.2165C103.87 18.2428 103.812 18.2854 103.766 18.3405C103.683 18.5051 103.647 18.6898 103.663 18.874V19.485H104.668V18.8877C104.687 18.695 104.644 18.5013 104.544 18.3359ZM104.544 18.3359C104.492 18.2839 104.429 18.2439 104.36 18.2187C104.291 18.1935 104.217 18.1837 104.144 18.19C104.074 18.1811 104.002 18.1902 103.936 18.2165C103.87 18.2428 103.812 18.2854 103.766 18.3405C103.683 18.5051 103.647 18.6898 103.663 18.874V19.485H104.668V18.8877C104.687 18.695 104.644 18.5013 104.544 18.3359ZM105.339 32.0547C105.144 31.8685 104.886 31.7648 104.617 31.7648C104.349 31.7648 104.09 31.8685 103.895 32.0547C103.801 32.1476 103.727 32.2585 103.676 32.3808C103.625 32.5032 103.599 32.6345 103.599 32.7672C103.599 32.8998 103.625 33.0311 103.676 33.1535C103.727 33.2758 103.801 33.3867 103.895 33.4797C104.09 33.6658 104.349 33.7695 104.617 33.7695C104.886 33.7695 105.144 33.6658 105.339 33.4797C105.434 33.387 105.509 33.2762 105.56 33.1539C105.611 33.0315 105.638 32.9 105.638 32.7672C105.638 32.6343 105.611 32.5028 105.56 32.3804C105.509 32.2581 105.434 32.1473 105.339 32.0547Z" fill="#373737"/>
</svg>
