<svg width="480" height="444" viewBox="0 0 480 444" fill="none" xmlns="http://www.w3.org/2000/svg">
<rect width="480" height="444" rx="30" fill="white"/>
<path d="M238.841 252.905H239.796C242.124 252.905 244.436 252.686 246.698 252.219C250.366 251.466 253.769 250.176 256.9 248.333C251.54 251.247 245.391 252.905 238.841 252.905ZM241.789 177.177C241.305 177.16 240.817 177.16 240.334 177.16C246.834 177.429 252.913 179.306 258.157 182.435C253.182 179.219 247.703 177.445 241.789 177.177ZM241.421 242.991C239.428 243.343 237.451 243.512 235.441 243.529C235.859 243.545 236.293 243.562 236.715 243.562C242.124 243.562 247.186 242.053 251.507 239.424C248.393 241.147 245.04 242.355 241.421 242.991ZM236.715 186.47C236.479 186.47 236.248 186.47 236.012 186.487C236.397 186.503 236.765 186.52 237.133 186.536C241.959 186.702 246.479 187.958 250.701 190.137C246.561 187.81 241.789 186.47 236.711 186.47H236.715Z" fill="#1A1A1A"/>
<path d="M258.151 182.434C252.907 179.3 246.828 177.427 240.327 177.158C239.843 177.158 239.355 177.142 238.851 177.142H238.818C228.715 177.125 218.649 177.142 208.563 177.142H177.27C176.398 177.142 175.529 177.125 174.657 177.142C173.234 177.142 173.234 177.158 173.218 178.581V240.96C173.218 241.547 173.218 242.134 173.201 242.7C173.201 242.87 173.168 243.052 173.118 243.221C173.085 243.32 172.97 243.44 172.866 243.473C172.531 243.523 172.18 243.556 171.845 243.556C165.129 243.556 158.409 243.573 151.676 243.54C148.31 243.54 144.977 243.155 141.677 242.485C133.671 240.828 126.384 237.528 119.9 232.539C117.737 230.864 115.711 229.091 113.953 226.978C109.731 221.939 106.53 216.362 104.372 210.165C102.68 205.374 101.741 200.454 101.44 195.394C101.423 195.158 101.423 194.943 101.44 194.708C101.588 192.562 101.758 190.421 102.126 188.312C102.813 184.476 103.867 180.759 105.327 177.158C107.738 171.247 111.141 165.972 115.446 161.267C115.798 160.866 116.166 160.531 116.567 160.163C121.323 155.843 126.703 152.478 132.699 150.113C138.848 147.67 145.246 146.479 151.846 146.347H180.107C180.695 146.347 181.265 146.347 181.848 146.331C182.266 146.331 182.518 146.111 182.535 145.727C182.551 145.392 182.551 145.041 182.551 144.689C182.568 142.73 182.551 140.754 182.568 138.778C182.568 136.971 182.584 137.004 180.707 137.004C171.377 137.004 157.437 136.988 148.108 137.021C146.081 137.021 144.038 137.12 142.024 137.322C138.609 137.657 135.275 138.344 132.008 139.365C123.953 141.878 116.881 146.045 110.769 151.858C109.764 152.829 108.809 153.834 107.82 154.789C102.626 159.981 98.6234 165.959 95.894 172.776C93.818 177.985 92.5609 183.343 92.1763 188.953C91.9902 191.566 91.9902 194.162 92.0067 196.758C92.0233 200.14 92.2921 203.472 92.8958 206.808C93.7519 211.513 95.2241 216.002 97.267 220.306C99.8971 225.784 103.383 230.67 107.688 234.978L109.764 237.07C114.722 242.076 120.433 245.946 126.901 248.691C131.744 250.733 136.785 252.039 141.995 252.593C144.241 252.829 146.503 252.945 148.782 252.945C156.068 252.928 163.371 252.928 170.674 252.928H172.25C173.019 252.945 173.172 253.093 173.205 253.817C173.222 254.404 173.222 254.974 173.222 255.557V304.74C173.222 305.377 173.255 306.014 173.288 306.65C173.288 306.75 173.42 306.869 173.524 306.903C173.673 306.952 173.842 306.985 174.008 306.985C176.572 306.985 179.119 307.018 181.679 306.985C182.382 306.985 182.535 306.799 182.551 306.03C182.568 305.443 182.568 304.873 182.568 304.273V255.624C182.568 254.987 182.568 254.35 182.584 253.697C182.584 253.143 182.787 252.961 183.287 252.945C183.924 252.928 184.561 252.928 185.215 252.928H231.266C233.797 252.912 236.324 252.928 238.838 252.912C245.389 252.912 251.538 251.254 256.898 248.339C257.183 248.19 257.452 248.037 257.716 247.856C269.072 241.34 276.731 229.083 276.731 215.031C276.731 200.979 269.275 189.04 258.155 182.442L258.151 182.434ZM251.584 239.372C251.584 239.372 251.534 239.405 251.501 239.422C247.179 242.051 242.118 243.56 236.709 243.56C236.291 243.56 235.857 243.544 235.435 243.527C235.232 243.544 235.05 243.544 234.848 243.544C227.863 243.544 220.895 243.544 213.922 243.56H184.809C184.222 243.56 183.655 243.544 183.068 243.527C182.866 243.511 182.651 243.258 182.634 243.06C182.601 242.874 182.568 242.708 182.568 242.539V188.866C182.568 188.23 182.601 187.593 182.634 186.956C182.634 186.754 182.87 186.539 183.101 186.539C183.552 186.522 184.007 186.473 184.491 186.473H234.864C235.249 186.473 235.617 186.473 235.985 186.489H236.001C236.237 186.473 236.469 186.473 236.704 186.473C241.779 186.473 246.555 187.812 250.694 190.139C259.387 195.03 265.251 204.34 265.251 215.027C265.251 225.713 259.788 234.37 251.584 239.376V239.372Z" fill="#1A1A1A"/>
<path d="M319.658 146.343C342.031 146.343 364.403 146.343 386.771 146.343C387.408 146.343 388.045 146.31 388.678 146.264C388.765 146.26 388.893 146.128 388.918 146.029C388.972 145.806 388.996 145.57 388.996 145.343C389 142.908 388.996 140.477 388.996 138.042C388.996 137.868 388.971 137.695 388.959 137.525C388.947 137.335 388.694 137.058 388.517 137.05C387.88 137.029 387.243 137 386.606 137C330.212 137 273.821 137 217.427 137C216.906 137 216.385 137 215.864 137.017C215.694 137.021 215.516 137.054 215.359 137.116C215.264 137.153 215.152 137.252 215.127 137.347C215.07 137.566 215.028 137.802 215.028 138.029C215.02 140.464 215.024 142.895 215.028 145.33C215.028 145.504 215.049 145.677 215.065 145.851C215.082 146.066 215.293 146.289 215.512 146.298C216.207 146.322 216.902 146.347 217.596 146.347C245.763 146.347 273.933 146.347 302.099 146.347C307.955 146.347 313.806 146.347 319.662 146.347L319.658 146.343Z" fill="#1A1A1A"/>
<path d="M289.999 250.414C289.999 250.935 289.999 251.456 290.011 251.977C290.015 252.146 290.032 252.332 290.106 252.481C290.177 252.622 290.309 252.783 290.45 252.833C290.66 252.907 290.904 252.903 291.136 252.903C293.452 252.907 295.772 252.903 298.088 252.903C298.319 252.903 298.551 252.878 298.778 252.857C298.964 252.841 299.208 252.589 299.225 252.395C299.241 252.221 299.266 252.051 299.266 251.878C299.274 250.894 299.283 249.91 299.283 248.926C299.283 232.828 299.283 214.398 299.283 198.3C299.283 195.497 298.997 195.832 301.818 195.832C317.11 195.824 332.407 195.832 347.7 195.828C348.279 195.828 348.858 195.828 349.437 195.811C349.958 195.799 350.21 195.576 350.21 195.096C350.214 192.492 350.214 189.883 350.21 187.278C350.21 186.766 349.97 186.526 349.482 186.51C348.961 186.489 348.44 186.489 347.919 186.489C329.38 186.489 310.841 186.485 292.306 186.489C289.796 186.489 289.999 186.261 289.995 188.854C289.995 198.755 289.995 210.988 289.995 220.889C289.995 230.732 289.995 240.575 289.995 250.418L289.999 250.414Z" fill="#1A1A1A"/>
</svg>
