<svg width="83" height="48" viewBox="0 0 83 48" fill="none" xmlns="http://www.w3.org/2000/svg">
<path d="M40.8759 32.2731H41.1418C41.7899 32.2731 42.4334 32.2121 43.063 32.082C44.0841 31.8725 45.0314 31.5134 45.9028 31C44.411 31.8115 42.6993 32.2731 40.8759 32.2731ZM41.6966 11.187C41.562 11.1824 41.4261 11.1824 41.2914 11.1824C43.101 11.2572 44.7931 11.7798 46.2528 12.6512C44.868 11.7557 43.3427 11.2618 41.6966 11.187ZM41.5942 29.5127C41.0394 29.6106 40.4891 29.6577 39.9297 29.6624C40.0459 29.667 40.1668 29.6716 40.2842 29.6716C41.7899 29.6716 43.1988 29.2514 44.4018 28.5193C43.535 28.9993 42.6014 29.3355 41.5942 29.5127ZM40.2842 13.7747C40.2186 13.7747 40.1542 13.7747 40.0885 13.7793C40.1956 13.7839 40.298 13.7885 40.4005 13.7931C41.7438 13.8392 43.002 14.1891 44.1773 14.7957C43.025 14.1477 41.6966 13.7747 40.2831 13.7747H40.2842Z" fill="#1A1A1A"/>
<path d="M46.249 12.6507C44.7894 11.7782 43.0972 11.2567 41.2877 11.1819C41.153 11.1819 41.0172 11.1773 40.8768 11.1773H40.8675C38.0554 11.1727 35.2536 11.1773 32.446 11.1773H23.7355C23.4926 11.1773 23.2509 11.1727 23.008 11.1773C22.612 11.1773 22.612 11.1819 22.6074 11.5779V28.947C22.6074 29.1105 22.6074 29.274 22.6028 29.4317C22.6028 29.4789 22.5936 29.5295 22.5798 29.5767C22.5706 29.6044 22.5384 29.6377 22.5096 29.6469C22.4163 29.6607 22.3185 29.6699 22.2253 29.6699C20.3559 29.6699 18.4853 29.6746 16.6113 29.6654C15.6743 29.6654 14.7465 29.5583 13.8279 29.3718C11.5993 28.9102 9.57108 27.9916 7.76613 26.6022C7.1641 26.136 6.60005 25.6422 6.11083 25.054C4.93554 23.6508 4.04458 22.0979 3.4437 20.3724C2.97289 19.0382 2.71159 17.6684 2.62756 16.2594C2.62296 16.1938 2.62296 16.134 2.62756 16.0684C2.669 15.471 2.7162 14.8747 2.81865 14.2876C3.00973 13.2194 3.30326 12.1845 3.70961 11.1819C4.38071 9.53581 5.32807 8.06699 6.52638 6.75703C6.62423 6.64537 6.72667 6.55214 6.83833 6.44969C8.16211 5.24677 9.65971 4.30976 11.3288 3.65132C13.0405 2.97102 14.8213 2.63948 16.6585 2.60265H24.5252C24.6886 2.60265 24.8475 2.60267 25.0098 2.59807C25.1261 2.59807 25.1963 2.53703 25.2009 2.42998C25.2055 2.33674 25.2055 2.2389 25.2055 2.14105C25.2101 1.59542 25.2055 1.04521 25.2101 0.494981C25.2101 -0.00805548 25.2147 0.00114887 24.6921 0.00114887C22.0952 0.00114887 18.2148 -0.00345109 15.6179 0.00575782C15.0538 0.00575782 14.4852 0.0333823 13.9246 0.0897868C12.9738 0.183027 12.046 0.374105 11.1366 0.65843C8.89422 1.35831 6.92582 2.51865 5.22447 4.13712C4.94475 4.40763 4.67884 4.68733 4.40373 4.95324C2.95793 6.39904 1.84365 8.06352 1.08392 9.96171C0.506059 11.4121 0.156122 12.904 0.0490681 14.4661C-0.00273197 15.1936 -0.00273239 15.9164 0.00187207 16.6393C0.00647652 17.581 0.0812982 18.5088 0.249361 19.4377C0.487641 20.7477 0.897438 21.9978 1.46609 23.1961C2.1982 24.7213 3.16858 26.0819 4.36689 27.2814L4.94475 27.8638C6.32494 29.2578 7.91463 30.3353 9.71497 31.0996C11.0629 31.6683 12.4661 32.032 13.9165 32.1863C14.5416 32.2519 15.1712 32.2841 15.8055 32.2841C17.8338 32.2795 19.8666 32.2795 21.8995 32.2795H22.3381C22.5522 32.2841 22.5948 32.3256 22.604 32.527C22.6086 32.6905 22.6086 32.8493 22.6086 33.0116V46.7064C22.6086 46.8837 22.6178 47.0609 22.627 47.2382C22.627 47.2658 22.6638 47.2992 22.6926 47.3084C22.7341 47.3222 22.7812 47.3315 22.8273 47.3315C23.541 47.3315 24.2501 47.3407 24.9626 47.3315C25.1583 47.3315 25.2009 47.2797 25.2055 47.0656C25.2101 46.9021 25.2101 46.7432 25.2101 46.5763V33.0301C25.2101 32.8528 25.2101 32.6755 25.2147 32.4936C25.2147 32.3394 25.2711 32.2887 25.4104 32.2841C25.5877 32.2795 25.7649 32.2795 25.9468 32.2795H38.7656C39.4701 32.2749 40.1734 32.2795 40.8733 32.2749C42.6967 32.2749 44.4084 31.8133 45.9002 31.0018C45.9796 30.9603 46.0545 30.9178 46.1281 30.8671C49.2891 29.053 51.421 25.6399 51.421 21.7272C51.421 17.8146 49.3455 14.4902 46.2502 12.6531L46.249 12.6507ZM44.421 28.505C44.421 28.505 44.4072 28.5142 44.398 28.5188C43.1951 29.2509 41.7861 29.6711 40.2805 29.6711C40.1642 29.6711 40.0434 29.6665 39.9259 29.6619C39.8695 29.6665 39.8189 29.6665 39.7625 29.6665C37.8182 29.6665 35.8786 29.6665 33.9378 29.6711H25.834C25.6705 29.6711 25.5128 29.6665 25.3494 29.6619C25.293 29.6573 25.2331 29.5871 25.2285 29.5318C25.2193 29.48 25.2101 29.4339 25.2101 29.3867V14.4419C25.2101 14.2646 25.2193 14.0873 25.2285 13.9101C25.2285 13.8537 25.2941 13.7938 25.3586 13.7938C25.4841 13.7892 25.6107 13.7754 25.7454 13.7754H39.7671C39.8741 13.7754 39.9766 13.7754 40.079 13.78H40.0836C40.1493 13.7754 40.2137 13.7754 40.2793 13.7754C41.6917 13.7754 43.0213 14.1483 44.1735 14.7964C46.5932 16.1582 48.2255 18.7505 48.2255 21.7261C48.2255 24.7017 46.7048 27.1122 44.421 28.5062V28.505Z" fill="#1A1A1A"/>
<path d="M63.3718 2.6015C69.5993 2.6015 75.8268 2.6015 82.0532 2.6015C82.2304 2.6015 82.4077 2.5923 82.5838 2.57964C82.608 2.57848 82.6437 2.54167 82.6506 2.51404C82.6656 2.45188 82.6725 2.38625 82.6725 2.32294C82.6736 1.64493 82.6725 0.968089 82.6725 0.290083C82.6725 0.241736 82.6656 0.193389 82.6621 0.146194C82.6587 0.0932424 82.5884 0.016101 82.5389 0.0137987C82.3617 0.00804318 82.1844 0 82.0071 0C66.3094 0 50.6128 0 34.9151 0C34.77 0 34.625 4.49689e-06 34.48 0.00460895C34.4328 0.00576006 34.3833 0.0149678 34.3395 0.0322346C34.313 0.0425946 34.282 0.070228 34.275 0.0967037C34.2589 0.157713 34.2474 0.223315 34.2474 0.286626C34.2451 0.964632 34.2463 1.64148 34.2474 2.31948C34.2474 2.36783 34.2532 2.41618 34.2578 2.46452C34.2624 2.52438 34.3211 2.58655 34.3821 2.58885C34.5755 2.59576 34.7689 2.60265 34.9623 2.60265C42.8025 2.60265 50.6439 2.60265 58.4841 2.60265C60.1141 2.60265 61.7429 2.60265 63.3729 2.60265L63.3718 2.6015Z" fill="#1A1A1A"/>
<path d="M55.1151 31.5796C55.1151 31.7247 55.1151 31.8697 55.1186 32.0147C55.1197 32.0619 55.1243 32.1137 55.145 32.1552C55.1646 32.1943 55.2014 32.2392 55.2406 32.253C55.2993 32.2738 55.3672 32.2726 55.4317 32.2726C56.0763 32.2738 56.7221 32.2726 57.3667 32.2726C57.4312 32.2726 57.4956 32.2657 57.5589 32.2599C57.6107 32.2553 57.6786 32.1851 57.6832 32.131C57.6878 32.0827 57.6948 32.0355 57.6948 31.9871C57.6971 31.7132 57.6994 31.4392 57.6994 31.1652C57.6994 26.6828 57.6994 21.5511 57.6994 17.0687C57.6994 16.2882 57.6199 16.3814 58.405 16.3814C62.6618 16.3791 66.9198 16.3815 71.1766 16.3803C71.3377 16.3803 71.4989 16.3803 71.6601 16.3757C71.8051 16.3723 71.8753 16.3101 71.8753 16.1766C71.8765 15.4514 71.8765 14.725 71.8753 13.9998C71.8753 13.8571 71.8086 13.7903 71.6727 13.7857C71.5277 13.78 71.3826 13.78 71.2376 13.78C66.0772 13.78 60.9167 13.7788 55.7574 13.78C55.0587 13.78 55.1151 13.7166 55.114 14.4384C55.114 17.1953 55.114 20.6015 55.114 23.3584C55.114 26.0992 55.114 28.84 55.114 31.5808L55.1151 31.5796Z" fill="#1A1A1A"/>
</svg>
