<svg width="46" height="53" viewBox="0 0 46 53" fill="none" xmlns="http://www.w3.org/2000/svg">
<path fill-rule="evenodd" clip-rule="evenodd" d="M31.8162 0.461177C29.9714 0.663354 28.8005 1.19407 27.3348 2.0449C26.6188 2.45768 26.1892 2.78622 25.5321 3.35905C25.1109 3.72129 24.2264 4.63106 23.9906 4.91748C23.5778 5.39765 22.9376 6.40853 22.4828 7.64687C22.1458 8.58193 21.6572 9.80345 21.5898 10.8902L25.1194 8.59879C26.3071 7.87432 27.7054 7.1751 29.0701 6.62754C31.2013 5.76828 33.4083 5.07755 35.7585 4.66477C36.1375 4.59738 38.2098 4.38675 38.3614 4.31936C38.2687 4.05821 37.2158 3.99927 36.8873 3.98242C34.5371 3.85606 34.1496 3.78023 31.5888 4.17616C30.1904 4.39519 28.4552 4.8248 27.1748 5.37236C26.7704 5.54084 26.2566 5.85254 25.9196 5.96206C26.0712 5.24601 28.194 3.52751 29.1375 3.02207C32.5154 1.2109 36.0617 1.73321 39.448 2.82833C40.4926 3.1653 43.1545 4.35307 43.5925 5.027C41.3687 5.05227 39.2038 4.96802 37.1231 5.38923C33.5262 6.11369 30.4516 7.45314 27.3432 9.30643C26.484 9.8203 23.7294 11.4967 23.2324 12.0864C24.2433 13.1478 27.7644 13.729 29.6345 13.173C33.5262 12.0189 36.4408 9.06212 39.7344 7.29307C41.2591 6.47594 41.1244 6.64442 42.5143 6.08C43.9463 5.49874 45.5384 5.51559 45.8164 5.33868C45.5805 4.9596 43.7778 3.72971 43.205 3.30851C42.3542 2.68513 40.9559 1.99436 40.0546 1.6237C38.8247 1.10983 37.6875 0.823407 36.3566 0.562261C34.6381 0.225299 33.5599 0.250559 31.8331 0.444312L31.8162 0.461177Z" fill="#529D44"/>
<path fill-rule="evenodd" clip-rule="evenodd" d="M20.9655 11.8083C20.8139 12.1115 17.6297 14.2765 17.3517 14.4703C13.2747 17.3176 10.1663 18.4296 5.23005 18.2021C4.46349 18.1684 2.91354 17.8146 2.366 17.8905C2.06275 18.2443 6.63682 19.55 6.63682 19.3394C13.898 19.053 17.1327 15.6833 22.4565 12.002C27.7803 8.31227 31.0655 6.43374 37.2485 4.97638C37.636 4.88371 38.0656 4.8753 38.411 4.72367C34.8225 4.60573 27.974 7.33511 24.7899 9.34003L20.9739 11.7998L20.9655 11.8083Z" fill="#529D44"/>
<path d="M4.45614 35.7326C3.21786 35.7326 2.1649 35.3029 1.29726 34.4353C0.429615 33.576 0 32.523 0 31.2931V21.1C0 19.8701 0.438022 18.8171 1.30566 17.9494C2.1733 17.0817 3.22627 16.6521 4.44771 16.6521C5.66914 16.6521 6.73894 17.0901 7.59816 17.9578C8.45737 18.8255 8.88698 19.8785 8.88698 21.1V23.2228H5.98082V21.0495C5.98082 20.603 5.82078 20.2155 5.5091 19.9038C5.189 19.5921 4.80992 19.432 4.36346 19.432C3.91701 19.432 3.54636 19.5921 3.22626 19.9038C2.91458 20.2239 2.75454 20.603 2.75454 21.0495V31.2594C2.75454 31.7059 2.91458 32.0934 3.22626 32.4051C3.53794 32.7168 3.91701 32.8768 4.36346 32.8768C4.80992 32.8768 5.19742 32.7168 5.5091 32.4051C5.82078 32.0934 5.98082 31.7059 5.98082 31.2594V28.6985H8.88698V31.2931C8.88698 32.5314 8.44896 33.576 7.58132 34.4437C6.71368 35.3029 5.66072 35.7326 4.44771 35.7326H4.45614Z" fill="#529D44"/>
<path d="M14.0995 31.2256L13.4172 35.4966H10.4941L13.6446 16.8879H17.5111L20.6278 35.4966H17.688L17.0225 31.2256H14.091H14.0995ZM15.5736 21.1589L14.5291 28.4963H16.6097L15.5736 21.1589Z" fill="#529D44"/>
<path d="M27.4271 16.8878C28.9939 16.8878 30.1395 17.3174 30.8724 18.1851C31.521 18.9433 31.8411 19.9878 31.8411 21.3273V24.0314C31.8411 25.354 31.3441 26.466 30.3417 27.3673L32.4223 35.4965H29.3982L27.6882 28.4625C27.604 28.4625 27.5198 28.4709 27.4355 28.4709H25.8266V35.4881H23.0215V16.8794H27.4439L27.4271 16.8878ZM29.1034 21.3778C29.1034 20.2995 28.5727 19.752 27.5029 19.752H25.8182V25.6993H27.5029C27.9493 25.6993 28.3284 25.5393 28.6401 25.2276C28.9518 24.9075 29.1034 24.5284 29.1034 24.0904V21.3778Z" fill="#529D44"/>
<path d="M34.8242 35.4966V16.8879H39.0192C40.1312 16.8879 41.1336 17.1828 42.0181 17.764C42.7762 18.261 43.3237 19.0276 43.6523 20.0553C43.8292 20.6113 43.9218 21.2684 43.9218 22.035C43.9218 23.2818 43.5933 24.2758 42.9278 25.034C42.6498 25.3457 42.3213 25.59 41.9507 25.7584C42.574 25.9943 43.0963 26.466 43.5343 27.1652C43.8291 27.637 44.0397 28.252 44.1745 29.0017C44.2419 29.3892 44.2756 29.8188 44.2756 30.299C44.2756 31.4784 44.0566 32.4724 43.6101 33.298C43.2647 33.9382 42.7762 34.4521 42.1444 34.8396C41.4284 35.2776 40.7208 35.4882 40.0216 35.4882H34.8242V35.4966ZM37.8483 24.4864H39.0192C39.8869 24.4864 40.4765 24.0652 40.7713 23.2144C40.8808 22.8942 40.9314 22.5068 40.9314 22.0435C40.9314 21.2684 40.7461 20.6787 40.367 20.2912C40.0216 19.9206 39.5668 19.7437 39.0108 19.7437H37.8399V24.4948L37.8483 24.4864ZM37.8483 32.7251H39.0192C39.9711 32.7251 40.6366 32.2366 40.9988 31.2594C41.1335 30.9224 41.1925 30.5433 41.1925 30.1053C41.1925 29.0607 40.9904 28.3025 40.5944 27.8308C40.2407 27.3927 39.7184 27.1821 39.0192 27.1821H37.8483V32.7336V32.7251Z" fill="#529D44"/>
<path d="M4.16903 37.2741C5.24727 37.2741 6.10651 37.6195 6.74671 38.2935C7.34479 38.9421 7.63962 39.7677 7.63962 40.7701V42.9014C7.63962 43.8702 7.30266 44.6957 6.62876 45.3781C5.95487 46.0688 5.13777 46.4058 4.17747 46.4058H2.89707V51.9404H0.681641V37.2573H4.16903V37.2741ZM5.49156 40.8207C5.49156 40.4332 5.37362 40.1215 5.14619 39.8941C4.91875 39.6582 4.6155 39.5402 4.22801 39.5402H2.89707V44.2324H4.22801C4.5818 44.2324 4.87663 44.106 5.12091 43.8618C5.3652 43.609 5.48315 43.3142 5.48315 42.9604V40.8207H5.49156Z" fill="#529D44"/>
<path d="M11.6334 45.7401V51.9571H9.41797V37.2739H11.6334V43.5162H14.2953V37.2739H16.5107V51.9571H14.2953V45.7401H11.6334Z" fill="#529D44"/>
<path d="M21.2183 48.5791L20.6792 51.9487H18.3711L20.8561 37.2656H23.9139L26.3736 51.9487H24.0571L23.5348 48.5791H21.2267H21.2183ZM22.3808 40.6352L21.5637 46.4226H23.2063L22.3892 40.6352H22.3808Z" fill="#529D44"/>
<path d="M34.8885 48.3097C34.9054 49.3374 34.6443 50.2135 34.0883 50.938C33.7261 51.435 33.2207 51.7804 32.5636 51.9741C32.2098 52.0836 31.7971 52.1426 31.3337 52.1426C30.4661 52.1426 29.7417 51.9236 29.1773 51.5024C28.7056 51.1486 28.3265 50.6684 28.0485 50.0703C27.7705 49.4638 27.6105 48.773 27.5684 47.9811L29.6659 47.8379C29.767 48.6888 29.9944 49.3122 30.3482 49.6912C30.6093 49.9777 30.9126 50.1209 31.2579 50.104C31.7381 50.0872 32.1256 49.8513 32.4204 49.3964C32.572 49.1689 32.6479 48.8404 32.6479 48.4192C32.6479 47.8042 32.3699 47.1893 31.8139 46.5911C31.3759 46.1784 30.7188 45.555 29.8428 44.7295C29.1099 44.0218 28.5876 43.39 28.2928 42.8256C27.9643 42.1938 27.8042 41.503 27.8042 40.7617C27.8042 39.4223 28.2507 38.4114 29.152 37.7291C29.708 37.3163 30.3903 37.1057 31.2158 37.1057C32.0077 37.1057 32.6816 37.2826 33.2459 37.6364C33.684 37.906 34.0378 38.2935 34.2989 38.7821C34.5685 39.2707 34.7285 39.8351 34.7875 40.4753L32.6647 40.8628C32.6057 40.2647 32.4288 39.793 32.1508 39.4644C31.9487 39.2201 31.6539 39.0938 31.2748 39.0938C30.8705 39.0938 30.5672 39.2707 30.3482 39.6329C30.1797 39.9193 30.0955 40.2816 30.0955 40.7112C30.0955 41.3851 30.3819 42.0675 30.9631 42.7666C31.1821 43.0278 31.5107 43.3395 31.9487 43.7017C32.4625 44.1313 32.8079 44.4346 32.9764 44.6031C33.5155 45.1506 33.9367 45.6898 34.2399 46.2205C34.3747 46.4648 34.4926 46.7007 34.5769 46.9113C34.7875 47.4336 34.897 47.9053 34.9054 48.3181L34.8885 48.3097Z" fill="#529D44"/>
<path d="M36.7266 51.9571V37.2739H43.0359V39.4895H38.942V43.5162H41.9324V45.7317H38.942V49.7499H43.0359V51.9655H36.7266V51.9571Z" fill="#529D44"/>
</svg>
