<svg width="65" height="64" viewBox="0 0 65 64" fill="none" xmlns="http://www.w3.org/2000/svg">
<path d="M15.5024 22.0761H12.9602V31.2933H11.4449V22.0761H9.17188V20.7215H11.4449V17.8356C11.4449 15.0381 12.8705 13.9485 15.0438 13.9485C15.4825 13.9485 15.9111 14.0172 16.3498 14.1055L16.0706 15.4601C15.7018 15.3718 15.293 15.3031 14.9042 15.3031C13.2294 15.3031 12.9502 16.481 12.9502 18.0123V20.7215H15.4924V22.0761H15.5024Z" fill="#008752"/>
<path d="M19.1521 14.2234H17.6367V31.2933H19.1521V14.2234Z" fill="#008752"/>
<path d="M27.2958 31.5584C23.966 31.5584 21.6133 29.183 21.6133 26.0026C21.6133 22.8222 23.976 20.4468 27.2958 20.4468C30.6455 20.4468 33.0082 22.8222 33.0082 26.0026C32.9983 29.1928 30.6455 31.5584 27.2958 31.5584ZM27.2958 21.8112C24.8234 21.8112 23.2582 23.637 23.2582 26.0124C23.2582 28.3879 24.8134 30.2136 27.2958 30.2136C29.7981 30.2136 31.3533 28.3879 31.3533 26.0124C31.3533 23.637 29.7881 21.8112 27.2958 21.8112Z" fill="#008752"/>
<path d="M40.2569 31.5584C36.9272 31.5584 34.5645 29.183 34.5645 26.0026C34.5645 22.8222 36.9272 20.4468 40.2569 20.4468C43.6066 20.4468 45.9694 22.8222 45.9694 26.0026C45.9694 29.1928 43.6066 31.5584 40.2569 31.5584ZM40.2569 21.8112C37.7746 21.8112 36.2194 23.637 36.2194 26.0124C36.2194 28.3879 37.7746 30.2136 40.2569 30.2136C42.7592 30.2136 44.3145 28.3879 44.3145 26.0124C44.3145 23.637 42.7592 21.8112 40.2569 21.8112Z" fill="#008752"/>
<path d="M48.2421 24.0198C48.2421 23.0676 48.1922 22.2627 48.1523 20.7216H49.6378V22.6848H49.6876C50.1263 21.556 51.2428 20.4468 53.127 20.4468C53.5657 20.4468 53.9346 20.4959 54.2536 20.5842L53.9545 22.0566C53.775 21.9879 53.4959 21.9486 53.0872 21.9486C50.7942 21.9486 49.7574 23.9118 49.7574 25.3351V31.2934H48.2421V24.0198Z" fill="#008752"/>
<path d="M6.93913 35.2099C6.48054 34.3559 5.72287 33.7865 4.62625 33.7865C3.5695 33.7865 2.40309 34.2381 2.40309 35.3669C2.40309 36.3583 3.11091 36.7215 4.51658 37.0356L6.05186 37.3988C7.54726 37.7424 8.66382 38.8025 8.66382 40.2847C8.66382 42.5914 6.58023 43.5338 4.48668 43.5338C2.86168 43.5338 1.36628 42.9645 0.359375 41.4822L1.66536 40.5988C2.28345 41.551 3.22057 42.1792 4.48668 42.1792C5.72287 42.1792 7.00892 41.6393 7.00892 40.4221C7.00892 39.362 6.09174 38.9988 4.9652 38.724L3.49971 38.3804C2.76198 38.2037 0.748179 37.6148 0.748179 35.6025C0.748179 33.4135 2.70217 32.4221 4.71597 32.4221C6.21137 32.4221 7.60707 32.9424 8.29496 34.3166L6.93913 35.2099Z" fill="#005295"/>
<path d="M18.5244 35.1902C18.016 34.4246 17.029 33.7865 15.8427 33.7865C13.3404 33.7473 11.8051 35.573 11.8051 37.9877C11.8051 40.4025 13.3404 42.2381 15.8427 42.189C17.039 42.189 18.026 41.5608 18.5244 40.7853L19.7606 41.708C18.7039 42.9252 17.2882 43.5141 15.8427 43.5338C12.3335 43.5828 10.1602 41.1583 10.1602 37.9779C10.1602 34.7976 12.3335 32.3828 15.8427 32.4221C17.2882 32.4417 18.7138 33.0307 19.7606 34.2479L18.5244 35.1902Z" fill="#005295"/>
<path d="M26.5692 43.5435C23.2395 43.5435 20.8867 41.1681 20.8867 37.9877C20.8867 34.8073 23.2494 32.4319 26.5692 32.4319C29.9189 32.4319 32.2817 34.8073 32.2817 37.9877C32.2817 41.1681 29.9189 43.5435 26.5692 43.5435ZM26.5692 33.7865C24.0968 33.7865 22.5317 35.6123 22.5317 37.9877C22.5317 40.3632 24.0869 42.1889 26.5692 42.1889C29.0715 42.1889 30.6268 40.3632 30.6268 37.9877C30.6367 35.6123 29.0715 33.7865 26.5692 33.7865Z" fill="#005295"/>
<path d="M34.8729 35.9951C34.8729 35.043 34.8231 34.2381 34.7832 32.697H36.2786V34.6602H36.3284C36.7671 33.5313 37.8837 32.4221 39.7679 32.4221C40.2065 32.4221 40.5754 32.4614 40.8944 32.5595L40.5953 34.0319C40.4159 33.9632 40.1367 33.924 39.728 33.924C37.435 33.924 36.3982 35.8872 36.3982 37.3105V43.2687H34.8829V35.9951H34.8729Z" fill="#005295"/>
<path d="M42.9781 38.3902C43.1576 40.5105 44.7925 42.1792 46.926 42.1792C48.531 42.1792 49.7672 41.2957 50.3654 40.3534L51.5318 41.2957C50.2757 42.8761 48.6905 43.5338 46.926 43.5338C43.7358 43.5338 41.373 41.1583 41.373 37.9779C41.373 34.7976 43.7358 32.4221 46.7864 32.4221C50.0464 32.4418 51.9206 34.8172 51.9206 37.7031V38.3804H42.9781V38.3902ZM50.2657 37.173C50.2657 35.1608 48.9597 33.7865 46.7764 33.7865C44.8025 33.7865 43.018 35.4356 43.018 37.173H50.2657Z" fill="#005295"/>
<path d="M55.3017 45.973L53.2715 47.9719L55.1607 49.8321L57.1909 47.8331L55.3017 45.973Z" fill="#BEC9E1"/>
<path d="M20.9897 14.0725L20.877 14.1836L22.7811 16.0568L22.8938 15.9457L20.9897 14.0725Z" fill="#008752"/>
<path d="M55.6797 45.5658L57.4542 43.1609L59.6076 44.6922L57.8231 47.1069L55.6797 45.5658Z" fill="#CDD4E8"/>
<path d="M57.7637 42.6994L59.0597 40.1865L61.4124 41.3644L60.1065 43.8773L57.7637 42.6994Z" fill="#C1DCCF"/>
<path d="M59.3379 39.5289L60.1753 36.9963L62.6776 37.7914L61.8402 40.3239L59.3379 39.5289Z" fill="#B4D5C5"/>
<path d="M60.3848 36.1523L60.7835 33.6787L63.3656 34.0812L62.9668 36.5548L60.3848 36.1523Z" fill="#A6CEBB"/>
<path d="M63.475 30.302H60.873V32.6578H63.475V30.302Z" fill="#9AC8B3"/>
<path d="M60.4336 26.9547L62.9957 26.5522L63.3446 28.7216L60.7825 29.124L60.4336 26.9547Z" fill="#8CC2AA"/>
<path d="M59.4766 23.7155L61.929 22.9302L62.577 24.8639L60.1146 25.6492L59.4766 23.7155Z" fill="#7FBBA0"/>
<path d="M58.0312 20.6529L60.3242 19.5044L61.1915 21.1731L58.8986 22.3314L58.0312 20.6529Z" fill="#72B698"/>
<path d="M56.1172 17.8455L58.2008 16.3535L59.2276 17.7474L57.144 19.2394L56.1172 17.8455Z" fill="#65B090"/>
<path d="M20.3105 43.8433L18.0605 45.4534L18.717 46.3427L20.9669 44.7326L20.3105 43.8433Z" fill="#3D6EA9"/>
<path d="M22.4433 46.4536L20.4766 48.3901L21.3789 49.2786L23.3456 47.3421L22.4433 46.4536Z" fill="#4A74AD"/>
<path d="M55.6168 13.5727L53.791 15.3704L54.9189 16.4809L56.7447 14.6832L55.6168 13.5727Z" fill="#57AB88"/>
<path d="M51.1035 13.2615L52.6189 11.21L53.7853 12.0443L52.26 14.0959L51.1035 13.2615Z" fill="#47A581"/>
<path d="M23.3184 50.9154L24.9533 48.697L26.1197 49.5314L24.4848 51.7498L23.3184 50.9154Z" fill="#557BB1"/>
<path d="M49.2992 9.32389L48.127 11.5891L49.2639 12.1595L50.4362 9.89432L49.2992 9.32389Z" fill="#36A17A"/>
<path d="M26.5293 52.9866L27.7854 50.5522L29.2011 51.2688L27.9449 53.7032L26.5293 52.9866Z" fill="#6082B6"/>
<path d="M30.0176 54.5474L30.8749 51.9658L32.5398 52.4959L31.6825 55.0873L30.0176 54.5474Z" fill="#6B89BB"/>
<path d="M44.9219 10.3952L45.7194 7.9707L46.7861 8.30445L45.9786 10.7388L44.9219 10.3952Z" fill="#199C73"/>
<path d="M33.707 55.5682L34.1357 52.8884L36.0299 53.1829L35.5912 55.8627L33.707 55.5682Z" fill="#7591C0"/>
<path d="M41.5723 9.69829L41.981 7.16577L42.9181 7.31301L42.5194 9.84553L41.5723 9.69829Z" fill="#00976C"/>
<path d="M38.9499 6.93994H38.1523V9.51172H38.9499V6.93994Z" fill="#009365"/>
<path d="M39.5892 53.3105H37.5156V56.0198H39.5892V53.3105Z" fill="#8199C5"/>
<path d="M34.3047 7.29328L34.9926 7.1853L35.4113 9.73745L34.7134 9.84543L34.3047 7.29328Z" fill="#008F5F"/>
<path d="M40.9238 53.232L43.127 52.8884L43.5458 55.5387L41.3425 55.8823L40.9238 53.232Z" fill="#8CA2CB"/>
<path d="M31.1226 8.05491L30.582 8.22729L31.396 10.7018L31.9366 10.5295L31.1226 8.05491Z" fill="#008443"/>
<path d="M44.2734 52.6331L46.5464 51.9067L47.3839 54.4491L45.1109 55.1754L44.2734 52.6331Z" fill="#98ABD0"/>
<path d="M47.5039 51.5437L49.7769 50.405L51.0031 52.7707L48.7301 53.9093L47.5039 51.5437Z" fill="#A4B4D5"/>
<path d="M27.0469 9.70799L27.4157 9.52148L28.622 11.8479L28.2532 12.0344L27.0469 9.70799Z" fill="#008752"/>
<path d="M50.5254 49.9731L52.7186 48.4026L54.2938 50.5523L52.1005 52.113L50.5254 49.9731Z" fill="#B1BEDB"/>
<path d="M23.7773 11.7202L24.0266 11.5337L25.6017 13.6638L25.3425 13.8503L23.7773 11.7202Z" fill="#008752"/>
<path d="M52.0106 41.9241C52.3994 41.9241 52.7084 42.2185 52.7084 42.5916C52.7084 42.9744 52.4093 43.2689 52.0106 43.2689C51.6218 43.2689 51.3027 42.9744 51.3027 42.5916C51.3027 42.2284 51.6218 41.9241 52.0106 41.9241ZM52.0006 42.0615C51.7015 42.0615 51.4722 42.3069 51.4722 42.6014C51.4722 42.8959 51.7015 43.1412 52.0006 43.1412C52.2997 43.1412 52.519 42.9057 52.519 42.6014C52.529 42.3069 52.3096 42.0615 52.0006 42.0615ZM51.9009 42.9449H51.7414V42.2774C51.8012 42.2676 51.8909 42.248 52.0006 42.248C52.1302 42.248 52.19 42.2676 52.2399 42.2971C52.2797 42.3265 52.3096 42.3756 52.3096 42.4443C52.3096 42.5228 52.2498 42.5817 52.1701 42.6014V42.6112C52.2399 42.6308 52.2698 42.6897 52.2997 42.7781C52.3196 42.8762 52.3296 42.9253 52.3495 42.9449H52.18C52.1601 42.9155 52.1501 42.8664 52.1302 42.7879C52.1202 42.7192 52.0803 42.6799 51.9906 42.6799H51.9208V42.9449H51.9009ZM51.9009 42.5719H51.9807C52.0704 42.5719 52.1402 42.5425 52.1402 42.4738C52.1402 42.4149 52.0903 42.3756 51.9906 42.3756C51.9507 42.3756 51.9208 42.3854 51.9009 42.3854V42.5719Z" fill="#005295"/>
</svg>
