<svg width="59" height="38" viewBox="0 0 59 38" fill="none" xmlns="http://www.w3.org/2000/svg">
<path d="M30.3631 18.3617H30.5117C30.8741 18.3617 31.2339 18.3275 31.586 18.2548C32.1569 18.1377 32.6866 17.9369 33.1738 17.6498C32.3397 18.1036 31.3826 18.3617 30.3631 18.3617ZM30.822 6.57142C30.7467 6.56885 30.6707 6.56885 30.5954 6.56885C31.6072 6.61068 32.5534 6.90291 33.3695 7.39015C32.5952 6.8894 31.7424 6.61326 30.822 6.57142ZM30.7647 16.8182C30.4545 16.8729 30.1468 16.8993 29.834 16.9019C29.899 16.9044 29.9666 16.907 30.0322 16.907C30.8741 16.907 31.6619 16.6721 32.3345 16.2627C31.8499 16.5311 31.3279 16.7191 30.7647 16.8182ZM30.0322 8.01833C29.9955 8.01833 29.9595 8.01833 29.9228 8.02091C29.9827 8.02348 30.0399 8.02606 30.0972 8.02864C30.8484 8.05438 31.5519 8.25005 32.209 8.58925C31.5647 8.22688 30.822 8.01833 30.0316 8.01833H30.0322Z" fill="#1A1A1A"/>
<path d="M33.3678 7.39004C32.5517 6.90215 31.6055 6.61057 30.5937 6.56873C30.5184 6.56873 30.4425 6.56616 30.3639 6.56616H30.3588C28.7864 6.56358 27.2197 6.56616 25.6499 6.56616H20.7795C20.6437 6.56616 20.5085 6.56358 20.3727 6.56616C20.1513 6.56616 20.1513 6.56873 20.1487 6.79014V16.5021C20.1487 16.5935 20.1487 16.6849 20.1461 16.773C20.1461 16.7994 20.141 16.8278 20.1332 16.8541C20.1281 16.8696 20.1101 16.8882 20.094 16.8934C20.0418 16.9011 19.9871 16.9063 19.935 16.9063C18.8897 16.9063 17.8438 16.9089 16.796 16.9037C16.272 16.9037 15.7533 16.8438 15.2396 16.7396C13.9935 16.4815 12.8595 15.9678 11.8502 15.191C11.5136 14.9303 11.1982 14.6542 10.9247 14.3253C10.2675 13.5407 9.76933 12.6724 9.43335 11.7076C9.1701 10.9616 9.02399 10.1956 8.97701 9.40783C8.97443 9.37114 8.97443 9.33769 8.97701 9.301C9.00018 8.96695 9.02657 8.63353 9.08385 8.30528C9.1907 7.70798 9.35482 7.12934 9.58203 6.56873C9.95727 5.64832 10.487 4.82704 11.157 4.09458C11.2117 4.03214 11.269 3.98001 11.3314 3.92273C12.0716 3.25012 12.909 2.7262 13.8423 2.35803C14.7994 1.97764 15.7951 1.79227 16.8224 1.77167H21.221C21.3124 1.77167 21.4012 1.77168 21.492 1.76911C21.557 1.76911 21.5962 1.73498 21.5988 1.67512C21.6014 1.62299 21.6014 1.56828 21.6014 1.51357C21.604 1.20848 21.6014 0.900834 21.604 0.593173C21.604 0.311902 21.6065 0.317049 21.3143 0.317049C19.8623 0.317049 17.6926 0.314477 16.2405 0.319626C15.9251 0.319626 15.6072 0.335072 15.2937 0.36661C14.7621 0.418745 14.2433 0.525586 13.7348 0.684566C12.481 1.0759 11.3804 1.7247 10.4291 2.62966C10.2727 2.78092 10.124 2.93731 9.97014 3.086C9.16173 3.89441 8.53869 4.8251 8.11388 5.88647C7.79077 6.69745 7.59511 7.53164 7.53525 8.40506C7.50628 8.81184 7.50628 9.21604 7.50886 9.62025C7.51143 10.1467 7.55327 10.6655 7.64724 11.1849C7.78048 11.9174 8.00961 12.6164 8.32757 13.2864C8.73693 14.1393 9.27952 14.9 9.94955 15.5707L10.2727 15.8964C11.0444 16.6758 11.9333 17.2783 12.9399 17.7057C13.6936 18.0236 14.4782 18.227 15.2892 18.3133C15.6387 18.35 15.9908 18.368 16.3454 18.368C17.4795 18.3654 18.6162 18.3654 19.7529 18.3654H19.9981C20.1178 18.368 20.1416 18.3912 20.1468 18.5038C20.1493 18.5952 20.1493 18.684 20.1493 18.7748V26.4321C20.1493 26.5313 20.1545 26.6304 20.1596 26.7295C20.1596 26.745 20.1802 26.7636 20.1963 26.7688C20.2195 26.7765 20.2459 26.7817 20.2716 26.7817C20.6707 26.7817 21.0672 26.7868 21.4656 26.7817C21.575 26.7817 21.5988 26.7527 21.6014 26.633C21.604 26.5416 21.604 26.4528 21.604 26.3594V18.7851C21.604 18.6859 21.604 18.5868 21.6065 18.4851C21.6065 18.3989 21.6381 18.3706 21.716 18.368C21.8151 18.3654 21.9142 18.3654 22.0159 18.3654H29.1835C29.5774 18.3628 29.9707 18.3654 30.362 18.3628C31.3815 18.3628 32.3386 18.1047 33.1728 17.651C33.2172 17.6278 33.259 17.604 33.3002 17.5757C35.0677 16.5613 36.2597 14.6529 36.2597 12.4651C36.2597 10.2774 35.0992 8.41858 33.3685 7.39132L33.3678 7.39004ZM32.3457 16.2549C32.3457 16.2549 32.338 16.26 32.3328 16.2626C31.6602 16.672 30.8724 16.9069 30.0305 16.9069C29.9655 16.9069 29.8979 16.9043 29.8323 16.9018C29.8007 16.9043 29.7724 16.9043 29.7409 16.9043C28.6538 16.9043 27.5692 16.9043 26.4841 16.9069H21.9528C21.8614 16.9069 21.7732 16.9043 21.6819 16.9018C21.6503 16.8992 21.6168 16.8599 21.6143 16.829C21.6091 16.8001 21.604 16.7743 21.604 16.7479V8.39155C21.604 8.29242 21.6091 8.1933 21.6143 8.09418C21.6143 8.06264 21.651 8.02915 21.687 8.02915C21.7572 8.02658 21.828 8.01887 21.9033 8.01887H29.7435C29.8033 8.01887 29.8606 8.01888 29.9179 8.02145H29.9205C29.9572 8.01888 29.9932 8.01887 30.0299 8.01887C30.8196 8.01887 31.563 8.22739 32.2073 8.58976C33.5603 9.35119 34.4729 10.8007 34.4729 12.4645C34.4729 14.1283 33.6227 15.4761 32.3457 16.2555V16.2549Z" fill="#1A1A1A"/>
<path d="M42.9418 1.77103C46.4239 1.77103 49.906 1.77103 53.3874 1.77103C53.4866 1.77103 53.5857 1.76588 53.6842 1.7588C53.6977 1.75816 53.7176 1.73757 53.7215 1.72213C53.7299 1.68737 53.7337 1.65067 53.7337 1.61527C53.7344 1.23617 53.7337 0.85771 53.7337 0.478605C53.7337 0.451572 53.7299 0.424539 53.7279 0.39815C53.726 0.368542 53.6867 0.325409 53.6591 0.324122C53.5599 0.320904 53.4608 0.316406 53.3617 0.316406C44.5843 0.316406 35.8076 0.316406 27.0303 0.316406C26.9492 0.316406 26.8681 0.316409 26.787 0.318983C26.7606 0.319627 26.7329 0.324775 26.7085 0.33443C26.6937 0.340223 26.6763 0.355674 26.6724 0.370478C26.6634 0.404591 26.657 0.441272 26.657 0.476672C26.6557 0.855777 26.6563 1.23423 26.657 1.61334C26.657 1.64037 26.6602 1.6674 26.6628 1.69444C26.6654 1.72791 26.6982 1.76267 26.7323 1.76396C26.8404 1.76782 26.9486 1.77167 27.0567 1.77167C31.4405 1.77167 35.825 1.77167 40.2089 1.77167C41.1203 1.77167 42.031 1.77167 42.9424 1.77167L42.9418 1.77103Z" fill="#1A1A1A"/>
<path d="M38.3252 17.9739C38.3252 18.055 38.3252 18.1361 38.3272 18.2172C38.3278 18.2436 38.3304 18.2726 38.342 18.2957C38.3529 18.3176 38.3735 18.3427 38.3954 18.3505C38.4282 18.362 38.4662 18.3614 38.5022 18.3614C38.8627 18.362 39.2238 18.3614 39.5842 18.3614C39.6202 18.3614 39.6563 18.3575 39.6917 18.3543C39.7207 18.3517 39.7586 18.3125 39.7612 18.2822C39.7638 18.2552 39.7676 18.2288 39.7676 18.2018C39.7689 18.0486 39.7702 17.8954 39.7702 17.7422C39.7702 15.2359 39.7702 12.3665 39.7702 9.86017C39.7702 9.42378 39.7258 9.4759 40.1648 9.4759C42.545 9.47462 44.9258 9.47592 47.306 9.47527C47.3961 9.47527 47.4862 9.47527 47.5763 9.4727C47.6574 9.47077 47.6967 9.43601 47.6967 9.36135C47.6973 8.95585 47.6973 8.54971 47.6967 8.14421C47.6967 8.0644 47.6593 8.02708 47.5834 8.0245C47.5023 8.02128 47.4212 8.0213 47.3401 8.0213C44.4546 8.0213 41.5692 8.02065 38.6844 8.0213C38.2937 8.0213 38.3252 7.98588 38.3246 8.38944C38.3246 9.93096 38.3246 11.8355 38.3246 13.377C38.3246 14.9095 38.3246 16.442 38.3246 17.9746L38.3252 17.9739Z" fill="#1A1A1A"/>
<path d="M5.76317 32.1516C5.81788 32.1773 5.85843 32.2114 5.88417 32.2533C5.90992 32.2951 5.90541 32.3446 5.86937 32.4019L5.05194 33.3397C5.01654 33.3841 4.97857 33.4092 4.93802 33.4157C4.89747 33.4221 4.84855 33.4112 4.79063 33.3822C4.63229 33.2856 4.45851 33.2116 4.26799 33.1595C4.07747 33.1074 3.87601 33.0816 3.66297 33.0816C3.39843 33.0816 3.15513 33.1222 2.93243 33.2026C2.70973 33.2831 2.51793 33.3938 2.35637 33.5347C2.19482 33.6757 2.06931 33.8392 1.9792 34.0271C1.88909 34.2144 1.84403 34.4152 1.84403 34.6289C1.84403 34.8426 1.88909 35.0422 1.9792 35.2288C2.06931 35.4148 2.19546 35.5777 2.35637 35.7173C2.51793 35.857 2.70973 35.9671 2.93243 36.0475C3.15513 36.128 3.39843 36.1685 3.66297 36.1685C3.87601 36.1685 4.07876 36.1421 4.27249 36.0887C4.46623 36.0353 4.64194 35.9606 4.79963 35.8641C4.85756 35.8358 4.90584 35.8235 4.9451 35.8287C4.98372 35.8338 5.02233 35.8576 5.06095 35.8988L5.88803 36.8598C5.92343 36.9171 5.92858 36.9654 5.90284 37.0046C5.87709 37.0439 5.83654 37.0761 5.78183 37.1025C5.47868 37.2666 5.15171 37.3934 4.80221 37.4835C4.45207 37.5736 4.08391 37.618 3.69643 37.618C3.35466 37.618 3.0264 37.5826 2.71166 37.5125C2.39692 37.4423 2.10278 37.3419 1.82859 37.2119C1.55439 37.0818 1.3053 36.9261 1.08132 36.7452C0.85733 36.5644 0.664237 36.3636 0.503326 36.1434C0.341772 35.9233 0.217551 35.6864 0.130659 35.4322C0.0437676 35.178 0 34.9134 0 34.6373C0 34.3612 0.0437676 34.096 0.130659 33.8424C0.217551 33.5882 0.341772 33.35 0.503326 33.1273C0.66488 32.9046 0.85733 32.7019 1.08132 32.5197C1.3053 32.3376 1.55439 32.1818 1.82859 32.0531C2.10278 31.9243 2.39692 31.8239 2.71166 31.7525C3.0264 31.6811 3.35402 31.645 3.69643 31.645C4.08326 31.645 4.44885 31.6888 4.79256 31.7757C5.13626 31.8632 5.45937 31.9887 5.76252 32.1529L5.76317 32.1516Z" fill="#1A1A1A"/>
<path d="M12.4716 33.1563C12.4247 33.0025 12.3545 32.8564 12.2631 32.7128C12.1717 32.5744 12.0597 32.4418 11.9265 32.3215C11.7932 32.1992 11.6452 32.0975 11.483 32.0087C11.3163 31.9224 11.1361 31.8549 10.9378 31.8027C10.7422 31.7532 10.5311 31.73 10.3097 31.73H7.2176C7.14744 31.73 7.09273 31.7454 7.05862 31.777C7.02193 31.8111 7.00391 31.8555 7.00391 31.9102V37.3644C7.00391 37.4217 7.0245 37.4635 7.06377 37.4893C7.10303 37.515 7.15516 37.5311 7.2176 37.5311H8.65678C8.80289 37.5311 8.87819 37.4764 8.87819 37.3644V35.5056H10.3463C10.6746 35.503 10.9745 35.4457 11.2436 35.3363C11.5145 35.2321 11.7495 35.0885 11.9426 34.9141C12.1357 34.7422 12.2843 34.5389 12.3912 34.3142C12.4929 34.0928 12.5476 33.863 12.5476 33.6313C12.5476 33.4697 12.5244 33.3133 12.4723 33.1569L12.4716 33.1563ZM10.5993 33.863C10.5652 33.9441 10.5156 34.0117 10.4532 34.069C10.3908 34.1289 10.3122 34.1784 10.2183 34.2177C10.1243 34.2569 10.02 34.2749 9.90544 34.2749H8.87819V32.969H9.90544C10.02 32.969 10.1243 32.9896 10.2157 33.0263C10.3071 33.0655 10.3875 33.1151 10.4532 33.1775C10.513 33.24 10.5652 33.3082 10.5993 33.3886C10.6334 33.464 10.6488 33.5451 10.6488 33.621C10.6488 33.7047 10.6334 33.7877 10.5993 33.8637V33.863Z" fill="#1A1A1A"/>
<path d="M13.6348 31.9096C13.6348 31.8548 13.6534 31.8117 13.6901 31.7808C13.7275 31.7493 13.7712 31.7326 13.8234 31.73H18.4537C18.5277 31.73 18.5837 31.7467 18.6204 31.7808C18.6577 31.8143 18.6758 31.86 18.6758 31.9173V32.8834C18.6758 32.9278 18.6565 32.9696 18.6178 33.0102C18.5792 33.0507 18.5226 33.0707 18.4486 33.0707H15.5071V34.282H17.6794C17.7406 34.282 17.792 34.2955 17.8345 34.3232C17.8764 34.3502 17.8976 34.394 17.8976 34.4539V35.3878C17.8976 35.4322 17.8789 35.4747 17.8423 35.5146C17.8049 35.5552 17.7541 35.5751 17.6897 35.5751H15.5078V37.3644C15.5078 37.4764 15.4337 37.5324 15.2851 37.5324H13.8092C13.6933 37.5196 13.6348 37.4648 13.6348 37.3683V31.9102V31.9096Z" fill="#1A1A1A"/>
<path d="M19.8835 31.8342C19.8835 31.7608 19.9285 31.7241 20.0193 31.7241H24.7314C24.815 31.7241 24.8575 31.7608 24.8575 31.8342V31.838C24.8575 31.914 24.8157 31.952 24.7314 31.952H20.1551V34.6173H23.8644C23.9519 34.6173 23.9957 34.654 23.9957 34.7274V34.7312C23.9957 34.8072 23.9519 34.8452 23.8644 34.8452H20.1551V37.4171C20.1551 37.4931 20.1113 37.5311 20.0238 37.5311H20.0186C19.9279 37.5311 19.8828 37.4931 19.8828 37.4171V31.8336L19.8835 31.8342Z" fill="#1A1A1A"/>
<path d="M25.8359 31.8541C25.8359 31.7672 25.881 31.7241 25.9717 31.7241H25.9769C26.0644 31.7241 26.1082 31.7672 26.1082 31.8541V37.3032H30.2558C30.3697 37.3032 30.427 37.3386 30.427 37.4088V37.4126C30.427 37.4506 30.4109 37.4796 30.3794 37.5002C30.3472 37.5208 30.306 37.5304 30.2558 37.5304H25.9717C25.881 37.5304 25.8359 37.4924 25.8359 37.4165V31.8535V31.8541Z" fill="#1A1A1A"/>
<path d="M37.1841 33.1407C36.861 32.6843 36.4201 32.3245 35.862 32.0587C35.3014 31.7929 34.6887 31.6597 34.0161 31.6597C33.3435 31.6597 32.7307 31.7929 32.1624 32.0587C31.5992 32.3245 31.148 32.6843 30.8172 33.1407C30.4838 33.5944 30.3164 34.09 30.3164 34.6346C30.3164 35.1791 30.4831 35.6695 30.8146 36.1233C31.1428 36.5771 31.594 36.9343 32.1598 37.1975C32.723 37.4608 33.3435 37.594 34.0161 37.594C34.6887 37.594 35.3014 37.4608 35.862 37.1975C36.4201 36.9343 36.861 36.5771 37.1841 36.1233C37.5072 35.6695 37.6687 35.1739 37.6687 34.6346C37.6687 34.0952 37.5072 33.5944 37.1841 33.1407ZM36.9337 36.0113C36.6389 36.4233 36.2321 36.7515 35.7185 36.9942C35.2049 37.2368 34.6391 37.3565 34.0161 37.3565C33.393 37.3565 32.8221 37.2368 32.3008 36.9942C31.782 36.7515 31.37 36.4232 31.0675 36.0087C30.765 35.5917 30.6163 35.1327 30.6163 34.6346C30.6163 34.1364 30.765 33.6697 31.0675 33.2552C31.37 32.8381 31.782 32.5067 32.3008 32.2647C32.8221 32.0195 33.3956 31.8997 34.0161 31.8997C34.6365 31.8997 35.2049 32.0195 35.7185 32.2621C36.2321 32.5048 36.6389 32.833 36.9337 33.2527C37.2285 33.6672 37.3772 34.1287 37.3772 34.6346C37.3772 35.1405 37.2285 35.5942 36.9337 36.0113Z" fill="#1A1A1A"/>
<path d="M45.5356 33.1407C45.2099 32.6843 44.769 32.3245 44.211 32.0587C43.653 31.7929 43.0402 31.6597 42.3676 31.6597C41.695 31.6597 41.0797 31.7929 40.5165 32.0587C39.9507 32.3245 39.4996 32.6843 39.1661 33.1407C38.8353 33.5944 38.668 34.09 38.668 34.6346C38.668 35.1791 38.8321 35.6695 39.1636 36.1233C39.4944 36.5771 39.943 36.9343 40.5114 37.1975C41.0771 37.4608 41.695 37.594 42.3676 37.594C43.0402 37.594 43.653 37.4608 44.211 37.1975C44.769 36.9343 45.2099 36.5771 45.5356 36.1233C45.8587 35.6695 46.0229 35.1739 46.0229 34.6346C46.0229 34.0952 45.8587 33.5944 45.5356 33.1407ZM45.2878 36.0113C44.9879 36.4233 44.5837 36.7515 44.0701 36.9942C43.5564 37.2368 42.9881 37.3565 42.3676 37.3565C41.7471 37.3565 41.1762 37.2368 40.6549 36.9942C40.1335 36.7515 39.7216 36.4232 39.4191 36.0087C39.1166 35.5917 38.9653 35.1327 38.9653 34.6346C38.9653 34.1364 39.1166 33.6697 39.4191 33.2552C39.7216 32.8381 40.1335 32.5067 40.6549 32.2647C41.1762 32.0195 41.7446 31.8997 42.3676 31.8997C42.9907 31.8997 43.5564 32.0195 44.0701 32.2621C44.5837 32.5048 44.9879 32.833 45.2878 33.2527C45.5826 33.6672 45.7313 34.1287 45.7313 34.6346C45.7313 35.1405 45.5826 35.5942 45.2878 36.0113Z" fill="#1A1A1A"/>
<path d="M51.1569 35.174C51.5508 35.0305 51.8688 34.8091 52.1063 34.5143C52.3464 34.2221 52.4687 33.8964 52.4687 33.534C52.4687 33.2109 52.367 32.9084 52.1687 32.6317C51.9679 32.3504 51.6969 32.1309 51.3551 31.9694C51.0108 31.8026 50.6381 31.7241 50.2339 31.7241H47.4991C47.4077 31.7241 47.3633 31.7582 47.3633 31.8336V37.4159C47.3633 37.4912 47.4077 37.5304 47.4991 37.5304H47.5017C47.5905 37.5304 47.6349 37.4912 47.6349 37.4159V35.3324H50.2346C50.4586 35.3324 50.6755 35.3092 50.8756 35.2597L52.0046 37.4474C52.0226 37.4815 52.0438 37.5021 52.0696 37.5124C52.096 37.5253 52.1217 37.5304 52.1449 37.5304H52.1603C52.1919 37.5304 52.2254 37.5201 52.2543 37.4963C52.2801 37.4757 52.2962 37.4467 52.2962 37.4152C52.2962 37.4126 52.2936 37.3972 52.2884 37.3759L51.1569 35.1728V35.174ZM50.2339 35.1064H47.6343V31.9488H50.2339C50.5937 31.9488 50.922 32.0189 51.2245 32.1573C51.5218 32.3008 51.7587 32.4914 51.9286 32.7334C52.1005 32.9786 52.1867 33.2444 52.1867 33.534C52.1867 33.8237 52.1005 34.0869 51.9286 34.3264C51.7594 34.5665 51.5218 34.7563 51.2245 34.8973C50.922 35.0356 50.5937 35.1058 50.2339 35.1058V35.1064Z" fill="#1A1A1A"/>
<path d="M53.5715 36.7212C53.5277 36.6807 53.5059 36.644 53.5059 36.6112C53.5059 36.5816 53.5194 36.5558 53.5464 36.5339L53.5567 36.5256C53.5799 36.5146 53.6056 36.5095 53.632 36.5095C53.679 36.5095 53.7292 36.5352 53.7833 36.5867C54.0452 36.8499 54.3606 37.0488 54.7281 37.1827C55.0963 37.3172 55.5468 37.3842 56.0811 37.3842C56.5348 37.3842 56.9403 37.3353 57.2982 37.2374C57.6561 37.1396 57.9418 36.9832 58.1549 36.7676C58.3679 36.5519 58.4748 36.2758 58.4748 35.9392C58.4748 35.6489 58.3512 35.4179 58.104 35.2454C57.8569 35.0729 57.5788 34.9493 57.2699 34.8727C56.9609 34.7967 56.5677 34.7208 56.0907 34.6448C55.5366 34.5637 55.0821 34.4601 54.7275 34.3352C54.3728 34.2104 54.107 34.054 53.9287 33.8654C53.7504 33.6768 53.6616 33.447 53.6616 33.1754C53.6616 32.8555 53.7652 32.5813 53.9719 32.3535C54.1785 32.1256 54.4726 31.9525 54.8536 31.8347C55.2347 31.7169 55.6859 31.6577 56.2066 31.6577C56.6668 31.6577 57.0658 31.7079 57.4037 31.8083C57.7417 31.9087 58.0648 32.0799 58.3737 32.3213C58.404 32.3457 58.4188 32.3754 58.4188 32.4108C58.4188 32.4378 58.4085 32.4623 58.3885 32.4841L58.3782 32.4925C58.3512 32.506 58.3229 32.5131 58.2926 32.5131C58.2656 32.5131 58.2386 32.5067 58.2122 32.4925C58.1851 32.479 58.1536 32.4584 58.1163 32.4314C57.9148 32.293 57.7314 32.1861 57.5666 32.1096C57.4018 32.0336 57.2132 31.9776 56.9995 31.9409C56.7859 31.9042 56.5213 31.8862 56.2059 31.8862C55.8127 31.8862 55.4458 31.928 55.1047 32.0123C54.7635 32.0967 54.4842 32.2344 54.2654 32.4256C54.0472 32.6167 53.9377 32.8671 53.9377 33.1767C53.9377 33.532 54.1386 33.8055 54.5402 33.9967C54.9418 34.1879 55.4799 34.3352 56.1557 34.4382C56.6932 34.5251 57.1315 34.6127 57.4713 34.7008C57.8105 34.789 58.1092 34.9326 58.366 35.1321C58.6228 35.3316 58.7515 35.6007 58.7515 35.9398C58.7515 36.3087 58.6357 36.6182 58.404 36.868C58.1723 37.1177 57.8543 37.3037 57.4514 37.4254C57.0485 37.5477 56.5915 37.6088 56.0804 37.6088C55.543 37.6088 55.0718 37.54 54.667 37.4035C54.2621 37.2664 53.8966 37.0392 53.5709 36.7219L53.5715 36.7212Z" fill="#1A1A1A"/>
</svg>
