<svg width="104" height="132" viewBox="0 0 104 132" fill="none" xmlns="http://www.w3.org/2000/svg">
<rect x="8" y="1.58691" width="88" height="88" rx="9" stroke="#373737" stroke-width="2"/>
<path d="M33.8309 122V112.9H37.5749C38.3809 112.9 39.0699 113.03 39.6419 113.29C40.2226 113.55 40.6689 113.923 40.9809 114.408C41.2929 114.893 41.4489 115.47 41.4489 116.137C41.4489 116.804 41.2929 117.381 40.9809 117.866C40.6689 118.343 40.2226 118.711 39.6419 118.971C39.0699 119.222 38.3809 119.348 37.5749 119.348H34.7669L35.5209 118.581V122H33.8309ZM39.7849 122L37.4839 118.698H39.2909L41.6049 122H39.7849ZM35.5209 118.763L34.7669 117.957H37.4969C38.2423 117.957 38.8013 117.797 39.1739 117.476C39.5553 117.155 39.7459 116.709 39.7459 116.137C39.7459 115.556 39.5553 115.11 39.1739 114.798C38.8013 114.486 38.2423 114.33 37.4969 114.33H34.7669L35.5209 113.498V118.763ZM45.9137 122.091C45.203 122.091 44.5704 121.939 44.0157 121.636C43.461 121.324 43.0234 120.899 42.7027 120.362C42.382 119.825 42.2217 119.214 42.2217 118.529C42.2217 117.836 42.382 117.225 42.7027 116.696C43.0234 116.159 43.461 115.738 44.0157 115.435C44.5704 115.132 45.203 114.98 45.9137 114.98C46.633 114.98 47.27 115.132 47.8247 115.435C48.388 115.738 48.8257 116.154 49.1377 116.683C49.4584 117.212 49.6187 117.827 49.6187 118.529C49.6187 119.214 49.4584 119.825 49.1377 120.362C48.8257 120.899 48.388 121.324 47.8247 121.636C47.27 121.939 46.633 122.091 45.9137 122.091ZM45.9137 120.7C46.3124 120.7 46.6677 120.613 46.9797 120.44C47.2917 120.267 47.5344 120.015 47.7077 119.686C47.8897 119.357 47.9807 118.971 47.9807 118.529C47.9807 118.078 47.8897 117.693 47.7077 117.372C47.5344 117.043 47.2917 116.791 46.9797 116.618C46.6677 116.445 46.3167 116.358 45.9267 116.358C45.528 116.358 45.1727 116.445 44.8607 116.618C44.5574 116.791 44.3147 117.043 44.1327 117.372C43.9507 117.693 43.8597 118.078 43.8597 118.529C43.8597 118.971 43.9507 119.357 44.1327 119.686C44.3147 120.015 44.5574 120.267 44.8607 120.44C45.1727 120.613 45.5237 120.7 45.9137 120.7ZM53.9026 122.091C53.192 122.091 52.5593 121.939 52.0046 121.636C51.45 121.324 51.0123 120.899 50.6916 120.362C50.371 119.825 50.2106 119.214 50.2106 118.529C50.2106 117.836 50.371 117.225 50.6916 116.696C51.0123 116.159 51.45 115.738 52.0046 115.435C52.5593 115.132 53.192 114.98 53.9026 114.98C54.622 114.98 55.259 115.132 55.8136 115.435C56.377 115.738 56.8146 116.154 57.1266 116.683C57.4473 117.212 57.6076 117.827 57.6076 118.529C57.6076 119.214 57.4473 119.825 57.1266 120.362C56.8146 120.899 56.377 121.324 55.8136 121.636C55.259 121.939 54.622 122.091 53.9026 122.091ZM53.9026 120.7C54.3013 120.7 54.6566 120.613 54.9686 120.44C55.2806 120.267 55.5233 120.015 55.6966 119.686C55.8786 119.357 55.9696 118.971 55.9696 118.529C55.9696 118.078 55.8786 117.693 55.6966 117.372C55.5233 117.043 55.2806 116.791 54.9686 116.618C54.6566 116.445 54.3056 116.358 53.9156 116.358C53.517 116.358 53.1616 116.445 52.8496 116.618C52.5463 116.791 52.3036 117.043 52.1216 117.372C51.9396 117.693 51.8486 118.078 51.8486 118.529C51.8486 118.971 51.9396 119.357 52.1216 119.686C52.3036 120.015 52.5463 120.267 52.8496 120.44C53.1616 120.613 53.5126 120.7 53.9026 120.7ZM67.5335 114.98C68.0882 114.98 68.5779 115.088 69.0025 115.305C69.4359 115.522 69.7739 115.855 70.0165 116.306C70.2592 116.748 70.3805 117.32 70.3805 118.022V122H68.7555V118.23C68.7555 117.615 68.6212 117.155 68.3525 116.852C68.0839 116.549 67.6982 116.397 67.1955 116.397C66.8402 116.397 66.5239 116.475 66.2465 116.631C65.9779 116.787 65.7655 117.017 65.6095 117.32C65.4622 117.623 65.3885 118.009 65.3885 118.477V122H63.7635V118.23C63.7635 117.615 63.6292 117.155 63.3605 116.852C63.0919 116.549 62.7062 116.397 62.2035 116.397C61.8482 116.397 61.5319 116.475 61.2545 116.631C60.9859 116.787 60.7735 117.017 60.6175 117.32C60.4702 117.623 60.3965 118.009 60.3965 118.477V122H58.7715V115.058H60.3185V116.904L60.0455 116.358C60.2795 115.907 60.6175 115.565 61.0595 115.331C61.5102 115.097 62.0215 114.98 62.5935 114.98C63.2435 114.98 63.8069 115.14 64.2835 115.461C64.7689 115.782 65.0895 116.267 65.2455 116.917L64.6085 116.696C64.8339 116.176 65.2065 115.76 65.7265 115.448C66.2465 115.136 66.8489 114.98 67.5335 114.98Z" fill="#373737"/>
<path d="M68.375 41.8682C69.1209 41.8682 69.8363 42.1645 70.3637 42.6919C70.8912 43.2194 71.1875 43.9347 71.1875 44.6807V53.2082C71.1875 53.5573 71.0488 53.892 70.802 54.1389C70.5551 54.3857 70.2203 54.5244 69.8713 54.5244H68.375V55.9307C68.375 56.6766 68.0787 57.392 67.5512 57.9194C67.0238 58.4468 66.3084 58.7432 65.5625 58.7432C64.8166 58.7432 64.1012 58.4468 63.5738 57.9194C63.0463 57.392 62.75 56.6766 62.75 55.9307V54.5244H40.25V55.9307C40.25 56.6766 39.9537 57.392 39.4262 57.9194C38.8988 58.4468 38.1834 58.7432 37.4375 58.7432C36.6916 58.7432 35.9762 58.4468 35.4488 57.9194C34.9213 57.392 34.625 56.6766 34.625 55.9307V54.5244H33.1288C32.7797 54.5244 32.4449 54.3857 32.198 54.1389C31.9512 53.892 31.8125 53.5573 31.8125 53.2082V44.6807C31.8125 43.9347 32.1088 43.2194 32.6363 42.6919C33.1637 42.1645 33.8791 41.8682 34.625 41.8682C35.3709 41.8682 36.0863 42.1645 36.6137 42.6919C37.1412 43.2194 37.4375 43.9347 37.4375 44.6807V47.4932H65.5625V44.6807C65.5625 43.9347 65.8588 43.2194 66.3863 42.6919C66.9137 42.1645 67.6291 41.8682 68.375 41.8682ZM40.25 44.6807C40.25 43.1888 39.6574 41.7581 38.6025 40.7032C37.5476 39.6483 36.1168 39.0557 34.625 39.0557V36.2432C34.625 35.4972 34.9213 34.7819 35.4488 34.2544C35.9762 33.727 36.6916 33.4307 37.4375 33.4307H65.5625C66.3084 33.4307 67.0238 33.727 67.5512 34.2544C68.0787 34.7819 68.375 35.4972 68.375 36.2432V39.0557C66.8832 39.0557 65.4524 39.6483 64.3975 40.7032C63.3426 41.7581 62.75 43.1888 62.75 44.6807H40.25Z" fill="#373737"/>
</svg>
