<svg width="104" height="132" viewBox="0 0 104 132" fill="none" xmlns="http://www.w3.org/2000/svg">
<rect x="8" y="1.58691" width="88" height="88" rx="9" stroke="#373737" stroke-width="2"/>
<path d="M29.9508 119.855L29.8598 117.853L34.6308 112.9H36.5288L32.5638 117.112L31.6278 118.139L29.9508 119.855ZM28.4428 122V112.9H30.1328V122H28.4428ZM34.7868 122L31.3028 117.853L32.4208 116.618L36.7628 122H34.7868ZM37.3675 122V115.058H38.9925V122H37.3675ZM38.1865 113.914C37.8831 113.914 37.6318 113.819 37.4325 113.628C37.2418 113.437 37.1465 113.208 37.1465 112.939C37.1465 112.662 37.2418 112.432 37.4325 112.25C37.6318 112.059 37.8831 111.964 38.1865 111.964C38.4898 111.964 38.7368 112.055 38.9275 112.237C39.1268 112.41 39.2265 112.631 39.2265 112.9C39.2265 113.186 39.1311 113.429 38.9405 113.628C38.7498 113.819 38.4985 113.914 38.1865 113.914ZM43.3483 122.091C42.5856 122.091 41.9963 121.896 41.5803 121.506C41.1643 121.107 40.9563 120.522 40.9563 119.751V113.524H42.5813V119.712C42.5813 120.041 42.6636 120.297 42.8283 120.479C43.0016 120.661 43.24 120.752 43.5433 120.752C43.9073 120.752 44.2106 120.657 44.4533 120.466L44.9083 121.623C44.7176 121.779 44.4836 121.896 44.2063 121.974C43.929 122.052 43.643 122.091 43.3483 122.091ZM39.8123 116.41V115.11H44.4403V116.41H39.8123ZM48.8115 122.091C48.0835 122.091 47.4335 121.939 46.8615 121.636C46.2982 121.324 45.8562 120.899 45.5355 120.362C45.2149 119.825 45.0545 119.214 45.0545 118.529C45.0545 117.836 45.2149 117.225 45.5355 116.696C45.8562 116.159 46.2982 115.738 46.8615 115.435C47.4335 115.132 48.0835 114.98 48.8115 114.98C49.4875 114.98 50.0812 115.119 50.5925 115.396C51.1125 115.665 51.5069 116.063 51.7755 116.592L50.5275 117.32C50.3195 116.991 50.0639 116.748 49.7605 116.592C49.4659 116.436 49.1452 116.358 48.7985 116.358C48.3999 116.358 48.0402 116.445 47.7195 116.618C47.3989 116.791 47.1475 117.043 46.9655 117.372C46.7835 117.693 46.6925 118.078 46.6925 118.529C46.6925 118.98 46.7835 119.37 46.9655 119.699C47.1475 120.02 47.3989 120.267 47.7195 120.44C48.0402 120.613 48.3999 120.7 48.7985 120.7C49.1452 120.7 49.4659 120.622 49.7605 120.466C50.0639 120.31 50.3195 120.067 50.5275 119.738L51.7755 120.466C51.5069 120.986 51.1125 121.389 50.5925 121.675C50.0812 121.952 49.4875 122.091 48.8115 122.091ZM56.6658 114.98C57.2204 114.98 57.7144 115.088 58.1478 115.305C58.5898 115.522 58.9364 115.855 59.1878 116.306C59.4391 116.748 59.5648 117.32 59.5648 118.022V122H57.9398V118.23C57.9398 117.615 57.7924 117.155 57.4978 116.852C57.2118 116.549 56.8088 116.397 56.2888 116.397C55.9074 116.397 55.5694 116.475 55.2748 116.631C54.9801 116.787 54.7504 117.021 54.5858 117.333C54.4298 117.636 54.3518 118.022 54.3518 118.49V122H52.7268V112.354H54.3518V116.93L54.0008 116.358C54.2434 115.916 54.5944 115.578 55.0538 115.344C55.5218 115.101 56.0591 114.98 56.6658 114.98ZM64.5119 122.091C63.7406 122.091 63.0646 121.939 62.4839 121.636C61.9119 121.324 61.4656 120.899 61.1449 120.362C60.8329 119.825 60.6769 119.214 60.6769 118.529C60.6769 117.836 60.8286 117.225 61.1319 116.696C61.4439 116.159 61.8686 115.738 62.4059 115.435C62.9519 115.132 63.5716 114.98 64.2649 114.98C64.9409 114.98 65.5432 115.127 66.0719 115.422C66.6006 115.717 67.0166 116.133 67.3199 116.67C67.6232 117.207 67.7749 117.84 67.7749 118.568C67.7749 118.637 67.7706 118.715 67.7619 118.802C67.7619 118.889 67.7576 118.971 67.7489 119.049H61.9639V117.97H66.8909L66.2539 118.308C66.2626 117.909 66.1802 117.558 66.0069 117.255C65.8336 116.952 65.5952 116.713 65.2919 116.54C64.9972 116.367 64.6549 116.28 64.2649 116.28C63.8662 116.28 63.5152 116.367 63.2119 116.54C62.9172 116.713 62.6832 116.956 62.5099 117.268C62.3452 117.571 62.2629 117.931 62.2629 118.347V118.607C62.2629 119.023 62.3582 119.391 62.5489 119.712C62.7396 120.033 63.0082 120.28 63.3549 120.453C63.7016 120.626 64.1002 120.713 64.5509 120.713C64.9409 120.713 65.2919 120.652 65.6039 120.531C65.9159 120.41 66.1932 120.219 66.4359 119.959L67.3069 120.96C66.9949 121.324 66.6006 121.606 66.1239 121.805C65.6559 121.996 65.1186 122.091 64.5119 122.091ZM72.8848 114.98C73.4395 114.98 73.9335 115.088 74.3668 115.305C74.8088 115.522 75.1555 115.855 75.4068 116.306C75.6581 116.748 75.7838 117.32 75.7838 118.022V122H74.1588V118.23C74.1588 117.615 74.0115 117.155 73.7168 116.852C73.4308 116.549 73.0278 116.397 72.5078 116.397C72.1265 116.397 71.7885 116.475 71.4938 116.631C71.1991 116.787 70.9695 117.021 70.8048 117.333C70.6488 117.636 70.5708 118.022 70.5708 118.49V122H68.9458V115.058H70.4928V116.93L70.2198 116.358C70.4625 115.916 70.8135 115.578 71.2728 115.344C71.7408 115.101 72.2781 114.98 72.8848 114.98Z" fill="#373737"/>
<path d="M46.2994 38.5869C46.5656 38.5869 46.7881 38.4969 46.9669 38.3169C47.1456 38.1369 47.235 37.9144 47.235 37.6494V34.6194C47.235 34.3544 47.145 34.1319 46.965 33.9519C46.7863 33.7732 46.5638 33.6838 46.2975 33.6838C46.0313 33.6838 45.8088 33.7732 45.63 33.9519C45.4513 34.1307 45.3613 34.3538 45.36 34.6213V37.6494C45.36 37.9157 45.45 38.1382 45.63 38.3169C45.81 38.4957 46.0331 38.5857 46.2994 38.5869ZM46.2994 53.8044C46.5656 53.8044 46.7881 53.7144 46.9669 53.5344C47.1456 53.3544 47.235 53.1319 47.235 52.8669V46.5913C47.235 46.3263 47.145 46.1038 46.965 45.9238C46.7863 45.7438 46.5638 45.6538 46.2975 45.6538C46.0313 45.6538 45.8088 45.7438 45.63 45.9238C45.4513 46.1038 45.3613 46.3263 45.36 46.5913V52.865C45.36 53.1313 45.45 53.3544 45.63 53.5344C45.81 53.7144 46.0331 53.8057 46.2994 53.8044ZM42.405 62.9619C41.5713 62.9619 40.8581 62.665 40.2656 62.0713C39.6731 61.4775 39.3762 60.7657 39.375 59.9357V43.0607H65.625V59.9357C65.625 60.7732 65.3281 61.4875 64.7344 62.0788C64.1419 62.6688 63.4294 62.9638 62.5969 62.9638L42.405 62.9619ZM39.375 41.1838V32.24C39.375 31.4075 39.6719 30.695 40.2656 30.1025C40.8594 29.51 41.5719 29.2132 42.4031 29.2119H62.5969C63.4294 29.2119 64.1419 29.5088 64.7344 30.1025C65.3269 30.6963 65.6238 31.4088 65.625 32.24V41.1838H39.375Z" fill="#373737"/>
</svg>
