<svg width="104" height="132" viewBox="0 0 104 132" fill="none" xmlns="http://www.w3.org/2000/svg">
<rect x="8" y="1.58691" width="88" height="88" rx="9" stroke="#373737" stroke-width="2"/>
<path d="M14.4183 122V112.9H16.1083V120.57H20.8663V122H14.4183ZM21.6545 122V115.058H23.2795V122H21.6545ZM22.4735 113.914C22.1702 113.914 21.9188 113.819 21.7195 113.628C21.5288 113.437 21.4335 113.208 21.4335 112.939C21.4335 112.662 21.5288 112.432 21.7195 112.25C21.9188 112.059 22.1702 111.964 22.4735 111.964C22.7768 111.964 23.0238 112.055 23.2145 112.237C23.4138 112.41 23.5135 112.631 23.5135 112.9C23.5135 113.186 23.4182 113.429 23.2275 113.628C23.0368 113.819 22.7855 113.914 22.4735 113.914ZM26.8683 122L23.8913 115.058H25.5813L28.1423 121.181H27.3103L29.9623 115.058H31.5223L28.5453 122H26.8683ZM32.1479 122V115.058H33.7729V122H32.1479ZM32.9669 113.914C32.6636 113.914 32.4123 113.819 32.2129 113.628C32.0223 113.437 31.9269 113.208 31.9269 112.939C31.9269 112.662 32.0223 112.432 32.2129 112.25C32.4123 112.059 32.6636 111.964 32.9669 111.964C33.2703 111.964 33.5173 112.055 33.7079 112.237C33.9073 112.41 34.0069 112.631 34.0069 112.9C34.0069 113.186 33.9116 113.429 33.7209 113.628C33.5303 113.819 33.2789 113.914 32.9669 113.914ZM39.4547 114.98C40.0094 114.98 40.5034 115.088 40.9367 115.305C41.3787 115.522 41.7254 115.855 41.9767 116.306C42.2281 116.748 42.3537 117.32 42.3537 118.022V122H40.7287V118.23C40.7287 117.615 40.5814 117.155 40.2867 116.852C40.0007 116.549 39.5977 116.397 39.0777 116.397C38.6964 116.397 38.3584 116.475 38.0637 116.631C37.7691 116.787 37.5394 117.021 37.3747 117.333C37.2187 117.636 37.1407 118.022 37.1407 118.49V122H35.5157V115.058H37.0627V116.93L36.7897 116.358C37.0324 115.916 37.3834 115.578 37.8427 115.344C38.3107 115.101 38.8481 114.98 39.4547 114.98ZM47.1839 124.613C46.5425 124.613 45.9142 124.526 45.2989 124.353C44.6922 124.188 44.1939 123.946 43.8039 123.625L44.5319 122.403C44.8352 122.654 45.2165 122.854 45.6759 123.001C46.1439 123.157 46.6162 123.235 47.0929 123.235C47.8555 123.235 48.4145 123.057 48.7699 122.702C49.1252 122.355 49.3029 121.831 49.3029 121.129V119.894L49.4329 118.321L49.3809 116.748V115.058H50.9279V120.947C50.9279 122.204 50.6072 123.127 49.9659 123.716C49.3245 124.314 48.3972 124.613 47.1839 124.613ZM46.9759 121.688C46.3172 121.688 45.7192 121.549 45.1819 121.272C44.6532 120.986 44.2329 120.592 43.9209 120.089C43.6175 119.586 43.4659 118.997 43.4659 118.321C43.4659 117.654 43.6175 117.069 43.9209 116.566C44.2329 116.063 44.6532 115.673 45.1819 115.396C45.7192 115.119 46.3172 114.98 46.9759 114.98C47.5652 114.98 48.0939 115.097 48.5619 115.331C49.0299 115.565 49.4025 115.929 49.6799 116.423C49.9659 116.917 50.1089 117.55 50.1089 118.321C50.1089 119.092 49.9659 119.729 49.6799 120.232C49.4025 120.726 49.0299 121.094 48.5619 121.337C48.0939 121.571 47.5652 121.688 46.9759 121.688ZM47.2229 120.31C47.6302 120.31 47.9942 120.228 48.3149 120.063C48.6355 119.89 48.8825 119.656 49.0559 119.361C49.2379 119.058 49.3289 118.711 49.3289 118.321C49.3289 117.931 49.2379 117.589 49.0559 117.294C48.8825 116.991 48.6355 116.761 48.3149 116.605C47.9942 116.44 47.6302 116.358 47.2229 116.358C46.8155 116.358 46.4472 116.44 46.1179 116.605C45.7972 116.761 45.5459 116.991 45.3639 117.294C45.1905 117.589 45.1039 117.931 45.1039 118.321C45.1039 118.711 45.1905 119.058 45.3639 119.361C45.5459 119.656 45.7972 119.89 46.1179 120.063C46.4472 120.228 46.8155 120.31 47.2229 120.31ZM54.746 122L58.841 112.9H60.505L64.613 122H62.845L59.322 113.797H59.998L56.488 122H54.746ZM56.631 119.894L57.086 118.568H62L62.455 119.894H56.631ZM65.2243 122V115.058H66.7713V116.969L66.5893 116.41C66.7973 115.942 67.1223 115.587 67.5643 115.344C68.015 115.101 68.574 114.98 69.2413 114.98V116.527C69.172 116.51 69.107 116.501 69.0463 116.501C68.9856 116.492 68.925 116.488 68.8643 116.488C68.249 116.488 67.7593 116.67 67.3953 117.034C67.0313 117.389 66.8493 117.922 66.8493 118.633V122H65.2243ZM73.4293 122.091C72.658 122.091 71.982 121.939 71.4013 121.636C70.8293 121.324 70.383 120.899 70.0623 120.362C69.7503 119.825 69.5943 119.214 69.5943 118.529C69.5943 117.836 69.746 117.225 70.0493 116.696C70.3613 116.159 70.786 115.738 71.3233 115.435C71.8693 115.132 72.489 114.98 73.1823 114.98C73.8583 114.98 74.4607 115.127 74.9893 115.422C75.518 115.717 75.934 116.133 76.2373 116.67C76.5407 117.207 76.6923 117.84 76.6923 118.568C76.6923 118.637 76.688 118.715 76.6793 118.802C76.6793 118.889 76.675 118.971 76.6663 119.049H70.8813V117.97H75.8083L75.1713 118.308C75.18 117.909 75.0977 117.558 74.9243 117.255C74.751 116.952 74.5127 116.713 74.2093 116.54C73.9147 116.367 73.5723 116.28 73.1823 116.28C72.7837 116.28 72.4327 116.367 72.1293 116.54C71.8347 116.713 71.6007 116.956 71.4273 117.268C71.2627 117.571 71.1803 117.931 71.1803 118.347V118.607C71.1803 119.023 71.2757 119.391 71.4663 119.712C71.657 120.033 71.9257 120.28 72.2723 120.453C72.619 120.626 73.0177 120.713 73.4683 120.713C73.8583 120.713 74.2093 120.652 74.5213 120.531C74.8333 120.41 75.1107 120.219 75.3533 119.959L76.2243 120.96C75.9123 121.324 75.518 121.606 75.0413 121.805C74.5733 121.996 74.036 122.091 73.4293 122.091ZM81.9498 122V120.596L81.8588 120.297V117.84C81.8588 117.363 81.7158 116.995 81.4298 116.735C81.1438 116.466 80.7105 116.332 80.1298 116.332C79.7398 116.332 79.3541 116.393 78.9728 116.514C78.6001 116.635 78.2838 116.804 78.0238 117.021L77.3868 115.838C77.7595 115.552 78.2015 115.34 78.7128 115.201C79.2328 115.054 79.7701 114.98 80.3248 114.98C81.3301 114.98 82.1058 115.223 82.6518 115.708C83.2065 116.185 83.4838 116.926 83.4838 117.931V122H81.9498ZM79.7658 122.091C79.2458 122.091 78.7908 122.004 78.4008 121.831C78.0108 121.649 77.7075 121.402 77.4908 121.09C77.2828 120.769 77.1788 120.41 77.1788 120.011C77.1788 119.621 77.2698 119.27 77.4518 118.958C77.6425 118.646 77.9501 118.399 78.3748 118.217C78.7995 118.035 79.3628 117.944 80.0648 117.944H82.0798V119.023H80.1818C79.6271 119.023 79.2545 119.114 79.0638 119.296C78.8731 119.469 78.7778 119.686 78.7778 119.946C78.7778 120.241 78.8948 120.475 79.1288 120.648C79.3628 120.821 79.6878 120.908 80.1038 120.908C80.5025 120.908 80.8578 120.817 81.1698 120.635C81.4905 120.453 81.7201 120.184 81.8588 119.829L82.1318 120.804C81.9758 121.211 81.6941 121.528 81.2868 121.753C80.8881 121.978 80.3811 122.091 79.7658 122.091ZM87.3243 122.091C86.7436 122.091 86.1846 122.017 85.6473 121.87C85.1186 121.714 84.6983 121.528 84.3863 121.311L85.0103 120.076C85.3223 120.275 85.695 120.44 86.1283 120.57C86.5616 120.7 86.995 120.765 87.4283 120.765C87.9396 120.765 88.308 120.696 88.5333 120.557C88.7673 120.418 88.8843 120.232 88.8843 119.998C88.8843 119.807 88.8063 119.664 88.6503 119.569C88.4943 119.465 88.2906 119.387 88.0393 119.335C87.788 119.283 87.5063 119.235 87.1943 119.192C86.891 119.149 86.5833 119.092 86.2713 119.023C85.968 118.945 85.6906 118.837 85.4393 118.698C85.188 118.551 84.9843 118.356 84.8283 118.113C84.6723 117.87 84.5943 117.55 84.5943 117.151C84.5943 116.709 84.72 116.328 84.9713 116.007C85.2226 115.678 85.5736 115.426 86.0243 115.253C86.4836 115.071 87.0253 114.98 87.6493 114.98C88.1173 114.98 88.5896 115.032 89.0663 115.136C89.543 115.24 89.9373 115.387 90.2493 115.578L89.6253 116.813C89.296 116.614 88.9623 116.479 88.6243 116.41C88.295 116.332 87.9656 116.293 87.6363 116.293C87.1423 116.293 86.774 116.367 86.5313 116.514C86.2973 116.661 86.1803 116.848 86.1803 117.073C86.1803 117.281 86.2583 117.437 86.4143 117.541C86.5703 117.645 86.774 117.727 87.0253 117.788C87.2766 117.849 87.554 117.901 87.8573 117.944C88.1693 117.979 88.477 118.035 88.7803 118.113C89.0836 118.191 89.361 118.299 89.6123 118.438C89.8723 118.568 90.0803 118.754 90.2363 118.997C90.3923 119.24 90.4703 119.556 90.4703 119.946C90.4703 120.379 90.3403 120.756 90.0803 121.077C89.829 121.398 89.4693 121.649 89.0013 121.831C88.5333 122.004 87.9743 122.091 87.3243 122.091Z" fill="#373737"/>
<path d="M39.375 59.2119V42.9144C39.375 42.4344 39.4825 41.98 39.6975 41.5512C39.9125 41.1225 40.2087 40.7694 40.5862 40.4919L50.6831 32.8456C51.2119 32.4419 51.8156 32.24 52.4944 32.24C53.1731 32.24 53.7806 32.4419 54.3169 32.8456L64.4137 40.49C64.7925 40.7675 65.0887 41.1212 65.3025 41.5512C65.5175 41.98 65.625 42.4344 65.625 42.9144V59.2119C65.625 59.7144 65.4381 60.1525 65.0644 60.5262C64.6906 60.9 64.2525 61.0869 63.75 61.0869H57.405C56.975 61.0869 56.615 60.9419 56.325 60.6519C56.035 60.3606 55.89 60.0006 55.89 59.5719V50.63C55.89 50.2012 55.745 49.8419 55.455 49.5519C55.1638 49.2606 54.8038 49.115 54.375 49.115H50.625C50.1962 49.115 49.8369 49.2606 49.5469 49.5519C49.2556 49.8419 49.11 50.2012 49.11 50.63V59.5737C49.11 60.0025 48.965 60.3619 48.675 60.6519C48.385 60.9419 48.0256 61.0869 47.5969 61.0869H41.25C40.7475 61.0869 40.3094 60.9 39.9356 60.5262C39.5619 60.1525 39.375 59.7144 39.375 59.2119Z" fill="#373737"/>
</svg>
