<svg width="104" height="132" viewBox="0 0 104 132" fill="none" xmlns="http://www.w3.org/2000/svg">
<rect x="8" y="1.58691" width="88" height="88" rx="9" stroke="#373737" stroke-width="2"/>
<path d="M18.5577 122.13C17.8643 122.13 17.2187 122.017 16.6207 121.792C16.0313 121.558 15.5157 121.233 15.0737 120.817C14.6403 120.392 14.3023 119.894 14.0597 119.322C13.817 118.75 13.6957 118.126 13.6957 117.45C13.6957 116.774 13.817 116.15 14.0597 115.578C14.3023 115.006 14.6447 114.512 15.0867 114.096C15.5287 113.671 16.0443 113.346 16.6337 113.121C17.223 112.887 17.8687 112.77 18.5707 112.77C19.316 112.77 19.9963 112.9 20.6117 113.16C21.227 113.411 21.747 113.788 22.1717 114.291L21.0797 115.318C20.7503 114.963 20.382 114.698 19.9747 114.525C19.5673 114.343 19.1253 114.252 18.6487 114.252C18.172 114.252 17.7343 114.33 17.3357 114.486C16.9457 114.642 16.6033 114.863 16.3087 115.149C16.0227 115.435 15.7973 115.773 15.6327 116.163C15.4767 116.553 15.3987 116.982 15.3987 117.45C15.3987 117.918 15.4767 118.347 15.6327 118.737C15.7973 119.127 16.0227 119.465 16.3087 119.751C16.6033 120.037 16.9457 120.258 17.3357 120.414C17.7343 120.57 18.172 120.648 18.6487 120.648C19.1253 120.648 19.5673 120.561 19.9747 120.388C20.382 120.206 20.7503 119.933 21.0797 119.569L22.1717 120.609C21.747 121.103 21.227 121.48 20.6117 121.74C19.9963 122 19.3117 122.13 18.5577 122.13ZM26.0984 122.091C25.3877 122.091 24.755 121.939 24.2004 121.636C23.6457 121.324 23.208 120.899 22.8874 120.362C22.5667 119.825 22.4064 119.214 22.4064 118.529C22.4064 117.836 22.5667 117.225 22.8874 116.696C23.208 116.159 23.6457 115.738 24.2004 115.435C24.755 115.132 25.3877 114.98 26.0984 114.98C26.8177 114.98 27.4547 115.132 28.0094 115.435C28.5727 115.738 29.0104 116.154 29.3224 116.683C29.643 117.212 29.8034 117.827 29.8034 118.529C29.8034 119.214 29.643 119.825 29.3224 120.362C29.0104 120.899 28.5727 121.324 28.0094 121.636C27.4547 121.939 26.8177 122.091 26.0984 122.091ZM26.0984 120.7C26.497 120.7 26.8524 120.613 27.1644 120.44C27.4764 120.267 27.719 120.015 27.8924 119.686C28.0744 119.357 28.1654 118.971 28.1654 118.529C28.1654 118.078 28.0744 117.693 27.8924 117.372C27.719 117.043 27.4764 116.791 27.1644 116.618C26.8524 116.445 26.5014 116.358 26.1114 116.358C25.7127 116.358 25.3574 116.445 25.0454 116.618C24.742 116.791 24.4994 117.043 24.3174 117.372C24.1354 117.693 24.0444 118.078 24.0444 118.529C24.0444 118.971 24.1354 119.357 24.3174 119.686C24.4994 120.015 24.742 120.267 25.0454 120.44C25.3574 120.613 25.7084 120.7 26.0984 120.7ZM39.7293 114.98C40.2839 114.98 40.7736 115.088 41.1983 115.305C41.6316 115.522 41.9696 115.855 42.2123 116.306C42.4549 116.748 42.5763 117.32 42.5763 118.022V122H40.9513V118.23C40.9513 117.615 40.8169 117.155 40.5483 116.852C40.2796 116.549 39.8939 116.397 39.3913 116.397C39.0359 116.397 38.7196 116.475 38.4423 116.631C38.1736 116.787 37.9613 117.017 37.8053 117.32C37.6579 117.623 37.5843 118.009 37.5843 118.477V122H35.9593V118.23C35.9593 117.615 35.8249 117.155 35.5563 116.852C35.2876 116.549 34.9019 116.397 34.3993 116.397C34.0439 116.397 33.7276 116.475 33.4503 116.631C33.1816 116.787 32.9693 117.017 32.8133 117.32C32.6659 117.623 32.5923 118.009 32.5923 118.477V122H30.9673V115.058H32.5143V116.904L32.2413 116.358C32.4753 115.907 32.8133 115.565 33.2553 115.331C33.7059 115.097 34.2173 114.98 34.7893 114.98C35.4393 114.98 36.0026 115.14 36.4793 115.461C36.9646 115.782 37.2853 116.267 37.4413 116.917L36.8043 116.696C37.0296 116.176 37.4023 115.76 37.9223 115.448C38.4423 115.136 39.0446 114.98 39.7293 114.98ZM53.0248 114.98C53.5795 114.98 54.0691 115.088 54.4938 115.305C54.9271 115.522 55.2651 115.855 55.5078 116.306C55.7505 116.748 55.8718 117.32 55.8718 118.022V122H54.2468V118.23C54.2468 117.615 54.1125 117.155 53.8438 116.852C53.5751 116.549 53.1895 116.397 52.6868 116.397C52.3315 116.397 52.0151 116.475 51.7378 116.631C51.4691 116.787 51.2568 117.017 51.1008 117.32C50.9535 117.623 50.8798 118.009 50.8798 118.477V122H49.2548V118.23C49.2548 117.615 49.1205 117.155 48.8518 116.852C48.5831 116.549 48.1975 116.397 47.6948 116.397C47.3395 116.397 47.0231 116.475 46.7458 116.631C46.4771 116.787 46.2648 117.017 46.1088 117.32C45.9615 117.623 45.8878 118.009 45.8878 118.477V122H44.2628V115.058H45.8098V116.904L45.5368 116.358C45.7708 115.907 46.1088 115.565 46.5508 115.331C47.0015 115.097 47.5128 114.98 48.0848 114.98C48.7348 114.98 49.2981 115.14 49.7748 115.461C50.2601 115.782 50.5808 116.267 50.7368 116.917L50.0998 116.696C50.3251 116.176 50.6978 115.76 51.2178 115.448C51.7378 115.136 52.3401 114.98 53.0248 114.98ZM60.8341 122.091C60.0627 122.091 59.3867 121.939 58.8061 121.636C58.2341 121.324 57.7877 120.899 57.4671 120.362C57.1551 119.825 56.9991 119.214 56.9991 118.529C56.9991 117.836 57.1507 117.225 57.4541 116.696C57.7661 116.159 58.1907 115.738 58.7281 115.435C59.2741 115.132 59.8937 114.98 60.5871 114.98C61.2631 114.98 61.8654 115.127 62.3941 115.422C62.9227 115.717 63.3387 116.133 63.6421 116.67C63.9454 117.207 64.0971 117.84 64.0971 118.568C64.0971 118.637 64.0927 118.715 64.0841 118.802C64.0841 118.889 64.0797 118.971 64.0711 119.049H58.2861V117.97H63.2131L62.5761 118.308C62.5847 117.909 62.5024 117.558 62.3291 117.255C62.1557 116.952 61.9174 116.713 61.6141 116.54C61.3194 116.367 60.9771 116.28 60.5871 116.28C60.1884 116.28 59.8374 116.367 59.5341 116.54C59.2394 116.713 59.0054 116.956 58.8321 117.268C58.6674 117.571 58.5851 117.931 58.5851 118.347V118.607C58.5851 119.023 58.6804 119.391 58.8711 119.712C59.0617 120.033 59.3304 120.28 59.6771 120.453C60.0237 120.626 60.4224 120.713 60.8731 120.713C61.2631 120.713 61.6141 120.652 61.9261 120.531C62.2381 120.41 62.5154 120.219 62.7581 119.959L63.6291 120.96C63.3171 121.324 62.9227 121.606 62.4461 121.805C61.9781 121.996 61.4407 122.091 60.8341 122.091ZM65.268 122V115.058H66.815V116.969L66.633 116.41C66.841 115.942 67.166 115.587 67.608 115.344C68.0586 115.101 68.6176 114.98 69.285 114.98V116.527C69.2156 116.51 69.1506 116.501 69.09 116.501C69.0293 116.492 68.9686 116.488 68.908 116.488C68.2926 116.488 67.803 116.67 67.439 117.034C67.075 117.389 66.893 117.922 66.893 118.633V122H65.268ZM73.395 122.091C72.667 122.091 72.017 121.939 71.445 121.636C70.8817 121.324 70.4397 120.899 70.119 120.362C69.7983 119.825 69.638 119.214 69.638 118.529C69.638 117.836 69.7983 117.225 70.119 116.696C70.4397 116.159 70.8817 115.738 71.445 115.435C72.017 115.132 72.667 114.98 73.395 114.98C74.071 114.98 74.6647 115.119 75.176 115.396C75.696 115.665 76.0903 116.063 76.359 116.592L75.111 117.32C74.903 116.991 74.6473 116.748 74.344 116.592C74.0493 116.436 73.7287 116.358 73.382 116.358C72.9833 116.358 72.6237 116.445 72.303 116.618C71.9823 116.791 71.731 117.043 71.549 117.372C71.367 117.693 71.276 118.078 71.276 118.529C71.276 118.98 71.367 119.37 71.549 119.699C71.731 120.02 71.9823 120.267 72.303 120.44C72.6237 120.613 72.9833 120.7 73.382 120.7C73.7287 120.7 74.0493 120.622 74.344 120.466C74.6473 120.31 74.903 120.067 75.111 119.738L76.359 120.466C76.0903 120.986 75.696 121.389 75.176 121.675C74.6647 121.952 74.071 122.091 73.395 122.091ZM77.3102 122V115.058H78.9352V122H77.3102ZM78.1292 113.914C77.8259 113.914 77.5746 113.819 77.3752 113.628C77.1846 113.437 77.0892 113.208 77.0892 112.939C77.0892 112.662 77.1846 112.432 77.3752 112.25C77.5746 112.059 77.8259 111.964 78.1292 111.964C78.4326 111.964 78.6796 112.055 78.8702 112.237C79.0696 112.41 79.1692 112.631 79.1692 112.9C79.1692 113.186 79.0739 113.429 78.8832 113.628C78.6926 113.819 78.4412 113.914 78.1292 113.914ZM84.955 122V120.596L84.864 120.297V117.84C84.864 117.363 84.721 116.995 84.435 116.735C84.149 116.466 83.7157 116.332 83.135 116.332C82.745 116.332 82.3594 116.393 81.978 116.514C81.6054 116.635 81.289 116.804 81.029 117.021L80.392 115.838C80.7647 115.552 81.2067 115.34 81.718 115.201C82.238 115.054 82.7754 114.98 83.33 114.98C84.3354 114.98 85.111 115.223 85.657 115.708C86.2117 116.185 86.489 116.926 86.489 117.931V122H84.955ZM82.771 122.091C82.251 122.091 81.796 122.004 81.406 121.831C81.016 121.649 80.7127 121.402 80.496 121.09C80.288 120.769 80.184 120.41 80.184 120.011C80.184 119.621 80.275 119.27 80.457 118.958C80.6477 118.646 80.9554 118.399 81.38 118.217C81.8047 118.035 82.368 117.944 83.07 117.944H85.085V119.023H83.187C82.6324 119.023 82.2597 119.114 82.069 119.296C81.8784 119.469 81.783 119.686 81.783 119.946C81.783 120.241 81.9 120.475 82.134 120.648C82.368 120.821 82.693 120.908 83.109 120.908C83.5077 120.908 83.863 120.817 84.175 120.635C84.4957 120.453 84.7254 120.184 84.864 119.829L85.137 120.804C84.981 121.211 84.6994 121.528 84.292 121.753C83.8934 121.978 83.3864 122.091 82.771 122.091ZM88.1845 122V112.354H89.8095V122H88.1845Z" fill="#373737"/>
<path d="M31.875 44.2119V62.9619H41.25V51.7119H48.75V62.9619H58.125V44.2119L45 34.8369L31.875 44.2119Z" fill="#373737"/>
<path d="M48.75 29.2119V32.9057L61.875 42.2807V44.2119H65.625V47.9619H61.875V51.7119H65.625V55.4619H61.875V62.9619H73.125V29.2119H48.75ZM65.625 40.4619H61.875V36.7119H65.625V40.4619Z" fill="#373737"/>
</svg>
