<svg width="22" height="22" viewBox="0 0 22 22" fill="none" xmlns="http://www.w3.org/2000/svg">
<path d="M7.1487 1.83325H14.8487C17.782 1.83325 20.1654 4.21659 20.1654 7.14992V14.8499C20.1654 16.26 19.6052 17.6123 18.6082 18.6094C17.6111 19.6064 16.2588 20.1666 14.8487 20.1666H7.1487C4.21536 20.1666 1.83203 17.7833 1.83203 14.8499V7.14992C1.83203 5.73985 2.39218 4.38754 3.38925 3.39047C4.38632 2.3934 5.73863 1.83325 7.1487 1.83325ZM6.96536 3.66659C6.09015 3.66659 5.25078 4.01426 4.63191 4.63313C4.01304 5.252 3.66536 6.09137 3.66536 6.96659V15.0333C3.66536 16.8574 5.1412 18.3333 6.96536 18.3333H15.032C15.9072 18.3333 16.7466 17.9856 17.3655 17.3667C17.9844 16.7478 18.332 15.9085 18.332 15.0333V6.96659C18.332 5.14242 16.8562 3.66659 15.032 3.66659H6.96536ZM15.8112 5.04159C16.1151 5.04159 16.4065 5.16231 16.6214 5.37719C16.8363 5.59208 16.957 5.88352 16.957 6.18742C16.957 6.49131 16.8363 6.78276 16.6214 6.99765C16.4065 7.21253 16.1151 7.33325 15.8112 7.33325C15.5073 7.33325 15.2159 7.21253 15.001 6.99765C14.7861 6.78276 14.6654 6.49131 14.6654 6.18742C14.6654 5.88352 14.7861 5.59208 15.001 5.37719C15.2159 5.16231 15.5073 5.04159 15.8112 5.04159ZM10.9987 6.41659C12.2143 6.41659 13.3801 6.89947 14.2396 7.75901C15.0991 8.61855 15.582 9.78434 15.582 10.9999C15.582 12.2155 15.0991 13.3813 14.2396 14.2408C13.3801 15.1004 12.2143 15.5833 10.9987 15.5833C9.78312 15.5833 8.61733 15.1004 7.75779 14.2408C6.89825 13.3813 6.41536 12.2155 6.41536 10.9999C6.41536 9.78434 6.89825 8.61855 7.75779 7.75901C8.61733 6.89947 9.78312 6.41659 10.9987 6.41659ZM10.9987 8.24992C10.2694 8.24992 9.56988 8.53965 9.05415 9.05537C8.53843 9.5711 8.2487 10.2706 8.2487 10.9999C8.2487 11.7293 8.53843 12.4287 9.05415 12.9445C9.56988 13.4602 10.2694 13.7499 10.9987 13.7499C11.728 13.7499 12.4275 13.4602 12.9432 12.9445C13.459 12.4287 13.7487 11.7293 13.7487 10.9999C13.7487 10.2706 13.459 9.5711 12.9432 9.05537C12.4275 8.53965 11.728 8.24992 10.9987 8.24992Z" fill="#1A1A1A"/>
</svg>
