<svg width="16" height="16" viewBox="0 0 16 16" fill="none" xmlns="http://www.w3.org/2000/svg">
<path d="M14.72 -2.93041e-05H1.37C1.19793 -0.00809144 1.02595 0.0178635 0.863921 0.07635C0.70189 0.134836 0.552986 0.224706 0.425733 0.340813C0.298479 0.456921 0.195374 0.596987 0.122321 0.752992C0.0492681 0.908998 0.00770114 1.07788 0 1.24997V14.63C0.0100803 14.9901 0.157655 15.3328 0.412427 15.5875C0.6672 15.8423 1.00984 15.9899 1.37 16H14.72C15.0701 15.9844 15.4002 15.8322 15.6395 15.5761C15.8788 15.32 16.0082 14.9804 16 14.63V1.24997C16.0029 1.08247 15.9715 0.916159 15.9078 0.761223C15.8441 0.606287 15.7494 0.465996 15.6295 0.348954C15.5097 0.231912 15.3672 0.140586 15.2108 0.0805757C15.0544 0.0205656 14.8874 -0.00686355 14.72 -2.93041e-05ZM5 13.34H2.67V6.20997H5V13.34ZM3.89 5.12997C3.72741 5.13564 3.5654 5.10762 3.41416 5.04768C3.26291 4.98774 3.12569 4.89717 3.01113 4.78166C2.89656 4.66615 2.80711 4.5282 2.74841 4.37647C2.6897 4.22474 2.66301 4.06251 2.67 3.89997C2.66281 3.73567 2.69004 3.57169 2.74995 3.41854C2.80986 3.26538 2.90112 3.12644 3.01787 3.01063C3.13463 2.89481 3.2743 2.80468 3.42793 2.74602C3.58157 2.68735 3.74577 2.66145 3.91 2.66997C4.07259 2.66431 4.2346 2.69232 4.38584 2.75226C4.53709 2.8122 4.67431 2.90277 4.78887 3.01828C4.90344 3.13379 4.99289 3.27174 5.05159 3.42347C5.1103 3.5752 5.13699 3.73743 5.13 3.89997C5.13719 4.06427 5.10996 4.22825 5.05005 4.3814C4.99014 4.53456 4.89888 4.6735 4.78213 4.78931C4.66537 4.90513 4.5257 4.99526 4.37207 5.05392C4.21843 5.11259 4.05423 5.13849 3.89 5.12997ZM13.34 13.34H11V9.43997C11 8.50997 10.67 7.86997 9.84 7.86997C9.58216 7.87221 9.33132 7.95414 9.12185 8.10452C8.91239 8.2549 8.75457 8.46638 8.67 8.70997C8.60498 8.89258 8.57776 9.08651 8.59 9.27997V13.34H6.29V6.20997H8.59V7.20997C8.79448 6.83431 9.09884 6.52248 9.46943 6.30895C9.84003 6.09541 10.2624 5.98848 10.69 5.99997C12.2 5.99997 13.34 6.99997 13.34 9.12997V13.34Z" fill="#1A1A1A"/>
</svg>
