<svg width="61" height="61" viewBox="0 0 61 61" fill="none" xmlns="http://www.w3.org/2000/svg">
<rect width="61" height="61" rx="8" fill="white"/>
<g clip-path="url(#clip0_1215_823)">
<path fill-rule="evenodd" clip-rule="evenodd" d="M37.1786 28.8217C37.491 29.1343 37.6666 29.5581 37.6666 30.0001C37.6666 30.442 37.491 30.8658 37.1786 31.1784L27.7502 40.6067C27.5965 40.7659 27.4126 40.8929 27.2093 40.9802C27.0059 41.0676 26.7872 41.1136 26.5659 41.1155C26.3446 41.1174 26.1252 41.0752 25.9203 40.9914C25.7155 40.9076 25.5294 40.7839 25.3729 40.6274C25.2164 40.4709 25.0927 40.2848 25.0089 40.08C24.9251 39.8752 24.8829 39.6557 24.8848 39.4344C24.8868 39.2131 24.9327 38.9944 25.0201 38.791C25.1074 38.5877 25.2344 38.4038 25.3936 38.2501L33.6436 30.0001L25.3936 21.7501C25.09 21.4357 24.922 21.0147 24.9258 20.5777C24.9296 20.1407 25.1049 19.7227 25.4139 19.4137C25.7229 19.1047 26.1409 18.9294 26.5779 18.9256C27.0149 18.9218 27.4359 19.0898 27.7502 19.3934L37.1786 28.8217Z" fill="#373737"/>
</g>
<defs>
<clipPath id="clip0_1215_823">
<rect width="40" height="40" fill="white" transform="translate(11 10)"/>
</clipPath>
</defs>
</svg>
