<svg width="20" height="20" viewBox="0 0 20 20" fill="none" xmlns="http://www.w3.org/2000/svg">
<path fill-rule="evenodd" clip-rule="evenodd" d="M10 0.25C4.615 0.25 0.25 4.615 0.25 10C0.25 15.385 4.615 19.75 10 19.75C15.385 19.75 19.75 15.385 19.75 10C19.75 4.615 15.385 0.25 10 0.25ZM1.75 10C1.75055 8.26184 2.30007 6.56827 3.32014 5.16092C4.34022 3.75357 5.77873 2.70436 7.43042 2.16298C9.08212 1.62161 10.8626 1.61574 12.5178 2.14621C14.1731 2.67668 15.6185 3.71639 16.6478 5.11699C17.6771 6.51758 18.2378 8.2075 18.2498 9.94561C18.2618 11.6837 17.7245 13.3812 16.7147 14.7959C15.7048 16.2106 14.2739 17.2702 12.6262 17.8235C10.9784 18.3768 9.19802 18.3955 7.539 17.877C7.96163 17.2132 8.29769 16.498 8.539 15.749L9.055 13.772C9.26839 14.0766 9.55453 14.3231 9.88739 14.489C10.2203 14.6549 10.5893 14.735 10.961 14.722C13.496 14.722 15.278 12.418 15.278 9.556C15.278 6.807 13.033 4.753 10.154 4.753C6.567 4.753 4.662 7.163 4.662 9.782C4.662 11.005 5.309 12.519 6.348 13.006C6.502 13.077 6.603 13.006 6.627 12.893C6.651 12.78 6.793 12.211 6.858 11.949C6.86807 11.9077 6.86796 11.8645 6.85768 11.8232C6.8474 11.782 6.82727 11.7438 6.799 11.712C6.40637 11.159 6.19848 10.4962 6.205 9.818C6.20292 9.33116 6.29967 8.84897 6.48938 8.40061C6.67909 7.95226 6.95781 7.54706 7.30868 7.20957C7.65955 6.87207 8.07526 6.60928 8.53064 6.43713C8.98603 6.26497 9.47161 6.18702 9.958 6.208C10.4135 6.18135 10.8695 6.24994 11.297 6.40938C11.7245 6.56883 12.1141 6.81562 12.4408 7.13403C12.7676 7.45244 13.0244 7.83547 13.1949 8.25868C13.3654 8.68189 13.4458 9.13598 13.431 9.592C13.431 11.836 12.291 13.398 10.819 13.398C10.6288 13.4125 10.438 13.381 10.2625 13.3061C10.0871 13.2312 9.9323 13.1153 9.81117 12.9679C9.69004 12.8206 9.60616 12.6463 9.56662 12.4597C9.52708 12.2731 9.53304 12.0798 9.584 11.896C9.668 11.546 9.78 11.185 9.888 10.833C10.085 10.195 10.273 9.588 10.273 9.129C10.2935 8.97979 10.2815 8.82792 10.2378 8.68378C10.1942 8.53964 10.1199 8.40662 10.0201 8.29382C9.92033 8.18102 9.79736 8.0911 9.65961 8.0302C9.52186 7.96931 9.37259 7.93888 9.222 7.941C8.39 7.941 7.719 8.808 7.719 9.96C7.713 10.367 7.789 10.771 7.945 11.148L6.965 15.304C6.84521 16.0895 6.84521 16.8885 6.965 17.674C6.31914 17.4181 5.70829 17.0814 5.147 16.672C3.7691 15.6657 2.73426 14.2597 2.183 12.645C1.89528 11.7929 1.74902 10.8994 1.75 10Z" fill="#1A1A1A"/>
</svg>
