<svg width="61" height="61" viewBox="0 0 61 61" fill="none" xmlns="http://www.w3.org/2000/svg">
<rect width="61" height="61" rx="8" fill="white"/>
<path fill-rule="evenodd" clip-rule="evenodd" d="M24.8214 31.1783C24.509 30.8657 24.3334 30.4419 24.3334 29.9999C24.3334 29.558 24.509 29.1342 24.8214 28.8216L34.2498 19.3933C34.4035 19.2341 34.5874 19.1071 34.7907 19.0198C34.9941 18.9324 35.2128 18.8864 35.4341 18.8845C35.6554 18.8826 35.8748 18.9248 36.0797 19.0086C36.2845 19.0924 36.4706 19.2161 36.6271 19.3726C36.7836 19.5291 36.9073 19.7152 36.9911 19.92C37.0749 20.1248 37.1171 20.3443 37.1152 20.5656C37.1132 20.7869 37.0673 21.0056 36.9799 21.209C36.8926 21.4123 36.7656 21.5962 36.6064 21.7499L28.3564 29.9999L36.6064 38.2499C36.91 38.5643 37.078 38.9853 37.0742 39.4223C37.0704 39.8593 36.8951 40.2773 36.5861 40.5863C36.2771 40.8953 35.8591 41.0706 35.4221 41.0744C34.9851 41.0782 34.5641 40.9102 34.2498 40.6066L24.8214 31.1783Z" fill="#373737"/>
</svg>
