<svg width="67" height="38" viewBox="0 0 67 38" fill="none" xmlns="http://www.w3.org/2000/svg">
<path d="M33.1262 25.9082H33.3417C33.8669 25.9082 34.3884 25.8593 34.8987 25.7548C35.7262 25.5866 36.494 25.2983 37.2002 24.8862C35.9912 25.5377 34.6039 25.9082 33.1262 25.9082ZM33.7914 8.98075C33.6822 8.97705 33.5721 8.97705 33.463 8.97705C34.9295 9.03712 36.3009 9.45668 37.4838 10.1562C36.3615 9.43727 35.1254 9.04082 33.7914 8.98075ZM33.7083 23.6923C33.2587 23.7708 32.8128 23.8087 32.3594 23.8124C32.4536 23.8161 32.5515 23.8198 32.6467 23.8198C33.8669 23.8198 35.0088 23.4825 35.9837 22.8948C35.2812 23.2801 34.5246 23.55 33.7083 23.6923ZM32.6467 11.0581C32.5935 11.0581 32.5413 11.0581 32.4881 11.0618C32.5749 11.0655 32.6579 11.0692 32.7409 11.0729C33.8296 11.1099 34.8493 11.3908 35.8018 11.8778C34.8679 11.3575 33.7914 11.0581 32.6458 11.0581H32.6467Z" fill="white"/>
<path d="M37.4818 10.1558C36.2989 9.4553 34.9275 9.03666 33.461 8.97659C33.3518 8.97659 33.2417 8.9729 33.1279 8.9729H33.1205C30.8414 8.9692 28.5707 8.9729 26.2954 8.9729H19.2361C19.0392 8.9729 18.8433 8.9692 18.6465 8.9729C18.3256 8.9729 18.3256 8.97659 18.3218 9.29448V23.2381C18.3218 23.3693 18.3218 23.5005 18.3181 23.6271C18.3181 23.665 18.3106 23.7057 18.2995 23.7436C18.292 23.7658 18.2659 23.7925 18.2425 23.7999C18.167 23.811 18.0877 23.8184 18.0121 23.8184C16.4971 23.8184 14.9811 23.8221 13.4624 23.8147C12.703 23.8147 11.9511 23.7288 11.2066 23.5791C9.4005 23.2085 7.75673 22.4711 6.29394 21.3557C5.80603 20.9814 5.34891 20.585 4.95243 20.1128C3.99993 18.9864 3.27787 17.7397 2.79089 16.3545C2.40934 15.2835 2.19757 14.1838 2.12947 13.0527C2.12573 13.0001 2.12573 12.952 2.12947 12.8994C2.16305 12.4198 2.2013 11.9411 2.28433 11.4698C2.43919 10.6122 2.67708 9.78148 3.00639 8.97659C3.55027 7.65515 4.31805 6.47601 5.2892 5.4244C5.3685 5.33476 5.45153 5.25992 5.54202 5.17767C6.61486 4.212 7.82856 3.45979 9.18127 2.93121C10.5685 2.38507 12.0117 2.11892 13.5006 2.08935H19.8761C20.0085 2.08935 20.1373 2.08937 20.2688 2.08567C20.363 2.08567 20.4199 2.03668 20.4237 1.95074C20.4274 1.87589 20.4274 1.79734 20.4274 1.71879C20.4311 1.28077 20.4274 0.839075 20.4311 0.39736C20.4311 -0.00646677 20.4349 0.000922286 20.0113 0.000922286C17.9067 0.000922286 14.7619 -0.00277046 12.6573 0.00462225C12.2001 0.00462225 11.7393 0.0267986 11.285 0.072079C10.5144 0.14693 9.76247 0.300324 9.02547 0.528574C7.20818 1.09042 5.61292 2.02192 4.23409 3.32119C4.0074 3.53835 3.7919 3.76289 3.56893 3.97636C2.39721 5.13702 1.49416 6.47323 0.878444 7.99705C0.410128 9.1614 0.126526 10.3591 0.0397665 11.613C-0.00221408 12.1971 -0.00221442 12.7774 0.00151719 13.3577C0.00524879 14.1136 0.0658868 14.8584 0.202091 15.6042C0.395201 16.6558 0.727315 17.6594 1.18817 18.6213C1.78149 19.8458 2.56793 20.938 3.53908 21.9009L4.0074 22.3685C5.12595 23.4876 6.41428 24.3526 7.87334 24.9661C8.96577 25.4226 10.103 25.7147 11.2784 25.8385C11.785 25.8912 12.2953 25.917 12.8093 25.917C14.4531 25.9133 16.1006 25.9133 17.7481 25.9133H18.1035C18.2771 25.917 18.3116 25.9503 18.319 26.112C18.3228 26.2432 18.3228 26.3707 18.3228 26.501V37.4949C18.3228 37.6372 18.3302 37.7795 18.3377 37.9219C18.3377 37.944 18.3676 37.9708 18.3909 37.9782C18.4245 37.9893 18.4627 37.9967 18.5 37.9967C19.0784 37.9967 19.6531 38.0041 20.2306 37.9967C20.3892 37.9967 20.4237 37.9551 20.4274 37.7832C20.4311 37.652 20.4311 37.5245 20.4311 37.3905V26.5158C20.4311 26.3735 20.4311 26.2312 20.4349 26.0852C20.4349 25.9614 20.4806 25.9207 20.5935 25.917C20.7371 25.9133 20.8808 25.9133 21.0282 25.9133H31.417C31.9879 25.9096 32.5579 25.9133 33.1251 25.9096C34.6028 25.9096 35.9901 25.5391 37.1991 24.8876C37.2635 24.8543 37.3241 24.8201 37.3838 24.7795C39.9456 23.3231 41.6733 20.5832 41.6733 17.4422C41.6733 14.3012 39.9913 11.6325 37.4827 10.1576L37.4818 10.1558ZM36.0003 22.8832C36.0003 22.8832 35.9891 22.8906 35.9817 22.8943C35.0068 23.482 33.8649 23.8193 32.6447 23.8193C32.5505 23.8193 32.4525 23.8156 32.3574 23.8119C32.3116 23.8156 32.2706 23.8156 32.2249 23.8156C30.6492 23.8156 29.0773 23.8156 27.5044 23.8193H20.9368C20.8043 23.8193 20.6765 23.8156 20.544 23.8119C20.4983 23.8082 20.4498 23.7519 20.4461 23.7075C20.4386 23.6659 20.4311 23.629 20.4311 23.5911V11.5936C20.4311 11.4513 20.4386 11.309 20.4461 11.1667C20.4461 11.1214 20.4992 11.0733 20.5515 11.0733C20.6532 11.0697 20.7558 11.0586 20.8649 11.0586H32.2286C32.3154 11.0586 32.3984 11.0586 32.4814 11.0623H32.4852C32.5383 11.0586 32.5906 11.0586 32.6438 11.0586C33.7884 11.0586 34.8659 11.358 35.7998 11.8782C37.7607 12.9714 39.0836 15.0525 39.0836 17.4413C39.0836 19.83 37.8512 21.7651 36.0003 22.8841V22.8832Z" fill="white"/>
<path d="M51.3583 2.08843C56.4053 2.08843 61.4524 2.08843 66.4984 2.08843C66.6421 2.08843 66.7858 2.08104 66.9285 2.07088C66.9481 2.06995 66.977 2.0404 66.9826 2.01822C66.9947 1.96832 67.0003 1.91563 67.0003 1.86481C67.0013 1.32052 67.0003 0.777161 67.0003 0.232872C67.0003 0.194061 66.9947 0.155249 66.9919 0.117361C66.9891 0.0748531 66.9322 0.0129255 66.8921 0.0110773C66.7484 0.0064569 66.6048 0 66.4611 0C53.7391 0 41.0181 0 28.2961 0C28.1785 0 28.061 3.61001e-06 27.9434 0.00369997C27.9052 0.00462406 27.8651 0.0120159 27.8296 0.0258772C27.8082 0.034194 27.783 0.0563776 27.7774 0.0776317C27.7643 0.126608 27.755 0.179273 27.755 0.230098C27.7531 0.774386 27.7541 1.31774 27.755 1.86203C27.755 1.90084 27.7596 1.93966 27.7634 1.97847C27.7671 2.02652 27.8147 2.07643 27.8641 2.07828C28.0209 2.08382 28.1776 2.08935 28.3343 2.08935C34.6883 2.08935 41.0432 2.08935 47.3972 2.08935C48.7182 2.08935 50.0383 2.08935 51.3593 2.08935L51.3583 2.08843Z" fill="white"/>
<path d="M44.6655 25.3514C44.6655 25.4678 44.6655 25.5842 44.6683 25.7006C44.6693 25.7385 44.673 25.7801 44.6898 25.8134C44.7057 25.8448 44.7355 25.8809 44.7672 25.892C44.8148 25.9086 44.8699 25.9077 44.9221 25.9077C45.4445 25.9086 45.9679 25.9077 46.4903 25.9077C46.5425 25.9077 46.5948 25.9021 46.6461 25.8975C46.6881 25.8938 46.7431 25.8374 46.7468 25.794C46.7506 25.7552 46.7562 25.7173 46.7562 25.6785C46.758 25.4586 46.7599 25.2386 46.7599 25.0187C46.7599 21.4203 46.7599 17.3007 46.7599 13.7023C46.7599 13.0757 46.6955 13.1506 47.3318 13.1506C50.7817 13.1487 54.2325 13.1506 57.6823 13.1497C57.8129 13.1497 57.9435 13.1497 58.0741 13.146C58.1917 13.1432 58.2486 13.0933 58.2486 12.9861C58.2495 12.4039 58.2495 11.8208 58.2486 11.2386C58.2486 11.1241 58.1945 11.0705 58.0844 11.0668C57.9669 11.0622 57.8493 11.0622 57.7318 11.0622C53.5496 11.0622 49.3674 11.0612 45.1861 11.0622C44.6198 11.0622 44.6655 11.0113 44.6646 11.5907C44.6646 13.8039 44.6646 16.5383 44.6646 18.7515C44.6646 20.9518 44.6646 23.152 44.6646 25.3523L44.6655 25.3514Z" fill="white"/>
</svg>
