<svg width="262" height="114" viewBox="0 0 262 114" fill="none" xmlns="http://www.w3.org/2000/svg">
<g filter="url(#filter0_d_1740_4802)">
<path d="M4 10.6C4 4.74578 8.75152 0 14.6128 0H247.387C253.248 0 258 4.74578 258 10.6V95.4C258 101.254 253.248 106 247.387 106H14.6128C8.75152 106 4 101.254 4 95.4V10.6Z" fill="url(#paint0_linear_1740_4802)" shape-rendering="crispEdges"/>
<path d="M4.5 10.6C4.5 5.0225 9.02709 0.5 14.6128 0.5H247.387C252.973 0.5 257.5 5.02249 257.5 10.6V95.4C257.5 100.978 252.973 105.5 247.387 105.5H14.6128C9.02709 105.5 4.5 100.978 4.5 95.4V10.6Z" stroke="url(#paint1_linear_1740_4802)" shape-rendering="crispEdges"/>
</g>
<path d="M124.945 50.7947C127.297 51.9706 129.084 53.5084 130.305 55.408C131.571 57.3075 132.205 59.5011 132.205 61.9886C132.205 64.9285 131.368 67.5065 129.694 69.7226C128.021 71.8936 125.669 73.5896 122.639 74.8108C119.609 75.9867 116.103 76.5747 112.123 76.5747C108.143 76.5747 104.638 75.9867 101.608 74.8108C98.6227 73.5896 96.2935 71.8936 94.62 69.7226C92.9918 67.5065 92.1777 64.9285 92.1777 61.9886C92.1777 59.5011 92.7883 57.3075 94.0095 55.408C95.2759 53.5084 97.0624 51.9706 99.369 50.7947C97.6051 49.7092 96.2483 48.3524 95.2985 46.7242C94.3487 45.0507 93.8738 43.1512 93.8738 41.0254C93.8738 38.2665 94.6427 35.8694 96.1804 33.8342C97.7182 31.7989 99.8665 30.2386 102.625 29.1531C105.384 28.0224 108.55 27.457 112.123 27.457C115.742 27.457 118.93 28.0224 121.689 29.1531C124.493 30.2386 126.664 31.7989 128.202 33.8342C129.74 35.8694 130.509 38.2665 130.509 41.0254C130.509 43.1512 130.034 45.0507 129.084 46.7242C128.134 48.3524 126.755 49.7092 124.945 50.7947ZM112.123 35.5302C109.907 35.5302 108.121 36.073 106.764 37.1584C105.452 38.1987 104.796 39.646 104.796 41.5003C104.796 43.3095 105.452 44.7341 106.764 45.7744C108.075 46.8146 109.862 47.3348 112.123 47.3348C114.385 47.3348 116.194 46.8146 117.551 45.7744C118.908 44.7341 119.586 43.3095 119.586 41.5003C119.586 39.646 118.908 38.1987 117.551 37.1584C116.194 36.073 114.385 35.5302 112.123 35.5302ZM112.123 68.5015C114.882 68.5015 117.053 67.8909 118.636 66.6697C120.264 65.4034 121.078 63.7299 121.078 61.6494C121.078 59.5689 120.264 57.9181 118.636 56.697C117.053 55.4758 114.882 54.8652 112.123 54.8652C109.41 54.8652 107.261 55.4758 105.678 56.697C104.095 57.9181 103.304 59.5689 103.304 61.6494C103.304 63.7751 104.095 65.4486 105.678 66.6697C107.261 67.8909 109.41 68.5015 112.123 68.5015Z" fill="white"/>
<path d="M82.3092 76.3034C80.4548 76.3034 78.8945 75.6703 77.6281 74.4039C76.3617 73.1375 75.7285 71.5545 75.7285 69.6549C75.7285 67.7101 76.3617 66.1498 77.6281 64.9738C78.8945 63.7527 80.4548 63.1421 82.3092 63.1421C84.1635 63.1421 85.7239 63.7527 86.9903 64.9738C88.2567 66.1498 88.8899 67.7101 88.8899 69.6549C88.8899 71.5545 88.2567 73.1375 86.9903 74.4039C85.7239 75.6703 84.1635 76.3034 82.3092 76.3034Z" fill="white"/>
<path d="M73.4904 65.7877H65.7564V75.7604H55.0374V65.7877H29.4609V58.3929L51.8488 28.271H63.382L42.6223 56.8325H55.3766V47.9452H65.7564V56.8325H73.4904V65.7877Z" fill="white"/>
<path d="M219.521 60.9837V67.3863C219.521 70.0435 218.164 71.372 215.45 71.372C214.725 71.372 214.037 71.2778 213.387 71.0894C212.737 70.9103 212.2 70.6465 211.776 70.2979L212.567 68.9693C212.897 69.2426 213.312 69.4593 213.811 69.6195C214.32 69.7891 214.833 69.8739 215.352 69.8739C216.181 69.8739 216.788 69.6854 217.175 69.3085C217.561 68.9316 217.754 68.3568 217.754 67.5842V67.1885C217.453 67.5182 217.085 67.7679 216.652 67.9375C216.218 68.1071 215.743 68.1919 215.224 68.1919C214.508 68.1919 213.858 68.0412 213.274 67.7397C212.699 67.4287 212.242 66.9953 211.903 66.4394C211.573 65.8834 211.408 65.2474 211.408 64.5313C211.408 63.8152 211.573 63.1839 211.903 62.6374C212.242 62.0815 212.699 61.6527 213.274 61.3512C213.858 61.0497 214.508 60.8989 215.224 60.8989C215.771 60.8989 216.266 60.9884 216.708 61.1675C217.161 61.3465 217.538 61.6197 217.839 61.9872V60.9837H219.521ZM215.493 66.6938C216.162 66.6938 216.708 66.4959 217.132 66.1002C217.566 65.695 217.783 65.172 217.783 64.5313C217.783 63.9 217.566 63.3865 217.132 62.9907C216.708 62.595 216.162 62.3971 215.493 62.3971C214.814 62.3971 214.259 62.595 213.825 62.9907C213.401 63.3865 213.189 63.9 213.189 64.5313C213.189 65.172 213.401 65.695 213.825 66.1002C214.259 66.4959 214.814 66.6938 215.493 66.6938Z" fill="white"/>
<path d="M206.993 60.8989C207.945 60.8989 208.708 61.1769 209.283 61.7328C209.858 62.2887 210.145 63.1132 210.145 64.2062V68.5312H208.379V64.4324C208.379 63.7728 208.223 63.2781 207.912 62.9483C207.601 62.6091 207.158 62.4395 206.584 62.4395C205.933 62.4395 205.42 62.6374 205.043 63.0331C204.666 63.4194 204.478 63.9801 204.478 64.715V68.5312H202.711V60.9837H204.393V61.959C204.685 61.6103 205.052 61.3465 205.495 61.1675C205.938 60.9884 206.438 60.8989 206.993 60.8989Z" fill="white"/>
<path d="M199.049 60.9835H200.816V68.5309H199.049V60.9835ZM199.939 59.7397C199.619 59.7397 199.35 59.6408 199.134 59.4429C198.917 59.2356 198.809 58.9812 198.809 58.6797C198.809 58.3781 198.917 58.1284 199.134 57.9306C199.35 57.7233 199.619 57.6196 199.939 57.6196C200.26 57.6196 200.528 57.7186 200.745 57.9164C200.962 58.1049 201.07 58.3452 201.07 58.6373C201.07 58.9482 200.962 59.212 200.745 59.4288C200.538 59.636 200.269 59.7397 199.939 59.7397Z" fill="white"/>
<path d="M198.021 68.1208C197.814 68.2904 197.559 68.4176 197.258 68.5024C196.966 68.5872 196.655 68.6296 196.325 68.6296C195.496 68.6296 194.855 68.4129 194.403 67.9794C193.95 67.546 193.724 66.9147 193.724 66.0855V62.4531H192.48V61.0397H193.724V59.3154H195.491V61.0397H197.512V62.4531H195.491V66.0431C195.491 66.4106 195.58 66.6933 195.76 66.8911C195.939 67.0796 196.198 67.1738 196.537 67.1738C196.933 67.1738 197.262 67.0702 197.526 66.8629L198.021 68.1208Z" fill="white"/>
<path d="M188.206 60.8989C189.317 60.8989 190.165 61.1675 190.75 61.7046C191.343 62.2322 191.64 63.0331 191.64 64.1073V68.5312H189.972V67.6125C189.756 67.9423 189.445 68.1967 189.039 68.3757C188.644 68.5453 188.163 68.6301 187.598 68.6301C187.032 68.6301 186.538 68.5359 186.114 68.3474C185.69 68.1495 185.36 67.881 185.124 67.5418C184.898 67.1932 184.785 66.8021 184.785 66.3687C184.785 65.6903 185.035 65.1485 185.534 64.7433C186.043 64.3287 186.839 64.1214 187.923 64.1214H189.873V64.0084C189.873 63.4807 189.713 63.0755 189.393 62.7928C189.082 62.5102 188.615 62.3688 187.994 62.3688C187.57 62.3688 187.15 62.4348 186.736 62.5667C186.33 62.6986 185.987 62.8824 185.704 63.1179L185.011 61.8318C185.407 61.5302 185.883 61.2994 186.439 61.1392C186.995 60.979 187.584 60.8989 188.206 60.8989ZM187.965 67.3439C188.408 67.3439 188.799 67.245 189.138 67.0471C189.487 66.8398 189.732 66.5477 189.873 66.1708V65.2945H188.05C187.032 65.2945 186.524 65.629 186.524 66.298C186.524 66.6184 186.651 66.8728 186.905 67.0612C187.16 67.2497 187.513 67.3439 187.965 67.3439Z" fill="white"/>
<path d="M182.12 68.5308L180.099 65.6334C180.014 65.6428 179.887 65.6476 179.717 65.6476H177.484V68.5308H175.646V58.6372H179.717C180.574 58.6372 181.319 58.7785 181.95 59.0612C182.591 59.3439 183.081 59.7491 183.42 60.2767C183.759 60.8044 183.929 61.431 183.929 62.1565C183.929 62.9009 183.745 63.5416 183.378 64.0787C183.02 64.6158 182.501 65.0162 181.823 65.2801L184.098 68.5308H182.12ZM182.077 62.1565C182.077 61.5252 181.87 61.0399 181.455 60.7007C181.041 60.3615 180.433 60.1919 179.632 60.1919H177.484V64.1352H179.632C180.433 64.1352 181.041 63.9656 181.455 63.6264C181.87 63.2778 182.077 62.7878 182.077 62.1565Z" fill="white"/>
<path d="M166.498 68.6724C165.707 68.6724 165 68.4745 164.378 68.0788C163.756 67.6736 163.266 67.0894 162.908 66.3262C162.55 65.5536 162.371 64.6396 162.371 63.5842C162.371 62.5289 162.55 61.6197 162.908 60.8564C163.266 60.0838 163.756 59.4996 164.378 59.1038C165 58.6987 165.707 58.4961 166.498 58.4961C167.29 58.4961 167.996 58.6987 168.618 59.1038C169.25 59.4996 169.744 60.0838 170.102 60.8564C170.46 61.6197 170.639 62.5289 170.639 63.5842C170.639 64.6396 170.46 65.5536 170.102 66.3262C169.744 67.0894 169.25 67.6736 168.618 68.0788C167.996 68.4745 167.29 68.6724 166.498 68.6724ZM166.498 67.0753C167.205 67.0753 167.761 66.7832 168.166 66.199C168.581 65.6148 168.788 64.7432 168.788 63.5842C168.788 62.4253 168.581 61.5537 168.166 60.9695C167.761 60.3853 167.205 60.0932 166.498 60.0932C165.801 60.0932 165.245 60.3853 164.83 60.9695C164.425 61.5537 164.223 62.4253 164.223 63.5842C164.223 64.7432 164.425 65.6148 164.83 66.199C165.245 66.7832 165.801 67.0753 166.498 67.0753Z" fill="white"/>
<path d="M161.776 66.9764V68.5311H154.483V67.3014L158.412 63.5701C158.855 63.1461 159.152 62.7786 159.303 62.4677C159.463 62.1473 159.543 61.8317 159.543 61.5207C159.543 61.059 159.388 60.7057 159.077 60.4607C158.766 60.2157 158.309 60.0932 157.706 60.0932C156.697 60.0932 155.925 60.4371 155.388 61.125L154.102 60.1356C154.488 59.6174 155.006 59.2169 155.656 58.9342C156.316 58.6421 157.051 58.4961 157.861 58.4961C158.935 58.4961 159.793 58.7505 160.433 59.2593C161.074 59.7681 161.395 60.4607 161.395 61.337C161.395 61.8741 161.282 62.3782 161.055 62.8493C160.829 63.3204 160.396 63.8575 159.755 64.4605L157.112 66.9764H161.776Z" fill="white"/>
<path d="M153.072 58.6372V68.5308H151.234V60.1778H149.143V58.6372H153.072Z" fill="white"/>
<path d="M155 35L156.889 40.3475H163L158.056 43.6525L159.944 49L155 45.695L150.056 49L151.944 43.6525L147 40.3475H153.111L155 35Z" fill="#FFC000"/>
<path d="M177.5 35L179.271 40.3475H185L180.365 43.6525L182.135 49L177.5 45.695L172.865 49L174.635 43.6525L170 40.3475H175.729L177.5 35Z" fill="#FFC000"/>
<path d="M199.5 35L201.271 40.3475H207L202.365 43.6525L204.135 49L199.5 45.695L194.865 49L196.635 43.6525L192 40.3475H197.729L199.5 35Z" fill="#FFC000"/>
<path d="M221.5 35L223.271 40.3475H229L224.365 43.6525L226.135 49L221.5 45.695L216.865 49L218.635 43.6525L214 40.3475H219.729L221.5 35Z" fill="#FFC000"/>
<defs>
<filter id="filter0_d_1740_4802" x="0" y="0" width="262" height="114" filterUnits="userSpaceOnUse" color-interpolation-filters="sRGB">
<feFlood flood-opacity="0" result="BackgroundImageFix"/>
<feColorMatrix in="SourceAlpha" type="matrix" values="0 0 0 0 0 0 0 0 0 0 0 0 0 0 0 0 0 0 127 0" result="hardAlpha"/>
<feOffset dy="4"/>
<feGaussianBlur stdDeviation="2"/>
<feComposite in2="hardAlpha" operator="out"/>
<feColorMatrix type="matrix" values="0 0 0 0 0 0 0 0 0 0 0 0 0 0 0 0 0 0 0.25 0"/>
<feBlend mode="normal" in2="BackgroundImageFix" result="effect1_dropShadow_1740_4802"/>
<feBlend mode="normal" in="SourceGraphic" in2="effect1_dropShadow_1740_4802" result="shape"/>
</filter>
<linearGradient id="paint0_linear_1740_4802" x1="131" y1="0" x2="131" y2="106" gradientUnits="userSpaceOnUse">
<stop stop-color="#292929"/>
<stop offset="1" stop-color="white" stop-opacity="0.25"/>
</linearGradient>
<linearGradient id="paint1_linear_1740_4802" x1="131" y1="0" x2="131" y2="106" gradientUnits="userSpaceOnUse">
<stop offset="1" stop-color="white"/>
<stop offset="1" stop-color="#999999"/>
</linearGradient>
</defs>
</svg>
