<svg width="1241" height="58" viewBox="0 0 1241 58" fill="none" xmlns="http://www.w3.org/2000/svg">
<path d="M1081.14 38.2857C1081.75 38.0225 1082.29 37.659 1082.78 37.1952L1085.09 40.8929C1084.32 41.6324 1083.41 42.1965 1082.32 42.5725C1081.23 42.9485 1080.05 43.1366 1078.76 43.1366C1074.71 43.1366 1071.69 41.4068 1069.68 37.9473C1067.19 37.4209 1065.25 36.3178 1063.83 34.6257C1062.41 32.9335 1061.71 30.8904 1061.71 28.4964C1061.71 25.9644 1062.3 23.6831 1063.47 21.6651C1064.63 19.6345 1066.27 18.0552 1068.37 16.9271C1070.46 15.7865 1072.85 15.2224 1075.52 15.2224C1077.75 15.2224 1079.71 15.636 1081.36 16.4508C1083.02 17.2781 1084.3 18.4187 1085.19 19.8977C1086.09 21.3768 1086.53 23.0564 1086.53 24.9617C1086.53 27.0298 1086.13 28.9351 1085.34 30.6773C1084.55 32.4196 1083.43 33.8862 1082 35.0895C1080.57 36.2928 1078.88 37.1576 1076.94 37.6841C1077.25 38.0476 1077.6 38.2983 1077.97 38.4612C1078.33 38.6242 1078.77 38.6994 1079.28 38.6994C1079.9 38.6994 1080.51 38.5615 1081.11 38.2983M1071.31 21.452C1070.26 22.1539 1069.44 23.0815 1068.88 24.2472C1068.32 25.4129 1068.03 26.7039 1068.03 28.1203C1068.03 29.6244 1068.49 30.8152 1069.41 31.7052C1070.32 32.6076 1071.6 33.0463 1073.25 33.0463C1074.65 33.0463 1075.87 32.6954 1076.93 32.006C1077.98 31.3041 1078.8 30.3765 1079.36 29.2108C1079.92 28.0451 1080.21 26.7541 1080.21 25.3377C1080.21 23.8461 1079.75 22.6428 1078.83 21.7529C1077.92 20.8629 1076.64 20.4117 1074.98 20.4117C1073.59 20.4117 1072.37 20.7626 1071.31 21.452Z" fill="#A6A6A6"/>
<path d="M1104.85 22.0663L1101.72 37.7969H1096.49L1096.81 36.1675C1096.13 36.8067 1095.37 37.283 1094.53 37.5838C1093.69 37.8972 1092.82 38.0476 1091.93 38.0476C1090.21 38.0476 1088.84 37.5839 1087.82 36.6563C1086.8 35.7288 1086.29 34.4001 1086.29 32.6829C1086.29 32.0436 1086.35 31.3919 1086.49 30.7401L1088.23 22.0663H1093.75L1092.12 30.2262C1092.04 30.5897 1092.01 30.9531 1092.01 31.3041C1092.01 32.6829 1092.71 33.3598 1094.12 33.3598C1095.08 33.3598 1095.85 33.0589 1096.48 32.4698C1097.1 31.8807 1097.52 31.0033 1097.76 29.8376L1099.33 22.0537H1104.84L1104.85 22.0663Z" fill="#A6A6A6"/>
<path d="M1106.17 22.0661H1111.66L1108.53 37.7967H1103.04L1106.17 22.0661ZM1107.39 19.5466C1106.81 19.0202 1106.52 18.3809 1106.52 17.6038C1106.52 16.6888 1106.85 15.9493 1107.5 15.3602C1108.15 14.771 1109 14.4702 1110.07 14.4702C1111.03 14.4702 1111.81 14.7209 1112.39 15.2097C1112.96 15.6986 1113.27 16.3378 1113.27 17.115C1113.27 18.0676 1112.94 18.8322 1112.27 19.4338C1111.61 20.0355 1110.76 20.3363 1109.69 20.3363C1108.74 20.3363 1107.98 20.0731 1107.4 19.5466" fill="#A6A6A6"/>
<path d="M1114.28 37.1829C1113.03 36.5938 1112.06 35.754 1111.37 34.676C1110.68 33.598 1110.34 32.332 1110.34 30.9031C1110.34 29.1859 1110.76 27.6317 1111.6 26.2529C1112.42 24.8741 1113.59 23.7961 1115.08 23.0065C1116.57 22.2168 1118.24 21.8157 1120.11 21.8157C1121.98 21.8157 1123.43 22.1917 1124.72 22.9312C1126.01 23.6708 1126.96 24.7237 1127.57 26.0774L1122.87 28.3085C1122.29 26.9172 1121.27 26.2153 1119.82 26.2153C1118.69 26.2153 1117.78 26.6164 1117.05 27.4311C1116.32 28.2458 1115.96 29.2862 1115.96 30.5647C1115.96 31.4923 1116.22 32.2318 1116.76 32.7833C1117.29 33.3348 1118.05 33.6106 1119.04 33.6106C1119.78 33.6106 1120.42 33.4476 1120.99 33.1217C1121.55 32.7958 1122.03 32.2694 1122.44 31.5549L1126.48 33.9991C1125.72 35.2776 1124.66 36.2679 1123.29 36.9948C1121.93 37.7218 1120.38 38.0728 1118.67 38.0728C1116.95 38.0728 1115.55 37.772 1114.29 37.1829" fill="#A6A6A6"/>
<path d="M1137.87 29.0355L1143.15 37.797H1136.7L1133.48 32.4323L1131.21 34.4002L1130.55 37.797H1125.03L1129.33 16.2629H1134.85L1132.62 27.4436L1138.97 22.0664H1145.94L1137.87 29.0355Z" fill="#A6A6A6"/>
<path d="M1176.69 35.4781H1171.94L1170.71 41.5949H1161.95L1163.19 35.4781H1146.3L1147.45 29.587L1165.42 9.65723H1175.13L1158.66 28.3084H1165.01L1166.11 22.881H1174.46L1173.35 28.3084H1178.14L1176.69 35.4781Z" fill="#A6A6A6"/>
<path d="M1207.17 31.4296C1207.17 33.6481 1206.57 35.5659 1205.35 37.1954C1204.14 38.8249 1202.44 40.0783 1200.26 40.9557C1198.08 41.8331 1195.58 42.2718 1192.74 42.2718C1189.91 42.2718 1187.67 41.8833 1185.62 41.1187C1183.58 40.3541 1182 39.2636 1180.87 37.8722C1179.74 36.4684 1179.19 34.8515 1179.19 33.0089C1179.19 30.9533 1179.74 29.1483 1180.84 27.6191C1181.93 26.0774 1183.47 24.8866 1185.47 24.0217C1183.87 22.6053 1183.08 20.8756 1183.08 18.8074C1183.08 16.7392 1183.64 14.9593 1184.76 13.4301C1185.87 11.9135 1187.45 10.7352 1189.46 9.92051C1191.48 9.10577 1193.77 8.69214 1196.35 8.69214C1198.93 8.69214 1200.99 9.0431 1202.88 9.75756C1204.78 10.4595 1206.24 11.4748 1207.28 12.7784C1208.32 14.0819 1208.85 15.5861 1208.85 17.2782C1208.85 19.0581 1208.42 20.6249 1207.56 21.9786C1206.69 23.3323 1205.49 24.4228 1203.91 25.2501C1206.09 26.8545 1207.18 28.9101 1207.18 31.4296M1196.6 34.676C1197.54 33.8863 1198.01 32.8334 1198.01 31.5173C1198.01 30.3767 1197.61 29.4867 1196.79 28.8224C1195.98 28.1581 1194.87 27.8322 1193.49 27.8322C1191.95 27.8322 1190.71 28.2207 1189.76 29.0104C1188.81 29.7876 1188.33 30.853 1188.33 32.1691C1188.33 33.3097 1188.76 34.1997 1189.6 34.864C1190.44 35.5283 1191.54 35.8542 1192.89 35.8542C1194.44 35.8542 1195.66 35.4656 1196.6 34.676ZM1193.26 16.1C1192.52 16.7643 1192.15 17.6793 1192.15 18.845C1192.15 19.7976 1192.48 20.5497 1193.12 21.0761C1193.76 21.6151 1194.64 21.8783 1195.75 21.8783C1196.95 21.8783 1197.93 21.5399 1198.68 20.8631C1199.44 20.1862 1199.81 19.2837 1199.81 18.1431C1199.81 17.1905 1199.49 16.4509 1198.82 15.912C1198.16 15.373 1197.29 15.1098 1196.21 15.1098C1194.99 15.1098 1194 15.4356 1193.27 16.1" fill="#A6A6A6"/>
<path d="M1239.28 29.6371H1230.16L1228.38 38.5365H1220.07L1221.85 29.6371H1212.74L1214.29 21.753H1223.42L1225.2 12.8535H1233.51L1231.73 21.753H1240.85L1239.28 29.6371Z" fill="#A6A6A6"/>
<path d="M21.6078 19.4128C15.1168 19.4128 9.85156 24.6781 9.85156 31.1692C9.85156 37.6603 15.1168 42.9256 21.6078 42.9256C28.0989 42.9256 33.3641 37.6603 33.3641 31.1692C33.3641 24.6781 28.0989 19.4128 21.6078 19.4128ZM21.6078 38.7811C17.405 38.7811 13.996 35.3721 13.996 31.1692C13.996 26.9663 17.405 23.5573 21.6078 23.5573C25.8107 23.5573 29.2196 26.9663 29.2196 31.1692C29.2196 35.3721 25.8107 38.7811 21.6078 38.7811Z" fill="#A6A6A6"/>
<path d="M54.918 31.1692C54.918 31.8814 54.9763 32.5702 55.1048 33.2473C56.0154 38.3842 60.2766 42.3769 65.5534 42.8789C65.8336 42.9022 66.1255 42.9256 66.4174 42.9256C66.5108 42.9256 66.5925 42.9256 66.6859 42.9256C66.7909 42.9256 66.9077 42.9256 67.0128 42.9256H73.2937V38.6994H66.6976C63.9891 38.6994 61.444 37.3101 60.0898 34.9752C59.7746 34.4381 59.5294 33.8544 59.366 33.2473H78.267C78.3838 32.5702 78.4538 31.8814 78.4538 31.1692C78.4538 30.4571 78.3954 29.7682 78.267 29.0911C77.9051 27.0247 76.9828 25.1334 75.687 23.5924C74.5662 22.2614 73.1536 21.1757 71.5425 20.4519C70.0598 19.7864 68.4254 19.4128 66.6976 19.4128C60.907 19.4128 56.0971 23.5923 55.1281 29.0911C55.0114 29.7682 54.9413 30.4571 54.9413 31.1692H54.918ZM66.6742 23.5573C68.5188 23.5573 70.1999 24.2111 71.5191 25.2968C72.6983 26.2658 73.5739 27.5851 73.9941 29.0911H59.3426C60.2416 25.8923 63.1835 23.5573 66.6625 23.5573H66.6742Z" fill="#A6A6A6"/>
<path d="M53.0393 28.3323C53.0043 23.394 48.9299 19.4246 43.9916 19.4246C39.0532 19.4246 35.0605 23.429 35.0605 28.3557V42.9257H39.2284V35.9793C40.4659 36.7731 41.9252 37.2751 43.4779 37.3685L49.035 42.9257H54.9189L48.3111 36.3178C51.1481 34.7884 53.0743 31.788 53.0393 28.3323ZM45.124 33.1423C44.8088 33.2123 44.4702 33.2474 44.1316 33.2474C41.5049 33.2474 39.3801 31.1226 39.3801 28.4958C39.3801 28.1572 39.4152 27.8187 39.4852 27.5034C39.9405 25.3553 41.8551 23.7442 44.1433 23.7442C46.7701 23.7442 48.8949 25.869 48.8949 28.4958C48.8949 30.784 47.2838 32.687 45.1357 33.154L45.124 33.1423Z" fill="#A6A6A6"/>
<path d="M149.772 48.7512H34.918C34.918 51.5298 37.1712 53.7947 39.9614 53.7947H154.815C154.815 51.0161 152.562 48.7512 149.772 48.7512Z" fill="#A6A6A6"/>
<path d="M24.844 48.7512H22.8477C13.1578 48.7512 5.12576 40.9993 5.04404 31.3093C4.96232 21.5376 12.8426 13.5988 22.5909 13.5754H24.809C27.5875 13.5754 29.8524 11.3222 29.8524 8.53198H22.5909C10.0524 8.55533 -0.0927565 18.7707 0.000639717 31.3443C0.0940359 43.8129 10.4377 53.783 22.9061 53.783H29.8757C29.8757 51.0045 27.6226 48.7396 24.8323 48.7396L24.844 48.7512Z" fill="#A6A6A6"/>
<path d="M88.4828 35.4888H94.7987C96.7951 35.4888 98.4995 35.162 99.9355 34.5199C101.371 33.8661 102.469 32.9438 103.239 31.7529C104.01 30.5505 104.395 29.1262 104.395 27.4684C104.395 25.8106 104.01 24.3162 103.239 23.1254C102.469 21.9229 101.36 21.0122 99.9355 20.3701C98.4995 19.728 96.7951 19.4128 94.7987 19.4128H86.0078V42.9139H88.4945V35.5005L88.4828 35.4888ZM100.076 23.102C101.29 24.1294 101.909 25.5887 101.909 27.4684C101.909 29.348 101.301 30.7606 100.076 31.7763C98.8615 32.792 97.0753 33.3057 94.717 33.3057H88.4711V21.561H94.717C97.0636 21.561 98.8498 22.0746 100.076 23.102Z" fill="#A6A6A6"/>
<path d="M110.222 36.633H123.332L126.146 42.9139H128.761L118.02 19.4128H115.569L104.828 42.9139H107.408L110.222 36.633ZM116.783 21.9812L122.433 34.6132H111.121L116.771 21.9812H116.783Z" fill="#A6A6A6"/>
<path d="M148.814 41.4196C150.705 40.4273 152.176 39.038 153.227 37.2751C154.277 35.5123 154.803 33.4692 154.803 31.1693C154.803 28.8694 154.277 26.8263 153.227 25.0634C152.176 23.3006 150.705 21.9113 148.814 20.9189C146.923 19.9266 144.728 19.4246 142.218 19.4246H132.656V42.9257H142.218C144.728 42.9257 146.923 42.4237 148.814 41.4313V41.4196ZM135.131 40.7659V21.561H142.078C144.156 21.561 145.965 21.9696 147.495 22.7869C149.024 23.6041 150.215 24.7249 151.067 26.1609C151.919 27.5969 152.339 29.2663 152.339 31.1576C152.339 33.0489 151.919 34.695 151.067 36.1427C150.215 37.5904 149.024 38.7111 147.495 39.5283C145.965 40.3456 144.156 40.7542 142.078 40.7542H135.131V40.7659Z" fill="#A6A6A6"/>
<path d="M37.4168 11.7423C37.7087 11.5321 37.8488 11.2402 37.8488 10.855C37.8488 10.5631 37.7787 10.3296 37.627 10.1428C37.4752 9.95603 37.2767 9.82759 37.0199 9.75754C37.2067 9.66415 37.3468 9.53574 37.4518 9.37229C37.5569 9.20885 37.6153 8.99868 37.6153 8.76519C37.6153 8.40327 37.4752 8.12308 37.195 7.92461C36.9148 7.72614 36.5295 7.62109 36.0159 7.62109H34.0195V12.0575H36.1326C36.6813 12.0575 37.1133 11.9524 37.3935 11.7423H37.4168ZM34.6616 8.1231H35.9575C36.2844 8.1231 36.5295 8.18146 36.7047 8.29821C36.8798 8.41496 36.9732 8.59009 36.9732 8.82358C36.9732 9.05708 36.8798 9.23218 36.7047 9.34892C36.5295 9.46567 36.2844 9.52407 35.9575 9.52407H34.6616V8.09976V8.1231ZM34.6616 11.5321V10.0494H36.1209C36.8448 10.0494 37.2067 10.2946 37.2067 10.7966C37.2067 11.0534 37.1133 11.2402 36.9382 11.357C36.7514 11.4737 36.4828 11.5321 36.1209 11.5321H34.6616Z" fill="#A6A6A6"/>
<path d="M39.2609 12.6766C39.1559 12.7583 39.0391 12.7933 38.8873 12.7933C38.6539 12.7933 38.4554 12.7116 38.2803 12.5482L38.0234 13.0034C38.1285 13.1085 38.2569 13.1786 38.4087 13.237C38.5605 13.2953 38.7239 13.3187 38.8873 13.3187C39.1559 13.3187 39.3893 13.2486 39.5761 13.1085C39.7629 12.9684 39.9381 12.7233 40.0782 12.3847L41.7126 8.68384H41.1172L39.9614 11.369L38.7823 8.68384H38.1518L39.6345 12.0345L39.5295 12.2679C39.4477 12.4547 39.3543 12.5948 39.2609 12.6766Z" fill="#A6A6A6"/>
<path d="M44.8648 11.8009C45.2267 11.9994 45.6236 12.0928 46.0673 12.0928C46.4175 12.0928 46.7327 12.0344 47.0246 11.9177C47.3164 11.8009 47.5616 11.6258 47.7601 11.3923L47.3515 10.9953C47.0129 11.3456 46.5926 11.5324 46.1023 11.5324C45.7754 11.5324 45.4719 11.4624 45.2034 11.3106C44.9348 11.1588 44.7247 10.9603 44.5729 10.7035C44.4212 10.4466 44.3511 10.1548 44.3511 9.82788C44.3511 9.50099 44.4212 9.22079 44.5729 8.95228C44.7247 8.69543 44.9348 8.4853 45.2034 8.34521C45.4719 8.19344 45.7637 8.12339 46.1023 8.12339C46.6043 8.12339 47.0129 8.29852 47.3515 8.64876L47.7601 8.25183C47.5616 8.01833 47.3164 7.85488 47.0246 7.73814C46.7327 7.62139 46.4175 7.56299 46.0673 7.56299C45.6236 7.56299 45.2267 7.65639 44.8648 7.85486C44.5029 8.05332 44.2227 8.32186 44.0242 8.6721C43.8257 9.02234 43.7207 9.4076 43.7207 9.83956C43.7207 10.2715 43.8257 10.6568 44.0242 11.007C44.2227 11.3573 44.5029 11.6258 44.8648 11.8243V11.8009Z" fill="#A6A6A6"/>
<path d="M48.9889 11.8709C49.2575 12.0227 49.561 12.0928 49.8879 12.0928C50.2148 12.0928 50.5183 12.0227 50.7868 11.8709C51.0553 11.7192 51.2538 11.5207 51.4056 11.2639C51.5573 11.007 51.6274 10.7035 51.6274 10.3766C51.6274 10.0497 51.5573 9.74617 51.4056 9.48933C51.2538 9.23248 51.0437 9.02232 50.7868 8.88222C50.5183 8.74213 50.2265 8.6604 49.8879 8.6604C49.5493 8.6604 49.2575 8.73045 48.9889 8.88222C48.7204 9.02232 48.5103 9.23248 48.3585 9.48933C48.2068 9.74617 48.1367 10.0497 48.1367 10.3766C48.1367 10.7035 48.2068 11.007 48.3585 11.2639C48.5103 11.5207 48.7204 11.7308 48.9889 11.8709ZM48.9072 9.75782C49.0123 9.5827 49.1407 9.44262 49.3158 9.33755C49.4909 9.24415 49.6777 9.19746 49.8995 9.19746C50.1214 9.19746 50.3082 9.24415 50.4833 9.33755C50.6584 9.43095 50.7868 9.57103 50.8919 9.75782C50.9853 9.93294 51.032 10.1431 51.032 10.3766C51.032 10.6101 50.9853 10.8202 50.8919 10.9953C50.7985 11.1705 50.6584 11.3106 50.4833 11.4156C50.3082 11.5207 50.1214 11.5674 49.8995 11.5674C49.6777 11.5674 49.4909 11.5207 49.3158 11.4156C49.1407 11.3106 49.0123 11.1821 48.9072 10.9953C48.8022 10.8202 48.7555 10.6101 48.7555 10.3766C48.7555 10.1431 48.8022 9.93294 48.9072 9.75782Z" fill="#A6A6A6"/>
<path d="M53.0836 10.3768C53.0836 10.0148 53.177 9.73465 53.3638 9.53618C53.5506 9.33771 53.8075 9.24431 54.146 9.24431C54.2044 9.24431 54.2511 9.24431 54.2861 9.24431V8.64893C53.9942 8.64893 53.7374 8.69559 53.5273 8.80067C53.3171 8.90574 53.1654 9.04584 53.0603 9.24431V8.68395H52.4766V12.0463H53.0836V10.3768Z" fill="#A6A6A6"/>
<path d="M55.5475 11.8709C55.8277 12.011 56.1429 12.0928 56.4932 12.0928C56.7734 12.0928 57.0302 12.0461 57.252 11.9527C57.4738 11.8593 57.6723 11.7192 57.824 11.544L57.4855 11.1471C57.2403 11.4156 56.9134 11.5557 56.5165 11.5557C56.1896 11.5557 55.9094 11.4623 55.6876 11.2872C55.4658 11.1121 55.3374 10.8669 55.3023 10.5751H58.0342C58.0342 10.4933 58.0459 10.435 58.0459 10.3883C58.0459 10.0497 57.9758 9.74617 57.8357 9.48933C57.6956 9.23248 57.4972 9.02232 57.2403 8.88222C56.9835 8.74213 56.7033 8.6604 56.3764 8.6604C56.0495 8.6604 55.7693 8.73045 55.5125 8.88222C55.2556 9.02232 55.0572 9.23248 54.9054 9.48933C54.7536 9.74617 54.6836 10.0497 54.6836 10.3766C54.6836 10.7035 54.7536 11.007 54.9054 11.2639C55.0572 11.5207 55.2673 11.7308 55.5475 11.8709ZM55.6409 9.44262C55.8394 9.2675 56.0846 9.17409 56.3764 9.17409C56.6683 9.17409 56.9134 9.2675 57.1119 9.44262C57.3104 9.61774 57.4271 9.85123 57.4621 10.1314H55.3023C55.3374 9.83955 55.4541 9.60605 55.6526 9.43093L55.6409 9.44262Z" fill="#A6A6A6"/>
<path d="M59.4821 11.544C59.6222 11.7192 59.7973 11.8593 59.9958 11.9527C60.1942 12.0461 60.416 12.0928 60.6612 12.0928C60.9881 12.0928 61.28 12.0227 61.5368 11.8826C61.7936 11.7425 61.9921 11.5324 62.1439 11.2756C62.284 11.0187 62.3657 10.7151 62.3657 10.3766C62.3657 10.038 62.2957 9.73448 62.1439 9.47764C62.0038 9.2208 61.7936 9.02234 61.5368 8.87057C61.28 8.73048 60.9881 8.6604 60.6612 8.6604C60.416 8.6604 60.1825 8.70709 59.9724 8.80049C59.7623 8.89389 59.5988 9.034 59.4587 9.2208V8.68377H58.875V13.2719H59.4821V11.5324V11.544ZM59.6222 9.75782C59.7273 9.5827 59.8557 9.44262 60.0308 9.33755C60.2059 9.24415 60.3927 9.18577 60.6028 9.18577C60.813 9.18577 61.0115 9.23247 61.1866 9.32587C61.3617 9.41926 61.4901 9.55938 61.5952 9.74617C61.7003 9.92129 61.747 10.1314 61.747 10.3649C61.747 10.5984 61.7003 10.8086 61.5952 10.9837C61.4901 11.1588 61.3617 11.2989 61.1866 11.404C61.0115 11.509 60.8247 11.5557 60.6028 11.5557C60.381 11.5557 60.1942 11.509 60.0308 11.404C59.8674 11.2989 59.7273 11.1705 59.6222 10.9837C59.5288 10.8086 59.4821 10.5984 59.4821 10.3649C59.4821 10.1314 59.5288 9.93297 59.6339 9.74617L59.6222 9.75782Z" fill="#A6A6A6"/>
<path d="M63.8141 10.3768C63.8141 10.0148 63.9075 9.73465 64.0943 9.53618C64.2811 9.33771 64.5379 9.24431 64.8765 9.24431C64.9349 9.24431 64.9815 9.24431 65.0166 9.24431V8.64893C64.7247 8.64893 64.4679 8.69559 64.2577 8.80067C64.0476 8.90574 63.8958 9.04584 63.7908 9.24431V8.68395H63.207V12.0463H63.8141V10.3768Z" fill="#A6A6A6"/>
<path d="M66.2663 11.8709C66.5348 12.0227 66.8384 12.0928 67.1652 12.0928C67.4921 12.0928 67.7957 12.0227 68.0642 11.8709C68.3327 11.7192 68.5312 11.5207 68.683 11.2639C68.8347 11.007 68.9047 10.7035 68.9047 10.3766C68.9047 10.0497 68.8347 9.74617 68.683 9.48933C68.5312 9.23248 68.321 9.02232 68.0642 8.88222C67.7957 8.74213 67.5038 8.6604 67.1652 8.6604C66.8267 8.6604 66.5348 8.73045 66.2663 8.88222C65.9978 9.02232 65.7877 9.23248 65.6359 9.48933C65.4841 9.74617 65.4141 10.0497 65.4141 10.3766C65.4141 10.7035 65.4841 11.007 65.6359 11.2639C65.7877 11.5207 65.9978 11.7308 66.2663 11.8709ZM66.1846 9.75782C66.2897 9.5827 66.4181 9.44262 66.5932 9.33755C66.7683 9.24415 66.9551 9.19746 67.1769 9.19746C67.3987 9.19746 67.5855 9.24415 67.7607 9.33755C67.9358 9.43095 68.0642 9.57103 68.1693 9.75782C68.2627 9.93294 68.3094 10.1431 68.3094 10.3766C68.3094 10.6101 68.2627 10.8202 68.1693 10.9953C68.0759 11.1705 67.9358 11.3106 67.7607 11.4156C67.5855 11.5207 67.3987 11.5674 67.1769 11.5674C66.9551 11.5674 66.7683 11.5207 66.5932 11.4156C66.4181 11.3106 66.2897 11.1821 66.1846 10.9953C66.0795 10.8202 66.0328 10.6101 66.0328 10.3766C66.0328 10.1431 66.0795 9.93294 66.1846 9.75782Z" fill="#A6A6A6"/>
<path d="M70.2917 11.8709C70.5602 12.0227 70.8637 12.0928 71.1906 12.0928C71.5175 12.0928 71.821 12.0227 72.0896 11.8709C72.3581 11.7192 72.5565 11.5207 72.7083 11.2639C72.8601 11.007 72.9301 10.7035 72.9301 10.3766C72.9301 10.0497 72.8601 9.74617 72.7083 9.48933C72.5565 9.23248 72.3464 9.02232 72.0896 8.88222C71.821 8.74213 71.5292 8.6604 71.1906 8.6604C70.8521 8.6604 70.5602 8.73045 70.2917 8.88222C70.0232 9.02232 69.813 9.23248 69.6613 9.48933C69.5095 9.74617 69.4395 10.0497 69.4395 10.3766C69.4395 10.7035 69.5095 11.007 69.6613 11.2639C69.813 11.5207 70.0232 11.7308 70.2917 11.8709ZM70.21 9.75782C70.315 9.5827 70.4434 9.44262 70.6186 9.33755C70.7937 9.24415 70.9805 9.19746 71.2023 9.19746C71.4241 9.19746 71.6109 9.24415 71.786 9.33755C71.9611 9.43095 72.0896 9.57103 72.1946 9.75782C72.288 9.93294 72.3347 10.1431 72.3347 10.3766C72.3347 10.6101 72.288 10.8202 72.1946 10.9953C72.1012 11.1705 71.9611 11.3106 71.786 11.4156C71.6109 11.5207 71.4241 11.5674 71.2023 11.5674C70.9805 11.5674 70.7937 11.5207 70.6186 11.4156C70.4434 11.3106 70.315 11.1821 70.21 10.9953C70.1049 10.8202 70.0582 10.6101 70.0582 10.3766C70.0582 10.1431 70.1049 9.93294 70.21 9.75782Z" fill="#A6A6A6"/>
<path d="M73.8767 12.0461H74.4838V9.18579H75.4528V8.68379H74.4721V8.39192C74.4721 7.99499 74.6589 7.7965 75.0208 7.7965C75.196 7.7965 75.3477 7.85489 75.4878 7.95997L75.6746 7.49295C75.5929 7.43458 75.4878 7.37621 75.3711 7.35286C75.2543 7.31784 75.1259 7.30615 74.9858 7.30615C74.6356 7.30615 74.3671 7.39955 74.1686 7.59802C73.9701 7.79649 73.8767 8.05336 73.8767 8.39192V8.69544H73.3047V9.19748H73.8767V12.0578V12.0461Z" fill="#A6A6A6"/>
<path d="M994.334 29.6384H977.488C977.604 31.1445 978.095 32.3002 978.947 33.1058C979.799 33.8997 980.85 34.3083 982.099 34.3083C983.955 34.3083 985.251 33.5261 985.975 31.9617H993.902C993.493 33.5611 992.758 34.9971 991.707 36.2696C990.645 37.5422 989.314 38.5462 987.726 39.27C986.127 39.9939 984.341 40.3558 982.368 40.3558C979.986 40.3558 977.873 39.8538 976.005 38.8264C974.149 37.8107 972.701 36.363 971.65 34.4718C970.6 32.5805 970.086 30.3739 970.086 27.8522C970.086 25.3305 970.6 23.124 971.627 21.2327C972.654 19.3414 974.102 17.8937 975.958 16.878C977.814 15.8623 979.951 15.3486 982.356 15.3486C984.761 15.3486 986.792 15.839 988.625 16.8313C990.458 17.8237 991.882 19.2246 992.91 21.0575C993.937 22.8905 994.451 25.0153 994.451 27.4553C994.451 28.1557 994.404 28.8796 994.322 29.6268L994.334 29.6384ZM986.839 25.5056C986.839 24.2331 986.407 23.2174 985.531 22.4585C984.656 21.6996 983.57 21.3261 982.262 21.3261C980.955 21.3261 979.963 21.688 979.11 22.4118C978.258 23.1356 977.721 24.163 977.523 25.5056H986.839Z" fill="#A6A6A6"/>
<path d="M916.335 32.4523C915.226 33.1177 913.976 33.4446 912.564 33.4446C910.299 33.4446 908.454 32.6508 907.053 31.0747C905.653 29.4986 904.94 27.3855 904.94 24.747C904.94 22.1085 905.641 19.9954 907.053 18.4193C908.454 16.8433 910.299 16.0494 912.564 16.0494C913.965 16.0494 915.226 16.3763 916.335 17.0417C917.444 17.7072 918.296 18.6645 918.891 19.9254H926.982C926.118 16.6565 924.413 14.0647 921.857 12.1734C919.3 10.2821 916.23 9.33643 912.646 9.33643C909.715 9.33643 907.1 9.99022 904.789 11.2978C902.477 12.6053 900.679 14.4266 899.383 16.7615C898.087 19.0965 897.445 21.7583 897.445 24.747C897.445 27.7357 898.087 30.3859 899.383 32.7091C900.679 35.0324 902.477 36.8536 904.789 38.1495C907.1 39.4571 909.715 40.1109 912.646 40.1109C916.23 40.1109 919.3 39.1769 921.857 37.2973C924.413 35.4177 926.118 32.8375 926.982 29.5686H918.891C918.284 30.8295 917.432 31.7985 916.335 32.4523Z" fill="#A6A6A6"/>
<path d="M951.638 21.373C950.552 19.4934 949.058 18.0457 947.155 17.0417C945.264 16.0376 943.139 15.5356 940.781 15.5356C938.423 15.5356 936.298 16.0376 934.407 17.0417C932.515 18.0457 931.021 19.4934 929.923 21.373C928.826 23.2526 928.289 25.4241 928.289 27.8991C928.289 30.3741 928.826 32.5807 929.9 34.4486C930.974 36.3166 932.457 37.7525 934.336 38.7566C936.216 39.7606 938.329 40.2626 940.687 40.2626C943.046 40.2626 945.17 39.7606 947.085 38.7566C948.988 37.7525 950.506 36.3049 951.603 34.4253C952.712 32.5456 953.261 30.3741 953.261 27.8991C953.261 25.4241 952.712 23.2526 951.626 21.373H951.638ZM944.295 32.3355C943.302 33.3629 942.1 33.8882 940.699 33.8882C939.298 33.8882 938.119 33.3745 937.185 32.3355C936.251 31.2964 935.784 29.8254 935.784 27.8991C935.784 25.9728 936.263 24.4668 937.208 23.4394C938.154 22.4237 939.345 21.91 940.781 21.91C942.217 21.91 943.373 22.4237 944.33 23.4627C945.287 24.4901 945.777 25.9728 945.777 27.8991C945.777 29.8254 945.287 31.2964 944.295 32.3355Z" fill="#A6A6A6"/>
<path d="M965.403 16.89C964.107 17.6488 963.033 18.6879 962.169 20.0071V16.0027H954.803V40.0292H962.169V28.8799C962.169 26.8952 962.625 25.5176 963.547 24.7237C964.469 23.9298 965.847 23.5329 967.68 23.5329H969.699V15.7458C968.123 15.7458 966.687 16.1311 965.392 16.89H965.403Z" fill="#A6A6A6"/>
<path d="M909.847 43.9629V53.5128H908.878V45.8892L905.469 53.5128H904.769L901.36 45.9126V53.5128H900.391V43.9629H901.418L905.119 52.2402L908.82 43.9629H909.859H909.847Z" fill="#A6A6A6"/>
<path d="M913.442 53.1394C912.87 52.8242 912.427 52.3689 912.1 51.7852C911.773 51.2014 911.609 50.5126 911.609 49.7304C911.609 48.9482 911.773 48.2594 912.111 47.6757C912.438 47.092 912.894 46.6367 913.466 46.3214C914.038 46.0062 914.68 45.8428 915.392 45.8428C916.104 45.8428 916.746 46.0062 917.318 46.3214C917.89 46.6367 918.346 47.092 918.672 47.6757C918.999 48.2594 919.163 48.9482 919.163 49.7304C919.163 50.5126 918.999 51.1898 918.661 51.7735C918.334 52.3689 917.867 52.8242 917.295 53.1394C916.723 53.4547 916.069 53.6181 915.357 53.6181C914.645 53.6181 914.003 53.4547 913.442 53.1394ZM916.746 52.439C917.166 52.2172 917.517 51.8669 917.774 51.4116C918.03 50.9563 918.17 50.3959 918.17 49.7304C918.17 49.065 918.042 48.5046 917.785 48.0493C917.528 47.594 917.19 47.2554 916.758 47.0219C916.338 46.8001 915.871 46.6834 915.369 46.6834C914.867 46.6834 914.411 46.8001 913.979 47.0219C913.559 47.2437 913.22 47.594 912.964 48.0493C912.707 48.5046 912.578 49.065 912.578 49.7304C912.578 50.3959 912.707 50.9563 912.964 51.4116C913.22 51.8669 913.559 52.2055 913.979 52.439C914.4 52.6608 914.855 52.7775 915.357 52.7775C915.859 52.7775 916.314 52.6608 916.746 52.439Z" fill="#A6A6A6"/>
<path d="M921.907 43.2627V53.5014H920.938V43.2627H921.907Z" fill="#A6A6A6"/>
<path d="M924.135 47.6757C924.45 47.092 924.882 46.6367 925.431 46.3215C925.98 46.0062 926.598 45.8428 927.287 45.8428C927.976 45.8428 928.548 46.0062 929.085 46.3215C929.622 46.6483 930.007 47.0686 930.264 47.5823V43.2627H931.233V53.5014H930.264V51.8085C930.031 52.3339 929.657 52.7659 929.132 53.1044C928.606 53.443 927.988 53.6065 927.275 53.6065C926.563 53.6065 925.968 53.443 925.419 53.1278C924.87 52.8009 924.439 52.3456 924.135 51.7619C923.831 51.1664 923.668 50.4893 923.668 49.7188C923.668 48.9483 923.82 48.2595 924.135 47.6757ZM929.891 48.131C929.645 47.664 929.307 47.3138 928.875 47.0686C928.443 46.8235 927.976 46.695 927.451 46.695C926.925 46.695 926.435 46.8118 926.015 47.057C925.594 47.3021 925.256 47.6407 925.011 48.1077C924.765 48.563 924.649 49.1117 924.649 49.7305C924.649 50.3492 924.765 50.8862 925.011 51.3532C925.256 51.8202 925.594 52.1705 926.015 52.4156C926.435 52.6608 926.914 52.7775 927.451 52.7775C927.988 52.7775 928.443 52.6491 928.875 52.404C929.307 52.1588 929.645 51.7969 929.891 51.3416C930.136 50.8746 930.264 50.3492 930.264 49.7305C930.264 49.1117 930.136 48.5863 929.891 48.1193V48.131Z" fill="#A6A6A6"/>
<path d="M933.441 44.325C933.301 44.1849 933.23 44.0215 933.23 43.8113C933.23 43.6012 933.301 43.4377 933.441 43.3093C933.581 43.1809 933.744 43.1108 933.943 43.1108C934.141 43.1108 934.305 43.1809 934.445 43.3093C934.585 43.4377 934.655 43.6129 934.655 43.8113C934.655 44.0098 934.585 44.1849 934.445 44.325C934.305 44.4651 934.141 44.5352 933.943 44.5352C933.744 44.5352 933.581 44.4651 933.441 44.325ZM934.421 45.9595V53.513H933.452V45.9595H934.421Z" fill="#A6A6A6"/>
<path d="M942.373 46.6479C942.945 47.2083 943.237 48.0138 943.237 49.0762V53.5009H942.279V49.1813C942.279 48.3641 942.069 47.7336 941.661 47.3017C941.252 46.8697 940.692 46.6479 939.979 46.6479C939.267 46.6479 938.672 46.8814 938.24 47.3367C937.808 47.8037 937.586 48.4808 937.586 49.3681V53.4893H936.617V45.9357H937.586V47.22C937.831 46.753 938.17 46.4027 938.625 46.1576C939.081 45.9124 939.594 45.7957 940.166 45.7957C941.065 45.7957 941.812 46.0758 942.384 46.6362L942.373 46.6479Z" fill="#A6A6A6"/>
<path d="M950.403 46.3449C950.928 46.6718 951.302 47.0921 951.535 47.6057V45.9596H952.504V53.7116C952.504 54.4004 952.353 55.0192 952.049 55.5562C951.746 56.0932 951.337 56.5018 950.8 56.7937C950.263 57.0856 949.656 57.2257 948.967 57.2257C947.998 57.2257 947.193 56.9922 946.55 56.5369C945.908 56.0699 945.511 55.4511 945.348 54.6572H946.305C946.469 55.1826 946.784 55.6029 947.251 55.9181C947.718 56.2333 948.29 56.3851 948.955 56.3851C949.446 56.3851 949.878 56.28 950.275 56.0699C950.66 55.8597 950.963 55.5562 951.185 55.1476C951.407 54.739 951.512 54.2603 951.512 53.7116V51.8436C951.267 52.3573 950.893 52.7893 950.368 53.1279C949.843 53.4664 949.236 53.6299 948.523 53.6299C947.811 53.6299 947.216 53.4664 946.667 53.1512C946.118 52.8243 945.687 52.369 945.383 51.7853C945.079 51.1899 944.916 50.5127 944.916 49.7422C944.916 48.9717 945.068 48.2829 945.383 47.6991C945.687 47.1154 946.118 46.6601 946.667 46.3449C947.216 46.0297 947.835 45.8662 948.523 45.8662C949.212 45.8662 949.854 46.0296 950.38 46.3682L950.403 46.3449ZM951.162 48.1311C950.917 47.6641 950.578 47.3139 950.146 47.0687C949.714 46.8235 949.247 46.6951 948.722 46.6951C948.197 46.6951 947.706 46.8119 947.286 47.057C946.866 47.3022 946.527 47.6408 946.282 48.1077C946.037 48.5631 945.92 49.1118 945.92 49.7305C945.92 50.3493 946.037 50.8863 946.282 51.3533C946.527 51.8203 946.866 52.1705 947.286 52.4157C947.706 52.6609 948.185 52.7776 948.722 52.7776C949.259 52.7776 949.714 52.6492 950.146 52.404C950.578 52.1589 950.917 51.7969 951.162 51.3416C951.407 50.8746 951.535 50.3493 951.535 49.7305C951.535 49.1118 951.407 48.5864 951.162 48.1194V48.1311Z" fill="#A6A6A6"/>
<path d="M955.204 53.0227C954.655 52.6258 954.351 52.077 954.281 51.3882H955.274C955.32 51.8085 955.519 52.1588 955.881 52.4156C956.231 52.6841 956.71 52.8126 957.317 52.8126C957.842 52.8126 958.251 52.6841 958.554 52.439C958.858 52.1938 959.009 51.8786 959.009 51.5167C959.009 51.2598 958.928 51.0497 958.764 50.8746C958.601 50.6994 958.391 50.5827 958.134 50.4776C957.877 50.3842 957.538 50.2791 957.107 50.1624C956.546 50.0106 956.091 49.8705 955.741 49.7188C955.39 49.567 955.087 49.3569 954.853 49.065C954.608 48.7731 954.491 48.3879 954.491 47.8975C954.491 47.5239 954.596 47.1854 954.818 46.8702C955.04 46.5549 955.355 46.3098 955.764 46.123C956.173 45.9362 956.628 45.8428 957.153 45.8428C957.97 45.8428 958.624 46.0529 959.115 46.4615C959.617 46.8701 959.885 47.4422 959.92 48.1544H958.951C958.928 47.7107 958.753 47.3488 958.437 47.0803C958.122 46.8118 957.679 46.6717 957.13 46.6717C956.64 46.6717 956.243 46.7884 955.939 47.0219C955.636 47.2554 955.484 47.5356 955.484 47.8858C955.484 48.1777 955.577 48.4229 955.752 48.6097C955.927 48.7965 956.161 48.9482 956.429 49.0533C956.698 49.1584 957.06 49.2751 957.503 49.4036C958.052 49.5553 958.484 49.6954 958.799 49.8355C959.126 49.9756 959.395 50.1741 959.628 50.4426C959.862 50.7111 959.978 51.0614 959.99 51.505C959.99 51.9136 959.885 52.2755 959.663 52.5907C959.441 52.9059 959.138 53.1628 958.741 53.3496C958.344 53.5364 957.889 53.6298 957.375 53.6298C956.511 53.6298 955.799 53.4313 955.25 53.0227H955.204Z" fill="#A6A6A6"/>
<path d="M932.262 12.3249V12.8386H942.991C948.653 12.8386 953.229 9.00931 953.229 4.29274V3.77905H942.5C936.838 3.77905 932.262 7.60835 932.262 12.3366" fill="#A6A6A6"/>
<path d="M706.897 23.7812C703.639 22.1467 702.262 20.9326 702.262 18.8895C702.262 16.8464 703.674 15.2937 705.823 15.2937C709.231 15.2937 710.271 18.0022 711.006 20.3722L712.419 20.0336C712.127 17.6987 711.858 15.7724 711.718 14.4064C710.901 14.2897 708.975 13.741 706.418 13.741C700.861 13.741 697.825 16.8114 697.825 20.6991C697.825 24.5867 700.347 26.408 704.2 28.4744C707.317 30.1439 708.648 31.4048 708.648 33.5529C708.648 35.9229 707.282 37.3355 705.017 37.3355C701.386 37.3355 699.308 33.296 698.573 30.9611L697.125 31.2997C697.382 33.0392 698.012 36.8918 698.234 37.7441C699.974 38.2578 702.087 38.8882 704.457 38.8882C709.757 38.8882 713.388 35.701 713.388 31.3347C713.388 27.6688 710.866 25.7425 706.908 23.7812H706.897Z" fill="#A6A6A6"/>
<path d="M726.45 21.4461C725.785 21.4461 724.967 21.668 724.045 22.2283C723.928 22.2634 721.523 23.711 721.453 23.7461V21.0842C719.083 21.7497 716.597 22.4502 714.635 22.7537V23.9795C716.445 24.2014 716.678 24.4232 716.678 26.4196V42.9392C716.678 44.9823 716.527 45.3092 714.273 45.531V46.7568H724.197V45.531C721.64 45.1924 721.453 44.9706 721.453 42.9042V38.4561C722.014 38.678 722.866 38.7947 723.788 38.7947C728.563 37.7557 732.859 34.1599 732.859 28.7545C732.859 25.1937 730.524 21.4578 726.45 21.4578V21.4461ZM724.489 37.0085C723.531 37.0085 722.154 36.343 721.453 35.6425V25.1237C722.084 24.68 722.866 24.3064 723.788 24.3064C725.644 24.3064 727.898 26.046 727.898 30.5991C727.898 34.6035 726.45 37.0085 724.489 37.0085Z" fill="#A6A6A6"/>
<path d="M738.218 19.1462C739.736 19.1462 740.927 17.9554 740.927 16.5194C740.927 15.0017 739.736 13.8926 738.265 13.8926C736.794 13.8926 735.557 15.0017 735.557 16.5194C735.557 18.0371 736.817 19.1462 738.218 19.1462Z" fill="#A6A6A6"/>
<path d="M740.891 34.0431V21.4111C738.848 22.0065 736.525 22.4852 734.19 22.742V23.9679C735.93 24.1897 736.117 24.3415 736.117 26.8165V34.0431C736.117 36.6699 735.895 36.8217 733.898 37.0785V38.3394H743.191V37.0785C741.043 36.8217 740.891 36.5649 740.891 34.0431Z" fill="#A6A6A6"/>
<path d="M755.754 21.4462C754.236 21.4462 752.905 22.8122 751.236 25.3689V21.3645C748.936 22.065 746.869 22.5086 744.569 22.7771V23.9213C746.309 24.2948 746.461 24.4816 746.461 26.3262V34.4401C746.461 36.6583 746.274 36.8451 744.312 37.0669V38.3278H754.096V37.0669C751.504 36.7751 751.247 36.6583 751.247 34.4401V27.4003C751.913 25.9877 752.835 25.509 753.395 25.509C754.026 25.509 754.504 26.1044 755.135 26.6181C755.392 26.8399 755.765 27.0267 756.279 26.8049C756.874 26.513 758.17 25.474 758.17 23.6527C758.17 22.3568 757.131 21.4345 755.765 21.4345L755.754 21.4462Z" fill="#A6A6A6"/>
<path d="M763.607 19.1464C765.125 19.1464 766.316 17.9556 766.316 16.5196C766.316 15.0019 765.125 13.8928 763.654 13.8928C762.183 13.8928 760.945 15.0019 760.945 16.5196C760.945 18.0373 762.206 19.1464 763.607 19.1464Z" fill="#A6A6A6"/>
<path d="M766.27 34.0434V21.4114C764.227 22.0068 761.904 22.4854 759.569 22.7423V23.9681C761.309 24.19 761.495 24.3417 761.495 26.8168V34.0434C761.495 36.6702 761.274 36.8219 759.277 37.0788V38.3397H768.57V37.0788C766.422 36.8219 766.27 36.5651 766.27 34.0434Z" fill="#A6A6A6"/>
<path d="M779.616 35.6662C778.951 35.923 778.472 36.0397 777.842 36.0397C777.141 36.0397 775.951 35.7012 775.951 32.8175V23.7463H779.36C779.838 23.4078 779.99 22.2636 779.651 21.8901H775.951C775.916 19.1115 775.986 17.1501 776.021 16.1461L775.542 15.8542C774.246 16.7415 772.425 17.9323 771.176 18.8196V21.8901H769.658L768.584 23.3027L768.806 23.7463H771.176V34.0784C771.176 37.4524 772.88 38.7833 775.729 38.7833C775.986 38.7833 776.581 38.6665 777.211 38.3747L779.99 37.0087L779.616 35.6778V35.6662Z" fill="#A6A6A6"/>
<path d="M782.233 51.532H772.929L788.561 26.1863L772.123 0H781.579L793.698 19.4383L800.282 8.11389H809.598L798.169 26.4315L809.82 44.5506H800.352L793.032 33.1561L782.245 51.5203L782.233 51.532ZM774.902 50.4229H781.591L792.974 31.0546L800.936 43.4531H807.777L796.85 26.4431L807.59 9.22299H800.901L793.709 21.5865L780.937 1.10909H774.096L789.833 26.1863L774.878 50.4346L774.902 50.4229Z" fill="#A6A6A6"/>
<path d="M830.648 44.5507H810.812V8.11401H819.008V36.355H830.648V44.5507ZM811.922 43.4416H829.55V37.4525H817.911V9.21144H811.922V43.4416Z" fill="#A6A6A6"/>
<path d="M541.474 35.7922C539.987 35.2251 538.828 34.4942 537.996 33.5995L538.74 32.3771C539.533 33.2088 540.592 33.8893 541.928 34.4186C543.264 34.9479 544.675 35.1999 546.149 35.1999C548.292 35.1999 549.905 34.7966 550.988 33.9775C552.085 33.171 552.626 32.1125 552.626 30.8019C552.626 29.7938 552.337 28.9999 551.757 28.395C551.177 27.8027 550.459 27.3364 549.602 27.0214C548.745 26.7064 547.586 26.3661 546.137 26.0259C544.486 25.6226 543.175 25.2193 542.18 24.8413C541.184 24.4506 540.34 23.8584 539.647 23.0645C538.954 22.258 538.601 21.1868 538.601 19.8384C538.601 18.7421 538.891 17.7466 539.47 16.8392C540.05 15.9319 540.932 15.2136 542.117 14.6717C543.301 14.1425 544.788 13.8652 546.553 13.8652C547.787 13.8652 549.01 14.0416 550.207 14.4071C551.404 14.7725 552.437 15.264 553.32 15.8815L552.715 17.1921C551.82 16.5746 550.824 16.0957 549.753 15.7807C548.67 15.4657 547.611 15.3018 546.565 15.3018C544.486 15.3018 542.923 15.7177 541.852 16.5494C540.781 17.3811 540.252 18.4648 540.252 19.788C540.252 20.7962 540.542 21.5901 541.121 22.195C541.701 22.7998 542.419 23.2535 543.276 23.5685C544.133 23.8836 545.292 24.2364 546.767 24.5893C548.418 24.9925 549.728 25.3958 550.711 25.7738C551.694 26.1645 552.538 26.7442 553.231 27.5255C553.924 28.3068 554.277 29.3653 554.277 30.6885C554.277 31.7849 553.987 32.7678 553.395 33.6751C552.803 34.5698 551.908 35.2881 550.686 35.83C549.464 36.3592 547.977 36.6365 546.2 36.6365C544.549 36.6365 542.986 36.3593 541.499 35.7922H541.474Z" fill="#A6A6A6"/>
<path d="M562.988 15.5032H554.91V14.0288H572.704V15.5032H564.626V36.4724H562.988V15.5032Z" fill="#A6A6A6"/>
<path d="M590.218 35.011V36.4854H574.73V14.0417H589.739V15.5161H576.369V24.3625H588.328V25.8117H576.369V35.011H590.218Z" fill="#A6A6A6"/>
<path d="M608.869 16.0328C610.47 17.3686 611.276 19.221 611.276 21.6028C611.276 23.9845 610.47 25.7991 608.869 27.1349C607.269 28.4707 605.051 29.1386 602.228 29.1386H595.814V36.4854H594.176V14.0417H602.228C605.051 14.0417 607.269 14.7096 608.869 16.0454V16.0328ZM607.71 26.089C608.97 25.043 609.6 23.5434 609.6 21.6028C609.6 19.6621 608.97 18.1499 607.71 17.0914C606.45 16.0328 604.622 15.5035 602.228 15.5035H595.814V27.6642H602.228C604.622 27.6642 606.45 27.1349 607.71 26.089Z" fill="#A6A6A6"/>
<path d="M616.708 35.7922C615.221 35.2251 614.062 34.4942 613.23 33.5995L613.974 32.3771C614.768 33.2088 615.826 33.8893 617.162 34.4186C618.498 34.9479 619.909 35.1999 621.384 35.1999C623.526 35.1999 625.139 34.7966 626.223 33.9775C627.319 33.171 627.861 32.1125 627.861 30.8019C627.861 29.7938 627.571 28.9999 626.991 28.395C626.412 27.8027 625.693 27.3364 624.836 27.0214C623.98 26.7064 622.82 26.3661 621.371 26.0259C619.72 25.6226 618.41 25.2193 617.414 24.8413C616.419 24.4506 615.574 23.8584 614.881 23.0645C614.188 22.258 613.835 21.1868 613.835 19.8384C613.835 18.7421 614.125 17.7466 614.705 16.8392C615.284 15.9319 616.167 15.2136 617.351 14.6717C618.536 14.1425 620.023 13.8652 621.787 13.8652C623.022 13.8652 624.244 14.0416 625.441 14.4071C626.638 14.7725 627.672 15.264 628.554 15.8815L627.949 17.1921C627.054 16.5746 626.059 16.0957 624.988 15.7807C623.904 15.4657 622.845 15.3018 621.799 15.3018C619.72 15.3018 618.158 15.7177 617.087 16.5494C616.015 17.3811 615.486 18.4648 615.486 19.788C615.486 20.7962 615.776 21.5901 616.356 22.195C616.935 22.7998 617.654 23.2535 618.51 23.5685C619.367 23.8836 620.527 24.2364 622.001 24.5893C623.652 24.9925 624.962 25.3958 625.945 25.7738C626.928 26.1645 627.773 26.7442 628.466 27.5255C629.159 28.3068 629.512 29.3653 629.512 30.6885C629.512 31.7849 629.222 32.7678 628.63 33.6751C628.037 34.5698 627.143 35.2881 625.92 35.83C624.698 36.3592 623.211 36.6365 621.434 36.6365C619.783 36.6365 618.221 36.3593 616.734 35.7922H616.708Z" fill="#A6A6A6"/>
<path fill-rule="evenodd" clip-rule="evenodd" d="M492.645 14.6086C492.645 14.3944 492.708 14.2306 492.834 14.1046C492.96 13.9785 493.149 13.9155 493.401 13.9155H504.604C505.789 13.9155 506.91 14.1172 507.956 14.5078C509.002 14.8985 509.91 15.4277 510.678 16.1082C511.447 16.7761 512.064 17.57 512.505 18.4774C512.946 19.3847 513.173 20.3424 513.173 21.3631C513.173 22.0562 513.072 22.7241 512.858 23.3542C512.644 23.9843 512.342 24.564 511.964 25.1184C511.586 25.6603 511.132 26.1644 510.603 26.6054C510.073 27.0465 509.494 27.4372 508.876 27.7522L513.35 35.162C513.425 35.3006 513.539 35.477 513.665 35.6661C513.791 35.8551 513.854 36.0315 513.854 36.1701C513.854 36.3339 513.791 36.46 513.677 36.5482C513.551 36.6364 513.388 36.6868 513.173 36.6868H507.213C507.011 36.6868 506.847 36.6364 506.684 36.5356C506.532 36.4348 506.419 36.2961 506.381 36.1197L502.172 29.1258H499.362V36.0315C499.362 36.4726 499.097 36.6868 498.568 36.6868H493.401C493.175 36.6868 492.986 36.6238 492.847 36.523C492.708 36.4096 492.633 36.2583 492.633 36.0315V14.6464L492.645 14.6086ZM506.205 21.4136C506.205 21.1111 506.142 20.7961 506.016 20.4936C505.89 20.1912 505.713 19.9013 505.486 19.6493C505.26 19.3973 504.982 19.183 504.655 19.0066C504.34 18.8302 503.974 18.7168 503.584 18.6664C503.269 18.6412 502.966 18.6286 502.689 18.616C502.399 18.6034 502.097 18.5908 501.769 18.5908H499.387V24.2111H502.563C502.764 24.2111 502.953 24.2111 503.117 24.1985C503.281 24.1985 503.458 24.1733 503.647 24.1481C504.05 24.1103 504.415 23.9969 504.73 23.8331C505.058 23.6693 505.323 23.455 505.549 23.203C505.764 22.951 505.927 22.6737 506.041 22.3587C506.154 22.0436 506.217 21.7286 506.217 21.4009L506.205 21.4136Z" fill="#A6A6A6"/>
<path fill-rule="evenodd" clip-rule="evenodd" d="M464.996 25.2951C464.996 24.2113 465.147 23.178 465.462 22.1825C465.777 21.1869 466.218 20.2544 466.798 19.3723C467.378 18.5028 468.071 17.7088 468.877 16.9905C469.684 16.2723 470.579 15.6674 471.561 15.1633C472.544 14.6592 473.603 14.2686 474.737 13.9787C475.859 13.7015 477.043 13.5503 478.278 13.5503C479.513 13.5503 480.66 13.6889 481.807 13.9787C482.941 14.256 483.999 14.6592 484.982 15.1633C485.965 15.6674 486.86 16.2723 487.679 16.9905C488.485 17.7088 489.178 18.5028 489.758 19.3723C490.325 20.2418 490.779 21.1743 491.094 22.1825C491.409 23.178 491.573 24.2113 491.573 25.2951C491.573 26.3788 491.409 27.4121 491.094 28.4077C490.779 29.4032 490.325 30.3357 489.758 31.1927C489.191 32.0496 488.498 32.8435 487.679 33.5492C486.86 34.2549 485.965 34.8723 484.982 35.3764C483.999 35.8931 482.941 36.2837 481.807 36.5484C480.672 36.8256 479.5 36.9642 478.278 36.9642C477.056 36.9642 475.871 36.8256 474.737 36.5484C473.603 36.2711 472.557 35.8805 471.561 35.3764C470.579 34.8597 469.684 34.2549 468.877 33.5492C468.071 32.8435 467.378 32.0496 466.798 31.1927C466.218 30.3357 465.765 29.4032 465.462 28.4077C465.147 27.4121 464.996 26.3788 464.996 25.2951ZM471.725 25.2699C471.725 26.1142 471.889 26.9081 472.204 27.639C472.532 28.3699 472.985 29.0126 473.565 29.5544C474.145 30.0963 474.838 30.5248 475.632 30.8398C476.426 31.1549 477.308 31.3061 478.266 31.3061C479.223 31.3061 480.105 31.1549 480.899 30.8398C481.706 30.5248 482.399 30.0963 482.978 29.5544C483.558 29.0126 484.012 28.3699 484.339 27.639C484.667 26.9081 484.818 26.1142 484.818 25.2699C484.818 24.4256 484.655 23.6442 484.339 22.9007C484.012 22.1572 483.571 21.5146 482.978 20.9727C482.399 20.4182 481.706 19.9898 480.899 19.6747C480.105 19.3597 479.211 19.1958 478.266 19.1958C477.32 19.1958 476.426 19.3597 475.632 19.6747C474.838 19.9898 474.145 20.4182 473.565 20.9727C472.985 21.5272 472.532 22.1698 472.204 22.9007C471.877 23.6442 471.725 24.4256 471.725 25.2699Z" fill="#A6A6A6"/>
<path fill-rule="evenodd" clip-rule="evenodd" d="M466.912 15.5538C467.114 15.6546 467.253 15.7933 467.341 15.9571C467.429 16.1209 467.416 16.3099 467.29 16.5367L464.354 20.2038C464.228 20.3803 464.09 20.4685 463.951 20.4937C463.8 20.5189 463.623 20.4811 463.422 20.3677C462.855 19.9896 462.237 19.6998 461.544 19.4981C460.864 19.2965 460.133 19.1957 459.377 19.1957C458.432 19.1957 457.549 19.3595 456.756 19.6746C455.962 19.9896 455.269 20.4181 454.689 20.9725C454.109 21.527 453.656 22.1697 453.341 22.9006C453.013 23.6315 452.862 24.4254 452.862 25.2571C452.862 26.0888 453.026 26.8701 453.341 27.601C453.668 28.3319 454.122 28.962 454.689 29.5165C455.269 30.0584 455.949 30.4994 456.756 30.8145C457.549 31.1295 458.432 31.2933 459.377 31.2933C460.145 31.2933 460.864 31.1925 461.557 30.9783C462.25 30.7641 462.88 30.4742 463.447 30.0962C463.661 29.9828 463.825 29.9324 463.964 29.9576C464.102 29.9828 464.241 30.071 464.379 30.2348L467.341 34.0027C467.467 34.2295 467.479 34.4185 467.391 34.5698C467.303 34.721 467.152 34.847 466.963 34.9478C465.879 35.5905 464.707 36.0946 463.46 36.4474C462.199 36.8003 460.876 36.9767 459.49 36.9767C458.268 36.9767 457.096 36.8381 455.962 36.5608C454.84 36.2836 453.782 35.893 452.799 35.3889C451.816 34.8722 450.921 34.2673 450.115 33.5616C449.308 32.8559 448.615 32.062 448.035 31.2051C447.456 30.3482 447.002 29.4157 446.687 28.4202C446.372 27.4246 446.221 26.3913 446.221 25.3075C446.221 24.2238 446.372 23.1904 446.687 22.1949C447.002 21.1994 447.456 20.2669 448.035 19.3847C448.615 18.5152 449.308 17.7213 450.115 17.003C450.921 16.2847 451.816 15.6798 452.799 15.1758C453.782 14.6717 454.84 14.2811 455.962 13.9912C457.083 13.714 458.268 13.5627 459.49 13.5627C460.876 13.5627 462.187 13.7266 463.422 14.0668C464.657 14.4071 465.816 14.8985 466.9 15.5538H466.912Z" fill="#A6A6A6"/>
<path d="M533.677 31.3816H522.02V27.3616L517.887 27.3238C516.463 27.3112 515.291 28.458 515.291 29.8946V35.9938C515.291 36.2206 515.367 36.3845 515.505 36.4853C515.644 36.5861 515.833 36.6491 516.06 36.6491H533.614C534.042 36.6491 534.282 36.5105 534.319 36.2206C534.408 36.145 534.458 36.0442 534.458 35.9434V32.0873C534.458 31.621 534.193 31.3816 533.677 31.3816Z" fill="#A6A6A6"/>
<path d="M522.03 19.1577H533.271C533.535 19.1577 533.737 19.0821 533.875 18.9183C534.014 18.7671 534.077 18.5907 534.077 18.4268V14.6337C534.077 14.4069 534.014 14.2305 533.875 14.1045C533.737 13.9658 533.535 13.9028 533.283 13.9028H516.057C515.817 13.9028 515.628 13.9658 515.502 14.0918C515.364 14.2179 515.301 14.3943 515.301 14.5959V19.7374C515.301 21.4387 516.674 22.8122 518.376 22.8122H522.03V19.1577Z" fill="#A6A6A6"/>
<path d="M527.901 22.8125H523.012V27.2231H527.901V22.8125Z" fill="#A6A6A6"/>
<path d="M482.741 49.1287V53.6401H482.414V51.4977H479.402V53.6401H479.074V49.1287H479.402V51.1953H482.414V49.1287H482.741Z" fill="#A6A6A6"/>
<path d="M496.757 52.3673H494.148L493.581 53.6401H493.229L495.308 49.1287H495.635L497.715 53.6401H497.362L496.782 52.3673H496.757ZM496.631 52.09L495.446 49.4941L494.262 52.09H496.631Z" fill="#A6A6A6"/>
<path d="M511.839 49.1287V53.6401H511.574L508.5 49.7209V53.6401H508.172V49.1287H508.449L511.511 53.0478V49.1287H511.839Z" fill="#A6A6A6"/>
<path d="M523.066 49.1287H524.856C525.322 49.1287 525.738 49.2295 526.103 49.4185C526.469 49.6075 526.746 49.8848 526.948 50.225C527.149 50.5652 527.25 50.9559 527.25 51.3843C527.25 51.8128 527.149 52.2035 526.948 52.5437C526.746 52.884 526.469 53.1486 526.103 53.3502C525.738 53.5392 525.322 53.6401 524.856 53.6401H523.066V49.1287ZM524.818 53.3376C525.234 53.3376 525.599 53.2494 525.914 53.0856C526.229 52.9218 526.481 52.6949 526.645 52.3925C526.822 52.1027 526.897 51.7624 526.897 51.3718C526.897 50.9811 526.809 50.6535 526.645 50.351C526.481 50.0486 526.229 49.8217 525.914 49.6579C525.599 49.4941 525.234 49.4059 524.818 49.4059H523.394V53.325H524.818V53.3376Z" fill="#A6A6A6"/>
<path d="M553.612 53.64V49.7839L551.722 53.0351H551.558L549.667 49.7839V53.6274H549.34V49.116H549.617L551.633 52.594L553.65 49.116H553.914V53.6274H553.599L553.612 53.64Z" fill="#A6A6A6"/>
<path d="M567.952 52.3673H565.344L564.777 53.6401H564.424L566.503 49.1287H566.831L568.91 53.6401H568.557L567.977 52.3673H567.952ZM567.826 52.09L566.642 49.4941L565.457 52.09H567.826Z" fill="#A6A6A6"/>
<path d="M579.371 49.1287H581.161C581.627 49.1287 582.043 49.2295 582.408 49.4185C582.774 49.6075 583.051 49.8848 583.252 50.225C583.454 50.5652 583.555 50.9559 583.555 51.3843C583.555 51.8128 583.454 52.2035 583.252 52.5437C583.051 52.884 582.774 53.1486 582.408 53.3502C582.043 53.5392 581.627 53.6401 581.161 53.6401H579.371V49.1287ZM581.123 53.3376C581.539 53.3376 581.904 53.2494 582.219 53.0856C582.534 52.9218 582.786 52.6949 582.95 52.3925C583.126 52.1027 583.202 51.7624 583.202 51.3718C583.202 50.9811 583.114 50.6535 582.95 50.351C582.786 50.0486 582.534 49.8217 582.219 49.6579C581.904 49.4941 581.539 49.4059 581.123 49.4059H579.699V53.325H581.123V53.3376Z" fill="#A6A6A6"/>
<path d="M597.454 53.3376V53.6401H594.342V49.1287H597.354V49.4185H594.669V51.1953H597.076V51.4852H594.669V53.3376H597.454Z" fill="#A6A6A6"/>
<path d="M536.198 51.1574C536.198 50.1241 536.198 49.1664 536.198 48.196C536.198 47.8432 536.375 47.5786 536.69 47.5156C536.841 47.4904 537.017 47.5156 537.206 47.5156C537.282 47.2635 537.446 47.0367 537.786 46.9989C538.114 46.9611 538.34 47.1123 538.492 47.4021C539.097 47.2005 539.525 47.3895 539.55 48.2213C539.601 48.2213 539.638 48.1961 539.689 48.1834C540.168 48.0826 540.521 48.3599 540.533 48.8891C540.546 50.0863 540.558 51.2834 540.533 52.4806C540.521 53.1359 540.294 53.7282 539.777 54.1693C539.487 54.4213 539.147 54.5599 538.781 54.6229C538.252 54.7111 537.736 54.6733 537.219 54.5473C536.664 54.3961 536.249 54.0558 535.959 53.577C535.53 52.8839 535.127 52.1656 534.736 51.4473C534.56 51.1196 534.673 50.7416 534.963 50.5651C535.24 50.3887 535.644 50.4517 535.883 50.729C535.984 50.855 536.085 50.9936 536.223 51.17L536.198 51.1574ZM540.205 50.6912C540.205 50.603 540.205 50.5148 540.205 50.4265C540.205 49.9099 540.205 49.3932 540.205 48.8639C540.205 48.5615 540.016 48.4103 539.777 48.4859C539.575 48.5489 539.55 48.7253 539.55 48.8891C539.55 49.3554 539.55 49.8216 539.55 50.2753C539.55 50.3383 539.575 50.4139 539.55 50.4644C539.512 50.5274 539.449 50.5777 539.386 50.6408C539.336 50.5777 539.26 50.5274 539.223 50.4644C539.197 50.4265 539.223 50.3635 539.223 50.3131C539.223 49.5948 539.223 48.8765 539.223 48.1582C539.223 48.0574 539.21 47.944 539.185 47.8432C539.16 47.692 539.059 47.629 538.908 47.629C538.668 47.629 538.555 47.7298 538.555 47.9818C538.555 48.7127 538.555 49.4436 538.555 50.1745C538.555 50.2375 538.555 50.3131 538.529 50.3509C538.504 50.4013 538.429 50.4517 538.378 50.4517C538.328 50.4517 538.265 50.4013 538.24 50.3509C538.214 50.3005 538.214 50.2375 538.214 50.1745C538.214 49.3932 538.214 48.5993 538.214 47.818C538.214 47.7676 538.214 47.7046 538.214 47.6542C538.214 47.4399 538.076 47.3013 537.887 47.3013C537.685 47.3013 537.547 47.4399 537.547 47.6542C537.547 48.5111 537.547 49.3554 537.547 50.2123C537.547 50.3257 537.534 50.4517 537.383 50.4517C537.232 50.4517 537.219 50.3383 537.219 50.2123C537.219 50.1745 537.219 50.1241 537.219 50.0863C537.219 49.4436 537.219 48.8009 537.219 48.1582C537.219 47.881 537.005 47.7298 536.765 47.818C536.601 47.881 536.551 48.0196 536.551 48.196C536.551 49.305 536.551 50.4265 536.551 51.5355C536.551 51.6237 536.488 51.6993 536.45 51.7875C536.362 51.7371 536.261 51.7119 536.198 51.6489C536.009 51.4221 535.833 51.17 535.644 50.9306C535.493 50.7542 535.291 50.7164 535.14 50.8298C534.988 50.9306 534.951 51.1322 535.064 51.3339C535.379 51.9136 535.694 52.4932 536.034 53.0603C536.274 53.4762 536.551 53.8794 537.005 54.081C537.723 54.3961 538.466 54.4465 539.197 54.144C539.928 53.8416 540.18 53.1863 540.231 52.4554C540.256 51.8757 540.231 51.2835 540.231 50.6912H540.205Z" fill="#A6A6A6"/>
<path d="M630.012 51.321H607.203V51.4723H630.012V51.321Z" fill="#A6A6A6"/>
<path d="M468.526 51.4851H445.717V51.6363H468.526V51.4851Z" fill="#A6A6A6"/>
<path d="M221.355 17.6995H232.493C235.209 17.6995 237.628 18.2272 239.739 19.2827C241.85 20.3382 243.488 21.8335 244.653 23.7577C245.819 25.6928 246.402 27.9137 246.402 30.4425C246.402 32.9714 245.819 35.1923 244.653 37.1274C243.488 39.0625 241.85 40.5469 239.739 41.6024C237.628 42.6579 235.209 43.1856 232.493 43.1856H221.355V17.6995ZM232.284 39.1835C234.153 39.1835 235.803 38.8207 237.221 38.106C238.639 37.3913 239.739 36.3688 240.497 35.0494C241.267 33.73 241.641 32.1907 241.641 30.4425C241.641 28.6944 241.256 27.1551 240.497 25.8357C239.728 24.5163 238.639 23.4938 237.221 22.7791C235.803 22.0644 234.153 21.7016 232.284 21.7016H226.094V39.1835H232.284Z" fill="#A6A6A6"/>
<path d="M266.985 39.2165V43.1856H247.865V17.6995H266.468V21.6686H252.593V28.2985H264.896V32.1907H252.593V39.2165H266.974H266.985Z" fill="#A6A6A6"/>
<path d="M273.404 41.8551C271.326 40.7226 269.699 39.1613 268.522 37.1712C267.346 35.1812 266.752 32.9382 266.752 30.4314C266.752 27.9245 267.346 25.6816 268.533 23.6915C269.721 21.7014 271.359 20.1401 273.426 19.0077C275.504 17.8752 277.824 17.3145 280.396 17.3145C282.485 17.3145 284.388 17.6773 286.114 18.4029C287.84 19.1286 289.291 20.1841 290.479 21.5695L287.422 24.4501C285.575 22.4601 283.31 21.4595 280.616 21.4595C278.868 21.4595 277.307 21.8443 275.922 22.603C274.536 23.3616 273.459 24.4281 272.678 25.7915C271.897 27.1549 271.513 28.6942 271.513 30.4204C271.513 32.1466 271.897 33.6859 272.678 35.0492C273.459 36.4126 274.536 37.4681 275.922 38.2377C277.307 39.0074 278.868 39.3812 280.616 39.3812C283.31 39.3812 285.586 38.3697 287.422 36.3576L290.479 39.2713C289.291 40.6566 287.829 41.7121 286.092 42.4378C284.355 43.1634 282.441 43.5263 280.352 43.5263C277.78 43.5263 275.46 42.9655 273.382 41.8331L273.404 41.8551Z" fill="#A6A6A6"/>
<path d="M295.825 41.855C293.736 40.7226 292.097 39.1613 290.91 37.1602C289.723 35.1592 289.129 32.9162 289.129 30.4423C289.129 27.9685 289.723 25.7255 290.91 23.7245C292.097 21.7234 293.736 20.1511 295.825 19.0296C297.914 17.8972 300.256 17.3364 302.85 17.3364C305.445 17.3364 307.787 17.8972 309.876 19.0296C311.965 20.1621 313.603 21.7234 314.791 23.7135C315.978 25.7035 316.572 27.9465 316.572 30.4533C316.572 32.9602 315.978 35.2031 314.791 37.1932C313.603 39.1833 311.965 40.7446 309.876 41.877C307.787 43.0095 305.445 43.5702 302.85 43.5702C300.256 43.5702 297.914 43.0095 295.825 41.877V41.855ZM307.446 38.2487C308.81 37.4791 309.876 36.4126 310.646 35.0492C311.426 33.6748 311.811 32.1466 311.811 30.4423C311.811 28.7381 311.426 27.2098 310.646 25.8355C309.865 24.4611 308.799 23.3946 307.446 22.636C306.083 21.8663 304.555 21.4925 302.861 21.4925C301.168 21.4925 299.629 21.8773 298.277 22.636C296.913 23.4056 295.847 24.4721 295.077 25.8355C294.296 27.2098 293.912 28.7381 293.912 30.4423C293.912 32.1466 294.296 33.6748 295.077 35.0492C295.858 36.4236 296.924 37.4901 298.277 38.2487C299.64 39.0184 301.168 39.3922 302.861 39.3922C304.555 39.3922 306.094 39.0074 307.446 38.2487Z" fill="#A6A6A6"/>
<path d="M323.936 19.3707H314.756V17.6995H334.964V19.3707H325.784V43.1856H323.926V19.3707H323.936Z" fill="#A6A6A6"/>
<path d="M335.986 17.6995H337.844V43.1856H335.986V17.6995Z" fill="#A6A6A6"/>
<path d="M343.154 17.6995H345.012V41.5144H359.69V43.1856H343.154V17.6995Z" fill="#A6A6A6"/>
<path d="M378.48 41.5144V43.1856H360.889V17.6995H377.931V19.3707H362.747V29.42H376.325V31.0583H362.747V41.5144H378.48Z" fill="#A6A6A6"/>
</svg>
