<svg width="118" height="23" viewBox="0 0 118 23" fill="none" xmlns="http://www.w3.org/2000/svg">
<path d="M11.2697 0L13.7998 7.78714H21.9877L15.3636 12.5999L17.8938 20.387L11.2697 15.5743L4.64552 20.387L7.17571 12.5999L0.551576 7.78714H8.73946L11.2697 0Z" fill="#FFC000"/>
<path d="M42.8087 0L45.3389 7.78714H53.5268L46.9027 12.5999L49.4328 20.387L42.8087 15.5743L36.1846 20.387L38.7148 12.5999L32.0906 7.78714H40.2785L42.8087 0Z" fill="#FFC000"/>
<path d="M74.3478 0L76.878 7.78714H85.0659L78.4417 12.5999L80.9719 20.387L74.3478 15.5743L67.7236 20.387L70.2538 12.5999L63.6297 7.78714H71.8176L74.3478 0Z" fill="#FFC000"/>
<path d="M105.887 0L108.417 7.78714H116.605L109.981 12.5999L112.511 20.387L105.887 15.5743L99.2627 20.387L101.793 12.5999L95.1688 7.78714H103.357L105.887 0Z" fill="#FFC000"/>
</svg>
