<svg width="178" height="26" viewBox="0 0 178 26" fill="none" xmlns="http://www.w3.org/2000/svg">
<path d="M12.7683 0.0966797L15.6218 8.87885H24.8559L17.3853 14.3065L20.2388 23.0887L12.7683 17.661L5.29771 23.0887L8.15121 14.3065L0.68065 8.87885H9.91477L12.7683 0.0966797Z" fill="#E2B93B"/>
<path d="M50.8972 0.0966797L53.7507 8.87885H62.9848L55.5142 14.3065L58.3677 23.0887L50.8972 17.661L43.4266 23.0887L46.2801 14.3065L38.8096 8.87885H48.0437L50.8972 0.0966797Z" fill="#E2B93B"/>
<path d="M89.0261 0.0966797L91.8796 8.87885H101.114L93.6431 14.3065L96.4966 23.0887L89.0261 17.661L81.5555 23.0887L84.409 14.3065L76.9385 8.87885H86.1726L89.0261 0.0966797Z" fill="#E2B93B"/>
<path d="M127.155 0.0966797L130.008 8.87885H139.243L131.772 14.3065L134.626 23.0887L127.155 17.661L119.684 23.0887L122.538 14.3065L115.067 8.87885H124.301L127.155 0.0966797Z" fill="#E2B93B"/>
<path d="M165.284 0.0966797L168.137 8.87885H177.372L169.901 14.3065L172.754 23.0887L165.284 17.661L157.813 23.0887L160.667 14.3065L153.196 8.87885H162.43L165.284 0.0966797Z" fill="#E2B93B"/>
</svg>
