<svg width="359" height="93" viewBox="0 0 359 93" fill="none" xmlns="http://www.w3.org/2000/svg">
<path d="M284.164 74.1974V92.428H220.803V88.1746C258.017 45.1639 262.885 38.1125 262.885 28.7777C262.885 22.5042 258.669 18.301 252.534 18.301C246.11 18.301 241.944 22.6297 241.944 29.0286V30.7475H222.509V28.8655C222.509 12.266 234.153 0.246094 252.208 0.246094C269.961 0.246094 282.471 12.0025 282.471 28.6146C282.471 39.7186 277.69 49.8188 256.574 74.2601L284.164 74.1974Z" fill="#F8E700"/>
<path d="M358.657 74.1974V92.428H295.295V88.1746C332.509 45.1639 337.377 38.1125 337.377 28.7777C337.377 22.5042 333.161 18.301 327.026 18.301C320.602 18.301 316.436 22.6297 316.436 29.0286V30.7475H297.001V28.8655C297.001 12.266 308.645 0.246094 326.687 0.246094C344.454 0.246094 356.95 12.0025 356.95 28.6146C356.95 39.7186 352.182 49.8188 331.066 74.2601L358.657 74.1974Z" fill="#F8E700"/>
<path d="M57.668 20.4968H65.5223V73.0431H57.7181L57.668 20.4968Z" fill="#373737"/>
<path d="M96.9654 33.169C108.32 33.169 116.626 41.6507 116.626 53.0683C116.626 64.486 108.32 72.9802 96.9654 72.9802C92.3644 73.0228 87.905 71.3906 84.4186 68.3881V91.7503H76.627V33.169H81.8339L83.3019 38.7524C85.0918 36.9538 87.2246 35.5329 89.5738 34.5739C91.923 33.6148 94.4408 33.1371 96.978 33.169H96.9654ZM108.734 53.0683C108.727 50.6146 107.992 48.2182 106.623 46.182C105.254 44.1458 103.312 42.5612 101.042 41.6285C98.7728 40.6959 96.2777 40.457 93.8724 40.942C91.4672 41.4271 89.2597 42.6144 87.5291 44.3538C85.7984 46.0932 84.6223 48.3066 84.1494 50.7143C83.6765 53.122 83.928 55.6159 84.8721 57.8807C85.8163 60.1455 87.4106 62.0795 89.4537 63.4383C91.4968 64.7972 93.8969 65.5198 96.3506 65.5148C97.9946 65.5602 99.6304 65.2688 101.158 64.6585C102.685 64.0483 104.071 63.1321 105.231 61.9663C106.391 60.8005 107.3 59.4097 107.902 57.8795C108.505 56.3493 108.788 54.712 108.734 53.0683Z" fill="#373737"/>
<path d="M159.474 49.179V73.018H151.682V50.785C151.682 43.9093 148.734 40.233 142.975 40.233C137.216 40.233 132.787 45.0009 132.787 51.726V72.9804H124.982V20.4968H132.787V38.4138C134.354 36.7237 136.264 35.3874 138.388 34.4938C140.513 33.6003 142.804 33.17 145.108 33.2319C153.953 33.2319 159.474 39.3924 159.474 49.179Z" fill="#373737"/>
<path d="M207.867 33.1688V72.98H201.593L200.828 67.4092C199.018 69.2139 196.863 70.6359 194.492 71.5908C192.121 72.5457 189.582 73.0139 187.026 72.9675C181.749 72.9675 176.687 70.871 172.955 67.1391C169.223 63.4073 167.127 58.3458 167.127 53.0681C167.127 47.7905 169.223 42.729 172.955 38.9972C176.687 35.2653 181.749 33.1688 187.026 33.1688C189.601 33.1268 192.159 33.6065 194.543 34.579C196.928 35.5515 199.092 36.9967 200.903 38.8275L201.806 33.1688H207.867ZM200.05 53.0431C200.04 50.5899 199.303 48.1947 197.933 46.1602C196.562 44.1256 194.619 42.543 192.349 41.6122C190.079 40.6815 187.585 40.4444 185.18 40.9309C182.776 41.4173 180.57 42.6056 178.84 44.3455C177.111 46.0854 175.936 48.2989 175.464 50.7062C174.992 53.1136 175.244 55.6068 176.189 57.8708C177.133 60.1349 178.728 62.0682 180.771 63.4265C182.813 64.7847 185.213 65.507 187.666 65.5021C189.311 65.5476 190.948 65.2558 192.476 64.6448C194.004 64.0338 195.391 63.1164 196.551 61.9493C197.711 60.7821 198.62 59.3898 199.222 57.8581C199.824 56.3264 200.105 54.6878 200.05 53.0431Z" fill="#373737"/>
<path d="M53.9177 69.0908C53.8425 69.6658 53.6458 70.2182 53.3408 70.7114C53.0358 71.2046 52.6294 71.6273 52.1486 71.9515C48.5978 73.8712 44.0684 72.0268 41.3457 69.5299C39.0642 67.4249 37.4207 64.7205 36.603 61.7258C35.6746 58.2629 34.5704 54.825 33.4914 51.3872L32.3371 47.6231L32.1238 46.9456C31.1503 44.0888 29.2517 41.6383 26.7286 39.9821C24.5199 38.5169 21.9263 37.7397 19.2758 37.7487C18.7135 37.748 18.1517 37.7857 17.5945 37.8616C10.882 38.6772 8.81172 44.3985 8.81172 51.3244C8.81172 58.8525 11.7477 64.8876 19.2507 64.8876C21.9488 64.8836 24.5844 64.0743 26.8197 62.5632C29.055 61.0521 30.7883 58.9082 31.7976 56.4059V56.4937L34.8465 66.2929C32.8768 68.3654 30.5137 70.0246 27.8955 71.1736L27.1176 71.4873C24.5943 72.4892 21.9029 73.0002 19.188 72.9929C7.21827 72.9929 0.65625 63.2941 0.65625 51.3244C0.65625 40.7725 5.07274 31.9646 15.0726 29.9947C17.8754 29.4253 20.7641 29.4253 23.5668 29.9947C24.7786 30.2429 25.9667 30.5955 27.1176 31.0487C31.2026 32.6667 34.7019 35.4837 37.1551 39.1289L37.6193 37.6232L39.4386 32.1152H47.958L41.9731 51.4499L44.0308 57.9617C44.6236 59.7984 45.3104 61.6033 46.0885 63.3694C46.7396 65.1426 47.6078 66.8283 48.6731 68.3882C49.2276 69.1424 50.018 69.69 50.919 69.944C51.4557 70.0721 52.0179 70.0416 52.5376 69.8562C52.9767 69.5676 53.9177 69.0908 53.9177 69.0908Z" fill="#373737"/>
</svg>
