<svg width="234" height="60" viewBox="0 0 234 60" fill="none" xmlns="http://www.w3.org/2000/svg">
<path d="M185.025 48.1339V60H143.783V57.2315C168.005 29.2364 171.174 24.6468 171.174 18.5708C171.174 14.4875 168.43 11.7517 164.437 11.7517C160.255 11.7517 157.544 14.5692 157.544 18.7342V19.853H144.894V18.628C144.894 7.8236 152.472 0 164.224 0C175.78 0 183.922 7.6521 183.922 18.4647C183.922 25.6921 180.811 32.2662 167.066 48.1748L185.025 48.1339Z" fill="#F8E700"/>
<path d="M233.509 48.1339V60H192.268V57.2315C216.49 29.2364 219.658 24.6468 219.658 18.5708C219.658 14.4875 216.914 11.7517 212.921 11.7517C208.74 11.7517 206.028 14.5692 206.028 18.7342V19.853H193.378V18.628C193.378 7.8236 200.957 0 212.7 0C224.264 0 232.398 7.6521 232.398 18.4647C232.398 25.6921 229.295 32.2662 215.551 48.1748L233.509 48.1339Z" fill="#F8E700"/>
<path d="M37.6016 13.181H42.7138V47.3827H37.6342L37.6016 13.181Z" fill="#373737"/>
<path d="M63.1795 21.4292C70.5702 21.4292 75.9765 26.9498 75.9765 34.3814C75.9765 41.813 70.5702 47.3418 63.1795 47.3418C60.1847 47.3695 57.2822 46.3072 55.0129 44.3528V59.5591H49.9414V21.4292H53.3305L54.286 25.0633C55.4511 23.8927 56.8393 22.9679 58.3683 22.3436C59.8974 21.7194 61.5362 21.4084 63.1876 21.4292H63.1795ZM70.8397 34.3814C70.8349 32.7843 70.3567 31.2246 69.4655 29.8992C68.5744 28.5739 67.3103 27.5425 65.8331 26.9354C64.3559 26.3284 62.7318 26.1729 61.1663 26.4886C59.6007 26.8043 58.1639 27.5771 57.0374 28.7093C55.911 29.8414 55.1455 31.2821 54.8377 32.8493C54.5298 34.4164 54.6935 36.0396 55.3081 37.5137C55.9226 38.9879 56.9604 40.2467 58.2902 41.1311C59.62 42.0156 61.1822 42.4859 62.7793 42.4827C63.8493 42.5122 64.914 42.3226 65.908 41.9253C66.902 41.5281 67.8043 40.9318 68.5593 40.173C69.3142 39.4142 69.906 38.5089 70.2982 37.513C70.6904 36.517 70.8747 35.4513 70.8397 34.3814Z" fill="#373737"/>
<path d="M103.864 31.8499V47.3664H98.7926V32.8952C98.7926 28.4199 96.8734 26.0271 93.125 26.0271C89.3765 26.0271 86.4937 29.1304 86.4937 33.5077V47.3419H81.4141V13.181H86.4937V24.8429C87.5138 23.7429 88.7568 22.8731 90.1397 22.2915C91.5226 21.7099 93.0136 21.4299 94.5133 21.4701C100.271 21.4701 103.864 25.4799 103.864 31.8499Z" fill="#373737"/>
<path d="M135.363 21.4289V47.3415H131.279L130.781 43.7156C129.603 44.8902 128.2 45.8158 126.657 46.4373C125.114 47.0588 123.461 47.3635 121.798 47.3334C118.363 47.3334 115.068 45.9688 112.639 43.5397C110.21 41.1107 108.846 37.8163 108.846 34.3811C108.846 30.946 110.21 27.6515 112.639 25.2225C115.068 22.7935 118.363 21.4289 121.798 21.4289C123.474 21.4016 125.138 21.7138 126.691 22.3468C128.243 22.9798 129.651 23.9204 130.83 25.112L131.418 21.4289H135.363ZM130.275 34.3648C130.268 32.7681 129.789 31.2091 128.897 29.8848C128.005 28.5606 126.74 27.5304 125.263 26.9246C123.785 26.3188 122.161 26.1645 120.596 26.4811C119.031 26.7978 117.595 27.5712 116.47 28.7037C115.344 29.8361 114.579 31.2769 114.272 32.8438C113.965 34.4107 114.129 36.0335 114.744 37.5071C115.359 38.9808 116.397 40.2391 117.726 41.1232C119.056 42.0073 120.618 42.4774 122.214 42.4742C123.285 42.5038 124.351 42.3139 125.345 41.9162C126.34 41.5185 127.242 40.9214 127.997 40.1617C128.753 39.402 129.344 38.4958 129.736 37.4989C130.127 36.5019 130.311 35.4353 130.275 34.3648Z" fill="#373737"/>
<path d="M35.1594 44.8101C35.1104 45.1843 34.9824 45.5439 34.7839 45.8649C34.5854 46.1859 34.3209 46.4611 34.0079 46.6721C31.6968 47.9216 28.7486 46.7211 26.9765 45.0959C25.4914 43.7258 24.4217 41.9655 23.8895 40.0163C23.2852 37.7623 22.5665 35.5247 21.8642 33.287L21.1128 30.837L20.974 30.396C20.3404 28.5366 19.1046 26.9416 17.4624 25.8636C16.0247 24.9099 14.3366 24.4041 12.6114 24.4099C12.2454 24.4095 11.8798 24.434 11.5171 24.4834C7.14796 25.0143 5.80048 28.7382 5.80048 33.2462C5.80048 38.1461 7.71145 42.0743 12.5951 42.0743C14.3513 42.0717 16.0667 41.5449 17.5216 40.5614C18.9766 39.5778 20.1047 38.1823 20.7617 36.5537V36.6108L22.7462 42.9889C21.4641 44.3379 19.926 45.4179 18.2219 46.1657L17.7155 46.3699C16.0732 47.0221 14.3214 47.3547 12.5543 47.3499C4.76332 47.3499 0.492188 41.0371 0.492188 33.2462C0.492188 26.3781 3.36682 20.6451 9.8756 19.363C11.6999 18.9923 13.5801 18.9923 15.4044 19.363C16.1931 19.5245 16.9664 19.754 17.7155 20.049C20.3744 21.1021 22.6521 22.9357 24.2488 25.3082L24.551 24.3283L25.7351 20.7431H31.2803L27.3848 33.3279L28.7241 37.5663C29.11 38.7618 29.557 39.9366 30.0634 41.0861C30.4872 42.2403 31.0523 43.3375 31.7458 44.3528C32.1067 44.8437 32.6211 45.2001 33.2076 45.3654C33.5569 45.4488 33.9228 45.4289 34.2611 45.3083C34.5469 45.1204 35.1594 44.8101 35.1594 44.8101Z" fill="#373737"/>
</svg>
