<svg width="314" height="73" viewBox="0 0 314 73" fill="none" xmlns="http://www.w3.org/2000/svg">
<path d="M0.65625 47.5882C0.65625 40.5707 2.78925 34.7867 7.05524 30.2363C11.3212 25.6717 16.7284 22.5789 23.3087 22.5789C29.2811 22.5789 33.0778 22.8348 38.2396 26.5782V23.656H50.5257V71.4778H38.2503V68.5983C33.707 72.331 29.3877 72.331 23.106 72.331C18.7441 72.331 11.2039 69.6008 6.99125 65.0468C2.77858 60.4929 0.666909 54.6698 0.666909 47.5882M13.5929 47.6842C13.5417 49.3515 13.8259 51.0121 14.4286 52.5675C15.0313 54.1229 15.9403 55.5414 17.1016 56.7388C18.2437 57.9109 19.6098 58.8415 21.1187 59.4753C22.6275 60.1091 24.2483 60.4332 25.8849 60.4282C27.5214 60.4232 29.1403 60.0893 30.6453 59.4464C32.1502 58.8034 33.5106 57.8645 34.6455 56.6855C36.9838 54.2093 38.2455 50.9074 38.1543 47.5029C38.1929 45.858 37.9024 44.2219 37.2998 42.6908C36.6973 41.1597 35.7948 39.7645 34.6455 38.587C33.5375 37.4042 32.1927 36.4681 30.6987 35.8397C29.2048 35.2112 27.5953 34.9045 25.9749 34.9396C24.323 34.8926 22.6796 35.1931 21.1511 35.8214C19.6226 36.4497 18.243 37.3919 17.1016 38.587C15.943 39.7951 15.0361 41.2215 14.4338 42.7833C13.8314 44.345 13.5456 46.011 13.5929 47.6842Z" fill="#373737"/>
<path d="M204.689 47.5882C204.689 40.5707 206.822 34.7867 211.088 30.2363C215.354 25.6717 220.751 22.5789 227.342 22.5789C233.304 22.5789 237.111 22.8348 242.273 26.5782V23.656H254.559V71.4778H242.273V68.5983C237.73 72.331 233.41 72.331 227.129 72.331C222.767 72.331 215.237 69.6008 211.014 65.0468C206.79 60.4929 204.689 54.6698 204.689 47.5882ZM217.615 47.6842C217.564 49.3515 217.848 51.0121 218.451 52.5675C219.054 54.1229 219.963 55.5414 221.124 56.7388C222.267 57.9112 223.634 58.8421 225.144 59.476C226.654 60.1099 228.275 60.434 229.913 60.429C231.55 60.424 233.17 60.0901 234.676 59.447C236.182 58.804 237.543 57.8648 238.679 56.6855C241.012 54.2062 242.273 50.9064 242.188 47.5029C242.224 45.8583 241.932 44.2229 241.33 42.6921C240.727 41.1614 239.826 39.7659 238.679 38.587C237.568 37.405 236.221 36.4696 234.725 35.8412C233.23 35.2129 231.619 34.9057 229.997 34.9396C228.346 34.8926 226.702 35.1931 225.174 35.8214C223.645 36.4497 222.266 37.3919 221.124 38.587C219.966 39.7951 219.059 41.2215 218.456 42.7833C217.854 44.345 217.568 46.011 217.615 47.6842Z" fill="#373737"/>
<path d="M54.248 71.5419V23.6988H70.1495V29.5005C74.6928 25.3519 76.5485 23.4855 86.147 23.1016L86.0403 37.9472C82.6702 37.5953 76.4419 37.8192 74.3089 40.2402C72.1759 42.6611 70.9921 45.9566 70.9921 50.1053L70.8534 71.5419H54.248Z" fill="#373737"/>
<path d="M89.2305 25.6824H96.216V13.311H112.907V25.6824H123.87V38.4804H112.811V52.4515C112.811 54.9329 113.305 56.7495 114.293 57.9013C115.274 59.0425 119.626 59.949 122.932 57.8267L126.846 69.3448C122.836 73.3442 105.281 73.2589 100.29 67.3078C97.5234 64.0113 96.0624 59.8143 96.184 55.5124V38.4804H89.2305V25.6824Z" fill="#373737"/>
<path d="M149.944 23.8906H133.189V71.5204H149.944V23.8906Z" fill="#373737"/>
<path d="M161.729 55.7363L156.812 67.0731C168.715 74.048 191.154 73.8987 198.406 64.5029C202.672 57.56 202.555 51.3636 196.476 46.2124C192.871 43.8448 187.133 42.3517 179.753 41.5305C178.245 41.4074 176.766 41.0475 175.37 40.464C172.255 39.0776 172.554 37.5703 176.265 35.9421C177.528 35.397 178.89 35.121 180.265 35.1315C185.149 34.9985 189.982 36.1535 194.279 38.4803L199.611 27.2608C190.173 21.5123 169.525 21.0431 161.921 28.9565C156.642 34.9396 156.215 40.9013 160.225 46.831C164.043 51.7369 171.807 53.39 180.595 54.2112C181.458 54.278 182.304 54.4833 183.102 54.8191C186.077 56.0776 186.781 57.4213 184.275 58.9038C183.227 59.5265 182.046 59.892 180.83 59.9703C174.189 60.4539 167.553 58.9701 161.75 55.7043" fill="#373737"/>
<path d="M313.406 41.552V71.1686H296.886L296.768 45.5727C296.288 40.2402 293.74 37.3073 288.706 37.2753C283.16 37.6592 280.718 40.5388 279.939 45.7326V71.1686H262.758V23.9441H278.659V29.4046C282.669 24.8613 288.204 23.0056 294.774 22.9309C306.857 23.7521 312.275 30.695 313.406 41.552Z" fill="#373737"/>
<path d="M136.132 3.02979C140.259 7.39176 139.534 11.9457 135.311 16.649C132.645 11.8711 133.061 7.3491 136.132 3.02979Z" fill="#D1B8AC"/>
<path d="M149.838 17.8759C145.935 13.3113 141.306 13.5566 136.219 17.2574C140.687 20.4569 145.231 20.4569 149.838 17.8759Z" fill="#D1B8AC"/>
<path d="M140.516 11.157C143.971 8.62936 145.219 5.02459 143.491 -0.00927734C139.297 2.92715 138.305 6.64923 140.516 11.157Z" fill="#D1B8AC"/>
<path d="M141.307 11.7433C144.346 14.7614 148.09 15.4227 152.793 12.9271C149.238 9.2512 145.409 8.8566 141.307 11.7433Z" fill="#D1B8AC"/>
<path d="M144.26 8.81083C148.803 9.0348 150.659 6.59252 150.477 2.99842C146.969 2.92377 145.038 4.64082 144.26 8.81083Z" fill="#D1B8AC"/>
</svg>
