<svg width="313" height="95" viewBox="0 0 313 95" fill="none" xmlns="http://www.w3.org/2000/svg">
<path d="M43.6313 24.5933C38.9343 24.5933 34.3427 25.9862 30.4374 28.5959C26.5321 31.2057 23.4885 34.9149 21.6915 39.2546C19.8944 43.5943 19.4247 48.3694 20.3418 52.976C21.2588 57.5827 23.5214 61.8139 26.8434 65.1345C30.1653 68.4551 34.3975 70.716 39.0045 71.6312C43.6115 72.5464 48.3864 72.0747 52.7253 70.2759C57.0643 68.4771 60.7723 65.432 63.3805 61.5256C65.9886 57.6193 67.3797 53.0272 67.3778 48.3302C67.3778 45.2122 66.7635 42.1247 65.57 39.2442C64.3765 36.3637 62.6272 33.7465 60.422 31.5422C58.2168 29.3379 55.599 27.5897 52.718 26.3974C49.837 25.205 46.7493 24.592 43.6313 24.5933ZM43.6313 63.7063C40.5902 63.7063 37.6174 62.8045 35.0888 61.1149C32.5602 59.4254 30.5894 57.024 29.4256 54.2144C28.2618 51.4047 27.9573 48.3131 28.5506 45.3304C29.1439 42.3477 30.6083 39.608 32.7587 37.4576C34.9091 35.3072 37.6489 33.8428 40.6315 33.2495C43.6142 32.6562 46.7059 32.9607 49.5155 34.1245C52.3251 35.2883 54.7265 37.2591 56.4161 39.7877C58.1056 42.3162 59.0074 45.2891 59.0074 48.3302C59.0074 52.4082 57.3874 56.3191 54.5038 59.2027C51.6203 62.0863 47.7093 63.7063 43.6313 63.7063Z" fill="#33A1DB"/>
<path d="M110.912 48.3302C110.911 49.7349 111.033 51.1369 111.277 52.5202C112.192 57.6177 114.749 62.2762 118.557 65.786C122.365 69.2958 127.216 71.4644 132.371 71.9614C132.948 72.0191 133.525 72.0575 134.111 72.0671H147.997V63.5142H134.678C131.338 63.5736 128.073 62.5252 125.392 60.5328C122.711 58.5403 120.765 55.716 119.859 52.501H158.03C158.517 49.7289 158.517 46.8931 158.03 44.121C157.039 38.6431 154.156 33.6873 149.883 30.1185C145.611 26.5497 140.221 24.5947 134.654 24.5947C129.087 24.5947 123.697 26.5497 119.424 30.1185C115.152 33.6873 112.269 38.6431 111.277 44.121C111.033 45.5107 110.91 46.9192 110.912 48.3302ZM134.659 32.9541C138.004 32.9544 141.258 34.0459 143.927 36.0629C146.596 38.0799 148.535 40.9123 149.449 44.1306H119.859C120.775 40.9126 122.716 38.0811 125.387 36.0658C128.057 34.0505 131.313 32.9614 134.659 32.9637V32.9541Z" fill="#33A1DB"/>
<path d="M107.115 42.5926C107.045 37.7968 105.09 33.2213 101.673 29.8551C98.2565 26.4888 93.6525 24.602 88.8562 24.6025C86.4857 24.6 84.1381 25.0647 81.9474 25.9701C79.7567 26.8755 77.7659 28.2038 76.0889 29.879C74.4118 31.5542 73.0814 33.5436 72.1737 35.7333C71.266 37.9231 70.7988 40.2703 70.7988 42.6407V72.0667H79.2076V58.0264C81.7841 59.683 84.7419 60.6523 87.7991 60.8422L99.014 72.0667H110.911L97.5725 58.7087C100.479 57.1452 102.904 54.818 104.586 51.978C106.267 49.1381 107.142 45.893 107.115 42.5926ZM91.1434 52.2988C90.4861 52.4377 89.8163 52.5085 89.1445 52.5102C86.5957 52.5102 84.1514 51.4977 82.3491 49.6955C80.5469 47.8933 79.5344 45.4489 79.5344 42.9002C79.5314 42.2281 79.6023 41.5578 79.7458 40.9013C80.1053 39.2094 80.9147 37.6459 82.0888 36.3757C83.2628 35.1055 84.7579 34.1757 86.4163 33.6844C88.0747 33.193 89.835 33.1584 91.5114 33.5841C93.1879 34.0099 94.7183 34.8802 95.9414 36.1032C97.1645 37.3263 98.0348 38.8568 98.4605 40.5332C98.8862 42.2097 98.8516 43.9699 98.3603 45.6283C97.869 47.2868 96.9392 48.7818 95.669 49.9559C94.3988 51.1299 92.8353 51.9393 91.1434 52.2988Z" fill="#33A1DB"/>
<path d="M302.48 83.8491H70.5312C70.5312 86.5482 71.6035 89.1368 73.512 91.0454C75.4206 92.954 78.0092 94.0262 80.7083 94.0262H312.657C312.657 91.3271 311.585 88.7385 309.676 86.8299C307.768 84.9213 305.179 83.8491 302.48 83.8491Z" fill="#373737"/>
<path d="M50.1758 83.8488H46.1395C26.5638 83.8488 10.3324 68.194 10.1786 48.6183C10.1457 43.9383 11.037 39.2979 12.8014 34.9632C14.5657 30.6285 17.1685 26.6847 20.4603 23.358C23.7521 20.0313 27.6683 17.3872 31.9843 15.5774C36.3002 13.7675 40.9309 12.8274 45.611 12.8111H50.0989C52.798 12.8111 55.3866 11.7389 57.2952 9.83031C59.2037 7.92174 60.276 5.33316 60.276 2.63403H45.611C39.5857 2.64523 33.6222 3.84791 28.0635 6.17285C22.5049 8.49778 17.4609 11.8991 13.2219 16.181C8.98285 20.4629 5.63248 25.5408 3.3636 31.1226C1.09472 36.7043 -0.0478912 42.6797 0.00153781 48.7048C0.193739 73.8832 21.0764 94.0259 46.2645 94.0259H60.3528C60.3528 91.3268 59.2806 88.7382 57.372 86.8296C55.4635 84.921 52.8749 83.8488 50.1758 83.8488Z" fill="#33A1DB"/>
<path d="M178.7 57.056H191.443C195 57.1594 198.538 56.5042 201.822 55.134C204.562 53.9661 206.901 52.0218 208.549 49.5409C210.154 46.9472 210.966 43.9409 210.884 40.8918C210.978 37.8021 210.166 34.7524 208.549 32.1178C206.91 29.6352 204.568 27.6979 201.822 26.5536C198.535 25.1929 194.999 24.5381 191.443 24.6316H173.684V72.0862H178.7V57.056ZM202.12 32.0698C204.593 34.152 205.826 37.0894 205.82 40.8822C205.813 44.675 204.58 47.5805 202.12 49.5986C199.66 51.6551 196.056 52.6834 191.308 52.6834H178.7V28.9177H191.308C196.056 28.9177 199.66 29.9588 202.12 32.041V32.0698Z" fill="#373737"/>
<path d="M222.64 59.3626H249.126L254.795 72.0383H260.081L238.391 24.5837H233.442L211.752 72.0383H216.97L222.64 59.3626ZM235.883 29.7732L247.3 55.2976H224.428L235.883 29.7732Z" fill="#373737"/>
<path d="M300.558 69.0207C304.259 67.125 307.35 64.2237 309.476 60.6503C311.562 56.8723 312.657 52.6268 312.657 48.3109C312.657 43.9951 311.562 39.7497 309.476 35.9716C307.346 32.4008 304.256 29.5004 300.558 27.6012C296.432 25.5187 291.858 24.4824 287.238 24.5837H267.922V72.0382H287.238C291.859 72.1442 296.434 71.1077 300.558 69.0207ZM272.938 67.7041V28.9178H286.969C290.765 28.8274 294.525 29.6758 297.915 31.3876C300.909 32.9409 303.409 35.3011 305.132 38.2012C306.824 41.2954 307.71 44.7653 307.71 48.2917C307.71 51.8182 306.824 55.288 305.132 58.3823C303.419 61.2973 300.917 63.6691 297.915 65.2247C294.528 66.9455 290.767 67.7975 286.969 67.7041H272.938Z" fill="#373737"/>
<path d="M75.6043 9.09251C75.8895 8.89075 76.1192 8.62028 76.272 8.30614C76.4249 7.992 76.496 7.64435 76.4788 7.29542C76.4994 6.77866 76.3434 6.27028 76.0367 5.85391C75.722 5.46592 75.2906 5.18961 74.8066 5.06588C75.18 4.88621 75.4927 4.60124 75.7062 4.24606C75.9196 3.89089 76.0245 3.48103 76.0079 3.06698C76.021 2.73628 75.9514 2.40754 75.8054 2.11052C75.6594 1.8135 75.4417 1.5576 75.1718 1.366C74.4661 0.913732 73.6346 0.69828 72.7981 0.750955H68.7715V9.69794H73.048C73.9418 9.76105 74.8337 9.54983 75.6043 9.09251ZM70.0496 1.78884H72.6828C73.2142 1.75422 73.7436 1.88156 74.2012 2.15403C74.3646 2.27968 74.4971 2.44121 74.5882 2.62617C74.6793 2.81113 74.7267 3.01456 74.7267 3.22075C74.7267 3.42693 74.6793 3.63035 74.5882 3.81531C74.4971 4.00027 74.3646 4.16181 74.2012 4.28747C73.7436 4.55993 73.2142 4.68726 72.6828 4.65265H70.0496V1.78884ZM70.0496 8.67927V5.69054H72.9999C74.4606 5.69054 75.191 6.19026 75.191 7.18971C75.2073 7.41018 75.1653 7.63105 75.0691 7.83012C74.973 8.02918 74.8261 8.19942 74.6432 8.3237C74.1393 8.59305 73.5701 8.71621 72.9999 8.67927H70.0496Z" fill="#33A1DB"/>
<path d="M79.2859 10.9949C79.0689 11.1535 78.8049 11.2347 78.5363 11.2255C78.31 11.2266 78.0857 11.183 77.8763 11.0973C77.6668 11.0115 77.4764 10.8853 77.3158 10.7258L76.7969 11.6868C77.0122 11.9025 77.2757 12.0639 77.5657 12.1577C77.8751 12.2637 78.1996 12.3189 78.5267 12.3211C79.0276 12.3343 79.5195 12.1861 79.9298 11.8982C80.3951 11.5123 80.7471 11.0075 80.9484 10.4375L84.2543 2.97046H83.0434L80.6986 8.40977L78.3345 2.97046H77.0467L80.0451 9.75517L79.8336 10.2261C79.7125 10.521 79.5251 10.7841 79.2859 10.9949Z" fill="#33A1DB"/>
<path d="M90.6153 9.22698C91.3587 9.62826 92.1923 9.83333 93.037 9.8228C93.6954 9.82765 94.3483 9.70359 94.9591 9.45762C95.5309 9.2302 96.0412 8.87136 96.4486 8.41013L95.6221 7.60288C95.3007 7.95052 94.9093 8.22617 94.4737 8.41168C94.0381 8.5972 93.5681 8.68837 93.0947 8.67921C92.4637 8.68602 91.8416 8.53048 91.288 8.22754C90.7626 7.942 90.3267 7.51614 90.0291 6.99745C89.7269 6.45884 89.5681 5.8516 89.5681 5.234C89.5681 4.61639 89.7269 4.00915 90.0291 3.47054C90.3261 2.94892 90.7619 2.51982 91.288 2.23085C91.8423 1.93084 92.4645 1.77859 93.0947 1.78878C93.5664 1.77898 94.035 1.86797 94.4702 2.05002C94.9055 2.23207 95.2979 2.50317 95.6221 2.84589L96.4486 2.03864C96.0448 1.57996 95.5375 1.22416 94.9687 1.00075C94.2657 0.730485 93.5134 0.612167 92.7614 0.653576C92.0094 0.694986 91.2747 0.895185 90.6057 1.241C89.8985 1.62212 89.31 2.1907 88.9047 2.88433C88.5023 3.60209 88.291 4.41115 88.291 5.234C88.291 6.05684 88.5023 6.8659 88.9047 7.58366C89.3153 8.27644 89.9066 8.84448 90.6153 9.22698Z" fill="#33A1DB"/>
<path d="M98.9187 9.34204C99.4752 9.64618 100.101 9.80175 100.735 9.79372C101.369 9.80439 101.996 9.64866 102.551 9.34204C103.075 9.0537 103.51 8.62852 103.81 8.11196C104.114 7.56587 104.27 6.94955 104.262 6.32448C104.272 5.69915 104.117 5.08224 103.81 4.537C103.515 4.01608 103.079 3.58952 102.551 3.30691C101.995 3.00364 101.369 2.85124 100.735 2.86485C100.102 2.85345 99.476 3.00571 98.9187 3.30691C98.3891 3.58689 97.9519 4.01409 97.6597 4.537C97.3489 5.08046 97.1927 5.6986 97.2081 6.32448C97.1951 6.95008 97.3512 7.56759 97.6597 8.11196C97.9574 8.63065 98.3932 9.0565 98.9187 9.34204ZM98.7457 5.07517C98.9381 4.72257 99.2241 4.42991 99.5721 4.22948C99.9322 4.04009 100.333 3.94113 100.74 3.94113C101.147 3.94113 101.547 4.04009 101.907 4.22948C102.255 4.42762 102.538 4.72108 102.724 5.07517C102.92 5.46248 103.022 5.89044 103.022 6.32448C103.022 6.75852 102.92 7.18648 102.724 7.57379C102.535 7.92573 102.253 8.21844 101.907 8.41948C101.645 8.5752 101.355 8.67691 101.052 8.71865C100.75 8.76038 100.443 8.7413 100.148 8.6625C99.8539 8.58371 99.578 8.4468 99.3371 8.25983C99.0962 8.07287 98.8951 7.83961 98.7457 7.57379C98.5498 7.18648 98.4477 6.75852 98.4477 6.32448C98.4477 5.89044 98.5498 5.46248 98.7457 5.07517Z" fill="#33A1DB"/>
<path d="M107.193 6.33387C107.154 5.71309 107.361 5.10195 107.769 4.63288C107.974 4.42966 108.22 4.27164 108.49 4.16902C108.759 4.06639 109.048 4.02144 109.336 4.03706H109.615V2.84541C109.091 2.82657 108.571 2.93195 108.096 3.15293C107.686 3.3373 107.349 3.65136 107.135 4.04667V2.97034H105.953V9.69739H107.183L107.193 6.33387Z" fill="#33A1DB"/>
<path d="M112.179 9.35152C112.773 9.65785 113.434 9.80987 114.101 9.79358C114.624 9.79834 115.142 9.70376 115.629 9.51489C116.073 9.33838 116.466 9.05438 116.773 8.68842L116.1 7.9004C115.628 8.3736 115.001 8.66114 114.334 8.71054C113.667 8.75994 113.005 8.56791 112.468 8.16948C112.245 7.99508 112.061 7.77738 111.926 7.52959C111.79 7.2818 111.706 7.00909 111.68 6.72797H117.186C117.193 6.60635 117.193 6.48441 117.186 6.36278C117.195 5.72777 117.046 5.10044 116.754 4.53687C116.482 4.02164 116.068 3.59485 115.562 3.30678C115.033 3.00505 114.432 2.85229 113.823 2.86472C113.211 2.85433 112.607 3.0069 112.074 3.30678C111.562 3.59408 111.142 4.02061 110.863 4.53687C110.563 5.08436 110.411 5.70029 110.421 6.32434C110.408 6.94995 110.564 7.56746 110.872 8.11182C111.18 8.64167 111.634 9.07196 112.179 9.35152ZM112.362 4.44077C112.777 4.09357 113.301 3.90334 113.842 3.90334C114.383 3.90334 114.907 4.09357 115.322 4.44077C115.722 4.80473 115.972 5.30508 116.023 5.84384H111.67C111.717 5.30618 111.964 4.80571 112.362 4.44077Z" fill="#33A1DB"/>
<path d="M120.138 8.73642C120.409 9.09103 120.762 9.37464 121.167 9.56289C121.59 9.75094 122.049 9.84598 122.512 9.84158C123.129 9.85027 123.737 9.70141 124.28 9.40912C124.793 9.11954 125.215 8.6938 125.501 8.17903C125.791 7.62113 125.943 7.00138 125.943 6.37234C125.943 5.74331 125.791 5.12355 125.501 4.56565C125.215 4.05381 124.792 3.63133 124.28 3.34516C123.737 3.05287 123.129 2.90403 122.512 2.91271C122.035 2.90574 121.563 3.00419 121.128 3.20101C120.713 3.3853 120.355 3.67729 120.09 4.0467V2.97037H118.908V12.2537H120.138V8.73642ZM120.427 5.12303C120.619 4.7758 120.901 4.48692 121.243 4.28695C121.597 4.08412 121.999 3.98115 122.406 3.98904C122.815 3.98291 123.219 4.0822 123.579 4.27734C123.924 4.47838 124.207 4.77109 124.396 5.12303C124.598 5.50846 124.703 5.93716 124.703 6.37234C124.703 6.80752 124.598 7.23621 124.396 7.62165C124.204 7.97155 123.922 8.26361 123.579 8.46734C123.222 8.67006 122.817 8.77297 122.406 8.76525C121.999 8.77314 121.597 8.67017 121.243 8.46734C120.895 8.26691 120.609 7.97425 120.417 7.62165C120.219 7.23533 120.12 6.80617 120.129 6.37234C120.11 5.92104 120.213 5.47305 120.427 5.07498V5.12303Z" fill="#33A1DB"/>
<path d="M128.872 6.33415C128.836 5.71536 129.039 5.10625 129.439 4.63317C129.646 4.43017 129.894 4.27239 130.165 4.16983C130.436 4.06726 130.726 4.02215 131.015 4.03734H131.294V2.84569C130.768 2.82786 130.245 2.93316 129.766 3.15321C129.357 3.33877 129.02 3.65252 128.805 4.04695V2.97062H127.623V9.69768H128.853L128.872 6.33415Z" fill="#33A1DB"/>
<path d="M133.834 9.34202C134.393 9.64149 135.017 9.79819 135.65 9.79819C136.284 9.79819 136.908 9.64149 137.467 9.34202C137.99 9.05368 138.425 8.6285 138.726 8.11194C139.03 7.56585 139.186 6.94953 139.177 6.32446C139.188 5.69913 139.032 5.08222 138.726 4.53698C138.431 4.01606 137.994 3.5895 137.467 3.30689C136.905 3.01622 136.283 2.8645 135.65 2.8645C135.018 2.8645 134.395 3.01622 133.834 3.30689C133.305 3.58687 132.867 4.01407 132.575 4.53698C132.261 5.07966 132.102 5.69774 132.114 6.32446C132.104 6.9509 132.264 7.56834 132.575 8.11194C132.873 8.63063 133.309 9.05649 133.834 9.34202ZM133.661 5.07515C133.85 4.72322 134.133 4.43049 134.478 4.22946C134.838 4.03432 135.241 3.93504 135.65 3.94116C136.06 3.93373 136.464 4.03309 136.823 4.22946C137.17 4.4276 137.454 4.72106 137.64 5.07515C137.836 5.46246 137.938 5.89042 137.938 6.32446C137.938 6.7585 137.836 7.18646 137.64 7.57377C137.451 7.92571 137.168 8.21842 136.823 8.41946C136.466 8.62308 136.061 8.72605 135.65 8.71738C135.24 8.72509 134.835 8.62218 134.478 8.41946C134.135 8.21573 133.853 7.92368 133.661 7.57377C133.465 7.18646 133.363 6.7585 133.363 6.32446C133.363 5.89042 133.465 5.46246 133.661 5.07515Z" fill="#33A1DB"/>
<path d="M141.971 9.34202C142.529 9.64149 143.153 9.79819 143.787 9.79819C144.421 9.79819 145.045 9.64149 145.603 9.34202C146.124 9.05346 146.556 8.62812 146.853 8.11194C147.164 7.56834 147.323 6.9509 147.314 6.32446C147.326 5.69774 147.166 5.07966 146.853 4.53698C146.561 4.01674 146.128 3.5901 145.603 3.30689C145.042 3.01622 144.419 2.8645 143.787 2.8645C143.155 2.8645 142.532 3.01622 141.971 3.30689C141.441 3.58932 141.001 4.01571 140.702 4.53698C140.396 5.08222 140.24 5.69913 140.251 6.32446C140.242 6.94953 140.398 7.56585 140.702 8.11194C141.006 8.62917 141.444 9.0543 141.971 9.34202ZM141.798 5.07515C141.987 4.72322 142.269 4.43049 142.615 4.22946C142.976 4.04003 143.379 3.94108 143.787 3.94108C144.195 3.94108 144.598 4.04003 144.959 4.22946C145.305 4.43049 145.587 4.72322 145.776 5.07515C145.964 5.46496 146.061 5.89194 146.061 6.32446C146.061 6.75698 145.964 7.18397 145.776 7.57377C145.585 7.92368 145.303 8.21573 144.959 8.41946C144.599 8.61459 144.197 8.7168 143.787 8.7168C143.378 8.7168 142.975 8.61459 142.615 8.41946C142.272 8.21573 141.989 7.92368 141.798 7.57377C141.596 7.18834 141.49 6.75964 141.49 6.32446C141.49 5.88928 141.596 5.46059 141.798 5.07515Z" fill="#33A1DB"/>
<path d="M149.2 9.69768H150.43V3.93163H152.352V2.97063H150.382V2.38441C150.382 1.58677 150.747 1.19276 151.478 1.19276C151.824 1.18701 152.163 1.29878 152.439 1.5099L152.813 0.548889C152.625 0.417468 152.418 0.316892 152.198 0.250972C151.948 0.184492 151.689 0.152168 151.429 0.154873C151.129 0.135768 150.827 0.17787 150.543 0.278628C150.259 0.379386 149.998 0.536709 149.777 0.741088C149.575 0.955067 149.42 1.20762 149.319 1.48347C149.218 1.75931 149.174 2.05273 149.19 2.34597V2.97063H148.037V3.93163H149.19L149.2 9.69768Z" fill="#33A1DB"/>
</svg>
