<svg width="200" height="60" viewBox="0 0 200 60" fill="none" xmlns="http://www.w3.org/2000/svg">
<path d="M193.412 53.4954H45.1641C45.1641 55.2205 45.8494 56.875 47.0692 58.0948C48.2891 59.3147 49.9435 60 51.6687 60H199.917C199.917 58.2748 199.232 56.6204 198.012 55.4005C196.792 54.1807 195.138 53.4954 193.412 53.4954Z" fill="#373737"/>
<path d="M114.298 36.3708H122.443C124.716 36.4368 126.977 36.0181 129.076 35.1423C130.828 34.3959 132.322 33.1532 133.376 31.5676C134.401 29.9098 134.92 27.9883 134.868 26.0396C134.928 24.0648 134.409 22.1156 133.376 20.4317C132.328 18.845 130.831 17.6068 129.076 16.8754C126.975 16.0057 124.715 15.5872 122.443 15.647H111.092V45.9772H114.298V36.3708ZM129.267 20.401C130.847 21.7318 131.635 23.6093 131.631 26.0334C131.627 28.4576 130.839 30.3146 129.267 31.6044C127.694 32.9189 125.391 33.5761 122.357 33.5761H114.298V18.3864H122.357C125.391 18.3864 127.694 19.0518 129.267 20.3826V20.401Z" fill="#373737"/>
<path d="M142.383 37.8451H159.311L162.935 45.9467H166.313L152.45 15.6165H149.287L135.424 45.9467H138.759L142.383 37.8451ZM150.847 18.9332L158.144 35.247H143.525L150.847 18.9332Z" fill="#373737"/>
<path d="M192.183 44.0178C194.549 42.8062 196.524 40.9519 197.883 38.668C199.217 36.2533 199.916 33.5398 199.916 30.7814C199.916 28.0229 199.217 25.3095 197.883 22.8948C196.522 20.6125 194.547 18.7587 192.183 17.5449C189.546 16.2139 186.623 15.5516 183.67 15.6163H171.324V45.9465H183.67C186.623 46.0142 189.547 45.3517 192.183 44.0178ZM174.53 43.1764V18.3864H183.498C185.924 18.3286 188.328 18.8709 190.494 19.9649C192.408 20.9577 194.006 22.4662 195.107 24.3198C196.188 26.2975 196.755 28.5152 196.755 30.7691C196.755 33.023 196.188 35.2407 195.107 37.2184C194.012 39.0815 192.413 40.5974 190.494 41.5917C188.329 42.6915 185.925 43.2361 183.498 43.1764H174.53Z" fill="#373737"/>
<path d="M27.9704 15.6224C24.9683 15.6224 22.0337 16.5127 19.5376 18.1807C17.0416 19.8487 15.0963 22.2195 13.9477 24.9931C12.7991 27.7668 12.4989 30.8188 13.0851 33.7631C13.6712 36.7074 15.1173 39.4117 17.2405 41.534C19.3637 43.6564 22.0686 45.1014 25.0132 45.6864C27.9577 46.2713 31.0096 45.9698 33.7828 44.8202C36.556 43.6705 38.9259 41.7242 40.5929 39.2275C42.2599 36.7308 43.149 33.7958 43.1478 30.7937C43.1478 28.8009 42.7552 26.8275 41.9923 24.9865C41.2295 23.1454 40.1115 21.4727 38.702 20.0638C37.2926 18.655 35.6194 17.5376 33.778 16.7755C31.9367 16.0135 29.9632 15.6216 27.9704 15.6224ZM27.9704 40.6212C26.0267 40.6212 24.1266 40.0449 22.5105 38.965C20.8944 37.8851 19.6347 36.3503 18.8909 34.5545C18.1471 32.7588 17.9525 30.7828 18.3317 28.8764C18.7109 26.9701 19.6469 25.219 21.0213 23.8446C22.3957 22.4702 24.1468 21.5342 26.0531 21.155C27.9595 20.7758 29.9355 20.9704 31.7312 21.7142C33.527 22.4581 35.0618 23.7177 36.1417 25.3338C37.2215 26.9499 37.7979 28.85 37.7979 30.7937C37.7979 33.4001 36.7625 35.8998 34.9195 37.7428C33.0765 39.5858 30.5768 40.6212 27.9704 40.6212Z" fill="#33A1DB"/>
<path d="M70.9727 30.7937C70.972 31.6914 71.0501 32.5875 71.2061 33.4717C71.7909 36.7296 73.4248 39.7071 75.8588 41.9504C78.2928 44.1937 81.3934 45.5797 84.6882 45.8973C85.0568 45.9342 85.4253 45.9588 85.8 45.9649H94.6755V40.4983H86.1624C84.0278 40.5363 81.9407 39.8663 80.2272 38.5928C78.5137 37.3193 77.2703 35.5142 76.6911 33.4594H101.088C101.399 31.6876 101.399 29.8751 101.088 28.1034C100.454 24.6022 98.6115 21.4347 95.8807 19.1538C93.15 16.8728 89.705 15.6233 86.147 15.6233C82.589 15.6233 79.144 16.8728 76.4133 19.1538C73.6825 21.4347 71.8396 24.6022 71.2061 28.1034C71.0496 28.9916 70.9715 29.8918 70.9727 30.7937ZM86.1501 20.9661C88.2883 20.9663 90.3681 21.6639 92.0741 22.9531C93.78 24.2422 95.0189 26.0526 95.6029 28.1095H76.6911C77.2765 26.0527 78.5168 24.243 80.2239 22.9549C81.931 21.6669 84.0116 20.9708 86.1501 20.9723V20.9661Z" fill="#33A1DB"/>
<path d="M68.5454 27.1268C68.5002 24.0615 67.2508 21.1372 65.0671 18.9856C62.8834 16.8341 59.9408 15.6282 56.8752 15.6285C55.3602 15.6269 53.8597 15.924 52.4595 16.5026C51.0593 17.0813 49.7869 17.9302 48.7151 19.001C47.6432 20.0717 46.7929 21.3432 46.2127 22.7427C45.6326 24.1423 45.334 25.6424 45.334 27.1575V45.9649H50.7084V36.9912C52.3552 38.0499 54.2456 38.6695 56.1996 38.7908L63.3675 45.9649H70.9716L62.4462 37.4273C64.3039 36.4279 65.8537 34.9405 66.9285 33.1254C68.0033 31.3102 68.5624 29.2362 68.5454 27.1268ZM58.337 33.3304C57.9169 33.4191 57.4888 33.4644 57.0595 33.4655C55.4304 33.4655 53.8682 32.8184 52.7163 31.6665C51.5644 30.5146 50.9173 28.9523 50.9173 27.3233C50.9153 26.8938 50.9606 26.4654 51.0524 26.0457C51.2821 24.9644 51.7995 23.9651 52.5499 23.1532C53.3002 22.3414 54.2558 21.7471 55.3158 21.4331C56.3757 21.1191 57.5008 21.097 58.5723 21.3691C59.6438 21.6412 60.622 22.1974 61.4037 22.9791C62.1854 23.7608 62.7416 24.739 63.0137 25.8105C63.2858 26.882 63.2637 28.0071 62.9497 29.067C62.6356 30.127 62.0414 31.0826 61.2295 31.8329C60.4177 32.5833 59.4184 33.1006 58.337 33.3304Z" fill="#33A1DB"/>
<path d="M32.1534 53.4952H29.5737C17.062 53.4952 6.68784 43.4896 6.58956 30.9779C6.56853 27.9867 7.13819 25.0208 8.26587 22.2503C9.39355 19.4798 11.0571 16.9592 13.161 14.833C15.265 12.7068 17.768 11.0168 20.5265 9.86004C23.285 8.70327 26.2447 8.10244 29.2359 8.092H32.1043C33.8294 8.092 35.4839 7.4067 36.7037 6.18685C37.9236 4.967 38.6089 3.31253 38.6089 1.5874H29.2359C25.3849 1.59456 21.5733 2.36324 18.0206 3.84921C14.4678 5.33517 11.244 7.50908 8.53464 10.2458C5.8253 12.9826 3.68394 16.2281 2.2338 19.7956C0.783664 23.3632 0.0533751 27.1823 0.0849673 31.0331C0.207811 47.1257 13.5548 59.9998 29.6536 59.9998H38.658C38.658 58.2747 37.9727 56.6202 36.7529 55.4004C35.533 54.1805 33.8786 53.4952 32.1534 53.4952Z" fill="#33A1DB"/>
<path d="M48.4062 5.7152C48.5885 5.58625 48.7353 5.41338 48.833 5.2126C48.9307 5.01182 48.9761 4.78963 48.9651 4.56661C48.9783 4.23633 48.8786 3.9114 48.6826 3.64528C48.4814 3.3973 48.2057 3.2207 47.8964 3.14161C48.135 3.02678 48.3349 2.84464 48.4713 2.61763C48.6077 2.39063 48.6748 2.12867 48.6641 1.86403C48.6725 1.65267 48.6281 1.44256 48.5348 1.25272C48.4415 1.06288 48.3023 0.899324 48.1298 0.776865C47.6788 0.487801 47.1473 0.350097 46.6126 0.383764H44.0391V6.10216H46.7723C47.3436 6.1425 47.9137 6.0075 48.4062 5.7152ZM44.856 1.04712H46.5389C46.8786 1.02499 47.217 1.10638 47.5094 1.28053C47.6139 1.36083 47.6985 1.46408 47.7568 1.58229C47.815 1.70051 47.8453 1.83053 47.8453 1.96231C47.8453 2.09409 47.815 2.22411 47.7568 2.34232C47.6985 2.46054 47.6139 2.56379 47.5094 2.6441C47.217 2.81824 46.8786 2.89962 46.5389 2.8775H44.856V1.04712ZM44.856 5.45109V3.54086H46.7416C47.6752 3.54086 48.1421 3.86025 48.1421 4.49904C48.1525 4.63995 48.1256 4.78113 48.0642 4.90836C48.0027 5.03559 47.9088 5.14439 47.792 5.22382C47.4699 5.39598 47.1061 5.4747 46.7416 5.45109H44.856Z" fill="#33A1DB"/>
<path d="M50.7588 6.93124C50.6201 7.03259 50.4514 7.08449 50.2797 7.07865C50.1351 7.07934 49.9917 7.05148 49.8579 6.99668C49.724 6.94187 49.6023 6.86119 49.4996 6.75926L49.168 7.37348C49.3056 7.51134 49.474 7.6145 49.6593 7.67444C49.8571 7.7422 50.0645 7.77746 50.2736 7.77886C50.5937 7.78732 50.9081 7.69257 51.1703 7.5086C51.4677 7.26196 51.6927 6.93932 51.8214 6.57499L53.9343 1.80249H53.1604L51.6617 5.27898L50.1507 1.80249H49.3277L51.244 6.13889L51.1089 6.43986C51.0315 6.62837 50.9117 6.79651 50.7588 6.93124Z" fill="#33A1DB"/>
<path d="M57.9992 5.80119C58.4744 6.05766 59.0071 6.18873 59.5471 6.18201C59.9678 6.1851 60.3852 6.10581 60.7755 5.9486C61.141 5.80324 61.4671 5.57389 61.7275 5.2791L61.1993 4.76316C60.9939 4.98535 60.7437 5.16153 60.4653 5.2801C60.1868 5.39867 59.8865 5.45694 59.5839 5.45109C59.1806 5.45544 58.783 5.35602 58.4292 5.1624C58.0933 4.9799 57.8148 4.70772 57.6245 4.3762C57.4314 4.03195 57.3299 3.64384 57.3299 3.2491C57.3299 2.85437 57.4314 2.46625 57.6245 2.122C57.8144 1.78862 58.0929 1.51436 58.4292 1.32966C58.7835 1.13792 59.1811 1.04061 59.5839 1.04712C59.8854 1.04085 60.1849 1.09773 60.4631 1.21409C60.7413 1.33045 60.9921 1.50372 61.1993 1.72276L61.7275 1.20682C61.4694 0.913653 61.1452 0.686245 60.7816 0.543456C60.3323 0.370719 59.8515 0.295097 59.3709 0.321563C58.8903 0.34803 58.4207 0.475985 57.9931 0.697012C57.5411 0.940601 57.1649 1.30401 56.9059 1.74733C56.6487 2.20608 56.5137 2.72319 56.5137 3.2491C56.5137 3.77502 56.6487 4.29213 56.9059 4.75087C57.1683 5.19366 57.5463 5.55672 57.9992 5.80119Z" fill="#33A1DB"/>
<path d="M63.3069 5.87476C63.6626 6.06915 64.0624 6.16857 64.4677 6.16344C64.8733 6.17026 65.2735 6.07073 65.6286 5.87476C65.9631 5.69047 66.2413 5.41871 66.4333 5.08856C66.6277 4.73953 66.7273 4.34561 66.7219 3.94611C66.7287 3.54643 66.6291 3.15214 66.4333 2.80365C66.2449 2.47071 65.9658 2.19808 65.6286 2.01745C65.2729 1.82362 64.8727 1.72621 64.4677 1.73491C64.0629 1.72762 63.6631 1.82494 63.3069 2.01745C62.9684 2.19639 62.689 2.46944 62.5022 2.80365C62.3036 3.151 62.2037 3.54608 62.2136 3.94611C62.2053 4.34595 62.305 4.74063 62.5022 5.08856C62.6925 5.42008 62.971 5.69226 63.3069 5.87476ZM63.1963 3.14762C63.3193 2.92225 63.5021 2.73521 63.7245 2.6071C63.9547 2.48606 64.2108 2.42281 64.4708 2.42281C64.7308 2.42281 64.987 2.48606 65.2171 2.6071C65.4391 2.73374 65.6203 2.92131 65.7392 3.14762C65.8644 3.39517 65.9296 3.66869 65.9296 3.94611C65.9296 4.22352 65.8644 4.49705 65.7392 4.74459C65.6184 4.96953 65.4377 5.15662 65.2171 5.28511C65.0495 5.38463 64.8637 5.44965 64.6707 5.47632C64.4776 5.50299 64.2812 5.49079 64.0929 5.44043C63.9046 5.39007 63.7283 5.30257 63.5743 5.18307C63.4203 5.06357 63.2918 4.91449 63.1963 4.74459C63.0711 4.49705 63.0058 4.22352 63.0058 3.94611C63.0058 3.66869 63.0711 3.39517 63.1963 3.14762Z" fill="#33A1DB"/>
<path d="M68.5951 3.95218C68.5701 3.55542 68.7025 3.16481 68.9636 2.86501C69.0946 2.73512 69.2514 2.63413 69.4239 2.56854C69.5963 2.50295 69.7806 2.47421 69.9648 2.4842H70.1429V1.72256C69.8085 1.71052 69.4759 1.77788 69.1724 1.91911C68.9106 2.03695 68.6947 2.23768 68.5582 2.49034V1.80241H67.8027V6.10196H68.5889L68.5951 3.95218Z" fill="#33A1DB"/>
<path d="M71.7827 5.88082C72.162 6.0766 72.5844 6.17377 73.0111 6.16336C73.345 6.16639 73.6764 6.10595 73.9877 5.98523C74.2714 5.87241 74.5225 5.6909 74.7187 5.457L74.2887 4.95334C73.9867 5.25579 73.5861 5.43957 73.1598 5.47114C72.7336 5.50271 72.3102 5.37997 71.967 5.12533C71.825 5.01386 71.7072 4.87472 71.6206 4.71634C71.534 4.55797 71.4805 4.38367 71.4633 4.20399H74.9828C74.9873 4.12626 74.9873 4.04832 74.9828 3.97059C74.9885 3.56472 74.8935 3.16377 74.7064 2.80357C74.5326 2.47426 74.2684 2.20148 73.9447 2.01736C73.6065 1.82452 73.2223 1.72688 72.833 1.73482C72.4419 1.72819 72.0561 1.8257 71.7151 2.01736C71.388 2.20099 71.1197 2.4736 70.9412 2.80357C70.7497 3.15349 70.6523 3.54716 70.6587 3.94602C70.6504 4.34587 70.7501 4.74055 70.9474 5.08847C71.1442 5.42712 71.4341 5.70214 71.7827 5.88082ZM71.8994 2.74215C72.1646 2.52024 72.4995 2.39865 72.8453 2.39865C73.1911 2.39865 73.5259 2.52024 73.7912 2.74215C74.0472 2.97477 74.2071 3.29457 74.2396 3.63891H71.4572C71.4875 3.29527 71.6452 2.97539 71.8994 2.74215Z" fill="#33A1DB"/>
<path d="M76.8702 5.48767C77.0433 5.71431 77.2688 5.89558 77.5274 6.0159C77.798 6.13609 78.0912 6.19683 78.3873 6.19402C78.7814 6.19957 79.1704 6.10443 79.5175 5.91762C79.845 5.73253 80.115 5.46043 80.2975 5.13142C80.4833 4.77484 80.5802 4.37873 80.5802 3.97668C80.5802 3.57464 80.4833 3.17853 80.2975 2.82195C80.1147 2.49481 79.8446 2.22479 79.5175 2.04189C79.1704 1.85507 78.7814 1.75994 78.3873 1.76549C78.0825 1.76103 77.7805 1.82395 77.5028 1.94975C77.2375 2.06754 77.0084 2.25416 76.8395 2.49027V1.80234H76.084V7.73572H76.8702V5.48767ZM77.0545 3.17819C77.1771 2.95626 77.3575 2.77163 77.5765 2.64382C77.8024 2.51419 78.0593 2.44837 78.3198 2.45341C78.5812 2.4495 78.8393 2.51296 79.0691 2.63768C79.2897 2.76617 79.4704 2.95326 79.5912 3.17819C79.7203 3.42454 79.7878 3.69854 79.7878 3.97668C79.7878 4.25483 79.7203 4.52882 79.5912 4.77517C79.4686 4.99881 79.2884 5.18547 79.0691 5.31568C78.8409 5.44526 78.5821 5.51102 78.3198 5.50609C78.0593 5.51114 77.8024 5.44532 77.5765 5.31568C77.3541 5.18758 77.1713 5.00053 77.0483 4.77517C76.922 4.52825 76.8587 4.25396 76.864 3.97668C76.8523 3.68824 76.918 3.40191 77.0545 3.14749V3.17819Z" fill="#33A1DB"/>
<path d="M82.4508 3.95242C82.4274 3.55693 82.5572 3.16761 82.8132 2.86525C82.9456 2.7355 83.1035 2.63466 83.2769 2.56911C83.4503 2.50356 83.6354 2.47472 83.8205 2.48443H83.9987V1.7228C83.6623 1.7114 83.3278 1.7787 83.022 1.91935C82.7607 2.03795 82.545 2.23847 82.4078 2.49057V1.80264H81.6523V6.10219H82.4385L82.4508 3.95242Z" fill="#33A1DB"/>
<path d="M85.6233 5.8748C85.9803 6.0662 86.3791 6.16636 86.7842 6.16636C87.1893 6.16636 87.588 6.0662 87.9451 5.8748C88.2796 5.69051 88.5577 5.41875 88.7497 5.0886C88.9441 4.73957 89.0437 4.34565 89.0384 3.94615C89.0451 3.54647 88.9455 3.15218 88.7497 2.8037C88.5613 2.47075 88.2823 2.19812 87.9451 2.01749C87.5863 1.83171 87.1882 1.73474 86.7842 1.73474C86.3802 1.73474 85.9821 1.83171 85.6233 2.01749C85.2848 2.19644 85.0054 2.46948 84.8187 2.8037C84.6182 3.15054 84.5162 3.54558 84.5238 3.94615C84.5177 4.34653 84.6196 4.74116 84.8187 5.0886C85.0089 5.42012 85.2875 5.6923 85.6233 5.8748ZM85.5127 3.14766C85.6335 2.92273 85.8142 2.73563 86.0348 2.60714C86.2647 2.48242 86.5227 2.41897 86.7842 2.42288C87.0457 2.41813 87.304 2.48163 87.5335 2.60714C87.7556 2.73379 87.9367 2.92135 88.0556 3.14766C88.1808 3.39521 88.2461 3.66873 88.2461 3.94615C88.2461 4.22356 88.1808 4.49709 88.0556 4.74464C87.9348 4.96957 87.7541 5.15666 87.5335 5.28515C87.3056 5.41529 87.0466 5.4811 86.7842 5.47556C86.5218 5.48049 86.263 5.41472 86.0348 5.28515C85.8156 5.15494 85.6353 4.96828 85.5127 4.74464C85.3875 4.49709 85.3223 4.22356 85.3223 3.94615C85.3223 3.66873 85.3875 3.39521 85.5127 3.14766Z" fill="#33A1DB"/>
<path d="M90.8244 5.8748C91.1814 6.0662 91.5802 6.16636 91.9853 6.16636C92.3904 6.16636 92.7891 6.0662 93.1461 5.8748C93.479 5.69037 93.7551 5.41851 93.9446 5.0886C94.1437 4.74116 94.2456 4.34653 94.2395 3.94615C94.2471 3.54558 94.1452 3.15054 93.9446 2.8037C93.7585 2.47118 93.4815 2.1985 93.1461 2.01749C92.7874 1.83171 92.3893 1.73474 91.9853 1.73474C91.5813 1.73474 91.1832 1.83171 90.8244 2.01749C90.4855 2.198 90.2045 2.47052 90.0136 2.8037C89.8178 3.15218 89.7182 3.54647 89.7249 3.94615C89.7196 4.34565 89.8192 4.73957 90.0136 5.0886C90.2078 5.41918 90.488 5.6909 90.8244 5.8748ZM90.7138 3.14766C90.8346 2.92273 91.0153 2.73563 91.2359 2.60714C91.4672 2.48607 91.7243 2.42282 91.9853 2.42282C92.2463 2.42282 92.5034 2.48607 92.7346 2.60714C92.9552 2.73563 93.1359 2.92273 93.2567 3.14766C93.3765 3.3968 93.4387 3.6697 93.4387 3.94615C93.4387 4.22259 93.3765 4.49549 93.2567 4.74464C93.1342 4.96828 92.9539 5.15494 92.7346 5.28515C92.5046 5.40987 92.247 5.47519 91.9853 5.47519C91.7236 5.47519 91.466 5.40987 91.2359 5.28515C91.0167 5.15494 90.8364 4.96828 90.7138 4.74464C90.5847 4.49829 90.5172 4.22429 90.5172 3.94615C90.5172 3.668 90.5847 3.39401 90.7138 3.14766Z" fill="#33A1DB"/>
<path d="M95.4424 6.10208H96.2286V2.41675H97.4571V1.80253H96.1979V1.42786C96.1979 0.918054 96.4313 0.666224 96.8981 0.666224C97.1199 0.662548 97.3364 0.733984 97.5124 0.868918L97.7519 0.254697C97.6318 0.170701 97.4991 0.106418 97.3588 0.0642858C97.1985 0.0217958 97.0332 0.00113623 96.8674 0.00286464C96.6751 -0.00934566 96.4824 0.0175631 96.3008 0.0819619C96.1192 0.146361 95.9526 0.246912 95.811 0.37754C95.6824 0.514303 95.5829 0.675719 95.5185 0.852025C95.4541 1.02833 95.4262 1.21586 95.4363 1.40329V1.80253H94.6992V2.41675H95.4363L95.4424 6.10208Z" fill="#33A1DB"/>
</svg>
