<svg width="294" height="60" viewBox="0 0 294 60" fill="none" xmlns="http://www.w3.org/2000/svg">
<path d="M152.751 35.4623C150.658 34.7373 148.76 33.5397 147.205 31.9626L148.382 30.0166C149.816 31.4612 151.552 32.5698 153.466 33.2625C155.608 34.1012 157.889 34.5267 160.189 34.5162C163.594 34.5162 166.157 33.8701 167.88 32.5779C168.698 32.0138 169.363 31.2568 169.818 30.3739C170.273 29.4911 170.503 28.5097 170.488 27.5167C170.524 26.8159 170.42 26.115 170.182 25.4548C169.944 24.7945 169.578 24.1881 169.103 23.6709C168.144 22.69 166.973 21.9404 165.681 21.4788C163.875 20.8337 162.031 20.3044 160.158 19.8943C158.018 19.3873 155.909 18.7555 153.843 18.0021C152.283 17.404 150.896 16.4289 149.805 15.1639C148.639 13.7134 148.047 11.8844 148.143 10.0258C148.13 8.33281 148.611 6.67279 149.528 5.24925C150.559 3.70553 152.027 2.50339 153.743 1.79567C155.988 0.876259 158.402 0.441168 160.827 0.518848C162.8 0.520305 164.762 0.813184 166.65 1.38801C168.42 1.89915 170.095 2.69402 171.611 3.74167L170.642 5.83382C169.194 4.83868 167.597 4.08051 165.911 3.58784C164.263 3.0852 162.55 2.82608 160.827 2.81867C157.52 2.81867 155.015 3.48272 153.312 4.81082C152.503 5.4027 151.848 6.18058 151.402 7.07883C150.956 7.97707 150.733 8.96935 150.751 9.97196C150.715 10.6728 150.819 11.3739 151.056 12.0342C151.294 12.6945 151.661 13.3008 152.135 13.8178C153.095 14.7987 154.266 15.5484 155.558 16.01C157.382 16.6622 159.241 17.2092 161.127 17.6483C163.263 18.1443 165.364 18.7763 167.419 19.5404C168.959 20.1371 170.335 21.0915 171.434 22.3248C172.6 23.7364 173.193 25.5346 173.095 27.3629C173.111 29.0524 172.621 30.708 171.688 32.1164C170.614 33.6564 169.11 34.8467 167.365 35.5392C165.094 36.4539 162.659 36.8886 160.212 36.816C157.663 36.8265 155.134 36.3676 152.751 35.4623Z" fill="#373737"/>
<path d="M187.048 3.11075H174.172V0.75708H202.539V3.11075H189.655V36.5389H187.048V3.11075Z" fill="#373737"/>
<path d="M230.458 34.1852V36.5389H205.768V0.75708H229.697V3.11075H208.375V17.2173H227.443V19.5249H208.375V34.193L230.458 34.1852Z" fill="#373737"/>
<path d="M260.173 3.92607C262.737 6.05923 264.019 9.01541 264.019 12.7946C264.019 16.5738 262.737 19.5146 260.173 21.617C257.609 23.7502 254.081 24.8142 249.59 24.8091H239.367V36.5389H236.76V0.75708H249.59C254.092 0.75708 257.62 1.81341 260.173 3.92607ZM258.335 19.9556C260.345 18.2839 261.35 15.8969 261.35 12.7946C261.35 9.69228 260.345 7.30016 258.335 5.61824C256.32 3.92606 253.412 3.08767 249.59 3.08767H239.367V22.4554H249.59C253.412 22.4785 256.32 21.617 258.335 19.9787V19.9556Z" fill="#373737"/>
<path d="M272.675 35.4622C270.582 34.7372 268.684 33.5396 267.129 31.9624L268.306 30.0164C269.74 31.4611 271.476 32.5697 273.39 33.2623C275.531 34.1017 277.813 34.5271 280.112 34.5161C283.522 34.5161 286.086 33.87 287.804 32.5778C288.622 32.0136 289.287 31.2566 289.742 30.3738C290.197 29.491 290.427 28.5096 290.412 27.5166C290.448 26.8163 290.346 26.1157 290.109 25.4555C289.873 24.7953 289.508 24.1886 289.035 23.6708C288.074 22.6915 286.904 21.9422 285.612 21.4786C283.806 20.8346 281.962 20.3054 280.089 19.8941C277.949 19.3872 275.841 18.7554 273.775 18.002C272.215 17.4039 270.827 16.4288 269.736 15.1637C268.57 13.7132 267.979 11.8843 268.075 10.0257C268.062 8.33268 268.543 6.67266 269.459 5.24912C270.489 3.7035 271.957 2.50083 273.675 1.79554C275.917 0.876749 278.329 0.441662 280.751 0.518717C282.727 0.519641 284.691 0.812524 286.581 1.38788C288.351 1.89902 290.027 2.69389 291.542 3.74154L290.566 5.83369C289.12 4.84007 287.526 4.082 285.843 3.58771C284.192 3.08433 282.477 2.8252 280.751 2.81854C277.449 2.81854 274.944 3.48258 273.236 4.81069C272.429 5.40429 271.776 6.18271 271.332 7.0807C270.887 7.97869 270.665 8.97009 270.682 9.97183C270.646 10.6727 270.75 11.3737 270.988 12.034C271.226 12.6944 271.592 13.3007 272.067 13.8177C273.027 14.7986 274.197 15.5482 275.49 16.0098C277.313 16.6632 279.172 17.2102 281.059 17.6482C283.194 18.1452 285.295 18.7772 287.35 19.5403C288.887 20.139 290.261 21.0932 291.358 22.3247C292.524 23.7363 293.117 25.5345 293.019 27.3628C293.033 29.0508 292.546 30.705 291.619 32.1163C290.545 33.6563 289.042 34.8466 287.297 35.5391C285.025 36.4523 282.59 36.8869 280.143 36.8159C277.592 36.8273 275.06 36.3684 272.675 35.4622Z" fill="#373737"/>
<path fill-rule="evenodd" clip-rule="evenodd" d="M74.9409 1.66459C74.9332 1.51597 74.9566 1.36738 75.0095 1.2283C75.0625 1.08923 75.1439 0.96275 75.2486 0.856958C75.3705 0.745462 75.5139 0.659999 75.6699 0.605777C75.826 0.551555 75.9915 0.529716 76.1562 0.541601H94.0164C95.8358 0.531725 97.6419 0.852286 99.3467 1.48768C100.935 2.07117 102.407 2.93333 103.693 4.03364C104.907 5.08158 105.899 6.36335 106.608 7.80257C107.318 9.23672 107.681 10.8174 107.669 12.4176C107.678 13.4924 107.507 14.561 107.162 15.5789C106.823 16.5776 106.344 17.5229 105.739 18.3864C105.119 19.2628 104.39 20.0564 103.569 20.7477C102.726 21.4609 101.802 22.0727 100.816 22.5707L107.946 34.3851C108.077 34.6159 108.238 34.8851 108.446 35.1543C108.614 35.3786 108.718 35.6445 108.746 35.9235C108.753 36.0393 108.73 36.155 108.68 36.2598C108.631 36.3646 108.555 36.4553 108.461 36.5234C108.231 36.6657 107.963 36.7378 107.692 36.7311H98.1622C97.8652 36.7373 97.5731 36.6542 97.3238 36.4927C97.0828 36.3414 96.9072 36.1054 96.8316 35.8312L90.1321 24.6859H85.6632V35.685C85.6632 36.385 85.2401 36.7311 84.3941 36.7311H76.1562C75.8401 36.7482 75.5277 36.6559 75.2717 36.4696C75.1608 36.3757 75.0732 36.2574 75.0158 36.1239C74.9584 35.9904 74.9328 35.8455 74.9409 35.7004V1.66459ZM96.5547 12.5253C96.552 12.0206 96.4501 11.5215 96.2547 11.0562C96.0497 10.5658 95.7637 10.1133 95.4086 9.71781C95.0271 9.30293 94.5769 8.95686 94.0779 8.69481C93.5482 8.40828 92.9686 8.22553 92.3704 8.1564L90.9397 8.0641C90.4859 8.0641 89.9936 8.0641 89.4629 8.0641H85.6632V17.0019H90.7243C91.0551 17.0019 91.355 17.0019 91.6089 17.0019C91.8627 17.0019 92.1473 17.0019 92.455 16.9249C93.0617 16.8746 93.6525 16.7047 94.1933 16.425C94.6835 16.1765 95.122 15.8372 95.4855 15.4251C95.8237 15.0283 96.0845 14.5718 96.2547 14.079C96.4539 13.5853 96.5557 13.0577 96.5547 12.5253Z" fill="#6362B0"/>
<path fill-rule="evenodd" clip-rule="evenodd" d="M30.8591 18.7019C30.8591 17.0185 31.1186 15.3451 31.6283 13.7407C32.1217 12.1557 32.8419 10.6505 33.7666 9.27184C34.7007 7.86801 35.8124 6.59085 37.074 5.47213C38.3688 4.32334 39.8062 3.34614 41.3506 2.56467C44.6624 0.878801 48.3259 0 52.0421 0C55.7583 0 59.4218 0.878801 62.7336 2.56467C64.2738 3.35029 65.7103 4.32436 67.0102 5.46445C68.278 6.57702 69.3904 7.85505 70.3176 9.26415C71.2308 10.6482 71.9478 12.1522 72.4482 13.733C73.474 16.9636 73.474 20.4325 72.4482 23.663C71.949 25.2372 71.2318 26.7336 70.3176 28.1088C69.3897 29.5059 68.2771 30.7711 67.0102 31.8701C65.7004 33.0088 64.2595 33.9874 62.7182 34.7852C61.11 35.6119 59.4081 36.242 57.6494 36.662C53.9476 37.5441 50.0904 37.5441 46.3887 36.662C44.6352 36.2407 42.9386 35.6106 41.3352 34.7852C39.7954 33.9929 38.359 33.0138 37.0587 31.8701C35.7978 30.765 34.686 29.5006 33.7512 28.1088C32.8251 26.7393 32.1047 25.2415 31.6129 23.663C31.1026 22.0561 30.8432 20.3802 30.8438 18.6942L30.8591 18.7019ZM41.5814 18.7019C41.5703 20.0008 41.8324 21.2874 42.3506 22.4785C42.8503 23.6426 43.5863 24.6903 44.5119 25.5552C45.4702 26.4428 46.5905 27.1375 47.8117 27.6012C50.5257 28.596 53.5046 28.596 56.2187 27.6012C57.4454 27.1394 58.5711 26.4446 59.5338 25.5552C60.4617 24.6905 61.2003 23.6429 61.7029 22.4785C62.482 20.6993 62.6918 18.7228 62.3034 16.8197C61.9151 14.9166 60.9477 13.1802 59.5338 11.8486C58.5747 10.9469 57.4485 10.2414 56.2187 9.77181C53.5064 8.7669 50.5239 8.7669 47.8117 9.77181C46.5875 10.2435 45.4667 10.9489 44.5119 11.8486C43.5787 12.7286 42.8364 13.7911 42.331 14.97C41.8255 16.149 41.5678 17.4192 41.5737 18.7019H41.5814Z" fill="#6362B0"/>
<path fill-rule="evenodd" clip-rule="evenodd" d="M33.9364 3.15715C34.226 3.29569 34.4672 3.51813 34.6287 3.79557C34.7005 3.94241 34.7305 4.10615 34.7156 4.26892C34.7007 4.43169 34.6414 4.58723 34.5441 4.71857L29.8752 10.572C29.8038 10.6889 29.7099 10.7906 29.599 10.8712C29.4882 10.9517 29.3624 11.0095 29.2291 11.0412C28.9326 11.0723 28.6342 11.0018 28.383 10.8412C27.4616 10.2337 26.4561 9.76459 25.3986 9.44897C24.277 9.12087 23.1136 8.95764 21.945 8.9644C20.5167 8.9545 19.0995 9.2155 17.7684 9.73357C16.5456 10.2035 15.4271 10.9091 14.4764 11.8103C13.562 12.6833 12.83 13.7291 12.3227 14.887C11.8055 16.073 11.5435 17.3545 11.5535 18.6483C11.543 19.9347 11.8052 21.2087 12.3227 22.3864C12.8278 23.5456 13.5601 24.5918 14.4764 25.4631C15.4315 26.3568 16.549 27.0591 17.7684 27.5322C19.0995 28.0503 20.5167 28.3113 21.945 28.3014C23.1246 28.3052 24.2985 28.1368 25.4294 27.8014C26.4956 27.4862 27.5092 27.0144 28.4368 26.4015C28.6847 26.2446 28.9744 26.1668 29.2675 26.1784C29.5338 26.2399 29.7687 26.3956 29.929 26.6169L34.6594 32.6318C34.7546 32.7612 34.8128 32.914 34.8277 33.0739C34.8426 33.2338 34.8137 33.3947 34.744 33.5394C34.5739 33.8021 34.3343 34.0124 34.0518 34.1471C30.4462 36.2831 26.3281 37.3997 22.1373 37.3776C20.2434 37.3831 18.3557 37.161 16.5147 36.7161C14.7633 36.2961 13.0691 35.6659 11.4689 34.8393C9.92663 34.0471 8.48773 33.068 7.18465 31.9241C5.92384 30.819 4.81204 29.5547 3.87721 28.1629C2.9511 26.7934 2.23068 25.2955 1.73892 23.7171C0.745881 20.4816 0.745881 17.0226 1.73892 13.7871C2.23228 12.2021 2.95251 10.6968 3.87721 9.31821C4.8113 7.91437 5.923 6.63723 7.18465 5.51851C8.4821 4.36958 9.92202 3.39238 11.4689 2.61104C16.7059 -0.0219198 22.7265 -0.64313 28.3907 0.865027C30.3322 1.38139 32.1969 2.1521 33.9364 3.15715Z" fill="#6362B0"/>
<path d="M140.337 28.401H121.761V22.0015L115.177 21.9323C114.636 21.9272 114.098 22.0295 113.596 22.2333C113.095 22.437 112.638 22.7382 112.253 23.1194C111.869 23.5006 111.563 23.9542 111.355 24.4542C111.146 24.9541 111.039 25.4904 111.039 26.032V35.7466C111.03 35.8918 111.055 36.0372 111.112 36.1709C111.17 36.3045 111.258 36.4227 111.37 36.5158C111.626 36.7021 111.938 36.7944 112.254 36.7773H140.229C140.906 36.7773 141.291 36.5466 141.36 36.0928C141.428 36.0414 141.483 35.9752 141.522 35.8993C141.561 35.8233 141.581 35.7395 141.583 35.6543V29.5009C141.621 28.7779 141.167 28.401 140.337 28.401Z" fill="#6362B0"/>
<path d="M121.761 8.93355H139.675C139.854 8.94423 140.033 8.91609 140.2 8.85104C140.368 8.78599 140.519 8.68558 140.644 8.55666C140.842 8.34754 140.959 8.07497 140.974 7.78749V1.74181C140.981 1.58436 140.956 1.42716 140.899 1.2802C140.842 1.13323 140.755 0.999691 140.644 0.888029C140.386 0.660478 140.049 0.544314 139.705 0.564973H112.254C112.091 0.555197 111.929 0.578073 111.776 0.632241C111.622 0.686409 111.481 0.770766 111.361 0.88033C111.253 0.983893 111.168 1.10962 111.112 1.24898C111.056 1.38833 111.031 1.53805 111.038 1.68796V9.88733C111.038 11.1868 111.555 12.433 112.473 13.3519C113.392 14.2707 114.638 14.7869 115.938 14.7869H121.761V8.93355Z" fill="#6362B0"/>
<path d="M131.128 14.7638H123.328V21.7863H131.128V14.7638Z" fill="#6362B0"/>
<path d="M53.8199 58.3526H53.2969V51.1686H53.8199V58.3526ZM58.6811 54.9375H53.7584V54.476H58.6811V54.9375ZM58.6195 51.1686H59.1426V58.3526H58.6195V51.1686Z" fill="#373737"/>
<path d="M75.8418 58.3526L79.1492 51.1686H79.6723L82.972 58.3526H82.3951L79.3185 51.4993H79.5492L76.4725 58.3526H75.8418ZM77.0571 56.3297L77.2263 55.8913H81.526L81.7029 56.3297H77.0571Z" fill="#373737"/>
<path d="M99.6699 58.3526V51.1686H100.085L105.2 57.7065H104.97V51.1686H105.493V58.3526H105.062L99.9314 51.8147H100.162V58.3526H99.6699Z" fill="#373737"/>
<path d="M123.422 58.3526V51.1686H126.237C126.932 51.1527 127.619 51.3114 128.237 51.6301C128.795 51.9233 129.261 52.3652 129.583 52.9069C129.897 53.4757 130.061 54.1148 130.061 54.7644C130.061 55.4141 129.897 56.0531 129.583 56.622C129.26 57.1613 128.794 57.6006 128.237 57.8911C127.619 58.2098 126.932 58.3685 126.237 58.3526H123.422ZM123.945 57.8834H126.252C126.864 57.8996 127.469 57.7621 128.014 57.4835C128.498 57.2316 128.901 56.8475 129.175 56.3759C129.46 55.8859 129.604 55.327 129.591 54.7606C129.602 54.1944 129.458 53.636 129.175 53.1453C128.903 52.6741 128.499 52.292 128.014 52.0454C127.468 51.7536 126.856 51.6054 126.237 51.6147H123.93L123.945 57.8834Z" fill="#373737"/>
<path d="M165.316 58.3526V51.1686H165.763L169.093 56.9297H168.862L172.185 51.1686H172.616V58.3526H172.108V51.9608H172.254L169.101 57.3989H168.847L165.686 51.9608H165.839V58.3526H165.316Z" fill="#373737"/>
<path d="M189.309 58.3526L192.616 51.1686H193.154L196.454 58.3526H195.893L192.77 51.4993H193.001L189.885 58.3526H189.309ZM190.516 56.3297L190.693 55.8913H194.993L195.17 56.3297H190.516Z" fill="#373737"/>
<path d="M213.154 58.3528V51.1687H216C216.695 51.1545 217.382 51.3131 218 51.6302C218.557 51.9216 219.021 52.3641 219.338 52.9071C219.652 53.4759 219.817 54.115 219.817 54.7646C219.817 55.4143 219.652 56.0533 219.338 56.6221C219.021 57.1628 218.557 57.6027 218 57.8913C217.382 58.2085 216.695 58.367 216 58.3528H213.154ZM213.677 57.8836H215.985C216.599 57.8998 217.207 57.7623 217.754 57.4836C218.237 57.2297 218.639 56.8461 218.915 56.376C219.194 55.884 219.335 55.326 219.323 54.7608C219.333 54.1957 219.192 53.6383 218.915 53.1455C218.641 52.6759 218.238 52.2943 217.754 52.0456C217.207 51.7669 216.599 51.6294 215.985 51.6456H213.677V57.8836Z" fill="#373737"/>
<path d="M237.544 57.8834H241.982V58.3526H236.998V51.1686H241.805V51.6147H237.521L237.544 57.8834ZM237.483 54.476H241.375V54.9375H237.483V54.476Z" fill="#373737"/>
<path d="M144.358 54.4068C144.358 52.7684 144.358 51.2301 144.358 49.6841C144.333 49.4417 144.397 49.1985 144.539 49.0002C144.68 48.8019 144.89 48.6622 145.127 48.6072C145.403 48.5839 145.681 48.5839 145.958 48.6072C146.009 48.386 146.128 48.1866 146.299 48.0374C146.47 47.8882 146.684 47.7968 146.91 47.7764C147.136 47.7559 147.363 47.8074 147.558 47.9234C147.753 48.0395 147.906 48.2142 147.996 48.4226C148.95 48.0996 149.642 48.4226 149.696 49.7225L149.919 49.661C150.084 49.613 150.259 49.6067 150.428 49.6425C150.596 49.6783 150.753 49.7551 150.885 49.8662C151.016 49.9774 151.119 50.1193 151.182 50.2794C151.246 50.4395 151.269 50.6128 151.249 50.784C151.249 52.6915 151.288 54.6298 151.249 56.5066C151.253 57.0169 151.148 57.522 150.939 57.9878C150.731 58.4536 150.425 58.8692 150.042 59.2064C149.589 59.5895 149.037 59.8374 148.45 59.9217C147.622 60.0596 146.774 60.015 145.965 59.791C145.116 59.5655 144.391 59.0122 143.95 58.2526C143.266 57.145 142.619 56.0067 141.989 54.8606C141.859 54.624 141.824 54.3467 141.891 54.0852C141.958 53.8237 142.122 53.5976 142.35 53.453C142.585 53.3138 142.863 53.2643 143.131 53.3138C143.4 53.3633 143.642 53.5084 143.812 53.7222C143.981 53.9222 144.135 54.1299 144.358 54.4068ZM150.734 53.6376C150.734 53.4992 150.734 53.3607 150.734 53.2222C150.734 52.3992 150.734 51.5685 150.734 50.7455C150.734 50.2609 150.442 50.0225 150.05 50.1379C149.657 50.2533 149.688 50.5148 149.688 50.784C149.688 51.5531 149.688 52.2608 149.688 52.9992C149.708 53.0931 149.708 53.1899 149.688 53.2838C149.618 53.3909 149.533 53.4868 149.434 53.5684C149.337 53.4857 149.25 53.3929 149.173 53.2915C149.134 53.2376 149.173 53.1376 149.173 53.0607V49.6379C149.168 49.4697 149.147 49.3023 149.111 49.138C149.094 49.0347 149.039 48.9416 148.956 48.8774C148.873 48.8132 148.769 48.7827 148.665 48.7918C148.296 48.7918 148.111 48.9533 148.111 49.3533C148.111 50.5148 148.111 51.6608 148.111 52.8377C148.136 52.931 148.136 53.029 148.111 53.1223C148.083 53.1635 148.047 53.1985 148.004 53.225C147.962 53.2514 147.915 53.2689 147.865 53.2761C147.819 53.2698 147.776 53.2525 147.738 53.2257C147.701 53.1989 147.671 53.1634 147.65 53.1223C147.63 53.0284 147.63 52.9315 147.65 52.8377V49.0841C147.65 48.9918 147.65 48.9072 147.65 48.8149C147.65 48.6741 147.594 48.5392 147.494 48.4396C147.395 48.3401 147.26 48.2842 147.119 48.2842C146.978 48.2842 146.843 48.3401 146.744 48.4396C146.644 48.5392 146.588 48.6741 146.588 48.8149V52.8915C146.588 53.0761 146.588 53.2684 146.327 53.2761C146.065 53.2838 146.058 53.0915 146.058 52.8992V49.6225C146.067 49.5311 146.053 49.4386 146.016 49.3543C145.979 49.27 145.921 49.1968 145.848 49.1417C145.774 49.0866 145.687 49.0517 145.596 49.0402C145.505 49.0288 145.412 49.0412 145.327 49.0764C145.211 49.1235 145.115 49.2084 145.053 49.3174C144.992 49.4263 144.969 49.5528 144.988 49.6764C144.988 51.4455 144.988 53.2171 144.988 54.9913C144.959 55.1345 144.901 55.2704 144.819 55.3913C144.673 55.3421 144.538 55.2665 144.419 55.1682C144.112 54.799 143.835 54.3991 143.527 54.0299C143.445 53.908 143.32 53.8223 143.176 53.7908C143.033 53.7592 142.883 53.7843 142.758 53.8607C142.643 53.9492 142.567 54.078 142.544 54.2209C142.521 54.3638 142.554 54.51 142.635 54.6298C143.142 55.5528 143.642 56.4758 144.173 57.3835C144.5 58.0724 145.039 58.6385 145.711 58.9987C146.255 59.2614 146.847 59.406 147.451 59.4233C148.054 59.4405 148.654 59.3299 149.211 59.0987C149.722 58.8651 150.15 58.4835 150.441 58.0035C150.731 57.5235 150.871 56.9671 150.842 56.4066C150.773 55.5451 150.734 54.6068 150.734 53.6684V53.6376Z" fill="#373737"/>
<path d="M293.877 54.6687H257.533V54.9148H293.877V54.6687Z" fill="#373737"/>
<path d="M36.4664 54.9148H0.123047V55.1609H36.4664V54.9148Z" fill="#373737"/>
</svg>
