<svg width="205" height="113" viewBox="0 0 205 113" fill="none" xmlns="http://www.w3.org/2000/svg">
<path d="M204.358 54.3569H168.933C169.174 57.5251 170.197 59.9498 172.002 61.631C173.798 63.3066 176.181 64.2096 178.636 64.1457C182.543 64.1457 185.259 62.4881 186.784 59.1731H203.442C202.604 62.5046 201.023 65.6033 198.818 68.2373C196.549 70.959 193.683 73.1201 190.442 74.5525C186.899 76.1201 183.058 76.9028 179.183 76.8469C174.53 76.9288 169.932 75.8264 165.821 73.6432C161.947 71.5483 158.759 68.3785 156.643 64.515C154.37 60.2355 153.235 55.4435 153.347 50.5991C153.25 45.7562 154.384 40.9679 156.643 36.6831C158.72 32.8094 161.886 29.6287 165.75 27.5336C169.876 25.4431 174.433 24.346 179.059 24.33C183.684 24.314 188.249 25.3794 192.389 27.4413C196.188 29.4822 199.316 32.5782 201.396 36.3563C203.634 40.4813 204.755 45.1191 204.65 49.8106C204.64 51.3303 204.542 52.8482 204.358 54.3569ZM188.61 45.6549C188.659 44.4515 188.438 43.2523 187.962 42.1458C187.486 41.0393 186.768 40.0537 185.861 39.2617C183.946 37.6469 181.502 36.7991 178.999 36.882C176.58 36.8111 174.219 37.6243 172.357 39.1694C170.478 40.8481 169.288 43.164 169.018 45.6692L188.61 45.6549Z" fill="#373737"/>
<path d="M40.3714 60.2887C37.9719 61.6953 35.2319 62.4153 32.4509 62.37C27.6867 62.37 23.8247 60.7125 20.8649 57.3975C17.905 54.0825 16.4251 49.6475 16.4251 44.0924C16.4251 38.5374 17.905 34.1024 20.8649 30.7874C23.8247 27.4724 27.6867 25.8148 32.4509 25.8148C35.2319 25.7696 37.9719 26.4896 40.3714 27.8962C42.7322 29.3348 44.6077 31.4478 45.7559 33.9627H62.7691C61.1935 27.4394 57.3833 21.6739 52 17.667C46.6297 13.689 40.1725 11.7 32.6285 11.7C26.8559 11.6031 21.1589 13.0213 16.1054 15.813C11.3083 18.495 7.36791 22.4797 4.73966 27.3066C1.96105 32.4613 0.556784 38.2446 0.662181 44.0995C0.552816 49.9391 1.95758 55.7074 4.73966 60.8428C7.37433 65.6539 11.3141 69.6232 16.1054 72.2938C21.157 75.0911 26.8549 76.5119 32.6285 76.4139C40.1725 76.4139 46.6297 74.4391 52 70.4895C57.3889 66.5063 61.2018 60.7517 62.7691 54.2364H45.7559C44.6054 56.746 42.7301 58.8539 40.3714 60.2887Z" fill="#373737"/>
<path d="M114.61 36.9815C112.403 33.114 109.138 29.957 105.198 27.8818C101.039 25.7986 96.4517 24.7139 91.8004 24.7139C87.149 24.7139 82.5617 25.7986 78.4029 27.8818C74.4631 29.957 71.1977 33.114 68.9906 36.9815C66.6388 41.1617 65.4515 45.8962 65.5525 50.6915C65.4386 55.4986 66.6108 60.2489 68.948 64.4512C71.1282 68.2948 74.362 71.4349 78.268 73.5012C82.3854 75.6553 86.9765 76.7445 91.6228 76.6694C96.2954 76.7366 100.912 75.6483 105.063 73.5012C109.032 71.4337 112.329 68.277 114.567 64.4015C116.949 60.2314 118.155 55.4929 118.055 50.6915C118.154 45.8956 116.964 41.161 114.61 36.9815ZM99.181 60.0186C98.2204 61.0618 97.051 61.8913 95.7488 62.453C94.4466 63.0148 93.0408 63.2962 91.6228 63.2791C90.229 63.3079 88.8459 63.0309 87.5708 62.4675C86.2956 61.9042 85.1594 61.0683 84.2421 60.0186C82.2815 57.8448 81.3012 54.7358 81.3012 50.6915C81.3012 46.6472 82.2981 43.5263 84.2918 41.3289C85.2563 40.3103 86.4191 39.4999 87.7086 38.9476C88.9981 38.3953 90.387 38.1128 91.7898 38.1174C93.1926 38.1221 94.5796 38.4138 95.8654 38.9747C97.1511 39.5356 98.3085 40.3537 99.2663 41.3787C101.288 43.5476 102.299 46.6543 102.299 50.6986C102.299 54.7429 101.26 57.8496 99.181 60.0186Z" fill="#373737"/>
<path d="M143.551 27.5694C140.808 29.1963 138.482 31.4415 136.76 34.126V25.7011H121.281V76.2149H136.753V52.773C136.753 48.6008 137.719 45.6883 139.651 44.0356C141.583 42.3828 144.479 41.5517 148.339 41.5422H152.601V25.1684C149.422 25.1324 146.294 25.9624 143.551 27.5694Z" fill="#373737"/>
<path d="M26.7397 84.4766V104.551H24.701V88.5185L17.5477 104.551H16.063L8.88834 88.5753V104.551H6.84961V84.4766H8.98069L16.7521 101.873L24.5234 84.4766H26.7397Z" fill="#48B16A"/>
<path d="M34.2914 103.784C33.0946 103.125 32.1093 102.139 31.4499 100.943C30.7361 99.6171 30.3788 98.1288 30.4128 96.6236C30.3751 95.1163 30.7379 93.626 31.4642 92.3046C32.1266 91.1102 33.1111 90.1257 34.3056 89.4632C35.5552 88.8056 36.9461 88.4619 38.3582 88.4619C39.7703 88.4619 41.1612 88.8056 42.4108 89.4632C43.6093 90.1204 44.5951 91.1062 45.2523 92.3046C45.9339 93.6398 46.2892 95.1175 46.2892 96.6165C46.2892 98.1156 45.9339 99.5933 45.2523 100.928C44.5792 102.129 43.5791 103.115 42.3682 103.77C41.1165 104.445 39.713 104.79 38.2907 104.771C36.8948 104.792 35.5172 104.452 34.2914 103.784ZM41.2316 102.299C42.1416 101.809 42.8931 101.07 43.3982 100.168C43.9857 99.0792 44.2726 97.8533 44.2294 96.6165C44.2732 95.3815 43.9915 94.1566 43.4124 93.0647C42.9223 92.1638 42.1823 91.4238 41.2814 90.9337C40.3828 90.4667 39.3851 90.2229 38.3724 90.2229C37.3598 90.2229 36.362 90.4667 35.4635 90.9337C34.5599 91.4201 33.8189 92.1611 33.3324 93.0647C32.7996 94.173 32.523 95.3869 32.523 96.6165C32.523 97.8462 32.7996 99.0601 33.3324 100.168C33.8215 101.07 34.5618 101.81 35.4635 102.299C36.3521 102.776 37.3465 103.02 38.3547 103.01C39.3575 103.013 40.3457 102.769 41.2316 102.299Z" fill="#48B16A"/>
<path d="M52.0837 83.0203V104.551H50.0449V83.0203H52.0837Z" fill="#48B16A"/>
<path d="M56.7738 92.2905C57.39 91.1024 58.3343 90.1162 59.4945 89.449C60.686 88.7708 62.0378 88.4249 63.4086 88.4474C64.7379 88.4308 66.0459 88.7824 67.1877 89.4632C68.2577 90.0799 69.1187 91.0028 69.6598 92.1129V83.0203H71.6985V104.551H69.6598V101C69.1557 102.126 68.324 103.074 67.273 103.72C66.1049 104.442 64.7528 104.809 63.3802 104.779C62.0077 104.8 60.6551 104.449 59.4661 103.763C58.3066 103.08 57.3673 102.079 56.7596 100.879C56.085 99.5459 55.7483 98.0675 55.7793 96.574C55.7482 95.0855 56.0901 93.613 56.7738 92.2905ZM68.85 93.2353C68.3638 92.3023 67.6254 91.5245 66.7189 90.9905C65.8116 90.4693 64.7817 90.1996 63.7354 90.2091C62.678 90.1898 61.6342 90.4495 60.7092 90.9621C59.7998 91.47 59.059 92.2331 58.5781 93.1571C58.0684 94.2253 57.8038 95.3939 57.8038 96.5775C57.8038 97.7611 58.0684 98.9297 58.5781 99.9979C59.0552 100.937 59.7958 101.717 60.7092 102.243C61.6317 102.763 62.6764 103.028 63.7354 103.01C64.7817 103.019 65.8116 102.75 66.7189 102.228C67.6254 101.694 68.3638 100.917 68.85 99.9837C69.3639 98.9331 69.631 97.779 69.631 96.6095C69.631 95.4399 69.3639 94.2859 68.85 93.2353Z" fill="#48B16A"/>
<path d="M76.3229 85.2291C76.1794 85.0907 76.0668 84.9236 75.9921 84.7388C75.9174 84.554 75.8825 84.3556 75.8896 84.1564C75.8835 83.9584 75.9189 83.7613 75.9936 83.5778C76.0682 83.3943 76.1803 83.2284 76.3229 83.0909C76.6042 82.8178 76.9822 82.6672 77.3742 82.6718C77.5673 82.6693 77.759 82.705 77.9382 82.7769C78.1174 82.8489 78.2807 82.9556 78.4184 83.0909C78.5623 83.2278 78.6757 83.3934 78.7516 83.577C78.8275 83.7605 78.864 83.9579 78.8589 84.1564C78.8628 84.3558 78.8258 84.5539 78.75 84.7385C78.6743 84.923 78.5614 85.09 78.4184 85.2291C78.2839 85.3702 78.1218 85.4821 77.9421 85.5579C77.7625 85.6337 77.5692 85.6717 77.3742 85.6695C77.1781 85.6726 76.9834 85.6351 76.8024 85.5593C76.6215 85.4835 76.4582 85.3711 76.3229 85.2291ZM78.39 88.6672V104.551H76.3726V88.6672H78.39Z" fill="#48B16A"/>
<path d="M95.1266 90.1311C96.3271 91.3103 96.9309 93.0081 96.9309 95.2386V104.551H94.9206V95.473C95.0187 94.0364 94.5552 92.6178 93.6277 91.5163C93.1652 91.0515 92.6097 90.6898 91.9976 90.4547C91.3855 90.2197 90.7306 90.1166 90.0759 90.1524C89.3992 90.1168 88.7227 90.225 88.0909 90.4698C87.4591 90.7147 86.8863 91.0908 86.4105 91.5731C85.4261 92.7667 84.9356 94.2916 85.0395 95.8353V104.551H83.0078V88.6677H85.0395V91.3742C85.524 90.4248 86.2875 89.6464 87.2274 89.1437C88.2208 88.6209 89.33 88.3571 90.4524 88.3765C91.3094 88.3405 92.1648 88.4772 92.9679 88.7787C93.7709 89.0801 94.505 89.54 95.1266 90.1311Z" fill="#48B16A"/>
<path d="M112.004 89.4775C113.042 90.1086 113.872 91.0297 114.391 92.1271V88.6676H116.423V104.963C116.448 106.314 116.122 107.648 115.478 108.835C114.869 109.935 113.957 110.838 112.85 111.435C111.666 112.059 110.344 112.374 109.007 112.351C107.205 112.431 105.426 111.933 103.928 110.93C102.599 109.996 101.695 108.573 101.413 106.974H103.416C103.752 108.063 104.458 109 105.412 109.623C106.483 110.309 107.736 110.653 109.007 110.611C109.968 110.63 110.919 110.405 111.77 109.957C112.589 109.521 113.257 108.847 113.688 108.025C114.178 107.093 114.422 106.052 114.398 104.999V101.071C113.873 102.18 113.04 103.114 111.997 103.763C110.832 104.485 109.482 104.853 108.112 104.821C106.739 104.842 105.387 104.491 104.198 103.805C103.038 103.123 102.099 102.122 101.491 100.921C100.819 99.5879 100.485 98.1096 100.518 96.6166C100.487 95.1374 100.821 93.6735 101.491 92.3544C102.1 91.1657 103.04 90.1788 104.198 89.513C105.389 88.8347 106.741 88.4888 108.112 88.5114C109.475 88.4568 110.825 88.7919 112.004 89.4775ZM113.603 93.2353C113.117 92.3023 112.378 91.5245 111.472 90.9905C110.564 90.4693 109.534 90.1996 108.488 90.2091C107.431 90.1915 106.388 90.4511 105.462 90.9621C104.553 91.47 103.812 92.2331 103.331 93.1571C102.821 94.2253 102.557 95.3939 102.557 96.5775C102.557 97.7611 102.821 98.9297 103.331 99.9979C103.808 100.937 104.549 101.717 105.462 102.243C106.385 102.761 107.429 103.026 108.488 103.01C109.534 103.019 110.564 102.75 111.472 102.228C112.378 101.694 113.117 100.917 113.603 99.9837C114.121 98.9345 114.391 97.7799 114.391 96.6095C114.391 95.4391 114.121 94.2845 113.603 93.2353Z" fill="#48B16A"/>
<path d="M122.085 103.521C121.527 103.124 121.065 102.609 120.731 102.012C120.396 101.415 120.199 100.751 120.152 100.069H122.248C122.289 100.501 122.423 100.919 122.641 101.294C122.859 101.67 123.157 101.993 123.512 102.242C124.402 102.833 125.458 103.122 126.524 103.066C127.458 103.123 128.382 102.846 129.131 102.285C129.428 102.053 129.667 101.757 129.831 101.418C129.995 101.079 130.079 100.708 130.076 100.331C130.084 100.085 130.042 99.839 129.951 99.6093C129.861 99.3797 129.724 99.1709 129.55 98.9959C129.174 98.6267 128.724 98.3411 128.229 98.1577C127.517 97.9005 126.791 97.6823 126.055 97.5041C125.076 97.2595 124.115 96.9486 123.178 96.5736C122.451 96.2694 121.808 95.7942 121.303 95.1883C120.813 94.5232 120.542 93.7219 120.528 92.8957C120.514 92.0695 120.758 91.2595 121.225 90.5781C121.732 89.8857 122.417 89.3432 123.207 89.0082C124.124 88.6057 125.118 88.407 126.119 88.4257C127.605 88.3556 129.067 88.8136 130.247 89.7186C130.768 90.1534 131.189 90.6961 131.481 91.3092C131.773 91.9223 131.929 92.5914 131.937 93.2704H129.899C129.885 92.8382 129.78 92.4137 129.592 92.0245C129.403 91.6354 129.135 91.2902 128.805 91.0114C128.021 90.4049 127.045 90.1021 126.055 90.159C125.167 90.1145 124.288 90.3642 123.555 90.8693C123.26 91.0694 123.019 91.3382 122.852 91.6527C122.685 91.9671 122.597 92.3176 122.596 92.6737C122.576 93.2379 122.78 93.7872 123.164 94.2009C123.562 94.6134 124.048 94.9314 124.585 95.1315C125.153 95.3588 125.906 95.6003 126.858 95.8774C127.79 96.1146 128.703 96.4161 129.593 96.7796C130.267 97.0647 130.865 97.5024 131.341 98.0582C131.851 98.69 132.118 99.4839 132.094 100.296C132.104 101.114 131.856 101.915 131.383 102.583C130.888 103.276 130.216 103.823 129.437 104.167C128.53 104.571 127.545 104.77 126.553 104.75C124.97 104.83 123.403 104.4 122.085 103.521Z" fill="#48B16A"/>
<path d="M73.8574 17.9721V19.0519H96.4043C108.296 19.0519 117.935 11.0035 117.935 1.07265V0H95.3885C83.497 0 73.8574 8.0484 73.8574 17.9721Z" fill="#48B16A"/>
</svg>
