<svg width="395" height="81" viewBox="0 0 395 81" fill="none" xmlns="http://www.w3.org/2000/svg">
<path d="M205.323 47.5739C202.517 46.6017 199.972 44.9958 197.887 42.8809L199.465 40.2714C201.387 42.2087 203.716 43.6952 206.282 44.624C209.154 45.7488 212.213 46.3193 215.297 46.3053C219.863 46.3053 223.301 45.4389 225.611 43.7061C226.707 42.9496 227.6 41.9345 228.21 40.7507C228.82 39.5669 229.128 38.2509 229.108 36.9193C229.156 35.9795 229.016 35.0396 228.698 34.1543C228.379 33.2689 227.887 32.4558 227.251 31.7622C225.964 30.4469 224.395 29.4416 222.661 28.8227C220.241 27.9576 217.767 27.2479 215.256 26.6979C212.386 26.0181 209.559 25.1709 206.788 24.1606C204.696 23.3586 202.836 22.051 201.373 20.3547C199.809 18.4097 199.016 15.9571 199.145 13.4648C199.127 11.1946 199.773 8.96858 201.002 7.05968C202.385 4.98963 204.352 3.37761 206.654 2.4286C209.664 1.19571 212.902 0.612277 216.153 0.716441C218.799 0.718395 221.43 1.11113 223.961 1.88194C226.335 2.56736 228.581 3.63325 230.614 5.03809L229.314 7.84356C227.373 6.50912 225.232 5.49246 222.971 4.83181C220.761 4.1578 218.464 3.81032 216.153 3.80039C211.718 3.80039 208.359 4.69084 206.076 6.47176C204.991 7.26545 204.112 8.30855 203.514 9.51305C202.917 10.7176 202.617 12.0482 202.642 13.3926C202.593 14.3324 202.732 15.2725 203.051 16.1579C203.37 17.0434 203.862 17.8565 204.498 18.5497C205.785 19.8651 207.355 20.8703 209.088 21.4893C211.533 22.3639 214.026 23.0974 216.555 23.6862C219.419 24.3513 222.237 25.1988 224.992 26.2235C227.058 27.0235 228.903 28.3033 230.376 29.9572C231.94 31.8501 232.735 34.2614 232.604 36.713C232.626 38.9786 231.968 41.1986 230.717 43.0872C229.276 45.1524 227.261 46.7485 224.92 47.677C221.875 48.9036 218.609 49.4865 215.328 49.3892C211.91 49.4032 208.519 48.7879 205.323 47.5739Z" fill="#373737"/>
<path d="M251.313 4.19204H234.047V1.03589H272.086V4.19204H254.809V49.0176H251.313V4.19204Z" fill="#373737"/>
<path d="M309.525 45.8614V49.0176H276.416V1.03589H308.504V4.19204H279.913V23.1083H305.481V26.2026H279.913V45.8718L309.525 45.8614Z" fill="#373737"/>
<path d="M349.371 5.28535C352.809 8.14582 354.528 12.1099 354.528 17.1776C354.528 22.2453 352.809 26.1888 349.371 29.008C345.933 31.8685 341.202 33.2953 335.179 33.2884H321.471V49.0176H317.975V1.03589H335.179C341.216 1.03589 345.947 2.45238 349.371 5.28535ZM346.906 26.7802C349.601 24.5385 350.949 21.3377 350.949 17.1776C350.949 13.0176 349.601 9.80984 346.906 7.55447C344.204 5.28534 340.305 4.1611 335.179 4.1611H321.471V30.1323H335.179C340.305 30.1632 344.204 29.008 346.906 26.8111V26.7802Z" fill="#373737"/>
<path d="M366.134 47.5737C363.327 46.6015 360.783 44.9957 358.697 42.8808L360.275 40.2713C362.198 42.2085 364.527 43.6951 367.093 44.6239C369.965 45.7494 373.023 46.3198 376.108 46.3051C380.68 46.3051 384.118 45.4387 386.422 43.7059C387.518 42.9494 388.41 41.9343 389.02 40.7505C389.63 39.5667 389.939 38.2507 389.918 36.9191C389.968 35.9801 389.83 35.0406 389.513 34.1553C389.196 33.2699 388.706 32.4564 388.072 31.762C386.783 30.4489 385.214 29.4441 383.482 28.8225C381.061 27.9589 378.588 27.2492 376.077 26.6978C373.207 26.0179 370.379 25.1707 367.609 24.1605C365.517 23.3584 363.657 22.0509 362.194 20.3545C360.63 18.4095 359.837 15.9569 359.966 13.4646C359.948 11.1944 360.594 8.9684 361.822 7.05951C363.203 4.9869 365.171 3.37418 367.475 2.42842C370.482 1.19637 373.715 0.612938 376.964 0.716266C379.613 0.717505 382.247 1.11025 384.782 1.88177C387.156 2.56718 389.402 3.63307 391.435 5.03791L390.125 7.84338C388.186 6.51099 386.049 5.49445 383.792 4.83163C381.578 4.15663 379.278 3.80914 376.964 3.80021C372.535 3.80021 369.176 4.69067 366.887 6.47159C365.804 7.26758 364.929 8.31141 364.333 9.51557C363.737 10.7197 363.439 12.0491 363.462 13.3924C363.414 14.3323 363.553 15.2723 363.872 16.1578C364.191 17.0432 364.683 17.8563 365.319 18.5495C366.606 19.8649 368.176 20.8701 369.909 21.4891C372.353 22.3652 374.847 23.0987 377.376 23.686C380.239 24.3526 383.057 25.2001 385.813 26.2233C387.874 27.0262 389.716 28.3056 391.187 29.957C392.751 31.8499 393.546 34.2612 393.415 36.7129C393.433 38.9764 392.78 41.1946 391.538 43.087C390.097 45.1522 388.082 46.7483 385.741 47.6769C382.696 48.9014 379.43 49.4843 376.149 49.389C372.727 49.4043 369.332 48.7889 366.134 47.5737Z" fill="#373737"/>
<path fill-rule="evenodd" clip-rule="evenodd" d="M100.984 2.25277C100.974 2.05348 101.005 1.85422 101.076 1.66773C101.147 1.48125 101.257 1.31164 101.397 1.16978C101.56 1.02027 101.753 0.905664 101.962 0.832955C102.171 0.760246 102.393 0.730961 102.614 0.746898H126.564C129.003 0.733654 131.425 1.16351 133.711 2.01555C135.841 2.79798 137.815 3.95409 139.539 5.42955C141.168 6.83479 142.497 8.55358 143.448 10.4835C144.4 12.4066 144.887 14.5263 144.871 16.672C144.884 18.1132 144.653 19.5462 144.191 20.9112C143.737 22.2504 143.094 23.5181 142.283 24.6759C141.452 25.8511 140.475 26.9153 139.374 27.8423C138.243 28.7987 137.004 29.6191 135.681 30.2868L145.243 46.1294C145.418 46.4389 145.635 46.7999 145.913 47.1608C146.139 47.4616 146.278 47.8182 146.315 48.1923C146.324 48.3476 146.294 48.5027 146.227 48.6433C146.161 48.7838 146.06 48.9054 145.934 48.9968C145.624 49.1875 145.266 49.2843 144.902 49.2752H132.123C131.725 49.2836 131.333 49.1722 130.999 48.9555C130.676 48.7527 130.44 48.4363 130.339 48.0685L121.355 33.1232H115.362V47.8725C115.362 48.8111 114.795 49.2752 113.661 49.2752H102.614C102.19 49.2982 101.771 49.1744 101.428 48.9246C101.279 48.7987 101.162 48.64 101.085 48.4611C101.008 48.2821 100.973 48.0877 100.984 47.8931V2.25277ZM129.967 16.8164C129.964 16.1397 129.827 15.4703 129.565 14.8464C129.29 14.1888 128.907 13.5821 128.431 13.0518C127.919 12.4954 127.315 12.0314 126.646 11.68C125.936 11.2957 125.159 11.0507 124.356 10.958L122.438 10.8342C121.829 10.8342 121.169 10.8342 120.458 10.8342H115.362V22.8193H122.149C122.593 22.8193 122.995 22.8193 123.335 22.8193C123.676 22.8193 124.057 22.8193 124.47 22.7162C125.283 22.6486 126.076 22.4208 126.801 22.0457C127.458 21.7126 128.046 21.2576 128.534 20.7049C128.987 20.1729 129.337 19.5607 129.565 18.8999C129.832 18.2378 129.969 17.5304 129.967 16.8164Z" fill="#6362B0"/>
<path fill-rule="evenodd" clip-rule="evenodd" d="M41.8722 25.0988C41.8722 22.8415 42.2201 20.5975 42.9036 18.4461C43.5652 16.3207 44.531 14.3023 45.771 12.4536C47.0235 10.5711 48.5143 8.85851 50.2061 7.35837C51.9423 5.81789 53.8697 4.50752 55.9408 3.4596C60.3817 1.19894 65.2943 0.0205078 70.2775 0.0205078C75.2607 0.0205078 80.1733 1.19894 84.6143 3.4596C86.6796 4.51308 88.6059 5.81926 90.349 7.34806C92.0491 8.83998 93.5408 10.5537 94.7841 12.4433C96.0086 14.2993 96.9701 16.316 97.6411 18.4358C99.0166 22.7678 99.0166 27.4195 97.6411 31.7515C96.9717 33.8623 96.01 35.869 94.7841 37.7131C93.5398 39.5865 92.0479 41.2831 90.349 42.7567C88.5926 44.2837 86.6605 45.596 84.5937 46.6658C82.4371 47.7744 80.155 48.6193 77.7966 49.1825C72.8327 50.3653 67.6604 50.3653 62.6966 49.1825C60.3453 48.6176 58.0702 47.7726 55.9201 46.6658C53.8552 45.6034 51.9291 44.2904 50.1854 42.7567C48.4948 41.2748 47.0039 39.5794 45.7503 37.7131C44.5085 35.8766 43.5424 33.8681 42.883 31.7515C42.1987 29.5967 41.8508 27.3493 41.8516 25.0885L41.8722 25.0988ZM56.2502 25.0988C56.2354 26.8405 56.5868 28.5659 57.2816 30.1631C57.9518 31.7241 58.9387 33.1289 60.1799 34.2888C61.4649 35.479 62.9673 36.4105 64.6047 37.0324C68.2441 38.3663 72.2387 38.3663 75.8781 37.0324C77.523 36.4131 79.0326 35.4815 80.3236 34.2888C81.5678 33.1293 82.5582 31.7245 83.2322 30.1631C84.2769 27.7773 84.5582 25.1268 84.0375 22.5749C83.5168 20.023 82.2195 17.6946 80.3236 15.9089C79.0374 14.6997 77.5273 13.7537 75.8781 13.124C72.2411 11.7765 68.2417 11.7765 64.6047 13.124C62.9631 13.7566 61.4603 14.7024 60.1799 15.9089C58.9286 17.089 57.9331 18.5137 57.2553 20.0946C56.5776 21.6755 56.2319 23.3788 56.2399 25.0988H56.2502Z" fill="#6362B0"/>
<path fill-rule="evenodd" clip-rule="evenodd" d="M45.9982 4.25414C46.3865 4.43991 46.7099 4.7382 46.9265 5.11022C47.0228 5.30713 47.0631 5.52669 47.0431 5.74496C47.0231 5.96323 46.9435 6.1718 46.813 6.34792L40.5523 14.197C40.4566 14.3539 40.3307 14.4903 40.182 14.5982C40.0333 14.7062 39.8647 14.7837 39.6859 14.8262C39.2883 14.868 38.8882 14.7734 38.5513 14.558C37.3159 13.7434 35.9675 13.1144 34.5494 12.6912C33.0454 12.2512 31.4854 12.0323 29.9184 12.0414C28.0031 12.0281 26.1026 12.3781 24.3177 13.0728C22.678 13.7029 21.1781 14.6491 19.9033 15.8576C18.6771 17.0282 17.6955 18.4305 17.0153 19.9833C16.3218 21.5737 15.9704 23.292 15.9839 25.027C15.9698 26.752 16.3213 28.4604 17.0153 30.0397C17.6926 31.5941 18.6746 32.9969 19.9033 34.1653C21.184 35.3637 22.6825 36.3055 24.3177 36.9399C26.1026 37.6346 28.0031 37.9846 29.9184 37.9713C31.5001 37.9765 33.0742 37.7506 34.5907 37.3009C36.0205 36.8782 37.3796 36.2456 38.6236 35.4237C38.9559 35.2133 39.3444 35.109 39.7375 35.1246C40.0945 35.2069 40.4096 35.4158 40.6245 35.7125L46.9677 43.7782C47.0954 43.9517 47.1733 44.1566 47.1933 44.371C47.2133 44.5854 47.1746 44.8012 47.0812 44.9953C46.8531 45.3475 46.5317 45.6295 46.1529 45.8101C41.318 48.6744 35.7958 50.1717 30.1762 50.1421C27.6365 50.1494 25.1052 49.8516 22.6365 49.255C20.288 48.6918 18.0161 47.8468 15.8704 46.7384C13.8023 45.676 11.8728 44.3631 10.1254 42.8293C8.4347 41.3474 6.94384 39.6519 5.69028 37.7856C4.4484 35.9492 3.48235 33.9406 2.82293 31.824C1.49132 27.4853 1.49132 22.8471 2.82293 18.5084C3.4845 16.383 4.4503 14.3645 5.69028 12.5158C6.94285 10.6333 8.43358 8.92075 10.1254 7.42061C11.8652 5.87994 13.7961 4.56957 15.8704 3.52182C22.8929 -0.00884369 30.9662 -0.841856 38.5617 1.18051C41.1651 1.87292 43.6656 2.90641 45.9982 4.25414Z" fill="#6362B0"/>
<path d="M188.676 38.1049H163.767V29.5235L154.938 29.4307C154.212 29.4238 153.492 29.561 152.819 29.8342C152.146 30.1075 151.534 30.5113 151.018 31.0225C150.502 31.5337 150.092 32.142 149.813 32.8124C149.533 33.4827 149.389 34.2018 149.389 34.9281V47.955C149.377 48.1497 149.41 48.3446 149.487 48.5239C149.564 48.7031 149.683 48.8616 149.833 48.9864C150.176 49.2362 150.595 49.3601 151.019 49.3371H188.532C189.439 49.3371 189.955 49.0277 190.048 48.4191C190.139 48.3503 190.213 48.2615 190.265 48.1597C190.317 48.0578 190.345 47.9455 190.347 47.8312V39.5798C190.399 38.6103 189.79 38.1049 188.676 38.1049Z" fill="#6362B0"/>
<path d="M163.766 11.9999H187.788C188.028 12.0142 188.269 11.9765 188.493 11.8893C188.718 11.802 188.92 11.6674 189.088 11.4945C189.353 11.2141 189.51 10.8486 189.531 10.4631V2.35614C189.541 2.145 189.506 1.93421 189.43 1.73713C189.353 1.54006 189.237 1.36099 189.088 1.21126C188.742 0.906122 188.29 0.750352 187.829 0.778054H151.018C150.8 0.764946 150.582 0.795621 150.377 0.868258C150.171 0.940895 149.983 1.05401 149.822 1.20093C149.676 1.33981 149.562 1.5084 149.487 1.69527C149.412 1.88214 149.379 2.0829 149.388 2.28393V13.2789C149.388 15.0214 150.081 16.6925 151.313 17.9247C152.545 19.1568 154.216 19.849 155.958 19.849H163.766V11.9999Z" fill="#6362B0"/>
<path d="M176.328 19.8179H165.869V29.2347H176.328V19.8179Z" fill="#6362B0"/>
<path d="M72.6623 78.2685H71.9609V68.635H72.6623V78.2685ZM79.1809 73.689H72.5798V73.0701H79.1809V73.689ZM79.0984 68.635H79.7997V78.2685H79.0984V68.635Z" fill="#373737"/>
<path d="M102.191 78.2685L106.627 68.635H107.328L111.753 78.2685H110.979L106.853 69.0785H107.163L103.037 78.2685H102.191ZM103.821 75.5559L104.048 74.9679H109.814L110.051 75.5559H103.821Z" fill="#373737"/>
<path d="M134.145 78.2685V68.635H134.701L141.56 77.4021H141.251V68.635H141.952V78.2685H141.375L134.495 69.5014H134.805V78.2685H134.145Z" fill="#373737"/>
<path d="M165.994 78.2685V68.635H169.769C170.701 68.6137 171.623 68.8265 172.451 69.2539C173.199 69.6471 173.824 70.2397 174.256 70.966C174.677 71.7288 174.897 72.5858 174.897 73.4569C174.897 74.328 174.677 75.185 174.256 75.9478C173.823 76.671 173.198 77.2601 172.451 77.6496C171.623 78.077 170.701 78.2898 169.769 78.2685H165.994ZM166.695 77.6393H169.79C170.61 77.661 171.422 77.4766 172.152 77.103C172.801 76.7652 173.341 76.2502 173.709 75.6177C174.091 74.9608 174.283 74.2112 174.266 73.4517C174.281 72.6925 174.088 71.9437 173.709 71.2858C173.344 70.6539 172.803 70.1415 172.152 69.8108C171.419 69.4195 170.599 69.2207 169.769 69.2332H166.675L166.695 77.6393Z" fill="#373737"/>
<path d="M222.174 78.2685V68.635H222.772L227.238 76.3604H226.929L231.384 68.635H231.962V78.2685H231.281V69.6974H231.477L227.248 76.9895H226.908L222.669 69.6974H222.875V78.2685H222.174Z" fill="#373737"/>
<path d="M254.346 78.2685L258.781 68.635H259.503L263.928 78.2685H263.175L258.987 69.0785H259.297L255.119 78.2685H254.346ZM255.965 75.5559L256.202 74.9679H261.968L262.205 75.5559H255.965Z" fill="#373737"/>
<path d="M286.32 78.2687V68.6352H290.137C291.068 68.6161 291.989 68.8288 292.818 69.2541C293.565 69.6448 294.187 70.2382 294.613 70.9662C295.034 71.729 295.254 72.586 295.254 73.4571C295.254 74.3283 295.034 75.1852 294.613 75.948C294.187 76.6729 293.565 77.2628 292.818 77.6498C291.989 78.0751 291.068 78.2878 290.137 78.2687H286.32ZM287.022 77.6395H290.116C290.939 77.6612 291.755 77.4769 292.488 77.1032C293.135 76.7627 293.675 76.2483 294.046 75.6179C294.419 74.9582 294.608 74.21 294.592 73.452C294.605 72.6943 294.416 71.9469 294.046 71.286C293.677 70.6563 293.137 70.1446 292.488 69.811C291.755 69.4374 290.939 69.253 290.116 69.2747H287.022V77.6395Z" fill="#373737"/>
<path d="M319.025 77.6393H324.977V78.2685H318.293V68.635H324.739V69.2332H318.994L319.025 77.6393ZM318.943 73.0701H324.162V73.689H318.943V73.0701Z" fill="#373737"/>
<path d="M194.068 72.9773C194.068 70.7803 194.068 68.7175 194.068 66.6443C194.034 66.3193 194.12 65.9932 194.31 65.7273C194.5 65.4614 194.781 65.274 195.099 65.2004C195.47 65.169 195.842 65.169 196.213 65.2004C196.281 64.9038 196.442 64.6363 196.671 64.4363C196.9 64.2362 197.187 64.1137 197.49 64.0862C197.793 64.0588 198.097 64.1278 198.359 64.2834C198.62 64.439 198.826 64.6733 198.946 64.9528C200.225 64.5196 201.154 64.9528 201.226 66.6959L201.525 66.6134C201.747 66.5491 201.981 66.5405 202.207 66.5886C202.433 66.6366 202.644 66.7396 202.82 66.8886C202.997 67.0376 203.134 67.2279 203.219 67.4426C203.304 67.6573 203.335 67.8897 203.309 68.1193C203.309 70.6772 203.361 73.2764 203.309 75.793C203.314 76.4773 203.172 77.1546 202.893 77.7792C202.614 78.4039 202.203 78.9611 201.69 79.4133C201.082 79.9271 200.342 80.2595 199.555 80.3726C198.445 80.5575 197.308 80.4976 196.223 80.1972C195.085 79.8948 194.113 79.1529 193.521 78.1344C192.603 76.6491 191.737 75.1226 190.891 73.5858C190.716 73.2685 190.67 72.8968 190.76 72.5461C190.85 72.1954 191.07 71.8923 191.376 71.6983C191.691 71.5116 192.063 71.4453 192.423 71.5117C192.783 71.578 193.107 71.7726 193.335 72.0593C193.562 72.3275 193.769 72.606 194.068 72.9773ZM202.618 71.9459C202.618 71.7602 202.618 71.5745 202.618 71.3889C202.618 70.2853 202.618 69.1713 202.618 68.0677C202.618 67.4179 202.226 67.0982 201.7 67.2529C201.174 67.4076 201.215 67.7583 201.215 68.1193C201.215 69.1507 201.215 70.0996 201.215 71.0898C201.242 71.2156 201.242 71.3455 201.215 71.4714C201.122 71.615 201.007 71.7437 200.875 71.853C200.745 71.7422 200.628 71.6177 200.524 71.4817C200.473 71.4095 200.524 71.2754 200.524 71.1723V66.5825C200.518 66.3569 200.49 66.1324 200.442 65.912C200.419 65.7735 200.345 65.6487 200.234 65.5627C200.123 65.4766 199.983 65.4356 199.844 65.4479C199.349 65.4479 199.101 65.6645 199.101 66.2008C199.101 67.7583 199.101 69.2951 199.101 70.8732C199.134 70.9983 199.134 71.1297 199.101 71.2548C199.063 71.3101 199.014 71.357 198.958 71.3925C198.901 71.428 198.837 71.4514 198.771 71.4611C198.71 71.4527 198.651 71.4295 198.601 71.3936C198.551 71.3576 198.51 71.31 198.482 71.2548C198.456 71.129 198.456 70.999 198.482 70.8732V65.8398C198.482 65.7161 198.482 65.6026 198.482 65.4788C198.482 65.2901 198.407 65.1091 198.274 64.9756C198.14 64.8421 197.959 64.7672 197.77 64.7672C197.582 64.7672 197.401 64.8421 197.267 64.9756C197.134 65.1091 197.059 65.2901 197.059 65.4788V70.9454C197.059 71.1929 197.059 71.4508 196.708 71.4611C196.357 71.4714 196.347 71.2135 196.347 70.9557V66.5618C196.36 66.4392 196.341 66.3152 196.291 66.2022C196.242 66.0892 196.164 65.9909 196.065 65.9171C195.967 65.8432 195.85 65.7963 195.728 65.781C195.606 65.7656 195.481 65.7824 195.367 65.8295C195.212 65.8927 195.082 66.0066 195 66.1526C194.918 66.2987 194.887 66.4684 194.913 66.634C194.913 69.0063 194.913 71.382 194.913 73.7611C194.874 73.9531 194.797 74.1353 194.686 74.2975C194.491 74.2316 194.309 74.1302 194.15 73.9984C193.738 73.5033 193.366 72.967 192.954 72.4719C192.844 72.3084 192.676 72.1935 192.484 72.1512C192.291 72.109 192.09 72.1425 191.922 72.245C191.769 72.3637 191.666 72.5364 191.636 72.728C191.605 72.9196 191.649 73.1157 191.757 73.2764C192.438 74.5141 193.108 75.7518 193.82 76.9689C194.259 77.8927 194.982 78.6518 195.883 79.1349C196.611 79.487 197.406 79.681 198.215 79.7042C199.024 79.7273 199.828 79.5789 200.576 79.2689C201.26 78.9557 201.835 78.444 202.225 77.8003C202.614 77.1566 202.802 76.4105 202.763 75.659C202.67 74.5038 202.618 73.2454 202.618 71.9871V71.9459Z" fill="#373737"/>
<path d="M394.567 73.3286H345.832V73.6587H394.567V73.3286Z" fill="#373737"/>
<path d="M49.3909 73.6584H0.65625V73.9885H49.3909V73.6584Z" fill="#373737"/>
</svg>
