<svg width="246" height="80" viewBox="0 0 246 80" fill="none" xmlns="http://www.w3.org/2000/svg">
<g clip-path="url(#clip0_2370_5691)">
<path d="M8.58031 1.00574H26.8003C31.112 1.00574 34.8454 1.71107 38.0004 3.12175C41.1554 4.53242 43.5873 6.557 45.2831 9.19548C46.9789 11.834 47.8334 14.9427 47.8334 18.5085C47.8334 23.3544 46.7291 27.5995 44.5075 31.2438C42.2859 34.9011 39.2098 37.7093 35.2529 39.6947C31.2961 41.6801 26.7608 42.6728 21.6471 42.6728H0.193359L8.58031 1.00574ZM22.0021 33.2683C24.881 33.2683 27.3655 32.6675 29.4557 31.4528C31.559 30.238 33.1365 28.5792 34.2144 26.4501C35.2924 24.321 35.8313 21.9177 35.8313 19.2139C35.8313 16.5101 34.9506 14.2243 33.1891 12.696C31.4275 11.1678 28.851 10.4102 25.4594 10.4102H18.5053L13.9569 33.2683H21.9889H22.0021Z" fill="#373737"/>
<path d="M63.2805 10.1098L61.9002 17.137H80.5276L78.7924 25.9537H60.0992L58.6006 33.5688H80.5934L78.6741 42.6728H45.0605L53.4606 1.00574H86.2986L84.4451 10.1098H63.2936H63.2805Z" fill="#373737"/>
<path d="M92.3971 41.2099C89.2027 39.6817 86.7445 37.5265 85.0355 34.7574C83.3135 31.9752 82.459 28.7882 82.459 25.1831C82.459 20.4286 83.5632 16.1444 85.7848 12.3303C88.0065 8.51628 91.1089 5.55125 95.092 3.40912C99.0883 1.26699 103.637 0.195923 108.737 0.195923C112.602 0.195923 116.046 0.875136 119.03 2.24662C122.014 3.61811 124.262 5.55125 125.735 8.04605L117.177 14.8251C115.139 11.5727 112.063 9.95307 107.962 9.95307C105.293 9.95307 102.927 10.58 100.902 11.8209C98.8648 13.0748 97.2742 14.799 96.1437 16.9934C95 19.2008 94.4347 21.6695 94.4347 24.3994C94.4347 27.1293 95.3549 29.4804 97.1953 31.1785C99.0357 32.8896 101.52 33.7386 104.675 33.7386C108.672 33.7386 112.076 32.132 114.916 28.9188L121.922 35.7632C119.648 38.5061 116.993 40.4785 113.956 41.6801C110.919 42.8949 107.449 43.4957 103.532 43.4957C99.2986 43.4957 95.5915 42.7382 92.3971 41.2099Z" fill="#373737"/>
<path d="M131.558 41.1707C128.416 39.6164 125.984 37.4481 124.275 34.6529C122.566 31.8708 121.725 28.6706 121.725 25.0917C121.725 20.3111 122.842 16.0137 125.064 12.1866C127.285 8.35954 130.401 5.36839 134.384 3.22626C138.367 1.07107 142.915 0 148.003 0C152.249 0 155.956 0.770645 159.098 2.325C162.24 3.87935 164.672 6.04761 166.381 8.84283C168.089 11.6381 168.931 14.8251 168.931 18.4041C168.931 23.1847 167.813 27.482 165.592 31.3091C163.37 35.1362 160.255 38.1273 156.272 40.2695C152.275 42.4247 147.74 43.4957 142.653 43.4957C138.407 43.4957 134.699 42.7251 131.558 41.1707ZM150.658 31.7271C152.656 30.4078 154.208 28.6445 155.286 26.437C156.364 24.2296 156.916 21.7871 156.916 19.1225C156.916 16.288 156.048 14.0284 154.3 12.3434C152.551 10.6454 150.119 9.8094 146.991 9.8094C144.348 9.8094 142.022 10.4625 140.01 11.7817C137.999 13.101 136.461 14.8643 135.383 17.0718C134.305 19.2792 133.753 21.7217 133.753 24.3864C133.753 27.2208 134.621 29.4804 136.369 31.1654C138.117 32.8634 140.549 33.6994 143.678 33.6994C146.32 33.6994 148.647 33.0463 150.658 31.7271Z" fill="#373737"/>
<path d="M186.363 9.54853L184.601 15.7268H186.429C191.621 15.7268 195.591 16.7325 198.312 18.7571C201.033 20.7817 202.387 23.6944 202.387 27.5346C202.387 30.7609 201.507 33.5822 199.732 36.0117C197.97 38.4281 195.512 40.2829 192.397 41.576C189.268 42.8691 185.719 43.5092 181.736 43.5092C178.607 43.5092 175.662 43.1173 172.902 42.3336C170.141 41.5499 167.749 40.3874 165.711 38.8592L171.311 30.3298C172.81 31.4662 174.545 32.3283 176.517 32.9291C178.489 33.53 180.487 33.8435 182.511 33.8435C184.943 33.8435 186.836 33.4124 188.177 32.5373C189.518 31.6752 190.188 30.4735 190.188 28.9322C190.188 27.6783 189.649 26.7248 188.571 26.0586C187.493 25.3925 185.758 25.0659 183.366 25.0659H171.127L178.252 0.28772H205.358L203.465 9.54853H186.35H186.363Z" fill="#009FE3"/>
<path d="M243.862 34.5615H237.513L235.869 42.6859H224.156L225.8 34.5615H203.229L204.753 26.7375L228.784 0.248169H241.785L219.753 25.0394H228.232L229.691 17.8293H240.852L239.392 25.0394H245.794L243.836 34.5615H243.862Z" fill="#009FE3"/>
</g>
<path fill-rule="evenodd" clip-rule="evenodd" d="M191.415 56.1402H54.5732C53.023 56.1402 51.7662 57.397 51.7662 58.9473V76.4911C51.7662 78.0414 53.023 79.2981 54.5732 79.2981H191.415C192.966 79.2981 194.222 78.0414 194.222 76.4911V58.9473C194.222 57.397 192.966 56.1402 191.415 56.1402ZM54.5732 55.4385C52.6354 55.4385 51.0645 57.0094 51.0645 58.9473V76.4911C51.0645 78.429 52.6354 79.9999 54.5732 79.9999H191.415C193.353 79.9999 194.924 78.429 194.924 76.4911V58.9473C194.924 57.0094 193.353 55.4385 191.415 55.4385H54.5732Z" fill="#373737"/>
<path d="M161.64 64.3513C162.295 64.3513 162.842 64.4823 163.282 64.7443C163.721 65.0063 164.03 65.3946 164.208 65.9092C164.386 66.4145 164.4 67.0367 164.25 67.7759L163.422 71.9303L161.668 71.9303L162.496 67.818C162.617 67.2004 162.566 66.7232 162.341 66.3864C162.117 66.0496 161.71 65.8811 161.12 65.8811C160.512 65.8811 160.011 66.0589 159.619 66.4145C159.235 66.7607 158.968 67.2987 158.819 68.0285L158.033 71.9303L156.278 71.9303L157.106 67.818C157.228 67.2004 157.176 66.7232 156.952 66.3864C156.727 66.0496 156.32 65.8811 155.731 65.8811C155.123 65.8811 154.622 66.0589 154.229 66.4145C153.845 66.7607 153.579 67.3034 153.429 68.0425L152.643 71.9303L150.889 71.9303L152.376 64.4355L154.047 64.4355L153.64 66.4987L153.345 65.8952C153.691 65.3618 154.121 64.9735 154.636 64.7303C155.16 64.4776 155.731 64.3513 156.348 64.3513C156.835 64.3513 157.265 64.4355 157.64 64.6039C158.014 64.763 158.313 65.011 158.538 65.3478C158.772 65.6753 158.907 66.0823 158.945 66.5689L158.103 66.3864C158.486 65.7127 158.978 65.2075 159.576 64.8706C160.185 64.5244 160.872 64.3513 161.64 64.3513Z" fill="#373737"/>
<path d="M146.856 64.3513C147.511 64.3513 148.059 64.4823 148.498 64.7443C148.938 65.0063 149.247 65.3946 149.425 65.9092C149.603 66.4145 149.617 67.0367 149.467 67.7759L148.639 71.9303L146.884 71.9303L147.712 67.818C147.834 67.2004 147.783 66.7232 147.558 66.3864C147.334 66.0496 146.927 65.8811 146.337 65.8811C145.729 65.8811 145.228 66.0589 144.835 66.4145C144.452 66.7607 144.185 67.2987 144.035 68.0285L143.249 71.9303L141.495 71.9303L142.323 67.818C142.445 67.2004 142.393 66.7232 142.169 66.3864C141.944 66.0496 141.537 65.8811 140.948 65.8811C140.339 65.8811 139.839 66.0589 139.446 66.4145C139.062 66.7607 138.796 67.3034 138.646 68.0425L137.86 71.9303L136.105 71.9303L137.593 64.4355L139.263 64.4355L138.856 66.4987L138.562 65.8952C138.908 65.3618 139.338 64.9735 139.853 64.7303C140.377 64.4776 140.948 64.3513 141.565 64.3513C142.052 64.3513 142.482 64.4355 142.856 64.6039C143.231 64.763 143.53 65.011 143.755 65.3478C143.989 65.6753 144.124 66.0823 144.162 66.5689L143.32 66.3864C143.703 65.7127 144.194 65.2075 144.793 64.8706C145.401 64.5244 146.089 64.3513 146.856 64.3513Z" fill="#373737"/>
<path d="M128.993 71.9298L134.803 62.835L135.182 63.6491L129.61 63.6491L130.663 62.7649L130.144 65.3193L128.445 65.3193L129.091 62.1052L136.726 62.1052L136.487 63.3263L131 71.9298L128.993 71.9298Z" fill="#373737"/>
<path d="M119.082 72.0285C118.333 72.0285 117.683 71.8928 117.131 71.6215C116.579 71.3408 116.149 70.9572 115.84 70.4706C115.54 69.9747 115.391 69.3946 115.391 68.7303C115.391 67.8788 115.578 67.1256 115.952 66.4706C116.326 65.8156 116.836 65.301 117.482 64.9268C118.137 64.5431 118.881 64.3513 119.713 64.3513C120.415 64.3513 121.023 64.4823 121.538 64.7443C122.053 65.0063 122.45 65.3852 122.731 65.8811C123.021 66.3677 123.166 66.9525 123.166 67.6355C123.166 67.8133 123.157 67.9958 123.138 68.1829C123.119 68.37 123.091 68.5431 123.054 68.7022L116.696 68.7022L116.892 67.5373L122.226 67.5373L121.51 67.9303C121.585 67.4531 121.552 67.0554 121.412 66.7373C121.271 66.4192 121.047 66.1759 120.738 66.0075C120.429 65.839 120.06 65.7548 119.629 65.7548C119.115 65.7548 118.665 65.8765 118.282 66.1197C117.908 66.3537 117.618 66.6905 117.412 67.1303C117.206 67.5607 117.103 68.0659 117.103 68.6461C117.103 69.2542 117.276 69.7221 117.622 70.0496C117.978 70.3771 118.525 70.5408 119.264 70.5408C119.685 70.5408 120.088 70.4753 120.471 70.3443C120.855 70.204 121.173 70.0121 121.426 69.7689L122.156 70.9899C121.763 71.3361 121.295 71.5981 120.752 71.7759C120.219 71.9443 119.662 72.0285 119.082 72.0285Z" fill="#373737"/>
<path d="M112.415 72.0279C111.928 72.0279 111.507 71.925 111.152 71.7192C110.805 71.504 110.553 71.2045 110.394 70.8209C110.244 70.4279 110.221 69.9648 110.324 69.4314L111.657 62.7788L113.411 62.7788L112.078 69.4174C112.022 69.7636 112.059 70.0443 112.19 70.2595C112.321 70.4747 112.569 70.5823 112.934 70.5823C113.103 70.5823 113.271 70.5589 113.439 70.5121C113.617 70.456 113.776 70.3812 113.917 70.2876L114.225 71.5788C113.963 71.7472 113.673 71.8642 113.355 71.9297C113.037 71.9952 112.724 72.0279 112.415 72.0279ZM109.818 65.8946L110.099 64.4911L115.082 64.4911L114.801 65.8946L109.818 65.8946Z" fill="#373737"/>
<path d="M106.632 72.0279C106.145 72.0279 105.724 71.925 105.368 71.7192C105.022 71.504 104.77 71.2045 104.611 70.8209C104.461 70.4279 104.437 69.9648 104.54 69.4314L105.874 62.7788L107.628 62.7788L106.295 69.4174C106.239 69.7636 106.276 70.0443 106.407 70.2595C106.538 70.4747 106.786 70.5823 107.151 70.5823C107.319 70.5823 107.488 70.5589 107.656 70.5121C107.834 70.456 107.993 70.3812 108.133 70.2876L108.442 71.5788C108.18 71.7472 107.89 71.8642 107.572 71.9297C107.254 71.9952 106.94 72.0279 106.632 72.0279ZM104.035 65.8946L104.316 64.4911L109.298 64.4911L109.018 65.8946L104.035 65.8946Z" fill="#373737"/>
<path d="M97.5795 72.0285C96.9713 72.0285 96.4146 71.8975 95.9093 71.6355C95.4134 71.3735 95.0158 70.9993 94.7163 70.5127C94.4263 70.0168 94.2813 69.4227 94.2813 68.7303C94.2813 68.094 94.3842 67.5092 94.59 66.9759C94.8052 66.4425 95.1046 65.9794 95.4883 65.5864C95.8719 65.1934 96.3163 64.8893 96.8216 64.6741C97.3362 64.4589 97.8976 64.3513 98.5058 64.3513C99.1327 64.3513 99.6707 64.4636 100.12 64.6882C100.578 64.9127 100.925 65.2542 101.158 65.7127C101.392 66.1618 101.5 66.7232 101.481 67.3969C101.463 68.3233 101.294 69.1373 100.976 69.839C100.658 70.5314 100.213 71.0695 99.6427 71.4531C99.0719 71.8367 98.3842 72.0285 97.5795 72.0285ZM98.0286 70.5268C98.5339 70.5268 98.9783 70.4098 99.362 70.1759C99.7456 69.9326 100.05 69.6004 100.274 69.1794C100.499 68.7583 100.611 68.2718 100.611 67.7197C100.611 67.1396 100.438 66.6811 100.092 66.3443C99.7456 66.0075 99.259 65.839 98.6321 65.839C98.1362 65.839 97.6918 65.9607 97.2988 66.204C96.9152 66.4379 96.6111 66.7654 96.3865 67.1864C96.162 67.6075 96.0497 68.094 96.0497 68.6461C96.0497 69.2262 96.2228 69.6847 96.569 70.0215C96.9152 70.3583 97.4017 70.5268 98.0286 70.5268ZM99.8672 71.9303L100.204 70.218L100.681 68.225L100.92 66.218L101.271 64.4355L103.025 64.4355L101.537 71.9303L99.8672 71.9303Z" fill="#373737"/>
<path d="M80.9727 71.9298L82.9376 62.1052L84.4253 62.1052L87.2885 69.3052L86.5165 69.2912L92.1165 62.1052L93.6885 62.1052L91.7235 71.9298L89.9972 71.9298L91.4148 64.7719L91.8218 64.7859L87.0779 70.807L86.2639 70.807L83.7797 64.7719L84.1306 64.814L82.713 71.9298L80.9727 71.9298Z" fill="#373737"/>
<defs>
<clipPath id="clip0_2370_5691">
<rect width="245.614" height="43.5088" fill="white" transform="translate(0.193359)"/>
</clipPath>
</defs>
</svg>
