<svg width="226" height="74" viewBox="0 0 226 74" fill="none" xmlns="http://www.w3.org/2000/svg">
<g clip-path="url(#clip0_1755_8876)">
<path d="M8.33069 1.1665H25.0027C28.9482 1.1665 32.3644 1.81192 35.2514 3.10275C38.1383 4.39358 40.3637 6.24615 41.9154 8.66048C43.4671 11.0748 44.249 13.9194 44.249 17.1823C44.249 21.6166 43.2386 25.501 41.2057 28.8357C39.1728 32.1823 36.358 34.752 32.7373 36.5687C29.1166 38.3854 24.9667 39.2938 20.2874 39.2938H0.65625L8.33069 1.1665ZM20.6122 30.6882C23.2465 30.6882 25.52 30.1384 27.4326 29.0269C29.3572 27.9153 30.8007 26.3974 31.7871 24.4492C32.7734 22.501 33.2666 20.3018 33.2666 17.8278C33.2666 15.3537 32.4607 13.2621 30.8488 11.8637C29.2369 10.4653 26.8793 9.77203 23.7758 9.77203H17.4125L13.2505 30.6882H20.6002H20.6122Z" fill="#373737"/>
<path d="M58.383 9.49713L57.12 15.9274H74.1649L72.5771 23.9951H55.472L54.1007 30.9631H74.2251L72.4688 39.2938H41.7109L49.3974 1.1665H79.4456L77.7495 9.49713H58.395H58.383Z" fill="#373737"/>
<path d="M85.0274 37.9549C82.1044 36.5565 79.855 34.5844 78.2913 32.0506C76.7155 29.5048 75.9336 26.5885 75.9336 23.2897C75.9336 18.9391 76.944 15.0188 78.9769 11.5288C81.0098 8.03879 83.8486 5.32566 87.4934 3.36551C91.1502 1.40537 95.3122 0.425293 99.9794 0.425293C103.516 0.425293 106.667 1.0468 109.398 2.30178C112.129 3.55675 114.186 5.32566 115.533 7.60852L107.702 13.8117C105.837 10.8356 103.023 9.35353 99.2697 9.35353C96.8278 9.35353 94.6626 9.92723 92.8101 11.0627C90.9457 12.2101 89.4902 13.7878 88.4557 15.7957C87.4092 17.8156 86.8919 20.0746 86.8919 22.5726C86.8919 25.0706 87.7339 27.2219 89.418 28.7757C91.102 30.3414 93.3755 31.1183 96.2624 31.1183C99.9192 31.1183 103.035 29.6482 105.633 26.708L112.044 32.9709C109.963 35.4809 107.534 37.2856 104.755 38.3852C101.976 39.4968 98.8005 40.0466 95.2159 40.0466C91.3426 40.0466 87.9505 39.3533 85.0274 37.9549Z" fill="#373737"/>
<path d="M120.861 37.9192C117.986 36.4969 115.761 34.5128 114.197 31.9551C112.633 29.4093 111.863 26.481 111.863 23.2061C111.863 18.8316 112.886 14.8994 114.919 11.3974C116.952 7.89545 119.802 5.15841 123.447 3.19827C127.092 1.22617 131.254 0.246094 135.909 0.246094C139.794 0.246094 143.187 0.951269 146.061 2.37357C148.936 3.79587 151.162 5.77992 152.725 8.33768C154.289 10.8954 155.059 13.8117 155.059 17.0866C155.059 21.4611 154.037 25.3934 152.004 28.8953C149.971 32.3973 147.12 35.1343 143.475 37.0945C139.818 39.0666 135.668 40.0466 131.013 40.0466C127.128 40.0466 123.736 39.3415 120.861 37.9192ZM138.339 29.2778C140.167 28.0706 141.587 26.4571 142.573 24.4372C143.559 22.4173 144.065 20.1822 144.065 17.744C144.065 15.1504 143.271 13.0827 141.671 11.5408C140.071 9.98707 137.846 9.22214 134.983 9.22214C132.565 9.22214 130.436 9.81974 128.595 11.0269C126.755 12.2341 125.348 13.8476 124.361 15.8675C123.375 17.8874 122.87 20.1225 122.87 22.5607C122.87 25.1543 123.664 27.222 125.263 28.7638C126.863 30.3176 129.089 31.0826 131.952 31.0826C134.369 31.0826 136.498 30.485 138.339 29.2778Z" fill="#373737"/>
<path d="M171.009 8.98333L169.397 14.6367H171.069C175.82 14.6367 179.453 15.557 181.943 17.4096C184.433 19.2622 185.672 21.9275 185.672 25.4414C185.672 28.3936 184.866 30.9752 183.242 33.1983C181.63 35.4095 179.381 37.1067 176.53 38.2899C173.667 39.4732 170.419 40.0588 166.775 40.0588C163.912 40.0588 161.217 39.7003 158.691 38.9832C156.165 38.266 153.976 37.2023 152.111 35.8039L157.236 27.9992C158.607 29.039 160.195 29.8278 161.999 30.3776C163.803 30.9274 165.632 31.2143 167.484 31.2143C169.71 31.2143 171.442 30.8199 172.669 30.0191C173.896 29.2302 174.509 28.1306 174.509 26.7203C174.509 25.5729 174.016 24.7004 173.03 24.0908C172.043 23.4813 170.455 23.1825 168.266 23.1825H157.067L163.587 0.509277H188.391L186.658 8.98333H170.997H171.009Z" fill="#009FE3"/>
<path d="M223.623 31.8714H217.813L216.309 39.3056H205.591L207.095 31.8714H186.441L187.837 24.712L209.826 0.473145H221.722L201.562 23.1583H209.32L210.656 16.5607H220.868L219.533 23.1583H225.391L223.599 31.8714H223.623Z" fill="#009FE3"/>
</g>
<path fill-rule="evenodd" clip-rule="evenodd" d="M175.638 51.617H50.4216C49.0031 51.617 47.8531 52.767 47.8531 54.1855V70.239C47.8531 71.6575 49.0031 72.8075 50.4216 72.8075H175.638C177.057 72.8075 178.207 71.6575 178.207 70.239V54.1855C178.207 52.767 177.057 51.617 175.638 51.617ZM50.4216 50.9749C48.6484 50.9749 47.2109 52.4123 47.2109 54.1855V70.239C47.2109 72.0122 48.6484 73.4497 50.4216 73.4497H175.638C177.412 73.4497 178.849 72.0122 178.849 70.239V54.1855C178.849 52.4123 177.412 50.9749 175.638 50.9749H50.4216Z" fill="#373737"/>
<path d="M148.382 59.1311C148.982 59.1311 149.483 59.251 149.885 59.4907C150.287 59.7304 150.57 60.0857 150.733 60.5566C150.895 61.019 150.908 61.5883 150.771 62.2647L150.013 66.0662L148.408 66.0662L149.166 62.3033C149.277 61.7382 149.23 61.3015 149.025 60.9933C148.819 60.6851 148.447 60.531 147.907 60.531C147.351 60.531 146.893 60.6936 146.533 61.019C146.182 61.3358 145.938 61.8281 145.801 62.4959L145.082 66.0662L143.477 66.0662L144.234 62.3033C144.346 61.7382 144.298 61.3015 144.093 60.9933C143.888 60.6851 143.515 60.531 142.976 60.531C142.419 60.531 141.961 60.6936 141.601 61.019C141.25 61.3358 141.006 61.8324 140.869 62.5087L140.15 66.0662L138.545 66.0662L139.906 59.2082L141.435 59.2082L141.062 61.096L140.792 60.5438C141.109 60.0558 141.503 59.7005 141.974 59.4779C142.453 59.2467 142.976 59.1311 143.541 59.1311C143.986 59.1311 144.38 59.2082 144.722 59.3623C145.065 59.5078 145.339 59.7347 145.544 60.0429C145.758 60.3426 145.882 60.715 145.917 61.1603L145.146 60.9933C145.497 60.3768 145.947 59.9145 146.495 59.6063C147.051 59.2895 147.68 59.1311 148.382 59.1311Z" fill="#373737"/>
<path d="M134.863 59.1311C135.462 59.1311 135.963 59.251 136.366 59.4907C136.768 59.7304 137.05 60.0857 137.213 60.5566C137.376 61.019 137.389 61.5883 137.252 62.2647L136.494 66.0662L134.889 66.0662L135.646 62.3033C135.758 61.7382 135.711 61.3015 135.505 60.9933C135.3 60.6851 134.927 60.531 134.388 60.531C133.831 60.531 133.373 60.6936 133.014 61.019C132.663 61.3358 132.419 61.8281 132.282 62.4959L131.562 66.0662L129.957 66.0662L130.715 62.3033C130.826 61.7382 130.779 61.3015 130.573 60.9933C130.368 60.6851 129.996 60.531 129.456 60.531C128.9 60.531 128.442 60.6936 128.082 61.019C127.731 61.3358 127.487 61.8324 127.35 62.5087L126.631 66.0662L125.025 66.0662L126.387 59.2082L127.915 59.2082L127.543 61.096L127.273 60.5438C127.59 60.0558 127.984 59.7005 128.454 59.4779C128.934 59.2467 129.456 59.1311 130.021 59.1311C130.466 59.1311 130.86 59.2082 131.203 59.3623C131.545 59.5078 131.819 59.7347 132.025 60.0429C132.239 60.3426 132.363 60.715 132.397 61.1603L131.627 60.9933C131.978 60.3768 132.427 59.9145 132.975 59.6063C133.532 59.2895 134.161 59.1311 134.863 59.1311Z" fill="#373737"/>
<path d="M118.516 66.0656L123.833 57.7435L124.18 58.4884L119.082 58.4884L120.045 57.6793L119.57 60.0167L118.016 60.0167L118.606 57.0757L125.593 57.0757L125.375 58.193L120.353 66.0656L118.516 66.0656Z" fill="#373737"/>
<path d="M109.442 66.1561C108.757 66.1561 108.162 66.0319 107.657 65.7836C107.152 65.5268 106.758 65.1758 106.475 64.7305C106.201 64.2768 106.064 63.7459 106.064 63.138C106.064 62.3589 106.236 61.6697 106.578 61.0704C106.921 60.471 107.387 60.0001 107.978 59.6577C108.577 59.3066 109.258 59.1311 110.02 59.1311C110.662 59.1311 111.219 59.251 111.69 59.4907C112.16 59.7304 112.524 60.0772 112.781 60.531C113.047 60.9762 113.179 61.5113 113.179 62.1363C113.179 62.299 113.171 62.4659 113.154 62.6372C113.137 62.8084 113.111 62.9668 113.077 63.1124L107.259 63.1124L107.439 62.0464L112.319 62.0464L111.664 62.406C111.732 61.9693 111.702 61.6055 111.574 61.3144C111.446 61.0233 111.24 60.8007 110.958 60.6465C110.675 60.4924 110.337 60.4154 109.943 60.4154C109.472 60.4154 109.061 60.5267 108.71 60.7493C108.368 60.9633 108.102 61.2716 107.914 61.674C107.725 62.0678 107.631 62.5302 107.631 63.061C107.631 63.6175 107.79 64.0456 108.106 64.3453C108.432 64.6449 108.933 64.7948 109.609 64.7948C109.994 64.7948 110.362 64.7348 110.714 64.615C111.065 64.4865 111.356 64.311 111.587 64.0884L112.255 65.2057C111.895 65.5225 111.467 65.7622 110.97 65.9249C110.482 66.079 109.973 66.1561 109.442 66.1561Z" fill="#373737"/>
<path d="M103.351 66.1553C102.905 66.1553 102.52 66.0611 102.195 65.8727C101.878 65.6758 101.647 65.4018 101.501 65.0508C101.364 64.6912 101.343 64.2674 101.437 63.7794L102.657 57.6919L104.262 57.6919L103.042 63.7665C102.991 64.0833 103.025 64.3402 103.145 64.5371C103.265 64.734 103.492 64.8325 103.826 64.8325C103.98 64.8325 104.134 64.8111 104.288 64.7682C104.451 64.7169 104.596 64.6484 104.725 64.5628L105.007 65.7443C104.767 65.8984 104.502 66.0054 104.211 66.0654C103.92 66.1253 103.633 66.1553 103.351 66.1553ZM100.975 60.543L101.231 59.2587L105.791 59.2587L105.534 60.543L100.975 60.543Z" fill="#373737"/>
<path d="M98.0595 66.1553C97.6143 66.1553 97.229 66.0611 96.9037 65.8727C96.5869 65.6758 96.3557 65.4018 96.2101 65.0508C96.0732 64.6912 96.0518 64.2674 96.1459 63.7794L97.366 57.6919L98.9713 57.6919L97.7513 63.7665C97.6999 64.0833 97.7341 64.3402 97.854 64.5371C97.9739 64.734 98.2008 64.8325 98.5347 64.8325C98.6888 64.8325 98.8429 64.8111 98.997 64.7682C99.1597 64.7169 99.3052 64.6484 99.4337 64.5628L99.7162 65.7443C99.4765 65.8984 99.2111 66.0054 98.92 66.0654C98.6289 66.1253 98.342 66.1553 98.0595 66.1553ZM95.6836 60.543L95.9404 59.2587L100.5 59.2587L100.243 60.543L95.6836 60.543Z" fill="#373737"/>
<path d="M89.768 66.1561C89.2115 66.1561 88.7021 66.0362 88.2398 65.7965C87.786 65.5568 87.4221 65.2143 87.1481 64.7691C86.8827 64.3153 86.75 63.7716 86.75 63.138C86.75 62.5558 86.8442 62.0207 87.0325 61.5327C87.2295 61.0447 87.5034 60.6209 87.8545 60.2613C88.2055 59.9017 88.6122 59.6234 89.0745 59.4265C89.5454 59.2296 90.0591 59.1311 90.6157 59.1311C91.1893 59.1311 91.6816 59.2338 92.0926 59.4393C92.5121 59.6448 92.8289 59.9573 93.0429 60.3768C93.257 60.7878 93.3555 61.3015 93.3383 61.918C93.3212 62.7656 93.1671 63.5105 92.876 64.1526C92.5849 64.7862 92.1782 65.2785 91.6559 65.6295C91.1337 65.9806 90.5044 66.1561 89.768 66.1561ZM90.179 64.7819C90.6414 64.7819 91.048 64.6749 91.3991 64.4608C91.7501 64.2382 92.0284 63.9343 92.2339 63.549C92.4393 63.1637 92.5421 62.7185 92.5421 62.2134C92.5421 61.6825 92.3837 61.263 92.0669 60.9548C91.7501 60.6465 91.3049 60.4924 90.7313 60.4924C90.2775 60.4924 89.8708 60.6037 89.5112 60.8263C89.1602 61.0404 88.8819 61.3401 88.6764 61.7253C88.4709 62.1106 88.3682 62.5558 88.3682 63.061C88.3682 63.5918 88.5266 64.0113 88.8434 64.3196C89.1602 64.6278 89.6054 64.7819 90.179 64.7819ZM91.8614 66.0662L92.1696 64.4994L92.6063 62.6757L92.8246 60.8392L93.1457 59.2082L94.751 59.2082L93.3897 66.0662L91.8614 66.0662Z" fill="#373737"/>
<path d="M74.5742 66.0656L76.3722 57.0757L77.7335 57.0757L80.3535 63.664L79.6471 63.6512L84.7714 57.0757L86.2097 57.0757L84.4118 66.0656L82.8321 66.0656L84.1292 59.5158L84.5017 59.5286L80.1608 65.0382L79.4159 65.0382L77.1428 59.5158L77.4638 59.5543L76.1667 66.0656L74.5742 66.0656Z" fill="#373737"/>
<defs>
<clipPath id="clip0_1755_8876">
<rect width="224.748" height="39.8125" fill="white" transform="translate(0.65625 0.246094)"/>
</clipPath>
</defs>
</svg>
