<svg width="345" height="58" viewBox="0 0 345 58" fill="none" xmlns="http://www.w3.org/2000/svg">
<mask id="mask0_1755_8999" style="mask-type:luminance" maskUnits="userSpaceOnUse" x="0" y="1" width="56" height="57">
<path d="M0.65625 1.23237H25.0421C30.5245 1.12837 35.9546 2.31403 40.8947 4.69375C45.3739 6.84638 49.1316 10.2534 51.7115 14.501C54.2171 18.9665 55.5331 24.0011 55.5331 29.1217C55.5331 34.2422 54.2171 39.2768 51.7115 43.7423C49.1316 47.9899 45.3739 51.3969 40.8947 53.5495C35.9546 55.9293 30.5245 57.1149 25.0421 57.0109H0.65625V1.23237ZM24.5613 48.2493C28.3064 48.3163 32.0139 47.4924 35.3781 45.8456C38.3952 44.3825 40.9063 42.0514 42.5893 39.1512C44.2382 36.048 45.1004 32.5876 45.1004 29.0736C45.1004 25.5595 44.2382 22.0991 42.5893 18.9959C40.9063 16.0958 38.3952 13.7646 35.3781 12.3016C32.0139 10.6547 28.3064 9.83083 24.5613 9.89782H11.0163V48.1532L24.5613 48.2493Z" fill="white"/>
</mask>
<g mask="url(#mask0_1755_8999)">
<rect x="0.462891" y="9.92188" width="55.3819" height="38.652" fill="url(#paint0_linear_1755_8999)"/>
<rect x="0.462891" y="0.69165" width="55.3819" height="56.5357" fill="url(#paint1_linear_1755_8999)"/>
</g>
<mask id="mask1_1755_8999" style="mask-type:luminance" maskUnits="userSpaceOnUse" x="58" y="1" width="43" height="57">
<path d="M100.555 48.3335V57.011H58.6699V1.23242H99.3531V9.90989H69.03V24.4164H95.9638V32.9496H69.03V48.3335H100.555Z" fill="white"/>
</mask>
<g mask="url(#mask1_1755_8999)">
<rect x="58.1523" y="0.691162" width="42.6902" height="56.5357" fill="url(#paint2_linear_1755_8999)"/>
</g>
<mask id="mask2_1755_8999" style="mask-type:luminance" maskUnits="userSpaceOnUse" x="100" y="0" width="53" height="58">
<path d="M114.581 54.1023C110.144 51.7386 106.447 48.1949 103.897 43.8624C101.356 39.3647 100.021 34.287 100.021 29.1215C100.021 23.9561 101.356 18.8783 103.897 14.3807C106.467 10.0518 110.175 6.51024 114.617 4.14076C119.308 1.62928 124.561 0.351349 129.881 0.427002C134.17 0.381054 138.425 1.19851 142.392 2.83073C146.096 4.35856 149.389 6.73377 152.007 9.7655L145.313 16.0633C143.444 13.9666 141.146 12.2973 138.574 11.169C136.002 10.0408 133.218 9.48007 130.41 9.52511C126.826 9.46845 123.287 10.3334 120.134 12.037C117.164 13.6544 114.704 16.0685 113.031 19.0078C111.358 22.1208 110.483 25.5997 110.483 29.1335C110.483 32.6674 111.358 36.1463 113.031 39.2593C114.704 42.1986 117.164 44.6127 120.134 46.2301C123.287 47.9337 126.826 48.7986 130.41 48.742C133.226 48.7853 136.017 48.2155 138.591 47.0719C141.164 45.9284 143.458 44.2386 145.313 42.1197L152.007 48.5016C149.391 51.5353 146.097 53.9109 142.392 55.4364C138.412 57.0664 134.146 57.8837 129.845 57.8401C124.522 57.9099 119.269 56.6236 114.581 54.1023Z" fill="white"/>
</mask>
<g mask="url(#mask2_1755_8999)">
<rect x="99.6895" y="0.114746" width="52.4975" height="58.2664" fill="url(#paint3_linear_1755_8999)"/>
</g>
<mask id="mask3_1755_8999" style="mask-type:luminance" maskUnits="userSpaceOnUse" x="148" y="0" width="62" height="58">
<path d="M163.63 54.1027C159.141 51.7474 155.396 48.1894 152.813 43.8268C150.254 39.3485 148.908 34.2799 148.908 29.122C148.908 23.964 150.254 18.8954 152.813 14.4171C155.396 10.0545 159.141 6.49649 163.63 4.14119C168.391 1.70075 173.664 0.427979 179.014 0.427979C184.364 0.427979 189.637 1.70075 194.398 4.14119C198.855 6.50231 202.577 10.045 205.155 14.3811C207.714 18.8723 209.06 23.9526 209.06 29.122C209.06 34.2913 207.714 39.3716 205.155 43.8628C202.577 48.1989 198.855 51.7416 194.398 54.1027C189.637 56.5432 184.364 57.8159 179.014 57.8159C173.664 57.8159 168.391 56.5432 163.63 54.1027ZM189.05 46.2185C191.996 44.5761 194.426 42.1456 196.068 39.1996C197.741 36.1039 198.617 32.6406 198.617 29.122C198.617 25.6033 197.741 22.14 196.068 19.0443C194.426 16.0983 191.996 13.6678 189.05 12.0254C185.959 10.3767 182.511 9.51433 179.008 9.51433C175.505 9.51433 172.057 10.3767 168.966 12.0254C166.024 13.6681 163.597 16.0987 161.96 19.0443C160.287 22.14 159.411 25.6033 159.411 29.122C159.411 32.6406 160.287 36.1039 161.96 39.1996C163.597 42.1452 166.024 44.5758 168.966 46.2185C172.057 47.8672 175.505 48.7296 179.008 48.7296C182.511 48.7296 185.959 47.8672 189.05 46.2185Z" fill="white"/>
</mask>
<g mask="url(#mask3_1755_8999)">
<rect x="148.727" y="9.34595" width="60.574" height="39.8058" fill="url(#paint4_linear_1755_8999)"/>
<rect x="148.727" y="0.115234" width="60.574" height="58.2664" fill="url(#paint5_linear_1755_8999)"/>
</g>
<path d="M225.154 4.89811H205.119V1.23242H249.348V4.89811H229.217V57.011H225.154V4.89811Z" fill="#373737"/>
<path d="M251.537 1.23242H255.599V57.011H251.537V1.23242Z" fill="#373737"/>
<path d="M267.23 1.23242H271.293V53.3453H303.419V56.9509H267.23V1.23242Z" fill="#373737"/>
<path d="M344.536 53.3453V56.9509H306.076V1.23242H343.334V4.89811H310.102V26.8922H339.837V30.4978H310.102V53.3333L344.536 53.3453Z" fill="#373737"/>
<defs>
<linearGradient id="paint0_linear_1755_8999" x1="28.1539" y1="9.92188" x2="28.1539" y2="48.5739" gradientUnits="userSpaceOnUse">
<stop stop-color="#F1DC93"/>
<stop offset="1" stop-color="#D19758"/>
</linearGradient>
<linearGradient id="paint1_linear_1755_8999" x1="28.1539" y1="0.69165" x2="28.1539" y2="57.2274" gradientUnits="userSpaceOnUse">
<stop stop-color="#F1DC93"/>
<stop offset="1" stop-color="#D19758"/>
</linearGradient>
<linearGradient id="paint2_linear_1755_8999" x1="79.4975" y1="0.691162" x2="79.4975" y2="57.2269" gradientUnits="userSpaceOnUse">
<stop stop-color="#F1DC93"/>
<stop offset="1" stop-color="#D19758"/>
</linearGradient>
<linearGradient id="paint3_linear_1755_8999" x1="125.938" y1="0.114746" x2="125.938" y2="58.3812" gradientUnits="userSpaceOnUse">
<stop stop-color="#F1DC93"/>
<stop offset="1" stop-color="#D19758"/>
</linearGradient>
<linearGradient id="paint4_linear_1755_8999" x1="179.014" y1="9.34595" x2="179.014" y2="49.1517" gradientUnits="userSpaceOnUse">
<stop stop-color="#F1DC93"/>
<stop offset="1" stop-color="#D19758"/>
</linearGradient>
<linearGradient id="paint5_linear_1755_8999" x1="179.014" y1="0.115234" x2="179.014" y2="58.3816" gradientUnits="userSpaceOnUse">
<stop stop-color="#F1DC93"/>
<stop offset="1" stop-color="#D19758"/>
</linearGradient>
</defs>
</svg>
