<svg width="300" height="50" viewBox="0 0 300 50" fill="none" xmlns="http://www.w3.org/2000/svg">
<mask id="mask0_2370_5584" style="mask-type:luminance" maskUnits="userSpaceOnUse" x="0" y="0" width="49" height="50">
<path d="M0.275391 0.703969H21.5104C26.2844 0.613408 31.0129 1.64587 35.3147 3.71811C39.2152 5.59261 42.4874 8.5594 44.7339 12.2581C46.9158 16.1467 48.0617 20.5308 48.0617 24.9897C48.0617 29.4487 46.9158 33.8327 44.7339 37.7213C42.4874 41.4201 39.2152 44.3869 35.3147 46.2614C31.0129 48.3336 26.2844 49.3661 21.5104 49.2755H0.275391V0.703969ZM21.0918 41.646C24.353 41.7043 27.5814 40.9869 30.5109 39.5528C33.1382 38.2788 35.3248 36.2488 36.7904 33.7234C38.2262 31.0212 38.9771 28.0079 38.9771 24.9479C38.9771 21.8879 38.2262 18.8746 36.7904 16.1723C35.3248 13.6469 33.1382 11.617 30.5109 10.3429C27.5814 8.90886 24.353 8.19144 21.0918 8.24978H9.29686V41.5622L21.0918 41.646Z" fill="white"/>
</mask>
<g mask="url(#mask0_2370_5584)">
<rect x="0.107422" y="8.27087" width="48.2262" height="33.6578" fill="url(#paint0_linear_2370_5584)"/>
<rect x="0.107422" y="0.233154" width="48.2262" height="49.2309" fill="url(#paint1_linear_2370_5584)"/>
</g>
<mask id="mask1_2370_5584" style="mask-type:luminance" maskUnits="userSpaceOnUse" x="50" y="0" width="38" height="50">
<path d="M87.2661 41.7195V49.2758H50.793V0.704224H86.2195V8.2605H59.8145V20.8926H83.2682V28.3233H59.8145V41.7195H87.2661Z" fill="white"/>
</mask>
<g mask="url(#mask1_2370_5584)">
<rect x="50.3418" y="0.23291" width="37.1743" height="49.2309" fill="url(#paint2_linear_2370_5584)"/>
</g>
<mask id="mask2_2370_5584" style="mask-type:luminance" maskUnits="userSpaceOnUse" x="86" y="0" width="47" height="50">
<path d="M99.4793 46.7428C95.6156 44.6845 92.3958 41.5987 90.1752 37.826C87.9632 33.9095 86.8008 29.4878 86.8008 24.9897C86.8008 20.4917 87.9632 16.07 90.1752 12.1535C92.4137 8.38397 95.6425 5.3 99.5107 3.23668C103.595 1.04969 108.169 -0.0631139 112.802 0.00276375C116.537 -0.0372474 120.243 0.674591 123.697 2.09591C126.922 3.42634 129.789 5.49465 132.07 8.13465L126.24 13.6187C124.613 11.793 122.612 10.3393 120.372 9.35685C118.133 8.37436 115.708 7.8861 113.263 7.92533C110.142 7.87599 107.061 8.62918 104.314 10.1127C101.728 11.5211 99.5859 13.6233 98.1292 16.1828C96.6727 18.8936 95.9103 21.9229 95.9103 25.0002C95.9103 28.0775 96.6727 31.1068 98.1292 33.8176C99.5859 36.3771 101.728 38.4793 104.314 39.8877C107.061 41.3712 110.142 42.1244 113.263 42.0751C115.715 42.1128 118.145 41.6166 120.386 40.6208C122.627 39.625 124.625 38.1535 126.24 36.3084L132.07 41.8658C129.791 44.5075 126.923 46.5761 123.697 47.9045C120.231 49.3239 116.516 50.0356 112.771 49.9976C108.136 50.0585 103.562 48.9384 99.4793 46.7428Z" fill="white"/>
</mask>
<g mask="url(#mask2_2370_5584)">
<rect x="86.5117" y="-0.269165" width="45.7144" height="50.7379" fill="url(#paint3_linear_2370_5584)"/>
</g>
<mask id="mask3_2370_5584" style="mask-type:luminance" maskUnits="userSpaceOnUse" x="129" y="0" width="53" height="50">
<path d="M142.191 46.7432C138.282 44.6922 135.02 41.5939 132.772 37.795C130.543 33.8953 129.371 29.4816 129.371 24.9902C129.371 20.4987 130.543 16.085 132.772 12.1853C135.02 8.38638 138.282 5.28808 142.191 3.2371C146.337 1.11198 150.928 0.00366211 155.587 0.00366211C160.246 0.00366211 164.837 1.11198 168.983 3.2371C172.865 5.29314 176.105 8.37813 178.35 12.1539C180.579 16.0648 181.751 20.4887 181.751 24.9902C181.751 29.4916 180.579 33.9155 178.35 37.8264C176.105 41.6022 172.865 44.6872 168.983 46.7432C164.837 48.8683 160.246 49.9767 155.587 49.9767C150.928 49.9767 146.337 48.8683 142.191 46.7432ZM164.326 39.8777C166.891 38.4475 169.008 36.3311 170.438 33.7657C171.894 31.07 172.657 28.0542 172.657 24.9902C172.657 21.9262 171.894 18.9103 170.438 16.2146C169.008 13.6492 166.891 11.5328 164.326 10.1026C161.635 8.66697 158.632 7.91599 155.582 7.91599C152.532 7.91599 149.529 8.66697 146.838 10.1026C144.275 11.533 142.162 13.6496 140.736 16.2146C139.28 18.9103 138.517 21.9262 138.517 24.9902C138.517 28.0542 139.28 31.07 140.736 33.7657C142.162 36.3307 144.275 38.4473 146.838 39.8777C149.529 41.3133 152.532 42.0643 155.582 42.0643C158.632 42.0643 161.635 41.3133 164.326 39.8777Z" fill="white"/>
</mask>
<g mask="url(#mask3_2370_5584)">
<rect x="129.211" y="7.76929" width="52.7474" height="34.6626" fill="url(#paint4_linear_2370_5584)"/>
<rect x="129.211" y="-0.268677" width="52.7474" height="50.7379" fill="url(#paint5_linear_2370_5584)"/>
</g>
<path d="M195.767 3.89628H178.32V0.704224H216.834V3.89628H199.304V49.2758H195.767V3.89628Z" fill="#373737"/>
<path d="M218.74 0.704224H222.278V49.2758H218.74V0.704224Z" fill="#373737"/>
<path d="M232.406 0.704224H235.944V46.0837H263.919V49.2234H232.406V0.704224Z" fill="#373737"/>
<path d="M299.723 46.0837V49.2234H266.232V0.704224H298.676V3.89628H269.738V23.0486H295.631V26.1883H269.738V46.0733L299.723 46.0837Z" fill="#373737"/>
<defs>
<linearGradient id="paint0_linear_2370_5584" x1="0.107422" y1="25.0998" x2="48.3336" y2="25.0998" gradientUnits="userSpaceOnUse">
<stop stop-color="#EDD48C"/>
<stop offset="1" stop-color="#D49E5E"/>
</linearGradient>
<linearGradient id="paint1_linear_2370_5584" x1="0.107422" y1="24.8486" x2="48.3336" y2="24.8486" gradientUnits="userSpaceOnUse">
<stop stop-color="#EDD48C"/>
<stop offset="1" stop-color="#D49E5E"/>
</linearGradient>
<linearGradient id="paint2_linear_2370_5584" x1="50.3418" y1="24.8484" x2="87.5161" y2="24.8484" gradientUnits="userSpaceOnUse">
<stop stop-color="#EDD48C"/>
<stop offset="1" stop-color="#D49E5E"/>
</linearGradient>
<linearGradient id="paint3_linear_2370_5584" x1="86.5117" y1="25.0998" x2="132.226" y2="25.0998" gradientUnits="userSpaceOnUse">
<stop stop-color="#EDD48C"/>
<stop offset="1" stop-color="#D49E5E"/>
</linearGradient>
<linearGradient id="paint4_linear_2370_5584" x1="129.211" y1="25.1006" x2="181.958" y2="25.1006" gradientUnits="userSpaceOnUse">
<stop stop-color="#EDD48C"/>
<stop offset="1" stop-color="#D49E5E"/>
</linearGradient>
<linearGradient id="paint5_linear_2370_5584" x1="129.211" y1="25.1003" x2="181.958" y2="25.1003" gradientUnits="userSpaceOnUse">
<stop stop-color="#EDD48C"/>
<stop offset="1" stop-color="#D49E5E"/>
</linearGradient>
</defs>
</svg>
