<svg width="343" height="61" viewBox="0 0 343 61" fill="none" xmlns="http://www.w3.org/2000/svg">
<path d="M12.2935 1.59553H37.5689C42.8978 1.46191 48.194 2.46498 53.1049 4.53796C57.2394 6.29858 60.7574 9.24815 63.2122 13.0121C65.6255 16.9185 66.8522 21.4419 66.7431 26.0324C66.878 32.2726 65.2842 38.4285 62.1382 43.8193C59.0649 48.8854 54.6091 52.9687 49.2945 55.589C43.4244 58.4644 36.9543 59.9017 30.4189 59.782H0.65625L12.2935 1.59553ZM30.9191 46.644C34.5161 46.7335 38.0716 45.8599 41.2175 44.1135C44.0674 42.4908 46.3716 40.0587 47.838 37.1253C49.3689 33.9793 50.1351 30.5162 50.0742 27.0181C50.1838 25.3268 49.9159 23.6322 49.29 22.0572C48.6641 20.4821 47.6957 19.066 46.4551 17.9113C44.0325 15.7829 40.4623 14.7138 35.7446 14.704H26.0935L19.782 46.6293L30.9191 46.644Z" fill="#373737"/>
<path d="M88.1934 14.3072L86.2808 24.1202H112.13L109.717 36.4195H83.7798L81.7053 47.0564H112.218L109.555 59.7824H62.918L74.5553 1.59595H120.104L117.529 14.3072H88.1934Z" fill="#373737"/>
<path d="M128.581 57.737C124.369 55.8002 120.819 52.6694 118.371 48.7331C115.944 44.7005 114.705 40.0652 114.796 35.3598C114.699 29.0729 116.289 22.8749 119.401 17.4111C122.445 12.1227 126.923 7.80286 132.318 4.94989C138.158 1.88919 144.674 0.346152 151.267 0.462686C156.186 0.393372 161.061 1.3975 165.552 3.40511C169.42 5.06606 172.671 7.89543 174.85 11.4968L162.978 20.8537C161.665 18.6619 159.78 16.8694 157.525 15.6692C155.269 14.469 152.729 13.9064 150.178 14.042C146.73 13.9696 143.332 14.8777 140.38 16.6607C137.55 18.4089 135.263 20.9101 133.774 23.8844C132.173 27.0785 131.361 30.61 131.406 34.1829C131.331 35.9435 131.633 37.6999 132.293 39.334C132.953 40.9681 133.954 42.4422 135.231 43.6575C138.079 46.195 141.807 47.5154 145.617 47.3355C148.336 47.3413 151.022 46.7393 153.479 45.5735C155.935 44.4077 158.1 42.7075 159.815 40.5973L169.539 50.1602C166.615 53.8025 162.813 56.6424 158.491 58.4137C153.878 60.181 148.968 61.0451 144.029 60.9589C138.703 61.0722 133.421 59.9756 128.581 57.7517" fill="#373737"/>
<path d="M182.914 57.6343C178.746 55.6301 175.242 52.4687 172.821 48.5275C170.417 44.4978 169.189 39.8754 169.276 35.1836C169.181 28.8698 170.782 22.6462 173.91 17.1612C176.96 11.8566 181.442 7.51767 186.842 4.64121C192.674 1.60968 199.177 0.101563 205.747 0.257001C211.06 0.127993 216.329 1.24135 221.136 3.50839C225.309 5.49876 228.815 8.65712 231.229 12.6005C233.633 16.6356 234.861 21.2627 234.774 25.9591C234.873 32.2715 233.278 38.495 230.155 43.9814C227.104 49.2817 222.622 53.6155 217.223 56.4867C211.404 59.5672 204.9 61.1212 198.318 61.0033C192.991 61.0903 187.718 59.9369 182.914 57.6343ZM209.396 44.3934C212.172 42.576 214.396 40.0316 215.825 37.0373C217.349 33.8519 218.12 30.3582 218.076 26.8271C218.16 25.0822 217.88 23.3391 217.254 21.7081C216.629 20.0771 215.671 18.5938 214.442 17.3525C213.073 16.1168 211.472 15.1668 209.731 14.5579C207.991 13.9491 206.146 13.6938 204.305 13.8069C200.876 13.7355 197.504 14.6938 194.625 16.558C191.856 18.3797 189.638 20.9234 188.21 23.9141C186.681 27.1036 185.906 30.6021 185.945 34.139C185.866 35.8833 186.149 37.6249 186.774 39.2551C187.399 40.8854 188.354 42.3691 189.579 43.6136C190.95 44.8451 192.552 45.7926 194.292 46.4011C196.032 47.0097 197.875 47.2674 199.715 47.1592C203.146 47.2272 206.519 46.2636 209.396 44.3934Z" fill="#373737"/>
<path d="M260.489 13.733L258.047 22.3249H260.562C267.752 22.3249 273.225 23.7275 276.981 26.5326C278.852 27.9483 280.346 29.8027 281.332 31.9322C282.317 34.0617 282.763 36.401 282.63 38.7436C282.71 42.9592 281.425 47.0877 278.967 50.5133C276.378 53.9989 272.86 56.6857 268.816 58.2666C264.137 60.126 259.137 61.041 254.104 60.9589C249.976 60.9886 245.865 60.4339 241.893 59.3112C238.304 58.3346 234.93 56.6928 231.947 54.4709L239.701 42.5982C241.867 44.2189 244.302 45.4442 246.895 46.2174C249.58 47.0602 252.378 47.4869 255.192 47.4826C257.921 47.6397 260.637 47.0117 263.019 45.673C263.885 45.1612 264.599 44.4281 265.088 43.549C265.576 42.6699 265.822 41.6765 265.8 40.6709C265.829 39.8631 265.636 39.0627 265.242 38.357C264.848 37.6513 264.267 37.0675 263.564 36.6692C261.331 35.5771 258.849 35.0949 256.369 35.2716H239.45L249.293 0.845215H286.765L284.161 13.7183L260.489 13.733Z" fill="#009FE3"/>
<path d="M339.948 48.5272H331.18L328.899 59.8261H312.716L314.996 48.5272H283.777L285.896 37.6402L319.116 0.786377H337.079L306.64 35.2863H318.366L320.381 25.2526H335.814L333.799 35.2863H342.655L339.948 48.5272Z" fill="#009FE3"/>
</svg>
