<svg width="228" height="40" viewBox="0 0 228 40" fill="none" xmlns="http://www.w3.org/2000/svg">
<path d="M7.75818 0.888257H24.6085C28.161 0.800294 31.6918 1.4606 34.9658 2.82523C37.7221 3.98423 40.0674 5.9259 41.7039 8.40369C43.3128 10.9752 44.1306 13.9529 44.0579 16.9748C44.1478 21.0827 43.0853 25.135 40.988 28.6838C38.9391 32.0187 35.9685 34.7067 32.4255 36.4316C28.5121 38.3245 24.1987 39.2706 19.8417 39.1918H0L7.75818 0.888257ZM20.1752 30.5432C22.5732 30.6021 24.9436 30.027 27.0409 28.8775C28.9408 27.8092 30.4769 26.2082 31.4545 24.2772C32.4751 22.2062 32.9859 19.9265 32.9453 17.6237C33.0184 16.5103 32.8398 15.3948 32.4225 14.358C32.0052 13.3211 31.3596 12.3889 30.5325 11.6287C28.9175 10.2277 26.5374 9.52391 23.3923 9.51746H16.9582L12.7505 30.5336L20.1752 30.5432Z" fill="#373737"/>
<path d="M58.3581 9.25625L57.083 15.716H74.3158L72.7073 23.8126H55.4157L54.0327 30.8147H74.3747L72.5994 39.1921H41.5078L49.266 0.88855H79.6318L77.9154 9.25625H58.3581Z" fill="#373737"/>
<path d="M85.2831 37.8457C82.4754 36.5707 80.1085 34.5098 78.4763 31.9186C76.8588 29.2639 76.0327 26.2125 76.0929 23.115C76.0284 18.9764 77.0885 14.8963 79.1628 11.2995C81.1928 7.81826 84.1781 4.97456 87.7743 3.09647C91.6679 1.08165 96.012 0.0658804 100.407 0.142594C103.687 0.0969647 106.937 0.757974 109.931 2.07956C112.509 3.17295 114.677 5.0355 116.129 7.40623L108.214 13.5658C107.339 12.1229 106.082 10.943 104.579 10.1529C103.075 9.36281 101.382 8.99245 99.6813 9.0817C97.3826 9.03405 95.1173 9.63186 93.1491 10.8056C91.2627 11.9564 89.7379 13.6029 88.7453 15.5609C87.6777 17.6635 87.1362 19.9883 87.1662 22.3403C87.1164 23.4993 87.3181 24.6555 87.7579 25.7312C88.1978 26.8069 88.8655 27.7773 89.7163 28.5773C91.6149 30.2477 94.1008 31.1169 96.6408 30.9985C98.4535 31.0024 100.244 30.6061 101.882 29.8386C103.519 29.0711 104.962 27.9519 106.106 26.5628L112.589 32.858C110.639 35.2557 108.104 37.1252 105.223 38.2912C102.148 39.4546 98.8744 40.0234 95.5816 39.9667C92.0312 40.0413 88.5099 39.3194 85.2831 37.8554" fill="#373737"/>
<path d="M121.505 37.7781C118.726 36.4587 116.39 34.3776 114.777 31.7831C113.174 29.1305 112.355 26.0876 112.413 22.999C112.35 18.8427 113.417 14.7458 115.503 11.1351C117.536 7.64305 120.524 4.78681 124.124 2.89326C128.012 0.897637 132.347 -0.0951433 136.727 0.00718004C140.269 -0.0777448 143.782 0.655169 146.987 2.14754C149.769 3.45778 152.106 5.5369 153.715 8.13276C155.318 10.7891 156.137 13.835 156.079 16.9266C156.145 21.082 155.081 25.1789 152.999 28.7905C150.965 32.2796 147.977 35.1326 144.378 37.0227C140.499 39.0505 136.162 40.0735 131.774 39.9959C128.223 40.0532 124.708 39.2939 121.505 37.7781ZM139.16 29.0617C141.01 27.8654 142.493 26.1904 143.446 24.2193C144.462 22.1224 144.976 19.8225 144.946 17.498C145.002 16.3494 144.816 15.2019 144.399 14.1282C143.982 13.0545 143.343 12.0781 142.524 11.261C141.611 10.4475 140.544 9.82214 139.383 9.42135C138.223 9.02057 136.993 8.85248 135.766 8.92693C133.48 8.87992 131.232 9.51076 129.312 10.738C127.467 11.9372 125.988 13.6116 125.036 15.5804C124.017 17.68 123.5 19.983 123.526 22.3114C123.473 23.4596 123.662 24.6061 124.078 25.6793C124.495 26.7524 125.132 27.7292 125.948 28.5484C126.863 29.3591 127.931 29.9828 129.09 30.3834C130.25 30.784 131.479 30.9537 132.706 30.8825C134.993 30.9272 137.242 30.2929 139.16 29.0617Z" fill="#373737"/>
<path d="M173.221 8.87834L171.593 14.5343H173.27C178.063 14.5343 181.712 15.4576 184.216 17.3042C185.463 18.2361 186.459 19.4568 187.116 20.8587C187.773 22.2605 188.07 23.8004 187.982 25.3426C188.035 28.1177 187.179 30.8354 185.54 33.0905C183.814 35.385 181.469 37.1537 178.772 38.1944C175.653 39.4184 172.32 40.0207 168.964 39.9667C166.213 39.9862 163.472 39.621 160.824 38.882C158.431 38.2391 156.182 37.1583 154.193 35.6957L159.362 27.88C160.806 28.9469 162.43 29.7535 164.158 30.2625C165.948 30.8173 167.814 31.0981 169.69 31.0954C171.509 31.1988 173.32 30.7854 174.908 29.9041C175.485 29.5672 175.961 29.0846 176.287 28.5059C176.613 27.9272 176.777 27.2732 176.762 26.6113C176.781 26.0795 176.653 25.5526 176.39 25.088C176.127 24.6235 175.74 24.2392 175.271 23.977C173.782 23.2581 172.128 22.9407 170.475 23.057H159.195L165.757 0.394409H190.738L189.002 8.86865L173.221 8.87834Z" fill="#009FE3"/>
<path d="M226.195 31.7829H220.35L218.829 39.2209H208.041L209.561 31.7829H188.748L190.16 24.6161L212.307 0.355591H224.283L203.99 23.0665H211.807L213.151 16.4615H223.439L222.096 23.0665H228L226.195 31.7829Z" fill="#009FE3"/>
</svg>
