<svg width="336" height="57" viewBox="0 0 336 57" fill="none" xmlns="http://www.w3.org/2000/svg">
<path d="M26.685 15.2236L25.4522 21.5733H48.3623L45.7341 34.7381H22.7309L21.3354 41.8554H48.5019L45.7108 55.6481H0.658203L11.4969 1.4541H55.5493L52.7583 15.2468H26.6617L26.685 15.2236Z" fill="#D04558"/>
<path d="M120.815 1.42993L87.0664 55.624H69.1105L57.0391 1.42993H75.7858L82.5309 33.016L102.115 1.42993H120.862H120.815Z" fill="#D04558"/>
<path d="M126.977 53.8103C122.813 51.7635 119.627 48.9258 117.371 45.2509C115.114 41.5759 113.998 37.3892 113.998 32.6211C113.998 26.3179 115.463 20.7124 118.371 15.7814C121.278 10.8505 125.348 7.0127 130.535 4.29137C135.722 1.57004 141.583 0.197754 148.142 0.197754C153.655 0.197754 158.492 1.22114 162.656 3.26796C166.819 5.31477 170.006 8.15241 172.262 11.8274C174.518 15.5023 175.634 19.689 175.634 24.4339C175.634 30.7371 174.169 36.3426 171.262 41.2735C168.354 46.2045 164.284 50.0423 159.097 52.7636C153.91 55.5082 148.026 56.8573 141.49 56.8573C135.978 56.8573 131.14 55.8338 126.977 53.787V53.8103ZM150.584 39.8315C152.724 38.3429 154.376 36.3193 155.492 33.7841C156.632 31.2488 157.19 28.5042 157.19 25.5038C157.19 22.294 156.26 19.7588 154.376 17.8515C152.492 15.9443 149.887 14.9906 146.584 14.9906C143.7 14.9906 141.165 15.7349 139.025 17.2468C136.885 18.7586 135.233 20.7589 134.117 23.2942C132.977 25.8294 132.419 28.574 132.419 31.5744C132.419 34.7842 133.373 37.3427 135.257 39.25C137.141 41.1573 139.722 42.1109 143.048 42.1109C145.933 42.1109 148.445 41.3666 150.608 39.8548L150.584 39.8315Z" fill="#D04558"/>
<path d="M187.475 1.42993H205.757L197.779 41.4591H222.248L219.387 55.624H176.637L187.475 1.42993Z" fill="#D04558"/>
<path d="M289.766 1.42993L256.018 55.624H238.062L225.99 1.42993H244.737L251.482 33.016L271.066 1.42993H289.813H289.766Z" fill="#D04558"/>
<path d="M306.792 15.2236L305.56 21.5733H328.47L325.841 34.7381H302.838L301.443 41.8554H328.609L325.818 55.6481H280.766L291.604 1.4541H335.657L332.866 15.2468H306.769L306.792 15.2236Z" fill="#D04558"/>
</svg>
