<svg width="238" height="40" viewBox="0 0 238 40" fill="none" xmlns="http://www.w3.org/2000/svg">
<path d="M19.1242 10.6078L18.2539 15.0906H34.4277L32.5723 24.3845H16.3327L15.3475 29.4091H34.5263L32.5558 39.1464H0.75L8.40179 0.886963H39.5016L37.5312 10.6243H19.1077L19.1242 10.6078Z" fill="#CE2037"/>
<path d="M85.5768 0.869873L61.7512 39.1293H49.0748L40.5527 0.869873H53.7874L58.5492 23.1687L72.375 0.869873H85.6097H85.5768Z" fill="#CE2037"/>
<path d="M89.9261 37.8489C86.9869 36.4039 84.7374 34.4006 83.1446 31.8062C81.5518 29.2118 80.7637 26.2561 80.7637 22.89C80.7637 18.44 81.7981 14.4828 83.8507 11.0016C85.9032 7.52052 88.7767 4.81116 92.4384 2.88997C96.1001 0.968792 100.238 0 104.868 0C108.76 0 112.175 0.722483 115.115 2.16747C118.054 3.61247 120.303 5.61576 121.896 8.21018C123.489 10.8046 124.277 13.7603 124.277 17.11C124.277 21.5599 123.243 25.5172 121.19 28.9983C119.138 32.4795 116.264 35.1888 112.602 37.11C108.941 39.0476 104.786 40 100.172 40C96.2807 40 92.8653 39.2775 89.9261 37.8325V37.8489ZM106.593 27.9803C108.103 26.9294 109.269 25.5008 110.057 23.711C110.862 21.9212 111.256 19.9836 111.256 17.8653C111.256 15.5993 110.599 13.8095 109.269 12.463C107.939 11.1166 106.1 10.4434 103.768 10.4434C101.732 10.4434 99.9424 10.9688 98.4318 12.0361C96.9211 13.1035 95.7553 14.5156 94.9671 16.3054C94.1625 18.0952 93.7684 20.0328 93.7684 22.1511C93.7684 24.4171 94.4417 26.2233 95.7717 27.5698C97.1017 28.9162 98.9244 29.5895 101.272 29.5895C103.309 29.5895 105.082 29.064 106.609 27.9967L106.593 27.9803Z" fill="#CE2037"/>
<path d="M132.638 0.869873H145.544L139.912 29.1293H157.186L155.167 39.1293H124.986L132.638 0.869873Z" fill="#CE2037"/>
<path d="M204.852 0.869873L181.027 39.1293H168.35L159.828 0.869873H173.063L177.825 23.1687L191.65 0.869873H204.885H204.852Z" fill="#CE2037"/>
<path d="M216.87 10.6078L216 15.0906H232.174L230.318 24.3845H214.079L213.094 29.4091H232.272L230.302 39.1464H198.496L206.148 0.886963H237.248L235.277 10.6243H216.854L216.87 10.6078Z" fill="#CE2037"/>
</svg>
