<svg width="248" height="50" viewBox="0 0 248 50" fill="none" xmlns="http://www.w3.org/2000/svg">
<g clip-path="url(#clip0_2370_5658)">
<path d="M36.9565 0V8.7H11.8237V21.02H35.748V29.68H11.8237V49.24H0.865234V0H36.9565Z" fill="#CE2037"/>
<path d="M42.4043 0H53.117V8.8H42.4043V0ZM42.4043 13.88H53.117V49.24H42.4043V13.88Z" fill="#CE2037"/>
<path d="M92.7731 25.34V49.24H82.0604V26.86C82.0604 23.46 80.729 21.26 76.7143 21.26C72.0646 21.26 69.9549 24.38 69.9549 28.34V49.24H59.2422V13.88H69.6067V19.36C71.7164 15.58 75.3419 13.14 80.8519 13.14C88.8813 13.14 92.7936 18.2 92.7936 25.34H92.7731Z" fill="#CE2037"/>
<path d="M98.1387 21.84V13.9H103.239V7.98C103.239 2.72 106.311 0 112.6 0H119.83V7.8H115.775C114.156 7.8 113.911 8.52 113.911 9.68V13.88H119.83V21.82H113.911V49.22H103.239V21.84H98.1387ZM135.889 0V49.24H125.176V0H135.889Z" fill="#CE2037"/>
<path d="M141.012 31.56C141.012 19.8 148.201 13.12 159.283 13.12C170.364 13.12 177.554 19.8 177.554 31.56C177.554 43.32 170.364 50 159.283 50C148.201 50 141.012 43.32 141.012 31.56ZM166.698 31.56C166.698 25 164.547 21 159.303 21C154.059 21 151.909 24.98 151.909 31.56C151.909 38.14 154.059 42.12 159.303 42.12C164.547 42.12 166.698 38.14 166.698 31.56Z" fill="#CE2037"/>
<path d="M182.898 31.56C182.898 19.8 190.088 13.12 201.169 13.12C212.251 13.12 219.44 19.8 219.44 31.56C219.44 43.32 212.251 50 201.169 50C190.088 50 182.898 43.32 182.898 31.56ZM208.584 31.56C208.584 25 206.434 21 201.19 21C195.946 21 193.795 24.98 193.795 31.56C193.795 38.14 195.946 42.12 201.19 42.12C206.434 42.12 208.584 38.14 208.584 31.56Z" fill="#CE2037"/>
<path d="M247.133 13.82V22.76H242.873C237.547 22.76 235.519 26.24 235.519 30.84V49.2401H224.807V13.88H235.171V20.2C236.687 16.08 239.739 13.8 244.225 13.8H247.154L247.133 13.82Z" fill="#CE2037"/>
</g>
<defs>
<clipPath id="clip0_2370_5658">
<rect width="246.269" height="50" fill="white" transform="translate(0.865234)"/>
</clipPath>
</defs>
</svg>
