<svg width="331" height="68" viewBox="0 0 331 68" fill="none" xmlns="http://www.w3.org/2000/svg">
<g clip-path="url(#clip0_1755_8868)">
<path d="M49.0186 0.246094V11.9041H15.3406V28.4129H47.3992V40.0173H15.3406V66.2277H0.65625V0.246094H49.0186Z" fill="#CD132D"/>
<path d="M56.3203 0.246094H70.6753V12.0381H56.3203V0.246094ZM56.3203 18.8453H70.6753V66.2277H56.3203V18.8453Z" fill="#CD132D"/>
<path d="M123.812 34.2018V66.2278H109.457V36.2386C109.457 31.6826 107.673 28.7346 102.293 28.7346C96.0629 28.7346 93.2358 32.9154 93.2358 38.2218V66.2278H78.8809V18.8454H92.7692V26.1886C95.5963 21.1234 100.455 17.8538 107.838 17.8538C118.597 17.8538 123.84 24.6342 123.84 34.2018H123.812Z" fill="#CD132D"/>
<path d="M131.004 29.5117V18.8721H137.838V10.9393C137.838 3.89089 141.955 0.246094 150.382 0.246094H160.071V10.6981H154.636C152.468 10.6981 152.138 11.6629 152.138 13.2173V18.8453H160.071V29.4849H152.138V66.2009H137.838V29.5117H131.004ZM181.589 0.246094V66.2277H167.234V0.246094H181.589Z" fill="#CD132D"/>
<path d="M188.451 42.5365C188.451 26.7781 198.085 17.8269 212.934 17.8269C227.783 17.8269 237.417 26.7781 237.417 42.5365C237.417 58.2949 227.783 67.2461 212.934 67.2461C198.085 67.2461 188.451 58.2949 188.451 42.5365ZM222.87 42.5365C222.87 33.7461 219.988 28.3861 212.962 28.3861C205.935 28.3861 203.053 33.7193 203.053 42.5365C203.053 51.3537 205.935 56.6869 212.962 56.6869C219.988 56.6869 222.87 51.3537 222.87 42.5365Z" fill="#CD132D"/>
<path d="M244.582 42.5365C244.582 26.7781 254.216 17.8269 269.065 17.8269C283.914 17.8269 293.548 26.7781 293.548 42.5365C293.548 58.2949 283.914 67.2461 269.065 67.2461C254.216 67.2461 244.582 58.2949 244.582 42.5365ZM279.001 42.5365C279.001 33.7461 276.119 28.3861 269.093 28.3861C262.066 28.3861 259.184 33.7193 259.184 42.5365C259.184 51.3537 262.066 56.6869 269.093 56.6869C276.119 56.6869 279.001 51.3537 279.001 42.5365Z" fill="#CD132D"/>
<path d="M330.656 18.7648V30.7444H324.947C317.811 30.7444 315.093 35.4076 315.093 41.5716V66.2276H300.738V18.8452H314.627V27.314C316.658 21.7932 320.747 18.738 326.758 18.738H330.683L330.656 18.7648Z" fill="#CD132D"/>
</g>
<defs>
<clipPath id="clip0_1755_8868">
<rect width="330" height="67" fill="white" transform="translate(0.65625 0.246094)"/>
</clipPath>
</defs>
</svg>
