<svg width="324" height="80" viewBox="0 0 324 80" fill="none" xmlns="http://www.w3.org/2000/svg">
<path d="M223.382 53.4434V72.5633H221.44V57.293L214.627 72.5633H213.213L206.379 57.3472V72.5633H204.438V53.4434H206.467L213.869 70.0126L221.271 53.4434H223.382Z" fill="#48B16A"/>
<path d="M230.574 71.8324C229.434 71.2044 228.495 70.266 227.867 69.1261C227.187 67.8636 226.847 66.4461 226.879 65.0125C226.844 63.5769 227.189 62.1575 227.881 60.899C228.512 59.7613 229.449 58.8236 230.587 58.1927C231.777 57.5663 233.102 57.239 234.447 57.239C235.792 57.239 237.117 57.5663 238.307 58.1927C239.448 58.8186 240.387 59.7575 241.013 60.899C241.662 62.1706 242.001 63.578 242.001 65.0058C242.001 66.4335 241.662 67.8409 241.013 69.1126C240.372 70.2564 239.419 71.1949 238.266 71.8188C237.074 72.4623 235.737 72.7906 234.383 72.7728C233.053 72.7926 231.741 72.4687 230.574 71.8324ZM237.184 70.4183C238.05 69.9515 238.766 69.2475 239.247 68.3886C239.807 67.3513 240.08 66.1837 240.039 65.0058C240.081 63.8294 239.812 62.6628 239.261 61.6229C238.794 60.7648 238.089 60.06 237.231 59.5932C236.375 59.1484 235.425 58.9162 234.46 58.9162C233.496 58.9162 232.546 59.1484 231.69 59.5932C230.829 60.0565 230.124 60.7622 229.66 61.6229C229.153 62.6784 228.889 63.8346 228.889 65.0058C228.889 66.1769 229.153 67.3331 229.66 68.3886C230.126 69.2474 230.831 69.9525 231.69 70.4183C232.536 70.8721 233.483 71.1048 234.444 71.0949C235.399 71.0983 236.34 70.8659 237.184 70.4183Z" fill="#48B16A"/>
<path d="M247.52 52.056V72.563H245.578V52.056H247.52Z" fill="#48B16A"/>
<path d="M251.99 60.8853C252.577 59.7537 253.476 58.8144 254.581 58.179C255.716 57.533 257.004 57.2036 258.309 57.225C259.575 57.2092 260.821 57.5441 261.909 58.1925C262.928 58.7799 263.748 59.6588 264.263 60.7162V52.056H266.205V72.563H264.263V69.1801C263.783 70.2527 262.991 71.1557 261.99 71.7714C260.877 72.4586 259.59 72.8088 258.282 72.7795C256.975 72.7995 255.687 72.4652 254.554 71.812C253.45 71.1618 252.555 70.2084 251.977 69.0651C251.334 67.7956 251.013 66.3876 251.043 64.965C251.013 63.5474 251.339 62.1449 251.99 60.8853ZM263.492 61.7852C263.029 60.8965 262.325 60.1558 261.462 59.6472C260.598 59.1508 259.617 58.8938 258.621 58.9029C257.613 58.8846 256.619 59.1319 255.738 59.6201C254.872 60.1039 254.167 60.8306 253.709 61.7107C253.223 62.7281 252.971 63.8411 252.971 64.9684C252.971 66.0957 253.223 67.2087 253.709 68.2261C254.163 69.1209 254.868 69.8639 255.738 70.3641C256.617 70.8597 257.612 71.112 258.621 71.0948C259.617 71.1039 260.598 70.847 261.462 70.3506C262.325 69.842 263.029 69.1012 263.492 68.2126C263.981 67.212 264.236 66.1128 264.236 64.9989C264.236 63.885 263.981 62.7858 263.492 61.7852Z" fill="#48B16A"/>
<path d="M270.607 54.1598C270.47 54.028 270.363 53.8689 270.292 53.6929C270.221 53.5169 270.187 53.3279 270.194 53.1382C270.188 52.9496 270.222 52.7619 270.293 52.5871C270.364 52.4123 270.471 52.2543 270.607 52.1233C270.875 51.8632 271.235 51.7197 271.608 51.7241C271.792 51.7217 271.975 51.7558 272.145 51.8243C272.316 51.8928 272.472 51.9944 272.603 52.1233C272.74 52.2537 272.848 52.4115 272.92 52.5863C272.992 52.7611 273.027 52.9491 273.022 53.1382C273.026 53.3281 272.991 53.5168 272.919 53.6925C272.846 53.8683 272.739 54.0273 272.603 54.1598C272.475 54.2942 272.32 54.4008 272.149 54.473C271.978 54.5451 271.794 54.5813 271.608 54.5793C271.421 54.5823 271.236 54.5465 271.064 54.4743C270.891 54.4022 270.736 54.295 270.607 54.1598ZM272.576 57.4344V72.5626H270.654V57.4344H272.576Z" fill="#48B16A"/>
<path d="M288.519 58.8286C289.662 59.9517 290.237 61.5687 290.237 63.6932V72.563H288.323V63.9164C288.416 62.5482 287.975 61.197 287.091 60.1479C286.651 59.7053 286.122 59.3607 285.539 59.1368C284.956 58.913 284.332 58.8149 283.708 58.8489C283.064 58.815 282.42 58.918 281.818 59.1513C281.216 59.3845 280.671 59.7426 280.217 60.2021C279.28 61.3389 278.813 62.7913 278.912 64.2615V72.563H276.977V57.4349H278.912V60.0126C279.373 59.1084 280.1 58.367 280.995 57.8882C281.942 57.3903 282.998 57.139 284.067 57.1575C284.883 57.1232 285.698 57.2534 286.463 57.5405C287.228 57.8276 287.927 58.2657 288.519 58.8286Z" fill="#48B16A"/>
<path d="M304.591 58.2064C305.579 58.8075 306.369 59.6848 306.864 60.73V57.4351H308.799V72.9557C308.823 74.2419 308.513 75.5123 307.899 76.643C307.319 77.6912 306.45 78.5507 305.396 79.1192C304.269 79.7138 303.01 80.0141 301.736 79.992C300.02 80.0684 298.325 79.5943 296.898 78.6389C295.633 77.7491 294.771 76.394 294.503 74.8704H296.411C296.731 75.9078 297.403 76.8006 298.312 77.394C299.332 78.0471 300.526 78.3751 301.736 78.3344C302.651 78.353 303.557 78.1388 304.367 77.712C305.148 77.2961 305.784 76.6548 306.194 75.8717C306.661 74.984 306.894 73.9921 306.871 72.9895V69.248C306.37 70.3046 305.577 71.1948 304.584 71.8123C303.474 72.5004 302.188 72.8507 300.883 72.8204C299.576 72.8404 298.288 72.506 297.155 71.8528C296.051 71.2027 295.156 70.2493 294.577 69.106C293.937 67.8359 293.619 66.4279 293.651 65.0059C293.621 63.5971 293.939 62.2028 294.577 60.9465C295.157 59.8143 296.053 58.8743 297.155 58.2402C298.29 57.5942 299.578 57.2648 300.883 57.2862C302.181 57.2342 303.468 57.5534 304.591 58.2064ZM306.113 61.7855C305.65 60.8968 304.947 60.1561 304.083 59.6475C303.219 59.1511 302.238 58.8942 301.242 58.9032C300.235 58.8864 299.241 59.1337 298.36 59.6204C297.493 60.1042 296.788 60.8309 296.33 61.711C295.844 62.7284 295.592 63.8414 295.592 64.9687C295.592 66.096 295.844 67.209 296.33 68.2264C296.784 69.1212 297.49 69.8642 298.36 70.3644C299.239 70.8585 300.233 71.1106 301.242 71.0951C302.238 71.1042 303.219 70.8473 304.083 70.3509C304.947 69.8423 305.65 69.1015 306.113 68.2129C306.607 67.2136 306.864 66.1139 306.864 64.9992C306.864 63.8845 306.607 62.7848 306.113 61.7855Z" fill="#48B16A"/>
<path d="M314.192 71.5816C313.661 71.2038 313.221 70.7128 312.902 70.1442C312.584 69.5756 312.396 68.9435 312.352 68.2935H314.347C314.386 68.7052 314.514 69.1035 314.722 69.461C314.93 69.8184 315.213 70.1265 315.552 70.3638C316.399 70.9266 317.405 71.2018 318.42 71.1486C319.31 71.2025 320.19 70.9388 320.903 70.4044C321.186 70.1838 321.414 69.9013 321.57 69.5787C321.726 69.2562 321.806 68.9021 321.803 68.5438C321.811 68.3088 321.77 68.0748 321.684 67.8561C321.598 67.6374 321.468 67.4385 321.303 67.2718C320.944 66.9202 320.515 66.6482 320.044 66.4735C319.366 66.2286 318.675 66.0208 317.974 65.851C317.041 65.618 316.126 65.3219 315.234 64.9647C314.541 64.675 313.928 64.2224 313.448 63.6454C312.981 63.0119 312.723 62.2487 312.709 61.4618C312.696 60.6749 312.928 59.9034 313.373 59.2544C313.856 58.595 314.508 58.0783 315.261 57.7592C316.134 57.3759 317.081 57.1866 318.035 57.2044C319.449 57.1377 320.842 57.5739 321.966 58.4358C322.462 58.85 322.864 59.3668 323.141 59.9508C323.419 60.5347 323.568 61.172 323.576 61.8186H321.634C321.621 61.407 321.522 61.0027 321.342 60.6321C321.163 60.2614 320.907 59.9326 320.592 59.6671C319.846 59.0895 318.916 58.8011 317.974 58.8553C317.127 58.8129 316.29 59.0507 315.592 59.5318C315.312 59.7223 315.082 59.9784 314.923 60.2779C314.764 60.5774 314.68 60.9112 314.679 61.2503C314.66 61.7878 314.854 62.3109 315.22 62.705C315.599 63.0978 316.062 63.4007 316.573 63.5913C317.115 63.8078 317.832 64.0378 318.738 64.3017C319.625 64.5276 320.496 64.8147 321.343 65.1609C321.985 65.4325 322.555 65.8494 323.008 66.3787C323.494 66.9805 323.748 67.7366 323.725 68.5099C323.735 69.2894 323.498 70.0521 323.048 70.6885C322.577 71.3485 321.936 71.8695 321.194 72.1973C320.331 72.582 319.393 72.7714 318.447 72.7521C316.94 72.8289 315.448 72.4185 314.192 71.5816Z" fill="#48B16A"/>
<path d="M194.285 51.7714H160.545C160.775 54.7889 161.749 57.0983 163.467 58.6995C165.178 60.2954 167.448 61.1555 169.787 61.0946C173.508 61.0946 176.094 59.5159 177.547 56.3586H193.412C192.614 59.5315 191.108 62.4828 189.008 64.9916C186.847 67.5838 184.118 69.6422 181.031 71.0064C177.656 72.4995 173.998 73.2449 170.308 73.1917C165.875 73.2697 161.496 72.2197 157.581 70.1404C153.891 68.1451 150.855 65.1261 148.84 61.4464C146.675 57.3704 145.594 52.8064 145.701 48.1923C145.608 43.5798 146.688 39.0192 148.84 34.9383C150.818 31.2488 153.833 28.2194 157.514 26.224C161.443 24.2329 165.784 23.188 170.189 23.1728C174.594 23.1575 178.942 24.1723 182.885 26.1361C186.504 28.0799 189.483 31.0287 191.464 34.627C193.595 38.5559 194.663 42.973 194.563 47.4413C194.553 48.8888 194.46 50.3345 194.285 51.7714ZM179.286 43.4834C179.333 42.3372 179.122 41.195 178.669 40.1412C178.215 39.0873 177.532 38.1486 176.667 37.3942C174.844 35.8563 172.516 35.0487 170.132 35.1277C167.828 35.0602 165.579 35.8347 163.806 37.3063C162.016 38.9052 160.883 41.1109 160.626 43.4969L179.286 43.4834Z" fill="#373737"/>
<path d="M38.0976 57.421C35.8122 58.7608 33.2025 59.4465 30.5538 59.4034C26.0162 59.4034 22.3379 57.8247 19.5189 54.6674C16.6998 51.51 15.2903 47.286 15.2903 41.9952C15.2903 36.7044 16.6998 32.4803 19.5189 29.323C22.3379 26.1656 26.0162 24.587 30.5538 24.587C33.2025 24.5438 35.8122 25.2296 38.0976 26.5693C40.3461 27.9395 42.1324 29.952 43.226 32.3473H59.4299C57.9293 26.1343 54.3003 20.643 49.173 16.8267C44.0582 13.0379 37.9081 11.1435 30.7229 11.1435C25.225 11.0512 19.7989 12.4019 14.9858 15.0608C10.4168 17.6153 6.6639 21.4105 4.16066 26.0078C1.51422 30.9172 0.17675 36.4255 0.277133 42.0019C0.17297 47.5637 1.51092 53.0577 4.16066 57.9488C6.67001 62.5311 10.4224 66.3116 14.9858 68.8551C19.7971 71.5193 25.224 72.8726 30.7229 72.7792C37.9081 72.7792 44.0582 70.8984 49.173 67.1366C54.3056 63.3429 57.9372 57.862 59.4299 51.6566H43.226C42.1301 54.0469 40.344 56.0545 38.0976 57.421Z" fill="#373737"/>
<path d="M108.806 35.2224C106.703 31.5388 103.593 28.532 99.841 26.5555C95.88 24.5713 91.5109 23.5382 87.0808 23.5382C82.6507 23.5382 78.2816 24.5713 74.3206 26.5555C70.5682 28.532 67.4581 31.5388 65.356 35.2224C63.1161 39.2037 61.9852 43.713 62.0814 48.2802C61.973 52.8587 63.0894 57.383 65.3154 61.3854C67.3919 65.0462 70.4719 68.0369 74.1921 70.005C78.1137 72.0566 82.4864 73.094 86.9117 73.0225C91.362 73.0865 95.7592 72.0499 99.7124 70.005C103.493 68.0358 106.633 65.0292 108.765 61.3381C111.034 57.3663 112.182 52.8533 112.087 48.2802C112.181 43.7124 111.048 39.203 108.806 35.2224ZM94.1104 57.1636C93.1954 58.1572 92.0817 58.9473 90.8414 59.4823C89.6012 60.0173 88.2623 60.2854 86.9117 60.2691C85.5842 60.2965 84.2669 60.0326 83.0524 59.4961C81.8379 58.9596 80.7557 58.1634 79.8821 57.1636C78.0147 55.0933 77.081 52.1322 77.081 48.2802C77.081 44.4282 78.0305 41.4558 79.9294 39.363C80.848 38.3928 81.9555 37.621 83.1837 37.0949C84.4118 36.5689 85.7347 36.2998 87.0707 36.3042C88.4068 36.3087 89.7278 36.5865 90.9524 37.1207C92.1771 37.6549 93.2794 38.4341 94.1916 39.4103C96.1176 41.4761 97.0805 44.435 97.0805 48.287C97.0805 52.1389 96.0905 55.0978 94.1104 57.1636Z" fill="#373737"/>
<path d="M136.371 26.2581C133.758 27.8076 131.543 29.946 129.903 32.5029V24.4787H115.16V72.5898H129.896V50.2629C129.896 46.2892 130.816 43.5152 132.656 41.9411C134.497 40.3669 137.255 39.5753 140.931 39.5663H144.99V23.9713C141.963 23.937 138.983 24.7275 136.371 26.2581Z" fill="#373737"/>
<path d="M69.9922 17.1173V18.1457H91.4666C102.792 18.1457 111.974 10.4801 111.974 1.02163V0H90.4991C79.1733 0 69.9922 7.66557 69.9922 17.1173Z" fill="#48B16A"/>
</svg>
