<svg width="160" height="87" viewBox="0 0 160 87" fill="none" xmlns="http://www.w3.org/2000/svg">
<path d="M0.65625 36.7267V1.6228H7.32719L22.1659 26.3966H18.6298L33.1648 1.6228H39.89V36.7267H32.373L32.27 13.3077H33.7669L22.0141 32.9738H18.4291L6.52993 13.3077H8.15698V36.7267H0.65625Z" fill="#373737"/>
<path d="M104.697 36.7267V8.23824H93.5781V1.6228H123.864V8.23824H112.739V36.7267H104.697Z" fill="#373737"/>
<path d="M140.783 30.2041H159.657V36.7267H132.812V1.6228H158.999V8.13991H140.783V30.2041ZM140.173 15.7113H156.89V22.081H140.173V15.7113Z" fill="#373737"/>
<path d="M1.34375 86.2688V43.617H17.4649C20.6908 43.5357 23.898 44.1262 26.8789 45.3504C29.3531 46.3858 31.462 48.1242 32.9392 50.3461C34.4106 52.7148 35.1494 55.4583 35.0644 58.238C35.1445 60.9867 34.4054 63.6979 32.9392 66.033C31.4613 68.2598 29.3559 70.008 26.8843 71.061C23.9091 72.307 20.6995 72.909 17.4703 72.8267H3.88204L5.91485 70.6734V86.2849L1.34375 86.2688ZM5.89854 71.0341L3.86574 68.8431H17.3399C21.6446 68.8431 24.9058 67.919 27.1234 66.0707C29.3411 64.2224 30.4589 61.6115 30.477 58.238C30.477 54.825 29.3592 52.1854 27.1234 50.3192C24.8877 48.453 21.6265 47.5181 17.3399 47.5145H3.86574L5.89854 45.3612V71.0341Z" fill="#F0254C"/>
<path d="M41.2676 86.2849L61.0489 43.6096H65.5382L85.3195 86.2849H80.4971L62.3214 46.2273H64.1783L46.0026 86.2849H41.2676ZM49.0556 74.8822L50.4155 71.225H75.5709L76.9308 74.8822H49.0556Z" fill="#F0254C"/>
<path d="M97.709 86.2849V43.6163H115.247C119.439 43.5208 123.59 44.4454 127.338 46.309C130.696 48.0182 133.5 50.6315 135.427 53.8486C137.324 57.2442 138.319 61.0616 138.319 64.9426C138.319 68.8236 137.324 72.6409 135.427 76.0365C133.5 79.2536 130.696 81.867 127.338 83.5761C123.591 85.4429 119.439 86.3676 115.247 86.2688L97.709 86.2849ZM102.265 82.3805H115.002C118.45 82.4667 121.865 81.7024 124.94 80.1564C127.653 78.7494 129.913 76.6168 131.464 74.0008C132.997 71.2204 133.801 68.1029 133.801 64.9345C133.801 61.7661 132.997 58.6485 131.464 55.8681C129.904 53.2661 127.646 51.1443 124.94 49.7395C121.864 48.1961 118.449 47.4319 115.002 47.5154H102.292L102.265 82.3805Z" fill="#F0254C"/>
<path d="M141.072 47.9242V81.9708C141.072 84.3535 143.035 86.2852 145.456 86.2852H155.273C157.694 86.2852 159.657 84.3535 159.657 81.9708V47.9242C159.657 45.5414 157.694 43.6098 155.273 43.6098H145.456C143.035 43.6098 141.072 45.5414 141.072 47.9242Z" fill="#F0254C"/>
<path d="M76.6773 14.5245V21.074C76.6773 24.3909 75.9944 26.7935 74.6287 28.2818C73.263 29.7702 71.3456 30.5162 68.8764 30.5199C66.44 30.5199 64.539 29.7739 63.1733 28.2818C62.697 27.7542 62.3128 27.1497 62.037 26.4936L55.7876 31.6005C56.2009 32.1874 56.6633 32.738 57.1697 33.2461C59.9703 36.0254 63.8561 37.415 68.8273 37.415C73.7984 37.415 77.666 36.0254 80.4302 33.2461C83.2344 30.4705 84.6347 26.4863 84.6311 21.2934V8.02426L76.6773 14.5245ZM52.9688 1.63377V21.277C52.9667 22.2133 53.016 23.1491 53.1163 24.08L61.1247 17.5305V1.6228L52.9688 1.63377ZM76.6773 1.63377V4.8153L80.5722 1.63377H76.6773Z" fill="#373737"/>
<path d="M87.3842 3.52264L84.6212 5.77082L76.6552 12.2583L61.4508 24.6315L54.8581 30.003L50.8203 33.2851L48.1504 30.014L53.3589 25.7747L61.0788 19.4896L76.6552 6.81013L83.1549 1.52061L84.7197 0.246094L87.3842 3.52264Z" fill="#F0254C"/>
</svg>
