<svg width="490" height="58" viewBox="0 0 490 58" fill="none" xmlns="http://www.w3.org/2000/svg">
<path d="M50.1877 7.52019C53.9863 10.5441 55.8856 14.7676 55.8856 20.1906C55.8856 24.539 54.8109 28.3626 52.6617 31.6864C50.5126 35.0102 47.4387 37.5593 43.4652 39.4086C39.4917 41.2329 34.8684 42.1576 29.6454 42.1576H20.6738L18.1497 54.903H0.65625L11.0274 2.99683H34.0937C41.0161 2.99683 46.3641 4.49629 50.1877 7.52019ZM36.168 26.8382C37.4925 25.6386 38.1672 23.9392 38.1672 21.765C38.1672 18.2663 35.993 16.4919 31.6447 16.4919H25.7968L23.3477 28.6625H30.5451C32.9692 28.6625 34.8434 28.0627 36.168 26.8382Z" fill="#BBCE00"/>
<path d="M104.243 32.0861C101.794 35.5099 98.345 38.0839 93.8966 39.7583L102.568 54.8778H84.4002L77.053 41.8326H72.7546L70.1556 54.8778H52.6621L63.0332 2.97168H86.3245C93.1469 2.97168 98.445 4.47115 102.219 7.44507C105.992 10.444 107.891 14.6175 107.891 20.0155C107.891 24.6138 106.667 28.6374 104.218 32.0611L104.243 32.0861ZM83.6755 16.4668H77.8277L75.3786 28.6374H82.5759C85 28.6374 86.8743 28.0376 88.1988 26.813C89.5233 25.6135 90.198 23.9141 90.198 21.7399C90.198 18.2411 88.0239 16.4668 83.6755 16.4668Z" fill="#BBCE00"/>
<path d="M121.936 53.1535C117.962 51.2042 114.889 48.4802 112.739 44.9565C110.59 41.4577 109.516 37.4092 109.516 32.8608C109.516 26.838 110.915 21.465 113.714 16.7417C116.513 12.0184 120.387 8.34474 125.36 5.72069C130.333 3.09665 135.956 1.79712 142.228 1.79712C147.526 1.79712 152.15 2.77176 156.123 4.72105C160.097 6.67035 163.171 9.39436 165.32 12.9181C167.469 16.4168 168.544 20.4653 168.544 25.0137C168.544 31.0365 167.144 36.4096 164.345 41.1328C161.546 45.8561 157.673 49.5298 152.699 52.1539C147.726 54.7779 142.103 56.0774 135.831 56.0774C130.533 56.0774 125.909 55.1028 121.936 53.1535ZM144.552 39.7583C146.602 38.3339 148.176 36.4096 149.251 33.9854C150.325 31.5613 150.875 28.9123 150.875 26.0633C150.875 22.9894 149.975 20.5403 148.176 18.716C146.377 16.8916 143.878 15.967 140.729 15.967C137.955 15.967 135.556 16.6917 133.507 18.1162C131.457 19.5407 129.883 21.49 128.808 23.8891C127.709 26.3132 127.184 28.9623 127.184 31.8112C127.184 34.8851 128.084 37.3342 129.883 39.1586C131.682 40.9829 134.181 41.9076 137.33 41.9076C140.104 41.9076 142.503 41.1828 144.552 39.7583Z" fill="#BBCE00"/>
<path d="M164.369 48.0806L175.565 37.4845C177.889 40.7583 180.538 42.3827 183.487 42.3827C185.111 42.3827 186.461 41.8829 187.535 40.9082C188.61 39.9086 189.335 38.5091 189.735 36.6848L193.808 16.2172H176.165L178.839 3.02197H213.751L207.228 35.6351C205.804 42.9575 203.13 48.1806 199.231 51.3544C195.333 54.5283 189.985 56.1027 183.212 56.1027C174.515 56.1027 168.243 53.4287 164.369 48.1056V48.0806Z" fill="#373737"/>
<path d="M234.318 16.1919L233.143 22.2647H255.085L252.561 34.8601H230.544L229.22 41.6826H255.235L252.561 54.8778H209.402L219.773 2.97168H261.958L259.284 16.1669H234.293L234.318 16.1919Z" fill="#373737"/>
<path d="M272.854 53.1533C268.831 51.204 265.707 48.48 263.508 44.9563C261.309 41.4576 260.209 37.409 260.209 32.8607C260.209 26.8379 261.608 21.4648 264.407 16.7665C267.206 12.0682 271.08 8.39458 276.053 5.74554C281.026 3.0965 286.674 1.77197 292.997 1.77197C297.995 1.77197 302.418 2.67165 306.267 4.471C310.115 6.27035 312.989 8.84441 314.863 12.1432L302.268 22.0146C299.944 17.9661 296.495 15.9418 291.897 15.9418C289.173 15.9418 286.749 16.6166 284.625 17.9411C282.501 19.2656 280.851 21.1399 279.652 23.5391C278.477 25.9382 277.877 28.6622 277.877 31.7361C277.877 34.81 278.852 37.2591 280.801 39.1084C282.751 40.9578 285.325 41.8824 288.548 41.8824C292.947 41.8824 296.795 39.8831 300.119 35.8846L310.415 45.756C307.391 49.4547 303.968 52.1037 300.144 53.6782C296.32 55.2526 291.872 56.0523 286.824 56.0523C281.526 56.0523 276.878 55.0776 272.854 53.1283V53.1533Z" fill="#373737"/>
<path d="M332.132 16.5669H316.938L319.686 2.99683H367.593L364.844 16.5669H349.65L342.003 54.903H324.51L332.157 16.5669H332.132Z" fill="#373737"/>
<path d="M459.994 57.4932C454.982 57.4932 450.837 56.3475 447.562 54.0562C444.286 51.7469 442.021 48.4353 440.768 44.1211C439.515 39.807 439.408 34.6336 440.446 28.601C441.484 22.5505 443.337 17.4129 446.004 13.1883C448.689 8.96362 452.019 5.7504 455.993 3.54858C459.985 1.34676 464.469 0.24585 469.446 0.24585C474.422 0.24585 478.539 1.34676 481.797 3.54858C485.055 5.7504 487.32 8.96362 488.591 13.1883C489.862 17.395 489.996 22.5326 488.993 28.601C487.991 34.6515 486.147 39.8339 483.462 44.148C480.795 48.4621 477.456 51.7649 473.446 54.0562C469.454 56.3475 464.97 57.4932 459.994 57.4932ZM462.035 45.3563C464.612 45.3563 466.921 44.0137 468.962 41.3286C471.021 38.6255 472.542 34.383 473.527 28.601C474.171 24.8418 474.324 21.7628 473.983 19.3641C473.643 16.9475 472.909 15.1663 471.782 14.0206C470.654 12.8571 469.231 12.2753 467.512 12.2753C464.934 12.2753 462.589 13.591 460.477 16.2225C458.383 18.836 456.861 22.9622 455.912 28.601C455.268 32.4676 455.125 35.6361 455.483 38.1064C455.841 40.5767 456.593 42.4026 457.738 43.5841C458.884 44.7656 460.316 45.3563 462.035 45.3563Z" fill="#939393"/>
<path d="M428.765 56.8486C426.671 56.8486 424.961 56.1236 423.637 54.6736C422.33 53.2058 421.784 51.4246 421.999 49.3302C422.213 47.2895 423.135 45.5441 424.764 44.0942C426.411 42.6442 428.282 41.9192 430.376 41.9192C432.363 41.9192 434.019 42.6442 435.344 44.0942C436.686 45.5441 437.25 47.2895 437.035 49.3302C436.892 50.7265 436.4 51.9974 435.559 53.1431C434.735 54.2709 433.715 55.1749 432.498 55.8551C431.298 56.5174 430.054 56.8486 428.765 56.8486Z" fill="#939393"/>
<path d="M372.555 55.9895L374.327 45.2489L397.688 28.2788C399.245 27.151 400.588 26.0949 401.715 25.1103C402.861 24.1078 403.783 23.0785 404.481 22.0224C405.179 20.9662 405.636 19.7937 405.85 18.5048C406.083 17.0907 405.976 15.8823 405.528 14.8799C405.099 13.8595 404.401 13.0808 403.434 12.5438C402.467 12.0068 401.304 11.7383 399.943 11.7383C398.565 11.7383 397.303 12.0157 396.157 12.5707C395.011 13.1256 394.054 13.9401 393.284 15.0142C392.532 16.0882 392.031 17.395 391.78 18.9345H377.603C378.247 15.0679 379.67 11.7383 381.872 8.94572C384.092 6.15317 386.902 4.00506 390.304 2.50137C393.723 0.997691 397.562 0.24585 401.823 0.24585C406.226 0.24585 409.932 0.952939 412.939 2.36712C415.947 3.76339 418.122 5.7325 419.464 8.27444C420.825 10.8164 421.21 13.7969 420.619 17.216C420.261 19.3283 419.464 21.4227 418.229 23.4992C417.012 25.5757 415.052 27.885 412.349 30.4269C409.663 32.9509 405.94 35.9583 401.178 39.449L395.325 43.7452L395.271 44.0674H416.752L414.765 55.9895H372.555Z" fill="#939393"/>
</svg>
