<svg width="339" height="51" viewBox="0 0 339 51" fill="none" xmlns="http://www.w3.org/2000/svg">
<path d="M46.2617 5.24808C49.7746 8.02186 51.5311 11.9191 51.5311 16.9397C51.602 20.6866 50.5672 24.3713 48.5561 27.5335C46.4772 30.6776 43.5288 33.1493 40.0701 34.6473C36.0529 36.41 31.6995 37.2755 27.3136 37.1832H19.0471L16.7198 48.9407H0.582031L10.1549 1.07642H31.4194C37.8086 1.07642 42.756 2.46697 46.2617 5.24808ZM33.3405 23.0545C33.9682 22.455 34.4582 21.7263 34.7767 20.9188C35.0951 20.1114 35.2344 19.2444 35.1848 18.3778C35.1848 15.1356 33.1795 13.5145 29.1689 13.5145H23.7677L21.5062 24.7341H28.093C29.9925 24.865 31.8701 24.264 33.3405 23.0545Z" fill="#BBCE00"/>
<path d="M96.1226 27.9177C93.7315 31.1857 90.4049 33.6509 86.5826 34.9876L94.5856 48.9407H77.8331L71.0597 36.8648H67.0966L64.7034 48.9407H48.5547L58.1385 1.07642H79.6116C85.8983 1.07642 90.7872 2.45232 94.2783 5.20415C97.7693 7.95598 99.5111 11.8203 99.5038 16.797C99.5892 20.7693 98.4047 24.6653 96.1226 27.9177ZM77.1415 13.5145H71.7403L69.4898 24.7341H76.0767C77.9578 24.8519 79.8135 24.2516 81.2693 23.0545C81.9007 22.4573 82.394 21.7293 82.7145 20.9215C83.035 20.1136 83.1749 19.2454 83.1246 18.3778C83.1831 15.1429 81.1888 13.5219 77.1415 13.5145Z" fill="#BBCE00"/>
<path d="M112.439 47.338C108.944 45.6912 106.001 43.068 103.964 39.7851C101.951 36.4338 100.92 32.5842 100.989 28.6753C100.897 23.4573 102.233 18.3134 104.853 13.8001C107.401 9.46901 111.123 5.94823 115.59 3.64538C120.397 1.17497 125.741 -0.0694804 131.146 0.0226215C135.57 -0.0749521 139.958 0.849199 143.968 2.72323C147.463 4.37005 150.406 6.99324 152.443 10.2761C154.464 13.6401 155.495 17.5061 155.418 21.4298C155.51 26.6478 154.174 31.7917 151.554 36.3051C149.006 40.6361 145.283 44.1569 140.817 46.4597C136.009 48.9302 130.666 50.1746 125.261 50.0825C120.833 50.1664 116.445 49.2272 112.439 47.338ZM133.297 34.9877C135.222 33.6497 136.741 31.8076 137.688 29.6633C138.704 27.3569 139.216 24.8608 139.192 22.341C139.287 21.089 139.11 19.8313 138.671 18.6548C138.232 17.4784 137.543 16.4112 136.652 15.527C135.76 14.6428 134.688 13.9628 133.508 13.5338C132.327 13.1049 131.068 12.9373 129.817 13.0426C127.444 12.989 125.114 13.6801 123.154 15.0186C121.231 16.3634 119.712 18.2084 118.762 20.354C117.747 22.6604 117.235 25.1565 117.258 27.6763C117.163 28.9283 117.341 30.186 117.78 31.3625C118.219 32.5389 118.907 33.6061 119.799 34.4903C120.69 35.3745 121.763 36.0545 122.943 36.4835C124.123 36.9124 125.382 37.08 126.634 36.9747C129.008 37.0295 131.34 36.3342 133.297 34.9877Z" fill="#BBCE00"/>
<path d="M151.572 42.6503L161.903 32.8688C164.043 35.8768 166.48 37.3918 169.225 37.3918C170.597 37.4389 171.933 36.9462 172.947 36.0195C174.007 34.961 174.713 33.5992 174.966 32.1223L178.721 13.2401H162.452L164.911 1.07642H197.12L191.104 31.1672C189.78 37.9078 187.317 42.7381 183.716 45.6582C180.115 48.5784 175.193 50.0421 168.951 50.0495C160.929 50.0421 155.136 47.5757 151.572 42.6503Z" fill="#373737"/>
<path d="M216.05 13.2401L214.952 18.8499H235.195L232.868 30.4756H212.559L211.318 36.766H235.371L232.912 48.9407H193.105L202.678 1.07642H241.595L239.103 13.2401H216.05Z" fill="#373737"/>
<path d="M251.628 47.338C248.069 45.7124 245.067 43.0767 242.994 39.7586C240.921 36.4405 239.87 32.5864 239.969 28.6753C239.874 23.4674 241.211 18.3333 243.834 13.833C246.397 9.51425 250.115 5.99723 254.57 3.67832C259.394 1.1833 264.762 -0.0729654 270.192 0.0226338C274.406 -0.0584848 278.586 0.792474 282.432 2.51465C285.76 3.9772 288.538 6.456 290.37 9.59549L278.744 18.6963C277.843 16.9509 276.465 15.4972 274.77 14.5041C273.076 13.511 271.134 13.0194 269.171 13.0865C266.805 13.0484 264.477 13.6883 262.463 14.9308C260.485 16.1888 258.899 17.9764 257.886 20.0905C256.759 22.4501 256.199 25.0401 256.25 27.6544C256.195 28.9151 256.407 30.1731 256.873 31.3461C257.338 32.5191 258.046 33.5805 258.95 34.4608C260.903 36.2215 263.471 37.1407 266.097 37.0187C270.152 37.0187 273.705 35.189 276.757 31.5296L286.308 40.5316C283.82 43.7299 280.565 46.2484 276.845 47.854C272.934 49.3852 268.759 50.1312 264.56 50.0496C260.099 50.1453 255.675 49.2177 251.628 47.338Z" fill="#373737"/>
<path d="M306.308 13.5914H292.289L294.825 1.07642H339.001L336.465 13.5914H322.446L315.409 48.9407H299.271L306.308 13.5914Z" fill="#373737"/>
</svg>
