<svg width="342" height="40" viewBox="0 0 342 40" fill="none" xmlns="http://www.w3.org/2000/svg">
<path d="M34.7709 5.08245C37.425 7.19532 38.7521 10.1464 38.7521 13.9355C38.7521 16.9739 38.0012 19.6455 36.4995 21.9679C34.9978 24.2904 32.8501 26.0714 30.0737 27.3636C27.2973 28.6383 24.0669 29.2844 20.4175 29.2844H14.1488L12.3852 38.1899H0.162109L7.40866 1.92188H23.5256C28.3625 1.92188 32.0992 2.96958 34.7709 5.08245ZM24.9749 18.5804C25.9004 17.7422 26.3719 16.5548 26.3719 15.0356C26.3719 12.591 24.8527 11.3512 21.8144 11.3512H17.7284L16.0172 19.8551H21.0461C22.7399 19.8551 24.0495 19.436 24.9749 18.5804Z" fill="#BBCE00"/>
<path d="M72.5406 22.2475C70.8293 24.6397 68.4197 26.4383 65.3115 27.6082L71.3707 38.1726H58.6762L53.5425 29.0575H50.5391L48.7231 38.1726H36.5L43.7465 1.90454H60.0207C64.7877 1.90454 68.4895 2.95225 71.1262 5.0302C73.7629 7.12561 75.09 10.0417 75.09 13.8134C75.09 17.0264 74.2344 19.8377 72.5231 22.23L72.5406 22.2475ZM58.1698 11.3339H54.0838L52.3725 19.8377H57.4014C59.0952 19.8377 60.4048 19.4187 61.3303 18.563C62.2557 17.7249 62.7272 16.5375 62.7272 15.0183C62.7272 12.5737 61.2081 11.3339 58.1698 11.3339Z" fill="#BBCE00"/>
<path d="M84.903 36.9676C82.1266 35.6056 79.9789 33.7023 78.4772 31.2401C76.9755 28.7955 76.2246 25.9667 76.2246 22.7887C76.2246 18.5804 77.2025 14.8261 79.1582 11.5258C81.1138 8.22558 83.8204 5.65871 87.2952 3.82523C90.7701 1.99175 94.6989 1.08374 99.0818 1.08374C102.784 1.08374 106.014 1.76474 108.79 3.12676C111.567 4.48878 113.714 6.3921 115.216 8.85421C116.718 11.2988 117.469 14.1277 117.469 17.3057C117.469 21.514 116.491 25.2682 114.535 28.5685C112.579 31.8688 109.873 34.4357 106.398 36.2691C102.923 38.1026 98.9944 39.0106 94.6116 39.0106C90.9097 39.0106 87.6794 38.3296 84.903 36.9676ZM100.706 27.6081C102.138 26.6128 103.238 25.2682 103.988 23.5744C104.739 21.8807 105.123 20.0297 105.123 18.0391C105.123 15.8913 104.495 14.18 103.238 12.9053C101.98 11.6306 100.234 10.9845 98.0341 10.9845C96.0958 10.9845 94.4195 11.4909 92.9877 12.4862C91.5558 13.4816 90.4558 14.8436 89.7049 16.5199C88.9366 18.2137 88.5699 20.0646 88.5699 22.0553C88.5699 24.2031 89.1985 25.9143 90.4558 27.189C91.713 28.4637 93.4591 29.1098 95.6593 29.1098C97.5975 29.1098 99.2738 28.6034 100.706 27.6081Z" fill="#BBCE00"/>
<path d="M114.551 33.4231L122.374 26.0193C123.997 28.3068 125.848 29.4418 127.909 29.4418C129.044 29.4418 129.987 29.0926 130.738 28.4116C131.488 27.7131 131.995 26.7352 132.274 25.4605L135.12 11.1594H122.793L124.661 1.93958H149.055L144.497 24.7271C143.502 29.8434 141.634 33.4929 138.91 35.7106C136.186 37.9282 132.449 39.0283 127.717 39.0283C121.64 39.0283 117.257 37.1599 114.551 33.4405V33.4231Z" fill="#373737"/>
<path d="M163.427 11.1418L162.606 15.385H177.937L176.174 24.1857H160.79L159.865 28.9528H178.042L176.174 38.1726H146.018L153.264 1.90454H182.739L180.871 11.1243H163.409L163.427 11.1418Z" fill="#373737"/>
<path d="M190.353 36.9675C187.542 35.6055 185.359 33.7021 183.823 31.24C182.286 28.7954 181.518 25.9666 181.518 22.7886C181.518 18.5803 182.495 14.826 184.451 11.5432C186.407 8.2604 189.113 5.69353 192.588 3.84258C196.063 1.99164 200.009 1.06616 204.427 1.06616C207.919 1.06616 211.01 1.69479 213.699 2.95203C216.388 4.20928 218.396 6.00784 219.706 8.31278L210.905 15.2102C209.281 12.3814 206.872 10.967 203.659 10.967C201.755 10.967 200.062 11.4384 198.577 12.3639C197.093 13.2894 195.941 14.599 195.103 16.2753C194.282 17.9517 193.863 19.855 193.863 22.0028C193.863 24.1506 194.544 25.8618 195.906 27.154C197.268 28.4462 199.066 29.0923 201.319 29.0923C204.392 29.0923 207.081 27.6953 209.404 24.9014L216.598 31.7988C214.485 34.3831 212.093 36.2341 209.421 37.3342C206.749 38.4343 203.641 38.993 200.114 38.993C196.412 38.993 193.164 38.312 190.353 36.95V36.9675Z" fill="#373737"/>
<path d="M231.771 11.4036H221.154L223.075 1.92188H256.549L254.628 11.4036H244.011L238.668 38.1899H226.445L231.788 11.4036H231.771Z" fill="#373737"/>
<path d="M321.111 39.9999C317.608 39.9999 314.713 39.1994 312.424 37.5984C310.135 35.9849 308.553 33.6709 307.677 30.6565C306.802 27.6422 306.727 24.0274 307.452 19.8123C308.178 15.5846 309.472 11.9949 311.336 9.04303C313.212 6.09119 315.538 3.84603 318.315 2.30757C321.104 0.769109 324.238 -0.00012207 327.715 -0.00012207C331.192 -0.00012207 334.069 0.769109 336.345 2.30757C338.622 3.84603 340.204 6.09119 341.092 9.04303C341.98 11.9824 342.074 15.5721 341.373 19.8123C340.673 24.0399 339.385 27.6609 337.508 30.6753C335.645 33.6897 333.312 35.9974 330.51 37.5984C327.721 39.1994 324.588 39.9999 321.111 39.9999ZM322.536 31.5196C324.338 31.5196 325.951 30.5815 327.377 28.7053C328.815 26.8166 329.879 23.8523 330.567 19.8123C331.017 17.1856 331.123 15.0343 330.885 13.3582C330.648 11.6697 330.135 10.4251 329.347 9.62464C328.559 8.81164 327.565 8.40513 326.364 8.40513C324.563 8.40513 322.924 9.32446 321.448 11.1631C319.985 12.9892 318.922 15.8723 318.259 19.8123C317.809 22.514 317.708 24.7278 317.959 26.4539C318.209 28.18 318.734 29.4558 319.535 30.2813C320.335 31.1068 321.336 31.5196 322.536 31.5196Z" fill="#939393"/>
<path d="M299.291 39.5494C297.828 39.5494 296.633 39.0429 295.707 38.0297C294.794 37.0041 294.413 35.7596 294.563 34.2962C294.713 32.8703 295.357 31.6508 296.495 30.6376C297.646 29.6245 298.953 29.1179 300.417 29.1179C301.805 29.1179 302.962 29.6245 303.888 30.6376C304.826 31.6508 305.22 32.8703 305.07 34.2962C304.97 35.2718 304.626 36.1598 304.038 36.9603C303.462 37.7483 302.749 38.38 301.899 38.8553C301.061 39.318 300.192 39.5494 299.291 39.5494Z" fill="#939393"/>
<path d="M260.016 38.9492L261.254 31.4445L277.577 19.5871C278.665 18.7991 279.603 18.0612 280.391 17.3732C281.191 16.6728 281.836 15.9536 282.323 15.2156C282.811 14.4777 283.13 13.6584 283.28 12.7579C283.443 11.7697 283.368 10.9255 283.055 10.225C282.755 9.51207 282.267 8.96798 281.592 8.59275C280.916 8.21751 280.103 8.0299 279.153 8.0299C278.189 8.0299 277.308 8.22377 276.507 8.61151C275.707 8.99925 275.038 9.56836 274.5 10.3188C273.974 11.0693 273.624 11.9824 273.449 13.058H263.543C263.993 10.3564 264.987 8.0299 266.526 6.07868C268.077 4.12746 270.041 2.62652 272.417 1.57586C274.806 0.525207 277.489 -0.00012207 280.466 -0.00012207C283.543 -0.00012207 286.132 0.493937 288.233 1.48206C290.335 2.45767 291.854 3.83353 292.792 5.60963C293.743 7.38574 294.012 9.4683 293.599 11.8573C293.349 13.3332 292.792 14.7966 291.929 16.2475C291.079 17.6984 289.709 19.3119 287.82 21.0881C285.944 22.8517 283.343 24.953 280.016 27.392L275.926 30.3939L275.888 30.619H290.897L289.509 38.9492H260.016Z" fill="#939393"/>
</svg>
