<svg width="272" height="40" viewBox="0 0 272 40" fill="none" xmlns="http://www.w3.org/2000/svg">
<path d="M37.3193 4.17994C40.1256 6.39577 41.5288 9.50905 41.5288 13.5198C41.5854 16.513 40.7587 19.4565 39.1521 21.9826C37.4915 24.4943 35.1361 26.4688 32.3731 27.6655C29.164 29.0736 25.6863 29.765 22.1826 29.6913H15.5789L13.7197 39.0837H0.828125L8.47539 0.847412H25.4625C30.5665 0.847412 34.5188 1.95826 37.3193 4.17994ZM26.9972 18.4046C27.4986 17.9256 27.8901 17.3435 28.1445 16.6985C28.3988 16.0535 28.5101 15.3609 28.4705 14.6686C28.4705 12.0786 26.8686 10.7836 23.6647 10.7836H19.35L17.5434 19.7463H22.8052C24.3226 19.8509 25.8225 19.3708 26.9972 18.4046Z" fill="#BBCE00"/>
<path d="M77.1519 22.2896C75.2418 24.9002 72.5844 26.8695 69.5309 27.9373L75.9241 39.0837H62.5414L57.1304 29.437H53.9645L52.0527 39.0837H39.1523L46.8084 0.847412H63.9621C68.9843 0.847412 72.8898 1.94656 75.6786 4.14485C78.4674 6.34315 79.8588 9.43012 79.853 13.4058C79.9213 16.5791 78.975 19.6913 77.1519 22.2896ZM61.9889 10.7836H57.6742L55.8764 19.7463H61.1382C62.641 19.8404 64.1234 19.3609 65.2864 18.4046C65.7908 17.9275 66.1848 17.346 66.4409 16.7006C66.6969 16.0553 66.8087 15.3617 66.7684 14.6686C66.8152 12.0844 65.222 10.7894 61.9889 10.7836Z" fill="#BBCE00"/>
<path d="M90.1856 37.8034C87.3938 36.4879 85.0424 34.3923 83.4153 31.7698C81.8071 29.0926 80.9835 26.0174 81.0387 22.8948C80.965 18.7264 82.0325 14.6172 84.1257 11.0117C86.1611 7.55183 89.1348 4.73925 92.7026 2.89963C96.5432 0.926144 100.812 -0.0679864 105.129 0.00558913C108.664 -0.0723575 112.169 0.6659 115.372 2.16297C118.164 3.47853 120.516 5.57406 122.143 8.19659C123.757 10.8839 124.581 13.9722 124.519 17.1067C124.593 21.2751 123.526 25.3843 121.432 28.9898C119.397 32.4496 116.423 35.2622 112.856 37.1018C109.015 39.0753 104.746 40.0695 100.429 39.9959C96.8912 40.0629 93.3858 39.3126 90.1856 37.8034ZM106.848 27.9374C108.386 26.8685 109.599 25.397 110.356 23.684C111.167 21.8415 111.577 19.8476 111.558 17.8346C111.634 16.8344 111.491 15.8297 111.141 14.8899C110.791 13.9501 110.24 13.0976 109.528 12.3912C108.816 11.6849 107.959 11.1417 107.016 10.799C106.074 10.4563 105.068 10.3224 104.068 10.4066C102.172 10.3638 100.311 10.9158 98.745 11.9851C97.2089 13.0594 95.9958 14.5333 95.237 16.2473C94.4262 18.0898 94.0166 20.0837 94.0356 22.0967C93.9597 23.0969 94.1018 24.1016 94.4522 25.0414C94.8026 25.9812 95.353 26.8337 96.0651 27.5401C96.7773 28.2464 97.6343 28.7897 98.577 29.1323C99.5196 29.475 100.525 29.6089 101.525 29.5247C103.422 29.5685 105.285 29.0131 106.848 27.9374Z" fill="#BBCE00"/>
<path d="M121.447 34.0586L129.7 26.2448C131.41 28.6477 133.357 29.8579 135.549 29.8579C136.645 29.8955 137.713 29.502 138.522 28.7617C139.369 27.9161 139.933 26.8282 140.136 25.6484L143.135 10.5644H130.138L132.103 0.847412H157.833L153.027 24.8854C151.969 30.2701 150.002 34.1288 147.125 36.4616C144.249 38.7943 140.317 39.9636 135.33 39.9695C128.922 39.9636 124.295 37.9934 121.447 34.0586Z" fill="#373737"/>
<path d="M172.954 10.5644L172.077 15.0457H188.248L186.389 24.3329H170.165L169.174 29.358H188.389L186.424 39.0837H154.625L162.272 0.847412H193.361L191.37 10.5644H172.954Z" fill="#373737"/>
<path d="M201.377 37.8033C198.535 36.5047 196.136 34.3991 194.48 31.7485C192.824 29.0978 191.984 26.019 192.064 22.8946C191.988 18.7343 193.056 14.6329 195.151 11.0379C197.198 7.58782 200.169 4.77825 203.728 2.9258C207.581 0.932652 211.869 -0.0709148 216.207 0.00545447C219.573 -0.0593471 222.912 0.620441 225.985 1.9962C228.643 3.16455 230.863 5.14474 232.326 7.65272L223.039 14.9229C222.319 13.5286 221.218 12.3673 219.865 11.574C218.511 10.7806 216.96 10.3879 215.391 10.4415C213.501 10.411 211.642 10.9223 210.033 11.9148C208.453 12.9198 207.186 14.3478 206.376 16.0366C205.476 17.9216 205.029 19.9907 205.069 22.079C205.026 23.0862 205.195 24.0912 205.567 25.0282C205.939 25.9652 206.504 26.8131 207.227 27.5163C208.786 28.9229 210.838 29.6572 212.936 29.5597C216.175 29.5597 219.013 28.0981 221.451 25.1748L229.081 32.366C227.094 34.9209 224.493 36.9329 221.522 38.2155C218.397 39.4387 215.063 40.0347 211.708 39.9694C208.144 40.0459 204.61 39.3049 201.377 37.8033Z" fill="#373737"/>
<path d="M245.056 10.845H233.857L235.883 0.847412H271.173L269.147 10.845H257.948L252.327 39.0837H239.435L245.056 10.845Z" fill="#373737"/>
</svg>
