<svg width="312" height="60" viewBox="0 0 312 60" fill="none" xmlns="http://www.w3.org/2000/svg">
<path d="M33.8592 51.5168C34.9176 51.0653 35.8849 50.4246 36.7135 49.6261L40.7388 56.0666C39.3669 57.3812 37.7217 58.3766 35.9206 58.9819C33.9262 59.662 31.8312 60.0002 29.7241 59.9821C26.4967 60.1298 23.2935 59.359 20.4866 57.7591C17.6798 56.1592 15.3844 53.7958 13.8669 50.9435C9.90835 50.2439 6.31155 48.2021 3.68173 45.1617C1.20978 42.1597 -0.0902974 38.3635 0.0223806 34.4764C-0.037268 30.3099 1.01991 26.2033 3.08405 22.5835C5.09717 19.0797 8.05626 16.2136 11.6225 14.3134C15.462 12.2912 19.75 11.2716 24.0887 11.3493C27.5969 11.2607 31.077 11.996 34.2495 13.4961C37.009 14.8065 39.3273 16.8918 40.9217 19.4975C42.5074 22.1577 43.3185 25.2079 43.2637 28.3043C43.2985 31.7289 42.5911 35.1204 41.1901 38.2455C39.8703 41.2189 37.8836 43.8483 35.3839 45.9302C32.8155 48.0633 29.8086 49.6042 26.5771 50.4434C27.0656 51.0184 27.6733 51.4803 28.358 51.7973C29.086 52.0908 29.8664 52.2319 30.6511 52.2121C31.7529 52.2028 32.841 51.9661 33.847 51.5168M16.77 22.242C14.9336 23.4475 13.4649 25.1356 12.5252 27.1211C11.5192 29.226 11.0101 31.5338 11.037 33.8665C10.9889 35.0197 11.1809 36.1703 11.6008 37.2454C12.0208 38.3205 12.6595 39.2966 13.4766 40.1118C14.3796 40.9263 15.4357 41.5529 16.5833 41.955C17.7309 42.3571 18.9472 42.5266 20.161 42.4538C22.4252 42.4996 24.6513 41.8666 26.5527 40.6363C28.3903 39.4323 29.8594 37.7438 30.7975 35.7572C31.802 33.6475 32.311 31.3361 32.2857 28.9996C32.3331 27.8465 32.1408 26.6961 31.7208 25.6211C31.3009 24.5461 30.6626 23.57 29.8461 22.7543C28.9435 21.9392 27.8875 21.3123 26.7397 20.9102C25.592 20.508 24.3756 20.3388 23.1617 20.4123C20.8975 20.3666 18.6714 20.9996 16.77 22.2298" fill="#373737"/>
<path d="M75.1638 23.327L69.6992 50.7234H60.5996L61.1607 47.8935C60.021 48.9705 58.6715 49.801 57.1964 50.333C55.7497 50.8765 54.2165 51.1534 52.671 51.1503C50.0605 51.2801 47.4991 50.4074 45.5109 48.7107C44.5983 47.8135 43.8896 46.7303 43.4329 45.5348C42.9761 44.3393 42.7821 43.0595 42.864 41.7824C42.8627 40.6428 42.9813 39.5062 43.2177 38.3914L46.2306 23.327H55.8425L53.0125 37.5375C52.8786 38.1507 52.8091 38.7762 52.8052 39.4038C52.8052 41.7945 54.025 42.9899 56.4645 42.9899C57.2133 43.0157 57.9598 42.8932 58.6611 42.6294C59.3624 42.3657 60.0046 41.9659 60.5508 41.453C61.7532 40.198 62.5335 38.5988 62.783 36.8788L65.5641 23.327H75.1638Z" fill="#373737"/>
<path d="M77.4412 23.3273H86.9921L81.5275 50.7236H71.9766L77.4412 23.3273ZM79.5636 18.936C79.0775 18.5162 78.6892 17.9951 78.4258 17.4093C78.1624 16.8236 78.0304 16.1873 78.0389 15.545C78.0203 14.8084 78.1623 14.0766 78.4551 13.4004C78.7479 12.7242 79.1844 12.1199 79.7344 11.6295C80.9718 10.5566 82.5751 10.0018 84.211 10.0804C85.6697 10.0024 87.1064 10.4625 88.2485 11.3734C88.7373 11.7721 89.1287 12.2771 89.3929 12.85C89.6571 13.4228 89.7872 14.0483 89.7732 14.679C89.7977 15.4384 89.6566 16.194 89.3596 16.8934C89.0625 17.5927 88.6168 18.219 88.0533 18.7287C86.8114 19.813 85.1993 20.3766 83.5523 20.3022C82.0978 20.3675 80.6726 19.8794 79.5636 18.936Z" fill="#373737"/>
<path d="M91.5669 49.5777C89.4948 48.6389 87.7373 47.1228 86.5048 45.2108C85.2851 43.2383 84.6623 40.9549 84.7117 38.6362C84.6672 35.8038 85.4158 33.0154 86.873 30.5861C88.3301 28.1568 90.4376 26.1835 92.9574 24.8892C95.655 23.4816 98.661 22.7689 101.703 22.8156C104.507 22.7398 107.281 23.409 109.742 24.7551C111.943 26.0006 113.681 27.9267 114.694 30.2441L106.509 34.1352C106.14 33.0309 105.421 32.0766 104.462 31.4165C103.502 30.7564 102.354 30.4263 101.191 30.4758C100.281 30.4516 99.3768 30.6294 98.5437 30.9964C97.7106 31.3634 96.9692 31.9105 96.3728 32.5983C95.0692 34.1082 94.389 36.0576 94.47 38.0507C94.4009 38.7705 94.4928 39.4967 94.7388 40.1766C94.9848 40.8566 95.3789 41.4734 95.8925 41.9824C96.4062 42.4913 97.0266 42.8798 97.7087 43.1196C98.3909 43.3594 99.1179 43.4446 99.837 43.369C101.021 43.3897 102.188 43.0905 103.216 42.5029C104.286 41.8337 105.158 40.8903 105.741 39.7706L112.779 44.0155C111.466 46.2431 109.545 48.05 107.241 49.2239C104.75 50.5057 101.98 51.1511 99.1783 51.1024C96.5571 51.1634 93.9557 50.634 91.5669 49.5533" fill="#373737"/>
<path d="M132.637 35.4034L141.847 50.6629H130.625L125.002 41.3193L121.062 44.7469L119.903 50.6629H110.291L117.781 13.1545H127.38L123.489 32.6223L134.565 23.2665H146.689L132.637 35.4034Z" fill="#373737"/>
<path d="M200.252 46.6248H191.982L189.835 57.2613H174.588L176.735 46.6248H147.338L149.314 36.3664L180.626 1.65137H197.544L168.867 34.1464H179.906L181.809 24.6931H196.349L194.446 34.1464H202.789L200.252 46.6248Z" fill="#EA8227"/>
<path d="M253.336 39.5752C253.418 43.1802 252.303 46.7108 250.164 49.614C247.877 52.5795 244.805 54.8446 241.296 56.1521C233.072 59.1106 224.09 59.2095 215.803 56.4326C212.581 55.3364 209.721 53.3791 207.533 50.7728C205.594 48.3817 204.558 45.3853 204.605 42.3075C204.533 38.9528 205.533 35.6627 207.459 32.9152C209.508 30.1126 212.301 27.9405 215.522 26.6455C214.198 25.5392 213.136 24.1519 212.415 22.5843C211.693 21.0167 211.33 19.3081 211.351 17.5825C211.277 14.2277 212.306 10.9414 214.278 8.22679C216.383 5.46389 219.224 3.35012 222.475 2.12787C226.302 0.653662 230.377 -0.0670166 234.478 0.00545846C238.343 -0.065634 242.189 0.558226 245.834 1.84732C248.824 2.87145 251.477 4.69365 253.506 7.1168C255.297 9.32629 256.259 12.0919 256.226 14.9356C256.289 17.8277 255.509 20.6756 253.982 23.1325C252.408 25.5579 250.219 27.5232 247.639 28.8289C249.409 30.0064 250.857 31.6071 251.852 33.4858C252.846 35.3645 253.356 37.4618 253.336 39.5874M234.917 45.2838C235.719 44.6158 236.356 43.7721 236.779 42.818C237.202 41.864 237.4 40.8253 237.356 39.7826C237.408 38.8856 237.248 37.989 236.89 37.1649C236.532 36.3409 235.986 35.6123 235.295 35.0376C233.638 33.8145 231.606 33.2064 229.55 33.3177C227.211 33.2119 224.909 33.933 223.048 35.3548C222.245 36.0216 221.607 36.8651 221.184 37.8194C220.76 38.7737 220.564 39.813 220.609 40.856C220.575 41.7583 220.757 42.6556 221.141 43.4727C221.526 44.2898 222.1 45.0029 222.817 45.5522C224.478 46.7678 226.505 47.379 228.562 47.2843C230.892 47.3961 233.186 46.6691 235.027 45.235M229.208 12.8742C228.557 13.4821 228.048 14.2252 227.715 15.0513C227.382 15.8774 227.234 16.7663 227.281 17.6557C227.243 18.3901 227.376 19.1232 227.668 19.798C227.96 20.4729 228.403 21.0713 228.964 21.5468C230.271 22.549 231.894 23.0509 233.538 22.9618C235.4 23.0359 237.221 22.4042 238.637 21.1931C239.29 20.5925 239.804 19.8569 240.143 19.0374C240.482 18.2179 240.638 17.3343 240.601 16.4481C240.637 15.7104 240.5 14.9746 240.202 14.299C239.903 13.6235 239.451 13.027 238.881 12.557C237.579 11.5732 235.974 11.0768 234.344 11.1543C232.476 11.0585 230.641 11.6729 229.208 12.8742Z" fill="#EA8227"/>
<path d="M309.25 36.4398H293.368L290.27 51.9554H275.791L278.902 36.4398H263.008L265.74 22.7172H281.622L284.72 7.21375H299.199L296.101 22.7172H311.982L309.25 36.4398Z" fill="#373737"/>
</svg>
