<svg width="350" height="68" viewBox="0 0 350 68" fill="none" xmlns="http://www.w3.org/2000/svg">
<path d="M38.5174 57.8786C39.7015 57.3735 40.7836 56.6568 41.7105 55.7635L46.2137 62.9685C44.6789 64.4392 42.8384 65.5528 40.8236 66.2299C38.5924 66.9908 36.2487 67.3691 33.8915 67.3488C30.2809 67.5141 26.6975 66.6517 23.5574 64.8619C20.4173 63.0721 17.8494 60.4282 16.1519 57.2372C11.7233 56.4546 7.69957 54.1704 4.75756 50.7691C1.99216 47.4108 0.537753 43.1639 0.663808 38.8154C0.597078 34.1542 1.77975 29.5602 4.08893 25.5107C6.34103 21.5909 9.6514 18.3846 13.641 16.2588C17.9362 13.9965 22.7333 12.8559 27.5871 12.9428C31.5117 12.8437 35.4049 13.6663 38.9541 15.3445C42.0411 16.8104 44.6347 19.1432 46.4183 22.0583C48.1922 25.0342 49.0997 28.4465 49.0384 31.9106C49.0773 35.7417 48.2859 39.5358 46.7185 43.0319C45.2421 46.3582 43.0195 49.2998 40.2231 51.6288C37.3498 54.0151 33.9859 55.739 30.3708 56.6778C30.9174 57.321 31.5972 57.8378 32.3631 58.1925C33.1776 58.5207 34.0507 58.6786 34.9285 58.6564C36.1611 58.646 37.3783 58.3813 38.5038 57.8786M19.3996 25.1286C17.3452 26.4771 15.7021 28.3657 14.6508 30.5869C13.5254 32.9417 12.9559 35.5234 12.986 38.1331C12.9321 39.4231 13.1469 40.7104 13.6167 41.9131C14.0865 43.1158 14.8011 44.2077 15.7152 45.1197C16.7253 46.0309 17.9068 46.7319 19.1907 47.1817C20.4746 47.6315 21.8352 47.8212 23.1931 47.7397C25.7261 47.7909 28.2164 47.0828 30.3435 45.7065C32.3993 44.3596 34.0428 42.4706 35.0923 40.2482C36.216 37.888 36.7855 35.3022 36.7571 32.6884C36.8101 31.3984 36.595 30.1114 36.1252 28.9088C35.6554 27.7062 34.9413 26.6142 34.0279 25.7017C33.0182 24.7899 31.8368 24.0885 30.5528 23.6386C29.2688 23.1888 27.908 22.9994 26.55 23.0817C24.017 23.0305 21.5267 23.7386 19.3996 25.1149" fill="#373737"/>
<path d="M84.7249 26.3423L78.6116 56.9909H68.4318L69.0595 53.825C67.7845 55.03 66.2748 55.959 64.6246 56.5542C63.0061 57.1622 61.2909 57.4719 59.562 57.4685C56.6416 57.6137 53.7761 56.6374 51.5519 54.7393C50.531 53.7355 49.7381 52.5238 49.2272 51.1864C48.7162 49.849 48.4992 48.4172 48.5907 46.9885C48.5893 45.7136 48.722 44.4421 48.9865 43.1949L52.357 26.3423H63.1099L59.9441 42.2397C59.7943 42.9257 59.7165 43.6254 59.7121 44.3275C59.7121 47.0021 61.0767 48.3394 63.8058 48.3394C64.6435 48.3682 65.4787 48.2312 66.2632 47.9361C67.0477 47.641 67.7662 47.1937 68.3772 46.62C69.7223 45.216 70.5953 43.427 70.8744 41.5028L73.9857 26.3423H84.7249Z" fill="#373737"/>
<path d="M87.2735 26.3426H97.9582L91.8449 56.9912H81.1602L87.2735 26.3426ZM89.6479 21.4301C89.1041 20.9604 88.6696 20.3775 88.375 19.7221C88.0803 19.0668 87.9326 18.355 87.9421 17.6365C87.9213 16.8125 88.0802 15.9938 88.4077 15.2373C88.7353 14.4809 89.2237 13.8048 89.8389 13.2562C91.2232 12.056 93.0168 11.4353 94.8469 11.5232C96.4789 11.436 98.086 11.9507 99.3637 12.9696C99.9106 13.4157 100.348 13.9807 100.644 14.6215C100.94 15.2623 101.085 15.9621 101.069 16.6677C101.097 17.5172 100.939 18.3626 100.607 19.1449C100.274 19.9273 99.7758 20.6279 99.1454 21.1981C97.7561 22.4111 95.9525 23.0417 94.1101 22.9584C92.4829 23.0315 90.8885 22.4854 89.6479 21.4301Z" fill="#373737"/>
<path d="M103.076 55.7091C100.758 54.659 98.7921 52.9629 97.4133 50.8239C96.0488 48.6172 95.3521 46.0627 95.4073 43.4688C95.3576 40.3002 96.1951 37.1807 97.8252 34.4631C99.4553 31.7454 101.813 29.5379 104.632 28.0899C107.65 26.5152 111.013 25.7179 114.416 25.7702C117.553 25.6853 120.656 26.434 123.409 27.9398C125.871 29.3332 127.815 31.488 128.949 34.0805L119.792 38.4335C119.379 37.1981 118.575 36.1306 117.502 35.3921C116.429 34.6536 115.144 34.2843 113.843 34.3397C112.825 34.3126 111.813 34.5115 110.881 34.9221C109.949 35.3326 109.12 35.9447 108.453 36.7141C106.994 38.4033 106.233 40.5841 106.324 42.8138C106.247 43.6191 106.349 44.4314 106.625 45.1921C106.9 45.9528 107.341 46.6428 107.915 47.2122C108.49 47.7816 109.184 48.2161 109.947 48.4844C110.71 48.7527 111.524 48.848 112.328 48.7634C113.652 48.7867 114.958 48.4519 116.108 47.7946C117.305 47.0459 118.281 45.9905 118.933 44.7379L126.806 49.4866C125.338 51.9788 123.189 54.0002 120.611 55.3134C117.824 56.7474 114.725 57.4693 111.591 57.4149C108.659 57.4831 105.749 56.8908 103.076 55.6819" fill="#373737"/>
<path d="M149.023 39.8522L159.325 56.9231H146.771L140.48 46.4704L136.073 50.3049L134.776 56.9231H124.023L132.402 14.9622H143.141L138.788 36.7409L151.179 26.2746H164.743L149.023 39.8522Z" fill="#373737"/>
<path d="M224.662 52.4058H215.411L213.009 64.3049H195.952L198.353 52.4058H165.467L167.677 40.9296L202.706 2.09351H221.633L189.552 38.446H201.901L204.03 27.8705H220.296L218.167 38.446H227.501L224.662 52.4058Z" fill="#EA8227"/>
<path d="M284.049 44.5193C284.141 48.5523 282.893 52.502 280.501 55.7499C277.943 59.0674 274.506 61.6013 270.58 63.064C261.379 66.3738 251.331 66.4844 242.06 63.3779C238.456 62.1515 235.256 59.9618 232.808 57.0462C230.64 54.3712 229.481 51.0191 229.533 47.576C229.453 43.8231 230.571 40.1423 232.726 37.0687C235.018 33.9334 238.143 31.5034 241.746 30.0547C240.265 28.8171 239.077 27.2651 238.27 25.5114C237.463 23.7577 237.056 21.8463 237.08 19.9158C236.997 16.1628 238.148 12.4863 240.354 9.44949C242.709 6.3586 245.887 3.99391 249.525 2.62656C253.806 0.977353 258.365 0.171122 262.952 0.2522C267.276 0.172668 271.579 0.870587 275.656 2.31272C279.001 3.45841 281.969 5.49693 284.24 8.20773C286.243 10.6795 287.319 13.7735 287.283 16.9547C287.352 20.1902 286.48 23.3761 284.772 26.1247C283.01 28.8379 280.562 31.0366 277.676 32.4973C279.656 33.8146 281.276 35.6053 282.389 37.707C283.501 39.8087 284.072 42.155 284.049 44.533M263.443 50.9056C264.34 50.1583 265.053 49.2144 265.526 48.1471C266 47.0798 266.221 45.9178 266.172 44.7513C266.23 43.7478 266.051 42.7448 265.651 41.8229C265.25 40.901 264.639 40.0859 263.866 39.4431C262.012 38.0748 259.74 37.3945 257.439 37.519C254.822 37.4006 252.247 38.2074 250.166 39.7979C249.267 40.5438 248.553 41.4875 248.08 42.5551C247.606 43.6227 247.386 44.7853 247.437 45.9521C247.398 46.9615 247.603 47.9653 248.033 48.8794C248.462 49.7935 249.105 50.5913 249.907 51.2058C251.765 52.5657 254.033 53.2494 256.334 53.1435C258.941 53.2686 261.507 52.4553 263.566 50.851M257.057 14.6486C256.329 15.3287 255.759 16.16 255.386 17.0841C255.014 18.0083 254.848 19.0028 254.901 19.9977C254.859 20.8193 255.007 21.6394 255.334 22.3944C255.66 23.1493 256.157 23.8188 256.784 24.3507C258.246 25.4719 260.061 26.0333 261.901 25.9337C263.984 26.0166 266.021 25.3099 267.605 23.955C268.335 23.2832 268.91 22.4602 269.29 21.5434C269.669 20.6266 269.844 19.6381 269.802 18.6468C269.842 17.8215 269.689 16.9983 269.355 16.2426C269.021 15.4869 268.516 14.8195 267.878 14.2938C266.422 13.1931 264.625 12.6379 262.802 12.7245C260.713 12.6174 258.66 13.3047 257.057 14.6486Z" fill="#EA8227"/>
<path d="M346.601 41.0116H328.834L325.368 58.3691H309.17L312.65 41.0116H294.869L297.926 25.66H315.693L319.159 8.31616H335.356L331.89 25.66H349.657L346.601 41.0116Z" fill="#373737"/>
</svg>
