<svg width="257" height="99" viewBox="0 0 257 99" fill="none" xmlns="http://www.w3.org/2000/svg">
<path d="M19.4062 45.8062C13.1562 42.6762 10.5262 40.3361 10.5262 36.4261C10.478 35.5146 10.6209 34.6031 10.9456 33.75C11.2704 32.8969 11.7698 32.1211 12.412 31.4724C13.0541 30.8236 13.8248 30.3163 14.6745 29.9828C15.5242 29.6494 16.4343 29.4972 17.3463 29.5361C23.8763 29.5361 25.8663 34.7262 27.2863 39.2662L29.9863 38.6262C29.4163 34.1562 28.9262 30.4662 28.6362 27.8362C25.3025 27.0807 21.9031 26.652 18.4863 26.5562C7.82625 26.5562 2.00626 32.4562 2.00626 39.9062C2.00626 47.3562 6.83625 50.8462 14.2162 54.8262C20.2162 58.0162 22.7462 60.4362 22.7462 64.5562C22.7462 69.0962 20.1162 71.7962 15.7462 71.7962C8.74625 71.7962 4.80625 64.0562 3.38625 59.5762L0.65625 60.2462C1.15625 63.5862 2.35625 70.9762 2.78625 72.6062C6.63149 73.9283 10.6523 74.6698 14.7162 74.8062C24.8762 74.8062 31.8362 68.7062 31.8362 60.3262C31.8362 53.2462 27.0063 49.5662 19.4062 45.8062Z" fill="#373737"/>
<path d="M56.9073 41.3262C55.2647 41.3996 53.6722 41.9144 52.2973 42.8162C52.0773 42.8962 47.4673 45.6662 47.2973 45.7362V40.6162C43.0076 41.9274 38.6474 42.9958 34.2374 43.8162V46.1562C37.7174 46.5862 38.1373 47.0062 38.1373 50.8462V82.5162C38.1373 86.4262 37.8573 87.0662 33.5273 87.5162V89.8662H52.5273V87.5162C47.6273 86.8862 47.2673 86.4562 47.2673 82.5162V73.9962C48.7114 74.4713 50.228 74.6879 51.7473 74.6362C60.9073 72.6362 69.1474 65.7562 69.1474 55.3862C69.1974 48.5062 64.7173 41.3262 56.9073 41.3262ZM53.1474 71.1562C50.9638 70.9592 48.9101 70.0328 47.3174 68.5262V48.3562C48.6109 47.3807 50.1777 46.8352 51.7973 46.7962C55.3473 46.7962 59.6774 50.1362 59.6774 58.8662C59.6574 66.5362 56.9074 71.1562 53.1474 71.1562Z" fill="#373737"/>
<path d="M79.4655 36.9262C80.8164 36.9503 82.1218 36.4374 83.0948 35.4999C84.0679 34.5625 84.6292 33.2772 84.6555 31.9262C84.6557 31.2594 84.5225 30.5993 84.2637 29.9847C84.005 29.3701 83.6259 28.8135 83.1488 28.3476C82.6718 27.8817 82.1063 27.516 81.4858 27.2719C80.8652 27.0278 80.2021 26.9102 79.5355 26.9262C78.867 26.9143 78.2028 27.0342 77.5806 27.279C76.9585 27.5239 76.3907 27.8889 75.9097 28.3532C75.4287 28.8175 75.0438 29.372 74.7772 29.9851C74.5105 30.5982 74.3672 31.2578 74.3555 31.9262C74.3967 33.2582 74.9517 34.5226 75.9042 35.4546C76.8567 36.3866 78.1329 36.914 79.4655 36.9262Z" fill="#373737"/>
<path d="M84.5763 65.4761V41.2461C80.3729 42.4605 76.0742 43.3169 71.7263 43.8061V46.1461C75.0663 46.5761 75.4162 46.8561 75.4162 51.6161V65.4661C75.4162 70.4661 74.9962 70.7961 71.1562 71.2861V73.7061H88.9862V71.2861C84.8662 70.8061 84.5763 70.3061 84.5763 65.4761Z" fill="#373737"/>
<path d="M113.087 41.326C110.177 41.326 107.617 43.956 104.427 48.856V41.186C100.259 42.4899 95.9761 43.394 91.6367 43.886V46.086C94.9767 46.796 95.2567 47.156 95.2567 50.706V66.246C95.2567 70.506 94.9067 70.866 91.1367 71.246V73.666H109.887V71.246C104.887 70.676 104.427 70.466 104.427 66.246V52.766C105.697 50.066 107.477 49.146 108.537 49.146C109.597 49.146 110.657 50.246 111.877 51.246C112.167 51.516 112.532 51.6934 112.923 51.7557C113.315 51.818 113.717 51.7624 114.077 51.596C115.162 51.0108 116.071 50.1458 116.709 49.0907C117.348 48.0357 117.692 46.8291 117.707 45.596C117.701 45.0068 117.575 44.4249 117.337 43.8861C117.098 43.3473 116.752 42.8631 116.319 42.4631C115.886 42.0631 115.376 41.7559 114.82 41.5604C114.265 41.3648 113.675 41.2851 113.087 41.326Z" fill="#373737"/>
<path d="M128.137 36.9262C129.488 36.9503 130.794 36.4374 131.767 35.4999C132.74 34.5625 133.301 33.2772 133.327 31.9262C133.328 31.2594 133.194 30.5993 132.936 29.9847C132.677 29.3701 132.298 28.8135 131.821 28.3476C131.344 27.8817 130.778 27.516 130.158 27.2719C129.537 27.0278 128.874 26.9102 128.207 26.9262C127.539 26.9143 126.875 27.0342 126.253 27.279C125.63 27.5239 125.063 27.8889 124.582 28.3532C124.101 28.8175 123.716 29.372 123.449 29.9851C123.182 30.5982 123.039 31.2578 123.027 31.9262C123.069 33.2582 123.624 34.5226 124.576 35.4546C125.529 36.3866 126.805 36.914 128.137 36.9262Z" fill="#373737"/>
<path d="M133.258 65.4761V41.2461C129.051 42.4605 124.749 43.3169 120.398 43.8061V46.1461C123.738 46.5761 124.088 46.8561 124.088 51.6161V65.4661C124.088 70.4661 123.668 70.7961 119.828 71.2861V73.7061H137.658V71.2861C133.538 70.8061 133.258 70.3061 133.258 65.4761Z" fill="#373737"/>
<path d="M158.816 68.5962C157.74 69.0633 156.579 69.3049 155.406 69.3062C154.056 69.3062 151.786 68.6762 151.786 63.1362V45.7362H158.326C158.782 45.2792 159.082 44.6897 159.182 44.0521C159.283 43.4145 159.179 42.7614 158.886 42.1862H151.786C151.716 36.8562 151.856 33.0962 151.926 31.1862L151.006 30.6162C148.516 32.3162 145.006 34.6162 142.626 36.2962V42.1962H139.716L137.656 44.8762L138.086 45.7362H142.656V65.5462C142.656 72.0062 145.926 74.5462 151.396 74.5462C152.384 74.4699 153.348 74.2051 154.236 73.7662L159.556 71.1362L158.816 68.5962Z" fill="#373737"/>
<path d="M163.847 99.0061H146.007L176.007 50.4161L144.457 0.246094H162.587L185.827 37.5161L198.447 15.7961H216.297L194.387 50.9161L216.717 85.6661H198.577L184.577 63.8161L163.847 99.0061ZM149.797 96.8961H162.657L184.457 59.7461L199.727 83.5161H212.847L191.847 50.9061L212.447 17.9061H199.657L185.877 41.6161L161.397 2.3461H148.287L178.467 50.4261L149.797 96.8961Z" fill="#E84566"/>
<path d="M256.656 85.6361H218.656V15.7661H234.366V69.9261H256.656V85.6361ZM220.746 83.5161H254.536V72.0361H232.216V17.8861H220.746V83.5161Z" fill="#E84566"/>
</svg>
