<svg width="290" height="40" viewBox="0 0 290 40" fill="none" xmlns="http://www.w3.org/2000/svg">
<path d="M8.04868 38.9413C5.13162 38.242 2.73403 37.3029 0.835938 36.1241L5.81093 26.6136C9.92679 28.9712 14.2225 30.17 18.698 30.17C20.3363 30.17 21.595 29.9702 22.4742 29.5706C23.3533 29.171 23.7928 28.6316 23.7928 27.9323C23.7928 27.2729 23.3533 26.7534 22.4542 26.3538C21.5551 25.9542 20.1565 25.5146 18.2184 25.0351C15.661 24.3758 13.5631 23.7164 11.8848 23.0371C10.2065 22.3578 8.74798 21.3188 7.48924 19.9202C6.23051 18.5216 5.61113 16.6635 5.61113 14.3857C5.61113 11.5086 6.39035 8.99107 7.9288 6.81323C9.46725 4.65538 11.705 2.97701 14.6221 1.7782C17.5391 0.599373 20.9757 0 24.9517 0C27.7888 0 30.4461 0.279749 32.9037 0.839193C35.3612 1.39864 37.4791 2.21776 39.2573 3.27671L34.6219 12.6674C33.1234 11.7283 31.4851 11.009 29.6869 10.5295C27.8887 10.05 26.0306 9.83026 24.1525 9.83026C22.3743 9.83026 20.9757 10.0899 19.9967 10.5894C19.0176 11.089 18.5181 11.7084 18.5181 12.3877C18.5181 13.067 18.9577 13.6264 19.8568 14.026C20.7559 14.4256 22.2144 14.8652 24.2524 15.3447C26.7299 15.9242 28.8078 16.5435 30.5061 17.2029C32.2044 17.8622 33.6629 18.8812 34.9017 20.2598C36.1404 21.6385 36.7598 23.4567 36.7598 25.7144C36.7598 28.5516 35.9806 31.0491 34.4022 33.207C32.8437 35.3648 30.606 37.0232 27.6889 38.202C24.7719 39.3808 21.3553 39.9803 17.4193 39.9803C14.1026 39.9803 10.9857 39.6206 8.08864 38.9213L8.04868 38.9413Z" fill="#CE2037"/>
<path d="M48.4861 38.2818C45.9886 37.1429 44.0706 35.5045 42.7519 33.3866C41.4132 31.2687 40.7539 28.7912 40.7539 25.954C40.7539 24.7951 40.8938 23.4365 41.1935 21.918L45.3892 0.898926H58.2763L54.1205 21.6982C53.9007 22.7172 53.8008 23.6363 53.8008 24.4755C53.8008 26.1938 54.2403 27.4525 55.1195 28.2917C55.9986 29.1308 57.2573 29.5504 58.9356 29.5504C60.8337 29.5504 62.3122 28.951 63.3512 27.7522C64.4101 26.5534 65.2293 24.5354 65.8087 21.6982L69.9645 0.898926H82.6318L78.3161 22.4775C77.1573 28.2717 74.8196 32.6274 71.3231 35.5844C67.8267 38.5415 63.1714 40 57.3372 40C53.9207 40 50.9636 39.4206 48.4661 38.2818H48.4861Z" fill="#CE2037"/>
<path d="M117.378 4.23557C120.175 6.45337 121.574 9.5703 121.574 13.5663C121.574 16.7631 120.775 19.6003 119.196 22.0379C117.618 24.4755 115.36 26.3736 112.423 27.7122C109.486 29.0509 106.09 29.7302 102.234 29.7302H95.6202L93.762 39.1209H80.875L88.5273 0.898926H105.51C110.605 0.898926 114.561 2.01778 117.358 4.23557H117.378ZM107.049 18.4614C108.028 17.5623 108.527 16.3236 108.527 14.7251C108.527 12.1477 106.929 10.849 103.732 10.849H99.4163L97.6181 19.8001H102.913C104.691 19.8001 106.09 19.3605 107.069 18.4614H107.049Z" fill="#CE2037"/>
<path d="M158.918 22.3377C157.12 24.8751 154.582 26.7533 151.305 27.9921L157.699 39.141H144.312L138.898 29.5305H135.721L133.803 39.141H120.916L128.568 0.918945H145.711C150.746 0.918945 154.642 2.01784 157.419 4.21566C160.196 6.41347 161.595 9.5104 161.595 13.4665C161.595 16.8631 160.696 19.8202 158.898 22.3377H158.918ZM143.773 10.8491H139.457L137.659 19.8002H142.954C144.732 19.8002 146.131 19.3606 147.11 18.4615C148.089 17.5624 148.588 16.3236 148.588 14.7252C148.588 12.1478 146.99 10.8491 143.793 10.8491H143.773Z" fill="#CE2037"/>
<path d="M179.957 10.6293L179.078 15.1049H195.242L193.384 24.3956H177.16L176.181 29.4106H195.342L193.384 39.141H161.596L169.248 0.918945H200.317L198.359 10.6493H179.957V10.6293Z" fill="#CE2037"/>
<path d="M251.783 0.898804L244.25 39.1208H232.502L235.899 21.6981L225.15 35.6842H219.475L213.581 21.9179L210.145 39.1208H198.396L206.049 0.898804H216.538L224.83 21.2186L240.834 0.898804H251.803H251.783Z" fill="#CE2037"/>
<path d="M268.807 10.6293L267.928 15.1049H284.091L282.233 24.3956H266.01L265.031 29.4106H284.191L282.233 39.141H250.445L258.098 0.918945H289.166L287.208 10.6493H268.807V10.6293Z" fill="#CE2037"/>
</svg>
