<svg width="416" height="58" viewBox="0 0 416 58" fill="none" xmlns="http://www.w3.org/2000/svg">
<path d="M11.0377 56.2952C6.83912 55.2887 3.38822 53.937 0.65625 52.2403L7.81688 38.5516C13.7409 41.9451 19.9238 43.6705 26.3655 43.6705C28.7236 43.6705 30.5353 43.3829 31.8007 42.8077C33.066 42.2326 33.6987 41.4562 33.6987 40.4497C33.6987 39.5006 33.066 38.7529 31.7719 38.1778C30.4778 37.6026 28.4648 36.9699 25.6753 36.2797C21.9943 35.3307 18.9748 34.3817 16.5592 33.4039C14.1435 32.4262 12.0442 30.9308 10.2325 28.9177C8.42078 26.9047 7.5293 24.2302 7.5293 20.9518C7.5293 16.8107 8.65085 13.1872 10.8652 10.0525C13.0795 6.94669 16.3003 4.53097 20.4989 2.8055C24.6975 1.10878 29.6438 0.246094 35.3666 0.246094C39.4502 0.246094 43.2749 0.648743 46.8121 1.45396C50.3493 2.25918 53.3976 3.43817 55.957 4.96234L49.2852 18.4786C47.1284 17.127 44.7703 16.0917 42.1821 15.4015C39.594 14.7113 36.9195 14.395 34.2163 14.395C31.6569 14.395 29.6438 14.7688 28.2347 15.4877C26.8256 16.2067 26.1067 17.0983 26.1067 18.076C26.1067 19.0538 26.7393 19.8589 28.0334 20.4341C29.3275 21.0093 31.4268 21.6419 34.3601 22.3321C37.926 23.1661 40.9168 24.0576 43.3612 25.0066C45.8056 25.9556 47.9049 27.4223 49.6878 29.4065C51.4708 31.3908 52.3623 34.0078 52.3623 37.2575C52.3623 41.3411 51.2408 44.9358 48.9689 48.0417C46.7258 51.1475 43.505 53.5345 39.3064 55.2312C35.1078 56.9279 30.1902 57.7907 24.525 57.7907C19.7513 57.7907 15.2651 57.273 11.0952 56.2665L11.0377 56.2952Z" fill="#CE2037"/>
<path d="M69.2425 55.3458C65.6478 53.7066 62.887 51.3484 60.989 48.3001C59.0623 45.2517 58.1133 41.6857 58.1133 37.6021C58.1133 35.9342 58.3146 33.9787 58.746 31.7931L64.785 1.53979H83.3336L77.3521 31.4767C77.0357 32.9433 76.892 34.2662 76.892 35.4741C76.892 37.9473 77.5246 39.759 78.79 40.9668C80.0553 42.1747 81.867 42.7786 84.2826 42.7786C87.0146 42.7786 89.1427 41.9158 90.6381 40.1903C92.1622 38.4648 93.3413 35.5603 94.1752 31.4767L100.157 1.53979H118.389L112.177 32.5983C110.51 40.9381 107.145 47.2073 102.112 51.4635C97.0797 55.7196 90.3792 57.8189 81.982 57.8189C77.0645 57.8189 72.8084 56.985 69.2137 55.3458H69.2425Z" fill="#CE2037"/>
<path d="M168.399 6.34256C172.425 9.53468 174.438 14.021 174.438 19.7725C174.438 24.3738 173.288 28.4574 171.016 31.9658C168.744 35.4743 165.495 38.2063 161.268 40.1331C157.04 42.0599 152.151 43.0377 146.601 43.0377H137.082L134.408 56.5538H115.859L126.874 1.54004H151.317C158.651 1.54004 164.345 3.15043 168.371 6.34256H168.399ZM153.532 26.8182C154.941 25.5241 155.66 23.7411 155.66 21.4404C155.66 17.7307 153.359 15.8614 148.758 15.8614H142.546L139.958 28.745H147.579C150.138 28.745 152.151 28.1123 153.56 26.8182H153.532Z" fill="#CE2037"/>
<path d="M228.185 32.3971C225.597 36.0493 221.945 38.7526 217.228 40.5356L226.431 56.5825H207.163L199.37 42.7499H194.798L192.037 56.5825H173.488L184.502 1.5686H209.176C216.423 1.5686 222.031 3.15027 226.028 6.31364C230.026 9.47701 232.039 13.9345 232.039 19.6286C232.039 24.5174 230.745 28.7736 228.156 32.3971H228.185ZM206.387 15.8613H200.175L197.587 28.7448H205.208C207.767 28.7448 209.78 28.1121 211.189 26.818C212.599 25.5239 213.317 23.7409 213.317 21.4403C213.317 17.7305 211.017 15.8613 206.416 15.8613H206.387Z" fill="#CE2037"/>
<path d="M258.467 15.545L257.202 21.9867H280.467L277.792 35.3591H254.441L253.032 42.5774H280.611L277.792 56.5825H232.039L243.053 1.5686H287.771L284.953 15.5737H258.467V15.545Z" fill="#CE2037"/>
<path d="M361.85 1.53979L351.008 56.5536H334.099L338.988 31.4767L323.516 51.6072H315.349L306.866 31.7931L301.919 56.5536H285.01L296.024 1.53979H311.122L323.056 30.7865L346.091 1.53979H361.879H361.85Z" fill="#CE2037"/>
<path d="M386.352 15.545L385.087 21.9867H408.352L405.677 35.3591H382.326L380.917 42.5774H408.495L405.677 56.5825H359.924L370.938 1.5686H415.656L412.838 15.5737H386.352V15.545Z" fill="#CE2037"/>
</svg>
