<svg width="195" height="108" viewBox="0 0 195 108" fill="none" xmlns="http://www.w3.org/2000/svg">
<path d="M194.744 51.9707H160.878C161.11 55.0106 162.087 57.3302 163.808 58.9295C165.53 60.5287 167.642 61.3345 170.157 61.3345C173.893 61.3345 176.493 59.7596 177.946 56.6099H193.865C193.047 59.8207 191.57 62.714 189.446 65.2778C187.309 67.8415 184.648 69.8559 181.437 71.3209C178.226 72.7859 174.637 73.5061 170.67 73.5061C165.884 73.5061 161.623 72.4806 157.887 70.4419C154.152 68.4031 151.234 65.4853 149.134 61.6885C147.034 57.8918 145.984 53.4601 145.984 48.3815C145.984 43.3028 147.022 38.8712 149.097 35.0745C151.173 31.2777 154.066 28.3599 157.802 26.3211C161.538 24.2823 165.823 23.2568 170.67 23.2568C175.394 23.2568 179.594 24.2457 183.268 26.2357C186.943 28.2256 189.812 31.0457 191.888 34.7204C193.963 38.3951 195.001 42.6802 195.001 47.588C195.001 49.0041 194.915 50.4569 194.744 51.9707ZM179.691 43.6569C179.691 41.0931 178.812 39.0422 177.067 37.5283C175.321 36.0145 173.123 35.2576 170.499 35.2576C167.984 35.2576 165.872 35.9901 164.15 37.4429C162.429 38.9079 161.367 40.9711 160.952 43.6569H179.691Z" fill="black"/>
<path d="M37.9556 57.6479C35.7337 58.9786 33.2065 59.6378 30.3864 59.6378C25.8327 59.6378 22.1336 58.0507 19.3013 54.8766C16.4812 51.7024 15.065 47.4661 15.065 42.1555C15.065 36.8449 16.4812 32.6086 19.3013 29.4345C22.1214 26.2603 25.8205 24.6733 30.3864 24.6733C33.2065 24.6733 35.7337 25.3325 37.9556 26.6632C40.1775 27.9939 41.8866 29.9228 43.1075 32.4622H59.3811C57.6475 25.8819 54.217 20.6934 49.0895 16.8844C43.9498 13.0754 37.7846 11.1709 30.5695 11.1709C24.6852 11.1709 19.4234 12.4894 14.772 15.102C10.1329 17.7268 6.50702 21.3892 3.90665 26.0894C1.29408 30.8018 0 36.1613 0 42.1555C0 48.162 1.29408 53.497 3.89444 58.1728C6.49481 62.8486 10.1085 66.4989 14.7598 69.1236C19.4112 71.7484 24.6729 73.0547 30.5573 73.0547C37.7724 73.0547 43.9376 71.1746 49.0773 67.3901C54.217 63.6055 57.6475 58.4292 59.3689 51.8489H43.0953C41.8866 54.3882 40.1653 56.3172 37.9556 57.6479Z" fill="black"/>
<path d="M108.935 35.3674C106.738 31.5828 103.746 28.6895 99.9375 26.6751C96.1285 24.6607 91.8556 23.6475 87.131 23.6475C82.4064 23.6475 78.1335 24.6607 74.3245 26.6751C70.5155 28.6895 67.5123 31.5951 65.327 35.3674C63.1295 39.152 62.043 43.5103 62.043 48.4791C62.043 53.4967 63.1295 57.8795 65.2904 61.6274C67.4512 65.3754 70.4301 68.2688 74.2024 70.2831C77.987 72.2975 82.2355 73.3108 86.9723 73.3108C91.6969 73.3108 95.982 72.2975 99.8276 70.2831C103.661 68.2688 106.689 65.3632 108.911 61.5786C111.132 57.8062 112.243 53.4357 112.243 48.4669C112.231 43.5103 111.132 39.1398 108.935 35.3674ZM94.1874 57.3912C92.1974 59.4666 89.7924 60.5043 86.9601 60.5043C84.1278 60.5043 81.7838 59.4666 79.9037 57.3912C78.0236 55.3157 77.0958 52.3491 77.0958 48.4791C77.0958 44.5602 78.048 41.5692 79.9525 39.5182C81.857 37.4672 84.2498 36.4539 87.131 36.4539C89.9511 36.4539 92.3439 37.4916 94.2729 39.5671C96.214 41.6425 97.1662 44.6091 97.1662 48.4791C97.1662 52.3491 96.1651 55.3157 94.1874 57.3912Z" fill="black"/>
<path d="M136.599 26.3699C133.999 27.8959 131.838 29.9957 130.105 32.6449V24.5874H115.32V72.8834H130.117V50.469C130.117 46.4891 131.045 43.7056 132.888 42.1185C134.731 40.5315 137.503 39.7379 141.202 39.7379H145.267V24.0747C142.081 24.0747 139.2 24.8316 136.599 26.3699Z" fill="black"/>
<path d="M24.915 80.7705V99.9741H22.9617V84.6405L16.1129 99.9741H14.6967L7.84786 84.7016V99.9741H5.89453V80.7705H7.95773L15.3926 97.4104L22.8274 80.7705H24.915Z" fill="#48B16A"/>
<path d="M32.1439 99.2418C31.0086 98.6069 30.1051 97.6913 29.4459 96.5193C28.7867 95.3473 28.457 93.9678 28.457 92.3929C28.457 90.818 28.7867 89.4385 29.4581 88.2665C30.1296 87.0945 31.033 86.1789 32.1806 85.5441C33.3281 84.9092 34.6222 84.5796 36.0506 84.5796C37.479 84.5796 38.773 84.897 39.9328 85.5441C41.0926 86.1789 41.996 87.0945 42.6553 88.2665C43.3145 89.4507 43.6441 90.818 43.6441 92.3929C43.6441 93.9556 43.3145 95.3229 42.6431 96.5071C41.9716 97.6913 41.056 98.6069 39.884 99.2418C38.712 99.8766 37.4179 100.206 35.9895 100.206C34.5612 100.194 33.2793 99.8766 32.1439 99.2418ZM38.773 97.8134C39.6276 97.3617 40.3113 96.678 40.8484 95.7502C41.3856 94.8223 41.642 93.6992 41.642 92.3685C41.642 91.0378 41.3856 89.9024 40.8607 88.9868C40.3357 88.0712 39.652 87.3875 38.7974 86.9236C37.9429 86.4719 37.015 86.2399 36.014 86.2399C35.0129 86.2399 34.0851 86.4719 33.2305 86.9236C32.3759 87.3753 31.6922 88.059 31.1795 88.9868C30.6667 89.9024 30.4104 91.0378 30.4104 92.3685C30.4104 93.6992 30.6667 94.8346 31.1795 95.7502C31.6922 96.6658 32.3637 97.3495 33.2061 97.8134C34.0484 98.2651 34.9763 98.497 35.9773 98.497C36.9906 98.497 37.9185 98.2773 38.773 97.8134Z" fill="#48B16A"/>
<path d="M49.1486 79.3906V99.986H47.1953V79.3906H49.1486Z" fill="#48B16A"/>
<path d="M53.6314 88.2416C54.2663 87.0696 55.1331 86.154 56.2318 85.5192C57.3306 84.8844 58.588 84.5547 59.9798 84.5547C61.3105 84.5547 62.5191 84.8843 63.5934 85.5314C64.6677 86.1784 65.4613 87.0208 65.9618 88.0585V79.3784H67.9151V99.9738H65.9618V96.5799C65.4979 97.642 64.741 98.5088 63.6789 99.1803C62.6167 99.8517 61.3837 100.194 59.9553 100.194C58.5636 100.194 57.3183 99.8639 56.2074 99.2169C55.1086 98.5698 54.2419 97.6542 53.6192 96.4578C52.9966 95.2736 52.6914 93.8941 52.6914 92.3436C52.6914 90.7932 52.9966 89.4258 53.6314 88.2416ZM65.2049 89.145C64.7044 88.2172 64.0207 87.5091 63.1539 87.0086C62.2871 86.5081 61.3349 86.2517 60.2972 86.2517C59.2228 86.2517 58.2584 86.4958 57.4038 86.972C56.5492 87.4603 55.8778 88.1562 55.3894 89.0718C54.9011 89.9874 54.6569 91.074 54.6569 92.3436C54.6569 93.5889 54.9011 94.6754 55.3894 95.6154C55.8778 96.5555 56.5492 97.2636 57.4038 97.7519C58.2584 98.2402 59.2228 98.4844 60.2972 98.4844C61.3349 98.4844 62.2871 98.228 63.1539 97.7275C64.0207 97.2269 64.6921 96.5189 65.2049 95.591C65.7054 94.6632 65.9618 93.5889 65.9618 92.368C65.9618 91.1594 65.7054 90.0729 65.2049 89.145Z" fill="#48B16A"/>
<path d="M72.3331 81.5027C72.0523 81.2219 71.918 80.8801 71.918 80.4772C71.918 80.0743 72.0523 79.7325 72.3331 79.4639C72.6138 79.1953 72.9435 79.061 73.3341 79.061C73.7248 79.061 74.0544 79.1953 74.3352 79.4639C74.616 79.7325 74.7503 80.0743 74.7503 80.4772C74.7503 80.8801 74.616 81.2341 74.3352 81.5027C74.0544 81.7835 73.7248 81.9178 73.3341 81.9178C72.9435 81.9178 72.6016 81.7835 72.3331 81.5027ZM74.2986 84.7867V99.9738H72.3453V84.7867H74.2986Z" fill="#48B16A"/>
<path d="M90.3039 86.1908C91.4515 87.314 92.0253 88.9377 92.0253 91.0741V99.974H90.1086V91.2939C90.1086 89.6457 89.6935 88.3761 88.8756 87.5093C88.0454 86.6425 86.9222 86.203 85.4939 86.203C84.0289 86.203 82.8569 86.6669 81.9901 87.5948C81.1233 88.5226 80.6838 89.8899 80.6838 91.6845V99.974H78.7305V84.7869H80.6838V87.375C81.1599 86.4472 81.8558 85.7391 82.7714 85.2508C83.6748 84.7624 84.7125 84.5183 85.8601 84.5183C87.6669 84.5061 89.1563 85.0677 90.3039 86.1908Z" fill="#48B16A"/>
<path d="M106.444 85.5558C107.507 86.2272 108.264 87.0696 108.727 88.0829V84.7744H110.681V100.352C110.681 101.744 110.376 102.977 109.777 104.051C109.179 105.126 108.337 105.956 107.262 106.542C106.188 107.128 104.967 107.421 103.588 107.421C101.634 107.421 100.023 106.957 98.7289 106.029C97.4348 105.101 96.6412 103.844 96.3238 102.245H98.2405C98.5701 103.307 99.205 104.149 100.145 104.772C101.085 105.406 102.233 105.712 103.576 105.712C104.564 105.712 105.443 105.504 106.225 105.089C107.006 104.674 107.616 104.051 108.056 103.233C108.495 102.415 108.727 101.451 108.727 100.34V96.5798C108.239 97.6176 107.482 98.4721 106.432 99.1558C105.382 99.8273 104.149 100.169 102.721 100.169C101.329 100.169 100.084 99.8395 98.973 99.1924C97.8743 98.5454 97.0075 97.6298 96.3849 96.4334C95.7622 95.2492 95.457 93.8696 95.457 92.3192C95.457 90.7565 95.7622 89.3892 96.3849 88.2172C97.0075 87.0452 97.8743 86.1295 98.973 85.4947C100.072 84.8599 101.329 84.5303 102.721 84.5303C104.137 84.5547 105.382 84.8965 106.444 85.5558ZM107.971 89.145C107.47 88.2172 106.786 87.5091 105.92 87.0086C105.053 86.508 104.1 86.2517 103.063 86.2517C101.988 86.2517 101.024 86.4958 100.169 86.9719C99.3148 87.4603 98.6434 88.1561 98.1551 89.0718C97.6667 89.9874 97.4226 91.0739 97.4226 92.3436C97.4226 93.5888 97.6667 94.6754 98.1551 95.6154C98.6434 96.5554 99.3148 97.2635 100.169 97.7519C101.024 98.2402 101.988 98.4844 103.063 98.4844C104.1 98.4844 105.053 98.228 105.92 97.7274C106.786 97.2269 107.458 96.5188 107.971 95.591C108.471 94.6632 108.727 93.5888 108.727 92.368C108.727 91.1594 108.471 90.0728 107.971 89.145Z" fill="#48B16A"/>
<path d="M116.071 98.9849C114.972 98.1791 114.349 97.0804 114.215 95.6886H116.217C116.315 96.5432 116.718 97.2269 117.426 97.764C118.134 98.289 119.098 98.5576 120.307 98.5576C121.369 98.5576 122.199 98.3012 122.797 97.8007C123.395 97.3001 123.701 96.6775 123.701 95.9328C123.701 95.4078 123.53 94.9928 123.2 94.6509C122.871 94.3213 122.443 94.0527 121.93 93.8574C121.418 93.662 120.734 93.4545 119.855 93.2348C118.72 92.9418 117.804 92.6366 117.096 92.3436C116.388 92.0506 115.79 91.6111 115.301 91.0251C114.813 90.4391 114.569 89.6577 114.569 88.6689C114.569 87.9242 114.789 87.2405 115.24 86.6057C115.68 85.9708 116.315 85.4703 117.133 85.104C117.951 84.7378 118.878 84.5425 119.916 84.5425C121.552 84.5425 122.871 84.9575 123.872 85.7755C124.873 86.6057 125.41 87.7411 125.483 89.1816H123.53C123.469 88.2904 123.127 87.5701 122.492 87.0207C121.857 86.4714 120.978 86.2028 119.867 86.2028C118.878 86.2028 118.085 86.4347 117.474 86.8987C116.864 87.3626 116.559 87.9364 116.559 88.62C116.559 89.2182 116.742 89.7066 117.096 90.085C117.462 90.4635 117.902 90.7565 118.451 90.9762C118.988 91.1838 119.709 91.428 120.624 91.6843C121.723 91.9773 122.59 92.2703 123.237 92.5511C123.884 92.8319 124.445 93.2348 124.909 93.7719C125.373 94.3091 125.617 95.0294 125.63 95.9084C125.63 96.7263 125.41 97.4466 124.958 98.0937C124.519 98.7285 123.896 99.2412 123.09 99.6075C122.297 99.9737 121.369 100.169 120.331 100.169C118.598 100.194 117.181 99.7906 116.071 98.9849Z" fill="#48B16A"/>
<path d="M69.9648 17.1893V18.2148H91.5247C102.891 18.2148 112.108 10.5235 112.108 1.0255V0H90.5602C79.1821 0 69.9648 7.70344 69.9648 17.1893Z" fill="#48B16A"/>
</svg>
