<svg width="33" height="33" viewBox="0 0 33 33" fill="none" xmlns="http://www.w3.org/2000/svg">
<path d="M16.5 18.5625C15.4802 18.5625 14.4833 18.2601 13.6353 17.6935C12.7874 17.1269 12.1265 16.3216 11.7362 15.3795C11.346 14.4373 11.2439 13.4005 11.4428 12.4003C11.6418 11.4001 12.1329 10.4813 12.854 9.76023C13.5751 9.03912 14.4939 8.54803 15.4941 8.34908C16.4943 8.15012 17.531 8.25223 18.4732 8.6425C19.4154 9.03276 20.2207 9.69365 20.7873 10.5416C21.3538 11.3895 21.6563 12.3864 21.6563 13.4063C21.6546 14.7733 21.1108 16.0838 20.1442 17.0505C19.1776 18.0171 17.867 18.5609 16.5 18.5625ZM16.5 10.3125C15.8881 10.3125 15.29 10.4939 14.7812 10.8339C14.2724 11.1738 13.8759 11.657 13.6418 12.2223C13.4076 12.7876 13.3463 13.4097 13.4657 14.0098C13.5851 14.6099 13.8797 15.1612 14.3124 15.5939C14.7451 16.0265 15.2963 16.3212 15.8964 16.4406C16.4966 16.5599 17.1186 16.4987 17.6839 16.2645C18.2492 16.0303 18.7324 15.6338 19.0724 15.1251C19.4123 14.6163 19.5938 14.0181 19.5938 13.4063C19.5929 12.586 19.2667 11.7996 18.6867 11.2195C18.1067 10.6395 17.3203 10.3133 16.5 10.3125Z" fill="#373737"/>
<path d="M16.5 30.9375L7.80039 20.6776C7.67951 20.5235 7.55988 20.3685 7.44151 20.2125C5.95546 18.255 5.15266 15.8639 5.15626 13.4062C5.15626 10.3977 6.3514 7.51237 8.47877 5.38501C10.6061 3.25764 13.4915 2.0625 16.5 2.0625C19.5086 2.0625 22.3939 3.25764 24.5213 5.38501C26.6486 7.51237 27.8438 10.3977 27.8438 13.4062C27.8474 15.8628 27.0449 18.2528 25.5595 20.2094L25.5585 20.2125C25.5585 20.2125 25.2491 20.6188 25.2027 20.6735L16.5 30.9375ZM9.08842 18.9698C9.08842 18.9698 9.3287 19.2875 9.38336 19.3555L16.5 27.7489L23.6259 19.3442C23.6713 19.2875 23.9126 18.9678 23.9137 18.9668C25.1276 17.3674 25.7836 15.4141 25.7813 13.4062C25.7813 10.9447 24.8034 8.58399 23.0628 6.84341C21.3223 5.10284 18.9616 4.125 16.5 4.125C14.0385 4.125 11.6777 5.10284 9.93718 6.84341C8.19661 8.58399 7.21876 10.9447 7.21876 13.4062C7.2166 15.4154 7.87338 17.3698 9.08842 18.9698Z" fill="#373737"/>
</svg>
